<svg xmlns="http://www.w3.org/2000/svg" xmlns:xlink="http://www.w3.org/1999/xlink" width="1170" height="341"><style><![CDATA[.B{fill-rule:nonzero}.C{mask:url(#W)}.D{fill:#0140a7}.E{fill:#fff}.F{fill:#051a3a}.G{fill:#002e79}.H{fill:#002d76}.I{fill:#0c5ad7}.J{fill:#3481ff}.K{fill:#1559c9}.L{fill:#2572f0}.M{fill:#3278eb}.N{stroke:#003489}.O{stroke:#0044b4}.P{fill:#c0d8ff}.Q{fill:#6fa6ff}.R{fill:#045eec}.S{fill:#003c9b}.T{fill:#063e9b}.U{fill:#5e9bff}.V{fill:#0953cd}.W{fill:#0040a9}.X{fill:#003387}.Y{fill:#115ad1}.Z{fill:#2e7cf8}.a{fill:#0459de}.b{fill:#0441a0}]]></style><defs><path id="A" d="M0 0h1170v341H0z"/><path d="M43.675 22h-17.85C17.64 22 11 28.623 11 36.792v290.415C11 335.376 17.638 342 25.826 342h118.35c8.185 0 14.826-6.623 14.826-14.792V36.792C159 28.624 152.362 22 144.174 22h-17.85v4.775c0 3.87-3.14 7.006-6.993 7.006H50.67c-3.862 0-6.993-3.126-6.993-7.006V22z" id="B"/><path d="M50.688 39H33.924C26.237 39 20 45.27 20 53.007v274.987C20 335.728 26.234 342 33.924 342h111.152c7.687 0 13.924-6.27 13.924-14.007V53.007C159 45.272 152.766 39 145.076 39H50.688z" id="C"/><path d="M18.122 1h129.512c9.456 0 17.122 7.666 17.122 17.122v310.83c0 9.456-7.666 17.122-17.122 17.122H18.122C8.666 346.073 1 338.407 1 328.95V18.122C1 8.666 8.666 1 18.122 1z" id="D"/><path d="M30.44 22.073h118.633c8.662 0 15.684 7.198 15.684 16.076v291.847c0 8.88-7.022 16.076-15.684 16.076H30.44c-8.662 0-15.684-7.198-15.684-16.076V38.15c0-8.88 7.022-16.076 15.684-16.076z" id="E"/><path id="F" d="M12 3h27v1H12z"/><path id="G" d="M5.795 36.7l.705.7-5.043 5.007-.705-.7z"/><path id="H" d="M3 12h1v31H3z"/><path id="I" d="M532 275.5a7 7 0 1 1 0 14 7 7 0 1 1 0-14zm0 1a6 6 0 0 0-6 6c0 1.758.756 3.34 1.96 4.436l8.457-8.497c-1.097-1.192-2.67-1.94-4.417-1.94z"/><path id="J" d="M25.944 7.5v40H7.5v-40h18.444zm21.52 0v40H29.02v-40h18.444zm21.52 0v40H50.537v-40H68.98zm21.52 0v40H72.056v-40H90.5z"/><path id="K" d="M25.944 7.5v40H7.5l18.444-40zm21.52 0v40H29.02l18.444-40zm21.52 0v40H50.537l18.444-40zm21.52 0v40H72.056L90.5 7.5z"/><path id="L" d="M22.82 10.5v1H10.5v-1h12.32zm21.56 0v1H32.06v-1h12.32zm21.56 0v1H53.62v-1h12.32zm21.56 0v1H75.18v-1H87.5z"/><path id="M" d="M364 254h11v11h-11v-11zm1 1v9h9v-9h-9z"/><path id="N" d="M369.5 254.55l4.95 4.95-4.95 4.95-4.95-4.95 4.95-4.95zm0 1.414l-3.536 3.536 3.536 3.536 3.536-3.536-3.536-3.536z"/><path id="O" d="M57.52 25.837a1.54 1.54 0 0 1 1.541 1.542v.006a1.54 1.54 0 1 1-3.083 0v-.006a1.54 1.54 0 0 1 1.541-1.542zm0 1a.54.54 0 0 0-.541.542v.006a.54.54 0 1 0 1.083 0v-.006a.54.54 0 0 0-.541-.542z"/><path id="P" d="M7.942 32.763L30.868 7.838l-.736-.677L7.206 32.086z"/><path id="Q" d="M4.602 20.45C6.556 22.39 9.19 23.5 12 23.5c5.8 0 10.5-4.7 10.5-10.5a10.47 10.47 0 0 0-3.229-7.575l-.693.72A9.47 9.47 0 0 1 21.5 13a9.5 9.5 0 0 1-9.5 9.5c-2.542 0-4.925-1.003-6.694-2.76l-.705.7z"/><path id="R" d="M19.5 23.5a4 4 0 1 0 0-8 4 4 0 1 0 0 8zm0-1a3 3 0 1 1 0-6 3 3 0 1 1 0 6z"/><path id="S" d="M984.5 210.5c7.18 0 13-5.82 13-13s-5.82-13-13-13-13 5.82-13 13 5.82 13 13 13zm0-1c-6.627 0-12-5.373-12-12s5.373-12 12-12 12 5.373 12 12-5.373 12-12 12z"/><path id="T" d="M1142.93 298.863l1.07-2.615-1.207-1.08a2.19 2.19 0 0 1-.014-3.247l1.197-1.1-1.093-2.606-1.616.1a2.19 2.19 0 0 1-1.663-.631c-.44-.435-.673-1.037-.645-1.655l.076-1.618-2.616-1.07-1.08 1.208a2.19 2.19 0 0 1-3.247.014l-1.09-1.197-2.606 1.093.09 1.617c.034.618-.196 1.223-.632 1.663s-1.036.673-1.655.645l-1.62-.076-1.07 2.615 1.208 1.08a2.19 2.19 0 0 1 .014 3.247l-1.197 1.1 1.093 2.606 1.616-.09c.62-.034 1.224.196 1.664.632a2.19 2.19 0 0 1 .645 1.654l-.076 1.618 2.615 1.07 1.074-1.2c.415-.465 1.01-.733 1.632-.737a2.16 2.16 0 0 1 1.614.708l1.098 1.205 2.605-1.093-.09-1.618a2.19 2.19 0 0 1 .631-1.661c.435-.44 1.038-.674 1.656-.645l1.618.075zm-10.614-1.756c-1.945-.796-2.877-3.017-2.082-4.96s3.016-2.877 4.96-2.08 2.876 3.016 2.08 4.96-3.016 2.876-4.96 2.082z"/><path id="U" d="M2.536 15.536h2a2 2 0 0 1 2 2v2a2 2 0 0 1-2 2h-2a2 2 0 0 1-2-2v-2a2 2 0 0 1 2-2zm0 1a1 1 0 0 0-1 1v2a1 1 0 0 0 1 1h2a1 1 0 0 0 1-1v-2a1 1 0 0 0-1-1h-2z"/><path id="V" d="M879 33.5a7.5 7.5 0 1 0 0-15 7.5 7.5 0 1 0 0 15zm0-1a6.5 6.5 0 1 1 0-13 6.5 6.5 0 1 1 0 13z"/></defs><g fill="none" fill-rule="evenodd"><mask id="W" class="E"><use xlink:href="#A"/></mask><use fill="#09224a" xlink:href="#A"/><g class="C F"><path d="M50 14h37v37H50zm1031 60h68v68h-68zm-948 35h68v68h-68zm286-64h126v126H419zm234 156h126v126H653z"/></g><g class="C"><path d="M942.5 157.5h53" stroke="#0055df"/><path d="M972 162z" class="N"/><path d="M965 166z" class="O"/><path d="M1001.5 239.5h50" stroke="#005bf0"/><g class="N"><path d="M1035 235zm92 27zm-154-31z"/></g><g class="O"><path d="M1025 244zm36 13zm-14 4zm68-4z"/></g><g class="D"><g transform="matrix(0 1 -1 0 1138 101)"><path d="M0 39h20v1H0zm0-24h20v1H0z"/><use xlink:href="#F"/></g><use xlink:href="#G" transform="matrix(0 -1 -1 0 1138 108.252648)" class="B"/><g transform="matrix(0 1 -1 0 1138 101)"><use xlink:href="#H"/><path d="M15 0h1v15h-1zm20 0h1v15h-1z"/></g><g class="B"><use xlink:href="#G" y="-24" transform="matrix(0 -1 -1 0 1138 108.252648)"/><use xlink:href="#G" x="12" y="-36" transform="matrix(0 -1 -1 0 1138 132.252648)"/><use xlink:href="#G" x="32" y="-36" transform="matrix(0 -1 -1 0 1138 172.252648)"/></g></g><path d="M1123 116v21h-6.176l-.01.01-.012-.01h-5.978l-.01.01-.012-.01h-5.978l-.01.01-.012-.01h-5.978l-.01.01-.012-.01H1098v-21h25zm-1.62 1h-4.658l-17.004 19h4.657l17.005-19zm.62.807L1105.72 136h4.657L1122 123.012v-5.205zm0 6.704L1111.72 136h4.657l5.624-6.284v-5.205zm0 6.705l-4.28 4.784h4.28v-4.784zM1115.38 117h-4.66L1099 130.076v5.227L1115.38 117zm-6.002 0h-4.413l-5.966 6.58v5L1109.38 117zm-5.762 0H1099v5.09l4.617-5.09z" class="B K"/><g class="L"><g transform="matrix(0 1 -1 0 1091 111)"><path d="M0 39h20v1H0zm0-24h20v1H0z"/><use xlink:href="#F"/></g><use xlink:href="#G" transform="matrix(0 -1 -1 0 1091 118.252648)" class="B"/><g transform="matrix(0 1 -1 0 1091 111)"><use xlink:href="#H"/><path d="M15 0h1v15h-1zm20 0h1v15h-1z"/></g><g class="B"><use xlink:href="#G" y="-24" transform="matrix(0 -1 -1 0 1091 118.252648)"/><use xlink:href="#G" x="12" y="-36" transform="matrix(0 -1 -1 0 1091 142.252648)"/><use xlink:href="#G" x="32" y="-36" transform="matrix(0 -1 -1 0 1091 182.252648)"/></g></g><path d="M1076 126v21h-6.176l-.01.01-.012-.01h-5.978l-.01.01-.012-.01h-5.978l-.01.01-.012-.01h-5.978l-.01.01-.012-.01H1051v-21h25zm-1.62 1h-4.658l-17.004 19h4.657l17.005-19zm.62.807L1058.72 146h4.657L1075 133.012v-5.205zm0 6.704L1064.72 146h4.657l5.624-6.284v-5.205zm0 6.705l-4.28 4.784h4.28v-4.784zM1068.38 127h-4.66L1052 140.076v5.227L1068.38 127zm-6.002 0h-4.413l-5.966 6.58v5L1062.38 127zm-5.762 0H1052v5.09l4.617-5.09z" class="B P"/><g class="D"><g transform="matrix(0 1 -1 0 1058 140)"><path d="M0 39h20v1H0zm0-24h20v1H0z"/><use xlink:href="#F"/></g><use xlink:href="#G" transform="matrix(0 -1 -1 0 1058 147.252648)" class="B"/><g transform="matrix(0 1 -1 0 1058 140)"><use xlink:href="#H"/><path d="M15 0h1v15h-1zm20 0h1v15h-1z"/></g><g class="B"><use xlink:href="#G" y="-24" transform="matrix(0 -1 -1 0 1058 147.252648)"/><use xlink:href="#G" x="12" y="-36" transform="matrix(0 -1 -1 0 1058 171.252648)"/><use xlink:href="#G" x="32" y="-36" transform="matrix(0 -1 -1 0 1058 211.252648)"/></g></g><path d="M1043 155v21h-6.176l-.01.01-.012-.01h-5.978l-.01.01-.012-.01h-5.978l-.01.01-.012-.01h-5.978l-.01.01-.012-.01H1018v-21h25zm-1.62 1h-4.658l-17.004 19h4.657l17.005-19zm.62.807L1025.72 175h4.657L1042 162.012v-5.205zm0 6.704L1031.72 175h4.657l5.624-6.284v-5.205zm0 6.705l-4.28 4.784h4.28v-4.784zM1035.38 156h-4.66L1019 169.076v5.227L1035.38 156zm-6.002 0h-4.413l-5.966 6.58v5L1029.38 156zm-5.762 0H1019v5.09l4.617-5.09z" class="B U"/><g class="D"><g transform="matrix(0 1 -1 0 1138 154)"><path d="M0 39h20v1H0zm0-24h20v1H0z"/><use xlink:href="#F"/></g><use xlink:href="#G" transform="matrix(0 -1 -1 0 1138 161.252648)" class="B"/><g transform="matrix(0 1 -1 0 1138 154)"><use xlink:href="#H"/><path d="M15 0h1v15h-1zm20 0h1v15h-1z"/></g><g class="B"><use xlink:href="#G" y="-24" transform="matrix(0 -1 -1 0 1138 161.252648)"/><use xlink:href="#G" x="12" y="-36" transform="matrix(0 -1 -1 0 1138 185.252648)"/><use xlink:href="#G" x="32" y="-36" transform="matrix(0 -1 -1 0 1138 225.252648)"/></g></g><path d="M1123 169v21h-6.176l-.01.01-.012-.01h-5.978l-.01.01-.012-.01h-5.978l-.01.01-.012-.01h-5.978l-.01.01-.012-.01H1098v-21h25zm-1.62 1h-4.658l-17.004 19h4.657l17.005-19zm.62.807L1105.72 189h4.657L1122 176.012v-5.205zm0 6.704L1111.72 189h4.657l5.624-6.284v-5.205zm0 6.705l-4.28 4.784h4.28v-4.784zM1115.38 170h-4.66L1099 183.076v5.227L1115.38 170zm-6.002 0h-4.413l-5.966 6.58v5L1109.38 170zm-5.762 0H1099v5.09l4.617-5.09z" class="B K"/><g class="G"><g transform="matrix(0 1 -1 0 1058 68)"><path d="M0 39h20v1H0zm0-24h20v1H0z"/><use xlink:href="#F"/></g><use xlink:href="#G" transform="matrix(0 -1 -1 0 1058 75.252648)" class="B"/><g transform="matrix(0 1 -1 0 1058 68)"><use xlink:href="#H"/><path d="M15 0h1v15h-1zm20 0h1v15h-1z"/></g><g class="B"><use xlink:href="#G" y="-24" transform="matrix(0 -1 -1 0 1058 75.252648)"/><use xlink:href="#G" x="12" y="-36" transform="matrix(0 -1 -1 0 1058 99.252648)"/><use xlink:href="#G" x="32" y="-36" transform="matrix(0 -1 -1 0 1058 139.252648)"/></g></g><path d="M1043 83v21h-6.176l-.01.01-.012-.01h-5.978l-.01.01-.012-.01h-5.978l-.01.01-.012-.01h-5.978l-.01.01-.012-.01H1018V83h25zm-1.62 1h-4.658l-17.004 19h4.657l17.005-19zm.62.807L1025.72 103h4.657L1042 90.012v-5.205zm0 6.704L1031.72 103h4.657l5.624-6.284V91.51zm0 6.705l-4.28 4.784h4.28v-4.784zM1035.38 84h-4.66L1019 97.076v5.227L1035.38 84zm-6.002 0h-4.413L1019 90.58v5L1029.38 84zm-5.762 0H1019v5.09l4.617-5.09z" class="B D"/><g class="G"><g transform="matrix(0 1 -1 0 1058 183)"><path d="M0 39h20v1H0zm0-24h20v1H0z"/><use xlink:href="#F"/></g><use xlink:href="#G" transform="matrix(0 -1 -1 0 1058 190.252648)" class="B"/><g transform="matrix(0 1 -1 0 1058 183)"><use xlink:href="#H"/><path d="M15 0h1v15h-1zm20 0h1v15h-1z"/></g><g class="B"><use xlink:href="#G" y="-24" transform="matrix(0 -1 -1 0 1058 190.252648)"/><use xlink:href="#G" x="12" y="-36" transform="matrix(0 -1 -1 0 1058 214.252648)"/><use xlink:href="#G" x="32" y="-36" transform="matrix(0 -1 -1 0 1058 254.252648)"/></g></g><path d="M1043 198v21h-6.176l-.01.01-.012-.01h-5.978l-.01.01-.012-.01h-5.978l-.01.01-.012-.01h-5.978l-.01.01-.012-.01H1018v-21h25zm-1.62 1h-4.658l-17.004 19h4.657l17.005-19zm.62.807L1025.72 218h4.657L1042 205.012v-5.205zm0 6.704L1031.72 218h4.657l5.624-6.284v-5.205zm0 6.705l-4.28 4.784h4.28v-4.784zM1035.38 199h-4.66L1019 212.076v5.227L1035.38 199zm-6.002 0h-4.413l-5.966 6.58v5L1029.38 199zm-5.762 0H1019v5.09l4.617-5.09z" class="B D"/><path d="M478 10.5h9.523c7.72 0 13.977 6.156 13.977 13.745V34h1v-9.755c0-8.145-6.707-14.745-14.977-14.745H478v1z" fill="#6094ea" class="B"/><path d="M436 76h20.48l-.01 5.457C456.174 84.7 459.64 91 466 91s9.695-6.3 9.543-9.552c-.103-2.2-.103-4.02 0-5.457H496V26.2c0-5.633-4.567-10.2-10.2-10.2H436v20.45h5.462c4.292 0 9.49 3.594 9.49 9.552s-5.048 9.53-9.493 9.53l-5.46.012V76z" fill="#0064ff"/><g class="B"><path d="M442.5 70.5V60h-1v11.5H453v-1z" class="Q"/><path d="M144.42 315.152h-5.92a8.5 8.5 0 0 1-8.5-8.5v-6.163h-1v6.163a9.5 9.5 0 0 0 9.5 9.5h5.92v-1z" fill="#6ba3ff"/></g><path d="M133 267.988h15.032l-.02-3.986c0-4.03 3.252-7.002 7.02-7.002 2.88 0 7.015 1.95 6.968 7.002l.046 3.986H177v15l4.013-.005c2.232-.132 6.964 1.81 6.964 7.005S183.333 297 181.013 297l-4.013-.003v15.002h-15.002v4.028c0 3.37-2.804 6.975-6.968 6.975s-7.02-3.474-7.02-6.975c0 1.188 0-.155 0-4.028H139a6 6 0 0 1-6-6V297l4.005-.001c3.148 0 6.96-2.636 6.96-7.006s-3.702-6.99-6.962-6.99a889.21 889.21 0 0 1-4.004-.009v-14.995z" fill="#ff8da5"/><g fill="#ffccd8"><path d="M181 294.488a4.5 4.5 0 1 0 0-9v1a3.5 3.5 0 1 1 0 7v1z" class="B"/><path d="M135 270.988h11v1h-11z"/></g><path d="M643 257h14l-.064 5.28c0 5.856 5.02 9.213 9.277 9.213s9.078-3.123 9.29-9.154l.058-5.34h19.856v19.78h5.36c6.176 0 9.235 5.096 9.235 9.22s-3.165 9.034-9.28 9.228l-5.313.002V315h-19.914v-5.273c0-4.703-3.762-9.215-9.29-9.215s-9.277 4.512-9.277 9.215V315H637v-19.77l5.317-.002c4.178 0 9.24-3.475 9.238-9.235s-4.914-9.215-9.24-9.215c-1.77 0-3.54-.004-5.314-.012V263a6 6 0 0 1 6-6z" fill="#0064ff"/><path fill="#004cc7" d="M632.5 318.5V302h-1v17.5H649v-1z" class="B"/><path d="M678 261h15v1h-15z" class="Q"/><path d="M969.905 147v-10.58l-2.692.005c-1.605.153-4.713-1.637-4.713-4.924s3.108-5.01 4.713-4.93h2.692V116h26.655a2.94 2.94 0 0 1 2.94 2.94V147h-10.088l-.001-2.822c0-2.218-1.773-4.904-4.712-4.903s-4.702 2.608-4.702 4.905L980 147h-10.086z" fill="#15bdf0"/><g class="B"><path fill="#72deff" d="M973 143.5V138h-1v6.5h6.5v-1z"/><path d="M994.5 112.5h3.968c3.057 0 5.532 2.435 5.532 5.435V122h1v-4.065c0-3.556-2.926-6.435-6.532-6.435H994.5v1z" fill="#336fd4"/></g><rect fill="#004dc3" x="454" y="34" width="29" height="29" rx="7"/><path d="M474 32a5 5 0 0 1 5 5v17a5 5 0 0 1-5 5h-17a5 5 0 0 1-5-5V37a5 5 0 0 1 5-5h17zm-13.5 4H458c-.708.014-1.297.245-1.768.693s-.714 1.008-.73 1.68v4.753c-.02.673-.265 1.232-.736 1.678s-1.06.677-1.768.696c.708.02 1.297.25 1.768.696s.716 1.005.736 1.678v4.753c.015.672.258 1.233.73 1.68s1.06.678 1.768.693h2.498V43.127L470.5 55h2.497c.708-.014 1.298-.245 1.77-.693s.714-1.008.73-1.68v-4.753c.02-.673.265-1.232.736-1.678s1.06-.677 1.768-.696c-.708-.02-1.297-.25-1.768-.696s-.716-1.005-.736-1.678v-4.753c-.015-.673-.258-1.233-.73-1.68s-1.06-.678-1.77-.693H470.5v11.873L460.5 36z" class="E"/><rect x="334" y="21" width="88" height="26" rx="4" class="F"/><rect fill="#014bc0" x="327" y="13" width="88" height="26" rx="4"/><g class="B"><path d="M404.5 19.5v13h-66v-13h66zm-33 7.006L342.447 31.5h58.105L371.5 26.506zm32 4.99v.003-.003zm0-10.49L374.45 26l29.05 4.994v-9.987zm-64 .001v9.985L368.55 26l-29.05-4.992zm61.047-.507h-58.095l29.047 4.992 29.048-4.992z" fill="#1e6dee"/><g fill="#67a0ff"><path d="M335.5 34.5V26h-1v9.5h9.5v-1zM407 18v8.5h1V17h-9.5v1z"/></g><path d="M331 94.5h80a4.5 4.5 0 0 1 4.5 4.5v18a4.5 4.5 0 0 1-4.5 4.5h-80a4.5 4.5 0 0 1-4.5-4.5V99a4.5 4.5 0 0 1 4.5-4.5zm0 1a3.5 3.5 0 0 0-3.5 3.5v18a3.5 3.5 0 0 0 3.5 3.5h80a3.5 3.5 0 0 0 3.5-3.5V99a3.5 3.5 0 0 0-3.5-3.5h-80zm73.5 6v13h-66v-13h66zm-33 7.006l-29.052 4.994h58.105l-29.053-4.994zm32 5v.003-.003zm0-10.5L374.45 108l29.05 4.994v-9.987zm-64 .001v9.985L368.55 108l-29.05-4.992zm61.047-.507h-58.095l29.047 4.992 29.048-4.992z" fill="#003997"/><g fill="#004ac4"><path d="M335.5 116.5V108h-1v9.5h9.5v-1zM407 100v8.5h1V99h-9.5v1z"/></g></g><rect x="334" y="62" width="88" height="26" rx="4" class="F"/><rect fill="#003383" x="327" y="54" width="88" height="26" rx="4"/><g class="B"><path d="M404.5 60.5v13h-66v-13h66zm-33 7.006L342.447 72.5h58.105L371.5 67.506zm32 4.99v.003-.003zm0-10.49L374.45 67l29.05 4.994v-9.987zm-64 .001v9.985L368.55 67l-29.05-4.992zm61.047-.507h-58.095l29.047 4.992 29.048-4.992z" fill="#0e5cdb"/><g fill="#3380ff"><path d="M335.5 75.5V67h-1v9.5h9.5v-1zM407 59v8.5h1V58h-9.5v1z"/></g></g><path fill="#043c95" transform="matrix(-1 0 0 1 261.5 0)" d="M112.5 199.5H150v-1h-38.5V237h1z" class="B"/><g class="D"><path d="M522.5 275.5h19v1h-19zm0 13h19v1h-19z"/><path d="M526 273v19h-1v-19zm13 0v19h-1v-19z"/></g><use xlink:href="#I" fill="#1467ee" class="B"/><g class="G"><path d="M29 132.5h19v1H29zm0 13h19v1H29z"/><path d="M32.5 130v19h-1v-19zm13 0v19h-1v-19z"/></g><use xlink:href="#I" x="-493.5" y="-143" class="B D"/><g class="G"><path d="M78 260.5h19v1H78zm0 13h19v1H78z"/><path d="M81.5 258v19h-1v-19zm13 0v19h-1v-19z"/></g><use xlink:href="#I" x="-444.5" y="-15" class="B D"/><g class="G"><path d="M505 307.5h19v1h-19zm0 13h19v1h-19z"/><path d="M508.5 305v19h-1v-19zm13 0v19h-1v-19z"/></g><use xlink:href="#I" x="-17.5" y="32" class="B D"/><g class="G"><path d="M1021 39.5h19v1h-19zm0 13h19v1h-19z"/><path d="M1024.5 37v19h-1V37zm13 0v19h-1V37z"/></g><use xlink:href="#I" x="498.5" y="-236" class="B D"/><g class="G"><path d="M1070 167.5h19v1h-19zm0 13h19v1h-19z"/><path d="M1073.5 165v19h-1v-19zm13 0v19h-1v-19z"/></g><use xlink:href="#I" x="547.5" y="-108" class="B D"/><g class="G"><path d="M576 85.5h19v1h-19zm0 13h19v1h-19z"/><path d="M579.5 83v19h-1V83zm13 0v19h-1V83z"/></g><use xlink:href="#I" x="53.5" y="-190" class="B D"/><g transform="matrix(0 1 -1 0 497 241.5)"><path fill="#002c74" d="M4.5 4.5h89v46h-89z"/><path d="M.5.5H20v-1H-.5V20h1z" class="B V"/><use xlink:href="#J" class="R"/><use xlink:href="#K" class="S"/><use xlink:href="#L" fill="#a3c6ff"/></g><g transform="matrix(0 1 -1 0 605.5 260.5)"><g class="B"><path d="M4 4h90v47H4V4zm1 1v45h88V5H5z" class="D"/><path d="M.5.5H20v-1H-.5V20h1z" class="V"/><path d="M25.944 7.5v40H7.5v-40h18.444zm21.52 0v40H29.02v-40h18.444zm21.52 0v40H50.537v-40H68.98zm21.52 0v40H72.056v-40H90.5zm-65.556 1H8.5v38h16.444v-38zm21.52 0H30.02v38h16.444v-38zm21.52 0H51.537v38H67.98v-38zm21.52 0H73.056v38H89.5v-38z" class="D"/><path d="M25.944 7.5v40H7.5l18.444-40zm21.52 0v40H29.02l18.444-40zm21.52 0v40H50.537l18.444-40zm21.52 0v40H72.056L90.5 7.5zm-65.556 4.557L9.062 46.5h15.882V12.057zm21.52 0L30.58 46.5h15.882V12.057zm21.52 0L52.1 46.5H67.98V12.057zm21.52 0L73.618 46.5H89.5V12.057z" fill="#0154dd"/></g><use xlink:href="#L" fill="#1b5ac1"/></g><path d="M334 280h49v49h-49z" class="H"/><g transform="translate(234 159)"><path d="M153.087 0c14.356 0 25.994 11.642 25.994 26.01v55.02h.96c.495 0 .898.37.953.844l.006.11v37.5a.96.96 0 0 1-.847.948l-.112.006h-.96v193.54c0 14.365-11.646 26.01-25.994 26.01H37.09c-14.356 0-25.994-11.642-25.994-26.01V126.2h-.137a.96.96 0 0 1-.959-.961v-22.99a.96.96 0 0 1 .959-.961h.137V94.99l-.137.001a.96.96 0 0 1-.959-.961v-22.99a.96.96 0 0 1 .959-.961l.137-.001V58.856l-.137.001A.96.96 0 0 1 10 57.89V46.957a.96.96 0 0 1 .959-.967h.137V26.01C11.096 11.645 22.742 0 37.09 0h115.997z" class="F"/><g class="B M"><path d="M.096 57.2V38c0-14.915 12.09-27 26.994-27h115.997c14.9 0 26.994 12.1 26.994 27v54.02c.98.02 1.793.76 1.9 1.786l.008.17v37.5c0 .995-.75 1.828-1.8 1.947l-.13.006V326c0 14.914-12.1 27-26.994 27H27.1C12.18 353 .096 340.9.096 326V139c-.65-.32-1.096-1-1.096-1.762v-23a1.96 1.96 0 0 1 1.096-1.762V107.8c-.65-.32-1.096-1-1.096-1.76v-23a1.96 1.96 0 0 1 1.096-1.763v-9.622c-.65-.32-1.096-1-1.096-1.767v-10.93a1.97 1.97 0 0 1 1.096-1.768zM143.087 12H27.1C12.742 12 1.096 23.645 1.096 38v20H.96a.96.96 0 0 0-.959.967V69.9a.96.96 0 0 0 .959.967l.137-.001V82.08H.96a.96.96 0 0 0-.959.961v23a.96.96 0 0 0 .959.961l.137-.001v6.297H.96a.96.96 0 0 0-.959.961v23a.96.96 0 0 0 .959.961h.137V326c0 14.367 11.638 26 25.994 26h115.997c14.35 0 25.994-11.645 25.994-26V132.45h.96l.112-.006a.96.96 0 0 0 .847-.948l-.006-37.622c-.055-.475-.457-.844-.953-.844h-.96V38c0-14.367-11.638-26-25.994-26zm-98.412 9h-18.85C17.088 21 10 28.07 10 36.792v290.415C10 335.93 17.086 343 25.826 343h118.35c8.738 0 15.826-7.07 15.826-15.792V36.792C160 28.07 152.914 21 144.174 21h-18.85v5.775c0 3.315-2.7 6.006-5.993 6.006H50.67c-3.313 0-5.993-2.682-5.993-6.006V21zm-1 1v4.775c0 3.88 3.13 7.006 6.993 7.006h68.663c3.854 0 6.993-3.137 6.993-7.006V22h17.85C152.362 22 159 28.624 159 36.792v290.415c0 8.17-6.64 14.792-14.826 14.792H25.826C17.638 342 11 335.376 11 327.208V36.792C11 28.623 17.64 22 25.826 22h17.85z"/></g><use fill="#002560" xlink:href="#B"/><mask id="X" class="E"><use xlink:href="#C"/></mask><use xlink:href="#C" class="W"/><g class="B M"><path d="M104 26a2 2 0 1 0 0-4 2 2 0 1 0 0 4zm0-1a1 1 0 1 1 0-2 1 1 0 1 1 0 2zm-32-1c0-1.107.9-2 2.002-2h19.995A2 2 0 0 1 96 24c0 1.107-.9 2-2.002 2H74.002A2 2 0 0 1 72 24zm1 0a1 1 0 0 0 1.002 1h19.995C94.56 25 95 24.552 95 24a1 1 0 0 0-1.002-1H74.002C73.44 23 73 23.448 73 24z" mask="url(#X)"/></g></g><g fill="#da77fd" class="B"><path d="M326 272h49v49h-49v-49zm1 1v47h47v-47h-47z"/><path d="M28.198.997l.39 67.4-1 .006-.39-67.4 1-.006zM33.48 5.89v57.16h-1V5.89h1zm-10.566.57v56.156h-1V6.46h1zm15.85 4.578v46.664h-1V11.038h1zm-21.132.78v45.254h-1V11.82h1zm26.415 4.563v36.135h-1V16.382h1zM12.5 17v34.767h-1V17h1zm36.83 4.71v25.463h-1V21.71h1zm-42.264.457v24.36h-1v-24.36h1zm47.547 4.966V41.85h-1V27.134h1zm-52.83.475v13.758h-1V27.608h1z" transform="matrix(.707107 .707107 -.707107 .707107 355.005398 252.2735)"/></g><g class="B"><use xlink:href="#M" class="I"/><use xlink:href="#N" class="J"/></g><g class="B"><use xlink:href="#M" x="-38" class="I"/><use xlink:href="#N" x="-38" class="J"/></g><g class="B"><use xlink:href="#M" x="-19" class="I"/><use xlink:href="#N" x="-19" class="J"/></g><g class="B"><use xlink:href="#M" x="-64" y="56" class="I"/><use xlink:href="#N" x="-64" y="56" class="J"/></g><g class="B"><use xlink:href="#M" x="-102" y="56" class="I"/><use xlink:href="#N" x="-102" y="56" class="J"/></g><g class="B"><use xlink:href="#M" x="-83" y="56" class="I"/><use xlink:href="#N" x="-83" y="56" class="J"/></g><path fill="#44d4ff" d="M263 243h49v49h-49z"/><path fill="#4389fe" d="M282.4 236h10.197l3.403 7h-17z"/><g class="B E"><path d="M259.5 240.5H275v-1h-16.5V256h1zM314 295h-15.5v1H315v-16.5h-1z"/></g><path d="M304.737 269.584c-.603-.586-.917-1.322-.942-2.207v-6.254c-.02-.885-.33-1.622-.933-2.21s-1.358-.893-2.264-.91h-3.196v15.623L284.598 258H281.4c-.906.02-1.66.322-2.263.91s-.914 1.326-.933 2.21v6.255c-.025.885-.34 1.62-.942 2.207s-1.357.89-2.263.915c.906.025 1.66.33 2.263.916s.917 1.322.942 2.207v6.254c.02.885.33 1.622.933 2.21s1.357.893 2.263.91h3.197v-15.622L297.402 283h3.196c.906-.02 1.66-.323 2.264-.91s.914-1.327.933-2.21v-6.255c.025-.885.34-1.62.942-2.207s1.357-.89 2.263-.916c-.906-.024-1.66-.33-2.263-.915z" fill="#04b4e9"/><path d="M300.737 265.584c-.603-.586-.917-1.322-.942-2.207v-6.254c-.02-.885-.33-1.622-.933-2.21s-1.358-.893-2.264-.91h-3.196v15.623L280.598 254H277.4c-.906.02-1.66.322-2.263.91s-.914 1.326-.933 2.21v6.255c-.025.885-.34 1.62-.942 2.207s-1.357.89-2.263.915c.906.025 1.66.33 2.263.916s.917 1.322.942 2.207v6.254c.02.885.33 1.622.933 2.21s1.357.893 2.263.91h3.197v-15.622L293.402 279h3.196c.906-.02 1.66-.323 2.264-.91s.914-1.327.933-2.21v-6.255c.025-.885.34-1.62.942-2.207s1.357-.89 2.263-.916c-.906-.024-1.66-.33-2.263-.915z" class="E"/><g fill="#2f73e4" class="B"><path d="M222 209.5v163h1v-163z"/><path d="M222 210.5h65v-1h-65z"/><path d="M288 236v-26.5h-1V236z"/></g><g transform="translate(729 49)"><path d="M160.233.001l2.502.038c2.43.04 4.863.194 7.257.66 2.43.466 4.678 1.205 6.89 2.41 2.174 1.166 4.163 2.68 5.894 4.507s3.168 3.925 4.273 6.217c1.142 2.33 1.842 4.7 2.284 7.266.405 2.525.553 5.1.626 7.654l.037 3.536v54.45l1.586.212v25.266l-1.586.167v26.786l1.586.426v50.744l-1.586.337-.036 162.473c-.037 2.564-.184 5.13-.626 7.654-.442 2.564-1.142 4.934-2.284 7.265-1.105 2.293-2.542 4.39-4.273 6.217s-3.72 3.342-5.894 4.507c-2.2 1.204-4.457 1.943-6.888 2.41-2.395.427-4.826.583-7.257.66l-3.352.04H41.762l-2.502-.038c-2.43-.04-4.863-.194-7.257-.66-2.43-.466-4.68-1.205-6.89-2.41-2.173-1.166-4.163-2.68-5.894-4.507s-3.168-3.924-4.273-6.217c-1.142-2.33-1.842-4.7-2.284-7.265-.405-2.526-.553-5.1-.626-7.654L12 349.613l.037-320.86c.037-2.564.184-5.13.626-7.654.442-2.564 1.142-4.935 2.284-7.266 1.105-2.292 2.542-4.4 4.273-6.217a23.29 23.29 0 0 1 5.894-4.507c2.2-1.204 4.457-1.943 6.89-2.41C34.398.272 36.83.117 39.26.04L42.612 0z" class="F"/><g class="B M"><path d="M178.995 362.613l-.016 2.685-.02.865c-.043 2.994-.23 5.463-.64 7.8-.48 2.778-1.232 5.2-2.37 7.53-1.155 2.395-2.653 4.577-4.448 6.47a24.26 24.26 0 0 1-6.142 4.697c-2.216 1.207-4.533 2.005-7.2 2.515-2.2.4-4.455.58-7.433.676l-3.352.04H29.76a68.48 68.48 0 0 1-2.516-.039c-2.846-.045-5.195-.243-7.43-.678-2.646-.507-4.963-1.306-7.173-2.5-2.277-1.22-4.35-2.805-6.147-4.7S3.2 383.898 2.05 381.5c-1.14-2.326-1.893-4.758-2.373-7.547-.37-2.3-.55-4.683-.64-7.813L-1 362.613-.963 41.737c.043-2.995.23-5.463.64-7.8.48-2.778 1.232-5.2 2.37-7.53a25.31 25.31 0 0 1 4.448-6.48 24.28 24.28 0 0 1 6.141-4.697c2.216-1.207 4.533-2.005 7.2-2.515 2.188-.4 4.453-.58 7.433-.676l3.353-.04 120.14.04c2.85.046 5.196.243 7.43.68 2.646.507 4.963 1.306 7.173 2.5 2.277 1.22 4.35 2.804 6.147 4.7s3.294 4.075 4.446 6.465c1.14 2.326 1.893 4.758 2.373 7.547.37 2.3.55 4.68.64 7.813l.037 3.536v53.575l1.586.212v27.04l-1.586.167v25.12l1.586.426v52.32l-1.586.337v158.127zM148.233 13H30.612l-3.352.04c-2.43.078-4.863.234-7.257.66-2.43.466-4.68 1.205-6.9 2.4a23.29 23.29 0 0 0-5.894 4.507c-1.73 1.826-3.168 3.925-4.273 6.217-1.142 2.33-1.842 4.7-2.284 7.266-.442 2.525-.6 5.1-.626 7.654L0 44.4.037 366.15c.074 2.564.22 5.13.626 7.654.442 2.564 1.142 4.934 2.284 7.265a24.47 24.47 0 0 0 4.273 6.217c1.73 1.827 3.72 3.342 5.894 4.507 2.2 1.204 4.457 1.943 6.9 2.4 2.394.466 4.826.622 7.257.66l2.502.04 120.973-.04c2.43-.078 4.863-.233 7.257-.66 2.43-.466 4.678-1.205 6.888-2.4 2.174-1.166 4.163-2.68 5.894-4.507a24.47 24.47 0 0 0 4.273-6.217c1.142-2.33 1.842-4.7 2.284-7.265.442-2.526.6-5.1.626-7.654l.02-.875.015-2.66v-158.94l1.586-.337v-50.744l-1.586-.426v-26.786l1.586-.167V99.95l-1.586-.212-.036-57.986c-.074-2.564-.22-5.13-.626-7.654-.442-2.564-1.142-4.935-2.284-7.266-1.105-2.292-2.542-4.4-4.273-6.217a23.51 23.51 0 0 0-5.894-4.507c-2.2-1.204-4.457-1.943-6.9-2.4-2.395-.467-4.826-.622-7.257-.66l-2.502-.04zM45.527 23.443a5.83 5.83 0 0 1 5.829 5.83v.02a5.83 5.83 0 0 1-5.829 5.83 5.83 5.83 0 0 1-5.829-5.83v-.02a5.83 5.83 0 0 1 5.829-5.83zm0 1a4.83 4.83 0 0 0-4.829 4.83v.02a4.83 4.83 0 0 0 4.829 4.83 4.83 4.83 0 0 0 4.829-4.83v-.02a4.83 4.83 0 0 0-4.829-4.83zm12.003-.883c1.858 0 3.363 1.506 3.363 3.364v.01L60.9 29.53l-.015 2.694c-.177 1.706-1.618 3.014-3.345 3.014-1.76 0-3.22-1.357-3.353-3.104-.005-.07-.006-.544-.008-2.637l-.001-2.574c0-1.858 1.506-3.364 3.363-3.364zm0 1c-1.305 0-2.363 1.058-2.363 2.364v.01l.007 5.123c.094 1.22 1.113 2.18 2.356 2.18 1.222 0 2.227-.927 2.35-2.117a1063.63 1063.63 0 0 0 .013-5.187v-.01c0-1.305-1.058-2.364-2.363-2.364z"/><use xlink:href="#O"/><use xlink:href="#O" y="4.156"/><path d="M79.146 26.142h21.238c1.258 0 2.374 1.06 2.374 2.35s-1.117 2.35-2.374 2.35H79.146c-1.258 0-2.374-1.06-2.374-2.35s1.117-2.35 2.374-2.35zm0 1c-.694 0-1.374.604-1.374 1.35s.68 1.35 1.374 1.35h21.238c.694 0 1.374-.604 1.374-1.35s-.68-1.35-1.374-1.35H79.146z"/></g><g transform="translate(6.024 36.805)"><use fill="#002560" xlink:href="#D"/><use xlink:href="#E" class="W"/><path d="M18.122 0h129.512c10.008 0 18.122 8.113 18.122 18.122v310.83c0 10.008-8.113 18.122-18.122 18.122H18.122C8.113 347.073 0 338.96 0 328.95V18.122C0 8.113 8.113 0 18.122 0zm0 1C8.666 1 1 8.666 1 18.122v310.83c0 9.456 7.666 17.122 17.122 17.122h129.512c9.456 0 17.122-7.666 17.122-17.122V18.122C164.756 8.666 157.1 1 147.634 1H18.122z" class="B M"/></g></g><rect x="780.5" y="228" width="88" height="26" rx="4" class="H"/><rect fill="#2f7df9" x="773.5" y="235" width="88" height="26" rx="4"/><g class="B"><path d="M851 241.5v13h-66v-13h66zm-33 7.006l-29.052 4.994h58.105L818 248.506zm32 4.99v.003-.003zm0-10.49L820.95 248l29.05 4.994v-9.987zm-64 .001v9.985L815.05 248 786 243.007zm61.047-.507h-58.095L818 247.492l29.048-4.992z" fill="#004fcd"/><g class="Q"><path d="M782 256.5V248h-1v9.5h9.5v-1zm71.5-16.5v8.5h1V239H845v1z"/></g></g><rect x="780.5" y="266" width="88" height="26" rx="4" class="H"/><rect fill="#2f7df9" x="773.5" y="273" width="88" height="26" rx="4"/><g class="B"><path d="M851 279.5v13h-66v-13h66zm-33 7.006l-29.052 4.994h58.105L818 286.506zm32 4.99v.003-.003zm0-10.49L820.95 286l29.05 4.994v-9.987zm-64 .001v9.985L815.05 286 786 281.007zm61.047-.507h-58.095L818 285.492l29.048-4.992z" fill="#004fcd"/><g class="Q"><path d="M782 294.5V286h-1v9.5h9.5v-1zm71.5-16.5v8.5h1V277H845v1z"/></g></g><rect x="780.5" y="304" width="88" height="26" rx="4" class="H"/><rect fill="#c737f9" x="773.5" y="311" width="88" height="26" rx="4"/><g class="B"><path d="M851 317.5v13h-66v-13h66zm-33 7.006l-29.052 4.994h58.105L818 324.506zm32 4.99v.003-.003zm0-10.49L820.95 324l29.05 4.994v-9.987zm-64 .001v9.985L815.05 324 786 319.007zm61.047-.507h-58.095L818 323.492l29.048-4.992z" fill="#9c09cf"/><g fill="#e290ff"><path d="M782 332.5V324h-1v9.5h9.5v-1zm71.5-16.5v8.5h1V315H845v1z"/></g></g><g transform="matrix(0 1 1 0 766 299)"><g fill="#4b8df9"><use xlink:href="#P" class="B"/><rect transform="matrix(.707107 .707107 -.707107 .707107 25.213204 4.20101)" x="5.036" y="30.036" width="5" height="5" rx="1.5"/><rect transform="matrix(.707107 .707107 -.707107 .707107 14.272078 -19.384776)" x="28.036" y="5.036" width="5" height="5" rx="1.5"/><g class="B"><use xlink:href="#Q"/></g></g><g class="E"><use xlink:href="#R" class="B"/><circle cx="19.5" cy="19.5" r="1.5"/><g class="B"><path d="M4.95 15.707l1.414 1.414a2 2 0 0 1 0 2.828L4.95 21.364a2 2 0 0 1-2.828 0L.707 19.95a2 2 0 0 1 0-2.828l1.414-1.414a2 2 0 0 1 2.828 0zm-.707.707a1 1 0 0 0-1.414 0l-1.414 1.414a1 1 0 0 0 0 1.414l1.414 1.414a1 1 0 0 0 1.414 0l1.414-1.414a1 1 0 0 0 0-1.414l-1.414-1.414zM18.45 1.207l1.414 1.414a2 2 0 0 1 0 2.828L18.45 6.864a2 2 0 0 1-2.828 0L14.207 5.45a2 2 0 0 1 0-2.828l1.414-1.414a2 2 0 0 1 2.828 0zm-.707.707a1 1 0 0 0-1.414 0l-1.414 1.414a1 1 0 0 0 0 1.414l1.414 1.414a1 1 0 0 0 1.414 0l1.414-1.414a1 1 0 0 0 0-1.414l-1.414-1.414z"/></g></g></g><path d="M887.412 247c.3 1.528 1.264 2.854 2.64 3.634s3.03.937 4.535.43l1.412 2.39c-1.2 1.02-1.888 2.5-1.888 4.054s.69 3.034 1.888 4.054l-1.412 2.37c-1.504-.506-3.16-.35-4.535.43s-2.34 2.105-2.64 3.634h-2.825c-.3-1.528-1.264-2.854-2.64-3.634s-3.03-.937-4.535-.43l-1.412-2.39c1.2-1.02 1.888-2.5 1.888-4.054s-.69-3.034-1.888-4.054l1.412-2.37c1.504.506 3.16.35 4.535-.43s2.34-2.105 2.64-3.634zM886 253.698c-2.107 0-3.814 1.725-3.814 3.852s1.708 3.852 3.814 3.852 3.814-1.725 3.814-3.852-1.708-3.852-3.814-3.852z" class="H"/><path d="M883.412 249a1 1 0 0 1 .981.807c.244 1.24 1.028 2.32 2.152 2.956 1.13.64 2.488.77 3.723.353a1 1 0 0 1 1.18.439l1.412 2.39a1 1 0 0 1-.213 1.27c-.977.83-1.536 2.032-1.536 3.293s.56 2.462 1.536 3.293a1 1 0 0 1 .211 1.273l-1.412 2.37a1 1 0 0 1-1.178.436c-1.235-.415-2.594-.286-3.723.353-1.124.637-1.908 1.716-2.152 2.956a1 1 0 0 1-.981.807h-2.825a1 1 0 0 1-.981-.807c-.244-1.24-1.028-2.32-2.152-2.956-1.13-.64-2.488-.77-3.723-.353a1 1 0 0 1-1.18-.439l-1.412-2.39a1 1 0 0 1 .213-1.27c.977-.83 1.536-2.032 1.536-3.293s-.56-2.462-1.536-3.293a1 1 0 0 1-.211-1.273l1.412-2.37a1 1 0 0 1 1.178-.436c1.235.415 2.594.286 3.723-.353 1.124-.637 1.908-1.716 2.152-2.956a1 1 0 0 1 .981-.807h2.825zm0 1h-2.825c-.3 1.528-1.264 2.854-2.64 3.634s-3.03.937-4.535.43l-1.412 2.37c1.2 1.02 1.888 2.5 1.888 4.054s-.69 3.034-1.888 4.054l1.412 2.39c1.504-.506 3.16-.35 4.535.43s2.34 2.105 2.64 3.634h2.825c.3-1.528 1.264-2.854 2.64-3.634s3.03-.937 4.535-.43l1.412-2.37c-1.2-1.02-1.888-2.5-1.888-4.054s.69-3.034 1.888-4.054l-1.412-2.39c-1.504.506-3.16.35-4.535-.43s-2.34-2.105-2.64-3.634zM882 255.698c2.66 0 4.814 2.174 4.814 4.852S884.66 265.4 882 265.4s-4.814-2.174-4.814-4.852 2.153-4.852 4.814-4.852zm0 1c-2.107 0-3.814 1.725-3.814 3.852s1.708 3.852 3.814 3.852 3.814-1.725 3.814-3.852-1.708-3.852-3.814-3.852z" class="B E"/><path d="M760.393 288.026c.296 1.49 1.245 2.784 2.602 3.545s2.986.914 4.468.42l1.39 2.333c-1.182.995-1.86 2.438-1.86 3.956s.68 2.96 1.86 3.956l-1.39 2.313c-1.482-.494-3.112-.34-4.468.42s-2.305 2.054-2.602 3.545H757.6c-.296-1.49-1.245-2.784-2.602-3.545s-2.986-.914-4.468-.42l-1.39-2.333c1.182-.995 1.86-2.438 1.86-3.956s-.68-2.96-1.86-3.956l1.39-2.313c1.482.494 3.112.34 4.468-.42s2.305-2.054 2.602-3.545zM759 294.56a3.76 3.76 0 0 0-3.758 3.758 3.76 3.76 0 0 0 3.758 3.758 3.76 3.76 0 0 0 3.758-3.758A3.76 3.76 0 0 0 759 294.56z" class="H"/><g class="B M"><path d="M756.964 285.17a.57.57 0 0 1 .56.46c.264 1.326 1.11 2.48 2.32 3.158a4.99 4.99 0 0 0 4.008.377.57.57 0 0 1 .671.249l1.39 2.333a.57.57 0 0 1-.123.73c-1.054.887-1.657 2.17-1.657 3.52s.604 2.63 1.657 3.52a.57.57 0 0 1 .122.732l-1.39 2.313a.57.57 0 0 1-.67.248 4.99 4.99 0 0 0-4.008.377c-1.21.68-2.057 1.832-2.32 3.158a.57.57 0 0 1-.56.46h-2.783a.57.57 0 0 1-.56-.46c-.264-1.326-1.11-2.48-2.32-3.158a4.99 4.99 0 0 0-4.008-.377.57.57 0 0 1-.671-.249l-1.39-2.333a.57.57 0 0 1 .123-.73c1.054-.887 1.657-2.17 1.657-3.52s-.604-2.63-1.657-3.52a.57.57 0 0 1-.122-.732l1.39-2.313a.57.57 0 0 1 .67-.248 4.99 4.99 0 0 0 4.008-.377c1.21-.68 2.057-1.832 2.32-3.158a.57.57 0 0 1 .56-.46h2.783zm0 .57h-2.783c-.296 1.49-1.245 2.784-2.602 3.545s-2.986.914-4.468.42l-1.39 2.313c1.182.995 1.86 2.438 1.86 3.956s-.68 2.96-1.86 3.956l1.39 2.333c1.482-.494 3.112-.34 4.468.42s2.305 2.054 2.602 3.545h2.783c.296-1.49 1.245-2.784 2.602-3.545s2.986-.914 4.468-.42l1.39-2.313c-1.182-.995-1.86-2.438-1.86-3.956s.68-2.96 1.86-3.956l-1.39-2.333c-1.482.494-3.112.34-4.468-.42s-2.305-2.054-2.602-3.545zm-1.393 5.963a4.33 4.33 0 0 1 4.33 4.33 4.33 4.33 0 0 1-4.33 4.33 4.33 4.33 0 0 1-4.33-4.33 4.33 4.33 0 0 1 4.33-4.33zm0 .57a3.76 3.76 0 0 0-3.758 3.758 3.76 3.76 0 0 0 3.758 3.758 3.76 3.76 0 0 0 3.758-3.758 3.76 3.76 0 0 0-3.758-3.758z"/><path d="M756.964 284.92a.82.82 0 0 1 .806.661c.25 1.255 1.05 2.345 2.198 2.99a4.74 4.74 0 0 0 3.807.358.82.82 0 0 1 .965.359l1.39 2.333a.82.82 0 0 1-.176 1.049c-.997.84-1.568 2.053-1.568 3.327s.57 2.488 1.568 3.327a.82.82 0 0 1 .175 1.052l-1.39 2.313a.82.82 0 0 1-.963.356 4.74 4.74 0 0 0-3.807.358c-1.147.644-1.948 1.734-2.198 2.99a.82.82 0 0 1-.806.661h-2.783a.82.82 0 0 1-.806-.661c-.25-1.255-1.05-2.345-2.198-2.99a4.74 4.74 0 0 0-3.807-.358.82.82 0 0 1-.965-.359l-1.39-2.333a.82.82 0 0 1 .176-1.049c.997-.84 1.568-2.053 1.568-3.327s-.57-2.488-1.568-3.327a.82.82 0 0 1-.175-1.052l1.39-2.313a.82.82 0 0 1 .963-.356 4.74 4.74 0 0 0 3.807-.358c1.147-.644 1.948-1.734 2.198-2.99a.82.82 0 0 1 .806-.661h2.783zm.2 21.56h-3.185a.32.32 0 0 0 .201.071h2.783a.32.32 0 0 0 .201-.071zm-9.708-4.06l-.267.08-.19.064.07.018a.32.32 0 0 0 .144-.014 5.24 5.24 0 0 1 4.209.396c1.274.715 2.166 1.928 2.444 3.327a.32.32 0 0 0 .109.184l-.04-.198c-.282-1.42-1.186-2.65-2.48-3.376a5.31 5.31 0 0 0-4-.482zm18.287-2.512l-1.6 2.657-.2-.063c-1.415-.47-2.972-.325-4.267.4-1.217.683-2.09 1.814-2.423 3.127l-.056.248-.04.198a.32.32 0 0 0 .109-.184c.278-1.4 1.17-2.613 2.444-3.327a5.24 5.24 0 0 1 4.209-.396.32.32 0 0 0 .377-.139l1.39-2.313a.32.32 0 0 0 .043-.208zM756.763 286h-2.38c-.353 1.478-1.322 2.75-2.68 3.513a5.81 5.81 0 0 1-4.196.575l-.282-.076-1.182 1.966c1.138 1.036 1.788 2.485 1.788 4.006 0 1.432-.576 2.8-1.593 3.82l-.196.187 1.184 1.985a5.81 5.81 0 0 1 4.477.5 5.52 5.52 0 0 1 2.612 3.255l.07.26h2.38c.353-1.478 1.322-2.75 2.68-3.513a5.81 5.81 0 0 1 4.196-.575l.282.076 1.182-1.966c-1.138-1.036-1.788-2.485-1.788-4.006 0-1.432.576-2.8 1.593-3.82l.196-.187-1.184-1.985a5.81 5.81 0 0 1-4.477-.5c-1.358-.762-2.327-2.035-2.68-3.513zM745.4 299.887a.32.32 0 0 0 .042.208l1.39 2.333a.32.32 0 0 0 .164.137l-1.598-2.678zm10.17-8.434a4.58 4.58 0 0 1 4.58 4.58 4.58 4.58 0 0 1-4.58 4.58 4.58 4.58 0 0 1-4.58-4.58 4.58 4.58 0 0 1 4.58-4.58zm0 .5a4.08 4.08 0 0 0-4.08 4.08 4.08 4.08 0 0 0 4.08 4.08 4.08 4.08 0 0 0 4.08-4.08 4.08 4.08 0 0 0-4.08-4.08zm0 .07a4.01 4.01 0 0 1 4.008 4.008 4.01 4.01 0 0 1-4.008 4.008 4.01 4.01 0 0 1-4.008-4.008 4.01 4.01 0 0 1 4.008-4.008zm10.17.077l-.154.13c-1.126.948-1.772 2.32-1.772 3.764 0 1.358.572 2.655 1.578 3.593l.194.172.154.13a.32.32 0 0 0-.108-.184c-1.11-.934-1.746-2.287-1.746-3.7s.637-2.776 1.746-3.7a.32.32 0 0 0 .108-.183zm-20.336-.02a.32.32 0 0 0 .108.184c1.11.934 1.746 2.287 1.746 3.7s-.637 2.776-1.746 3.7a.32.32 0 0 0-.108.183l.154-.13c1.126-.948 1.772-2.32 1.772-3.764 0-1.358-.572-2.655-1.578-3.593l-.194-.172-.154-.13zm10.167.444a3.51 3.51 0 0 0-3.508 3.508 3.51 3.51 0 0 0 3.508 3.508 3.51 3.51 0 0 0 3.508-3.508 3.51 3.51 0 0 0-3.508-3.508zm1.6-7.03l.04.198c.282 1.42 1.186 2.65 2.48 3.376a5.31 5.31 0 0 0 4 .482l.267-.08.19-.064 1.598 2.677a.32.32 0 0 0-.042-.208l-1.39-2.333a.32.32 0 0 0-.378-.14 5.24 5.24 0 0 1-4.209-.396c-1.274-.715-2.166-1.928-2.444-3.327a.32.32 0 0 0-.109-.184zm-3.195 0a.32.32 0 0 0-.109.184c-.278 1.4-1.17 2.613-2.444 3.327a5.24 5.24 0 0 1-4.209.396.32.32 0 0 0-.377.139l-1.39 2.313a.32.32 0 0 0-.043.208l1.6-2.657.2.063c1.415.47 2.972.325 4.267-.4 1.217-.683 2.09-1.814 2.423-3.127l.056-.248.04-.198zm2.99-.075h-2.783a.32.32 0 0 0-.202.071h3.187a.32.32 0 0 0-.202-.071z"/></g><g class="B E"><path d="M979.65 197.274a1 1 0 0 0-1.299 1.521l4.797 4.096a1 1 0 0 0 1.454-.167l5.993-8.13a1 1 0 1 0-1.61-1.187l-5.356 7.266-3.98-3.398z"/><use xlink:href="#S"/></g><path d="M932-6.5h51v51h-51z" class="F"/><g class="F"><use xlink:href="#T"/><circle cx="1135" cy="295" r="14"/></g><circle cx="1130" cy="291" r="14" class="X"/><path d="M1132.6 281l-1.054 1.18a2.14 2.14 0 0 1-1.58.711c-.605.003-1.182-.25-1.59-.697l-1.065-1.17-2.544 1.067.088 1.578a2.14 2.14 0 0 1-.617 1.623c-.425.43-1.012.657-1.615.63l-1.58-.074L1120 288.4l1.18 1.055a2.14 2.14 0 0 1 .711 1.58c.003.606-.25 1.183-.698 1.6l-1.17 1.064 1.067 2.544 1.577-.088a2.14 2.14 0 0 1 1.624.617l.123.132c.35.4.53.94.506 1.482l-.074 1.58L1127.4 301l1.05-1.17c.406-.454.985-.716 1.594-.72a2.11 2.11 0 0 1 1.575.691l1.072 1.176 2.543-1.067-.088-1.58c-.033-.603.19-1.193.616-1.62s1.013-.658 1.616-.63l1.58.073L1140 293.6l-1.18-1.055a2.14 2.14 0 0 1-.712-1.58l.007-.18c.043-.538.29-1.042.69-1.41l1.17-1.064-1.067-2.544-1.578.088a2.14 2.14 0 0 1-1.623-.616c-.43-.425-.657-1.012-.63-1.615l.074-1.58L1132.6 281zm-8.42 16.754l.01.002.08.005h.024l-.114-.008zm-.164-.033l.024.008a1 1 0 0 0 .126.025l.015.001-.164-.033zm-.525-.366l.012.018c.027.035.056.068.088.1l.002.001.007.007a1 1 0 0 0 .32.208l.08.026-.51-.36zm12.46.333l-.105.017-.04.003h-.04l.088-.002.032-.003.033-.006.035-.01zm.24-.08l-.068.024-.17.055-.108.017a1 1 0 0 0 .275-.063l.07-.033zm-12.9-.735l-.006-.1c0 .17.047.34.135.5l.058.087-.187-.477zm8.485-10.236c2.41.984 3.564 3.737 2.578 6.146-.957 2.34-3.58 3.497-5.938 2.66l-.208-.08c-2.4-.986-3.564-3.738-2.58-6.147s3.737-3.565 6.147-2.58zm-5.22 2.957c-.776 1.898.133 4.066 2.032 4.843s4.066-.134 4.842-2.032-.133-4.066-2.03-4.842-4.067.133-4.843 2.03zm9.706-5.184a1 1 0 0 1 .134.109l-.024-.025-.023-.026c-.026-.02-.054-.04-.087-.058zm-.184-.096l-.026-.013.21.11-.12-.07-.064-.026zm-.243-.067l-.01-.002c.033.006.075.016.146.035l.066.017-.023-.01a1 1 0 0 0-.135-.034l-.008-.002-.037-.005zm.762 12.993l.027-.04a1 1 0 0 0 .13-.492l-.116.45-.032.07-.008.012zm-13.36-12.06a.58.58 0 0 0-.006.11 1 1 0 0 1 .013-.16l-.004.032-.003.018zm.004-.024l-.004.024.028-.132.013-.06-.014.045-.02.097v.016l-.001.01zm13.252-.53l-.042-.05.025.04a1.14 1.14 0 0 1 .071.154l.154.466a1 1 0 0 0-.207-.609zm-.658-.38l-.01-.002-.04-.006a.87.87 0 0 0-.084-.002 1 1 0 0 1 .179.016l-.045-.007zm-12.323.35l.024-.02c.057-.04.132-.075.236-.117l.075-.09a1 1 0 0 0-.227.132l-.1.086.09-.102a1.14 1.14 0 0 0 .237-.623l.001-.137-.088-1.578a1 1 0 0 1 .612-.978l2.544-1.067a1 1 0 0 1 1.126.249l1.065 1.17a1.14 1.14 0 0 0 .847.371l.134-.01a1.14 1.14 0 0 0 .607-.273l.097-.096 1.054-1.18a1 1 0 0 1 1.124-.259l2.553 1.044a1 1 0 0 1 .621.972l-.074 1.58c-.014.294.087.58.28.8l.047.043.028.033.003.003.08.07a1.14 1.14 0 0 0 .624.237l.137.001 1.578-.088a1 1 0 0 1 .978.612l1.067 2.544a1 1 0 0 1-.249 1.126l-1.168 1.064a1.14 1.14 0 0 0 .007 1.686l1.18 1.055a1 1 0 0 1 .259 1.124l-1.044 2.553a1 1 0 0 1-.972.621l-1.58-.073c-.32-.015-.634.107-.858.334l.048-.057-.05.048a2.27 2.27 0 0 1-.158.124l-.097.07.03-.013a1 1 0 0 0 .118-.077l.105-.092c-.225.227-.344.54-.327.86l.088 1.58a1 1 0 0 1-.611.978l-2.543 1.067a1 1 0 0 1-1.126-.248l-1.073-1.177c-.212-.234-.513-.365-.835-.364l-.136.01c-.228.03-.442.126-.615.28l-.1.098-1.05 1.17a1 1 0 0 1-1.123.258l-2.553-1.044a1 1 0 0 1-.62-.972l.074-1.58c.014-.318-.104-.626-.326-.85a1.15 1.15 0 0 0-.736-.336l-.137-.001-1.577.088a1 1 0 0 1-.978-.612l-1.067-2.544a1 1 0 0 1 .249-1.126l1.17-1.064a1.14 1.14 0 0 0 .371-.848l-.01-.136a1.14 1.14 0 0 0-.369-.702l-1.18-1.055a1 1 0 0 1-.259-1.124l1.043-2.553a1 1 0 0 1 .972-.621l1.58.074c.285.013.563-.08.78-.26-.04.05-.072.108-.106.187a1 1 0 0 1 .177-.251z" class="B E"/><use xlink:href="#T" x="-28" y="-24" class="F"/><path d="M1104.906 257l-1.08 1.208a2.19 2.19 0 0 1-3.247.014l-1.09-1.197-2.606 1.093.09 1.617c.034.618-.196 1.223-.632 1.663s-1.036.673-1.655.645l-1.62-.076-1.07 2.615 1.208 1.08a2.19 2.19 0 0 1 .014 3.247l-1.197 1.1 1.093 2.606 1.616-.09c.62-.034 1.224.196 1.664.632l.126.136a2.19 2.19 0 0 1 .519 1.519l-.076 1.618 2.615 1.07 1.074-1.2c.415-.465 1.01-.733 1.632-.737a2.16 2.16 0 0 1 1.614.708l1.098 1.205 2.605-1.093-.09-1.618a2.19 2.19 0 0 1 .631-1.661c.435-.44 1.038-.674 1.656-.645l1.618.075 1.07-2.615-1.207-1.08a2.19 2.19 0 0 1-.729-1.618l.007-.186a2.19 2.19 0 0 1 .708-1.443l1.197-1.1-1.093-2.606-1.616.1a2.19 2.19 0 0 1-1.663-.631c-.44-.435-.673-1.037-.645-1.655l.076-1.618-2.616-1.07zm-8.623 17.138l.01.003.08.005h.024l-.114-.008zm-.164-.033l.024.008a1 1 0 0 0 .126.025h.015l-.164-.033zm12.214-.033l-.105.016-.04.003-.04.001.088-.002.032-.003.033-.006.035-.01zm.235-.078l.025-.008-.257.085.033-.005a1 1 0 0 0 .135-.041l.065-.03zm.344-.264l-.056.056a2.27 2.27 0 0 1-.158.124l-.094.067.027-.01a1 1 0 0 0 .118-.077l.102-.1.004-.002.057-.067zm-13.508-.472l-.007-.1c0 .17.047.34.135.5l.06.088-.187-.478zm8.658-10.46c2.456 1.003 3.632 3.81 2.628 6.264s-3.808 3.632-6.264 2.63-3.633-3.8-2.63-6.265 3.81-3.633 6.265-2.628zm-5.34 3.007c-.795 1.944.137 4.165 2.082 4.96s4.165-.137 4.96-2.082-.136-4.166-2.08-4.96-4.166.136-4.96 2.08zm-3.172-5.037l-.038.053a.98.98 0 0 0-.067.133 1 1 0 0 1 .177-.251l-.072.065zm13.102-.253a1 1 0 0 1 .133.108l-.024-.025-.023-.026c-.025-.02-.054-.04-.086-.058zm-.19-.1l-.022-.01.21.11-.12-.07-.07-.03zm-.23-.063l-.018-.003c.033.006.075.016.146.035l.066.016-.023-.01a1 1 0 0 0-.135-.034l-.037-.005zm.76 13.266l.023-.034.055-.116a.98.98 0 0 0 .075-.377l-.116.45-.032.07-.005.007zm-13.643-12.345l-.001.012.028-.132.01-.05-.01.034-.02.097-.003.017-.003.02zm13.534-.542l-.04-.045.023.035c.024.042.047.092.07.154l.154.466a1 1 0 0 0-.207-.609zm-13.26-.03l.005-.005.002-.003.016-.012a1.24 1.24 0 0 1 .237-.118l.075-.09a1 1 0 0 0-.227.132l-.098.087a1.19 1.19 0 0 0 .343-.902l-.09-1.617a1 1 0 0 1 .612-.978l2.606-1.093a1 1 0 0 1 1.126.249l1.09 1.197a1.19 1.19 0 0 0 .886.388l.14-.01a1.19 1.19 0 0 0 .635-.285l.1-.1 1.08-1.208a1 1 0 0 1 1.124-.259l2.616 1.07a1 1 0 0 1 .621.972l-.076 1.617a1.19 1.19 0 0 0 .294.839l.048.043.035.04.082.072a1.19 1.19 0 0 0 .652.247l.143.001 1.616-.1a1 1 0 0 1 .978.612l1.093 2.606a1 1 0 0 1-.249 1.126l-1.197 1.1a1.19 1.19 0 0 0 .007 1.763l1.207 1.08a1 1 0 0 1 .259 1.124l-1.07 2.615a1 1 0 0 1-.972.621l-1.618-.075c-.336-.016-.663.112-.898.35l-.005.004-.1.105a1.19 1.19 0 0 0-.247.65l-.001.143.09 1.618a1 1 0 0 1-.611.978l-2.605 1.093a1 1 0 0 1-1.126-.248l-1.1-1.205c-.222-.244-.537-.382-.873-.38l-.142.01c-.238.03-.462.132-.643.29l-.103.102-1.074 1.2a1 1 0 0 1-1.123.258l-2.615-1.07a1 1 0 0 1-.62-.972l.076-1.617a1.19 1.19 0 0 0-.341-.89 1 1 0 0 0 .32.208l.08.027-.51-.36.01.017.086.098-.106-.093c-.188-.146-.415-.232-.653-.248l-.143-.001-1.616.09a1 1 0 0 1-.978-.612l-1.093-2.606a1 1 0 0 1 .249-1.126l1.197-1.1a1.19 1.19 0 0 0 .388-.887l-.01-.142a1.19 1.19 0 0 0-.386-.734l-1.208-1.08a1 1 0 0 1-.259-1.124l1.07-2.615a1 1 0 0 1 .972-.621l1.618.076c.3.014.59-.085.817-.275l.043-.044.037-.03zm12.61-.35l-.018-.003-.04-.006a.87.87 0 0 0-.084-.002 1 1 0 0 1 .179.016l-.037-.005z" fill="#54f7b6" class="B"/><path d="M1112.174 318.516l1.826-4.468-2.063-1.845c-.786-.704-1.24-1.71-1.245-2.765a3.74 3.74 0 0 1 1.221-2.783l2.045-1.862-1.867-4.45-2.76.154a3.74 3.74 0 0 1-2.841-1.078c-.75-.744-1.15-1.77-1.102-2.826l.13-2.765-4.468-1.827-1.845 2.063a3.74 3.74 0 0 1-5.547.024l-1.864-2.045-4.45 1.867.155 2.762c.057 1.056-.334 2.1-1.08 2.84s-1.77 1.15-2.826 1.1l-2.765-.13-1.826 4.468 2.063 1.845a3.74 3.74 0 0 1 1.245 2.765v.001a3.74 3.74 0 0 1-1.221 2.782l-2.045 1.863 1.868 4.452 2.76-.155a3.75 3.75 0 0 1 2.842 1.079 3.74 3.74 0 0 1 1.101 2.826l-.13 2.765 4.468 1.827 1.835-2.05a3.77 3.77 0 0 1 2.789-1.258c1.05-.006 2.05.433 2.757 1.21l1.876 2.058 4.45-1.868-.155-2.764a3.74 3.74 0 0 1 1.078-2.837c.744-.752 1.773-1.152 2.83-1.103l2.764.128zm-18.132-3a6.5 6.5 0 0 1-3.556-8.475 6.5 6.5 0 0 1 8.475-3.555 6.5 6.5 0 0 1 3.554 8.473 6.5 6.5 0 0 1-8.473 3.557z" class="F"/><path d="M1094.303 287.333a1 1 0 0 1 1.124-.259l4.468 1.827a1 1 0 0 1 .621.972l-.13 2.764c-.034.744.235 1.467.742 2.005l.05.043.04.048-.027-.025.044.05-.016-.024.114.105c.485.418 1.105.653 1.746.663l.193-.004 2.76-.154a1 1 0 0 1 .978.612l1.867 4.45a1 1 0 0 1-.249 1.126l-2.045 1.862a2.74 2.74 0 0 0-.895 2.043l.008.187c.054.702.377 1.36.904 1.833l2.063 1.845a1 1 0 0 1 .259 1.124l-1.826 4.468a1 1 0 0 1-.972.621l-2.764-.128c-.774-.036-1.527.257-2.07.806a2.74 2.74 0 0 0-.791 2.079l.155 2.764a1 1 0 0 1-.611.978l-4.45 1.868a1 1 0 0 1-1.126-.248l-1.877-2.06c-.515-.566-1.245-.886-2.016-.882l-.192.008a2.77 2.77 0 0 0-1.718.776l-.135.14-1.835 2.05a1 1 0 0 1-1.123.258l-4.468-1.827a1 1 0 0 1-.62-.972l.13-2.763a2.74 2.74 0 0 0-.793-2.057l-.007-.007-.006-.006-.006-.006-.003-.003-.134-.122a2.75 2.75 0 0 0-1.747-.664l-.193.004-2.76.155a1 1 0 0 1-.978-.612l-1.868-4.452a1 1 0 0 1 .249-1.126l2.045-1.862a2.74 2.74 0 0 0 .895-2.043l-.008-.188a2.74 2.74 0 0 0-.904-1.833l-2.063-1.845a1 1 0 0 1-.259-1.124l1.826-4.468a1 1 0 0 1 .972-.621l2.765.13c.774.036 1.526-.257 2.07-.805l-.08.076.03-.034.05-.043.132-.142c.418-.485.653-1.104.664-1.746l-.004-.193-.155-2.762a1 1 0 0 1 .612-.978l4.45-1.867a1 1 0 0 1 1.126.249l1.863 2.045a2.74 2.74 0 0 0 2.039.894l.2-.008a2.74 2.74 0 0 0 1.7-.765l.133-.14 1.845-2.063zm.745.667l-1.845 2.063a3.74 3.74 0 0 1-5.547.024l-1.864-2.045-4.45 1.867.155 2.762c.057 1.056-.334 2.1-1.08 2.84s-1.77 1.15-2.826 1.1l-2.765-.13-1.826 4.468 2.063 1.845a3.74 3.74 0 0 1 .024 5.548l-2.045 1.863 1.868 4.452 2.76-.155a3.75 3.75 0 0 1 2.842 1.079 3.74 3.74 0 0 1 1.101 2.826l-.13 2.765 4.468 1.827 1.835-2.05a3.77 3.77 0 0 1 2.789-1.258c1.05-.006 2.05.433 2.757 1.21l1.876 2.058 4.45-1.868-.155-2.764a3.74 3.74 0 0 1 1.078-2.837c.744-.752 1.773-1.152 2.83-1.103l2.764.128 1.826-4.468-2.063-1.845c-.786-.704-1.24-1.71-1.245-2.765a3.74 3.74 0 0 1 1.221-2.783l2.045-1.862-1.867-4.45-2.76.154a3.74 3.74 0 0 1-2.841-1.078c-.75-.744-1.15-1.77-1.102-2.826l.13-2.765-4.468-1.827zm-15.166 28.357l-.06-.05a1 1 0 0 0 .318.205l.078.025-.335-.18zm-.3-.386l.013.033a1 1 0 0 0 .123.2l.07.08.003.003.005.006.003.003.06.053-.28-.378zm21.99-.48l-.116.448.044-.075a1 1 0 0 0 .072-.373zm-8.243-16.93a7.5 7.5 0 0 1 4.102 9.777 7.5 7.5 0 0 1-9.777 4.104 7.5 7.5 0 0 1-4.103-9.779 7.5 7.5 0 0 1 9.779-4.102zm-8.853 4.48a6.5 6.5 0 0 0 3.556 8.475 6.5 6.5 0 0 0 8.473-3.557 6.5 6.5 0 0 0-3.554-8.473 6.5 6.5 0 0 0-8.475 3.555zm-4.86-8.157l-.013.016-.037.057-.01.03a1 1 0 0 1 .143-.181l-.082.077zm.407-.295a1 1 0 0 0-.227.132l-.096.084.065-.04a1.59 1.59 0 0 1 .183-.085l.075-.09zm21.02.002a1 1 0 0 1 .127.103l-.026-.026-.025-.026c-.023-.018-.048-.034-.077-.05zm-.195-.1l-.018-.01.15.076.055.03-.115-.067-.074-.03zm-.234-.063l-.01-.002a2.18 2.18 0 0 1 .146.035l.067.018-.024-.01a1 1 0 0 0-.135-.034l-.007-.002-.037-.005zm-21.036 21.534l-.02-.087-.046-.214-.007-.037-.002-.015.004.075a1 1 0 0 0 .015.098l.03.114.025.066zm21.65-21.203l.024.035c.025.043.048.094.073.158l.154.466a1 1 0 0 0-.207-.609l-.044-.05zm-.614-.33l-.01-.002-.04-.006c-.025-.002-.048-.002-.084-.002a1 1 0 0 1 .178.016l-.044-.007z" class="B Y"/><g class="B"><g fill="#003997"><path d="M1136 18.5h80a4.5 4.5 0 0 1 4.5 4.5v18a4.5 4.5 0 0 1-4.5 4.5h-80a4.5 4.5 0 0 1-4.5-4.5V23a4.5 4.5 0 0 1 4.5-4.5zm0 1a3.5 3.5 0 0 0-3.5 3.5v18a3.5 3.5 0 0 0 3.5 3.5h80a3.5 3.5 0 0 0 3.5-3.5V23a3.5 3.5 0 0 0-3.5-3.5h-80zm73.5 6v13h-66v-13h66zm-33 7.006l-29.052 4.994h58.105l-29.053-4.994zm32 5v.003-.003zm0-10.5L1179.45 32l29.05 4.994v-9.987zm-64 .001v9.985L1173.55 32l-29.05-4.992zm61.047-.507h-58.095l29.047 4.992 29.048-4.992z"/></g><path fill="#004ac4" d="M1140.5 40.5V32h-1v9.5h9.5v-1z"/></g><g transform="matrix(-1 0 0 -1 1034 99)"><path d="M18.93 17.444h13.863l4.48 12.918-4.298 4.61-12.553-4.576z" class="E"/><path fill="#1bc08f" d="M42.977 33.617l4.917 4.585-6.316 6.773-4.908-4.583z"/><path stroke="#69f5cc" d="M45.465 38.127L41.77 42.1l-2.52-2.354"/><path fill="#3be5b2" d="M28.042 40.24L42.534 24.7l4.78 4.457-14.492 15.54z"/><path d="M18.903 17.563l6.705 5.576" stroke="#073581"/><path d="M42.24 28.74L31.864 39.784" stroke="#93ffde"/><circle fill="#073581" cx="27.5" cy="24.5" r="2.5"/><path stroke="#b1ceff" d="M21.6 22.97l.938 6.2 9.27 3.447"/><g fill="#1a71ff"><path d="M4.164 28.763L27.1 3.838l-.736-.677L3.428 28.086z" class="B"/><rect transform="matrix(.707107 .707107 -.707107 .707107 21.435204 5.857864)" x="1.036" y="26.036" width="5" height="5" rx="1.5"/><rect transform="matrix(.707107 .707107 -.707107 .707107 10.494078 -17.727922)" x="24.036" y="1.036" width="5" height="5" rx="1.5"/></g><g class="E"><use xlink:href="#R" x="-3.778" y="-4" class="B"/><circle cx="15.722" cy="15.5" r="1.5"/></g><path fill="#3d81f2" d="M33.905 15.833l3.524 10.32.946-.323-3.756-10.997-10.94.016v1z" class="B"/></g><g class="L"><g transform="matrix(0 1 -1 0 598 20)"><path d="M0 39h20v1H0zm0-24h20v1H0z"/><use xlink:href="#F"/></g><use xlink:href="#G" transform="matrix(0 -1 -1 0 598 27.252648)" class="B"/><g transform="matrix(0 1 -1 0 598 20)"><use xlink:href="#H"/><path d="M15 0h1v15h-1zm20 0h1v15h-1z"/></g><g class="B"><use xlink:href="#G" y="-24" transform="matrix(0 -1 -1 0 598 27.252648)"/><use xlink:href="#G" x="12" y="-36" transform="matrix(0 -1 -1 0 598 51.252648)"/><use xlink:href="#G" x="32" y="-36" transform="matrix(0 -1 -1 0 598 91.252648)"/></g></g><path d="M583 35v21h-6.176l-.01.01-.012-.01h-5.978l-.01.01-.012-.01h-5.978l-.01.01-.012-.01h-5.978l-.01.01-.012-.01H558V35h25zm-1.62 1h-4.658L559.72 55h4.657l17.005-19zm.62.807L565.72 55h4.657L582 42.012v-5.205zm0 6.704L571.72 55h4.657L582 48.716V43.51zm0 6.705L577.72 55H582v-4.784zM575.38 36h-4.66L559 49.076v5.227L575.38 36zm-6.002 0h-4.413L559 42.58v5L569.38 36zm-5.762 0H559v5.09l4.617-5.09z" class="B P"/><g class="D"><g transform="matrix(0 1 -1 0 565 49)"><path d="M0 39h20v1H0zm0-24h20v1H0z"/><use xlink:href="#F"/></g><use xlink:href="#G" transform="matrix(0 -1 -1 0 565 56.252648)" class="B"/><g transform="matrix(0 1 -1 0 565 49)"><use xlink:href="#H"/><path d="M15 0h1v15h-1zm20 0h1v15h-1z"/></g><g class="B"><use xlink:href="#G" y="-24" transform="matrix(0 -1 -1 0 565 56.252648)"/><use xlink:href="#G" x="12" y="-36" transform="matrix(0 -1 -1 0 565 80.252648)"/><use xlink:href="#G" x="32" y="-36" transform="matrix(0 -1 -1 0 565 120.252648)"/></g></g><path d="M550 64v21h-6.176l-.01.01-.012-.01h-5.978l-.01.01-.012-.01h-5.978l-.01.01-.012-.01h-5.978l-.01.01-.012-.01H525V64h25zm-1.62 1h-4.658L526.72 84h4.657l17.005-19zm.62.807L532.72 84h4.657L549 71.012v-5.205zm0 6.704L538.72 84h4.657L549 77.716V72.51zm0 6.705L544.72 84H549v-4.784zM542.38 65h-4.66L526 78.076v5.227L542.38 65zm-6.002 0h-4.413L526 71.58v5L536.38 65zm-5.762 0H526v5.09l4.617-5.09z" class="B U"/><g class="D"><g transform="matrix(0 1 -1 0 645 -9)"><path d="M0 39h20v1H0zm0-24h20v1H0z"/><use xlink:href="#F"/><path d="M15 0h1v15h-1zm20 0h1v15h-1z"/></g><g class="B"><use xlink:href="#G" x="12" y="-36" transform="matrix(0 -1 -1 0 645 22.252648)"/><use xlink:href="#G" x="32" y="-36" transform="matrix(0 -1 -1 0 645 62.252648)"/></g></g><path d="M630 6v21h-6.176l-.01.01-.012-.01h-5.978l-.01.01-.012-.01h-5.978l-.01.01-.012-.01h-5.978l-.01.01-.012-.01H605V6h25zm-1.62 1h-4.658L606.72 26h4.657L628.38 7zm.62.807L612.72 26h4.657L629 13.012V7.807zm0 6.704L618.72 26h4.657L629 19.716V14.51zm0 6.705L624.72 26H629v-4.784zM622.38 7h-4.66L606 20.076v5.227L622.38 7zm-6.002 0h-4.413L606 13.58v5L616.38 7zm-5.762 0H606v5.09L610.617 7z" class="B K"/><g class="G"><g transform="matrix(0 1 -1 0 565 -23)"><use xlink:href="#F"/><path d="M35 0h1v15h-1z"/></g><use xlink:href="#G" x="32" y="-36" transform="matrix(0 -1 -1 0 565 48.252648)" class="B"/></g><path d="M550-8v21h-6.176l-.01.01-.012-.01h-5.978l-.01.01-.012-.01h-5.978l-.01.01-.012-.01h-5.978l-.01.01-.012-.01H525V-8h25zm-1.62 1h-4.658L526.72 12h4.657L548.38-7zm.62.807L532.72 12h4.657L549-.988v-5.205zm0 6.704L538.72 12h4.657L549 5.716V.51zm0 6.705L544.72 12H549V7.216zM542.38-7h-4.66L526 6.076v5.227L542.38-7zm-6.002 0h-4.413L526-.42v5L536.38-7zm-5.762 0H526v5.09L530.617-7z" class="B D"/><g transform="matrix(0 -1 1 0 506 104)"><g class="L"><use xlink:href="#P" class="B"/><rect transform="matrix(.707107 .707107 -.707107 .707107 25.213204 4.20101)" x="5.036" y="30.036" width="5" height="5" rx="1.5"/><rect transform="matrix(.707107 .707107 -.707107 .707107 14.272078 -19.384776)" x="28.036" y="5.036" width="5" height="5" rx="1.5"/><g class="B"><use xlink:href="#Q"/></g></g><g class="E"><use xlink:href="#R" class="B"/><circle cx="19.5" cy="19.5" r="1.5"/><g class="B"><use xlink:href="#U" transform="matrix(.707107 .707107 -.707107 .707107 14.142136 2.928932)"/><use xlink:href="#U" x="13.5" y="-14.5" transform="matrix(.707107 .707107 -.707107 .707107 7.843146 -10.863961)"/></g></g></g><path d="M953 255h74v68h-74z" class="F"/><path d="M941 246h71v67h-71z" class="R"/><path d="M941 246v67h71z" class="S"/><path fill="#6994db" d="M1015 259h1v50h-1z"/><circle fill="#fcd78a" cx="976.5" cy="281.5" r="12.95"/><path d="M976.5 294.45c7.152 0 12.95-5.798 12.95-12.95a12.92 12.92 0 0 0-4.499-9.813l-18.74 17.676c2.367 3.092 6.095 5.086 10.3 5.086z" fill="#ffbe37"/><path d="M976.5 300.5c10.493 0 19-8.507 19-19s-8.507-19-19-19-19 8.507-19 19 8.507 19 19 19zm0-1c-9.94 0-18-8.06-18-18s8.06-18 18-18 18 8.06 18 18-8.06 18-18 18z" class="B E"/><path fill="#82b2ff" d="M955 249h54v1h-54z"/><rect fill="#0154db" x="1067.525" y="20.6" width="36.951" height="36.8" rx="18.4"/><rect fill="#ffba2d" x="1069.934" y="23" width="32.131" height="32" rx="16"/><g class="B"><path d="M1085.94 25.1c-7.677 0-13.9 6.223-13.9 13.9s6.223 13.9 13.9 13.9h.118c7.677 0 13.9-6.223 13.9-13.9s-6.223-13.9-13.9-13.9h-.118zm0-1h.118c8.23 0 14.9 6.67 14.9 14.9s-6.67 14.9-14.9 14.9h-.118c-8.23 0-14.9-6.67-14.9-14.9s6.67-14.9 14.9-14.9z" fill="#ffd178"/><path d="M1107.385 39c0 4.04-1.13 7.913-3.232 11.265l-.847-.53c2.002-3.194 3.08-6.884 3.08-10.734h1zm-39.41-11.466l.84.54c-2.08 3.237-3.2 6.998-3.2 10.925h-1c0-4.12 1.177-8.07 3.36-11.466z" class="D"/></g><path d="M1095.084 38.544c-.4-.395-.606-.89-.623-1.488V32.84c-.013-.597-.218-1.093-.617-1.5s-.898-.602-1.497-.614h-2.113v10.53l-8.466-10.53h-2.114c-.6.013-1.098.217-1.496.614s-.604.894-.617 1.5v4.216c-.017.597-.224 1.093-.623 1.488s-.897.6-1.496.617c.6.017 1.098.223 1.496.617s.606.89.623 1.488v4.216c.013.596.218 1.093.617 1.5s.897.602 1.496.614h2.114v-10.53l8.466 10.53h2.113c.6-.013 1.098-.217 1.497-.614s.604-.894.617-1.5v-4.216c.017-.597.224-1.093.623-1.488s.897-.6 1.496-.617c-.6-.016-1.098-.222-1.496-.617z" class="E"/><g transform="matrix(0 1 -1 0 976.5 -33.5)"><path fill="#002c74" d="M4.5 4.5h89v46h-89z"/><use xlink:href="#J" fill="#014bc2"/><use xlink:href="#K" class="S"/><use xlink:href="#L" fill="#4082ee"/></g><path d="M667-9h47v45h-47z" class="R"/><path d="M667-9v45h47z" class="S"/><path fill="#6994db" d="M717 13h1v21h-1z"/><circle fill="#5798ff" cx="690.5" cy="14.5" r="8.75"/><path d="M690.5 23.25a8.75 8.75 0 0 0 8.75-8.75 8.73 8.73 0 0 0-3.04-6.63l-12.663 11.944c1.6 2.09 4.118 3.437 6.953 3.437z" fill="#2c7eff"/><use xlink:href="#S" x="-294" y="-183" fill="#002053" class="B"/><path fill="#0047b8" d="M731 13h34v33h-34z"/><path fill="#03327c" d="M731 13v33h34z"/><path d="M767 29h1v15h-1z" class="T"/><circle cx="748" cy="30" r="6.3" class="Z"/><path d="M748 36.3a6.3 6.3 0 0 0 6.3-6.3c0-1.908-.848-3.618-2.19-4.774l-9.117 8.6A6.29 6.29 0 0 0 748 36.3z" class="a"/><path d="M748 39.5a9.5 9.5 0 1 0 0-19 9.5 9.5 0 1 0 0 19zm0-1a8.5 8.5 0 1 1 0-17 8.5 8.5 0 1 1 0 17z" fill="#002053" class="B"/><path fill="#317aed" d="M737 15h26v1h-26z"/><g class="B K"><path d="M866 13h27v26h-27V13zm1 1v24h25V14h-25z"/><path d="M866 13v26h27l-27-26zm24.52 25H867V15.35L890.52 38z"/></g><path d="M895 26h1v12h-1z" class="T"/><circle cx="879" cy="26" r="4.9" class="Z"/><path d="M879 30.9a4.9 4.9 0 0 0 4.9-4.9 4.89 4.89 0 0 0-1.702-3.713l-7.09 6.688A4.89 4.89 0 0 0 879 30.9z" class="a"/><use xlink:href="#V" fill="#448dff" class="B"/><path d="M879 15h12v1h-12z" class="b"/><g fill="#033689" class="B"><path d="M692 95h27v26h-27V95zm1 1v24h25V96h-25z"/><path d="M692 95v26h27l-27-26zm24.52 25H693V97.35L716.52 120z"/></g><path d="M721 108h1v12h-1z" class="T"/><circle cx="705" cy="108" r="4.9" class="Z"/><path d="M705 112.9a4.9 4.9 0 0 0 4.9-4.9 4.89 4.89 0 0 0-1.702-3.713l-7.09 6.688A4.89 4.89 0 0 0 705 112.9z" class="a"/><use xlink:href="#V" x="-174" y="82" fill="#094ab1" class="B"/><path d="M705 97h12v1h-12z" class="b"/><g fill="#033689" class="B"><path d="M692 56h27v26h-27V56zm1 1v24h25V57h-25z"/><path d="M692 56v26h27l-27-26zm24.52 25H693V58.35L716.52 81z"/></g><path d="M721 69h1v12h-1z" class="T"/><circle fill="#0048ba" cx="705" cy="69" r="4.9"/><use xlink:href="#V" x="-174" y="43" fill="#094ab1" class="B"/><path d="M705 58h12v1h-12z" class="b"/><g transform="matrix(0 1 -1 0 671.5 43.5)"><g class="V"><path d="M.5 29.5h61v1H.5z"/><path transform="matrix(0 1 -1 0 61 0)" d="M0 30.008h61v.984H0z"/></g><g fill="#6a9ff8"><path d="M13.5 6.5h39v1h-39z"/><path d="M19 0h1v30h-1zm27 0h1v30h-1z"/></g><g class="B P"><path d="M47 17v26h-9V17h9zm-8 19.67V42h5.455L39 36.67zm0-5.905v4.508L45.887 42H46v-4.397l-7-6.838zm0-6.095v4.698l7 6.837v-4.697l-7-6.838zm0-6v4.603l7 6.837v-4.602l-7-6.838zm7-.67h-6.256L46 24.1V18z"/><path d="M19 25h20v10H19V25zm1 1v8h18v-8H20z"/></g></g><path d="M254.5 72.5h53" stroke="#0055df"/><path d="M284 77z" class="N"/><path d="M277 81z" class="O"/><path d="M49.5 31.5h73" stroke="#005bf0"/><g class="N"><path d="M99 36zm-41.908-9z"/></g><g class="O"><path d="M92 40zm21-17z"/></g><g transform="matrix(0 1 -1 0 169 180)"><g class="L"><use xlink:href="#P" class="B"/><rect transform="matrix(.707107 .707107 -.707107 .707107 25.213204 4.20101)" x="5.036" y="30.036" width="5" height="5" rx="1.5"/><rect transform="matrix(.707107 .707107 -.707107 .707107 14.272078 -19.384776)" x="28.036" y="5.036" width="5" height="5" rx="1.5"/><g class="B"><use xlink:href="#Q"/></g></g><g class="E"><use xlink:href="#R" class="B"/><circle cx="19.5" cy="19.5" r="1.5"/><g class="B"><use xlink:href="#U" transform="matrix(.707107 .707107 -.707107 .707107 14.142136 2.928932)"/><use xlink:href="#U" x="13.5" y="-14.5" transform="matrix(.707107 .707107 -.707107 .707107 7.843146 -10.863961)"/></g></g></g><g class="L"><g transform="matrix(0 1 -1 0 99 204)"><path d="M0 39h20v1H0zm0-24h20v1H0z"/><use xlink:href="#F"/></g><use xlink:href="#G" transform="matrix(0 -1 -1 0 99 211.252648)" class="B"/><g transform="matrix(0 1 -1 0 99 204)"><use xlink:href="#H"/><path d="M15 0h1v15h-1zm20 0h1v15h-1z"/></g><g class="B"><use xlink:href="#G" y="-24" transform="matrix(0 -1 -1 0 99 211.252648)"/><use xlink:href="#G" x="12" y="-36" transform="matrix(0 -1 -1 0 99 235.252648)"/><use xlink:href="#G" x="32" y="-36" transform="matrix(0 -1 -1 0 99 275.252648)"/></g></g><path d="M84 219v21h-6.176l-.01.01-.012-.01h-5.978l-.01.01-.012-.01h-5.978l-.01.01-.012-.01h-5.978l-.01.01-.012-.01H59v-21h25zm-1.62 1h-4.658L60.72 239h4.657l17.005-19zm.62.807L66.72 239h4.657L83 226.012v-5.205zm0 6.704L72.72 239h4.657L83 232.716v-5.205zm0 6.705L78.72 239H83v-4.784zM76.38 220h-4.66L60 233.076v5.227L76.38 220zm-6.002 0h-4.413L60 226.58v5L70.38 220zm-5.762 0H60v5.09l4.617-5.09z" class="B P"/><g class="D"><g transform="matrix(0 1 -1 0 66 233)"><path d="M0 39h20v1H0zm0-24h20v1H0z"/><use xlink:href="#F"/></g><use xlink:href="#G" transform="matrix(0 -1 -1 0 66 240.252648)" class="B"/><g transform="matrix(0 1 -1 0 66 233)"><use xlink:href="#H"/><path d="M15 0h1v15h-1zm20 0h1v15h-1z"/></g><g class="B"><use xlink:href="#G" y="-24" transform="matrix(0 -1 -1 0 66 240.252648)"/><use xlink:href="#G" x="12" y="-36" transform="matrix(0 -1 -1 0 66 264.252648)"/><use xlink:href="#G" x="32" y="-36" transform="matrix(0 -1 -1 0 66 304.252648)"/></g></g><path d="M51 248v21h-6.176l-.01.01-.012-.01h-5.978l-.01.01-.012-.01h-5.978l-.01.01-.012-.01h-5.978l-.01.01-.012-.01H26v-21h25zm-1.62 1h-4.658L27.72 268h4.657l17.005-19zm.62.807L33.72 268h4.657L50 255.012v-5.205zm0 6.704L39.72 268h4.657L50 261.716v-5.205zm0 6.705L45.72 268H50v-4.784zM43.38 249h-4.66L27 262.076v5.227L43.38 249zm-6.002 0h-4.413L27 255.58v5L37.38 249zm-5.762 0H27v5.09l4.617-5.09z" class="B U"/><g class="D"><g transform="matrix(0 1 -1 0 146 204)"><path d="M0 39h20v1H0zm0-24h20v1H0z"/><use xlink:href="#F"/></g><use xlink:href="#G" transform="matrix(0 -1 -1 0 146 211.252648)" class="B"/><g transform="matrix(0 1 -1 0 146 204)"><use xlink:href="#H"/><path d="M15 0h1v15h-1zm20 0h1v15h-1z"/></g><g class="B"><use xlink:href="#G" y="-24" transform="matrix(0 -1 -1 0 146 211.252648)"/><use xlink:href="#G" x="12" y="-36" transform="matrix(0 -1 -1 0 146 235.252648)"/><use xlink:href="#G" x="32" y="-36" transform="matrix(0 -1 -1 0 146 275.252648)"/></g></g><path d="M131 219v21h-6.176l-.01.01-.012-.01h-5.978l-.01.01-.012-.01h-5.978l-.01.01-.012-.01h-5.978l-.01.01-.012-.01H106v-21h25zm-1.62 1h-4.658l-17.004 19h4.657l17.005-19zm.62.807L113.72 239h4.657L130 226.012v-5.205zm0 6.704L119.72 239h4.657l5.624-6.284v-5.205zm0 6.705L125.72 239H130v-4.784zM123.38 220h-4.66L107 233.076v5.227L123.38 220zm-6.002 0h-4.413L107 226.58v5L117.38 220zm-5.762 0H107v5.09l4.617-5.09z" class="B K"/><g class="G"><g transform="matrix(0 1 -1 0 66 161)"><path d="M0 39h20v1H0zm0-24h20v1H0z"/><use xlink:href="#F"/></g><use xlink:href="#G" transform="matrix(0 -1 -1 0 66 168.252648)" class="B"/><g transform="matrix(0 1 -1 0 66 161)"><use xlink:href="#H"/><path d="M15 0h1v15h-1zm20 0h1v15h-1z"/></g><g class="B"><use xlink:href="#G" y="-24" transform="matrix(0 -1 -1 0 66 168.252648)"/><use xlink:href="#G" x="12" y="-36" transform="matrix(0 -1 -1 0 66 192.252648)"/><use xlink:href="#G" x="32" y="-36" transform="matrix(0 -1 -1 0 66 232.252648)"/></g></g><path d="M51 176v21h-6.176l-.01.01-.012-.01h-5.978l-.01.01-.012-.01h-5.978l-.01.01-.012-.01h-5.978l-.01.01-.012-.01H26v-21h25zm-1.62 1h-4.658L27.72 196h4.657l17.005-19zm.62.807L33.72 196h4.657L50 183.012v-5.205zm0 6.704L39.72 196h4.657L50 189.716v-5.205zm0 6.705L45.72 196H50v-4.784zM43.38 177h-4.66L27 190.076v5.227L43.38 177zm-6.002 0h-4.413L27 183.58v5L37.38 177zm-5.762 0H27v5.09l4.617-5.09z" class="B D"/><g class="G"><g transform="matrix(0 1 -1 0 66 276)"><path d="M0 39h20v1H0zm0-24h20v1H0z"/><use xlink:href="#F"/></g><use xlink:href="#G" transform="matrix(0 -1 -1 0 66 283.252648)" class="B"/><g transform="matrix(0 1 -1 0 66 276)"><use xlink:href="#H"/><path d="M15 0h1v15h-1zm20 0h1v15h-1z"/></g><g class="B"><use xlink:href="#G" y="-24" transform="matrix(0 -1 -1 0 66 283.252648)"/><use xlink:href="#G" x="12" y="-36" transform="matrix(0 -1 -1 0 66 307.252648)"/><use xlink:href="#G" x="32" y="-36" transform="matrix(0 -1 -1 0 66 347.252648)"/></g></g><path d="M51 291v21h-6.176l-.01.01-.012-.01h-5.978l-.01.01-.012-.01h-5.978l-.01.01-.012-.01h-5.978l-.01.01-.012-.01H26v-21h25zm-1.62 1h-4.658L27.72 311h4.657l17.005-19zm.62.807L33.72 311h4.657L50 298.012v-5.205zm0 6.704L39.72 311h4.657L50 304.716v-5.205zm0 6.705L45.72 311H50v-4.784zM43.38 292h-4.66L27 305.076v5.227L43.38 292zm-6.002 0h-4.413L27 298.58v5L37.38 292zm-5.762 0H27v5.09l4.617-5.09z" class="B D"/><path d="M113 60h59v59h-59z" class="W"/><g class="B E"><path d="M110.5 57.5H129v-1h-19.5V76h1zM175 122h-18.5v1H176v-19.5h-1z"/></g><path d="M150.938 75.295c.518 2.61 2.18 4.873 4.553 6.204s5.226 1.6 7.82.736l2.435 4.083c-2.068 1.742-3.256 4.267-3.256 6.922s1.188 5.18 3.256 6.922l-2.435 4.048c-2.593-.864-5.446-.595-7.82.736s-4.034 3.595-4.553 6.204h-4.87c-.518-2.61-2.18-4.873-4.553-6.204s-5.226-1.6-7.82-.736l-2.435-4.083c2.068-1.742 3.256-4.267 3.256-6.922s-1.188-5.18-3.256-6.922l2.435-4.048c2.593.864 5.446.595 7.82-.736s4.034-3.595 4.553-6.204zM148.5 86.73a6.58 6.58 0 0 0-6.577 6.577 6.58 6.58 0 0 0 6.577 6.577 6.58 6.58 0 0 0 6.577-6.577 6.58 6.58 0 0 0-6.577-6.577z" class="H"/><path d="M144.938 71.295c.518 2.61 2.18 4.873 4.553 6.204s5.226 1.6 7.82.736l2.435 4.083c-2.068 1.742-3.256 4.267-3.256 6.922s1.188 5.18 3.256 6.922l-2.435 4.048c-2.593-.864-5.446-.595-7.82.736s-4.034 3.595-4.553 6.204h-4.87c-.518-2.61-2.18-4.873-4.553-6.204s-5.226-1.6-7.82-.736l-2.435-4.083c2.068-1.742 3.256-4.267 3.256-6.922s-1.188-5.18-3.256-6.922l2.435-4.048c2.593.864 5.446.595 7.82-.736s4.034-3.595 4.553-6.204zM142.5 82.73a6.58 6.58 0 0 0-6.577 6.577 6.58 6.58 0 0 0 6.577 6.577 6.58 6.58 0 0 0 6.577-6.577 6.58 6.58 0 0 0-6.577-6.577z" class="R"/><path d="M144.938 70.295a1 1 0 0 1 .981.805c.46 2.32 1.94 4.338 4.06 5.527 2.127 1.193 4.688 1.434 7.014.66a1 1 0 0 1 1.175.437l2.435 4.083a1 1 0 0 1-.215 1.277c-1.844 1.553-2.9 3.8-2.9 6.158s1.056 4.605 2.9 6.158a1 1 0 0 1 .213 1.28l-2.435 4.048a1 1 0 0 1-1.173.433c-2.327-.775-4.887-.534-7.014.66-2.12 1.19-3.6 3.206-4.06 5.527a1 1 0 0 1-.981.805h-4.87a1 1 0 0 1-.981-.805c-.46-2.32-1.94-4.338-4.06-5.527-2.127-1.193-4.688-1.434-7.014-.66a1 1 0 0 1-1.175-.437L124.4 96.64a1 1 0 0 1 .215-1.277c1.844-1.553 2.9-3.8 2.9-6.158s-1.056-4.605-2.9-6.158a1 1 0 0 1-.213-1.28l2.435-4.048a1 1 0 0 1 1.173-.433c2.327.775 4.887.534 7.014-.66 2.12-1.19 3.6-3.206 4.06-5.527a1 1 0 0 1 .981-.805h4.87zm0 1h-4.87c-.518 2.61-2.18 4.873-4.553 6.204s-5.226 1.6-7.82.736l-2.435 4.048c2.068 1.742 3.256 4.267 3.256 6.922s-1.188 5.18-3.256 6.922l2.435 4.083c2.593-.864 5.446-.595 7.82.736s4.034 3.595 4.553 6.204h4.87c.518-2.61 2.18-4.873 4.553-6.204s5.226-1.6 7.82-.736l2.435-4.048c-2.068-1.742-3.256-4.267-3.256-6.922s1.188-5.18 3.256-6.922l-2.435-4.083c-2.593.864-5.446.595-7.82-.736s-4.034-3.595-4.553-6.204zM142.5 81.73a7.58 7.58 0 0 1 7.577 7.577 7.58 7.58 0 0 1-7.577 7.577 7.58 7.58 0 0 1-7.577-7.577 7.58 7.58 0 0 1 7.577-7.577zm0 1a6.58 6.58 0 0 0-6.577 6.577 6.58 6.58 0 0 0 6.577 6.577 6.58 6.58 0 0 0 6.577-6.577 6.58 6.58 0 0 0-6.577-6.577z" class="B E"/><path d="M217.53 25c.752 3.784 3.16 7.067 6.6 8.997a14.11 14.11 0 0 0 11.338 1.067l3.53 5.92c-3 2.526-4.72 6.188-4.72 10.04S236 58.538 239 61.065l-3.53 5.87a14.11 14.11 0 0 0-11.338 1.067c-3.44 1.93-5.85 5.213-6.6 8.997h-7.06c-.752-3.784-3.16-7.067-6.6-8.997a14.11 14.11 0 0 0-11.338-1.067l-3.53-5.92c3-2.526 4.72-6.188 4.72-10.04S192 43.462 189 40.935l3.53-5.87a14.11 14.11 0 0 0 11.338-1.067c3.44-1.93 5.85-5.213 6.6-8.997zm-3.534 16.584a9.54 9.54 0 0 0-9.536 9.538 9.54 9.54 0 0 0 9.536 9.538 9.54 9.54 0 0 0 9.536-9.538 9.54 9.54 0 0 0-9.536-9.538z" class="F"/><path d="M209.53 18a1 1 0 0 1 .981.805c.694 3.496 2.922 6.532 6.1 8.32a13.11 13.11 0 0 0 10.532.991 1 1 0 0 1 1.175.437l3.53 5.92a1 1 0 0 1-.215 1.277c-2.774 2.337-4.365 5.72-4.365 9.275s1.59 6.937 4.365 9.275a1 1 0 0 1 .213 1.28l-3.53 5.87a1 1 0 0 1-1.173.433 13.11 13.11 0 0 0-10.532.991c-3.188 1.79-5.415 4.824-6.1 8.32a1 1 0 0 1-.981.805h-7.06a1 1 0 0 1-.981-.805c-.694-3.496-2.922-6.532-6.1-8.32a13.11 13.11 0 0 0-10.532-.991 1 1 0 0 1-1.175-.437l-3.53-5.92a1 1 0 0 1 .215-1.277c2.774-2.337 4.365-5.72 4.365-9.275s-1.59-6.937-4.365-9.275a1 1 0 0 1-.213-1.28l3.53-5.87a1 1 0 0 1 1.173-.433 13.11 13.11 0 0 0 10.532-.991c3.188-1.79 5.415-4.824 6.1-8.32a1 1 0 0 1 .981-.805h7.06zm0 1h-7.06c-.752 3.784-3.16 7.067-6.6 8.997a14.11 14.11 0 0 1-11.338 1.067l-3.53 5.87c3 2.526 4.72 6.188 4.72 10.04S184 52.488 181 55.014l3.53 5.92a14.11 14.11 0 0 1 11.338 1.067c3.44 1.93 5.85 5.213 6.6 8.997h7.06c.752-3.784 3.16-7.067 6.6-8.997a14.11 14.11 0 0 1 11.338-1.067l3.53-5.87c-3-2.526-4.72-6.188-4.72-10.04S228 37.512 231 34.986l-3.53-5.92a14.11 14.11 0 0 1-11.338-1.067c-3.44-1.93-5.85-5.213-6.6-8.997zm-3.534 15.584a10.54 10.54 0 0 1 10.536 10.538 10.54 10.54 0 0 1-10.536 10.538 10.54 10.54 0 0 1-10.536-10.538 10.54 10.54 0 0 1 10.536-10.538zm0 1a9.54 9.54 0 0 0-9.536 9.538 9.54 9.54 0 0 0 9.536 9.538 9.54 9.54 0 0 0 9.536-9.538 9.54 9.54 0 0 0-9.536-9.538z" fill="#5192fe" class="B"/><path d="M255.174 99.516L257 95.05l-2.063-1.845c-.786-.704-1.24-1.71-1.245-2.765a3.74 3.74 0 0 1 1.221-2.783l2.045-1.862-1.867-4.45-2.76.154a3.74 3.74 0 0 1-2.841-1.078c-.75-.744-1.15-1.77-1.102-2.826l.13-2.765L244.048 73l-1.845 2.063a3.74 3.74 0 0 1-5.547.024l-1.864-2.045-4.45 1.867.155 2.762c.057 1.056-.334 2.1-1.08 2.84s-1.77 1.15-2.826 1.1l-2.765-.13L222 85.95l2.063 1.845a3.74 3.74 0 0 1 1.245 2.765v.001a3.74 3.74 0 0 1-1.221 2.782l-2.045 1.863 1.868 4.452 2.76-.155a3.75 3.75 0 0 1 2.842 1.079 3.74 3.74 0 0 1 1.101 2.826l-.13 2.765L234.95 108l1.835-2.05a3.77 3.77 0 0 1 2.789-1.258c1.05-.006 2.05.433 2.757 1.21l1.876 2.058 4.45-1.868-.155-2.764a3.74 3.74 0 0 1 1.078-2.837c.744-.752 1.773-1.152 2.83-1.103l2.764.128zm-18.132-3a6.5 6.5 0 0 1-3.556-8.475 6.5 6.5 0 0 1 8.475-3.555 6.5 6.5 0 0 1 3.554 8.473 6.5 6.5 0 0 1-8.473 3.557z" class="F"/><path d="M237.303 68.333a1 1 0 0 1 1.124-.259l4.468 1.827a1 1 0 0 1 .621.972l-.13 2.764c-.034.744.235 1.467.742 2.005l.05.043.04.048-.027-.025.044.05-.016-.024.114.105c.485.418 1.105.653 1.746.663l.193-.004 2.76-.154a1 1 0 0 1 .978.612l1.867 4.45a1 1 0 0 1-.249 1.126l-2.045 1.862a2.74 2.74 0 0 0-.895 2.043l.008.187c.054.702.377 1.36.904 1.833l2.063 1.845a1 1 0 0 1 .259 1.124l-1.826 4.468a1 1 0 0 1-.972.621l-2.764-.128c-.774-.036-1.527.257-2.07.806a2.74 2.74 0 0 0-.791 2.079l.155 2.764a1 1 0 0 1-.611.978l-4.45 1.868a1 1 0 0 1-1.126-.248l-1.877-2.06c-.515-.566-1.245-.886-2.016-.882l-.192.008a2.77 2.77 0 0 0-1.718.776l-.135.14-1.835 2.05a1 1 0 0 1-1.123.258l-4.468-1.827a1 1 0 0 1-.62-.972l.13-2.763a2.74 2.74 0 0 0-.793-2.057l-.007-.007-.006-.006-.006-.006-.003-.003-.134-.122a2.75 2.75 0 0 0-1.747-.664l-.193.004-2.76.155a1 1 0 0 1-.978-.612l-1.868-4.452a1 1 0 0 1 .249-1.126l2.045-1.862a2.74 2.74 0 0 0 .895-2.043l-.008-.188a2.74 2.74 0 0 0-.904-1.833l-2.063-1.845a1 1 0 0 1-.259-1.124l1.826-4.468a1 1 0 0 1 .972-.621l2.765.13c.774.036 1.526-.257 2.07-.805l-.08.076.03-.034.05-.043.132-.142c.418-.485.653-1.104.664-1.746l-.004-.193-.155-2.762a1 1 0 0 1 .612-.978l4.45-1.867a1 1 0 0 1 1.126.249l1.863 2.045a2.74 2.74 0 0 0 2.039.894l.2-.008a2.74 2.74 0 0 0 1.7-.765l.133-.14 1.845-2.063zm.745.667l-1.845 2.063a3.74 3.74 0 0 1-5.547.024l-1.864-2.045-4.45 1.867.155 2.762c.057 1.056-.334 2.1-1.08 2.84s-1.77 1.15-2.826 1.1l-2.765-.13L216 81.95l2.063 1.845a3.74 3.74 0 0 1 .024 5.548l-2.045 1.863 1.868 4.452 2.76-.155a3.75 3.75 0 0 1 2.842 1.079 3.74 3.74 0 0 1 1.101 2.826l-.13 2.765L228.95 104l1.835-2.05a3.77 3.77 0 0 1 2.789-1.258c1.05-.006 2.05.433 2.757 1.21l1.876 2.058 4.45-1.868-.155-2.764a3.74 3.74 0 0 1 1.078-2.837c.744-.752 1.773-1.152 2.83-1.103l2.764.128L251 91.05l-2.063-1.845c-.786-.704-1.24-1.71-1.245-2.765a3.74 3.74 0 0 1 1.221-2.783l2.045-1.862-1.867-4.45-2.76.154a3.74 3.74 0 0 1-2.841-1.078c-.75-.744-1.15-1.77-1.102-2.826l.13-2.765L238.048 69zm-15.166 28.357l-.06-.05a1 1 0 0 0 .318.205l.078.025-.335-.18zm-.3-.386l.013.033a1 1 0 0 0 .123.2l.07.08.003.003.005.006.003.003.06.053-.28-.378zm21.99-.48l-.116.448.044-.075a1 1 0 0 0 .072-.373zm-8.243-16.93a7.5 7.5 0 0 1 4.102 9.777 7.5 7.5 0 0 1-9.777 4.104 7.5 7.5 0 0 1-4.103-9.779 7.5 7.5 0 0 1 9.779-4.102zm-8.853 4.48a6.5 6.5 0 0 0 3.556 8.475 6.5 6.5 0 0 0 8.473-3.557 6.5 6.5 0 0 0-3.554-8.473 6.5 6.5 0 0 0-8.475 3.555zm-4.86-8.157l-.013.016-.037.057-.01.03a1 1 0 0 1 .143-.181l-.082.077zm.407-.295a1 1 0 0 0-.227.132l-.096.084.065-.04a1.59 1.59 0 0 1 .183-.085l.075-.09zm21.02.002a1 1 0 0 1 .127.103l-.026-.026-.025-.026c-.023-.018-.048-.034-.077-.05zm-.195-.1l-.018-.01.15.076.055.03-.115-.067-.074-.03zm-.234-.063l-.01-.002a2.18 2.18 0 0 1 .146.035l.067.018-.024-.01a1 1 0 0 0-.135-.034l-.007-.002-.037-.005zM222.587 96.96l-.02-.087-.046-.214-.007-.037-.002-.015.004.075a1 1 0 0 0 .015.098l.03.114.025.066zm21.65-21.203l.024.035c.025.043.048.094.073.158l.154.466a1 1 0 0 0-.207-.609l-.044-.05zm-.614-.33l-.01-.002-.04-.006c-.025-.002-.048-.002-.084-.002a1 1 0 0 1 .178.016l-.044-.007z" class="B Y"/><g class="F"><path d="M277.93 52.863l1.07-2.615-1.207-1.08a2.19 2.19 0 0 1-.014-3.247l1.197-1.1-1.093-2.606-1.616.1a2.19 2.19 0 0 1-1.663-.631c-.44-.435-.673-1.037-.645-1.655l.076-1.618-2.616-1.07-1.08 1.208a2.19 2.19 0 0 1-3.247.014L266 37.366l-2.606 1.093.09 1.617c.034.618-.196 1.223-.632 1.663s-1.036.673-1.655.645l-1.62-.076-1.07 2.615 1.208 1.08a2.19 2.19 0 0 1 .014 3.247l-1.197 1.1 1.093 2.606 1.616-.09c.62-.034 1.224.196 1.664.632a2.19 2.19 0 0 1 .645 1.654l-.076 1.618 2.615 1.07 1.074-1.2c.415-.465 1.01-.733 1.632-.737a2.16 2.16 0 0 1 1.614.708l1.098 1.205 2.605-1.093-.09-1.618a2.19 2.19 0 0 1 .631-1.661c.435-.44 1.038-.674 1.656-.645l1.618.075zm-10.614-1.756c-1.945-.796-2.877-3.017-2.082-4.96s3.016-2.877 4.96-2.08 2.876 3.016 2.08 4.96-3.016 2.876-4.96 2.082z"/><circle cx="270" cy="49" r="14"/></g><circle cx="265" cy="45" r="14" class="X"/><path d="M267.6 35l-1.054 1.18a2.14 2.14 0 0 1-1.58.711c-.605.003-1.182-.25-1.59-.697l-1.065-1.17-2.544 1.067.088 1.578a2.14 2.14 0 0 1-.617 1.623c-.425.43-1.012.657-1.615.63l-1.58-.074L255 42.4l1.18 1.055a2.14 2.14 0 0 1 .711 1.58c.003.606-.25 1.183-.698 1.6l-1.17 1.064 1.067 2.544 1.577-.088a2.14 2.14 0 0 1 1.624.617l.123.132c.35.4.53.94.506 1.482l-.074 1.58L262.4 55l1.05-1.17c.406-.454.985-.716 1.594-.72a2.11 2.11 0 0 1 1.575.691l1.072 1.176 2.543-1.067-.088-1.58c-.033-.603.19-1.193.616-1.62s1.013-.658 1.616-.63l1.58.073L275 47.6l-1.18-1.055a2.14 2.14 0 0 1-.712-1.58l.007-.18c.043-.538.29-1.042.69-1.41l1.17-1.064-1.067-2.544-1.578.088a2.14 2.14 0 0 1-1.623-.616c-.43-.425-.657-1.012-.63-1.615l.074-1.58L267.6 35zm-8.42 16.754l.01.002.08.005h.024l-.114-.008zm-.164-.033l.024.008a1 1 0 0 0 .126.025l.015.001-.164-.033zm-.525-.366l.012.018c.027.035.056.068.088.1l.002.001.007.007a1 1 0 0 0 .32.208l.08.026-.51-.36zm12.46.333l-.105.017-.04.003h-.04l.088-.002.032-.003.033-.006.035-.01zm.24-.08l-.068.024-.17.055-.108.017a1 1 0 0 0 .275-.063l.07-.033zm-12.9-.735l-.006-.1c0 .17.047.34.135.5l.058.087-.187-.477zm8.485-10.236c2.41.984 3.564 3.737 2.578 6.146-.957 2.34-3.58 3.497-5.938 2.66l-.208-.08c-2.4-.986-3.564-3.738-2.58-6.147s3.737-3.565 6.147-2.58zm-5.22 2.957c-.776 1.898.133 4.066 2.032 4.843s4.066-.134 4.842-2.032-.133-4.066-2.03-4.842-4.067.133-4.843 2.03zm9.706-5.184a1 1 0 0 1 .134.109l-.024-.025-.023-.026c-.026-.02-.054-.04-.087-.058zm-.184-.096l-.026-.013.21.11-.12-.07-.064-.026zm-.243-.067l-.01-.002c.033.006.075.016.146.035l.066.017-.023-.01a1 1 0 0 0-.135-.034l-.008-.002-.037-.005zm.762 12.993l.027-.04a1 1 0 0 0 .13-.492l-.116.45-.032.07-.008.012zm-13.36-12.06a.58.58 0 0 0-.006.11 1 1 0 0 1 .013-.16l-.004.032-.003.018zm.004-.024l-.004.024.028-.132.013-.06-.014.045-.02.097v.016l-.001.01zm13.252-.53l-.042-.05.025.04a1.14 1.14 0 0 1 .071.154l.154.466a1 1 0 0 0-.207-.609zm-.658-.38l-.01-.002-.04-.006a.87.87 0 0 0-.084-.002 1 1 0 0 1 .179.016l-.045-.007zm-12.323.35l.024-.02c.057-.04.132-.075.236-.117l.075-.09a1 1 0 0 0-.227.132l-.1.086.09-.102a1.14 1.14 0 0 0 .237-.623l.001-.137-.088-1.578a1 1 0 0 1 .612-.978l2.544-1.067a1 1 0 0 1 1.126.249l1.065 1.17a1.14 1.14 0 0 0 .847.371l.134-.01a1.14 1.14 0 0 0 .607-.273l.097-.096 1.054-1.18a1 1 0 0 1 1.124-.259l2.553 1.044a1 1 0 0 1 .621.972l-.074 1.58c-.014.294.087.58.28.8l.047.043.028.033.003.003.08.07a1.14 1.14 0 0 0 .624.237l.137.001 1.578-.088a1 1 0 0 1 .978.612l1.067 2.544a1 1 0 0 1-.249 1.126l-1.168 1.064a1.14 1.14 0 0 0 .007 1.686l1.18 1.055a1 1 0 0 1 .259 1.124l-1.044 2.553a1 1 0 0 1-.972.621l-1.58-.073c-.32-.015-.634.107-.858.334l.048-.057-.05.048a2.27 2.27 0 0 1-.158.124l-.097.07.03-.013a1 1 0 0 0 .118-.077l.105-.092c-.225.227-.344.54-.327.86l.088 1.58a1 1 0 0 1-.611.978l-2.543 1.067a1 1 0 0 1-1.126-.248l-1.073-1.177c-.212-.234-.513-.365-.835-.364l-.136.01c-.228.03-.442.126-.615.28l-.1.098-1.05 1.17a1 1 0 0 1-1.123.258l-2.553-1.044a1 1 0 0 1-.62-.972l.074-1.58c.014-.318-.104-.626-.326-.85a1.15 1.15 0 0 0-.736-.336l-.137-.001-1.577.088a1 1 0 0 1-.978-.612l-1.067-2.544a1 1 0 0 1 .249-1.126l1.17-1.064a1.14 1.14 0 0 0 .371-.848l-.01-.136a1.14 1.14 0 0 0-.369-.702l-1.18-1.055a1 1 0 0 1-.259-1.124l1.043-2.553a1 1 0 0 1 .972-.621l1.58.074c.285.013.563-.08.78-.26-.04.05-.072.108-.106.187a1 1 0 0 1 .177-.251z" class="B E"/><g class="F"><path d="M83.93 110.863l1.07-2.615-1.207-1.08a2.19 2.19 0 0 1-.014-3.247l1.197-1.1-1.093-2.606-1.616.1a2.19 2.19 0 0 1-1.663-.631c-.44-.435-.673-1.037-.645-1.655l.076-1.618-2.616-1.07-1.08 1.208a2.19 2.19 0 0 1-3.247.014L72 95.366l-2.606 1.093.09 1.617c.034.618-.196 1.223-.632 1.663s-1.036.673-1.655.645l-1.62-.076-1.07 2.615 1.208 1.08a2.19 2.19 0 0 1 .014 3.247l-1.197 1.1 1.093 2.606 1.616-.09c.62-.034 1.224.196 1.664.632a2.19 2.19 0 0 1 .645 1.654l-.076 1.618 2.615 1.07 1.074-1.2c.415-.465 1.01-.733 1.632-.737a2.16 2.16 0 0 1 1.614.708l1.098 1.205 2.605-1.093-.09-1.618a2.19 2.19 0 0 1 .631-1.661c.435-.44 1.038-.674 1.656-.645l1.618.075zm-10.614-1.756c-1.945-.796-2.877-3.017-2.082-4.96s3.016-2.877 4.96-2.08 2.876 3.016 2.08 4.96-3.016 2.876-4.96 2.082z"/><circle cx="76" cy="107" r="14"/></g><circle cx="71" cy="103" r="14" class="X"/><path d="M73.6 93l-1.054 1.18a2.14 2.14 0 0 1-1.58.711c-.605.003-1.182-.25-1.59-.697l-1.065-1.17-2.544 1.067.088 1.578a2.14 2.14 0 0 1-.617 1.623c-.425.43-1.012.657-1.615.63l-1.58-.074L61 100.4l1.18 1.055a2.14 2.14 0 0 1 .711 1.58c.003.606-.25 1.183-.698 1.6l-1.17 1.064 1.067 2.544 1.577-.088a2.14 2.14 0 0 1 1.624.617l.123.132c.35.4.53.94.506 1.482l-.074 1.58L68.4 113l1.05-1.17c.406-.454.985-.716 1.594-.72a2.11 2.11 0 0 1 1.575.691l1.072 1.176 2.543-1.067-.088-1.58c-.033-.603.19-1.193.616-1.62s1.013-.658 1.616-.63l1.58.073L81 105.6l-1.18-1.055a2.14 2.14 0 0 1-.712-1.58l.007-.18c.043-.538.29-1.042.69-1.41l1.17-1.064-1.067-2.544-1.578.088a2.14 2.14 0 0 1-1.623-.616c-.43-.425-.657-1.012-.63-1.615l.074-1.58L73.6 93zm-8.42 16.754l.01.002.08.005h.024l-.114-.008zm-.164-.033l.024.008a1 1 0 0 0 .126.025l.015.001-.164-.033zm-.525-.366l.012.018c.027.035.056.068.088.1l.002.001.007.007a1 1 0 0 0 .32.208l.08.026-.51-.36zm12.46.333l-.105.017-.04.003h-.04l.088-.002.032-.003.033-.006.035-.01zm.24-.08l-.068.024-.17.055-.108.017a1 1 0 0 0 .275-.063l.07-.033zm-12.9-.735l-.006-.1c0 .17.047.34.135.5l.058.087-.187-.477zm8.485-10.236c2.41.984 3.564 3.737 2.578 6.146-.957 2.34-3.58 3.497-5.938 2.66l-.208-.08c-2.4-.986-3.564-3.738-2.58-6.147s3.737-3.565 6.147-2.58zm-5.22 2.957c-.776 1.898.133 4.066 2.032 4.843s4.066-.134 4.842-2.032-.133-4.066-2.03-4.842-4.067.133-4.843 2.03zm9.706-5.184a1 1 0 0 1 .134.109l-.024-.025-.023-.026c-.026-.02-.054-.04-.087-.058zm-.184-.096l-.026-.013.21.11-.12-.07-.064-.026zm-.243-.067l-.01-.002c.033.006.075.016.146.035l.066.017-.023-.01a1 1 0 0 0-.135-.034l-.008-.002-.037-.005zm.762 12.993l.027-.04a1 1 0 0 0 .13-.492l-.116.45-.032.07-.008.012zm-13.36-12.06a.58.58 0 0 0-.006.11 1 1 0 0 1 .013-.16l-.004.032-.003.018zm.004-.024l-.004.024.028-.132.013-.06-.014.045-.02.097v.016l-.001.01zm13.252-.53l-.042-.05.025.04a1.14 1.14 0 0 1 .071.154l.154.466a1 1 0 0 0-.207-.609zm-.658-.38l-.01-.002-.04-.006a.87.87 0 0 0-.084-.002 1 1 0 0 1 .179.016l-.045-.007zm-12.323.35l.024-.02c.057-.04.132-.075.236-.117l.075-.09a1 1 0 0 0-.227.132l-.1.086.09-.102a1.14 1.14 0 0 0 .237-.623l.001-.137-.088-1.578a1 1 0 0 1 .612-.978l2.544-1.067a1 1 0 0 1 1.126.249l1.065 1.17a1.14 1.14 0 0 0 .847.371l.134-.01a1.14 1.14 0 0 0 .607-.273l.097-.096 1.054-1.18a1 1 0 0 1 1.124-.259l2.553 1.044a1 1 0 0 1 .621.972l-.074 1.58c-.014.294.087.58.28.8l.047.043.028.033.003.003.08.07a1.14 1.14 0 0 0 .624.237l.137.001 1.578-.088a1 1 0 0 1 .978.612l1.067 2.544a1 1 0 0 1-.249 1.126l-1.168 1.064a1.14 1.14 0 0 0 .007 1.686l1.18 1.055a1 1 0 0 1 .259 1.124l-1.044 2.553a1 1 0 0 1-.972.621l-1.58-.073c-.32-.015-.634.107-.858.334l.048-.057-.05.048a2.27 2.27 0 0 1-.158.124l-.097.07.03-.013a1 1 0 0 0 .118-.077l.105-.092c-.225.227-.344.54-.327.86l.088 1.58a1 1 0 0 1-.611.978l-2.543 1.067a1 1 0 0 1-1.126-.248l-1.073-1.177c-.212-.234-.513-.365-.835-.364l-.136.01c-.228.03-.442.126-.615.28l-.1.098-1.05 1.17a1 1 0 0 1-1.123.258l-2.553-1.044a1 1 0 0 1-.62-.972l.074-1.58c.014-.318-.104-.626-.326-.85a1.15 1.15 0 0 0-.736-.336l-.137-.001-1.577.088a1 1 0 0 1-.978-.612l-1.067-2.544a1 1 0 0 1 .249-1.126l1.17-1.064a1.14 1.14 0 0 0 .371-.848l-.01-.136a1.14 1.14 0 0 0-.369-.702l-1.18-1.055a1 1 0 0 1-.259-1.124l1.043-2.553a1 1 0 0 1 .972-.621l1.58.074c.285.013.563-.08.78-.26-.04.05-.072.108-.106.187a1 1 0 0 1 .177-.251z" fill="#0b65f6" class="B"/><path d="M207.93 97.863l1.07-2.615-1.207-1.08a2.19 2.19 0 0 1-.014-3.247l1.197-1.1-1.093-2.606-1.616.1a2.19 2.19 0 0 1-1.663-.631c-.44-.435-.673-1.037-.645-1.655l.076-1.618-2.616-1.07-1.08 1.208a2.19 2.19 0 0 1-3.247.014L196 82.366l-2.606 1.093.09 1.617c.034.618-.196 1.223-.632 1.663s-1.036.673-1.655.645l-1.62-.076-1.07 2.615 1.208 1.08a2.19 2.19 0 0 1 .014 3.247l-1.197 1.1 1.093 2.606 1.616-.09c.62-.034 1.224.196 1.664.632a2.19 2.19 0 0 1 .645 1.654l-.076 1.618 2.615 1.07 1.074-1.2c.415-.465 1.01-.733 1.632-.737a2.16 2.16 0 0 1 1.614.708l1.098 1.205 2.605-1.093-.09-1.618a2.19 2.19 0 0 1 .631-1.661c.435-.44 1.038-.674 1.656-.645l1.618.075zm-10.614-1.756c-1.945-.796-2.877-3.017-2.082-4.96s3.016-2.877 4.96-2.08 2.876 3.016 2.08 4.96-3.016 2.876-4.96 2.082z" class="F"/><path d="M197.906 80l-1.08 1.208a2.19 2.19 0 0 1-3.247.014l-1.09-1.197-2.606 1.093.09 1.617c.034.618-.196 1.223-.632 1.663s-1.036.673-1.655.645l-1.62-.076L185 87.58l1.208 1.08a2.19 2.19 0 0 1 .014 3.247l-1.197 1.1 1.093 2.606 1.616-.09c.62-.034 1.224.196 1.664.632l.126.136a2.19 2.19 0 0 1 .519 1.519l-.076 1.618 2.615 1.07 1.074-1.2c.415-.465 1.01-.733 1.632-.737a2.16 2.16 0 0 1 1.614.708l1.098 1.205 2.605-1.093-.09-1.618a2.19 2.19 0 0 1 .631-1.661c.435-.44 1.038-.674 1.656-.645l1.618.075 1.07-2.615-1.207-1.08a2.19 2.19 0 0 1-.729-1.618l.007-.186a2.19 2.19 0 0 1 .708-1.443l1.197-1.1-1.093-2.606-1.616.1a2.19 2.19 0 0 1-1.663-.631c-.44-.435-.673-1.037-.645-1.655l.076-1.618-2.616-1.07zm-8.623 17.138l.01.003.08.005h.024l-.114-.008zm-.164-.033l.024.008a1 1 0 0 0 .126.025h.015l-.164-.033zm12.214-.033l-.105.016-.04.003-.04.001.088-.002.032-.003.033-.006.035-.01zm.235-.078l.025-.008-.257.085.033-.005a1 1 0 0 0 .135-.041l.065-.03zm.344-.264l-.056.056a2.27 2.27 0 0 1-.158.124l-.094.067.027-.01a1 1 0 0 0 .118-.077l.102-.1.004-.002.057-.067zm-13.508-.472l-.007-.1c0 .17.047.34.135.5l.06.088-.187-.478zm8.658-10.46c2.456 1.003 3.632 3.81 2.628 6.264s-3.808 3.632-6.264 2.63-3.633-3.8-2.63-6.265 3.81-3.633 6.265-2.628zm-5.34 3.007c-.795 1.944.137 4.165 2.082 4.96s4.165-.137 4.96-2.082-.136-4.166-2.08-4.96-4.166.136-4.96 2.08zm-3.172-5.037l-.038.053a.98.98 0 0 0-.067.133 1 1 0 0 1 .177-.251l-.072.065zm13.102-.253a1 1 0 0 1 .133.108l-.024-.025-.023-.026c-.025-.02-.054-.04-.086-.058zm-.19-.1l-.022-.01.21.11-.12-.07-.07-.03zm-.23-.063l-.018-.003c.033.006.075.016.146.035l.066.016-.023-.01a1 1 0 0 0-.135-.034l-.037-.005zm.76 13.266l.023-.034.055-.116a.98.98 0 0 0 .075-.377l-.116.45-.032.07-.005.007zM188.35 84.274l-.001.012.028-.132.01-.05-.01.034-.02.097-.003.017-.003.02zm13.534-.542l-.04-.045.023.035c.024.042.047.092.07.154l.154.466a1 1 0 0 0-.207-.609zm-13.26-.03l.005-.005.002-.003.016-.012a1.24 1.24 0 0 1 .237-.118l.075-.09a1 1 0 0 0-.227.132l-.098.087a1.19 1.19 0 0 0 .343-.902l-.09-1.617a1 1 0 0 1 .612-.978l2.606-1.093a1 1 0 0 1 1.126.249l1.09 1.197a1.19 1.19 0 0 0 .886.388l.14-.01a1.19 1.19 0 0 0 .635-.285l.1-.1 1.08-1.208a1 1 0 0 1 1.124-.259l2.616 1.07a1 1 0 0 1 .621.972l-.076 1.617a1.19 1.19 0 0 0 .294.839l.048.043.035.04.082.072a1.19 1.19 0 0 0 .652.247l.143.001 1.616-.1a1 1 0 0 1 .978.612l1.093 2.606a1 1 0 0 1-.249 1.126l-1.197 1.1a1.19 1.19 0 0 0 .007 1.763l1.207 1.08a1 1 0 0 1 .259 1.124l-1.07 2.615a1 1 0 0 1-.972.621l-1.618-.075c-.336-.016-.663.112-.898.35l-.005.004-.1.105a1.19 1.19 0 0 0-.247.65l-.001.143.09 1.618a1 1 0 0 1-.611.978l-2.605 1.093a1 1 0 0 1-1.126-.248l-1.1-1.205c-.222-.244-.537-.382-.873-.38l-.142.01c-.238.03-.462.132-.643.29l-.103.102-1.074 1.2a1 1 0 0 1-1.123.258l-2.615-1.07a1 1 0 0 1-.62-.972l.076-1.617a1.19 1.19 0 0 0-.341-.89 1 1 0 0 0 .32.208l.08.027-.51-.36.01.017.086.098-.106-.093c-.188-.146-.415-.232-.653-.248l-.143-.001-1.616.09a1 1 0 0 1-.978-.612l-1.093-2.606a1 1 0 0 1 .249-1.126l1.197-1.1a1.19 1.19 0 0 0 .388-.887l-.01-.142a1.19 1.19 0 0 0-.386-.734l-1.208-1.08a1 1 0 0 1-.259-1.124l1.07-2.615a1 1 0 0 1 .972-.621l1.618.076c.3.014.59-.085.817-.275l.043-.044.037-.03zm12.61-.35l-.018-.003-.04-.006a.87.87 0 0 0-.084-.002 1 1 0 0 1 .179.016l-.037-.005z" fill="#ff8da5" class="B"/><path d="M106.938 125.295c.518 2.61 2.18 4.873 4.553 6.204s5.226 1.6 7.82.736l2.435 4.083c-2.068 1.742-3.256 4.267-3.256 6.922s1.188 5.18 3.256 6.922l-2.435 4.048c-2.593-.864-5.446-.595-7.82.736s-4.034 3.595-4.553 6.204h-4.87c-.518-2.61-2.18-4.873-4.553-6.204s-5.226-1.6-7.82-.736l-2.435-4.083c2.068-1.742 3.256-4.267 3.256-6.922s-1.188-5.18-3.256-6.922l2.435-4.048c2.593.864 5.446.595 7.82-.736s4.034-3.595 4.553-6.204zM104.5 136.73a6.58 6.58 0 0 0-6.577 6.577 6.58 6.58 0 0 0 6.577 6.577 6.58 6.58 0 0 0 6.577-6.577 6.58 6.58 0 0 0-6.577-6.577z" class="F"/><path d="M100.938 120.295a1 1 0 0 1 .981.805c.46 2.32 1.94 4.338 4.06 5.527 2.127 1.193 4.688 1.434 7.014.66a1 1 0 0 1 1.175.437l2.435 4.083a1 1 0 0 1-.215 1.277c-1.844 1.553-2.9 3.8-2.9 6.158s1.056 4.605 2.9 6.158a1 1 0 0 1 .213 1.28l-2.435 4.048a1 1 0 0 1-1.173.433c-2.327-.775-4.887-.534-7.014.66-2.12 1.19-3.6 3.206-4.06 5.527a1 1 0 0 1-.981.805h-4.87a1 1 0 0 1-.981-.805c-.46-2.32-1.94-4.338-4.06-5.527-2.127-1.193-4.688-1.434-7.014-.66a1 1 0 0 1-1.175-.437L80.4 146.64a1 1 0 0 1 .215-1.277c1.844-1.553 2.9-3.8 2.9-6.158s-1.056-4.605-2.9-6.158a1 1 0 0 1-.213-1.28l2.435-4.048a1 1 0 0 1 1.173-.433c2.327.775 4.887.534 7.014-.66 2.12-1.19 3.6-3.206 4.06-5.527a1 1 0 0 1 .981-.805h4.87zm0 1h-4.87c-.518 2.61-2.18 4.873-4.553 6.204s-5.226 1.6-7.82.736l-2.435 4.048c2.068 1.742 3.256 4.267 3.256 6.922s-1.188 5.18-3.256 6.922l2.435 4.083c2.593-.864 5.446-.595 7.82.736s4.034 3.595 4.553 6.204h4.87c.518-2.61 2.18-4.873 4.553-6.204s5.226-1.6 7.82-.736l2.435-4.048c-2.068-1.742-3.256-4.267-3.256-6.922s1.188-5.18 3.256-6.922l-2.435-4.083c-2.593.864-5.446.595-7.82-.736s-4.034-3.595-4.553-6.204zM98.5 131.73a7.58 7.58 0 0 1 7.577 7.577 7.58 7.58 0 0 1-7.577 7.577 7.58 7.58 0 0 1-7.577-7.577 7.58 7.58 0 0 1 7.577-7.577zm0 1a6.58 6.58 0 0 0-6.577 6.577 6.58 6.58 0 0 0 6.577 6.577 6.58 6.58 0 0 0 6.577-6.577 6.58 6.58 0 0 0-6.577-6.577z" class="B Y"/><path fill-opacity=".5" fill="#051938" d="M-25-15h1215v369H-25z"/></g></g></svg>