<svg xmlns="http://www.w3.org/2000/svg" xmlns:xlink="http://www.w3.org/1999/xlink" width="1170" height="341"><style><![CDATA[.B{fill-rule:nonzero}.C{mask:url(#O)}.D{fill:#3278eb}.E{mask:url(#P)}.F{fill:#245cb7}.G{fill:#0060ff}.H{fill:#8c89fa}.I{fill:#ffc937}.J{fill:#003181}.K{fill:#001b48}.L{fill:#001a42}]]></style><defs><path id="A" d="M0 0h1170v341H0z"/><circle id="B" cx="29.5" cy="29.5" r="25.5"/><path d="M42.552 7C50.014 11.535 55 19.75 55 29.13 55 43.418 43.436 55 29.17 55c-4.8 0-9.314-1.317-13.17-3.61a26.39 26.39 0 0 0 8.408 1.366c14.605 0 26.445-11.858 26.445-26.486 0-7.46-3.08-14.2-8.035-19.014z" id="C"/><circle id="D" cx="16" cy="16" r="16"/><path d="M50.467 24.917H30.25c-9.27 0-16.792 7.5-16.792 16.754v328.923c0 9.252 7.518 16.754 16.792 16.754h134.04c9.27 0 16.792-7.5 16.792-16.754V41.67c0-9.252-7.518-16.754-16.792-16.754h-20.216v6.34a7.01 7.01 0 0 1-6.998 7.004H57.464c-3.865 0-6.998-3.128-6.998-7.004v-6.34z" id="E"/><path d="M58.41 44.17H39.422c-8.707 0-15.77 7.102-15.77 15.864v311.45c0 8.76 7.06 15.864 15.77 15.864h125.9c8.707 0 15.77-7.102 15.77-15.864V60.035c0-8.76-7.06-15.864-15.77-15.864H58.41z" id="F"/><path id="G" d="M895.43 226.86a4.43 4.43 0 0 0 4.429-4.43 4.43 4.43 0 0 0-4.429-4.43 4.43 4.43 0 0 0-4.429 4.43 4.43 4.43 0 0 0 4.429 4.43zm0-1a3.43 3.43 0 0 1-3.429-3.43 3.43 3.43 0 0 1 3.429-3.43 3.43 3.43 0 0 1 3.429 3.43 3.43 3.43 0 0 1-3.429 3.43z"/><path id="H" d="M895.43 224.944c1.388 0 2.514-1.126 2.514-2.514s-1.125-2.514-2.514-2.514-2.514 1.126-2.514 2.514 1.125 2.514 2.514 2.514zm0-1c-.836 0-1.514-.678-1.514-1.514s.678-1.514 1.514-1.514 1.514.678 1.514 1.514-.678 1.514-1.514 1.514z"/><path id="I" d="M742.413 150.487c1.697 0 3.072-1.376 3.072-3.073s-1.375-3.073-3.072-3.073-3.072 1.376-3.072 3.073 1.375 3.073 3.072 3.073zm0-1c-1.144 0-2.072-.928-2.072-2.073s.928-2.073 2.072-2.073 2.072.928 2.072 2.073-.928 2.073-2.072 2.073z"/><path id="J" d="M696 288a8 8 0 1 0 0-16 8 8 0 1 0 0 16zm0-1a7 7 0 1 1 0-14 7 7 0 1 1 0 14z"/><path id="K" d="M1001 216.273v53.71a.5.5 0 1 0 1 0v-53.71a.5.5 0 1 0-1 0z"/><path id="L" d="M13.465.22c-.215-.258-.595-.293-.853-.078l-5.81 4.86L.994.14C.736-.074.355-.038.14.22a.61.61 0 0 0 .077.856L6.415 6.26c.112.094.25.14.388.14s.276-.047.388-.14l6.197-5.185a.61.61 0 0 0 .077-.856z"/><path id="M" d="M982.23 143.077v12.88a.5.5 0 1 0 1 0v-12.88a.5.5 0 1 0-1 0z"/><path id="N" d="M896 131h45a6 6 0 0 1 6 6v45a6 6 0 0 1-6 6h-45a6 6 0 0 1-6-6v-45a6 6 0 0 1 6-6z"/></defs><g fill="none" fill-rule="evenodd"><mask id="O" fill="#fff"><use xlink:href="#A"/></mask><use fill="#051939" xlink:href="#A"/><g class="C"><g fill="#113876" class="B"><path d="M1149.616 232.302l108.294-93.924a.5.5 0 0 0-.655-.755l-108.294 93.924a.5.5 0 0 0 .655.755z"/><path d="M1149.337 232.42l162.416-15.407a.5.5 0 1 0-.094-.996l-162.416 15.407a.5.5 0 1 0 .094.996z"/><path d="M1149.344 231.164l-68.42 72.416a.5.5 0 1 0 .727.687l68.42-72.416a.5.5 0 1 0-.727-.687zm-9.267-148.21l118.294 55.498a.5.5 0 1 0 .425-.905L1140.5 82.05a.5.5 0 1 0-.425.905zm174.596-16.94l-175.42 12.4a.5.5 0 0 0 .071.998l175.42-12.4a.5.5 0 0 0-.071-.998zm-221.333 42.157L990.916 220.587a.5.5 0 0 0 .739.673l102.425-112.415a.5.5 0 0 0-.739-.673z"/><path d="M1096.678 109.004l-185.417 10.42a.5.5 0 1 0 .056.998l185.417-10.42a.5.5 0 1 0-.056-.998z"/><path d="M1095.56 109.344l45.418-29.423a.5.5 0 0 0-.544-.839l-45.418 29.423a.5.5 0 0 0 .544.839z"/><path d="M1094.198 110.004l163.425 29.195a.5.5 0 1 0 .176-.984l-163.425-29.195a.5.5 0 1 0-.176.984zM894.303 222.402l96.412-2.25a.5.5 0 0 0-.023-1l-96.412 2.25a.5.5 0 0 0 .023 1z"/><path d="M894.11 221.62l-55.43-72.416a.5.5 0 1 0-.794.608l55.43 72.416a.5.5 0 1 0 .794-.608z"/><path d="M989.916 218.47l-151.42-69.426a.5.5 0 1 0-.417.909L989.5 219.38a.5.5 0 0 0 .417-.909z"/><path d="M789.622 193.3l49.412-43.42a.5.5 0 0 0-.66-.751l-49.412 43.42a.5.5 0 1 0 .66.751zm1.438 2.27l-48.206-48.422a.5.5 0 0 0-.709.706l48.206 48.422a.5.5 0 0 0 .709-.706z"/><path d="M638.256 89.937l104 58a.5.5 0 1 0 .487-.873l-104-58a.5.5 0 1 0-.487.873zM789.794 192.58l13.417 96.412a.5.5 0 0 0 .99-.138l-13.417-96.412a.5.5 0 0 0-.99.138zm-1.277 2.453l-88.43 37.433a.5.5 0 1 0 .39.921l88.43-37.433a.5.5 0 1 0-.39-.921z"/><path d="M663.914 192.842l37.433 40.423a.5.5 0 0 0 .734-.679l-37.433-40.423a.5.5 0 0 0-.734.679zm-.716-1.436l-24.212-102.02a.5.5 0 1 0-.973.231l24.212 102.02a.5.5 0 1 0 .973-.231z"/><path d="M664.274 190.997l127.42 3.43a.5.5 0 1 0 .027-1l-127.42-3.43a.5.5 0 1 0-.027 1zm138.672 96.488l-102.42-55.423a.5.5 0 1 0-.476.879l102.42 55.423a.5.5 0 1 0 .476-.879z"/><path d="M802.37 288.293l88.792 81.576a.5.5 0 1 0 .677-.736l-88.792-81.576a.5.5 0 0 0-.677.736zm-166.483 25.523l65.208-80.003a.5.5 0 1 0-.775-.632l-65.208 80.003a.5.5 0 1 0 .775.632z"/><path d="M635.987 313.613l28-121a.5.5 0 1 0-.974-.225l-28 121a.5.5 0 1 0 .974.225z"/><path d="M635.974 313.34l-49.7-147.77a.5.5 0 0 0-.948.319l49.7 147.77a.5.5 0 0 0 .948-.319z"/><path d="M638.087 88.218l-52.7 77.23a.5.5 0 1 0 .826.564l52.7-77.23a.5.5 0 0 0-.826-.564zM802.632 287.02L636 312.97a.5.5 0 1 0 .154.988l166.63-25.95a.5.5 0 1 0-.154-.988z"/><path d="M766.697 369.04l-130.422-56.037a.5.5 0 1 0-.395.919l130.422 56.037a.5.5 0 1 0 .395-.919zm24.453-176.037l104.426 29.4a.5.5 0 0 0 .271-.963l-104.426-29.4a.5.5 0 0 0-.271.963z"/><path d="M896.42 221.094l-93.416 65.42a.5.5 0 1 0 .574.819l93.416-65.42a.5.5 0 1 0-.574-.819z"/><path d="M896.954 220.9l37.433 32.4a.5.5 0 1 0 .655-.756l-37.433-32.4a.5.5 0 1 0-.655.756zm94.506.186L934.033 254.5a.5.5 0 1 0 .503.864l57.426-33.404a.5.5 0 1 0-.503-.864z"/><path d="M1083.865 302.448l-148.42-49.405a.5.5 0 0 0-.316.949l148.42 49.405a.5.5 0 0 0 .316-.949zm-279.45-14.04L933.838 254a.5.5 0 1 0-.257-.966L804.157 287.44a.5.5 0 0 0 .257.966z"/><path d="M1082.732 300.425l-280.418-14.423a.5.5 0 0 0-.051.999l280.418 14.423a.5.5 0 0 0 .051-.999zM786.954 102.867l53.407 49.425a.5.5 0 1 0 .679-.734l-53.407-49.425a.5.5 0 1 0-.679.734z"/><path d="M742.487 148l97.208 2.435a.5.5 0 1 0 .025-1L742.512 147a.5.5 0 1 0-.025 1zm171.036-25.964l-75.415 29.423a.5.5 0 1 0 .363.932l75.415-29.423a.5.5 0 1 0-.363-.932zm193.11 79.96l-116.418 17.437a.5.5 0 1 0 .148.989l116.418-17.437a.5.5 0 0 0-.148-.989zm-23.594 101.557l-92.415-82.424a.5.5 0 0 0-.666.746l92.415 82.424a.5.5 0 1 0 .666-.746z"/><path d="M1149.736 230.428l-159.418-9.444a.5.5 0 1 0-.059.998l159.418 9.444a.5.5 0 1 0 .059-.998zm-41.523-27.575l-13.44-94.417a.5.5 0 1 0-.99.141l13.44 94.417a.5.5 0 1 0 .99-.141z"/><path d="M1108.484 203.384l149.423-64.425a.5.5 0 1 0-.396-.918l-149.423 64.425a.5.5 0 0 0 .396.918z"/><path d="M1107 202.922l42.427 29.412a.5.5 0 1 0 .57-.822L1107.57 202.1a.5.5 0 0 0-.57.822zm30.845-123.477L991.428 37.018a.5.5 0 0 0-.278.96l146.417 42.427a.5.5 0 1 0 .278-.96z"/><path d="M1313.755 66.43l-322.42-30.436c-.275-.026-.52.176-.547.45s.178.52.453.545l322.42 30.436c.275.026.52-.176.547-.45s-.178-.52-.453-.545z"/><path d="M1128.33-13.97l-137.213 50a.5.5 0 1 0 .342.94l137.213-50a.5.5 0 1 0-.342-.94zM911.895 121.812l78.42 99.422a.5.5 0 1 0 .785-.619l-78.42-99.422a.5.5 0 0 0-.785.619z"/><path d="M912.783 121.433l-127.42-19.444a.5.5 0 1 0-.151.989l127.42 19.444a.5.5 0 1 0 .151-.989z"/><path d="M638.458 89.998l147.207 12.425a.5.5 0 1 0 .084-.996L638.542 89.002a.5.5 0 1 0-.084.996z"/><path d="M788-8.513l-2.793 110.425a.5.5 0 1 0 1 .025L789-8.487a.5.5 0 1 0-1-.025zM638.873 89.832l113-127a.5.5 0 0 0-.747-.665l-113 127a.5.5 0 1 0 .747.665z"/><path d="M742.864 147.842l43.205-46.003a.5.5 0 0 0-.729-.685l-43.205 46.003a.5.5 0 0 0 .729.685z"/><path d="M742.26 147.06l-78.215 42.424a.5.5 0 1 0 .477.879l78.215-42.424a.5.5 0 0 0-.477-.879zm247.3-111.04L784.14 99.45a.5.5 0 1 0 .295.955l205.42-63.43a.5.5 0 1 0-.295-.955z"/><path d="M989.9 36.036L813.693-37.96a.5.5 0 1 0-.387.922l176.208 73.997a.5.5 0 1 0 .387-.922z"/><path d="M913.654 122.26l78.428-86.42a.5.5 0 0 0-.741-.672l-78.428 86.42a.5.5 0 0 0 .741.672z"/><path d="M1139.62 82L913.2 121.43a.5.5 0 0 0 .172.985l226.42-39.42a.5.5 0 1 0-.172-.985zm11.56 153l101.417 22.4a.5.5 0 1 0 .216-.976l-101.417-22.4a.5.5 0 1 0-.216.976z"/><path d="M1082.416 302.41l170.42-45.432a.5.5 0 1 0-.258-.966l-170.42 45.432a.5.5 0 1 0 .258.966z"/><path d="M1083.32 302.422L1379.74 283a.5.5 0 1 0-.065-.998l-296.42 19.412a.5.5 0 1 0 .065.998z"/><path d="M1082.917 302.26l72.213 79.577a.5.5 0 0 0 .741-.672l-72.213-79.577a.5.5 0 0 0-.741.672z"/><path d="M1082.88 301.633l-56.787 79.577a.5.5 0 1 0 .814.581l56.787-79.577a.5.5 0 1 0-.814-.581z"/></g><g fill="#44c4c6"><g class="B"><use xlink:href="#G"/><use xlink:href="#H"/></g><circle cx="895.429" cy="222.43" r="1.317"/></g><g class="F"><use xlink:href="#G" x="212" y="-19"/><use xlink:href="#H" x="212" y="-19"/><circle cx="1107.429" cy="203.43" r="1.317"/></g><g fill="#44c4c6"><g class="B"><use xlink:href="#G" x="244" y="-142"/><use xlink:href="#H" x="244" y="-142"/></g><circle cx="1139.429" cy="80.43" r="1.317"/><g class="B"><path d="M742.413 152.828c3 0 5.413-2.424 5.413-5.414S745.403 142 742.413 142 737 144.424 737 147.414s2.423 5.414 5.413 5.414zm0-1c-2.437 0-4.413-1.976-4.413-4.414s1.976-4.414 4.413-4.414 4.413 1.976 4.413 4.414-1.976 4.414-4.413 4.414z"/><use xlink:href="#I"/></g><circle cx="742.413" cy="147.414" r="1.609"/></g><g class="B H"><path d="M635.413 316.828c3 0 5.413-2.424 5.413-5.414S638.403 306 635.413 306 630 308.424 630 311.414s2.423 5.414 5.413 5.414zm0-1c-2.437 0-4.413-1.976-4.413-4.414s1.976-4.414 4.413-4.414 4.413 1.976 4.413 4.414-1.976 4.414-4.413 4.414z"/><use xlink:href="#I" x="-107" y="164"/><circle cx="635.413" cy="311.414" r="1.609"/></g><g class="I"><g class="B"><path d="M991.413 225.828c3 0 5.413-2.424 5.413-5.414S994.403 215 991.413 215 986 217.424 986 220.414s2.423 5.414 5.413 5.414zm0-1c-2.437 0-4.413-1.976-4.413-4.414s1.976-4.414 4.413-4.414 4.413 1.976 4.413 4.414-1.976 4.414-4.413 4.414z"/><use xlink:href="#I" x="249" y="73"/></g><circle cx="991.413" cy="220.414" r="1.609"/><g class="B"><path d="M791.413 198.828c3 0 5.413-2.424 5.413-5.414S794.403 188 791.413 188 786 190.424 786 193.414s2.423 5.414 5.413 5.414zm0-1c-2.437 0-4.413-1.976-4.413-4.414s1.976-4.414 4.413-4.414 4.413 1.976 4.413 4.414-1.976 4.414-4.413 4.414z"/><use xlink:href="#I" x="49" y="46"/></g><circle cx="791.413" cy="193.414" r="1.609"/></g><g class="F"><g class="B"><path d="M586.413 171.828c3 0 5.413-2.424 5.413-5.414S589.403 161 586.413 161 581 163.424 581 166.414s2.423 5.414 5.413 5.414zm0-1c-2.437 0-4.413-1.976-4.413-4.414s1.976-4.414 4.413-4.414 4.413 1.976 4.413 4.414-1.976 4.414-4.413 4.414z"/><use xlink:href="#I" x="-156" y="19"/></g><circle cx="586.413" cy="166.414" r="1.609"/></g><g class="I"><g class="B"><path d="M991.413 40.828c3 0 5.413-2.424 5.413-5.414S994.403 30 991.413 30 986 32.424 986 35.414s2.423 5.414 5.413 5.414zm0-1c-2.437 0-4.413-1.976-4.413-4.414S988.976 31 991.413 31s4.413 1.976 4.413 4.414-1.976 4.414-4.413 4.414z"/><use xlink:href="#I" x="249" y="-112"/></g><circle cx="991.413" cy="35.414" r="1.609"/></g><g class="F"><use xlink:href="#G" x="-92" y="64"/><use xlink:href="#H" x="-92" y="64"/><circle cx="803.429" cy="286.43" r="1.317"/></g><g class="I"><g class="B"><path d="M1149.413 236.828c3 0 5.413-2.424 5.413-5.414s-2.423-5.414-5.413-5.414-5.413 2.424-5.413 5.414 2.423 5.414 5.413 5.414zm0-1c-2.437 0-4.413-1.976-4.413-4.414s1.976-4.414 4.413-4.414 4.413 1.976 4.413 4.414-1.976 4.414-4.413 4.414z"/><use xlink:href="#I" x="407" y="84"/></g><circle cx="1149.413" cy="231.414" r="1.609"/></g><g fill="#ff5d8b"><g class="B"><use xlink:href="#G" x="-195" y="11"/><use xlink:href="#H" x="-195" y="11"/></g><circle cx="700.429" cy="233.43" r="1.317"/></g><g class="F"><path d="M639.43 92.86a4.43 4.43 0 0 0 4.429-4.43 4.43 4.43 0 0 0-4.429-4.43A4.43 4.43 0 0 0 635 88.43a4.43 4.43 0 0 0 4.429 4.43zm0-1A3.43 3.43 0 0 1 636 88.43a3.43 3.43 0 0 1 3.429-3.43 3.43 3.43 0 0 1 3.429 3.43 3.43 3.43 0 0 1-3.429 3.43z"/><use xlink:href="#H" x="-256" y="-134"/><circle cx="639.429" cy="88.43" r="1.317"/></g><g fill="#ff5d8b"><g class="B"><use xlink:href="#G" x="199" y="-114"/><use xlink:href="#H" x="199" y="-114"/></g><circle cx="1094.429" cy="108.43" r="1.317"/><g class="B"><use xlink:href="#G" x="39" y="30"/><use xlink:href="#H" x="39" y="30"/></g><circle cx="934.429" cy="252.43" r="1.317"/><g class="B"><path d="M787.413 105.828c3 0 5.413-2.424 5.413-5.414S790.403 95 787.413 95 782 97.424 782 100.414s2.423 5.414 5.413 5.414zm0-1c-2.437 0-4.413-1.976-4.413-4.414S784.976 96 787.413 96s4.413 1.976 4.413 4.414-1.976 4.414-4.413 4.414z"/><use xlink:href="#I" x="45" y="-47"/></g><circle cx="787.413" cy="100.414" r="1.609"/></g><g class="H"><g class="B"><path d="M913.413 125.828c3 0 5.413-2.424 5.413-5.414S916.403 115 913.413 115 908 117.424 908 120.414s2.423 5.414 5.413 5.414zm0-1c-2.437 0-4.413-1.976-4.413-4.414s1.976-4.414 4.413-4.414 4.413 1.976 4.413 4.414-1.976 4.414-4.413 4.414z"/><use xlink:href="#I" x="171" y="-27"/></g><circle cx="913.413" cy="120.414" r="1.609"/><g class="B"><use xlink:href="#G" x="-56" y="-73"/><use xlink:href="#H" x="-56" y="-73"/></g><circle cx="839.429" cy="149.43" r="1.317"/></g><g class="F"><use xlink:href="#G" x="-232" y="-30"/><use xlink:href="#H" x="-232" y="-30"/><circle cx="663.429" cy="192.43" r="1.317"/></g><g class="H"><g class="B"><use xlink:href="#G" x="186" y="80"/><use xlink:href="#H" x="186" y="80"/></g><circle cx="1081.429" cy="302.43" r="1.317"/></g><g transform="translate(1077 233)"><mask id="P" fill="#fff"><use xlink:href="#B"/></mask><use xlink:href="#B" class="J"/><g fill="#0e4fbb" class="E"><circle cx="25.5" cy="11.5" r="5.5"/><circle cx="18" cy="39" r="7"/><circle cx="53.5" cy="37.5" r="5.5"/><circle cx="33.5" cy="19.5" r="2.5"/><circle cx="39.5" cy="7.5" r="2.5"/><circle cx="31.5" cy="48.5" r="2.5"/></g><use fill="#000" style="mix-blend-mode:multiply" opacity=".313" xlink:href="#C"/><g class="B"><path d="M29.5 55C43.583 55 55 43.583 55 29.5S43.583 4 29.5 4 4 15.417 4 29.5 15.417 55 29.5 55zm0-1C15.97 54 5 43.03 5 29.5S15.97 5 29.5 5 54 15.97 54 29.5 43.03 54 29.5 54z" class="D"/><path d="M7.82 47.22C13.106 53.68 21 57.5 29.5 57.5a28.13 28.13 0 0 0 5.615-.563.5.5 0 1 1 .199.98 29.13 29.13 0 0 1-5.814.583c-8.813 0-16.98-3.956-22.455-10.647a.5.5 0 1 1 .774-.633zM57.51 24.2a.5.5 0 0 1 .577.409A29.19 29.19 0 0 1 58.5 29.5c0 12.518-8.004 23.504-19.67 27.466a.5.5 0 1 1-.322-.947C49.772 52.194 57.5 41.586 57.5 29.5a28.19 28.19 0 0 0-.398-4.734.5.5 0 0 1 .409-.577zM1 29a.5.5 0 0 1 .5.5c0 5.128 1.38 10.053 3.956 14.357a.5.5 0 0 1-.858.513C1.93 39.912.5 34.8.5 29.5A.5.5 0 0 1 1 29zM12.586 6.554a.5.5 0 0 1-.093.701A28 28 0 0 0 2.076 23.821a.5.5 0 0 1-.979-.202A29 29 0 0 1 11.885 6.461a.5.5 0 0 1 .701.093zM29.5.5c12.623 0 23.68 8.138 27.558 19.943a.5.5 0 1 1-.95.312C52.364 9.358 41.688 1.5 29.5 1.5a27.87 27.87 0 0 0-13.461 3.442.5.5 0 0 1-.481-.876A28.87 28.87 0 0 1 29.5.5z" fill="#2256ac"/></g></g><g transform="translate(803 213)"><mask id="Q" fill="#fff"><use xlink:href="#D"/></mask><use xlink:href="#D" class="J"/><circle fill="#0e4fbb" mask="url(#Q)" cx="11.024" cy="12.204" r="14.356"/><path d="M16 32c8.837 0 16-7.163 16-16S24.837 0 16 0 0 7.163 0 16s7.163 16 16 16zm0-1C7.716 31 1 24.284 1 16S7.716 1 16 1s15 6.716 15 15-6.716 15-15 15z" mask="url(#Q)" class="B D"/></g><g class="D"><g class="B"><use xlink:href="#J"/><use xlink:href="#J" x="435" y="-253"/></g><circle cx="873" cy="47" r="7"/></g><g transform="translate(849 69)"><path d="M178.832 0a25 25 0 0 1 24.995 25.007v66.768h1.086a1.08 1.08 0 0 1 1.08.964l.006.118v42.484c0 .556-.424 1.016-.968 1.075l-.118.006h-1.086v223.654c0 13.81-11.19 25.007-24.995 25.007H38.563a25 25 0 0 1-24.995-25.007V142.933h-.155a1.09 1.09 0 0 1-1.086-1.089v-26.037c0-.6.482-1.09 1.086-1.09l.155-.001v-7.13l-.155.001a1.09 1.09 0 0 1-1.086-1.089V80.462c0-.6.482-1.09 1.086-1.09l.155-.001V66.66h-.155c-.6 0-1.086-.485-1.086-1.095V53.184c0-.605.482-1.095 1.086-1.095l.155-.001v-27.08C13.567 11.196 24.76 0 38.563 0h140.27z" fill="#00112b"/><g class="B D"><path d="M1.242 38.598c0-14.363 11.64-26.007 25.995-26.007h140.27a26 26 0 0 1 25.995 26.007v65.768h.086c1.07 0 1.96.802 2.08 1.9l.008.17v42.484c0 1.065-.807 1.955-1.914 2.074l-.172.008h-.086v222.654c0 14.363-11.64 26.007-25.995 26.007H27.237a26 26 0 0 1-25.995-26.007v-216.3A2.09 2.09 0 0 1 0 155.436V129.4a2.09 2.09 0 0 1 1.241-1.912V122A2.09 2.09 0 0 1 0 120.09V94.053a2.09 2.09 0 0 1 1.241-1.912V81.074A2.09 2.09 0 0 1 0 79.157V66.775a2.1 2.1 0 0 1 1.24-1.918v-26.26zM167.506 13.6H27.237c-13.804 0-24.995 11.196-24.995 25.007L2.24 65.68h-.155c-.604 0-1.086.5-1.086 1.095v12.382c0 .6.486 1.095 1.086 1.095l.155-.001v12.712l-.155.001c-.604 0-1.086.487-1.086 1.1V120.1a1.09 1.09 0 0 0 1.086 1.089l.155-.001v7.13l-.155.001c-.604 0-1.086.487-1.086 1.1v26.037a1.09 1.09 0 0 0 1.086 1.089h.155v217.143a25 25 0 0 0 24.995 25.007h140.27c13.804 0 24.995-11.196 24.995-25.007V150.013h1.086l.118-.006c.544-.06.968-.52.968-1.075l-.006-42.602a1.08 1.08 0 0 0-1.08-.964H192.5V38.598a25 25 0 0 0-24.995-25.007zM51.467 23.917H30.25c-9.823 0-17.792 7.95-17.792 17.754v328.923c0 9.805 7.966 17.754 17.792 17.754H164.3c9.823 0 17.792-7.95 17.792-17.754V41.67c0-9.805-7.966-17.754-17.792-17.754h-21.216v7.34c0 3.313-2.7 6.004-5.998 6.004H57.464c-3.315 0-5.998-2.683-5.998-6.004v-7.34zm-1 1v6.34a7 7 0 0 0 6.998 7.004h79.613a7.01 7.01 0 0 0 6.998-7.004v-6.34h20.216c9.274 0 16.792 7.502 16.792 16.754v328.923c0 9.253-7.52 16.754-16.792 16.754H30.25c-9.274 0-16.792-7.502-16.792-16.754V41.67c0-9.253 7.52-16.754 16.792-16.754h20.216z"/></g><use xlink:href="#E" class="K"/><use xlink:href="#F" class="J"/><g class="B D"><path d="M118.8 29.315c1.178 0 2.133-.955 2.133-2.133s-.955-2.133-2.133-2.133-2.133.955-2.133 2.133.955 2.133 2.133 2.133zm0-1c-.626 0-1.133-.507-1.133-1.133s.507-1.133 1.133-1.133 1.133.507 1.133 1.133-.507 1.133-1.133 1.133zm-36.12-1.133a2.13 2.13 0 0 1 2.135-2.133h22.646a2.13 2.13 0 1 1 0 4.266H84.815a2.13 2.13 0 0 1-2.135-2.133zm1 0a1.13 1.13 0 0 0 1.135 1.133h22.646c.638 0 1.135-.507 1.135-1.133a1.13 1.13 0 0 0-1.135-1.133H84.815c-.638 0-1.135.507-1.135 1.133z"/></g></g><rect fill="#00235d" x="897" y="303" width="108" height="28" rx="4"/><g class="B"><path d="M897 299.5h100a4.5 4.5 0 0 1 4.5 4.5v20a4.5 4.5 0 0 1-4.5 4.5H897a4.5 4.5 0 0 1-4.5-4.5v-20a4.5 4.5 0 0 1 4.5-4.5zm0 1a3.5 3.5 0 0 0-3.5 3.5v20a3.5 3.5 0 0 0 3.5 3.5h100a3.5 3.5 0 0 0 3.5-3.5v-20a3.5 3.5 0 0 0-3.5-3.5H897z" fill="#0054de"/><path d="M897 317.5a.5.5 0 0 1 .492.41l.008.1v5.5h5.5a.5.5 0 0 1 .09.992l-.1.008h-6.5V318a.5.5 0 0 1 .5-.5zm88.193-12v17h-77v-17h77zm-38.597 8.76l-35.593 7.24h71.004l-35.41-7.24zm37.597-7.648l-35.097 7.14 35.097 7.176V306.61zm-75 .001v14.237l34.903-7.1-34.903-7.136zm70.533-.112h-66.09l32.962 6.74 33.13-6.74zm17.774-3v6.5a.5.5 0 0 1-.992.09l-.008-.1v-5.5H991a.5.5 0 0 1-.09-.992l.1-.008h6.5z" class="G"/></g><path fill="#0641a0" d="M971 228h30v30h-30z"/><g fill="#001f53" class="B"><path d="M976.5 233.5h19v19h-19v-19zm1 1v17h17v-17h-17z"/><path d="M976.68 234.38l17.967 17.973.707-.707-17.967-17.973z"/></g><path d="M992.5 236.5v4.5a.5.5 0 1 0 1 0v-5.5H988a.5.5 0 1 0 0 1h4.5z" class="B G"/><g class="L B"><path d="M959.5 228h53.262a.5.5 0 1 0 0-1H959.5a.5.5 0 1 0 0 1z"/><use xlink:href="#K"/><use xlink:href="#K" x="-31"/><path d="M959.82 259h53.262a.5.5 0 1 0 0-1H959.82a.5.5 0 1 0 0 1z"/></g><g class="G"><circle cx="1002" cy="228" r="2"/><circle cx="971" cy="228" r="2"/><circle cx="1002" cy="258" r="2"/><circle cx="971" cy="258" r="2"/></g><path fill="#043fa0" d="M887 216h55.765v55.765H887z"/><g class="B D"><path d="M876.465 216.047h77.147a.5.5 0 1 0 0-1h-77.147a.5.5 0 1 0 0 1zm.93 56.693h77.14a.5.5 0 1 0 0-1h-77.14a.5.5 0 1 0 0 1z"/><path d="M942.365 203.767v77.356a.5.5 0 1 0 1 0v-77.356a.5.5 0 1 0-1 0zm-56.175.163v77.354a.5.5 0 1 0 1 0V203.93a.5.5 0 1 0-1 0zm27.88 8.37v65.052a.5.5 0 1 0 1 0V212.3a.5.5 0 1 0-1 0z"/><path d="M945.817 212.406l-61.922 62.128a.5.5 0 1 0 .708.706l61.922-62.128a.5.5 0 0 0-.708-.706z"/><path d="M883.563 212.408l61.34 62.27a.5.5 0 1 1-.712.702l-61.34-62.27a.5.5 0 0 1 .712-.702z"/><path d="M882.622 244.86h63.897a.5.5 0 1 0 0-1h-63.897a.5.5 0 1 0 0 1z"/></g><g fill="#002259" class="B"><path d="M896 226h37v37h-37v-37zm1 1v35h35v-35h-35zm3 3h29v29h-29v-29zm1 1v27h27v-27h-27z"/></g><g fill="#a4c7ff"><circle cx="942.918" cy="216.012" r="1.859"/><circle cx="887.153" cy="216.012" r="1.859"/><circle cx="942.918" cy="271.777" r="1.859"/><circle cx="887.153" cy="271.777" r="1.859"/></g><g transform="matrix(-1 0 0 1 942 217)" fill="#66a0ff" class="B"><use xlink:href="#L" transform="matrix(-.707107 .707107 -.707107 -.707107 15.037908 5.183803)"/><use xlink:href="#L" transform="matrix(.707107 -.707107 .707107 .707107 39.559634 48.886062)"/></g><path fill="#47d797" d="M907.588 229l11.24 20.162 9.338-16.392H934l-15.172 27.275-11.933-21.482-8.3 14.672H894z"/><g fill="#fff"><path d="M899.373 253.23h3.62l5.753-9.835-1.795-3.053zm27.642-20.53h-4.87l-3.32 6.068-3.417-6.068h-4.7l8.108 14.552z"/></g><rect x="970" y="142" width="39" height="39" rx="6" class="K"/><rect fill="#0340a2" x="967" y="139" width="39" height="39" rx="6"/><path d="M973 139h27a6 6 0 0 1 6 6v27a6 6 0 0 1-6 6h-27a6 6 0 0 1-6-6v-27a6 6 0 0 1 6-6zm0 1a5 5 0 0 0-5 5v27a5 5 0 0 0 5 5h27a5 5 0 0 0 5-5v-27a5 5 0 0 0-5-5h-27z" class="B D"/><path fill="#11d285" d="M987.556 144.68h12v3.92h-12z"/><path fill="#54f7b6" d="M987.556 150.28h12v3.92h-12z"/><g fill="#002d75"><path d="M973.667 158.68h26v3h-26zm0 5.04h26v3h-26zm0 5.04h26v3h-26z"/></g><path d="M974.232 145.25h8.358v8.425h-8.358z" class="G"/><g class="B L"><path d="M972.14 145.61h12.778a.5.5 0 1 0 0-1H972.14a.5.5 0 1 0 0 1z"/><use xlink:href="#M"/><use xlink:href="#M" x="-8.637"/><path d="M972.23 154.315h12.778a.5.5 0 1 0 0-1H972.23a.5.5 0 1 0 0 1z"/></g><use xlink:href="#N" class="K"/><use xlink:href="#N" x="-4" y="-4" fill="#0340a2"/><path d="M892 127h45a6 6 0 0 1 6 6v45a6 6 0 0 1-6 6h-45a6 6 0 0 1-6-6v-45a6 6 0 0 1 6-6zm0 1a5 5 0 0 0-5 5v45a5 5 0 0 0 5 5h45a5 5 0 0 0 5-5v-45a5 5 0 0 0-5-5h-45z" class="B D"/><path fill="#ff7795" d="M914.488 135.485h20.882v5.8h-20.882z"/><path fill="#ffb2c3" d="M914.488 143.77h20.882v5.8h-20.882z"/><g fill="#002d75"><path d="M894.4 156.197h40.96v4H894.4zm0 7.456h40.96v4H894.4zm0 7.447h40.96v4H894.4z"/></g><g class="L"><path d="M892 135.5h19v1h-19zm0 13h19v1h-19z"/><path d="M895.5 133v19h-1v-19zm13 0v19h-1v-19z"/></g><path d="M901.5 135.5a7 7 0 1 1 0 14 7 7 0 1 1 0-14zm0 1a6 6 0 0 0-6 6c0 1.758.756 3.34 1.96 4.436l8.457-8.497c-1.097-1.192-2.67-1.94-4.417-1.94z" fill="#15bdf0" class="B"/></g><g fill="#095ee8" class="B C"><path d="M882.5 137v-7.76c0-2.718 2.773-5.74 5.27-5.74H894a.5.5 0 1 0 0-1h-6.23c-3.068 0-6.27 3.487-6.27 6.74V137a.5.5 0 1 0 1 0z"/><path d="M55 67.5v-7.76C55 57.02 57.773 54 60.27 54h6.23a.5.5 0 1 0 0-1h-6.23C57.2 53 54 56.487 54 59.74v7.76a.5.5 0 1 0 1 0z" transform="matrix(-1 0 0 -1 1002.5 243.5)"/></g></g></svg>