<svg height="471" viewBox="0 0 750 471" width="750" xmlns="http://www.w3.org/2000/svg"><g fill="none"><rect fill="#000" height="471" rx="40" width="750"/><path d="m204.25 439.38v-26c.366817-3.999636-.870658-7.981124-3.440063-11.068161s-6.260156-5.026614-10.259937-5.391839c-.782182-.06005-1.567818-.06005-2.35 0-5.856517-.230351-11.422987 2.55477-14.75 7.38-2.893439-4.850615-8.240672-7.69374-13.88-7.38-4.94393-.206891-9.662996 2.07568-12.57 6.08v-5.21h-8.24v41.64h8.24v-23.9c-.634601-5.327852 3.163533-10.163875 8.49-10.81.641693-.064969 1.288307-.064969 1.93 0 6.07 0 9.54 3.91 9.54 10.85v23.85h8.24v-23.89c-.640345-5.329462 3.160607-10.169074 8.49-10.81.638351-.064977 1.281649-.064977 1.92 0 6.07 0 9.54 3.91 9.54 10.85v23.85zm135.34-41.21h-15.18v-12.57h-8.25v12.57h-8.67v7.38h8.67v19.52c0 9.54 3.47 15.18 13.88 15.18 3.948566-.06387 7.821395-1.093878 11.28-3l-2.6-7.37c-2.338844 1.463063-5.051639 2.216811-7.81 2.17-3.339615.270822-6.26889-2.211236-6.55-5.55-.03848-.463678-.021695-.930286.05-1.39v-19.99h15.18zm77.21-1.3c-4.577046-.085272-8.861582 2.243115-11.28 6.13v-5.21h-8.24v41.64h8.24v-23.43c0-6.94 3.47-11.28 9.11-11.28 1.906565.078729 3.798334.370544 5.64.87l2.6-7.81c-1.986361-.512717-4.020613-.817688-6.07-.91zm-116.69 4.34c-5.076049-3.104627-10.966213-4.616355-16.91-4.34-10.41 0-16.92 4.78-16.92 13 0 6.94 4.77 10.84 13.88 12.14l4.34.44c4.77.86 7.81 2.6 7.81 4.77 0 3-3.47 5.2-10 5.2-4.976369.107205-9.851107-1.417029-13.88-4.34l-4.34 6.51c5.270568 3.487388 11.470817 5.303201 17.79 5.21 12.14 0 18.65-5.64 18.65-13.45s-5.21-10.84-14.32-12.15l-4.33-.43c-3.91-.43-7.38-1.73-7.38-4.34s3.47-5.2 8.24-5.2c4.533549.201211 8.969226 1.385196 13 3.47zm126.23 17.35c-.689446 11.284675 7.895764 20.993393 19.18 21.69.835918.050046 1.674082.050046 2.51 0 5.336268.280328 10.588345-1.41814 14.75-4.77l-4.34-6.48c-3.062336 2.500276-6.886727 3.879738-10.84 3.91-7.257842-.551405-12.865486-6.601242-12.865486-13.88s5.607644-13.328595 12.865486-13.88c3.953061.021804 7.779136 1.398344 10.84 3.9l4.34-6.51c-4.165199-3.369678-9.429715-5.079399-14.78-4.8-5.120602-.614636-10.275486.831744-14.328923 4.020472-4.053436 3.188729-6.672832 7.858163-7.281077 12.979528-.140385 1.268706-.15713 2.548054-.05 3.82zm-58.56-21.69c-12.14 0-20.38 8.68-20.38 21.69-.736606 11.230475 7.769614 20.932043 19 21.67.742795.039991 1.487205.039991 2.23 0 6.122117.130588 12.100659-1.86226 16.92-5.64l-4.34-6.07c-3.486602 2.699765-7.741976 4.219792-12.15 4.34-6.384265.226714-11.86236-4.509919-12.56-10.86h30.8v-3.47c0-12.98-7.81-21.66-19.52-21.66zm0 7.81c5.719868-.260108 10.570103 4.160585 10.84 9.88v.53h-22.55c.396666-6.089928 5.615532-10.729415 11.71-10.41zm-112.34 13.88v-20.82h-8.24v5.26c-3.224855-4.097126-8.243813-6.365919-13.45-6.08-11.979056 0-21.69 9.710944-21.69 21.69s9.710944 21.69 21.69 21.69c5.204415.288289 10.223037-1.976621 13.45-6.07v5.2h8.24zm-33.84 0c.478025-7.04526 6.492688-12.420579 13.547187-12.107154 7.0545.313425 12.568765 6.200963 12.420111 13.260856-.148654 7.059894-5.905858 12.710099-12.967298 12.726298-3.379123.080509-6.651736-1.185118-9.097419-3.518269-2.445682-2.33315-3.863946-5.542564-3.942581-8.921731-.016668-.480365-.003309-.961301.04-1.44zm320.56-21.69c-4.577046-.085272-8.861582 2.243115-11.28 6.13v-5.21h-8.24v41.64h8.24v-23.43c0-6.94 3.47-11.28 9.11-11.28 1.906492.079477 3.798178.37128 5.64.87l2.6-7.81c-1.986361-.512717-4.020613-.817688-6.07-.91zm66.84 36.44c.60902-.060747 1.220292.091188 1.73.43.44 0 .87.44 1.3.87s.87.87.87 1.3.44.87.44 1.74c.062093.610522-.093766 1.22333-.44 1.73-.43.44-.43.87-.87 1.3s-.86.87-1.3.87-.87.44-1.73.44c-.613714.062761-1.22989-.093054-1.74-.44-.43-.43-.87-.43-1.3-.87s-.87-.86-.87-1.3-.43-.86-.43-1.73c-.065683-.612516.086565-1.228588.43-1.74.44-.43.44-.86.87-1.3s.87-.87 1.3-.87 1.26-.43 1.74-.43zm0 7.37c.475731.057259.952245-.100357 1.3-.43.455198-.056172.813828-.414802.87-.87l.86-.86c0-.44.44-.87.44-1.31.053203-.477123-.107954-.953269-.44-1.3-.037611-.458484-.401516-.822389-.86-.86l-.87-.87c-.44 0-.87-.44-1.3-.44-.476971-.051802-.952539.109159-1.3.44-.465873.033574-.836426.404127-.87.87l-.87.86c0 .44-.43.87-.43 1.3-.058914.478914.098725.959163.43 1.31.060391.451303.418029.80483.87.86l.87.87c.346258.332137.823984.490154 1.3.43zm.43-4.77c.477581-.057534.955535.104235 1.3.44.44.43.44.43.44.86s0 .44-.44.87c-.231193.236282-.533114.390753-.86.44l1.3 1.3h-1.3l-1.31-1.3h-.43v1.3h-.87v-3.91zm-.87.44v.86h1.31v-.86zm-98.46-17.79v-20.82h-8.24v5.26c-3.224855-4.097126-8.243813-6.365919-13.45-6.08-11.979056 0-21.69 9.710944-21.69 21.69s9.710944 21.69 21.69 21.69c5.204415.288289 10.223037-1.976621 13.45-6.07v5.2h8.24zm-33.4 0c.478025-7.04526 6.492688-12.420579 13.547187-12.107154 7.0545.313425 12.568765 6.200963 12.420111 13.260856-.148654 7.059894-5.905858 12.710099-12.967298 12.726298-8.27.44-13.04-6.07-13.04-13.88zm117.55 0v-37.3h-8.25v21.74c-3.224855-4.097126-8.243813-6.365919-13.45-6.08-11.979056 0-21.69 9.710944-21.69 21.69s9.710944 21.69 21.69 21.69c5.213286.276456 10.233597-2.007879 13.45-6.12v5.2h8.24zm-33.83 0c.478025-7.04526 6.492688-12.420579 13.547187-12.107154 7.0545.313425 12.568765 6.200963 12.420111 13.260856-.148654 7.059894-5.905858 12.710099-12.967298 12.726298-3.386916.091322-6.6709-1.169183-9.126883-3.503212-2.455983-2.334028-3.881969-5.549613-3.963117-8.936788-.029951-.479533-.029951-.960467 0-1.44z" fill="#fff"/><path d="m290.57 81.96h150.52v245.51h-150.52z" fill="#ff5f00"/><path d="m306.19 204.71c.02573-47.831734 21.911462-93.028608 59.42-122.71-64.021464-50.3417237-155.981935-43.0277031-211.241066 16.8009306-55.2591308 59.8286334-55.2591308 152.0795054 0 211.9081384 55.259131 59.828634 147.219602 67.142655 211.241066 16.800931-37.53329-29.70099-59.421768-74.936687-59.42-122.8z" fill="#eb001b"/><path d="m603.32 301.44v-5.2h2.17v-.87h-5.21v.87h2.17v5.2zm10.41 0v-6.07h-1.73l-1.73 4.34-1.74-4.34h-1.73v6.07h1.3v-4.77l1.74 3.91h1.3l1.73-3.91v4.77zm4.77-96.73c-.060856 59.709335-34.166484 114.156523-87.863718 140.268119s-117.583884 19.315556-164.586282-17.508119c37.533624-29.681545 59.425493-74.90349 59.425493-122.755s-21.891869-93.073455-59.425493-122.755c47.002999-36.8141924 110.882952-43.6063166 164.57619-17.4987907 53.693237 26.107526 87.801299 80.5448427 87.87381 140.2487907z" fill="#f79e1b"/></g></svg>