<svg height="34" viewBox="0 0 34 34" width="34" xmlns="http://www.w3.org/2000/svg"><path d="m21.0197368 21.9333333h-1.6118421v-.9666666c0-.4333334.3289474-.7666667.756579-.7666667h.0986842c.4276316 0 .7565789.3333333.7565789.7666667zm-6.0855263-2.0333333c-.4276316 0-.7565789.2666667-.7565789.6333333v4.6666667c0 .3333333.3289473.6333333.7565789.6333333s.756579-.2666666.756579-.6333333v-4.6666667c0-.3666666-.3289474-.6333333-.756579-.6333333zm9.9013158-2.6v8.8333333c0 2.1333334-1.8092105 3.8666667-4.0460526 3.8666667h-16.57894738c-2.23684211 0-4.04605264-1.7333333-4.04605264-3.8666667v-8.8333333c0-2.1333333 1.80921053-3.8666667 4.04605264-3.8666667h16.61184208c2.2039474 0 4.0131579 1.7333334 4.0131579 3.8666667zm-19.53947367 9.8v-9.3333333h2.07236842v-1.3666667h-5.49342105v1.3666667h1.71052632v9.3333333zm6.18421057-7.9333333h-1.71052636v4.9666666c0 .7333334.03289474 1.0666667 0 1.2-.13157895.4-.75657895.8-1.01973684.0333334-.03289474-.1333334 0-.5333334 0-1.2v-5h-1.71052632v4.9333333c0 .7666667-.03289473 1.3333333 0 1.5666667.03289474.4666666.03289474.9666666.42763158 1.2666666.75657895.5666667 2.23684211-.1 2.63157894-.9v1.0333334h1.381579zm5.493421 5.7v-4.1333334c0-1.5666666-1.1513158-2.5333333-2.7631579-1.2333333v-3.0666667h-1.7105263v10.6333334l1.4144737-.0333334.1315789-.6666666c1.7763158 1.6666666 2.9276316.5 2.9276316-1.5zm5.3618421-.5333334h-1.2828947v.1666667.7333333c0 .4-.3289474.7-.6907895.7h-.2631579c-.3947368 0-.6907895-.3333333-.6907895-.7v-.0666666-.8333334-1h2.9605264v-1.1333333c0-.8333333-.0328948-1.6333333-.0986843-2.1-.1973684-1.5-2.2697368-1.7333333-3.3223684-.9666667-.3289473.2333334-.5592105.5666667-.7236842.9666667-.1315789.4333333-.2302631 1-.2302631 1.7666667v2.4666666c0 4.1 4.9342105 3.5333334 4.3421052 0zm-6.6118421-13.4333333c.0986842.2333333.2302632.4.4276316.5333333.1973684.1333334.4276316.2.6907895.2s.4605263-.0666666.6578947-.2c.1973684-.1333333.3618421-.3333333.4934211-.6333333l-.0328948.6666667h1.9078948v-8.23333337h-1.5131579v6.43333334c0 .33333333-.2960527.63333333-.625.63333333-.3289474 0-.625-.3-.625-.63333333v-6.43333334h-1.5789474v5.56666667c0 .7 0 1.16666667.0328947 1.4333333.0328948.2333334.0986842.4666667.1644737.6666667zm-5.78947367-4.63333333c0-.8.06578947-1.4.19736837-1.86666667.131579-.43333333.3618422-.8.6907895-1.06666667.3289474-.26666666.756579-.4 1.2828948-.4.4276315 0 .8223684.1 1.1513157.26666667.3289474.16666667.5592106.4.7236843.66666667.1644736.26666666.2960526.56666666.3618421.86666666.0657894.3.0986842.73333334.0986842 1.33333334v2.1c0 .76666666-.0328948 1.33333333-.0986842 1.7-.0657895.36666663-.1973685.70000003-.3618421 1.00000003-.1973685.3-.4276316.5333333-.7236843.7-.2960526.1333333-.6578947.2333333-1.0526315.2333333-.4276316 0-.7894737-.0666667-1.1184211-.2-.2960526-.1333333-.5263158-.3333333-.6907895-.5666667-.1644736-.2666666-.2960526-.5666666-.3618421-.9333333-.06578944-.36666667-.09868417-.9-.09868417-1.63333333zm1.51315787 3.26666666c0 .46666667.3289474.83333337.756579.83333337.4276315 0 .7565789-.3666667.7565789-.83333337v-4.4c0-.46666666-.3289474-.83333333-.7565789-.83333333-.4276316 0-.756579.36666667-.756579.83333333zm-5.29605261 2.19999997h1.80921053v-6.3333333l2.13815788-5.4h-1.9736842l-1.11842105 4.03333333-1.18421053-4.03333333h-1.94078947l2.26973684 5.43333333z" fill="#11f5ff" transform="translate(5 2)"/></svg>
