<?xml version="1.0" encoding="UTF-8" standalone="no"?>
<svg width="360px" height="294px" viewBox="0 0 360 294" version="1.1" xmlns="http://www.w3.org/2000/svg" xmlns:xlink="http://www.w3.org/1999/xlink">
    <!-- Generator: Sketch 50.2 (55047) - http://www.bohemiancoding.com/sketch -->
    <title>1_nativescript_core_pro</title>
    <desc>Created with Sketch.</desc>
    <defs>
        <rect id="path-1" x="0" y="0" width="360" height="294"></rect>
    </defs>
    <g id="1_nativescript_core_pro" stroke="none" stroke-width="1" fill="none" fill-rule="evenodd">
        <g id="nativescript_core_pro" transform="translate(0.000000, 1.000000)">
            <mask id="mask-2" fill="white">
                <use xlink:href="#path-1"></use>
            </mask>
            <use id="Mask" fill="#04317C" xlink:href="#path-1"></use>
            <g id="nativescript_core_pro_image" mask="url(#mask-2)">
                <g transform="translate(58.000000, 31.000000)">
                    <g id="circle_bg" transform="translate(34.000000, 21.000000)">
                        <path d="M163.648437,51.4031189 C154.1832,37.2794658 140.8675,25.9535755 125.203691,18.927801" id="line" stroke="#D55CFF"></path>
                        <path d="M164.676481,43.239527 C159.121728,36.030184 152.585754,29.6158275 145.268483,24.19638" id="line" stroke="#D55CFF"></path>
                        <circle id="circle_2" fill="#0C3E91" cx="88" cy="102" r="83"></circle>
                        <path d="M88,189.5 C39.6750844,189.5 0.5,150.324916 0.5,102 C0.5,53.6750844 39.6750844,14.5 88,14.5 C136.324916,14.5 175.5,53.6750844 175.5,102 C175.5,150.324916 136.324916,189.5 88,189.5 Z M88,188.5 C135.772631,188.5 174.5,149.772631 174.5,102 C174.5,54.2273691 135.772631,15.5 88,15.5 C40.2273691,15.5 1.5,54.2273691 1.5,102 C1.5,149.772631 40.2273691,188.5 88,188.5 Z" id="circle_1" fill="#0B49AF" fill-rule="nonzero"></path>
                        <rect id="rectangle" fill="#1550B1" transform="translate(143.500000, 127.500000) rotate(-315.000000) translate(-143.500000, -127.500000) " x="131" y="115" width="25" height="25"></rect>
                        <rect id="rectangle" fill="#1550B1" transform="translate(31.677670, 91.677670) rotate(-315.000000) translate(-31.677670, -91.677670) " x="19.1776695" y="79.1776695" width="25" height="25"></rect>
                        <rect id="rectangle" fill="#1148A3" transform="translate(24.677670, 120.838835) rotate(-315.000000) translate(-24.677670, -120.838835) " x="17.9484848" y="114.10965" width="13.4583694" height="13.4583694"></rect>
                        <rect id="rectangle" fill="#0C3F94" transform="translate(138.516504, 9.516504) rotate(-315.000000) translate(-138.516504, -9.516504) " x="131.78732" y="2.78731957" width="13.4583694" height="13.4583694"></rect>
                        <rect id="rectangle" fill="#1148A3" transform="translate(128.500000, 125.500000) rotate(-315.000000) translate(-128.500000, -125.500000) " x="111" y="108" width="35" height="35"></rect>
                        <path d="M18.0785236,134.209807 C23.7841312,147.263303 33.1970462,158.325844 44.9862432,166.066405" id="line" stroke="#FFDD97"></path>
                        <path d="M28.4674404,141.681845 C32.3525336,147.715825 37.1942235,153.075615 42.7781923,157.546898" id="line" stroke="#FFDD97"></path>
                    </g>
                    <g id="cup" transform="translate(74.000000, 53.000000)">
                        <g id="bottom" transform="translate(20.000000, 94.000000)">
                            <path d="M34,12 L48,18 L48,43 L52,43 L52,47 L5,47 L5,43 L9,43 L9,18 L23,12 L23,0 L34,0 L34,12 Z" id="light" fill="#FFDD97"></path>
                            <path d="M28,18 L25,12 L25,0 L34,0 L34,12 L47,18 L47,43 L36,43 L36,47 L30,47 L30,43 L28,43 L28,18 Z" id="medium" fill="#F1B1BA"></path>
                            <path d="M33,18 L28,12 L28,0 L34,0 L34,12 L48.0049796,18 L48,18 L48,43 L52,43 L52,47 L35,47 L35,43 L33,43 L33,18 Z" id="dark" fill="#E17FE1"></path>
                            <polygon id="line" fill="#D55CFF" fill-rule="nonzero" points="1.5 49.5 41 49.5 41 50.5 0.5 50.5 0.5 43 1.5 43"></polygon>
                            <polygon id="line" fill="#D55CFF" fill-rule="nonzero" points="5.67252265 34.6652918 4.67252265 34.6652918 4.67252265 15.5312645 16.9415015 10.6310657 17.3124097 11.5597352 5.67252265 16.2086763"></polygon>
                            <polygon id="line" fill="#FFDD97" fill-rule="nonzero" points="44.390588 30.173056 45.390588 30.173056 45.390588 41.2478517 44.390588 41.2478517"></polygon>
                            <polygon id="line" fill="#FFFFFF" fill-rule="nonzero" points="11.2098034 20.7380082 11.2098034 19.7380082 23.3789058 19.7380082 23.3789058 20.7380082"></polygon>
                            <rect id="shadow" fill="#C151C1" x="23" y="0" width="11" height="2"></rect>
                        </g>
                        <g id="arms" transform="translate(0.000000, 16.000000)">
                            <polygon id="arm_2" fill="#C151C1" points="78 0 97 0 97 30.487748 78 40 78 33.5677486 91.4553159 27.1577056 91.4553159 5.59762819 78 5.59762819"></polygon>
                            <polygon id="arm_1" fill="#C151C1" transform="translate(9.500000, 20.000000) scale(-1, 1) translate(-9.500000, -20.000000) " points="0 0 19 0 19 30.487748 0 40 0 33.5677486 13.4553159 27.1577056 13.4553159 5.59762819 0 5.59762819"></polygon>
                            <polygon id="line" fill="#E17FE1" fill-rule="nonzero" points="85 2.988571 85 2 95 2 95 14 94.0582407 14 94.0582407 2.988571"></polygon>
                        </g>
                        <g id="body" transform="translate(15.000000, 10.000000)">
                            <polygon id="light" fill="#FFDD97" points="28.389062 84.003571 4 60 4 0 63 0 63 60 38.5566018 84.003571"></polygon>
                            <path d="M46,0 C41.4333763,22.7195797 23.7488355,52.913032 4,60 C7.47081623,63.6958847 15.4708162,71.6958847 28,84 L39,84 L63,60 L63,0 C56.271439,3.25239835e-13 50.6047723,3.25239835e-13 46,0 Z" id="medium" fill="#F1B1BA"></path>
                            <path d="M52,0 C47.1394963,22.6620429 33.7225437,62.8298482 13.8920727,70.0378323 C17.4536097,73.5977944 22.1562522,78.2518503 28,84 L39,84 L63,60 L63,0 C60.1071384,0.0447452016 56.4404717,0.0447452016 52,0 Z" id="dark" fill="#E17FE1"></path>
                            <polygon id="line" fill="#FFFFFF" fill-rule="nonzero" points="7.4 15 6.6 15 6.6 5.6 16 5.6 16 6.4 7.4 6.4"></polygon>
                            <polygon id="line" fill="#D55CFF" fill-rule="nonzero" points="1.5 61.7932064 25.3539313 85.6982199 24.6460687 86.4045699 0.5 62.2067936 0.5 2 1.5 2"></polygon>
                            <polygon id="line" fill="#FFDD97" fill-rule="nonzero" points="58.7246416 58.8546781 59.425129 59.5683429 45.1678533 73.5623673 44.4673659 72.8487026"></polygon>
                            <polygon id="shadow" fill="#C151C1" transform="translate(33.500000, 1.500000) scale(1, -1) translate(-33.500000, -1.500000) " points="4 0 63 0 63 3 4 3"></polygon>
                        </g>
                        <g id="logo" transform="translate(26.000000, 25.000000)">
                            <rect id="circle_3" fill="#FFEFD0" x="3.52459016" y="0.6" width="36.9508197" height="36.8" rx="18.4"></rect>
                            <rect id="circle_2" fill="#FFBA2D" x="5.93442623" y="3" width="32.1311475" height="32" rx="16"></rect>
                            <path d="M21.9409836,5.1 C14.2642256,5.1 8.04098361,11.323242 8.04098361,19 C8.04098361,26.676758 14.2642256,32.9 21.9409836,32.9 L22.0590164,32.9 C29.7357744,32.9 35.9590164,26.676758 35.9590164,19 C35.9590164,11.323242 29.7357744,5.1 22.0590164,5.1 L21.9409836,5.1 Z M21.9409836,4.1 L22.0590164,4.1 C30.2880592,4.1 36.9590164,10.7709572 36.9590164,19 C36.9590164,27.2290428 30.2880592,33.9 22.0590164,33.9 L21.9409836,33.9 C13.7119408,33.9 7.04098361,27.2290428 7.04098361,19 C7.04098361,10.7709572 13.7119408,4.1 21.9409836,4.1 Z" id="circle_1" fill="#FFD178" fill-rule="nonzero"></path>
                            <path d="M40.1530562,30.2649005 L39.3057521,29.7337923 C41.3079991,26.5395052 42.3852459,22.8494456 42.3852459,19 L43.3852459,19 C43.3852459,23.0387457 42.2543385,26.9126172 40.1530562,30.2649005 Z" id="line" fill="#FFB2FF" fill-rule="nonzero"></path>
                            <path d="M3.97453887,7.53404676 L4.81585325,8.07459288 C2.73636262,11.3111444 1.6147541,15.0723229 1.6147541,19 L0.614754098,19 C0.614754098,14.8791542 1.79223279,10.9306218 3.97453887,7.53404676 Z" id="line" fill="#FFFFFF" fill-rule="nonzero"></path>
                            <path d="M31.0835649,18.5437965 C30.6846294,18.1485678 30.4772781,17.6526062 30.4608169,17.0559116 L30.4608169,12.8403363 C30.4481239,12.2436418 30.2424584,11.74689 29.8439195,11.3499825 C29.4452814,10.9526799 28.9460913,10.7482512 28.3470434,10.735709 L26.2336666,10.735709 L26.2336666,21.2658576 L17.7680614,10.7355115 L15.6542879,10.7355115 C15.0551408,10.7481525 14.5563474,10.9525811 14.1578085,11.3498837 C13.7588729,11.74689 13.553604,12.2436418 13.5410102,12.8401388 L13.5410102,17.0559116 C13.5244499,17.6526062 13.3170986,18.1485678 12.918163,18.5437965 C12.5195249,18.9385314 12.0207315,19.1442439 11.4216836,19.1606377 C12.0207315,19.1774265 12.5196241,19.383139 12.9180639,19.7778739 C13.3170986,20.1731026 13.5244499,20.6690643 13.5409111,21.2657589 L13.5409111,25.4813341 C13.553604,26.0775349 13.7588729,26.5747804 14.1578085,26.971688 C14.5564465,27.3686943 15.05524,27.5734192 15.6541887,27.5859615 L17.7680614,27.5859615 L17.7680614,17.0560103 L26.2336666,27.5862577 L28.3470434,27.5862577 C28.9460913,27.5736167 29.4453806,27.3687931 29.8439195,26.9718855 C30.2425576,26.5748792 30.4481239,26.0777324 30.4607177,25.4816304 L30.4607177,21.2658576 C30.4772781,20.669163 30.6846294,20.1732014 31.0835649,19.7779727 C31.482203,19.3832378 31.9809964,19.1775253 32.5800444,19.1607365 C31.9809964,19.1442439 31.4821039,18.9386302 31.0836641,18.5438953 L31.0835649,18.5437965 Z" id="Path" fill="#FFFFFF"></path>
                        </g>
                        <g id="top" transform="translate(8.000000, 0.000000)">
                            <rect id="light" fill="#FFDD97" x="4" y="3" width="72" height="7"></rect>
                            <rect id="dark" fill="#E17FE1" x="47" y="3" width="30" height="7"></rect>
                            <rect id="medium" fill="#F1B1BA" transform="translate(45.000000, 6.500000) scale(-1, 1) translate(-45.000000, -6.500000) " x="42" y="3" width="6" height="7"></rect>
                            <polygon id="line" fill="#FFFFFF" fill-rule="nonzero" points="6.12556642 6.41727305 6.12556642 5.41727305 28.6117929 5.41727305 28.6117929 6.41727305"></polygon>
                            <polygon id="line" fill="#D55CFF" fill-rule="nonzero" points="1.24469715 1.01702058 1.24469715 7.69101006 0.244697147 7.69101006 0.244697147 0.0170205786 34.6913306 0.0170205786 34.6913306 1.01702058"></polygon>
                        </g>
                    </g>
                    <g id="star" transform="translate(99.000000, 0.000000)">
                        <path d="M23,45.5 C10.5735931,45.5 0.5,35.4264069 0.5,23 C0.5,10.5735931 10.5735931,0.5 23,0.5 C35.4264069,0.5 45.5,10.5735931 45.5,23 C45.5,35.4264069 35.4264069,45.5 23,45.5 Z M23,44.5 C34.8741221,44.5 44.5,34.8741221 44.5,23 C44.5,11.1258779 34.8741221,1.5 23,1.5 C11.1258779,1.5 1.5,11.1258779 1.5,23 C1.5,34.8741221 11.1258779,44.5 23,44.5 Z" id="Oval-2" fill="#736C98" fill-rule="nonzero"></path>
                        <path d="M23,41.5 C12.7827321,41.5 4.5,33.2172679 4.5,23 C4.5,12.7827321 12.7827321,4.5 23,4.5 C33.2172679,4.5 41.5,12.7827321 41.5,23 C41.5,33.2172679 33.2172679,41.5 23,41.5 Z M23,40.5 C32.6649831,40.5 40.5,32.6649831 40.5,23 C40.5,13.3350169 32.6649831,5.5 23,5.5 C13.3350169,5.5 5.5,13.3350169 5.5,23 C5.5,32.6649831 13.3350169,40.5 23,40.5 Z" id="Oval-2" fill="#FFDD97" fill-rule="nonzero"></path>
                        <polygon id="Path-10" fill="#FFDD97" points="22.9968584 10.0227623 26.7404633 17.5123444 34.9963635 18.786893 29.0540995 24.7046259 30.4145355 33.0069427 22.9968584 29.13591 15.5792694 33.0069427 16.9402771 24.7046259 10.9991455 18.786893 19.2580566 17.5123444"></polygon>
                    </g>
                    <g id="lines_2" transform="translate(219.000000, 117.000000) scale(-1, 1) translate(-219.000000, -117.000000) translate(194.000000, 48.000000)">
                        <polygon id="Path-14" fill="#185AC8" fill-rule="nonzero" points="49.8931516 130.51155 50.1068484 131.48845 18.1068484 138.48845 17.8931516 137.51155"></polygon>
                        <polygon id="Path-15" fill="#1E61D0" fill-rule="nonzero" points="42.9688109 122.500974 43.0311891 123.499026 11.0311891 125.499026 10.9688109 124.500974"></polygon>
                        <polygon id="Path-16" fill="#2265D4" fill-rule="nonzero" points="39 112.5 39 113.5 5 113.5 5 112.5"></polygon>
                        <polygon id="Path-17" fill="#276BDB" fill-rule="nonzero" points="34.0639857 103.504111 33.9360143 104.495889 2.93601433 100.495889 3.06398567 99.5041111"></polygon>
                        <polygon id="Path-18" fill="#2A6EDF" fill-rule="nonzero" points="32.1394051 93.5198269 31.8605949 94.4801731 0.860594903 85.4801731 1.1394051 84.5198269"></polygon>
                        <polygon id="Path-19" fill="#2F73E4" fill-rule="nonzero" points="30.1988037 83.5412222 29.8011963 84.4587778 -0.198803719 71.4587778 0.198803719 70.5412222"></polygon>
                        <polygon id="Path-20" fill="#367BEE" fill-rule="nonzero" points="28.6008916 64.5859803 27.9213342 65.3196026 4.7617814 43.8668112 5.44133883 43.1331888"></polygon>
                        <polygon id="Path-20" fill="#3176E8" fill-rule="nonzero" points="29.2773501 74.5839749 28.7226499 75.4160251 1.7226499 57.4160251 2.2773501 56.5839749"></polygon>
                        <polygon id="Path-21" fill="#3A7FF3" fill-rule="nonzero" points="32.3889706 54.6858314 31.6110294 55.3141686 10.6110294 29.3141686 11.3889706 28.6858314"></polygon>
                        <polygon id="Path-22" fill="#3F84F8" fill-rule="nonzero" points="35.4389478 43.7605739 34.5610522 44.2394261 16.5610522 11.2394261 17.4389478 10.7605739"></polygon>
                        <polygon id="Path-23" fill="#4389FE" fill-rule="nonzero" points="40.4652042 32.8167377 39.5347958 33.1832623 26.5347958 0.183262259 27.4652042 -0.183262259"></polygon>
                    </g>
                    <g id="lines_1" transform="translate(0.000000, 48.000000)">
                        <polygon id="Path-14" fill="#185AC8" fill-rule="nonzero" points="49.4821443 130.510431 49.6853367 131.489569 18.1015962 138.043875 17.8984038 137.064736"></polygon>
                        <polygon id="Path-15" fill="#1E61D0" fill-rule="nonzero" points="43.2418272 122.501249 43.3124724 123.498751 11.0353226 125.784688 10.9646774 124.787187"></polygon>
                        <polygon id="Path-16" fill="#2265D4" fill-rule="nonzero" points="39.0281599 112.5 39.0281599 113.5 5 113.5 5 112.5"></polygon>
                        <polygon id="Path-17" fill="#276BDB" fill-rule="nonzero" points="34.0502611 103.226062 33.9249811 104.218183 3.17342364 100.335034 3.29870367 99.3429125"></polygon>
                        <polygon id="Path-18" fill="#2A6EDF" fill-rule="nonzero" points="32.5601188 93.6535808 32.2936282 94.6174183 0.818928984 85.9150045 1.08541963 84.951167"></polygon>
                        <polygon id="Path-19" fill="#2F73E4" fill-rule="nonzero" points="30.3436684 83.51643 29.9438547 84.4330264 0.198533001 71.4582982 0.598346768 70.5417018"></polygon>
                        <polygon id="Path-20" fill="#367BEE" fill-rule="nonzero" points="28.9993315 64.5859803 28.3197741 65.3196026 5.16022128 43.8668112 5.83977872 43.1331888"></polygon>
                        <polygon id="Path-20" fill="#3176E8" fill-rule="nonzero" points="28.5231729 74.1184168 27.9641043 74.9475382 1.22046571 56.9145607 1.77953429 56.0854393"></polygon>
                        <polygon id="Path-21" fill="#3A7FF3" fill-rule="nonzero" points="32.6096921 55.0476295 31.8249584 55.6674626 11.0060731 29.3099166 11.7908067 28.6900834"></polygon>
                        <polygon id="Path-22" fill="#3F84F8" fill-rule="nonzero" points="36.0469277 43.837269 35.170906 44.3195406 16.960429 11.2411358 17.8364508 10.7588642"></polygon>
                        <polygon id="Path-23" fill="#4389FE" fill-rule="nonzero" points="40.4792274 33.2880641 39.5434857 33.6407502 26.930569 0.17634306 27.8663107 -0.17634306"></polygon>
                    </g>
                </g>
            </g>
        </g>
    </g>
</svg>