<?xml version="1.0" encoding="UTF-8"?>
<svg width="360px" height="294px" viewBox="0 0 360 294" version="1.1" xmlns="http://www.w3.org/2000/svg" xmlns:xlink="http://www.w3.org/1999/xlink">
    <!-- Generator: Sketch 52.6 (67491) - http://www.bohemiancoding.com/sketch -->
    <title>15_nativescript_vue_vuex</title>
    <desc>Created with Sketch.</desc>
    <defs>
        <rect id="path-1" x="0" y="0" width="360" height="294"></rect>
    </defs>
    <g id="15_nativescript_vue_vuex" stroke="none" stroke-width="1" fill="none" fill-rule="evenodd">
        <g id="nativescript_vue_vuex">
            <mask id="mask-2" fill="white">
                <use xlink:href="#path-1"></use>
            </mask>
            <use id="Mask" fill="#04317C" xlink:href="#path-1"></use>
            <g id="nativescript_vue_vuex_image" transform="translate(82.000000, 66.000000)">
                <g id="circle_bg">
                    <circle id="circle_2" fill="#0C3E91" cx="98" cy="88" r="83"></circle>
                    <path d="M98,175.5 C49.6750844,175.5 10.5,136.324916 10.5,88 C10.5,39.6750844 49.6750844,0.5 98,0.5 C146.324916,0.5 185.5,39.6750844 185.5,88 C185.5,136.324916 146.324916,175.5 98,175.5 Z M98,174.5 C145.772631,174.5 184.5,135.772631 184.5,88 C184.5,40.2273691 145.772631,1.5 98,1.5 C50.2273691,1.5 11.5,40.2273691 11.5,88 C11.5,135.772631 50.2273691,174.5 98,174.5 Z" id="circle_1" fill="#0B49AF" fill-rule="nonzero"></path>
                    <rect id="rectangle" fill="#1550B1" transform="translate(185.677670, 82.677670) rotate(-315.000000) translate(-185.677670, -82.677670) " x="173.17767" y="70.1776695" width="25" height="25"></rect>
                    <rect id="rectangle" fill="#073581" transform="translate(161.748737, 91.748737) rotate(-315.000000) translate(-161.748737, -91.748737) " x="144.248737" y="74.2487373" width="35" height="35"></rect>
                    <rect id="rectangle" fill="#1550B1" transform="translate(13.677670, 91.435029) rotate(-315.000000) translate(-13.677670, -91.435029) " x="4.17766953" y="81.9350288" width="19" height="19"></rect>
                    <rect id="rectangle" fill="#023386" transform="translate(29.516504, 87.001786) rotate(-315.000000) translate(-29.516504, -87.001786) " x="16.7873196" y="74.2726009" width="25.4583694" height="25.4583694"></rect>
                </g>
                <polygon id="blue_shape" fill="#256DE5" points="87.7591715 62 106.586401 95.7708461 146.620599 25.351357 153.720727 29.5074505 106.586401 114 86.5988184 78.0173107 46.978181 147.968067 41.6030598 144.540538"></polygon>
                <g id="bg_element" transform="translate(42.000000, 4.000000)">
                    <polygon id="Path-7" fill="#0D68FF" fill-rule="nonzero" points="9.34770414 4.46142857 10.223892 3.97945875 98.5202705 164.496175 97.6440827 164.978145"></polygon>
                    <polygon id="Path-7" fill="#0D68FF" fill-rule="nonzero" points="11.3477325 2.4614801 12.2238636 1.97940722 100.922173 163.181899 100.046042 163.663972"></polygon>
                    <polygon id="Path" fill="#0D68FF" fill-rule="nonzero" points="2.54512663 7.46389549 3.4234693 6.98586395 39.0199411 72.3913804 38.1415984 72.8694119"></polygon>
                    <polygon id="Path" fill="#5896FD" fill-rule="nonzero" points="0.278892391 8.73788145 1.15846596 8.26211855 37.9397868 76.2621185 37.0602132 76.7378815"></polygon>
                    <polygon id="Path" fill="#0D68FF" fill-rule="nonzero" points="4.75515382 6.42863643 40.2740869 70.968937 41.150178 70.4867914 5.63124493 5.94649084"></polygon>
                    <path d="M58.9231619,174.912126 L57.6289023,-7.68980625 L51.0706078,-7.65896134 L52.1326724,174.922363 L58.9231619,174.912126 Z M58.6218064,-8.69448713 L59.9302641,175.910609 L51.1384812,175.923863 L50.0648014,-8.6542419 L58.6218064,-8.69448713 Z" id="Path" fill="#5896FD" fill-rule="nonzero" transform="translate(54.997533, 83.614688) rotate(-28.300000) translate(-54.997533, -83.614688) "></path>
                    <polygon id="Path-8" fill="#5896FD" fill-rule="nonzero" points="0.569935493 9.25716618 0.0959659905 8.37662492 7.37406828 4.45903619 7.84803778 5.33957745"></polygon>
                    <polygon id="Path" fill="#0D68FF" fill-rule="nonzero" points="68.5608287 96.2390158 69.4391713 95.7609842 105.035643 161.166501 104.1573 161.644532"></polygon>
                    <polyline id="Path" stroke="#5896FD" points="73.1922667 93.453364 109.060118 158.70965 102.414876 162.327667"></polyline>
                    <polygon id="Path" fill="#0D68FF" fill-rule="nonzero" points="71.4380456 94.7589272 106.956979 159.299228 106.080887 159.781373 70.5619544 95.2410728"></polygon>
                    <path d="M7.74289363,21.9370385 L7.25710637,21.0629615 L21.1124454,13.3625567 L21.5982327,14.2366338 L7.74289363,21.9370385 Z M14.7308664,34.9435095 L14.2691336,34.0564905 L28.6771246,26.5564905 L29.1388574,27.4435095 L14.7308664,34.9435095 Z M21.2327875,46.7590581 L20.7672125,45.8740497 L34.6752035,38.5574958 L35.1407785,39.4425042 L21.2327875,46.7590581 Z M27.7943002,58.9430963 L27.3309831,58.0569037 L41.6763325,50.5569037 L42.1396495,51.4430963 L27.7943002,58.9430963 Z M69.2400395,118.124801 L68.7599605,117.247576 L82.2179503,109.882423 L82.6980293,110.759648 L69.2400395,118.124801 Z M76.2378748,131.125979 L75.7621252,130.246398 L89.2651529,122.94285 L89.7409025,123.822431 L76.2378748,131.125979 Z M83.2377077,143.126069 L82.7622923,142.246308 L96.0403733,135.070947 L96.5157887,135.950709 L83.2377077,143.126069 Z M89.238195,155.125805 L88.761805,154.246571 L102.438895,146.835998 L102.915285,147.715232 L89.238195,155.125805 Z" id="yellow_lines" fill="#FFE2A4" fill-rule="nonzero"></path>
                </g>
                <g id="element" transform="translate(97.000000, 8.000000)">
                    <rect id="shape" fill="#256DE5" transform="translate(39.125380, 42.015190) rotate(-60.000000) translate(-39.125380, -42.015190) " x="35.1253803" y="15.5151903" width="8" height="53"></rect>
                    <path d="M40,81.5 C18.1847524,81.5 0.5,63.8152476 0.5,42 C0.5,20.1847524 18.1847524,2.5 40,2.5 C61.8152476,2.5 79.5,20.1847524 79.5,42 C79.5,63.8152476 61.8152476,81.5 40,81.5 Z M40,80.5 C61.2629629,80.5 78.5,63.2629629 78.5,42 C78.5,20.7370371 61.2629629,3.5 40,3.5 C18.7370371,3.5 1.5,20.7370371 1.5,42 C1.5,63.2629629 18.7370371,80.5 40,80.5 Z" id="Oval" fill="#5C99FF" fill-rule="nonzero"></path>
                    <path d="M16.8760741,37.7903606 L17.860106,37.9683528 C17.6211665,39.2893334 17.5,40.6368249 17.5,42 C17.5,47.9355906 19.8078044,53.506152 23.8617876,57.67829 L23.1445984,58.3751684 C18.9110349,54.0182163 16.5,48.1984778 16.5,42 C16.5,40.5770674 16.6265227,39.1700089 16.8760741,37.7903606 Z M35.2658682,65.0228592 L35.4662834,64.0431482 C36.9469579,64.3460432 38.4634121,64.5 40,64.5 C45.8189026,64.5 51.2886464,62.2825587 55.4365066,58.3696987 L56.122707,59.0971112 C51.7910567,63.1833485 46.0765921,65.5 40,65.5 C38.3959981,65.5 36.8124008,65.3392265 35.2658682,65.0228592 Z M62.8564749,47.4844176 L61.8838873,47.2518806 C62.2918774,45.54546 62.5,43.7865336 62.5,42 C62.5,36.0444147 60.1765278,30.4566224 56.0982103,26.2806462 L56.813633,25.5819543 C61.0726005,29.9429063 63.5,35.7806368 63.5,42 C63.5,43.864998 63.2826431,45.7019665 62.8564749,47.4844176 Z M46.094749,19.2981832 L45.8360547,20.2641425 C43.9486282,19.7586694 41.9916632,19.5 40,19.5 C33.9576037,19.5 28.2951515,21.8921213 24.103612,26.0765942 L23.3971021,25.3688911 C27.7742717,20.999101 33.6899582,18.5 40,18.5 C42.0792077,18.5 44.123136,18.7701641 46.094749,19.2981832 Z" id="Shape" fill="#FFD783" fill-rule="nonzero"></path>
                    <path d="M40,79 C19.5654643,79 3,62.4345357 3,42 C3,21.5654643 19.5654643,5 40,5 C60.4345357,5 77,21.5654643 77,42 C77,62.4345357 60.4345357,79 40,79 Z M40,67 C53.8071187,67 65,55.8071187 65,42 C65,28.1928813 53.8071187,17 40,17 C26.1928813,17 15,28.1928813 15,42 C15,55.8071187 26.1928813,67 40,67 Z" id="Combined-Shape" fill="#C151C1"></path>
                    <path d="M40,67 C53.8071187,67 65,55.8071187 65,42 C65,28.1928813 53.8071187,17 40,17 C26.1928813,17 15,28.1928813 15,42 C15,55.8071187 26.1928813,67 40,67 Z M40,68 C25.6405965,68 14,56.3594035 14,42 C14,27.6405965 25.6405965,16 40,16 C54.3594035,16 66,27.6405965 66,42 C66,56.3594035 54.3594035,68 40,68 Z" id="Oval" fill="#B120B1" fill-rule="nonzero"></path>
                    <path d="M40,78 C59.882251,78 76,61.882251 76,42 C76,22.117749 59.882251,6 40,6 C20.117749,6 4,22.117749 4,42 C4,61.882251 20.117749,78 40,78 Z M40,79 C19.5654643,79 3,62.4345357 3,42 C3,21.5654643 19.5654643,5 40,5 C60.4345357,5 77,21.5654643 77,42 C77,62.4345357 60.4345357,79 40,79 Z" id="Oval" fill="#E98FE9" fill-rule="nonzero"></path>
                    <g id="centre" transform="translate(27.000000, 29.000000)">
                        <circle id="Oval" fill="#FFFFFF" cx="13" cy="13" r="13"></circle>
                        <path d="M13,24 C19.0751322,24 24,19.0751322 24,13 C24,6.92486775 19.0751322,2 13,2 C6.92486775,2 2,6.92486775 2,13 C2,19.0751322 6.92486775,24 13,24 Z M13,25 C6.372583,25 1,19.627417 1,13 C1,6.372583 6.372583,1 13,1 C19.627417,1 25,6.372583 25,13 C25,19.627417 19.627417,25 13,25 Z" id="Oval" fill="#C1D8FF" fill-rule="nonzero"></path>
                        <path d="M10.9481964,13.3731543 L10.0692335,12.8962642 C10.737707,11.6641911 11.0927404,10.2827585 11.0927404,8.84887504 C11.0927404,5.74291676 9.41303086,2.9315925 6.75479605,1.43574651 L7.24520395,0.564253487 C10.2151396,2.23550023 12.0927404,5.37803451 12.0927404,8.84887504 C12.0927404,10.4503656 11.6956157,11.995575 10.9481964,13.3731543 Z" id="Path" fill="#73FFC0" fill-rule="nonzero" transform="translate(9.423768, 6.968704) scale(-1, 1) rotate(-45.000000) translate(-9.423768, -6.968704) "></path>
                        <path d="M14.5,18 L15.5,18 C15.5,19.9516049 16.1590697,21.8011343 17.3503163,23.2950477 L16.5684569,23.9185024 C15.2372213,22.2490323 14.5,20.1801881 14.5,18 Z" id="Path" fill="#37DE93" fill-rule="nonzero" transform="translate(15.925158, 20.959251) rotate(-90.000000) translate(-15.925158, -20.959251) "></path>
                        <circle id="Oval" fill="#6DFDBC" cx="13" cy="13" r="7"></circle>
                        <circle id="Oval" fill="#14CC79" cx="13" cy="13" r="4"></circle>
                    </g>
                    <g id="elements_group" transform="translate(56.716498, 16.060974) rotate(31.000000) translate(-56.716498, -16.060974) translate(51.216498, 12.060974)">
                        <polygon id="Path-2" fill="#FF71FF" fill-rule="nonzero" points="0.5 1.5 0.5 0.5 8 0.5 8 1.5"></polygon>
                        <circle id="Oval" fill="#55F6AE" cx="10" cy="1" r="1"></circle>
                        <circle id="Oval" fill="#FFD783" cx="10" cy="4" r="1"></circle>
                        <circle id="Oval" fill="#FFFFFF" cx="10" cy="7" r="1"></circle>
                        <polygon id="Path-2" fill="#FFE2A4" fill-rule="nonzero" points="0.5 4.5 0.5 3.5 8 3.5 8 4.5"></polygon>
                        <polygon id="Path-2" fill="#FFD4FF" fill-rule="nonzero" points="0.5 7.5 0.5 6.5 8 6.5 8 7.5"></polygon>
                    </g>
                    <g id="elements_group" transform="translate(14.214102, 25.763140) rotate(-60.000000) translate(-14.214102, -25.763140) translate(8.714102, 21.763140)">
                        <polygon id="Path-2" fill="#FF71FF" fill-rule="nonzero" points="0.5 1.5 0.5 0.5 8 0.5 8 1.5"></polygon>
                        <circle id="Oval" fill="#FFD783" cx="10" cy="1" r="1"></circle>
                        <circle id="Oval" fill="#79E0FF" cx="10" cy="4" r="1"></circle>
                        <circle id="Oval" fill="#FFFFFF" cx="10" cy="7" r="1"></circle>
                        <polygon id="Path-2" fill="#F99DF9" fill-rule="nonzero" points="0.5 4.5 0.5 3.5 8 3.5 8 4.5"></polygon>
                        <polygon id="Path-2" fill="#FFE2A4" fill-rule="nonzero" points="0.5 7.5 0.5 6.5 8 6.5 8 7.5"></polygon>
                    </g>
                    <g id="elements_group" transform="translate(66.214102, 57.763140) scale(-1, -1) rotate(-60.000000) translate(-66.214102, -57.763140) translate(60.714102, 53.763140)">
                        <polygon id="Path-2" fill="#FFE2A4" fill-rule="nonzero" points="0.5 1.5 0.5 0.5 8 0.5 8 1.5"></polygon>
                        <circle id="Oval" fill="#55F6AE" cx="10" cy="1" r="1"></circle>
                        <circle id="Oval" fill="#FFD783" cx="10" cy="4" r="1"></circle>
                        <circle id="Oval" fill="#79E0FF" cx="10" cy="7" r="1"></circle>
                        <polygon id="Path-2" fill="#F99DF9" fill-rule="nonzero" points="0.5 4.5 0.5 3.5 8 3.5 8 4.5"></polygon>
                        <polygon id="Path-2" fill="#FFD4FF" fill-rule="nonzero" points="0.5 7.5 0.5 6.5 8 6.5 8 7.5"></polygon>
                    </g>
                    <g id="blue_lines" transform="translate(20.000000, 23.000000)" fill="#72A7FF" fill-rule="nonzero">
                        <polygon id="Path-3" points="31.3089716 29.3877619 31.8163117 28.526016 39.25367 32.9046498 38.74633 33.7663957"></polygon>
                        <polygon id="Path-3" points="0.746329966 6.43087297 1.25367003 5.56912703 8.69102838 9.94776085 8.18368831 10.8095068"></polygon>
                        <polygon id="Path-3" points="33.0694818 0.245728389 33.9305182 0.754271611 29.8678766 7.63290543 29.0068401 7.1243622"></polygon>
                        <polygon id="Path-3" points="11.0694818 29.2457284 11.9305182 29.7542716 7.86787658 36.6329054 7.00684012 36.1243622"></polygon>
                    </g>
                    <g id="lines" transform="translate(7.000000, 9.000000)" fill="#F99DF9" fill-rule="nonzero">
                        <polygon id="Path-4" points="42.4283945 7.37442542 41.5716055 6.85875843 45.6570429 0.0707376524 46.513832 0.58640464"></polygon>
                        <polygon id="Path-4" points="22.1793894 66.593821 21.2964786 66.1242802 25.1404839 58.8961246 26.0233947 59.3656654"></polygon>
                        <polygon id="Path-5" points="7.24466959 24.5639532 6.75533041 25.4360468 0.286410341 21.8062801 0.775749528 20.9341866"></polygon>
                        <polygon id="Path-5" points="66.7135897 44.1937199 66.2242505 45.0658134 59.7553304 41.4360468 60.2446696 40.5639532"></polygon>
                    </g>
                    <g id="lines" transform="translate(40.500000, 42.000000) rotate(-270.000000) translate(-40.500000, -42.000000) translate(4.000000, 23.000000)" fill-rule="nonzero">
                        <path d="M6.25494946,37.4301172 L5.74505054,36.5698828 L13.1927977,32.1552738 L13.7026966,33.0155081 L6.25494946,37.4301172 Z M59.4355265,5.90763764 L58.9256276,5.04740332 L66.4795106,0.569882838 L66.9894095,1.43011716 L59.4355265,5.90763764 Z" id="Shape" fill="#FFC54C"></path>
                        <path d="M1.04210345,22.4982241 L0.957896551,21.5017759 L9.87217683,20.7484564 L9.95638372,21.7449047 L1.04210345,22.4982241 Z M63.2306014,17.2428581 L63.1463945,16.2464098 L71.9578966,15.5017759 L72.0421034,16.4982241 L63.2306014,17.2428581 Z" id="Shape" fill="#FFE2A4"></path>
                    </g>
                    <path d="M53.521241,1.14418671 L54.478759,0.855813295 C58.4756751,14.1272145 68.7955753,24.6820204 81.9637142,28.9862668 L81.6530224,29.9367775 C68.1741112,25.5309496 57.6125372,14.7289687 53.521241,1.14418671 Z" id="Path" fill="#E98FE9" fill-rule="nonzero" transform="translate(67.742478, 15.396295) scale(-1, -1) translate(-67.742478, -15.396295) "></path>
                </g>
                <g id="element" transform="translate(16.000000, 82.000000)">
                    <rect id="shape" fill="#256DE5" transform="translate(41.125380, 39.015190) rotate(-60.000000) translate(-41.125380, -39.015190) " x="37.1253803" y="12.5151904" width="8" height="53"></rect>
                    <path d="M42,79.5 C20.1847524,79.5 2.5,61.8152476 2.5,40 C2.5,18.1847524 20.1847524,0.5 42,0.5 C63.8152476,0.5 81.5,18.1847524 81.5,40 C81.5,61.8152476 63.8152476,79.5 42,79.5 Z M42,78.5 C63.2629629,78.5 80.5,61.2629629 80.5,40 C80.5,18.7370371 63.2629629,1.5 42,1.5 C20.7370371,1.5 3.5,18.7370371 3.5,40 C3.5,61.2629629 20.7370371,78.5 42,78.5 Z" id="Oval" fill="#5C99FF" fill-rule="nonzero"></path>
                    <path d="M0.341820709,52.5631599 L1.29933874,52.2747865 C5.29625482,65.5461876 15.616155,76.1009936 28.7842939,80.40524 L28.4736021,81.3557507 C14.9946909,76.9499228 4.43311694,66.1479419 0.341820709,52.5631599 Z" id="Path" fill="#E98FE9" fill-rule="nonzero"></path>
                    <path d="M18.8760741,35.7903606 L19.860106,35.9683528 C19.6211665,37.2893334 19.5,38.6368249 19.5,40 C19.5,45.9355906 21.8078044,51.506152 25.8617876,55.67829 L25.1445984,56.3751684 C20.9110349,52.0182163 18.5,46.1984778 18.5,40 C18.5,38.5770674 18.6265227,37.1700089 18.8760741,35.7903606 Z M37.2658682,63.0228592 L37.4662834,62.0431482 C38.9469579,62.3460432 40.4634121,62.5 42,62.5 C47.8189026,62.5 53.2886464,60.2825587 57.4365066,56.3696987 L58.122707,57.0971112 C53.7910567,61.1833485 48.0765921,63.5 42,63.5 C40.3959981,63.5 38.8124008,63.3392265 37.2658682,63.0228592 Z M64.8564749,45.4844176 L63.8838873,45.2518806 C64.2918774,43.54546 64.5,41.7865336 64.5,40 C64.5,34.0444147 62.1765278,28.4566224 58.0982103,24.2806462 L58.813633,23.5819543 C63.0726005,27.9429063 65.5,33.7806368 65.5,40 C65.5,41.864998 65.2826431,43.7019665 64.8564749,45.4844176 Z M48.094749,17.2981832 L47.8360547,18.2641425 C45.9486282,17.7586694 43.9916632,17.5 42,17.5 C35.9576037,17.5 30.2951515,19.8921213 26.103612,24.0765942 L25.3971021,23.3688911 C29.7742717,18.999101 35.6899582,16.5 42,16.5 C44.0792077,16.5 46.123136,16.7701641 48.094749,17.2981832 Z" id="Shape" fill="#FFD783" fill-rule="nonzero"></path>
                    <path d="M42,77 C21.5654643,77 5,60.4345357 5,40 C5,19.5654643 21.5654643,3 42,3 C62.4345357,3 79,19.5654643 79,40 C79,60.4345357 62.4345357,77 42,77 Z M42,65 C55.8071187,65 67,53.8071187 67,40 C67,26.1928813 55.8071187,15 42,15 C28.1928813,15 17,26.1928813 17,40 C17,53.8071187 28.1928813,65 42,65 Z" id="Combined-Shape" fill="#C151C1"></path>
                    <path d="M42,65 C55.8071187,65 67,53.8071187 67,40 C67,26.1928813 55.8071187,15 42,15 C28.1928813,15 17,26.1928813 17,40 C17,53.8071187 28.1928813,65 42,65 Z M42,66 C27.6405965,66 16,54.3594035 16,40 C16,25.6405965 27.6405965,14 42,14 C56.3594035,14 68,25.6405965 68,40 C68,54.3594035 56.3594035,66 42,66 Z" id="Oval" fill="#B120B1" fill-rule="nonzero"></path>
                    <path d="M42,76 C61.882251,76 78,59.882251 78,40 C78,20.117749 61.882251,4 42,4 C22.117749,4 6,20.117749 6,40 C6,59.882251 22.117749,76 42,76 Z M42,77 C21.5654643,77 5,60.4345357 5,40 C5,19.5654643 21.5654643,3 42,3 C62.4345357,3 79,19.5654643 79,40 C79,60.4345357 62.4345357,77 42,77 Z" id="Oval" fill="#E98FE9" fill-rule="nonzero"></path>
                    <g id="centre" transform="translate(29.000000, 27.000000)">
                        <circle id="Oval" fill="#FFFFFF" cx="13" cy="13" r="13"></circle>
                        <path d="M13,24 C19.0751322,24 24,19.0751322 24,13 C24,6.92486775 19.0751322,2 13,2 C6.92486775,2 2,6.92486775 2,13 C2,19.0751322 6.92486775,24 13,24 Z M13,25 C6.372583,25 1,19.627417 1,13 C1,6.372583 6.372583,1 13,1 C19.627417,1 25,6.372583 25,13 C25,19.627417 19.627417,25 13,25 Z" id="Oval" fill="#C1D8FF" fill-rule="nonzero"></path>
                        <path d="M21.3554561,17.5242792 L20.4764931,17.0473892 C21.1449666,15.815316 21.5,14.4338835 21.5,13 C21.5,9.89404172 19.8202905,7.08271746 17.1620557,5.58687147 L17.6524636,4.71537844 C20.6223992,6.38662519 22.5,9.52915947 22.5,13 C22.5,14.6014906 22.1028753,16.1467 21.3554561,17.5242792 Z" id="Path" fill="#73FFC0" fill-rule="nonzero"></path>
                        <path d="M3.5,13 L4.5,13 C4.5,14.9516049 5.15906972,16.8011343 6.3503163,18.2950477 L5.56845687,18.9185024 C4.23722133,17.2490323 3.5,15.1801881 3.5,13 Z" id="Path" fill="#37DE93" fill-rule="nonzero"></path>
                        <circle id="Oval" fill="#6DFDBC" cx="13" cy="13" r="7"></circle>
                        <circle id="Oval" fill="#14CC79" cx="13" cy="13" r="4"></circle>
                    </g>
                    <g id="elements_group" transform="translate(25.774572, 66.261379) scale(-1, -1) rotate(31.000000) translate(-25.774572, -66.261379) translate(20.274572, 62.261379)">
                        <polygon id="Path-2" fill="#FF71FF" fill-rule="nonzero" points="0.5 1.5 0.5 0.5 8 0.5 8 1.5"></polygon>
                        <circle id="Oval" fill="#55F6AE" cx="10" cy="1" r="1"></circle>
                        <circle id="Oval" fill="#FFD783" cx="10" cy="4" r="1"></circle>
                        <circle id="Oval" fill="#FFFFFF" cx="10" cy="7" r="1"></circle>
                        <polygon id="Path-2" fill="#FFE2A4" fill-rule="nonzero" points="0.5 4.5 0.5 3.5 8 3.5 8 4.5"></polygon>
                        <polygon id="Path-2" fill="#FFD4FF" fill-rule="nonzero" points="0.5 7.5 0.5 6.5 8 6.5 8 7.5"></polygon>
                    </g>
                    <g id="elements_group" transform="translate(16.214102, 23.763140) rotate(-60.000000) translate(-16.214102, -23.763140) translate(10.714102, 19.763140)">
                        <polygon id="Path-2" fill="#FF71FF" fill-rule="nonzero" points="0.5 1.5 0.5 0.5 8 0.5 8 1.5"></polygon>
                        <circle id="Oval" fill="#FFD783" cx="10" cy="1" r="1"></circle>
                        <circle id="Oval" fill="#79E0FF" cx="10" cy="4" r="1"></circle>
                        <circle id="Oval" fill="#FFFFFF" cx="10" cy="7" r="1"></circle>
                        <polygon id="Path-2" fill="#F99DF9" fill-rule="nonzero" points="0.5 4.5 0.5 3.5 8 3.5 8 4.5"></polygon>
                        <polygon id="Path-2" fill="#FFE2A4" fill-rule="nonzero" points="0.5 7.5 0.5 6.5 8 6.5 8 7.5"></polygon>
                    </g>
                    <g id="elements_group" transform="translate(68.214102, 55.763140) scale(-1, -1) rotate(-60.000000) translate(-68.214102, -55.763140) translate(62.714102, 51.763140)">
                        <polygon id="Path-2" fill="#FFE2A4" fill-rule="nonzero" points="0.5 1.5 0.5 0.5 8 0.5 8 1.5"></polygon>
                        <circle id="Oval" fill="#55F6AE" cx="10" cy="1" r="1"></circle>
                        <circle id="Oval" fill="#FFD783" cx="10" cy="4" r="1"></circle>
                        <circle id="Oval" fill="#79E0FF" cx="10" cy="7" r="1"></circle>
                        <polygon id="Path-2" fill="#F99DF9" fill-rule="nonzero" points="0.5 4.5 0.5 3.5 8 3.5 8 4.5"></polygon>
                        <polygon id="Path-2" fill="#FFD4FF" fill-rule="nonzero" points="0.5 7.5 0.5 6.5 8 6.5 8 7.5"></polygon>
                    </g>
                    <g id="blue_lines" transform="translate(22.000000, 21.000000)" fill="#72A7FF" fill-rule="nonzero">
                        <polygon id="Path-3" points="31.3089716 28.3877619 31.8163117 27.526016 39.25367 31.9046498 38.74633 32.7663957"></polygon>
                        <polygon id="Path-3" points="0.746329966 5.43087297 1.25367003 4.56912703 8.69102838 8.94776085 8.18368831 9.80950678"></polygon>
                        <polygon id="Path-3" points="32.0694818 0.245728389 32.9305182 0.754271611 28.8678766 7.63290543 28.0068401 7.1243622"></polygon>
                        <polygon id="Path-3" points="11.0694818 31.2457284 11.9305182 31.7542716 7.86787658 38.6329054 7.00684012 38.1243622"></polygon>
                    </g>
                    <g id="lines" transform="translate(9.000000, 6.000000)" fill="#F99DF9" fill-rule="nonzero">
                        <polygon id="Path-4" points="41.7082289 8.96357295 40.8380907 8.47076523 45.1463438 0.863790827 46.016482 1.35659855"></polygon>
                        <polygon id="Path-4" points="22.4391842 68.0270129 21.5608158 67.5490287 25.4395635 60.4212424 26.3179319 60.8992266"></polygon>
                        <polygon id="Path-5" points="7.24466959 25.5639532 6.75533041 26.4360468 0.286410341 22.8062801 0.775749528 21.9341866"></polygon>
                        <polygon id="Path-5" points="66.7135897 45.1937199 66.2242505 46.0658134 59.7553304 42.4360468 60.2446696 41.5639532"></polygon>
                    </g>
                    <g id="lines" transform="translate(6.000000, 21.000000)" fill-rule="nonzero">
                        <path d="M5.75494946,36.9301172 L5.24505054,36.0698828 L12.6927977,31.6552738 L13.2026966,32.5155081 L5.75494946,36.9301172 Z M58.9355265,5.40763764 L58.4256276,4.54740332 L65.9795106,0.0698828385 L66.4894095,0.930117162 L58.9355265,5.40763764 Z" id="Shape" fill="#FFC54C"></path>
                        <path d="M0.542103449,21.9982241 L0.457896551,21.0017759 L9.37217683,20.2484564 L9.45638372,21.2449047 L0.542103449,21.9982241 Z M62.7306014,16.7428581 L62.6463945,15.7464098 L71.4578966,15.0017759 L71.5421034,15.9982241 L62.7306014,16.7428581 Z" id="Shape" fill="#FFE2A4"></path>
                    </g>
                </g>
                <g id="logo" transform="translate(65.000000, 62.000000)">
                    <polygon id="Path-37" fill="#37DE93" points="22.7591715 0 41.5864008 33.7708461 57.228128 6.31507738 67 6.31507738 41.5864008 52 21.5988184 16.0173107 7.6955263 40.5928644 0 40.5928644"></polygon>
                    <polygon id="Path-38" fill="#FFD783" points="9 41 15.1796193 41 25 24.2116082 21.9366254 19"></polygon>
                    <polygon id="Path-39" fill="#FFD783" points="56 6 47.6311342 6 41.9288251 16.425194 36.058004 6 28 6 41.9288251 31"></polygon>
                </g>
                <g id="blue_lines" transform="translate(78.000000, 38.000000)" fill="#0E68FF" fill-rule="nonzero">
                    <polygon id="Path-6" points="15.0176598 27.7698414 14.1299052 28.2301586 0.129905224 1.23015858 1.01765976 0.769841418"></polygon>
                    <polygon id="Path-6" points="38.4438773 98.7698414 37.5561227 99.2301586 23.5561227 72.2301586 24.4438773 71.7698414"></polygon>
                </g>
                <g id="green_lines" transform="translate(70.000000, 61.000000)" fill-rule="nonzero">
                    <polygon id="Path-9" fill="#73FFC0" points="3.62817734 23.6045993 2.75706586 23.113514 15.7847374 0.00438481735 16.6558489 0.495470142"></polygon>
                    <polygon id="Path-9" fill="#C0FFE3" points="1.62826485 22.604444 0.756978345 22.1136693 8.16953587 8.95394197 9.04082238 9.44471668"></polygon>
                    <polygon id="Path-9" fill="#73FFC0" points="38.67807 53.9894077 37.8065926 53.498972 52.2944833 27.7547822 53.1659607 28.2452178"></polygon>
                    <polygon id="Path-9" fill="#C0FFE3" points="47.4329541 42.6319957 46.5670459 42.1317928 54.2972679 28.7498985 55.1631761 29.2501015"></polygon>
                </g>
            </g>
        </g>
    </g>
</svg>