<svg height="64" viewBox="0 0 64 64" width="64" xmlns="http://www.w3.org/2000/svg"><path d="m25.384 10.2360784v.0007843c.6776-.1662745 1.2392.1239216 1.2392.1239216v3.3537255c-.6136-.3396078-1.2392-.7898039-1.2392-.7898039zm1.2392-3.01411762v1.9827451c-.5888-.06980392-1.2392.04235294-1.2392.04235294v-2.02509804zm0 12.93960782s-.8144.1301961-1.2392-.0501961v-4.0007843s.8112.3945098 1.2392.6886275zm2.924-4.1058823c.2608.4462745.392.9537255.392 1.5239215 0 1.2588236-.5888 2.2243138-1.768 2.894902-.4632.2627451-.988.4117647-1.548.492549-.8192.0847059-1.2392.0047059-1.2392.0047059-.7968-.0792157-1.5184-.3043137-2.1344-.7372549-.7016-.492549-1.0528-1.0541176-1.0528-1.6839216 0-.2964706.0928-.5443137.2784-.7435294.1848-.1992157.4288-.2980392.7328-.2980392.3832 0 .668.1388235.856.4180392.1096.1662745.224.4815687.3416.9443137.1184.4627451.248.7960785.3872.9984314.1408.2031373.3504.3341177.5904.4298039.4264.1796079 1.24.0494118 1.24.0494118.5088-.1490196.9048-.4658823 1.1744-.9694118.1472-.2792156.2192-.5788235.2192-.9003921 0-.7498039-.4816-1.4-1.3936-1.962353-.428-.2956862-1.2392-.6878431-1.2392-.6878431-1.232-.6156863-2.076-1.2807843-2.4944-2-.2496-.427451-.3736-.9098039-.3736-1.4431372 0-.8847059.3128-1.5913726.9384-2.1207844.4872-.41490192 1.1496-.66823525 1.9288-.81176467 0 0 .62-.09098039 1.24-.04235294 1.0192.09333334 1.8408.44784314 2.4416 1.09490201.2976.3270588.4456.6588235.4456.997647 0 .2611765-.0936.482353-.2816.6643137-.1888.1811765-.4168.2713726-.684.2713726-.5096 0-.8864-.3560784-1.1296-1.0690196-.2016-.5796079-.4656-.9788236-.792-1.2015686 0 0-.5616-.29019613-1.2392-.1239216-.2632.0815686-.5056.1992157-.7008.3905882-.2848.2854902-.428.6227451-.428 1.014902 0 .6133333.392 1.1694117 1.128 1.6784314 0 0 .6264.4494117 1.24.7043137 1.4888.7333333 2.4792 1.4745098 2.924 2.2227451zm-4.1632 5.092549s.4208.08 1.2392-.0047059v1.9184314h-1.2392zm23.708 5.3756863h.0008v-22.76549023c0-.43137255-.3576-.78117647-.8-.78117647h-44.448c-.4416 0-.8.34980392-.8.78117647v22.76549023c.00021189.207733.08464207.4068638.23469429.5535324.15005221.1466687.35341833.2288448.56530571.2284284h44.4472c.4424 0 .8-.3505883.8-.7819608zm.4824-26.29803925c1.324 0 2.3976 1.07764706 2.3976 2.40705883v25.01725492c0 1.3294117-1.0736 2.4078431-2.3976 2.4078431h-47.0128c-1.324 0-2.3976-1.0784314-2.3976-2.4078431v-25.01647061c0-1.33019608 1.0736-2.40784314 2.3976-2.40784314zm-8.5904 18.30274515c1.9098397.0017338 3.4597507-1.5142759 3.4624-3.3866667-.0008483-.8994481-.3661125-1.7617266-1.0154385-2.3971441-.6493261-.6354174-1.5295245-.9919236-2.4469615-.9910912-.9176404-.0012489-1.7981677.3550984-2.4477129.9905835s-1.0148512 1.4980037-1.0154871 2.3976518c.0010601.8993761.3665533 1.7614917 1.0160525 2.3966376s1.5297841.9912779 2.4471475.9900291zm-14.9152 5.3082352c4.9096 0 8.8888-3.8933333 8.8888-8.6949019 0-4.802353-3.9792-8.69568629-8.8888-8.69568629s-8.8904 3.89333329-8.8904 8.69568629c0 4.8015686 3.9808 8.6949019 8.8904 8.6949019zm-14.9168-5.3082352c.9172249.0010406 1.7973043-.3551834 2.4466303-.9903067.6493261-.6351234 1.0147094-1.4971199 1.0157697-2.39636-.0006361-.899512-.3658322-1.7619116-1.0152043-2.3973741s-1.5296938-.9919018-2.4471957-.9908612c-.9175755-.0010406-1.79797952.3553737-2.44747864.9908137s-1.01487315 1.4978375-1.01572136 2.3974216c.00264926 1.8726974 1.55304808 3.3888339 3.4632 3.3866667zm35.908-9.65803926c.2463725-.00007302.492123-.02424503.7336-.07215687v12.30274513c-1.0835238-.2173766-2.2093315.054103-3.0663804.7394332-.857049.6853303-1.3546117 1.7119619-1.3552196 2.796253.0046745.3191564.0531086.6362467.144.9427451h-34.8952c.084-.3027451.144-.6149019.144-.9427451-.00079892-1.084322-.49857088-2.1108954-1.35578223-2.7960795-.85721134-.6851841-1.98311218-.9564408-3.06661777-.7388224v-12.30352943c1.08350559.2176184 2.20940643-.05363835 3.06661777-.73882243.85721135-.68518408 1.35498331-1.71175749 1.35578223-2.79607953 0-.19137255-.0288-.37647059-.0584-.56h34.7232c-.0296.18352941-.0576.36862745-.0576.56.0010602.95782777.3902376 1.87600091 1.0818949 2.55247833.6916574.67647743 1.629121 1.05582932 2.6061051 1.0545805zm-46.8952 23.46039216h51.8064v.2901961c0 1.3294117-1.0728 2.4078431-2.3968 2.4078431h-47.0128c-1.324 0-2.3968-1.0784314-2.3968-2.4078431zm0 4.8556863h51.8064v.290196c0 1.3301961-1.0728 2.4078432-2.3968 2.4078432h-47.0128c-1.324 0-2.3968-1.0776471-2.3968-2.4078432z" fill="#fff" transform="translate(6 12)"/></svg>