<svg height="64" viewBox="0 0 64 64" width="64" xmlns="http://www.w3.org/2000/svg"><path d="m35.7891733 37.1494933 1.5946667-1.8567466.41392.3536-1.1648 1.35408.5421867.4645333 1.0816-1.2577067.4111466.3536-1.0816 1.2590934.6600534.5664533 1.20224-1.39776.4125333.3536-1.6362667 1.9032zm-2.3261333 1.7818667 1.9753067-1.4490667.3210133.4368-1.4386667 1.05664.42016.5754667 1.3402134-.9831467.3210133.4374934-1.3381333.9831466.5144533.7016534 1.4872-1.0913067.3230933.4368-2.0231466 1.4858133zm-1.5697067 1.34784-.89232.4007467-.2218666-.4964267 2.3906133-1.0698133.2218667.4957333-.8916267.3986667 1.092 2.4384533-.6059733.2704-1.0926934-2.4370667zm-4.01024.5498133.6309334-.1324266 1.7541333 1.8248533.0104-.0034667-.4395733-2.09872.6032-.12688.6600533 3.14496-.6545067.13728-1.7208533-1.7811733-.0104.00208.4298667 2.0522667-.6032.1261866zm-1.4906666 1.9773867-.4319467-1.20224-.4728533 1.18352zm.4714666 1.28128-.2704-.7328533-1.3194133-.0277334-.2877333.7210667-.7106667-.01456 1.3554667-3.1858667.70512.0138667 1.2556266 3.2413333zm-4.9663466-2.5008533.4784.1213333c.1962133.04992.4686933.1199467.5893333.1088533.2426667-.0173333.3168533-.21216.33904-.3029866.0325867-.1261867.01872-.2586134-.0838933-.3591467-.1026134-.1005333-.1844267-.1213333-.6163734-.23088l-.5061333-.1282667-.2010667.7910934zm-.3092267-1.4816534 1.3589333.34528c.4784.1220267.6226134.2086934.7127467.2648534.33696.2288.39728.624.3217067.9283733-.0859734.3397333-.3376534.5962667-.6829334.6420267-.1234133.0208-.2523733.0235733-.3813333.0055466l-.0027733.0076267c.23088.2170133.3279466.36192.52208.94432l.2343466.7072-.7730666-.1976-.2918934-.7959467c-.2468266-.6607466-.2717866-.7307733-.70512-.8410133l-.1303466-.03328-.33072 1.3006933-.6434134-.1636266zm-2.1950933 1.1266667.1400533-1.27088-.9450133.8576533.8042666.4132267zm-.1379734 1.3568533.0783467-.7765333-1.17312-.6032-.5754667.52208-.6309333-.3251733 2.6138667-2.2678934.62816.3217067-.2925867 3.4625067zm-2.3351466-5.3338133-1.11072 1.3339733c-.2440534.2939734-.3438934.4146134-.3778667.5851734-.0506133.2544533.1137067.46176.2690133.5914133.49088.40768.7390934.1067733 1.0906134-.31408l1.1322133-1.3630933.5109867.4250133-1.0788267 1.2972267c-.3674667.4416533-.5879467.6725333-.8666667.7557333-.4395733.1303467-.8458666-.1248-1.1301333-.3605333-1.0386133-.86528-.52-1.4885867-.0450667-2.0585067l1.0954667-1.3180267zm-2.88288-1.0219733.8437866 1.1599466-1.0330666.7543467c-.2634667-.0492267-.84032-.30784-1.2341334-.84864-.70096-.9623467-.3189333-1.8401067.3633067-2.3365333.6344-.4631467 1.5946667-.6149867 2.2984.3508266.3147733.43264.59904 1.0816.0672533 1.6924267l-.4888-.4652267c.28288-.36608.09152-.7349333-.0242666-.8950933-.1664-.2274133-.41184-.42016-.74672-.416-.25168.00624-.4797867.1275733-.6794667.27248-.3841067.2808-.8209067.8098133-.3646933 1.4352.2281066.31408.5810133.4395733.6808533.47008l.3258667-.2392-.4478934-.6142933zm28.9841066-12.11184.0138667.6434133-1.4282667.0256533 1.4525334 1.2826667.0152533.86528-1.2736533-1.1786667-1.93856 1.3048534-.0152534-.8347734 1.4920534-.9082666-.5477334-.51584-.9706666.0173333-.0110934-.6420267zm-2.3205866-.7085867c-.2593067-.0013867-1.07328-.0131733-1.33536-1.0247467-.2170134-.8389333.2468266-1.5676266 1.2168-1.8186133.86528-.2239467 1.7472.0138667 2.0078933 1.02128.0443733.17264.1400533.6101333-.1109333 1.0386133-.1157867.1962134-.27872.3224-.4811734.43888l-.30784-.58032c.3189334-.1650133.4361067-.4686933.3536-.7876266-.2003733-.7696-1.0517866-.54912-1.2507733-.4985067-.2912.0762667-.5747733.1858133-.7397867.36816-.1456.1566933-.2218666.3986667-.1504533.6753067.1067733.4146133.4735467.5227733.8333867.5130666l-.0346667.6545067zm-1.0434667-4.1086933.8625067-.936-1.26048.1573866zm-.9117333 1.0074133.5213866-.57616-.5810133-1.13776-.76752.0963733-.3126933-.6122133 3.4285333-.3536.3106133.6080533-2.2789866 2.60416zm-.4368-5.5300267-.5650667.4707734.4478933.5394133c.1407467.1677867.37232.4049067.6350934.18512.11024-.0901333.1781866-.2468267.1074666-.4028267-.03952-.0887466-.0866666-.1483733-.3854933-.5040533l-.2405867-.2884267zm-.9831467.8181334-.6503467.5435733.38272.4589867c.0887467.1067733.2634667.3154666.3536.3688533.2177067.12688.3778667.0277333.4548267-.0360533.3383467-.2814934.0832-.5872534-.2066133-.9332267zm1.8061333-.6787734c.2835734.3397334.4319467.54704.4506667.7994134.0152533.23088-.052.4915733-.27456.6746133-.2170133.1816533-.5338667.2419733-.8209067.0984533.2260267.52624-.0714133.8479467-.2086933.9637334-.24544.20384-.6378667.3050666-.9762133.13936-.18096-.0922134-.32448-.24128-.7592-.7626667l-.6968-.8375467 2.4682666-2.0564266zm-5.20208-2.0536533.0104-2.1999467.6378667.4049067-.04784 1.4733333 1.30624-.6746133.6267733.3979733-1.9919466.9470934-.7210667 1.1363733-.5442667-.34528zm-3.03888-3.40149333 2.22352.82506663-.1899733.5089067-1.62032-.60112-.2489067.6683733 1.508.55952-.1872.5096-1.5114666-.55952-.2988267.8160534 1.6730133.6212266-.1885866.5082134-2.2789867-.8451734zm-3.8195733-.67877334.61984.08250667 1.0011733 2.30048h.0097067l.2856533-2.12576.5934934.08112-.4270934 3.1837867-.6441066-.0859734-.98592-2.24778663-.00832-.00138667-.2794134 2.0772267-.5928-.0783467zm-3.28224 2.48767997c.1254933.17472.3757867.3653867.7619733.3224.33696-.03536.8541867-.2773333.75296-1.2008533-.0381333-.3612267-.2107733-1.07813333-.9914666-.99424-.728.07834667-.8112.7252267-.7598934 1.1925333.0388267.3626134.1456.5588267.2357334.6794667zm.4589867-2.4259733c1.0393066-.11232 1.6196266.55674667 1.7208533 1.48928.0887467.83408-.2405867 1.6917333-1.35408 1.81168-1.1932267.1303467-1.6418133-.7293867-1.72224-1.46432-.1109333-1.02197333.3688533-1.72848 1.3554667-1.83664zm-5.6832534 1.6355733.90064-.3466666 1.32288 1.8394133.00832-.00416-.25584-2.24778667.9041067-.34736 1.1509333 3.00074667-.55744.21424-.9082666-2.3635733-.0076267.0034666.32864 2.5861334-.5796267.2218666-1.49552-2.1375466-.0090133.0034666.9082667 2.3642667-.5588267.2135467zm-2.3871466 3.8951467-2.09456-.6725333.5768533-.4853334 1.3922133.4888-.2496-1.4490666.5685334-.4770134.3009066 2.1853867.86528 1.0302933-.4915733.4125334zm-1.4026134 1.53088-1.2064-.4069867.6558934 1.08784zm1.2896.42432-.7384-.2426667-.8042666.9935467.4000533.6621333-.4340267.5338667-1.7132266-2.98896.4298666-.5304 3.30512 1.0247467zm-4.8533333 2.61456 1.9108267.93808.21216-.4319467c.2184-.44512.36816-.8098133-.5588267-1.2660266-.9581867-.4707734-1.1599467-.0617067-1.4352.4992zm-.2502933-.71968c.1594666-.32448.3917333-.7980267 1.0309866-.86736.2010667-.0208.53664-.0346667 1.1010134.2426667.1733333.0838933.6919466.3404266.9117333.9013333.17888.4506667-.0547733.92768-.1456 1.1121067l-.5338667 1.0864533-2.88496-1.4178667zm.0866666 5.2693333c.8424.1358934 1.1280534.0776534 1.1752-.2093866.0471467-.2912-.21216-.4368-1.0490133-.5713067-.8430933-.1358933-1.1336-.07904-1.18074667.21216-.04576.28704.20869337.43264 1.05455997.5685333zm-.77376-1.43728c.3757867-.0693333.78-.0138666 1.0018667.0208.2031467.03328.6066667.1026134.9394667.2912.3328.18512.5941866.4901867.5130666.9935467-.0804266.5061333-.42016.7189867-.7904.7904-.3771733.0762667-.78.0110933-1.0011733-.02496-.2128533-.0346667-.6170667-.104-.94570667-.2877333-.32864-.1878934-.58517333-.4922667-.50336-.9949334.08042667-.5026666.41461334-.71136.78623997-.78832zm1.3221867 4.2230934c.2274133-.0318934.4624533-.1712534.4548267-.4652267-.0069334-.3133867-.2967467-.4402667-.5435734-.4354133-.2606933.0069333-.4992.1594666-.4922666.4361066.0027733.12064.0305066.22256.052.2801067l-.5005867-.0554667c-.0006933-.2322666-.1067733-.5061333-.4291733-.4992-.2114667.0048534-.3466667.1469867-.34181337.3605334.00346667.1615466.10261334.35984.43541337.3924266l-.0859734.5692267c-.20314663-.03952-.84378663-.15392-.86111997-.9672-.01386666-.61568.42154667-.9568.80426667-.9658133.4194667-.0104.62192.3300266.6787733.4395733h.00832c.0672534-.3716267.3591467-.61152.74464-.61984.5879467-.0138667 1.0289067.4541333 1.0427734 1.0469333.0152533.65312-.4208534 1.0122667-.8812267 1.0760534zm18.4073067-6.9090667.48464.95472.27456-1.0344533 1.0573333-.1650134-.8999467-.58032.17056-1.05664-.8306133.6746134-.9519467-.4881067.3854934.9984-.7585067.7557333 1.0677333-.0589333zm.7585066 13.4194667-.27456-1.03584-.4853333.95472-1.0677333-.0575467.7585066.7543467-.3854933.9984.95264-.4874134.82992.6753067-.1691733-1.0573333.89856-.5810134zm-3.4888533.0208-1.1204267.73216-1.12112-.7314667.3508267 1.2909867-1.0427733.84032 1.3367466.06656.47632 1.25008.4770134-1.25008 1.33744-.06656-1.0434667-.84032.34944-1.2909867zm-4.9712-.1012267-.4839467-.9554133-.27248 1.03584-1.05872.16432.8992534.58032-.1698667 1.0573333.82992-.6753067.9519467.4874134-.3841067-.9977067.7578133-.7557333-1.06912.0589333zm-.7557333-13.4187733.27248 1.0351466.4839466-.95472 1.0677334.0575467-.75712-.7543467.3854933-.9984-.95264.4881067-.8292267-.6753067.1691734 1.05664-.89856.58032zm3.8369066-1.31248-1.0427733-.8396267 1.3367467-.0672533.47632-1.2507734.47632 1.2507734 1.3367466.0672533-1.04208.8396267.34944 1.2909866-1.1204266-.73216-1.12112.73216zm9.1714134 3.6309866-4.4082134 8.2936534h1.06496l4.3666134-8.24512-1.0247467-.0485334zm-3.536 3.2766934c.3002133 0 .4506666-.2170134.4506666-.6517334v-1.1093333c0-.4340267-.1629333-.6517333-.4888-.6517333-.3022933 0-.4506666.2177066-.4506666.6517333v1.11072c0 .4340267.1629333.6517333.4888.6517333zm-.1213334.9013333c-.3471907.003428-.6802859-.1371397-.9200533-.3882667-.2525651-.2453213-.3927793-.5839423-.3875733-.936v-1.5288c0-.4333333.14768-.7689066.4444266-1.0060266.2794134-.21216.6392534-.3189334 1.07952-.3189334.3563734 0 .6600534.12896.9138134.3882667.2551466.26.3813333.572.3813333.936v1.5294933c0 .43264-.14144.7626667-.4257067.9873067-.2842666.2253333-.6448.33696-1.08576.33696zm4.4962667 1.4608533c0-.4319466-.16224-.6482666-.4894933-.6482666-.29952 0-.4506667.21632-.4506667.6482666v1.10448c0 .43264.1629333.64896.4894933.64896.3002134 0 .4506667-.21632.4506667-.64896zm.94016-.2024533v1.5357333c0 .43264-.1442133.7605867-.43264.9845334-.2877333.2239466-.6517333.33696-1.0913067.33696-.3570666 0-.6600533-.1317334-.9152-.3945067-.2464671-.2451199-.383479-.5793988-.3799466-.9269867v-1.5357333c0-.4229333.1469866-.75504.4437333-.9914667.2704-.22048.6267733-.3300266 1.0677333-.3300266.35568 0 .66144.13104.9200534.3938133.2572266.26208.3882666.5713067.3882666.92768zm-8.75056-2.9646933c0-.33696-.0346667-.5768534-.10192-.7210667-.10192-.22672-.3009067-.34112-.5962667-.34112-.6025066 0-.9020266.3536-.9020266 1.0621867v3.6926933c0 .7078933.2731733 1.0621867.8250666 1.0621867.51584 0 .7751467-.3542934.7751467-1.0621867v-3.692zm.7037333-1.6466667c.3771734.3716267.56576.81952.56576 1.34368v4.3374933c0 .5234667-.1885866.9720534-.56576 1.3443734-.37648.37024-.82368.55744-1.33952.55744h-.3293333c-.5255467 0-.9748267-.1872-1.3471467-.55744-.3633494-.352245-.5648544-.8390691-.5567466-1.3450667v-4.3368c0-.52416.1844266-.9720533.5567466-1.34368.352933-.3637613.8403661-.5657086 1.3471467-.5581333h.3293333c.51584 0 .96304.1858133 1.33952.5581333zm-5.6576 1.6466667c0-.33696-.03328-.5768534-.10192-.7210667-.1005333-.22672-.3002133-.34112-.59696-.34112-.60112 0-.9013333.3536-.9013333 1.0621867v3.6926933c0 .7078933.2759467 1.0621867.8264533 1.0621867.5151467 0 .77376-.3542934.77376-1.0621867v-3.692zm.7058134-1.6466667c.3757866.3716267.5643733.81952.5643733 1.34368v4.3374933c.0070156.5071096-.1974803.9942321-.5643733 1.3443734-.3778667.37024-.8250667.55744-1.3409067.55744h-.3300267c-.5255466 0-.97344-.1872-1.3464533-.55744-.3642293-.3518654-.5667372-.8386872-.55952-1.3450667v-4.3368c0-.52416.1872-.9720533.55952-1.34368.3525772-.3638637.839849-.5658481 1.3464533-.5581333h.3300267c.5165333 0 .9637333.1858133 1.3409067.5581333zm-5.75952-.4062933 1.3201066-.0117867v7.8866667h-1.3201066v-6.4140267l-1.2965334 1.2826667v-1.5496zm-6.9853334 8.6514133-1.20154663-.7765333 1.41301333-.22048.3667733-1.3832.6475734 1.2757333 1.4275733-.0776533-1.0143467 1.0094933.5151467 1.3339733-1.2715733-.65312-1.1093334.90272zm31.28736 2.4197333-1.1093333-.90272-1.27296.6517334.51584-1.3325867-1.0143467-1.0094933 1.4282667.0783466.6475733-1.2757333.3667734 1.3825067 1.4130133.2197866-1.20224.7772267.2274133 1.4116267zm6.6456-7.2474133c-.0492446.0525924-.1178789.0827233-.1899244.0833783-.0720456.000655-.1412163-.0282232-.1914089-.0799116-.2946667-.2898134-1.3984533-1.2722667-1.3984533-1.2722667-.0541128-.0432691-.0879321-.1069825-.0934468-.1760477s.0177658-.1373379.0643268-.1886456c.0977107-.1102404.2645587-.1248548.3799466-.03328.3071467.2544533 1.4178667 1.2722666 1.4178667 1.2722666.1089873.1074832.1138796.2817723.0110933.3952zm-.0180266 1.11488c-.0516691.0493156-.1211468.0755396-.1925152.072664-.0713684-.0028757-.138511-.0346046-.1860448-.0879173-.2808-.30368-1.33744-1.3409067-1.33744-1.3409067-.0512205-.0463404-.081014-.1117877-.0823269-.1808474-.0013129-.0690598.0259714-.1355922.0753935-.1838459.1023635-.1053092.2694726-.1114193.3792534-.0138667.2946666.2690133 1.35408 1.3409067 1.35408 1.3409067.1028017.1127825.0982111.2866138-.0104.3938133zm-.0714134 1.1128c-.054073.0468672-.1248835.0697242-.1961532.0633165-.0712697-.0064078-.1368675-.041529-.1817134-.0972898-.2648534-.3168534-1.2688-1.4053867-1.2688-1.4053867-.0489521-.0486032-.0756069-.1152982-.0736367-.1842525.0019701-.0689542.0323894-.1340186.0840367-.1797475.1070336-.1003732.2740723-.0988463.3792533.0034667.2814933.2842666 1.2868267 1.4074666 1.2868267 1.4074666.0968573.1176537.0837064.2907557-.0298134.3924267zm-.1261866 1.10864c-.0566354.0440273-.1286743.0632679-.1997197.0533424-.0710455-.0099254-.135053-.0481725-.1774537-.1060357-.2489066-.33072-1.196-1.4670934-1.196-1.4670934-.0463432-.0509517-.0695727-.1187886-.0641899-.187453.0053829-.0686644.0388997-.1320527.0926166-.1751603.1123638-.0952814.2798289-.0851968.3799467.02288.26624.2960533 1.21472 1.4670933 1.21472 1.4670933.090179.1233184.0682616.2956136-.04992.3924267zm-.18096 1.0996267c-.0585055.041907-.1316072.0580578-.2023226.0447005-.0707154-.0133574-.1328891-.0550602-.1720774-.1154205-.23088-.3432-1.12112-1.5239467-1.12112-1.5239467-.0442795-.0529441-.064442-.1219719-.0556219-.190426.00882-.0684541.0458214-.1301165.1020752-.1701073.1164895-.089635.2828509-.0719305.3778667.0402133.2509866.3092267 1.1412266 1.52672 1.1412266 1.52672.0826664.1276448.0520239.297544-.0700266.3882667zm-.23712 1.0906133c-.0602876.0387273-.1338301.0510071-.2034293.0339677-.0695992-.0170393-.1291517-.0619036-.1647307-.124101-.21632-.3536-1.0448534-1.5773334-1.0448534-1.5773334-.0411601-.055241-.0575853-.1250702-.0453661-.1928671s.0519899-.1274978.1098461-.1648929c.1204796-.0846611.2863812-.0585952.3750934.0589334.2357333.3210133 1.0621866 1.5814933 1.0621866 1.5814933.0781171.1313549.0390089.3009257-.0887466.3848zm-.2898134 1.0767467c-.0622939.035621-.1364223.0442916-.2052552.0240081-.068833-.0202835-.1264144-.0677659-.1594381-.1314748-.1969067-.3653867-.9637333-1.62864-.9637333-1.62864-.0381333-.0574179-.0508253-.1280489-.0350675-.1951508.0157577-.0671018.0585624-.1247004.1182675-.1591425.1241066-.0762667.2912-.04368.37024.0783466.2197866.3328.98176 1.6328.98176 1.6328.0712347.1346642.024255.3015335-.1067734.3792534zm-.3466666 1.0621866c-.0640683.0317469-.1382884.0360903-.2056224.0120331-.067334-.0240571-.1219983-.0744485-.1514443-.1396064-.1781867-.3730133-.8805333-1.6737067-.8805333-1.6737067-.0356946-.0590324-.0452889-.1302311-.0264935-.1966063.0187953-.0663752.0642945-.1219732.1256401-.153527.12896-.0693333.2939734-.0277333.3688534.0970667.2010666.3425066.89856 1.6799466.89856 1.6799466.0630933.1352.0069333.3050667-.12896.3744zm-.3958934 1.04208c-.0655823.0289747-.1401407.0299702-.2064732.0027569-.0663325-.0272134-.1187096-.0802849-.1450468-.1469702-.1594666-.3834133-.7959466-1.7173867-.7959466-1.7173867-.0323524-.0609365-.0380393-.1325463-.0157104-.1978254.0223288-.0652791.0706817-.1184044.133577-.1467612.1318528-.0633321.2902115-.0124746.3605334.1157866.1865066.3542934.8146666 1.7236267.8146666 1.7236267.0568534.1386667-.0090133.30576-.1456.3667733zm-.4485866 1.02128c-.0670263.0258934-.1417203.023288-.2067796-.0072126-.0650592-.0305006-.1148386-.08625-.1378071-.154334-.13936-.3896534-.7078933-1.75552-.7078933-1.75552-.0295832-.0621243-.0320507-.1337412-.0068135-.1977542.0252372-.0640131.0759142-.1146777.1399335-.1398992.1350698-.0583861.2921357.0003988.35568.13312.1664.36192.7266133 1.7624534.7266133 1.7624534.0499205.1439994-.0216994.3018679-.1629333.3591466zm-.4998934.9970134c-.0681242.0221181-.1423174.0155474-.2054941-.0181992-.0631767-.0337465-.1098912-.09176-.1293859-.1606808-.12064-.3952-.6212266-1.7881067-.6212266-1.7881067-.0262766-.06355-.0250905-.1351394.0032769-.197784.0283674-.0626447.081388-.1107618.1464831-.132936.1386666-.04992.29536.0159467.3501333.1504533.14768.3709334.6371733 1.7978134.6371733 1.7978134.0423228.1460803-.0372336.2997065-.18096.34944zm-.5484266.97136c-.0691128.0188078-.1429042.0086665-.2043807-.0280886-.0614765-.0367552-.1053389-.0969557-.121486-.1667381-.1012267-.4021333-.5317867-1.8165333-.5317867-1.8165333-.0231481-.0651364-.0183267-.1369459.0133212-.1984032.0316478-.0614572.0873038-.1070892.1537722-.1260768.1404663-.0441078.290771.0301281.34112.16848.12896.37648.5463466 1.8255466.5463466 1.8255466.0362005.1482425-.0505074.2987602-.1969066.3418134zm-.5962667.9429333c-.069998.0152618-.1431929.001438-.202803-.0383021-.0596102-.0397401-.1005225-.1019877-.113357-.1724712-.0804267-.40768-.4402667-1.8421867-.4402667-1.8421867-.0197993-.0660721-.0114551-.1373863.0230625-.1971029.0345175-.0597167.0921484-.1025421.1592842-.1183638.1425369-.0365096.2886479.0452393.3321067.1858134.1109333.3820266.4548266 1.8512.4548266 1.8512.0287294.1495472-.0649062.2953382-.2128533.3314133zm-.64272.9117333c-.070633.0119009-.1430669-.0054697-.2006199-.0481112s-.0952635-.106878-.1044468-.1779154c-.1028067-.6229307-.2188507-1.2436044-.3480533-1.8616-.0162232-.0668787-.004353-.1374836.0328478-.1953805.0372007-.0578969.0964868-.0980355.1640589-.1110729.1440792-.0298331.2862233.0586257.3230933.2010667.0901333.3882667.3626133 1.872.3626133 1.872.0219884.151006-.078883.2925317-.2288.3210133zm-.6850133.8791467c-.0714682.0089365-.1434644-.0119332-.1990738-.057706-.0556095-.0457729-.0899304-.1124142-.0948996-.1842673-.0416-.41184-.2156266-1.6570667-.2565333-1.8768534-.0134423-.0676549.0016314-.1378583.0416616-.1940319.0400303-.0561735.1014681-.0933371.1698051-.1027147.1459295-.0224695.2835948.0742022.312.2190933.0714133.3903467.2704 1.8858667.2704 1.8858667.0149455.1517008-.0918574.2884084-.2426667.3106133zm-.7307734.8437867c-.0717046.0047409-.1422461-.0199355-.1953599-.0683397s-.0842152-.1163581-.0861334-.1881937c-.0400243-.6301913-.0938861-1.2594276-.1615467-1.8872533-.0102093-.0680311.0081122-.1372597.0506371-.1913346.042525-.0540749.1054826-.0882012.1740029-.0943187.1465189-.0150159.2791117.0874006.3016.23296.0506134.3938133.1761067 1.89904.1761067 1.89904.0066006.1525225-.1073418.2835258-.2593067.2981333zm-.77168.8042666c-.0717418.0019579-.1411021-.0258257-.1916528-.0767703s-.0777952-.1205185-.0752805-.192243c-.0072486-.6309527-.030367-1.2616233-.0693333-1.8914133-.0071543-.0688593.0146121-.1375968.0600979-.1897871.0454857-.0521903.1106044-.0831446.1797954-.0854663.1470527-.008842.2745041.1007969.2877333.24752.0325867.3958934.0832 1.9066667.0832 1.9066667.0000464.1527966-.1218097.2777299-.27456.2814933zm-.50544-29.7509333c.0106968-.146826.1350286-.259244.2821867-.2551467.39728.01664 1.6688533.1261867 1.8962667.1573867.14976.0208.26.1594667.24544.3106133-.0080821.0713434-.0447098.1363734-.1015324.180264-.0568227.0438906-.1289968.0629006-.2000676.052696-.4104534-.0533866-1.8837867-.1712533-1.8837867-.1712533-.0686787-.0027239-.1331948-.033648-.1783347-.0854802s-.0669083-.1199846-.060172-.1883865zm-.01664 30.2487467c-.0069333.15184-.1338133.2794133-.2877333.26832-.0716044-.002084-.1392543-.0333106-.1872911-.086452-.0480367-.0531415-.0722958-.1235908-.0671622-.1950414.02496-.4090666.0381333-1.66608.0277333-1.8921066-.0040385-.0688617.0206806-.1363114.0682595-.1862561.047579-.0499448.1137507-.0779054.1827272-.0772106.1470061.0001647.2682096.1152775.2759466.26208.0138667.3979733-.01248 1.9066667-.01248 1.9066667zm-.6961066-30.992c.0043398-.1467368.1222766-.2646735.2690133-.2690134.39936-.0055466 1.6757867.0416 1.9032.0624.1523118.0139317.2666247.145361.2593067.2981334-.0041785.0716254-.0373869.138449-.0919537.1850336-.0545669.0465846-.125772.0689007-.1971663.061793-.4132267-.0318933-1.8893334-.0762666-1.8893334-.0762666-.0685867-.000343-.1341306-.0283599-.1817735-.0776997-.0476429-.0493397-.0733498-.1158235-.0712931-.1843803zm-.1365867 31.7338666c-.0142911.1532845-.1496078.2663065-.3029867.2530667-.0715852-.0057036-.1377404-.0403805-.1831575-.0960066-.045417-.0556261-.0661601-.1273807-.0574291-.1986601.0492266-.4056.12272-1.6605333.12272-1.88864 0-.1456.1178666-.2565333.2634666-.2509866.1456.0069333.26416.12896.2627734.2759466-.0048534.4007467-.1053867 1.90528-.1053867 1.90528zm-.3563733-32.7239466c.6346816-.0280698 1.2700144-.0387049 1.90528-.0318934.15206.0070189.2719029.1320459.27248.2842667-.0004774.0718574-.0302846.140402-.0825162.1897536s-.1223548.0752276-.1941238.0716331c-.4132267-.01248-1.89072.01664-1.89072.01664-.1442134.0090133-.2565334-.10608-.26624-.24752-.0033864-.1472771.108964-.271502.25584-.28288zm-.5130667 33.42144c-.0101272.0732163-.0490621.1393609-.1081615.1837506-.0590995.0443896-.1334734.0633514-.2066118.052676-.0711637-.0090117-.1355765-.04665-.1783641-.1042235-.0427875-.0575735-.0602504-.1301041-.0483559-.2008431.0700266-.3986667.2066133-1.6508267.2170133-1.8789334.0032663-.0688096.0346711-.1332521.0868536-.1782234.0521825-.0449714.1205552-.066518.1890931-.0595899.14352.0138667.2565333.1407467.24752.2877333-.0214934.4021334-.1989867 1.8976534-.1989867 1.8976534zm-.9041067.6552c-.013892.0728746-.0564022.1371455-.1180291.1784472-.0616269.0413018-.1372323.0561909-.2099175.0413394-.0702616-.0129449-.132193-.0540129-.1714598-.1136985s-.0524652-.1328149-.0365402-.2024615c.09152-.3938133.2863466-1.6397333.3092266-1.8650666.0063142-.0686208.0405645-.1316269.0947183-.1742419s.123447-.0610898.1916284-.0510915c.145049.0221281.247763.1534075.2343467.29952-.0416.4021334-.2939734 1.8872534-.2939734 1.8872534zm-.9332266.6087466c-.0381279.1495573-.1900522.2400917-.3397334.2024534-.0698943-.0160901-.1301406-.0601218-.1666941-.1218304s-.04622-.1357016-.0267459-.2047296c.1109334-.3882667.4021334-1.8463467.4021334-1.8463467.0098627-.0686148.047589-.1301238.1042794-.170017.0566903-.0398932.1273247-.0546381.1952406-.0407563.1407466.0277333.24128.1664.2177066.3113066-.0610133.4021334-.3861866 1.86992-.3861866 1.86992zm-1.3138667.7460267c-.0690303-.019901-.1269402-.067128-.1603193-.1307446s-.0393322-.1381049-.0164807-.2062154c.1303467-.38272.4957333-1.8213867.4957333-1.8213867.0132004-.0674444.0534066-.1265574.1112838-.1636146.0578772-.0370571.1283909-.0488349.1951696-.0325987.14144.0346667.2336533.1768.2031466.3217067-.07904.3979733-.4784 1.8477333-.4784 1.8477333-.0455904.1477868-.20233.230657-.3501333.18512zm-.6413333.32864c-.054494.1435666-.2137848.217204-.3584534.1657067-.0679511-.023064-.1234732-.0729814-.1536107-.1381046s-.0322541-.1397555-.0058559-.2064821c.14768-.3757867.5858666-1.79504.5858666-1.79504.0160943-.0670245.0591895-.1244095.1190696-.1585517.0598801-.0341421.1312135-.0420015.1970904-.021715.1379734.0416.22464.1885867.1872.33072-.09984.3952-.5713066 1.8234667-.5713066 1.8234667zm-1.3825067.60944c-.0667093-.0268925-.1196125-.0797595-.1465504-.1464505s-.0255937-.1414698.0037237-.2071495c.16848-.3674667.676-1.76176.676-1.76176.0199365-.0657237.0658665-.1204451.1271387-.151474s.1325636-.0356696.1973413-.012846c.13728.0485333.2149334.19968.1691734.3397333-.1178667.39104-.6600534 1.79296-.6600534 1.79296-.0626555.1398448-.2248818.204858-.3667733.1469867zm-1.04416.39104c-.0653135-.0296381-.1156265-.0847489-.1392095-.1524845-.0235829-.0677356-.0183751-.1421767.0144095-.2059688.1858133-.3605334.7626667-1.7264.7626667-1.7264.0235351-.0644832.0723213-.1165975.1351135-.1443307.0627921-.0277332.1341719-.0286922.1976865-.002656.1345066.0554667.2045333.21008.1525333.3480533-.1365867.3841067-.7488 1.7569067-.7488 1.7569067-.0701529.1363505-.2358056.1924883-.3744.12688zm-1.0635733.3397333c-.0634984-.0332461-.1106606-.0909877-.1305587-.1598456-.0198981-.068858-.0108051-.1428558.025172-.2048477.2031467-.3508267.8479467-1.68688.8479467-1.68688.0274188-.062616.0788777-.1115669.1427845-.1358254s.1348863-.0217842.1969488.0068654c.1332191.0630555.1931282.2198585.1358933.35568-.1566933.3771733-.8368533 1.7173867-.8368533 1.7173867-.0782809.1315642-.2458737.1787949-.3813333.1074666zm-.6933334.1962134c-.0843492.1275365-.2538687.1665626-.3854933.0887466-.0617802-.0361861-.1060663-.0960725-.1225672-.1657428-.0165008-.0696704-.0037798-.1430584.0352072-.2031105.2190933-.34112.9325333-1.6425067.9325333-1.6425067.0305471-.0611922.0844418-.1075111.1495309-.1285118.065089-.0210007.1358919-.0149148.1964425.0168852.1275733.06864.1823466.2288.1178666.3605333-.1761066.37024-.92352 1.6737067-.92352 1.6737067zm-1.4761066.3189333c-.0600522-.0391459-.1014488-.1011813-.1145487-.1716587s.0032404-.1432446.0452153-.2013546c.2378134-.3293334 1.0136534-1.59328 1.0136534-1.59328.0338039-.0592633.0899346-.1025194.1558551-.1201069.0659206-.0175875.136139-.0080411.1949715.0265069.1252586.0761563.1688531.2371206.0991467.36608-.1920533.36192-1.0053333 1.6258666-1.0053333 1.6258666-.091152.1216597-.2612163.151421-.3882667.0679467zm-.7106667.12688c-.0963227.1179966-.2681628.1399337-.39104.04992-.057872-.0424755-.0959649-.1066747-.1055125-.1778237-.0095476-.0711491.0102725-.1431197.0548992-.1993496.2530666-.3168534 1.0933866-1.54128 1.0933866-1.54128.0367732-.0570256.0947465-.0970545.161102-.1112364.0663554-.0141818.1356268-.0013483.192498.035663.122072.082515.1580466.2462297.0818134.37232-.2114667.3508267-1.0871467 1.5717867-1.0871467 1.5717867zm-1.4989867.1698667c-.0559761-.044805-.0910897-.1106366-.09712-.182082s.0175524-.1422313.0652267-.1957847c.2676267-.30368 1.1675733-1.48512 1.1675733-1.48512.0397679-.0553135.0999043-.0925372.1671478-.1034626.0672436-.0109255.1360714.0053447.1913056.0452226.1168251.0890978.1441598.2537135.0624.3757867-.2288.3397333-1.1641067 1.5156266-1.1641067 1.5156266-.101671.1135198-.274773.1266707-.3924267.0298134zm-1.1141866.06656c-.0532849-.0482165-.0848157-.1159254-.0874272-.1877397-.0026114-.0718142.0239184-.1416344.0735605-.1935937.28496-.2877333 1.2410667-1.4234133 1.2410667-1.4234133.0422933-.0535513.1041797-.0880454.17197-.0958524.0677903-.0078069.1358976.0117167.1892566.0542524.1109334.09152.13312.2613867.0429867.37856-.2440533.3279467-1.2362133 1.456-1.2362133 1.456-.1071397.1095417-.2817226.1147485-.3952.0117867zm-1.1134934.0104c-.0510862-.0500899-.0794074-.1189307-.0783593-.1904688.0010482-.071538.0313742-.1395196.083906-.1880912.29744-.27456 1.3076267-1.3637867 1.3076267-1.3637867.0450158-.0514188.1086873-.0827506.1768919-.0870459.0682045-.0042954.1353038.0188009.1864147.0641659.1074667.0970667.1192534.2676267.0242667.3792533-.2606933.3154667-1.3069333 1.3936-1.3069333 1.3936-.1111545.1055785-.2864441.1024925-.3938134-.0069333zm-1.1141866-.0429867c-.0483046-.05276-.0730798-.1228934-.068634-.1942879s.0377305-.1379124.0922073-.1842721c.30992-.2593067 1.3734933-1.2965333 1.3734933-1.2965333.0468599-.0503165.112132-.0794637.180877-.0807706.0687451-.001307.1350779.0253383.1838164.0738372.1028212.1054693.1052568.2729181.0055466.3813334-.27664.3009066-1.3741866 1.3263466-1.3741866 1.3263466-.1144.1053867-.2912.0859734-.39312-.0256533zm-1.1114134-.0970667c-.0458156-.0557466-.0669723-.1277377-.058602-.1994085s.0455468-.1368492.1029754-.1805381c.3217066-.24128 1.4345066-1.22512 1.4345066-1.22512.0488253-.0486985.115494-.0752297.1844294-.073395.0689353.0018348.1340983.0318749.180264.0831016.0963733.1074667.0929066.2773334-.0138667.3799467-.2905067.2863467-1.43728 1.2584-1.43728 1.2584-.1205082.0955564-.2954626.0763918-.3924267-.0429867zm-1.1051733-.1553066c-.0429366-.0575123-.0605518-.1300521-.0487738-.200851.011778-.070799.0519298-.1337287.1111738-.1742424.3341867-.22464 1.4948267-1.15232 1.4948267-1.15232.0506786-.046583.1183453-.0701688.1869997-.0651806.0686543.0049883.1322009.0381078.1756136.0915273.0934362.114567.0799837.2824168-.0305067.38064-.3050666.2704-1.49968 1.1842133-1.49968 1.1842133-.1252439.0898581-.2995987.061316-.3896533-.0637866zm-.7099733-.1261867c-.061951.0405619-.1375503.0546648-.209959.0391672-.0724087-.0154975-.1356129-.0593083-.1755344-.1216739-.0395192-.0596874-.0532664-.1328021-.0381247-.2027671.0151417-.0699649.0578895-.1308531.1185514-.1688595.3459733-.208 1.5509867-1.07744 1.5509867-1.07744.0531754-.0435525.1219214-.0633203.190109-.0546658.0681875.0086546.1298153.0449699.1704243.1004258.0872052.1191442.0648728.2858719-.0506133.3778666-.3168534.2551467-1.55584 1.1079467-1.55584 1.1079467zm-1.4698667-.34528c-.0373438-.0616471-.0478016-.1359017-.028937-.2054649.0188646-.0695633.0654044-.128361.128777-.1626951.3542933-.1906667 1.6016-.9984 1.6016-.9984.0553086-.0414881.1253484-.0581761.1934229-.0460856.0680744.0120904.1280842.0518759.1657238.1098723.080782.1230184.0502005.2878526-.0693334.3737066-.3293333.2385067-1.6085333 1.0289067-1.6085333 1.0289067-.0639743.0375845-.1402705.0481804-.2120655.0294513-.0717951-.0187292-.1331926-.0652452-.1706545-.1292913zm-.6933333-.1982933c-.1373174.0697451-.3051835.0155448-.3757867-.1213334-.0339225-.063124-.0405172-.1373854-.0182491-.2054994.022268-.0681139.0714562-.1241386.1361158-.1550339.364-.1733333 1.6501333-.9165867 1.6501333-.9165867.0572951-.0384823.1279671-.0515227.1952231-.0360223.0672559.0155004.1250914.0581577.1597636.1178357.0732365.1270498.0346066.2891738-.0880534.3695466-.3418133.2218667-1.6591466.9470934-1.6591466.9470934zm-1.0594134-.3522134c-.0674377.0305373-.1442853.0328452-.213434.0064098-.0691486-.0264354-.1248582-.0794195-.154726-.1471564-.0305438-.0647988-.0333084-.1392588-.0076538-.2061441.0256547-.0668854.0775044-.1203974.1435472-.1481493.3730133-.1546133 1.6945066-.8306133 1.6945066-.8306133.0587652-.0354075.1295139-.0450649.1956188-.0267024.066105.0183625.1217369.0631256.1538212.1237691.0678923.1311255.0205308.2924599-.1074666.36608-.35152.2052266-1.7042134.8625066-1.7042134.8625066zm-1.4005333-.56368c-.027427-.0662601-.0266595-.1408373.0021253-.2065189.0287847-.0656816.0830994-.1167919.150408-.1415344.3813334-.13728 1.73472-.74464 1.73472-.74464.0605228-.0322958.13167-.0382582.1967238-.0164862.0650539.0217721.1182792.0693591.1471696.1315795.06032.1317334.0069333.2946667-.1248.3605334-.3612267.1878933-1.74512.77584-1.74512.77584-.1437625.0547728-.3048319-.0163327-.3612267-.1594667zm-1.0088-.4756266c-.0240195-.0674408-.0195605-.1417524.012351-.2058371.0319116-.0640847.0885278-.1124241.1568223-.1338963.3882667-.1178666 1.77008-.6579733 1.77008-.6579733.0623994-.0286092.1338102-.0303348.1975185-.0047728.0637083.0255619.114122.0761677.1394415.1399728.0550698.1369107-.0076282.292891-.1421333.3536-.3716267.1691733-1.78256.6864-1.78256.6864-.1459127.0458826-.3018159-.0328378-.35152-.1774933zm-.6420267-.3279467c-.1481444.037017-.2990685-.0496189-.3418133-.1962133-.0207864-.0685241-.0127076-.1425633.0223677-.204992s.0941087-.1078393.1634456-.125728c.3924267-.0991467 1.8005867-.5692267 1.8005867-.5692267.064044-.0242993.1351688-.0218266.1973706.0068619s.1102558.0811829.1333494.1456714c.0463992.1395367-.0241768.2910317-.1608533.34528-.3799467.1504534-1.8144534.5983467-1.8144534.5983467zm-.9672-.5567467c-.1498801.0299802-.2967199-.0636302-.3328-.21216-.0168966-.0697827-.0047379-.1434353.0336909-.2040847.0384287-.0606495.0998342-.1030983.1701491-.1176219.3979734-.0797334 1.82624-.4784 1.82624-.4784.0650898-.0209506.1358725-.0148224.196393.017003.0605206.0318255.1056853.0866697.1253137.1521703.0416.1386667-.0367467.2898133-.1768.3362667-.3861867.1338133-1.8421867.5068266-1.8421867.5068266zm-1.2597866-.832c-.0138452-.070738.0018961-.1440597.0435561-.2028816.04166-.0588218.1056005-.0980068.1769239-.108425.4007466-.0617067 1.8477333-.3861867 1.8477333-.3861867.0659485-.0174084.1361251-.0076113.1947843.0271932s.1008895.0917021.1172157.1579268c.033285.1436234-.0522064.2880428-.1941333.3279467-.3924267.1130133-1.8643734.4125333-1.8643734.4125333-.150675.0209641-.2916331-.0789825-.3217066-.2281067zm-.8944-.6662933c-.0103899-.0709431.0088185-.1430396.0531278-.1994094.0443093-.0563699.1098289-.0920635.1812188-.0987239.4062934-.04368 1.8650667-.2960534 1.8650667-.2960534.0669346-.0132496.1363911.0006381.1930845.0386072.0566935.037969.0959781.0969078.1092088.1638462.0256405.1440603-.0656248.2830877-.208.3168533-.4007466.0942933-1.6570666.2946667-1.8837866.3189333-.1521275.015228-.2890523-.0925964-.30992-.2440533zm-.5622934-.4506667c-.1525414.0070052-.2838647-.1066458-.2988266-.2586133-.0065093-.0715104.0164509-.1425795.0635685-.1967648.0471176-.0541852.11431-.0867916.1860315-.0902752.4090666-.0242667 1.87824-.2024533 1.87824-.2024533.1401593-.0194032.2697821.0777366.2905066.2177066.0186032.1461826-.0803652.2813887-.2253333.30784-.40144.07072-1.6674667.21216-1.8941867.22256zm-1.1232-1.0081066c-.0030113-.0716015.0231981-.1413537.0726155-.1932551.0494175-.0519014.1178015-.0814973.1894645-.0819983.4111467-.0055466 1.8872534-.1109333 1.8872534-.1109333.1418612-.0124143.2669401.0924906.2794133.2343467.0107734.1469064-.0951779.2766054-.24128.29536-.4021333.0485333-1.6750933.1282666-1.9018133.1282666-.152643.0005346-.2785978-.1193059-.2856534-.2717866zm-.5144533-.5040534c-.1522802-.0077333-.27193964-.1331778-.27248-.2856533.00029749-.0718517.02992766-.1404649.08202711-.1899463.05209949-.0494814.12214789-.0755378.19391959-.0721337.4125333.0131733 1.89072-.0173333 1.89072-.0173333.1456-.0090134.25792.1074666.26624.2489066.0040966.1475403-.108631.2721823-.25584.28288-.4007467.0263467-1.6778667.0422934-1.9045867.03328zm-1.0192-1.1155733c.00418919-.0714926.03730102-.1381995.09171225-.1847629.05441123-.0465635.12543308-.068971.19671442-.0620638.41322666.0325867 1.88933333.07696 1.88933333.07696.1456-.0006933.25376.1178667.2530667.2613867-.0025677.1477244-.1213041.2670729-.2690134.2704-.4000533.00416-1.6750933-.0422933-1.9038933-.0637867-.15210934-.0139427-.26600875-.1456006-.25792-.2981333zm-.46106667-.55328c-.15070889-.0225267-.25754881-.1588922-.24336-.3106133.00791899-.0711476.04430141-.1360596.10085793-.1799464s.12846988-.0630104.19935541-.0530136c.41184.052 1.88309333.17056 1.88309333.17056.0689347.0025237.1337514.0334633.179064.0854742.0453125.052011.0670803.1204553.060136.1890858-.0099903.1473763-.1345279.2605923-.2821867.2565333-.63337873-.0391071-1.26584456-.0918126-1.89695997-.15808zm-.90410666-1.20848c.01107869-.0709623.05064733-.134326.10954756-.1754253s.13202616-.0563713.20245244-.0422814c.40768.0728 1.87338666.2627734 1.87338666.2627734.06841047.0064585.13113237.040834.17338267.0950246.0422502.0541905.0602912.1234021.0498707.191322-.018053.1458018-.1466763.2522277-.29328003.2426667-.6306385-.0720638-1.25983841-.1562036-1.88725334-.2523733-.14981182-.0291276-.25045153-.1706332-.2288-.3217067zm-.61568-.92976c.01481583-.0703648.05760546-.1316809.11853889-.1698624.06093344-.0381814.13477256-.049946.20455444-.0325909.40213333.0929066 1.85813333.35568 1.85813333.35568.14213334.0208.23573334.1525333.21077334.2967466-.0264187.144153-.16019779.2430464-.30576.2260267-.62673233-.1018998-1.25132409-.2165547-1.87338667-.3438933-.14814539-.0367025-.24166347-.1829197-.21285333-.3328zm-.56853334-.9602667c.01820794-.0694392.06389239-.1284777.12654016-.1635291.06264776-.0350513.1368629-.0430965.20556651-.0222842.39797333.1130133 1.83802667.4478933 1.83802667.4478933.14213333.0277334.2288.1629334.19690666.30576-.03222679.1440927-.17216907.2372857-.31754666.2114667-.38896-.0755733-1.85258667-.4381867-1.85258667-.4381867-.14677717-.0421407-.23382575-.1929432-.19690667-.34112zm-.52069333-.9866133c.02163453-.0685212.07018147-.1253113.13450316-.1573414s.138897-.0365509.20661684-.0125253c.39173333.13312 1.81445333.53872 1.81445333.53872.06715211.0159362.12470835.058966.15899287.1188654s.04223673.1313211.02196713.1972946c-.03989761.1415976-.18386043.2269993-.32725333.1941334-.38549333-.0942934-1.82901333-.5276267-1.82901333-.5276267-.14423585-.0503286-.2235648-.2050201-.18026667-.35152zm-.46938667-1.0122667c.0250086-.067232.07634938-.1213603.14216649-.1498854s.14041969-.0289806.20658018-.0012612c.3848.1525333 1.78464.62816 1.78464.62816.06646048.0189607.12208441.0646291.15362148.1261264.03153708.0614973.03616398.133318.01277852.1983536-.0472243.1390275-.19483619.2169423-.33626667.1774933-.38133333-.1144-1.80266666-.61984-1.80266666-.61984-.1409425-.0575313-.21177526-.2156838-.16085334-.3591467zm-.41877333-1.0330666c.02815317-.066024.08202455-.1177039.14916013-.1430924s.14172328-.0222877.20651987.0085857c.37717333.1719467 1.75274667.7162133 1.75274667.7162133.13589333.0485334.20245333.19552.14976.3314134-.05341399.1367936-.2042037.2082363-.34389334.1629333-.37578666-.1345067-1.76869333-.70928-1.76869333-.70928-.13884561-.0639821-.20294221-.2257497-.1456-.3674667zm-.36538667-1.0552534c.03168491-.0642684.08817969-.1128594.15646456-.1345745s.14246883-.014681.20545544.0194812c.36746667.1899733 1.71392.8035733 1.71392.8035733.13450667.0554667.19274667.2045334.13312.3376534-.05935285.1347519-.21463096.1984558-.35152.1442133-.36746666-.1511467-1.73125333-.7959467-1.73125333-.7959467-.13550226-.0709007-.19112746-.2359425-.12618667-.3744zm-.20592-.6912533c-.13082336-.0782127-.17770451-.2450365-.10677333-.3799467.03482048-.0627085.09370289-.1085096.16305168-.1268281.06934878-.0183186.14316862-.0075709.20441499.0297615.35706666.208 1.67232.8888533 1.67232.8888533.06246333.028631.11036097.0817458.13240441.1468265.02204344.0650806.01628274.13637-.01592441.1970668-.06690164.131099-.22474017.1868604-.35914667.12688-.36053333-.17056-1.69034667-.8826133-1.69034667-.8826133zm-.36538666-1.4650133c.03794928-.0607848.0990205-.1034897.16913772-.1182718.07011722-.0147822.14323069-.0003663.20248894.0399251.34805334.22464 1.62517334.9706667 1.62517334.9706667.12826666.0693333.17333333.2239466.09914666.34944-.07309011.1277656-.23376357.1754178-.36469333.10816-.35013333-.1872-1.64181333-.96512-1.64181333-.96512-.12762317-.0838675-.16723487-.252979-.09013334-.3848zm-.20384-1.0975467c.04095544-.059222.10436457-.0991016.17548225-.1103651.07111768-.0112636.14374664.0070703.20099775.0507384.33488.24336 1.57386666 1.0517867 1.57386666 1.0517867.1248.0741867.16085334.2315733.08181334.3549867-.08014723.1228484-.24209483.162044-.36954667.08944-.34181333-.2066134-1.59328-1.04832-1.59328-1.04832-.12212949-.0907361-.15251033-.2608688-.06933333-.3882667zm-.14768-1.1051733c.04372083-.0568872.10875074-.0934836.1800671-.101335.07131636-.0078513.14275022.0137215.19779956.059735.32378667.26 1.51909334 1.12944 1.51909334 1.12944.05785619.0373951.0976269.0970959.10984611.1648928s-.00420597.1376261-.04536611.1928672c-.08541296.1198394-.24983912.1515654-.37370667.0721066-.32933333-.22256-1.53781333-1.1259733-1.53781333-1.1259733-.11841915-.0963848-.14038173-.2687301-.04992-.3917333zm-.09290667-1.1121067c.04690274-.0542651.11380887-.087187.18541999-.091238.07161112-.0040509.14180328.0211154.19452668.0697447.30853333.2752533 1.46085333 1.2029333 1.46085333 1.2029333.11786667.08736.13866667.2468267.04645333.3605333-.09111888.1159681-.25744942.1395112-.37717333.0533867-.31893333-.2385067-1.47957333-1.2015467-1.47957333-1.2015467-.11289487-.1024588-.12627549-.2751904-.03050667-.3938133zm-.03674667-1.1134933c.04908757-.0520264.11721876-.0818582.18874298-.0826427.07152423-.0007846.14029339.0275456.19051036.0784827.29536.2905066 1.40053333 1.27504 1.40053333 1.27504.05361756.0432095.08700172.1066505.09225304.1753115s-.01809682.136441-.06451971.1873018c-.09690709.1109181-.2638427.1261773-.37925333.0346667-.30645333-.25584-1.41717333-1.2736534-1.41717333-1.2736534-.1079984-.1077382-.11257194-.2812279-.0104-.3945066zm.01664-1.11488c.05184245-.0496989.12164472-.0762143.19340877-.0734692.07176405.002745.13933682.0345152.18723123.0880292.27802667.3050666 1.33466667 1.3416 1.33466667 1.3416.10608.0991466.11093333.26.00901333.364-.10237623.1054587-.26944604.1121658-.37994666.0152533-.29536-.2690133-1.35546667-1.3409067-1.35546667-1.3409067-.10171906-.1138201-.09685043-.2872651.01109333-.3952zm.07141334-1.1121067c.05423009-.0472383.12541391-.0702543.19703443-.0637077.07162053.0065467.13745185.042087.1822189.0983744.26416.3168533 1.26672 1.4033066 1.26672 1.4033066.0493512.0484365.07639706.1151758.07468857.184304-.0017085.0691282-.03201822.13445-.0837019.1803894-.10791363.1004441-.27563664.0986144-.38133334-.00416-.27872-.28288-1.28405333-1.4053867-1.28405333-1.4053867-.09730782-.1177635-.08414128-.2913781.02981333-.39312zm.12618666-1.10864c.05641887-.044602.12861872-.0642014.19984656-.0542505.07122784.009951.13529182.0485873.17732678.1069438.2496.33072 1.196 1.4664 1.196 1.4664.04618473.0511575.06930035.1190561.0639241.1877672s-.03877125.132188-.09235077.1755395c-.11237596.0944751-.27905027.0844198-.37925333-.02288-.26624-.29744-1.21541334-1.4677867-1.21541334-1.4677867-.09009624-.1230978-.06816905-.2951653.04992-.3917333zm.18165334-1.1010133c.05853502-.0410929.13126065-.0566235.20147501-.0430252s.13188359.055157.17084499.1151318c.23365333.3425067 1.1232 1.5232534 1.1232 1.5232534.04361903.053405.0634162.1223676.05476669.1907774s-.04498811.1302747-.10052669.1711426c-.11738989.0891055-.2839701.0708334-.37925334-.0416-.25098666-.3092267-1.14053333-1.5274134-1.14053333-1.5274134-.08302915-.1275717-.05233823-.2977392.07002667-.3882666zm.23573333-1.08992c.06061234-.0388127.13446454-.0511388.20439623-.0341142s.12985416.0619175.16584377.1242475c.21493333.3536 1.04346667 1.57872 1.04346667 1.57872.0410887.0551359.05761152.1247803.04566913.1924975-.01194238.0677173-.05129197.1275082-.10876247.1652625-.12143285.0831778-.28669269.0570041-.37648-.0596267-.23434666-.3217066-1.06218666-1.5821866-1.06218666-1.5821866-.07699776-.1315277-.0380783-.3002801.08874666-.3848zm.2912-1.0767467c.06231799-.0353418.13634109-.0437819.20501544-.0233758s.1260775.0678985.15898456.1315358c.1976.364.96373333 1.62864.96373333 1.62864.03807535.0571077.05095384.1273745.03560642.1942735-.01534741.066899-.05756621.1245258-.11672642.1593265-.12521642.0769212-.28872265.0425148-.37232-.0783467-.2184-.3328-.98106666-1.6321066-.98106666-1.6321066-.07206446-.1347887-.02495414-.302428.10677333-.3799467zm.34458667-1.0608c.0640339-.0322878.13846263-.0370781.2061072-.0132651s.12265928.0741713.15234613.1394518c.17818667.3744.88053333 1.6744.88053333 1.6744.03553631.0589954.04511681.1300524.02647395.1963527-.01864287.0663004-.0638521.1219512-.12492728.1537806-.12909316.0713016-.29144471.0281913-.36816-.09776-.20314667-.3432-.89925333-1.6799467-.89925333-1.6799467-.06470669-.1382373-.00869622-.3029019.12688-.3730133zm.39728-1.0434667c.06583528-.0291283.14072254-.0300479.20725325-.002545.06653071.0275028.11890945.0810324.14496008.148145.15946667.3813334.79594667 1.716.79594667 1.716.03216455.0610773.03775408.1327057.01545354.1980331-.02230054.0653275-.07052232.1185866-.13332021.1472469-.13218174.0640459-.29135787.0127185-.36122667-.11648-.18512-.3536-.81328-1.72224-.81328-1.72224-.05790883-.1413454.00562585-.3032367.14421334-.3674666zm.44928-1.0205866c.06693092-.0258761.14153258-.0232545.20648201.007256s.11459594.0862555.13741132.1542906c.13936.38896.70858667 1.7541334.70858667 1.7541334.02935389.0626299.03156049.1345974.00609873.1989081-.02546176.0643106-.07633463.115263-.1406054.1408252-.13567115.0563625-.29177724-.0025569-.35637333-.1345067-.16570667-.36192-.72453334-1.7610666-.72453334-1.7610666-.05035504-.144205.02134146-.3025475.16293334-.35984zm.4992-.9984c.0683074-.0223154.14276587-.0157615.20612469.0181434.06335882.0339048.11011958.0922182.12944864.1614299.16709333.5498133.62053333 1.7888.62053333 1.7888.02606396.0635673.02477363.1350672-.00356698.1976527-.0283406.0625855-.08122519.1107219-.14619302.1330673-.13834918.0512048-.29246887-.0157638-.34944-.15184-.14906666-.3688533-.63786666-1.7957333-.63786666-1.7957333-.04280094-.1464794.03679272-.3007874.18096-.3508267zm.54842666-.9706667c.06910455-.0186037.14280013-.0083732.20422411.0283505.06142397.0367237.10531948.0967977.12164256.1664762.10122667.4021333.5304 1.81792.5304 1.81792.02322875.0646702.01876887.1360562-.01232847.1973324s-.08608105.1070217-.15199153.1264542c-.14074589.0430909-.29073657-.03069-.34250667-.16848-.12826666-.37648-.54634666-1.82624-.54634666-1.82624-.03587117-.1483632.05064448-.2988517.19690666-.3425066zm.59626667-.9429333c.07005317-.0156552.14346151-.0018921.20308603.038076s.10024611.1026426.11238064.1733906c.08112.4062934.44096 1.8421867.44096 1.8421867.04021333.1386667-.0416.2780267-.18165334.3154667-.14255967.036994-.2890447-.0444883-.3328-.18512-.11024-.3834134-.45552-1.8512-.45552-1.8512-.02908592-.1503778.06531353-.2970177.21424-.3328zm.64272-.9124267c.0708453-.0118884.14347304.0056665.20106714.0486003.05759411.0429338.09515992.1075231.10399953.178813.06101333.4104534.29813333 1.6466667.34666666 1.8622934.01687851.0667192.00546016.1374469-.03155612.1954653-.03701627.0580184-.09634538.0981786-.16396388.110988-.14447662.0292676-.28644475-.0601875-.3224-.2031467-.09152-.38688-.36192-1.872-.36192-1.872-.02202634-.1507828.07847027-.2922111.22810667-.3210133zm.68709333-.8784533c.07116828-.0081195.1425748.0130881.19777361.0587383s.08943123.1118075.09481306.183235c.04090667.4125333.21493333 1.6570667.25584 1.8768533.01366006.0675736-.00123693.1377879-.04115856.1939933-.03992163.0562055-.10131227.0933962-.16961477.1027534-.1455595.0222127-.28301053-.073485-.31269334-.2177067-.07072-.3917333-.2704-1.8879466-.2704-1.8879466-.01370207-.1521627.09418573-.2883939.24544-.30992zm.72938667-.8437867c.15253333-.00832.27733333.10816.2808.2572267.02010667.4125333.1317333 1.664.1615467 1.8858666.010629.0682473-.0074973.1378479-.05006565.1922409-.0425684.0543929-.1057729.0887149-.17457438.0947991-.14641552.0146544-.27878801-.0875919-.3016-.23296-.05130667-.3945066-.17541334-1.8997333-.17541334-1.8997333-.00624654-.1523985.1075137-.2831924.25930667-.2981333zm.7709867-.80496c.0718111-.0011403.1410064.0269317.1917255.0777815.0507191.0508499.0786129.1201172.0772878.1919252-.00416.41184.0450667 1.6667733.06656 1.8921066.0069443.0686305-.0148235.1370748-.060136.1890858-.0453126.0520109-.1101293.0829505-.179064.0854742-.1464213.0081061-.2731207-.1008433-.28704-.2468266-.03328-.39728-.0832-1.9066667-.0832-1.9066667 0-.1511467.1213333-.28288.2738667-.28288zm.52208-.49781333c.006387-.15335833.1350071-.2730121.2884266-.26832.0716588.00209377.1393703.03329796.1875156.08641479s.0725667.12355926.0676311.19507854c-.0256533.40976-.0388267 1.66608-.0284267 1.8928.0038221.0688708-.020947.1362661-.0684581.1862709-.0475112.0500048-.1135524.0781861-.1825285.0778891-.1470315.000557-.2685406-.1145408-.2759467-.2613867-.0138667-.4000533.0117867-1.90874663.0117867-1.90874663zm.83408-.74048c.0063355-.07353943.0417252-.14151947.0983329-.18888775.0566077-.04736829.1297628-.07021652.2032671-.06348559.1525333.01386667.2586133.1456.2405866.29397334-.0485333.40490666-.1220266 1.66122663-.1220266 1.88794663.0004778.0689691-.0275254.1350788-.0773979.1827201-.0498725.0476414-.1171937.0725916-.1860688.0689599-.1475065-.0066779-.2636178-.1282891-.2634667-.2759466.0048534-.40144.1067734-1.90528003.1067734-1.90528003zm.8680533-.69888c.0100999-.07345155.0492614-.13977481.1087004-.1840934.0594391-.04431859.1341805-.06292289.2074596-.05163994.1511467.0208.2496.15877334.2253333.30506667-.0693333.39936-.20592 1.6508267-.2177066 1.8789333-.0022879.0690933-.0332869.1341022-.0855329.1793732-.052246.0452711-.1210049.0667024-.1897205.0591335-.1459457-.0152772-.2545696-.141853-.24752-.2884267.0235734-.40143997.1989867-1.89834663.1989867-1.89834663zm.9041067-.6552c.0140736-.07263673.0565191-.13666797.11794-.17791887.0614209-.04125089.1367507-.0563187.2093133-.0418678.0707285.01263811.1332276.05361338.1730216.11343537.0397941.05982198.0534308.13330089.0377517.20341796-.0922133.39312-.2877333 1.63973334-.3113066 1.86437334-.0059202.06860318-.0399951.1316888-.0941213.17425405s-.123467.0608066-.1915321.05038595c-.1454268-.02148026-.2484826-.15319663-.2343466-.29952.0416-.40213334.29328-1.88656.29328-1.88656zm.936-.60944c.0179535-.071979.0639961-.13376473.1278374-.17154833.0638412-.0377836.1401587-.04841508.2118959-.02951834.1456.03536.2301867.18304.1920533.32656-.1116266.38757333-.40352 1.84565333-.40352 1.84565333-.0095294.06817592-.0467922.12938941-.1029765.16916479-.0561844.03977539-.1263015.05458085-.1937701.04091521-.1446909-.02775199-.2414989-.16499872-.2190934-.31061333.06032-.40144.3875734-1.87061333.3875734-1.87061333zm.9637333-.56090667c.0459039-.14644361.2011026-.22868036.3480533-.18442667.0689933.01976592.1269373.066822.1604388.13029173.0335015.06346974.039661.13785951.0170546.20597494-.1303467.38272-.4957334 1.82208-.4957334 1.82208-.0124786.06787336-.0525015.12755132-.1105605.16485622-.0580591.03730491-.1289723.04890717-.1958928.03205045-.1426375-.03594964-.2320003-.17746629-.2031467-.32170667.07904-.39936.4790934-1.84912.4790934-1.84912zm.99008-.51306667c.0513067-.1456.2149333-.21493333.3584533-.16501333.0679026.02291044.1234207.07269505.1535682.13770873s.0322799.13955376.0058985.2061846c-.1483733.37717334-.5858667 1.79434667-.5858667 1.79434667-.0164789.06682248-.0596042.12398136-.1193363.15817014-.0597321.03418877-.1308594.04242448-.1968237.02278986-.1402718-.04315933-.2226345-.18812984-.1878933-.33072.0991467-.3952.572-1.82346667.572-1.82346667zm1.3818133-.60874666c.0664359.02660925.1191885.07909998.146128.14540258s.0257477.14071156-.0033013.20611742c-.1677867.36954666-.6753067 1.76314666-.6753067 1.76314666-.0202397.0656464-.0663651.12020556-.1277297.15108411-.0613646.03087854-.132665.03540788-.1974436.01254256-.1385044-.04950546-.2138346-.19894594-.1712533-.33973333.11856-.39034667.6621333-1.79226667.6621333-1.79226667.0629275-.13995151.2255696-.20470146.3674667-.14629333zm1.0434667-.39242667c.1386667.06378667.19344.22533333.1248.35984-.1844267.35984-.7626667 1.7264-.7626667 1.7264-.0237397.06401689-.0722751.11576638-.1346404.14355678-.0623653.02779041-.1332982.02927675-.1967729.00412322-.1357165-.05696533-.2028346-.21042168-.1525333-.34874667.1352-.3848.7488-1.7576.7488-1.7576.0703669-.13525731.2345545-.19141068.3730133-.12757333zm1.0642667-.33904c.0634983.03324613.1106605.09098775.1305586.15984567s.0108051.14285577-.025172.20484766c-.2024533.35152-.8472533 1.68688-.8472533 1.68688-.0274383.06260993-.0788526.11159122-.1427182.1359644-.0638655.02437319-.1348404.02209962-.1970151-.00631106-.1329178-.06332452-.1931867-.21947589-.13728-.35568.1573866-.37717334.8389333-1.71738667.8389333-1.71738667.0775228-.13162932.2447222-.17922625.3799467-.10816zm1.0781333-.28496c.0617539.03657422.105914.09675887.1222723.16664177.0163584.0698829.003499.14341481-.0356056.20359823-.2190934.34042667-.92976 1.64250667-.92976 1.64250667-.031092.06084538-.0851731.10677261-.1502514.12759767-.0650784.02082506-.1357756.01482693-.1964153-.01666434-.1298111-.06965887-.1817614-.22917687-.1178667-.36192.1754134-.36954667.9221334-1.67232.9221334-1.67232.0841249-.12771719.2534615-.16731029.3854933-.09013333zm1.0913067-.23088c.0600278.03952211.1013046.10185138.1142648.17254345.0129602.07069206-.0035212.14361034-.0456248.20185655-.23712.32864-1.0122667 1.59328-1.0122667 1.59328-.0712379.12283842-.228368.16498772-.35152.09429333-.1258583-.07645207-.1689909-.23858143-.09776-.36746666.19136-.36192 1.0053333-1.62448 1.0053333-1.62448.0899299-.12332265.2609203-.15416199.3882667-.07002667zm.7106666-.12549333c.0963039-.11789333.2678941-.14010269.39104-.05061334.0580381.04235347.0962616.10657242.1058174.17778284.0095559.07121041-.010385.14323452-.055204.1993905-.2530667.31616-1.0913067 1.54058666-1.0913067 1.54058666-.03719.05751877-.0957318.09788233-.1627155.11218952s-.1369074.00138286-.1943512-.03592285c-.1213994-.08292122-.1559388-.24675386-.0783466-.37162667.21008-.35013333 1.0850666-1.57178666 1.0850666-1.57178666zm1.4989867-.17056c.11856.09568.1303467.26554666.0325867.37856-.2690134.30229333-1.1675734 1.48373333-1.1675734 1.48373333-.0394385.0556865-.0994889.09331027-.1668017.10450737s-.1363094-.00496044-.1916516-.0448807c-.1169195-.08934605-.1442417-.25419011-.0624-.37648.2288-.33973334 1.16272-1.51632 1.16272-1.51632.0984533-.11162667.2773333-.1248.39312-.02912zm1.1141867-.06586667c.053283.04796517.0847821.11552716.0872663.18717605s-.02426.14123026-.074093.19277062c-.2842667.28912-1.2389867 1.4248-1.2389867 1.4248-.0890039.11112636-.2510889.12941128-.3626133.04090666-.1124526-.09481978-.1313161-.26094078-.0429867-.37856.2440534-.32864 1.2369067-1.456 1.2369067-1.456.1070924-.10925364.281444-.11415632.3945067-.01109333zm.71968-.01802667c.1116227-.10574213.287355-.10265911.3952.00693334.0510231.05063848.0791392.11992661.0778301.19180081-.0013092.07187421-.0319301.14009244-.0847635.18883919-.2967466.27386666-1.3076266 1.36170666-1.3076266 1.36170666-.0970667.10261334-.2565334.12202667-.3633067.02288-.1079416-.10008845-.118315-.26728297-.0235733-.37994666.2606933-.31477334 1.30624-1.39221334 1.30624-1.39221334zm1.5086933.04992c.048669.0529111.073603.12341215.0690208.19515654-.0045822.07174438-.0382827.13850053-.0932875.18479013-.30992.25792-1.3734933 1.29653333-1.3734933 1.29653333-.0471494.04995397-.1124925.07872316-.1811756.07976777-.0686832.00104461-.134871-.02572411-.1835177-.0742211-.1029506-.10508267-.1047852-.27263507-.00416-.37994667.2752533-.3016 1.3728-1.32773333 1.3728-1.32773333.1144-.10538667.2925866-.08458667.3938133.02565333zm.7182933.05546667c.1202805-.09634282.2958552-.07711025.3924267.04298667.0461725.05515677.0676452.12686676.0593851.19832266-.00826.07145589-.0455266.13637585-.1030651.179544-.3217067.24197334-1.4352 1.22650667-1.4352 1.22650667-.0487762.04825311-.1151379.07450125-.1837245.07266878s-.1334521-.03158667-.1795822-.08237545c-.0978264-.11023449-.0923447-.27773105.01248-.38133333.2905067-.28496 1.43728-1.25701333 1.43728-1.25701333zm1.4969067.19690667c.0431432.05725213.061094.12961268.0497118.20039112-.0113821.07077844-.0511142.13386281-.1100318.17470221-.3355733.22602667-1.4962133 1.15301333-1.4962133 1.15301333-.0507982.04673151-.1186802.07034114-.1875136.06521804-.0688335-.0051231-.1324725-.0385215-.1757931-.09225804-.0914052-.11493943-.0767773-.28133155.03328-.37856.3029867-.27178666 1.4976-1.18490666 1.4976-1.18490666.0597435-.04362705.134441-.06157702.2074841-.04985888s.1383772.05213308.1814759.11225888zm1.0968533.20869333c.0398158.05985426.0535909.13332211.0381625.2035346-.0154284.07021248-.0587349.13113726-.1199758.1687854-.3445867.208-1.5502933 1.07605333-1.5502933 1.07605333-.052758.04429382-.1215506.06467061-.1899212.05625577-.0683705-.00841484-.1301691-.04486439-.1706122-.1006291-.0869925-.11906227-.065007-.28548001.04992-.37786667.3175467-.25514666 1.5572267-1.10725333 1.5572267-1.10725333.0617818-.04069034.1372599-.05501075.2096521-.03977713.0723923.01523361.1356979.05875851.1758412.12089713zm1.0829867.26485333c.0369378.06114634.0473144.13472124.0287286.20369835-.0185859.06897712-.0645234.12737819-.1271819.16168832-.35568.19205333-1.6029867.9984-1.6029867.9984-.0551787.04132074-.1249898.05798112-.1928816.04603111-.0678917-.01195-.1278183-.05144622-.1655717-.10912444-.0808072-.12368679-.0492483-.28914152.0714133-.3744.32864-.23850667 1.6071467-1.02890667 1.6071467-1.02890667.0641432-.03710031.1404197-.04713145.2119742-.02787678.0715545.01925466.1324964.06621002.1693591.13049011zm.6954133.19621334c.1369639-.06938314.3042561-.01557751.3750934.12064.0335947.06351018.0400204.13792295.0178102.20625198-.0222102.06832902-.0711605.12474197-.1356769.15636135-.364.17194667-1.6501333.91589333-1.6501333.91589333-.0573773.03836379-.1280211.05140577-.1953144.03605818-.0672932-.01534759-.1252963-.05773008-.1603656-.11717818-.0736266-.12759133-.0346548-.29048139.0887466-.37093333.34112-.22186667 1.65984-.94709333 1.65984-.94709333zm1.0580267.35152c.1405526-.06196759.304791.00082037.36816.14074666.0308331.06488407.0338347.13954478.0083099.20669464s-.0773624.12096525-.1435099.14898536c-.3730133.15530667-1.6952.832-1.6952.832-.0588979.03515177-.1297161.04436463-.1956473.02545209-.0659313-.01891254-.1210975-.06426437-.152406-.12529209-.067678-.13060177-.0210145-.29133171.10608-.36538666.3508266-.20453334 1.7042133-.8632 1.7042133-.8632zm1.4005333.56437333c.027427.0662601.0266596.14083728-.0021252.20651892s-.0830995.11679191-.1504081.14153441c-.3813333.13658667-1.73472.74602667-1.73472.74602667-.0608711.03211996-.1323038.03767948-.1974116.01536432s-.1181117-.07052432-.1464817-.13323099c-.0603312-.13348556-.0058472-.29084981.1241066-.35845333.36192-.18789333 1.7465067-.77653333 1.7465067-.77653333.143552-.05391786.3038509.01698358.3605333.15946666zm1.0101867.47493333c.0239393.06771699.019195.14227216-.0131349.20640842s-.0894427.11229351-.1581184.13332492c-.38688.11856-1.7693867.65866666-1.7693867.65866666-.0624494.028196-.1336953.02971133-.1972871.00419612-.0635918-.02551522-.1140316-.07585508-.1396729-.13939612-.0541555-.13690113.008699-.29220661.1428267-.35290666.3695466-.16917334 1.78256-.68778667 1.78256-.68778667.14352-.04853333.3022933.03466667.3522133.17749333zm.9831467.52485334c.0211845.06862376.0131999.14294093-.0220788.20549828-.0352787.06255734-.094743.107843-.1644279.12522172-.3924267.09984-1.80128.56853333-1.80128.56853333-.0636472.02472462-.1345966.02260447-.1966538-.00587654-.0620573-.02848101-.1099258-.08089204-.1326795-.14527013-.0465603-.13915657.0233365-.2904985.1594666-.34528.38064-.15114666 1.8165334-.59904 1.8165334-.59904.1479173-.03659226.2983794.04995403.34112.19621334zm.9568.57338666c.0175207.06963767.0057006.14341417-.0326985.2040927-.0383992.06067853-.1000137.10294362-.1704482.11692064-.3979733.08112-1.82624.47978666-1.82624.47978666-.1365867.03744-.2814933-.02981333-.3217067-.17056-.0398904-.14127246.0378055-.28904711.1768-.33626666.3875734-.13242667 1.8435734-.50682667 1.8435734-.50682667.1493812-.02868989.2949596.06500524.33072.21285333zm.92768.61984c.0136369.07044995-.0021301.14341224-.04364.20194506-.0415098.05853283-.1051512.09754393-.1761467.10797494-.4007467.0624-1.8477333.38826667-1.8477333.38826667-.0661131.01677948-.1361866.00653871-.1947327-.02845889-.0585462-.03499759-.1007442-.09187021-.1172673-.15804778-.0325387-.14350707.0526674-.2874444.1941333-.32794666.3917333-.11232 1.86368-.41253334 1.86368-.41253334.1510735-.02165153.2925791.07898818.3217067.2288zm-.8333867 18.25546667c0 6.6525333-5.3941333 12.0466667-12.0466667 12.0466667-6.6525333 0-12.0466666-5.3941334-12.0466666-12.0459734 0-6.65392 5.3941333-12.0459733 12.0466666-12.0459733 6.6525334 0 12.0466667 5.3920533 12.0466667 12.0459733zm1.72848-17.58986667c.0103921.07116818-.0087623.14349121-.0530184.20018608-.044256.05669487-.1097661.09283262-.1813283.10002726-.4062933.04229333-1.8650666.29466666-1.8650666.29466666-.1395444.02761555-.2751015-.06296264-.3029867-.20245333-.025171-.14479179.0669779-.28407966.21008-.31754667.3986667-.09429333 1.6563733-.29466666 1.8824-.31893333.1518043-.01412686.2880576.09316873.30992.24405333zm.5616.45066667c.1529272-.00774533.2848857.10619104.29952.25861333.0138667.14976-.09984.27733334-.2489067.28773334-.4090666.02357333-1.8775466.20245333-1.8775466.20245333-.1410707.01941562-.2715122-.07826094-.2925867-.21909333-.0184691-.14594425.0810834-.28061496.2260267-.30576.4007466-.0728 1.66816-.21285334 1.8941866-.22464zm1.1238933 1.00810667c.0032143.07177439-.0230224.14174833-.0726337.19371573-.0496112.0519675-.1182934.0814205-.1901396.0815376-.4104533.0055467-1.8858667.1095467-1.8858667.1095467-.0680982.0065477-.1359908-.0143761-.1885892-.0581214-.0525985-.0437452-.085545-.1066876-.0915174-.1748386-.0108036-.14667064.0947628-.27627088.2405866-.29536003.40144-.04853334 1.6750934-.12757334 1.9025067-.12896.1524755.00054036.27792.1201998.2856533.27248zm2.8981334 3.38208003c-.0112604.0706888-.0507979.1337533-.1095183.1746875-.0587205.0409343-.1315687.0562145-.2017884.0423258-.4090667-.0728-1.8733867-.2627733-1.8733867-.2627733-.0687029-.0058832-.1318623-.0400804-.1743416-.0943962-.0424794-.0543157-.06045-.1238544-.049605-.1919505.0174024-.1459716.146691-.2523368.29328-.24128.3952.0381333 1.6591466.2107733 1.8872533.25168.1483733.0277333.2509867.17264.2288.3217067zm.61568.9290666c-.0142894.0705138-.0568663.1320846-.1177961.1703459-.0609299.0382614-.1348831.0498665-.2046039.0321075-.40352-.0929067-1.8581334-.3549867-1.8581334-.3549867-.0680287-.0095469-.1291154-.0467093-.1688699-.1027329-.0397544-.0560235-.0546617-.125955-.0412101-.1933204.0244888-.1452021.1589183-.2454132.3050667-.2274134.6264315.1025642 1.2507836.2174487 1.8726933.3445867.1469867.0339733.24336.1844267.2128534.3321067zm.3716266.61776c.1456.0422934.2343467.1962134.1969067.3425067-.018187.0694211-.0639052.1284194-.1265887.1633599-.0626834.0349405-.1369074.0427993-.205518.0217601-.3986666-.11232-1.8380266-.4458133-1.8380266-.4458133-.0676978-.0129999-.1270687-.0532716-.1641797-.1113642-.0371111-.0580926-.0486951-.1288917-.0320337-.1957825.0322242-.1438434.1715789-.2371531.3168534-.21216.3903466.07696 1.8525866.4374933 1.8525866.4374933zm.7162134 1.3298134c-.0214499.0682853-.0698265.124866-.1339494.1566657-.064123.0317998-.138443.0360666-.205784.0118143-.3924266-.13312-1.8151466-.5380267-1.8151466-.5380267-.0668629-.0161132-.1241139-.0591019-.1582369-.1188171-.0341229-.0597151-.0420934-.1308641-.0220298-.1966496.039587-.1412216.1827296-.2268026.3258667-.1948266.38688.0942933 1.8304.5290133 1.8304.5290133.1428266.0485333.22464.208.17888.3508267zm.4707733 1.0115733c-.0513067.14144-.208.208-.3487467.1511467-.3854933-.1525334-1.7860266-.6267734-1.7860266-.6267734-.0659781-.0196393-.1210322-.0654466-.1523409-.1267538-.0313086-.0613073-.0361388-.1327631-.0133658-.1977262.0460727-.1397297.193885-.2185222.3355733-.17888.3813334.1144 1.8026667.61984 1.8026667.61984.1407467.0554667.2135467.2177067.16224.3591467zm.41808 1.0351467c-.0286815.0655304-.0827756.1165819-.149855.1414262-.0670793.0248442-.1413773.0213453-.205825-.0096929-.37648-.1712533-1.7520533-.71552-1.7520533-.71552-.0652689-.0221842-.1184567-.0703743-.146953-.1331447-.0284962-.0627705-.0297631-.1345314-.0035004-.1982686.0540077-.1376587.2065225-.2087306.3466667-.1615467.3744.13312 1.7666133.7085867 1.7666133.7085867.1386667.0624.20384.2288.1449067.36816zm.3653867 1.0538666c-.0315356.0644111-.0880271.1131344-.1563712.1348683-.068344.021734-.1426018.0145899-.2055488-.0197749-.3674667-.1906667-1.71392-.8035734-1.71392-.8035734-.0638053-.0256742-.114189-.0765387-.1392562-.1405848-.0250673-.0640461-.0225963-.1355976.0068295-.1977618.0598878-.1342019.2146365-.1976885.35152-.1442134.3688533.1525334 1.7319467.7973334 1.7319467.7973334.1338133.0693333.19136.2385066.1248.3730133zm.3133866 1.0705067c-.034828.0623205-.0934558.1078392-.1624633.1261366-.0690076.0182975-.1424863.007807-.2036167-.0290699-.35984-.2086934-1.6730133-.8888534-1.6730133-.8888534-.0623014-.0288124-.110084-.0818838-.1322221-.1468571s-.0166997-.1361785.0150488-.1970362c.0671487-.1308164.2247253-.1864854.3591466-.12688.3605334.1712533 1.68896.8826133 1.68896.8826133.1325407.076816.1803732.2448432.10816.3799467zm.2586134 1.08576c-.0378351.0610984-.0989863.1040902-.1692842.1190138-.070298.0149236-.1436414.0004837-.2030358-.0399738-.3466667-.22672-1.6251734-.9720533-1.6251734-.9720533-.0608796-.0318386-.105944-.087363-.1245752-.1534909-.0186313-.0661278-.0091818-.1370113.0261219-.1959491.0725918-.1278849.232884-.1761253.364-.1095467.35152.1885867 1.6432.9672 1.6432.9672.12688.0832.1664.2565333.0887467.3848zm.2031466 1.09616c-.0408434.0591236-.1040641.098999-.1750154.1103878-.0709512.0113889-.1434758-.0066971-.2007712-.0500678-.3355734-.2426667-1.5738667-1.0510933-1.5738667-1.0510933-.0594762-.0348397-.1020063-.0926067-.117611-.1597462s-.0029104-.1377418.0351043-.1952405c.0799686-.1234944.2424557-.1630512.37024-.0901333.3404267.20592 1.5918934 1.0469333 1.5918934 1.0469333.1234151.0901819.15424.2613976.0700266.38896zm.1483734 1.10656c-.0440783.0568677-.1093959.0933552-.1809312.1010711-.0715353.0077158-.1431312-.014004-.1983222-.0601644-.3217066-.26-1.5190933-1.1287467-1.5190933-1.1287467-.0572443-.0380601-.0964862-.0978243-.1086565-.1654806-.0121703-.0676562.0037843-.1373494.0441765-.1929727.0858785-.1196948.2504926-.1510934.3744-.0714134.3300267.2232534 1.5385067 1.1266667 1.5385067 1.1266667.1183274.0961389.1403.2682576.04992.39104zm.09152 1.11072c-.0465725.0544955-.1133397.0876612-.1849025.0918477-.0715627.0041865-.1417418-.0209677-.1943509-.069661-.3092266-.2752534-1.4615466-1.20224-1.4615466-1.20224-.0559491-.0405978-.0925563-.1025803-.1010981-.1711771-.0085417-.0685967.011747-.137664.0560314-.1907429.0918869-.1147551.2573545-.1378719.3771733-.0526934.3189334.2392 1.4795734 1.2015467 1.4795734 1.2015467.1130542.1022747.1258712.2753041.02912.39312zm1.4844266 1.2584 2.0314667-2.04672-2.3289067-1.7028267 1.68896-2.34-2.56672-1.3159466 1.3034667-2.5743467-2.7407467-.8992533.8826134-2.74768-2.8482134-.4610667.4437334-2.8496-2.8842667-.00901333-.0110933-2.88565334-2.8502934.44373334-.4582933-2.8496-2.7490667.88330666-.8999466-2.74144-2.5757334 1.30277334-1.3159466-2.56602667-2.3406934 1.68757333-1.70144-2.32821333-2.04672 2.03424-2.04672-2.03424-1.7028266 2.32821333-2.33792-1.68757333-1.3201067 2.56672-2.5722667-1.30346667-.8999466 2.74213334-2.7469867-.884-.4610667 2.8496-2.8502933-.44373334-.00832 2.88565334-2.88773333.00970666.44512 2.84890667-2.84890667.4610667.884 2.74768-2.74282667.8992533 1.30346667 2.5743467-2.56741333 1.3159466 1.68826666 2.34-2.32821333 1.7028267 2.03424 2.04672-2.03424 2.0453333 2.32821333 1.70144-1.68826666 2.3406934 2.56741333 1.3180266-1.30346667 2.5736534 2.74282667.89856-.884 2.7490666 2.8496.45968-.44581333 2.8502934 2.88773333.0076266.00832 2.8856534 2.8496-.4437334.46176 2.8482134 2.7469867-.8833067.8999466 2.7407467 2.5722667-1.3006934 1.3201067 2.5653334 2.33792-1.68896 1.70352 2.3323733 2.04672-2.0335467 2.0460266 2.0335467 1.70144-2.33168 2.3406934 1.6896533 1.3159466-2.5660266 2.5757334 1.3006933.8999466-2.7407467 2.7490667.8833067.4576-2.84752 2.8509867.4437333.0110933-2.8863466 2.8842667-.0069334-.4437334-2.8509866 2.8482134-.45968-.8826134-2.7490667 2.7400534-.89856-1.3034667-2.5736533 2.5674133-1.3173334-1.68896-2.3413866 2.3289067-1.7021334z" fill="#fff" transform="translate(6 6)"/></svg>