<?xml version="1.0" encoding="utf-8"?>
<!-- Generator: Adobe Illustrator 19.2.1, SVG Export Plug-In . SVG Version: 6.00 Build 0)  -->
<svg version="1.1" id="layer" xmlns="http://www.w3.org/2000/svg" xmlns:xlink="http://www.w3.org/1999/xlink" x="0px" y="0px"
	 viewBox="0 0 652 652" style="enable-background:new 0 0 652 652;" xml:space="preserve">
<style type="text/css">
	.st0{fill:#ffffff;}
	.st1{fill:#383336;}
</style>
<path class="st0" d="M164.7,250.6l11.2,40.3h-23.2L164.7,250.6z M144.3,319.1l-10.2,33.4h59.6l-9.6-33.4H144.3z M299.8,226.4H185.4
	v35.9h36.1v90.2h58.1c-3.6-2.2-28.2-21.8-28.2-58.3C251.4,263.9,269.8,234.2,299.8,226.4z M319.6,320.2c13.5,0,24.3-11.2,24.3-25.4
	c0-14.1-10.2-26.8-23.8-26.8c-13.7,0-24.5,12.7-24.5,26.8C295.6,309,305.7,320.2,319.6,320.2z M439.6,305.7l-23.2-79.3h-59.4v126.1
	h37.1v-79h0.3l23,79h60V226.4h-37.5v79.3H439.6z M87,352.5l10.7-35.4H57.9v-10.7h43l10.2-33.9H57.9v-10.3h56.2l10.8-35.9H15v126.1
	H87z"/>

</svg>
