<?xml version="1.0" encoding="UTF-8" standalone="no"?>
<!-- Created with Inkscape (http://www.inkscape.org/) -->
<svg
   xmlns:dc="http://purl.org/dc/elements/1.1/"
   xmlns:cc="http://web.resource.org/cc/"
   xmlns:rdf="http://www.w3.org/1999/02/22-rdf-syntax-ns#"
   xmlns:svg="http://www.w3.org/2000/svg"
   xmlns="http://www.w3.org/2000/svg"
   xmlns:sodipodi="http://sodipodi.sourceforge.net/DTD/sodipodi-0.dtd"
   xmlns:inkscape="http://www.inkscape.org/namespaces/inkscape"
   width="908.54797"
   height="94.053818"
   id="svg115845"
   sodipodi:version="0.32"
   inkscape:version="0.44"
   version="1.0"
   sodipodi:docbase="C:\Dokumente und Einstellungen\Andreas\Eigene Dateien\Eigene Bilder\sonstiges\Logos\Vektor"
   sodipodi:docname="Sennheiser-Logo.svg">
  <defs
     id="defs115847">
    <clipPath
       id="clp82"
       clip-rule="nonzero">
      <path
         d="M 1001.6,870.49 L 1036.3,870.49 L 1036.3,857.41 L 1001.6,857.41 L 1001.6,870.49 z "
         id="path1826" />
    </clipPath>
    <clipPath
       id="clp83"
       clip-rule="nonzero">
      <path
         d="M 1001.6,870.49 L 1036.3,870.49 L 1036.3,857.41 L 1001.6,857.41 L 1001.6,870.49 z "
         id="path1835" />
    </clipPath>
    <clipPath
       id="clp84"
       clip-rule="nonzero">
      <path
         d="M 1001.6,870.49 L 1036.3,870.49 L 1036.3,857.41 L 1001.6,857.41 L 1001.6,870.49 z "
         id="path1844" />
    </clipPath>
    <clipPath
       id="clp81"
       clip-rule="nonzero">
      <path
         d="M 1000.9,934.34 L 1038.6,934.34 L 1038.6,922.24 L 1000.9,922.24 L 1000.9,934.34 z "
         id="path1800" />
    </clipPath>
  </defs>
  <sodipodi:namedview
     id="base"
     pagecolor="#ffffff"
     bordercolor="#666666"
     borderopacity="1.0"
     inkscape:pageopacity="0.0"
     inkscape:pageshadow="2"
     inkscape:zoom="0.35"
     inkscape:cx="350"
     inkscape:cy="97.718912"
     inkscape:document-units="px"
     inkscape:current-layer="layer1"
     inkscape:window-width="904"
     inkscape:window-height="574"
     inkscape:window-x="141"
     inkscape:window-y="185" />
  <metadata
     id="metadata115850">
    <rdf:RDF>
      <cc:Work
         rdf:about="">
        <dc:format>image/svg+xml</dc:format>
        <dc:type
           rdf:resource="http://purl.org/dc/dcmitype/StillImage" />
      </cc:Work>
    </rdf:RDF>
  </metadata>
  <g
     inkscape:label="Ebene 1"
     inkscape:groupmode="layer"
     id="layer1"
     transform="translate(-434.7911,-638.1495)">
    <g
       id="g116099"
       style="fill:#ffffff;fill-opacity:1">
      <path
         id="path1162"
         class="ps023 ps125 ps20"
         d="M 615.53278,714.69517 L 615.53278,703.10278 C 615.53278,703.10278 630.11157,703.22226 632.62107,703.10278 C 635.07074,702.92347 636.44501,700.89187 634.65257,698.50165 C 632.86003,696.17126 620.96994,680.15696 618.16165,676.4522 C 614.51703,671.55228 614.03902,657.03193 628.7373,657.03193 L 665.1247,657.03193 L 665.1247,668.62432 L 647.02056,668.62432 C 647.02056,668.62432 644.39168,670.23774 645.70612,672.32908 C 647.02056,674.36077 661.59945,693.78104 663.33216,696.29074 C 665.1247,698.80044 665.1247,703.40157 665.1247,704.41732 C 665.1247,705.43327 662.79441,714.87438 654.25027,714.69517 C 645.70612,714.57569 615.53278,714.69517 615.53278,714.69517"
         style="font-size:3.15269995px;letter-spacing:-0.063054;word-spacing:0;fill:#ffffff;fill-rule:nonzero;stroke:none;stroke-width:0.088;stroke-linecap:butt;stroke-linejoin:miter;stroke-miterlimit:4;stroke-dasharray:none;font-family:fnt0, &quot;Futura&quot;, Arial;fill-opacity:1" />
      <path
         id="path1164"
         class="ps023 ps125 ps20"
         d="M 684.54318,657.03193 L 734.61311,657.03193 L 734.61311,668.62432 L 708.98067,668.62432 L 708.98067,680.87402 L 734.61311,680.87402 L 734.61311,692.16761 L 708.98067,692.16761 L 708.98067,702.80399 L 734.61311,702.80399 L 734.61311,714.69517 L 684.54318,714.69517 L 684.54318,657.03193"
         style="font-size:3.15269995px;letter-spacing:-0.063054;word-spacing:0;fill:#ffffff;fill-rule:nonzero;stroke:none;stroke-width:0.088;stroke-linecap:butt;stroke-linejoin:miter;stroke-miterlimit:4;stroke-dasharray:none;font-family:fnt0, &quot;Futura&quot;, Arial;fill-opacity:1" />
      <path
         id="path1166"
         class="ps023 ps125 ps20"
         d="M 756.2424,714.69517 L 756.2424,657.03193 L 782.41259,657.03193 L 806.55128,693.2433 L 806.55128,657.03193 L 817.72441,657.03193 L 817.72441,714.69517 L 791.55422,714.69517 L 767.41543,678.18511 L 767.41543,714.69517 L 756.2424,714.69517"
         style="font-size:3.15269995px;letter-spacing:-0.063054;word-spacing:0;fill:#ffffff;fill-rule:nonzero;stroke:none;stroke-width:0.088;stroke-linecap:butt;stroke-linejoin:miter;stroke-miterlimit:4;stroke-dasharray:none;font-family:fnt0, &quot;Futura&quot;, Arial;fill-opacity:1" />
      <path
         id="path1168"
         class="ps023 ps125 ps20"
         d="M 838.03916,714.69517 L 838.03916,657.03193 L 864.26909,657.03193 L 888.40788,693.2433 L 888.40788,657.03193 L 899.58091,657.03193 L 899.58091,714.69517 L 873.35098,714.69517 L 849.21229,678.18511 L 849.21229,714.69517 L 838.03916,714.69517"
         style="font-size:3.15269995px;letter-spacing:-0.063054;word-spacing:0;fill:#ffffff;fill-rule:nonzero;stroke:none;stroke-width:0.088;stroke-linecap:butt;stroke-linejoin:miter;stroke-miterlimit:4;stroke-dasharray:none;font-family:fnt0, &quot;Futura&quot;, Arial;fill-opacity:1" />
      <path
         id="path1170"
         class="ps023 ps125 ps20"
         d="M 1015.9726,657.03193 L 1066.0426,657.03193 L 1066.0426,668.62432 L 1040.4101,668.62432 L 1040.4101,680.87402 L 1066.0426,680.87402 L 1066.0426,692.16761 L 1040.4101,692.16761 L 1040.4101,702.80399 L 1066.0426,702.80399 L 1066.0426,714.69517 L 1015.9726,714.69517 L 1015.9726,657.03193"
         style="font-size:3.15269995px;letter-spacing:-0.063054;word-spacing:0;fill:#ffffff;fill-rule:nonzero;stroke:none;stroke-width:0.088;stroke-linecap:butt;stroke-linejoin:miter;stroke-miterlimit:4;stroke-dasharray:none;font-family:fnt0, &quot;Futura&quot;, Arial;fill-opacity:1" />
      <path
         id="path1172"
         class="ps023 ps125 ps20"
         d="M 1201.6138,657.03193 L 1251.6239,657.03193 L 1251.6239,668.62432 L 1226.0512,668.62432 L 1226.0512,680.87402 L 1251.6239,680.87402 L 1251.6239,692.16761 L 1226.0512,692.16761 L 1226.0512,702.80399 L 1251.6239,702.80399 L 1251.6239,714.69517 L 1201.6138,714.69517 L 1201.6138,657.03193"
         style="font-size:3.15269995px;letter-spacing:-0.063054;word-spacing:0;fill:#ffffff;fill-rule:nonzero;stroke:none;stroke-width:0.088;stroke-linecap:butt;stroke-linejoin:miter;stroke-miterlimit:4;stroke-dasharray:none;font-family:fnt0, &quot;Futura&quot;, Arial;fill-opacity:1" />
      <path
         id="path1174"
         class="ps023 ps125 ps20"
         d="M 1132.8423,714.69517 L 1132.8423,703.10278 C 1132.8423,703.10278 1147.4212,703.22226 1149.9306,703.10278 C 1152.4401,702.92347 1153.7545,700.89187 1151.962,698.50165 C 1150.2293,696.17126 1138.3393,680.15696 1135.531,676.4522 C 1131.8265,671.55228 1131.4082,657.03193 1146.1066,657.03193 L 1182.4342,657.03193 L 1182.4342,668.62432 L 1164.3301,668.62432 C 1164.3301,668.62432 1161.7012,670.23774 1163.0157,672.32908 C 1164.3301,674.36077 1178.909,693.78104 1180.7015,696.29074 C 1182.4342,698.80044 1182.4342,703.40157 1182.4342,704.41732 C 1182.4342,705.43327 1180.104,714.87438 1171.5598,714.69517 C 1163.0157,714.57569 1132.8423,714.69517 1132.8423,714.69517"
         style="font-size:3.15269995px;letter-spacing:-0.063054;word-spacing:0;fill:#ffffff;fill-rule:nonzero;stroke:none;stroke-width:0.088;stroke-linecap:butt;stroke-linejoin:miter;stroke-miterlimit:4;stroke-dasharray:none;font-family:fnt0, &quot;Futura&quot;, Arial;fill-opacity:1" />
      <path
         id="path1176"
         class="ps023 ps125 ps20"
         d="M 922.52474,657.03193 L 946.54395,657.03193 L 946.54395,679.79843 L 967.45619,679.79843 L 967.45619,657.03193 L 991.59488,657.03193 L 991.59488,714.69517 L 967.45619,714.69517 L 967.45619,692.16761 L 946.54395,692.16761 L 946.54395,714.69517 L 922.52474,714.69517 L 922.52474,657.03193"
         style="font-size:3.15269995px;letter-spacing:-0.063054;word-spacing:0;fill:#ffffff;fill-rule:nonzero;stroke:none;stroke-width:0.088;stroke-linecap:butt;stroke-linejoin:miter;stroke-miterlimit:4;stroke-dasharray:none;font-family:fnt0, &quot;Futura&quot;, Arial;fill-opacity:1" />
      <path
         id="path1178"
         class="ps023 ps125 ps20"
         d="M 1087.5524,657.03193 L 1113.125,657.03193 L 1113.125,714.69517 L 1087.5524,714.69517 L 1087.5524,657.03193 z "
         style="font-size:3.15269995px;letter-spacing:-0.063054;word-spacing:0;fill:#ffffff;fill-rule:nonzero;stroke:none;stroke-width:0.088;stroke-linecap:butt;stroke-linejoin:miter;stroke-miterlimit:4;stroke-dasharray:none;font-family:fnt0, &quot;Futura&quot;, Arial;fill-opacity:1" />
      <path
         id="path1186"
         class="ps023"
         d="M 1297.8699,668.62432 L 1313.8827,668.62432 C 1313.8827,668.62432 1318.7224,669.52069 1318.7224,674.83878 C 1318.7224,679.79843 1313.8827,680.87402 1313.8827,680.87402 L 1297.8699,680.87402 L 1297.8699,668.62432 z M 1273.4324,714.69517 L 1297.8699,714.69517 L 1297.8699,692.16761 L 1308.4455,692.16761 L 1320.9331,714.69517 L 1343.3391,714.69517 L 1330.5527,690.55429 C 1330.5527,690.55429 1342.3234,686.61047 1342.3234,673.76319 C 1342.3234,657.15141 1324.3388,657.03193 1324.3388,657.03193 L 1273.4324,657.03193 L 1273.4324,714.69517"
         style="font-size:3.15269995px;letter-spacing:-0.063054;word-spacing:0;fill:#ffffff;fill-rule:nonzero;stroke:none;stroke-width:0.088;stroke-linecap:butt;stroke-linejoin:miter;stroke-miterlimit:4;stroke-dasharray:none;font-family:fnt0, &quot;Futura&quot;, Arial;fill-opacity:1" />
      <path
         d="M 561.39986,723.41932 L 504.27954,723.41932 C 503.74179,724.37543 501.29203,728.73751 497.40835,732.20332 L 569.58548,732.20332 L 569.58548,661.15506 L 561.39986,661.15506 L 561.39986,723.41932 M 443.09622,647.11261 L 497.10956,647.11261 C 499.26054,643.82612 500.57507,641.79452 500.57507,641.79452 C 501.47134,640.53962 502.72604,639.4043 504.2198,638.32872 L 434.9106,638.32872 L 434.9106,709.13803 L 443.09622,709.13803 L 443.09622,647.11261 M 504.45875,644.48344 C 504.45875,644.48344 465.92047,703.7601 465.92047,703.7601 C 463.94872,706.80754 456.77875,713.79889 452.29759,713.79889 L 434.79112,713.79889 L 434.79112,732.08384 C 445.30693,732.08384 487.48993,732.08384 487.37045,732.08384 C 493.34536,731.90453 499.43985,724.3157 500.99334,721.32799 C 500.99334,721.32799 536.06611,665.75609 538.21708,662.58907 C 541.26432,658.10752 549.15125,656.43435 553.39345,656.43435 L 569.58548,656.25514 L 569.58548,638.32872 C 559.12941,638.32872 517.66337,638.1495 517.66337,638.1495 C 513.18211,638.1495 506.84867,641.19694 504.45875,644.48344"
         style="font-size:3.15269995px;letter-spacing:-0.063054;word-spacing:0;fill:#ffffff;fill-rule:evenodd;stroke:none;stroke-width:0.088;stroke-linecap:butt;stroke-linejoin:miter;stroke-miterlimit:4;font-family:fnt0, &quot;Futura&quot;, Arial;fill-opacity:1"
         id="path1188" />
    </g>
  </g>
</svg>
