<?xml version="1.0" encoding="UTF-8"?>
<svg width="980px" height="692px" viewBox="0 0 980 692" version="1.1" xmlns="http://www.w3.org/2000/svg" xmlns:xlink="http://www.w3.org/1999/xlink">
    <title>black_friday</title>
    <g id="Page-1" stroke="none" stroke-width="1" fill="none" fill-rule="evenodd">
        <g id="black_friday" fill-rule="nonzero">
            <g id="Group" transform="translate(490.000000, 346.000000) scale(-1, 1) rotate(-180.000000) translate(-490.000000, -346.000000) translate(0.000000, -0.000000)">
                <path d="M463.75,687.06 C458.84,684.36 450.01,676.51 444.12,669.64 C415.17,634.8 415.17,634.8 402.9,636.27 C396.77,637.01 384.74,640.69 375.91,644.37 C363.15,650.01 356.04,651.24 340.09,651.49 C322.67,651.49 319.23,650.75 310.4,644.86 C297.15,636.03 290.77,622.29 285.37,589.9 C279.73,555.06 280.71,556.04 231.14,546.47 C206.36,541.56 193.6,533.71 185.26,518.01 C176.92,502.31 177.9,490.04 189.92,458.38 C197.77,437.03 199.49,429.92 197.77,425.01 C196.54,421.57 185.75,410.29 173.72,400.23 C147.71,377.9 140.35,366.12 140.35,346.49 C140.35,328.82 145.75,318.52 161.94,304.78 C198.75,273.13 197.52,274.84 196.05,262.58 C195.31,256.45 191.63,244.42 187.95,235.59 C182.31,222.83 181.08,215.72 180.83,199.77 C180.83,182.35 181.57,178.91 187.46,170.08 C196.29,156.83 210.03,150.45 242.42,145.05 C277.26,139.41 276.28,140.39 285.85,90.82 C290.76,66.04 298.61,53.28 314.31,44.94 C330.01,36.6 342.28,37.58 373.94,49.6 C395.29,57.45 402.4,59.17 407.31,57.45 C410.75,56.22 422.03,45.43 432.09,33.4 C454.17,7.39 466.2,0.03 485.58,0.03 C502.76,0.03 515.02,6.41 528.52,22.36 C557.47,57.2 557.47,57.2 569.74,55.73 C575.87,54.99 587.9,51.31 596.73,47.63 C609.49,41.98 616.61,40.76 632.55,40.51 C649.97,40.51 653.41,41.25 662.24,47.14 C675.49,55.97 681.87,69.71 687.27,102.1 C692.91,136.94 691.93,135.96 741.49,145.53 C766.27,150.44 779.03,158.29 787.37,173.99 C795.71,189.69 794.73,201.96 782.71,233.61 C774.86,254.96 773.14,262.07 774.86,266.98 C776.09,270.42 786.88,281.7 798.91,291.76 C824.92,313.84 832.28,325.86 832.28,345.25 C832.28,362.43 825.9,374.69 809.95,388.19 C775.11,417.14 775.11,417.14 776.58,429.41 C777.32,435.54 781,447.57 784.68,456.4 C790.33,469.16 791.55,476.28 791.8,492.22 C791.8,509.64 791.06,513.08 785.17,521.91 C776.34,535.16 762.6,541.54 730.21,546.94 C695.37,552.58 696.35,551.6 686.78,601.17 C681.87,625.95 674.02,638.71 658.07,647.3 C642.86,655.4 626.91,653.93 595.99,641.66 C576.85,634.05 570.71,632.58 565.56,634.54 C561.88,635.77 550.59,646.56 540.53,658.59 C518.2,684.84 506.42,691.96 486.55,691.96 C477.98,691.72 469.39,690.01 463.75,687.06 Z M553.55,482.42 C565.57,477.51 569.75,469.91 569.75,453.22 L569.75,438.99 L560.67,439.73 C552.33,440.47 551.35,441.2 550.61,447.83 C549.38,463.29 547.91,466.23 541.53,466.23 C538.1,466.23 534.42,464.27 532.94,461.57 C531.46,458.87 530.49,440.22 530.49,418.63 C530.49,387.47 531.22,380.11 534.42,376.92 C542.51,368.82 549.63,375.2 550.61,391.4 L551.35,403.67 L560.92,404.41 L570.25,405.15 L569.27,386.5 C568.53,369.32 567.8,366.87 561.66,361.72 C556.26,357.06 551.84,355.83 541.54,355.83 C530.25,355.83 526.82,357.06 520.19,362.95 L512.09,370.07 L511.35,416.45 C510.86,456.94 511.11,463.56 515.03,471.17 C521.65,484.14 538.09,488.8 553.55,482.42 Z M342.78,480.95 C357.99,477.52 363.64,469.17 363.64,450.52 C363.64,438.74 362.41,433.34 358.98,429.17 C354.32,423.53 354.32,423.28 360.21,416.41 C365.12,410.52 366.1,406.84 366.1,392.36 C366.1,362.18 358.74,355.8 324.14,355.8 L304.76,355.8 L304.76,419.6 L304.76,483.400061 L318.99,483.400061 C326.58,483.41 337.38,482.18 342.78,480.95 Z M397.99,429.42 L397.99,375.44 L413.94,375.44 L429.89,375.44 L429.89,365.63 L429.89,355.82 L404.13,355.82 L378.37,355.82 L378.37,419.62 L378.37,483.42 L388.18,483.42 L397.99,483.42 L397.99,429.42 L397.99,429.42 Z M491.72,440.47 C495.4,417.65 499.82,389.19 501.78,377.41 L505.22,355.82 L494.67,355.82 L484.12,355.82 L482.4,366.86 L480.92,377.9 L468.9,377.9 C456.39,377.9 456.14,377.9 453.93,361.95 C452.95,355.57 434.79,353.12 434.79,359.25 C434.79,363.42 450.74,464.51 453.44,476.78 C454.91,483.41 455.16,483.65 469.88,482.91 L485.09,482.17 L491.72,440.47 Z M602.13,457.15 L602.87,430.65 L615.63,457.15 L628.39,483.4 L638.2,483.4 L648.01,483.4 L634.27,455.18 L620.78,426.72 L629.37,404.15 C634.03,391.64 640.41,375.69 643.11,368.82 L648.26,355.82 L637.71,355.82 L627.4,355.82 L620.28,374.96 C616.36,385.27 612.18,396.55 610.96,399.99 L608.51,406.12 L605.32,399.99 C603.11,396.31 601.89,386.25 601.64,374.96 L601.64,355.81 L591.83,355.81 L582.01,355.81 L582.01,419.61 L582.01,483.41 L591.83,483.41 L601.4,483.41 L602.13,457.15 Z M353.82,325.14 L353.82,316.55 L337.87,316.55 L321.92,316.55 L321.92,296.92 L321.92,277.3 L334.19,277.3 L346.46,277.3 L346.46,268.71 L346.46,260.12 L334.19,260.12 L321.92,260.12 L321.92,234.36 L321.92,208.6 L312.11,208.6 L302.3,208.6 L302.3,271.17 L302.3,333.74 L328.06,333.74 L353.82,333.74 L353.82,325.14 Z M410.01,330.05 C423.02,323.42 427.19,293.49 417.37,277.54 C412.71,269.69 412.71,269.2 416.63,264.78 C419.33,261.84 421.29,254.72 421.78,245.89 C422.27,238.28 423.01,226.75 423.5,220.37 L424.24,208.59 L413.93,208.59 C401.17,208.59 400.43,210.06 400.43,233.86 C400.43,253.98 399.2,256.68 389.88,258.89 L383.25,260.61 L383.25,234.6 L383.25,208.59 L372.21,208.59 L361.17,208.59 L361.17,271.16 L361.17,333.73 L382.03,333.73 C395.78,333.73 405.59,332.5 410.01,330.05 Z M454.42,271.16 L454.42,208.59 L444.61,208.59 L434.8,208.59 L434.8,271.16 L434.8,333.73 L444.61,333.73 L454.42,333.73 L454.42,271.16 Z M519.69,329.32 C529.5,321.47 530.48,316.07 530.48,271.17 C530.48,211.79 528.52,208.84 491.96,208.6 L469.14,208.6 L469.14,271.17 L469.14,333.74 L491.96,333.74 C509.63,333.73 515.76,332.75 519.69,329.32 Z M597.71,275.58 C602.86,243.44 607.52,215.22 608.26,213.01 C609.24,209.33 607.52,208.59 598.45,208.59 L587.41,208.59 L585.94,219.63 L584.22,230.67 L572.2,230.67 L560.18,230.67 L558.46,219.63 C556.99,208.83 556.74,208.59 547.42,208.59 C542.02,208.59 537.85,209.08 537.85,209.82 C537.85,210.56 542.27,238.28 547.67,271.41 C553.07,304.54 557.48,332.26 557.48,332.75 C557.48,333.24 564.59,333.73 572.94,333.73 L588.65,333.73 L597.71,275.58 Z M628.63,307.23 C632.55,293.24 635.99,281.47 636.48,280.98 C636.97,280.49 640.65,292.02 644.33,306.74 L651.44,333.73 L660.76,333.73 C666.16,333.73 670.33,332.99 670.33,332.01 C670.33,331.27 664.93,312.14 658.06,289.56 C647.75,254.96 645.79,245.39 645.79,228.71 L645.79,208.59 L635.98,208.59 L626.17,208.59 L626.17,227.73 C626.17,243.43 623.96,253.74 612.92,290.3 L599.68,333.98 L610.97,333.24 L622.01,332.5 L628.63,307.23 Z" id="Shape" fill="#DA0000"></path>
                <path d="M326.83,448.07 C326.83,432.61 327.08,431.88 332.72,431.88 C341.31,431.88 344.5,437.28 343.52,450.77 C342.78,462.06 342.54,462.55 334.93,463.28 L326.83,464.02 L326.83,448.07 Z" id="Path" fill="#FF0000"></path>
                <path d="M326.83,393.6 L326.83,375.2 L336.15,375.94 L345.23,376.68 L345.97,390.91 C346.71,407.35 344.01,412.26 333.95,412.26 L326.83,412.26 L326.83,393.6 L326.83,393.6 Z" id="Path" fill="#FF0000"></path>
                <path d="M464.48,431.63 C462.76,418.87 460.8,406.11 460.06,403.17 C458.83,398.02 459.82,397.53 467.67,397.53 C472.58,397.53 476.5,398.76 476.5,399.98 C476.5,402.92 469.38,449.3 468.4,452.49 C467.92,453.72 466.2,444.15 464.48,431.63 Z" id="Path" fill="#FF0000"></path>
                <path d="M383.27,296.93 C383.27,277.79 383.52,277.3 389.16,277.3 C398.48,277.3 402.9,283.43 402.9,296.93 C402.9,310.43 398.48,316.56 389.16,316.56 C383.51,316.56 383.27,316.06 383.27,296.93 Z" id="Path" fill="#FF0000"></path>
                <path d="M490.49,315.08 C489.51,314.1 488.77,293.49 488.77,269.44 L488.77,225.76 L497.36,225.76 C503.25,225.76 506.44,227.23 508.4,230.42 C511.35,236.06 511.83,306.48 508.89,310.9 C506.44,314.59 493.19,317.78 490.49,315.08 Z" id="Path" fill="#FF0000"></path>
                <path d="M567.54,279.02 C565.82,266.75 563.86,254.48 563.37,252.27 C562.39,248.59 563.62,247.85 570.73,247.85 C578.34,247.85 579.56,248.58 579.56,253.49 C579.56,260.85 573.18,299.37 571.71,300.6 C571.22,301.34 569.25,291.53 567.54,279.02 Z" id="Path" fill="#FF0000"></path>
                <path d="M9.32,455.92 C14.47,448.8 33.37,423.29 51.28,399.49 C69.19,375.44 83.91,355.08 83.91,353.85 C83.91,352.62 65.26,326.86 42.2,296.68 L0.74,241.72 L84.41,240.98 C149.92,240.49 168.57,241.22 170.29,243.43 C171.27,245.15 173.48,250.79 175.2,256.19 C178.14,265.51 178.14,265.76 168.33,273.37 C149.19,288.58 132.26,305.76 127.6,315.33 C120.48,329.07 119.01,351.89 124.41,368.33 C128.09,379.62 132.51,385.26 153.85,406.12 L179.12,430.66 L171.51,449.8 L164.15,468.69 L82.2,468.69 L0,468.69 L9.32,455.92 Z" id="Path" fill="#3CFA50"></path>
                <path d="M804.32,451.02 C800.89,441.21 797.94,431.39 797.94,429.18 C797.94,426.97 806.28,418.38 816.34,410.04 C826.4,401.7 837.93,390.66 841.86,385.26 C855.6,366.12 857.81,337.9 847.01,316.06 C844.07,310.17 831.55,295.69 818.55,283.18 L795.24,261.1 L799.16,250.79 L803.33,240.48 L891.66,240.48 C961.59,240.48 979.5,241.22 978.03,243.67 C977.05,245.14 959.38,268.7 939.02,295.69 C918.41,322.68 900.25,347.22 898.53,350.16 C895.09,355.56 897.55,359.24 974.1,460.82 L979.99,468.67 L895.58,468.67 L810.93,468.67 L804.32,451.02 Z" id="Path" fill="#3CFA50"></path>
            </g>
        </g>
    </g>
</svg>