<?xml version="1.0" encoding="UTF-8" standalone="no"?>
<svg width="359px" height="294px" viewBox="0 0 359 294" version="1.1" xmlns="http://www.w3.org/2000/svg" xmlns:xlink="http://www.w3.org/1999/xlink">
    <!-- Generator: Sketch 50.2 (55047) - http://www.bohemiancoding.com/sketch -->
    <title>4_1_nativescript_vue_introduction</title>
    <desc>Created with Sketch.</desc>
    <defs>
        <rect id="path-1" x="0" y="0" width="360" height="294"></rect>
    </defs>
    <g id="Page-1" stroke="none" stroke-width="1" fill="none" fill-rule="evenodd">
        <g id="nativescript_vue_introduction">
            <mask id="mask-2" fill="white">
                <use xlink:href="#path-1"></use>
            </mask>
            <g id="Mask"></g>
            <g id="nativescript_vue_introduction_image" transform="translate(81.000000, 48.000000)">
                <g id="circle_bg" transform="translate(0.000000, 18.000000)">
                    <circle id="circle_2" fill="#0C3E91" cx="99" cy="88" r="83"></circle>
                    <rect id="rectangle" fill="#1550B1" transform="translate(133.677670, 142.677670) rotate(-315.000000) translate(-133.677670, -142.677670) " x="121.17767" y="130.17767" width="25" height="25"></rect>
                    <rect id="rectangle" fill="#1550B1" transform="translate(51.677670, 34.677670) rotate(-315.000000) translate(-51.677670, -34.677670) " x="39.1776695" y="22.1776695" width="25" height="25"></rect>
                    <rect id="rectangle" fill="#1148A3" transform="translate(165.516504, 10.516504) rotate(-315.000000) translate(-165.516504, -10.516504) " x="158.78732" y="3.78731957" width="13.4583694" height="13.4583694"></rect>
                    <rect id="rectangle" fill="#1148A3" transform="translate(24.748737, 142.748737) rotate(-315.000000) translate(-24.748737, -142.748737) " x="7.24873734" y="125.248737" width="35" height="35"></rect>
                    <path d="M99,175.5 C50.6750844,175.5 11.5,136.324916 11.5,88 C11.5,39.6750844 50.6750844,0.5 99,0.5 C147.324916,0.5 186.5,39.6750844 186.5,88 C186.5,136.324916 147.324916,175.5 99,175.5 Z M99,174.5 C146.772631,174.5 185.5,135.772631 185.5,88 C185.5,40.2273691 146.772631,1.5 99,1.5 C51.2273691,1.5 12.5,40.2273691 12.5,88 C12.5,135.772631 51.2273691,174.5 99,174.5 Z" id="circle_1" fill="#0B49AF" fill-rule="nonzero"></path>
                </g>
                <g id="book" transform="translate(13.000000, 47.000000)">
                    <g id="page_2" transform="translate(126.500000, 63.500000) scale(-1, 1) translate(-126.500000, -63.500000) translate(86.000000, 4.000000)">
                        <path d="M0,0 L80.9800034,0 L80.9800034,118.063808 C79.9054683,114.014146 77.5734575,111.989315 73.9839709,111.989315 C70.3944844,111.989315 45.7331608,111.989315 0,111.989315 L0,0 Z" id="back" fill="#E496FF"></path>
                        <path d="M0,-4.54747351e-13 C5.13681064,-1.49434196e-13 9.79277281,1.53730705e-13 13.9678865,4.54747351e-13 C12.6846894,27.3434128 35.0220617,58.8291647 80.9800034,94.4572557 L80.9800034,118.063808 C79.9054683,114.014146 77.5734575,111.989315 73.9839709,111.989315 C70.3944844,111.989315 45.7331608,111.989315 0,111.989315 L0,-4.54747351e-13 Z" id="back_shadow" fill="#D457FF"></path>
                        <rect id="dark_shadow" fill="#BA39E6" x="9" y="106" width="72" height="3"></rect>
                        <path d="M6,6 L81,6 L81,112.083217 C80.3812412,108.027739 78.3888446,106 75.0228103,106 C70.7896172,106 47.7820138,106 6,106 L6,6 Z" id="light" fill="#FFFFFF"></path>
                        <path d="M6,6 C8.22646824,6 10.9125197,6 14.0581544,6 C17.6779213,51.3406877 55.223763,70.9340982 81,70 C81,74.1874037 81,88.2151427 81,112.083217 C80.3812412,108.027739 78.3888446,106 75.0228103,106 C70.7896172,106 47.7820138,106 6,106 L6,6 Z" id="shadow" fill="#FAEBFF"></path>
                    </g>
                    <g id="page_1" transform="translate(5.000000, 4.000000)">
                        <path d="M0.0235974248,0.0270604352 L81.0036008,0.0270604352 L81.0036008,118.090869 C79.9290657,114.041207 77.5970549,112.016375 74.0075684,112.016375 C70.4180818,112.016375 45.7567582,112.016375 0.0235974248,112.016375 L0.0235974248,0.0270604352 Z" id="back" fill="#DF81FF"></path>
                        <path d="M0.0235974248,0.0270604352 C5.16040807,0.0270604352 9.81637024,0.0270604352 13.9914839,0.0270604352 C12.7082868,27.3704733 35.0456591,58.8562252 81.0036008,94.4843161 L81.0036008,118.090869 C79.9290657,114.041207 77.5970549,112.016375 74.0075684,112.016375 C70.4180818,112.016375 45.7567582,112.016375 0.0235974248,112.016375 L0.0235974248,0.0270604352 Z" id="back_shadow" fill="#D457FF"></path>
                        <rect id="dark_shadow" fill="#BA39E6" x="9" y="106" width="72" height="3"></rect>
                        <path d="M6,6 L81,6 L81,112.083217 C80.3812412,108.027739 78.3888446,106 75.0228103,106 C70.7896172,106 47.7820138,106 6,106 L6,6 Z" id="light" fill="#FFFFFF"></path>
                        <path d="M6,6 C8.22646824,6 10.9125197,6 14.0581544,6 C17.6779213,51.3406877 55.223763,70.9340982 81,70 C81,74.1874037 81,88.2151427 81,112.083217 C80.3812412,108.027739 78.3888446,106 75.0228103,106 C70.7896172,106 47.7820138,106 6,106 L6,6 Z" id="shadow" fill="#FAEBFF"></path>
                    </g>
                    <g id="text_2" transform="translate(111.000000, 37.000000)">
                        <rect id="blue_line" fill="#86B4FF" x="0" y="50" width="18" height="1"></rect>
                        <path d="M0,42 L25,42 L25,43 L0,43 L0,42 Z M30,42 L41,42 L41,43 L30,43 L30,42 Z M0,46 L41,46 L41,47 L0,47 L0,46 Z" id="text_lines" fill="#E394FF"></path>
                        <rect id="text_line" fill="#EEBDFF" x="0" y="33" width="27" height="1"></rect>
                        <path d="M0,29 L30,29 L30,30 L0,30 L0,29 Z M35,29 L41,29 L41,30 L35,30 L35,29 Z" id="green_line" fill="#37DE93"></path>
                        <rect id="text_line" fill="#E394FF" x="0" y="25" width="41" height="1"></rect>
                        <path d="M21,12 L41,12 L41,13 L21,13 L21,12 Z M0,12 L17,12 L17,13 L0,13 L0,12 Z" id="text_lines" fill="#E394FF"></path>
                        <path d="M1,8 L41,8 L41,9 L1,9 L1,8 Z M3,4 L41,4 L41,5 L3,5 L3,4 Z M6,0 L41,0 L41,1 L6,1 L6,0 Z" id="text_lines" fill="#EEBDFF"></path>
                        <rect id="blue_line" fill="#86B4FF" x="0" y="16" width="27" height="1"></rect>
                    </g>
                    <g id="text_1" transform="translate(17.000000, 24.000000)">
                        <rect id="blue_line" fill="#86B4FF" x="0" y="73" width="21" height="1"></rect>
                        <rect id="green_line" fill="#37DE93" x="0" y="64" width="27" height="1"></rect>
                        <path d="M0,56 L41,56 L41,57 L0,57 L0,56 Z M0,60 L41,60 L41,61 L0,61 L0,60 Z" id="text_lines" fill="#E394FF"></path>
                        <rect id="blue_line" fill="#86B4FF" x="0" y="47" width="27" height="1"></rect>
                        <path d="M0,39 L41,39 L41,40 L0,40 L0,39 Z M0,43 L13,43 L13,44 L0,44 L0,43 Z M17,43 L35,43 L35,44 L17,44 L17,43 Z" id="text_line" fill="#E394FF"></path>
                        <rect id="text_line" fill="#EEBDFF" x="0" y="30" width="27" height="1"></rect>
                        <rect id="green_line" fill="#37DE93" x="0" y="22" width="40" height="1"></rect>
                        <path d="M0,26 L41,26 L41,27 L0,27 L0,26 Z M0,18 L38,18 L38,19 L0,19 L0,18 Z M0,14 L33,14 L33,15 L0,15 L0,14 Z" id="text_lines" fill="#E394FF"></path>
                        <rect id="title" fill="#37DE93" x="0" y="0" width="26" height="3"></rect>
                    </g>
                    <polygon id="corner" fill="#66A0FF" fill-rule="nonzero" points="1.5 119.5 23 119.5 23 120.5 0.5 120.5 0.5 98 1.5 98"></polygon>
                    <polygon id="corner" fill="#3278EB" fill-rule="nonzero" transform="translate(159.750000, 11.250000) scale(-1, -1) translate(-159.750000, -11.250000) " points="149.5 21.5 171 21.5 171 22.5 148.5 22.5 148.5 0 149.5 0"></polygon>
                </g>
                <g id="shine" transform="translate(45.000000, 0.000000)" fill-rule="nonzero">
                    <path d="M14.2440197,42.207492 L13.9624648,43.1670371 L6.28610393,40.9145976 L6.56765886,39.9550525 L14.2440197,42.207492 Z M94.4479235,42.207492 L102.124284,39.9550525 L102.405839,40.9145976 L94.7294784,43.1670371 L94.4479235,42.207492 Z M25.4104948,23.9048913 L24.6524386,24.5570805 L19.434925,18.4926306 L20.1929813,17.8404415 L25.4104948,23.9048913 Z M83.8261683,23.9048913 L89.0436818,17.8404415 L89.801738,18.4926306 L84.5842245,24.5570805 L83.8261683,23.9048913 Z M44.6248118,13.5276509 L43.6680921,13.8186617 L41.3400059,6.16490344 L42.2967257,5.87389267 L44.6248118,13.5276509 Z M64.1759628,13.5276509 L66.504049,5.87389267 L67.4607688,6.16490344 L65.1326826,13.8186617 L64.1759628,13.5276509 Z" id="blue_lines" fill="#4389FE"></path>
                    <path d="M54.5,12.376079 L53.5,12.376079 L53.5,0.376079034 L54.5,0.376079034 L54.5,12.376079 Z M95.8593338,54.5 L95.8593338,53.5 L107.859334,53.5 L107.859334,54.5 L95.8593338,54.5 Z M0,54.5 L0,53.5 L12,53.5 L12,54.5 L0,54.5 Z M18.122857,32.3666183 L17.5757969,33.2037116 L7.53067697,26.6389903 L8.07773708,25.801897 L18.122857,32.3666183 Z M90.7264699,32.1461746 L100.77159,25.5814533 L101.31865,26.4185467 L91.2735301,32.9832679 L90.7264699,32.1461746 Z M34.2094917,17.5461798 L33.339092,18.0385255 L27.4309433,7.59372874 L28.301343,7.10138301 L34.2094917,17.5461798 Z M74.5648001,17.1986239 L80.4729488,6.75382714 L81.3433485,7.24617286 L75.4351999,17.6909696 L74.5648001,17.1986239 Z" id="white_lines" fill="#FFFFFF"></path>
                </g>
                <g id="bulb" transform="translate(63.000000, 18.000000)">
                    <polygon id="lines" fill="#A3C6FF" fill-rule="nonzero" points="57.4810718 93.9415775 58.4810718 93.9415775 58.4810718 115.470241 48.117409 115.470241 48.117409 114.470241 57.4810718 114.470241"></polygon>
                    <path d="M13.5,86.132924 L12.5,86.132924 L12.5,79.3564558 C12.5,77.9462447 12.2099461,76.4601356 11.6470483,74.8736696 C10.6832717,72.1573704 9.14723296,69.5344696 6.33221193,65.4437606 C6.13995663,65.1643806 5.9439266,64.8808211 5.68065504,64.500942 C5.3560873,64.0328409 5.18391129,63.7844943 5.03430461,63.5683111 C4.51565573,62.8188583 4.13985455,62.2701596 3.78238805,61.7376715 C2.86542517,60.3717481 2.17536015,59.2645746 1.61748477,58.238904 L2.49594907,57.761096 C3.03654924,58.7550056 3.7115067,59.8379398 4.61265338,61.1803032 C4.96697771,61.7081107 5.34040771,62.2533472 5.85660107,62.9992518 C6.00592521,63.2150267 6.17780553,63.4629468 6.50256532,63.931325 C6.76641167,64.3120335 6.96300864,64.5964131 7.15600384,64.8768683 C10.0182011,69.0361325 11.5879753,71.716639 12.5894839,74.5392818 C13.1883327,76.2270719 13.5,77.8239185 13.5,79.3564558 L13.5,86.132924 Z" id="curve" fill="#A3C6FF" fill-rule="nonzero"></path>
                    <path d="M6.06219615,56 C2.23308664,50.2796078 0,43.4005866 0,36 C0,16.117749 16.117749,0 36,0 C55.882251,0 72,16.117749 72,36 C72,43.4005866 69.7669134,50.2796078 65.9378039,56 L65.9455225,56 C62.6037305,62.07092 55,70.3283744 55,77.3047316 C55,81.9556364 55,86.518233 55,90.9925214 L17,90.9925214 C17,91.2104602 17,86.665105 17,77.3564558 C17,69.9804115 9.41537998,62.1750026 6.05671692,56 Z" fill="#FFD783"></path>
                    <g id="bottom_part" transform="translate(17.000000, 88.000000)">
                        <path d="M14,24 L24,24 L24,26.9995769 C23.4470639,29.6665256 21.7803972,31 19,31 C16.2196028,31 14.5529361,29.6665256 14,26.9995769 L14,24 Z" id="bottom" fill="#1765E4"></path>
                        <rect id="shadow" fill="#0B4EBC" x="14" y="24" width="10" height="2"></rect>
                        <rect id="dark_line" fill="#3278EB" x="0" y="19" width="38" height="5"></rect>
                        <rect id="light_line" fill="#E8B243" x="0" y="16" width="38" height="3"></rect>
                        <rect id="dark_line" fill="#3278EB" x="0" y="11" width="38" height="5"></rect>
                        <rect id="light_line" fill="#E8B243" x="0" y="8" width="38" height="3"></rect>
                        <rect id="dark_line" fill="#3278EB" x="0" y="3" width="38" height="5"></rect>
                        <rect id="light_line" fill="#E8B243" x="0" y="0" width="38" height="3"></rect>
                        <path d="M25.454639,22 L25.454639,21 L36.5,21 L36.5,22 L25.454639,22 Z M19.5,14 L19.5,13 L36.5,13 L36.5,14 L19.5,14 Z M13.5,6 L13.5,5 L36.5,5 L36.5,6 L13.5,6 Z" id="blue_lines" fill="#6EA5FF" fill-rule="nonzero"></path>
                    </g>
                    <polygon id="vertical_line" fill="#FFFCF5" fill-rule="nonzero" points="35.5 65 36.5 65 36.5 88 35.5 88"></polygon>
                    <path d="M5.04586935,50.8236504 L5.95413065,50.405247 C8.4200912,55.7583023 12.2820516,60.3705119 17.1094607,63.7500535 L16.5359579,64.5692571 C11.563782,61.088368 7.58612702,56.3379883 5.04586935,50.8236504 Z M65.113302,18.3453528 L64.2666952,18.8775717 C61.0381786,13.7419332 56.452137,9.56711292 51.0324656,6.84129974 L51.4817849,5.94792851 C57.0645492,8.75576896 61.7878832,13.0555709 65.113302,18.3453528 Z" id="circle_lines" fill="#FFFFFF" fill-rule="nonzero"></path>
                </g>
                <g id="circle" transform="translate(68.000000, 25.000000)">
                    <path d="M0,29 C0,46.1208272 13.8791728,60 31,60 C48.1208272,60 62,46.1208272 62,29 L0,29 Z" fill="#F4B83C"></path>
                    <circle fill="#FFFFFF" cx="31" cy="29" r="29"></circle>
                    <polygon id="dark_line" fill="#A5B3C0" fill-rule="nonzero" points="31.5 58 30.5 58 30.5 55 31.5 55"></polygon>
                    <path d="M12.6569374,48.3637417 L13.3430626,47.6362583 C17.9908236,52.0197892 24.0939009,54.5 30.5826075,54.5 C36.9944262,54.5 43.0307386,52.0785445 47.6601115,47.7877619 L48.3398885,48.5211808 C43.5276183,52.9814836 37.2493482,55.5 30.5826075,55.5 C23.8359142,55.5 17.4882558,52.9203947 12.6569374,48.3637417 Z" id="dark_lines" fill="#A5B3C0" fill-rule="nonzero"></path>
                    <path d="M56.4931903,23.8621897 L55.5068097,24.0266682 C54.0043002,15.0160881 47.5937115,7.52196154 38.9163611,4.50657105 L39.2446081,3.56197909 C48.2650663,6.69660002 54.9300738,14.4881481 56.4931903,23.8621897 Z M21.8657978,3.52704109 L22.1902041,4.47295891 C13.4470326,7.47146489 6.98486862,15.0116044 5.49337306,24.0811358 L4.50662694,23.9188642 C6.05828496,14.4834951 12.7769118,6.64411124 21.8657978,3.52704109 Z" id="yellow_lines" fill="#FDDD99" fill-rule="nonzero"></path>
                    <g id="logo" transform="translate(8.000000, 13.000000)">
                        <polygon id="element" fill="#37DE93" points="14.9118592 0 27.2475012 22.0689242 37.4959953 4.12684254 43.8985473 4.12684254 27.2475012 33.9815016 14.1515933 10.467159 5.04212576 26.5270478 0 26.5270478"></polygon>
                        <polygon id="element" fill="#34495E" points="5.90604027 26.5732033 9.84308538 26.5732033 16.0996652 15.3937098 14.1479845 11.9232678"></polygon>
                        <polygon id="element" fill="#34495E" points="36.6425537 4.11659193 31.0745288 4.11659193 27.2806338 10.9649155 23.3746232 4.11659193 18.0134228 4.11659193 27.2806338 20.5391247"></polygon>
                    </g>
                    <polygon id="green_line" fill="#59F4AE" fill-rule="nonzero" points="9.15589608 29.5 3 29.5 3 28.5 10.8441039 28.5 7.15089921 35.2402628 6.27391854 34.7597372"></polygon>
                    <polygon id="green_line" fill="#59F4AE" fill-rule="nonzero" points="59 28.5 59 29.5 48.111071 29.5 52.826552 21.7403396 53.6811313 22.2596604 49.888929 28.5"></polygon>
                </g>
            </g>
        </g>
    </g>
</svg>