<?xml version="1.0" encoding="UTF-8" standalone="no"?>
<svg width="360px" height="294px" viewBox="0 0 360 294" version="1.1" xmlns="http://www.w3.org/2000/svg" xmlns:xlink="http://www.w3.org/1999/xlink">
    <!-- Generator: Sketch 50.2 (55047) - http://www.bohemiancoding.com/sketch -->
    <title>8_1_nativescript_with_ngrx</title>
    <desc>Created with Sketch.</desc>
    <defs></defs>
    <g id="illustrations" stroke="none" stroke-width="1" fill="none" fill-rule="evenodd">
        <g id="nativescript_with_ngrx" transform="translate(1.000000, 0.000000)">
            <g id="nativescript_with_ngrx_image" transform="translate(64.000000, 36.000000)">
                <g id="circle_bg" transform="translate(27.000000, 30.000000)">
                    <circle id="circle_2" fill="#0C3E91" cx="88" cy="88" r="83"></circle>
                    <rect id="rectangle" fill="#1550B1" transform="translate(25.677670, 90.677670) rotate(-315.000000) translate(-25.677670, -90.677670) " x="13.1776695" y="78.1776695" width="25" height="25"></rect>
                    <rect id="rectangle" fill="#1D5BC1" transform="translate(60.313708, 144.313708) rotate(-315.000000) translate(-60.313708, -144.313708) " x="52.3137085" y="136.313708" width="16" height="16"></rect>
                    <rect id="rectangle" fill="#1148A3" transform="translate(42.516504, 70.516504) rotate(-315.000000) translate(-42.516504, -70.516504) " x="35.7873196" y="63.7873196" width="13.4583694" height="13.4583694"></rect>
                    <path d="M88,175.5 C39.6750844,175.5 0.5,136.324916 0.5,88 C0.5,39.6750844 39.6750844,0.5 88,0.5 C136.324916,0.5 175.5,39.6750844 175.5,88 C175.5,136.324916 136.324916,175.5 88,175.5 Z M88,174.5 C135.772631,174.5 174.5,135.772631 174.5,88 C174.5,40.2273691 135.772631,1.5 88,1.5 C40.2273691,1.5 1.5,40.2273691 1.5,88 C1.5,135.772631 40.2273691,174.5 88,174.5 Z" id="circle_1" fill="#0B49AF" fill-rule="nonzero"></path>
                    <rect id="rectangle" fill="#073581" transform="translate(127.167041, 76.167041) rotate(-315.000000) translate(-127.167041, -76.167041) " x="107.957042" y="56.9570422" width="38.4199982" height="38.4199982"></rect>
                    <rect id="rectangle" fill="#1550B1" transform="translate(118.920310, 143.920310) rotate(-315.000000) translate(-118.920310, -143.920310) " x="103.42031" y="128.42031" width="31" height="31"></rect>
                    <g id="circle" transform="translate(112.000000, 97.000000)">
                        <circle id="Oval" fill="#FFA4B7" cx="11" cy="10" r="7"></circle>
                        <path d="M10.9601682,16.9699984 C14.8248665,16.9699984 17.9578236,13.8370413 17.9578236,9.97234299 C17.9578236,7.8527408 17.0154308,5.95324624 15.5267841,4.66999817 C13.0304662,7.04396391 8.5503437,11.2902376 5.3999939,14.2216622 C6.67880331,15.8924345 8.6936465,16.9699984 10.9601682,16.9699984 Z" id="Oval" fill="#FF6D8C"></path>
                        <path d="M10.9720023,20.5 C5.17301244,20.5 0.472002314,15.7989899 0.472002314,10 C0.472002314,4.20101013 5.17301244,-0.5 10.9720023,-0.5 C16.7709922,-0.5 21.4720023,4.20101013 21.4720023,10 C21.4720023,15.7989899 16.7709922,20.5 10.9720023,20.5 Z M10.9720023,19.5 C16.2187074,19.5 20.4720023,15.2467051 20.4720023,10 C20.4720023,4.75329488 16.2187074,0.5 10.9720023,0.5 C5.72529719,0.5 1.47200231,4.75329488 1.47200231,10 C1.47200231,15.2467051 5.72529719,19.5 10.9720023,19.5 Z" id="stroke" fill="#2165D4" fill-rule="nonzero"></path>
                    </g>
                    <g id="circle" transform="translate(17.500000, 105.000000) rotate(-270.000000) translate(-17.500000, -105.000000) translate(7.000000, 95.000000)">
                        <circle id="Oval" fill="#61ECC2" cx="11" cy="10" r="7"></circle>
                        <path d="M10.9601682,16.9699984 C14.8248665,16.9699984 17.9578236,13.8370413 17.9578236,9.97234299 C17.9578236,7.8527408 17.0154308,5.95324624 15.5267841,4.66999817 C13.0304662,7.04396391 8.5503437,11.2902376 5.3999939,14.2216622 C6.67880331,15.8924345 8.6936465,16.9699984 10.9601682,16.9699984 Z" id="Oval" fill="#2CD2A1"></path>
                        <path d="M10.9720023,20.5 C5.17301244,20.5 0.472002314,15.7989899 0.472002314,10 C0.472002314,4.20101013 5.17301244,-0.5 10.9720023,-0.5 C16.7709922,-0.5 21.4720023,4.20101013 21.4720023,10 C21.4720023,15.7989899 16.7709922,20.5 10.9720023,20.5 Z M10.9720023,19.5 C16.2187074,19.5 20.4720023,15.2467051 20.4720023,10 C20.4720023,4.75329488 16.2187074,0.5 10.9720023,0.5 C5.72529719,0.5 1.47200231,4.75329488 1.47200231,10 C1.47200231,15.2467051 5.72529719,19.5 10.9720023,19.5 Z" id="stroke" fill="#2165D4" fill-rule="nonzero"></path>
                    </g>
                </g>
                <g id="bg_lines" transform="translate(62.000000, 21.000000)" fill-rule="nonzero">
                    <polygon id="Path-2" fill="#1D5BC1" points="42.0794084 154.647059 42.7877369 155.352941 0.354164233 197.933522 -0.354164233 197.227639"></polygon>
                    <polygon id="Path-2" fill="#276BDB" points="45.3517509 157.647059 46.0600793 158.352941 9.35416423 195.186022 8.64583577 194.480139"></polygon>
                    <polygon id="Path-2" fill="#367BEE" points="48.4267113 160.647059 49.1350398 161.352941 18.3541642 192.240455 17.6458358 191.534572"></polygon>
                    <polygon id="Path-2" fill="#1D5BC1" points="115.079408 -0.352941491 115.787737 0.352941491 73.3541642 42.9335223 72.6458358 42.2276393"></polygon>
                    <polygon id="Path-2" fill="#276BDB" points="106.614939 2.64705851 107.323267 3.35294149 70.3541642 40.4501214 69.6458358 39.7442384"></polygon>
                    <polygon id="Path-2" fill="#367BEE" points="97.4267113 5.64705851 98.1350398 6.35294149 67.3541642 37.2404552 66.6458358 36.5345723"></polygon>
                </g>
                <g id="logo" transform="translate(72.000000, 44.000000)">
                    <polygon id="shield_3" fill="#003182" points="1 10.1660296 25 0.641025641 49 10.1660296 44.9125565 43.8125916 25.040945 55.7394156 4.82596009 43.8125916"></polygon>
                    <path d="M4.08004149,12.3784883 L7.4444305,41.9658653 L25.0331525,52.3431964 L42.3194256,41.9680771 L45.914294,12.3762402 L25,4.07587634 L4.08004149,12.3784883 Z M3,11.7312537 L25,3 L47,11.7312537 L43.2531768,42.5739355 L25.0375329,53.5068575 L6.50713008,42.5739355 L3,11.7312537 Z" id="shield_2" fill="#367EF6" fill-rule="nonzero"></path>
                    <path d="M1.08004149,10.5691138 L4.92267551,44.362311 L25.0382706,56.2304951 L44.8084952,44.3645229 L48.914294,10.5668657 L25,1.07587634 L1.08004149,10.5691138 Z M0,9.92187915 L25,0 L50,9.92187915 L45.7422463,44.9703812 L25.0426511,57.3941562 L3.98537509,44.9703812 L0,9.92187915 Z" id="shield_1" fill="#1765E7" fill-rule="nonzero"></path>
                    <path d="M24.5273629,15.6942185 C26.2350795,15.1248348 35.342322,17.7954776 35.4015634,23.2213524 C35.5049824,26.8346432 26.4390205,23.6695013 24.7286967,22.8831405 C21.6682774,22.4987232 15.0701761,30.612767 23.8644096,36.2506941 C22.8278059,35.4274946 22.2197487,34.1915365 22.0402381,32.5428199 C25.6127793,36.3847719 28.9695504,37.7982127 32.1105516,36.7831425 C29.7138097,36.651334 28.7361094,35.5460257 28.3370628,35.0271927 C31.0833144,34.9731657 34.6207493,32.9522707 35.4015634,31.6998249 C34.9401395,31.9254592 33.918168,32.7647177 31.4891687,32.5428199 C37.5913225,27.5288828 36.0638625,22.4229015 35.7694684,21.2679795 C37.6072423,22.7231514 37.7620148,27.2686444 35.9844412,29.5929818 C36.8025794,28.8691701 38.2583428,26.6419643 38.4012351,25.9185377 C39.0420504,28.9302761 37.6385378,32.4882833 33.8423218,34.9441828 C35.7472774,34.711254 36.8867857,33.6807025 38.211922,32.6417358 C37.7917699,35.7185226 32.734247,40.8650656 27.0592196,40.5488747 C20.1796904,40.500072 15.929837,36.0241061 14.0548675,31.0287538 C13.3583833,30.2666812 13.1249438,29.9639413 12.5477139,28.5602146 C12.3976403,27.7029263 13.063967,27.6305554 13.309955,26.7734756 C13.5559429,25.9163958 12.360874,24.7737908 12.6781802,23.6876225 C12.9954864,22.6014542 14.5067264,21.9364596 14.6455164,21.2679795 C14.7843063,20.5994994 14.5607669,18.6123001 15.5628793,17.7350418 C16.5649917,16.8577836 18.101581,17.396233 18.6215545,16.8939156 C19.141528,16.3915982 20.0718808,14.5037148 21.8190196,14.5008141 C23.5661584,14.4979135 24.2823674,15.3094026 24.5273629,15.6942185 Z" id="body" fill="#367EF6"></path>
                    <ellipse id="oval" fill="#FFFFFF" cx="28.4927969" cy="20.1758876" rx="1" ry="1"></ellipse>
                </g>
                <g id="ns_logo" transform="translate(158.000000, 133.000000)">
                    <path d="M7.74873734,7.74873734 L7.74873734,41.7487373 L41.7487373,41.7487373 L41.7487373,7.74873734 L7.74873734,7.74873734 Z M42.7487373,6.74873734 L42.7487373,42.7487373 L6.74873734,42.7487373 L6.74873734,6.74873734 L42.7487373,6.74873734 Z" id="rectangle" fill="#1550B1" fill-rule="nonzero" transform="translate(24.748737, 24.748737) rotate(-315.000000) translate(-24.748737, -24.748737) "></path>
                    <rect id="rectangle" fill="#1550B1" transform="translate(24.920310, 24.920310) rotate(-315.000000) translate(-24.920310, -24.920310) " x="9.42031022" y="9.42031022" width="31" height="31"></rect>
                    <path d="M32.896634,23.0013011 L32.896634,18.9985583 C32.884036,18.4319891 32.6799098,17.9603169 32.2843538,17.5834481 C31.8886993,17.2062042 31.3932455,17.0120966 30.7986812,17.0001875 L28.701122,17.0001875 L28.701122,26.9986989 L20.298878,17 L18.2009252,17 C17.6062624,17.0120028 17.1112022,17.2061104 16.7156462,17.5833543 C16.3196965,17.9603169 16.115964,18.4319891 16.1034644,18.9983707 L16.1034644,23.0013011 C16.087028,23.5678703 15.8812287,24.0387922 15.485279,24.4140669 C15.0896245,24.7888728 14.5945643,24.9841995 14,24.9997656 C14.5945643,25.0157068 15.0897229,25.2110334 15.4851805,25.5858393 C15.8812287,25.961114 16.087028,26.432036 16.103366,26.9986051 L16.103366,31.001348 C16.115964,31.5674483 16.3196965,32.0395893 16.7156462,32.4164581 C17.1113007,32.7934207 17.6063608,32.9878097 18.2008267,32.9997187 L20.298878,32.9997187 L20.298878,23.0013949 L28.701122,33 L30.7986812,33 C31.3932455,32.9879972 31.8887978,32.7935145 32.2843538,32.4166457 C32.6800082,32.0396831 32.884036,31.5676358 32.8965356,31.0016293 L32.8965356,26.9986989 C32.912972,26.4321297 33.1187713,25.9612078 33.514721,25.5859331 C33.9103755,25.2111272 34.4054357,25.0158005 35,24.9998593 C34.4054357,24.9841995 33.9102771,24.7889666 33.5148195,24.4141607 C33.1187713,24.0387922 32.912972,23.5678703 32.896634,23.0013011 Z" id="Path" fill="#5998FF"></path>
                </g>
                <g id="spaceship" transform="translate(117.051299, 116.551299) rotate(-315.000000) translate(-117.051299, -116.551299) translate(26.051299, 43.051299)">
                    <g id="lines" transform="translate(76.000000, 138.000000)" fill="#FFFFFF">
                        <rect id="line" x="0" y="0" width="30" height="1"></rect>
                        <rect id="line" x="4" y="4" width="22" height="1"></rect>
                        <rect id="line" x="8" y="8" width="14" height="1"></rect>
                    </g>
                    <g id="wing" transform="translate(110.000000, 90.000000)">
                        <polygon id="wing_bg" fill="#FCD78A" transform="translate(34.554728, 15.000000) scale(-1, 1) translate(-34.554728, -15.000000) " points="0.0427862344 0 57 0 69.0666704 15 57 30 0.0427862344 30"></polygon>
                        <polygon id="element" fill="#FFFFFF" fill-rule="nonzero" transform="translate(65.198701, 26.198701) rotate(-180.000000) translate(-65.198701, -26.198701) " points="59.4487014 32.9487014 58.4487014 32.9487014 58.4487014 19.4487014 71.9487014 19.4487014 71.9487014 20.4487014 59.4487014 20.4487014"></polygon>
                        <path d="M13,2 L25,2 L25,28 L13,28 L13,2 Z M27,2 L39,2 L39,28 L27,28 L27,2 Z M41,2 L53,2 L53,28 L41,28 L41,2 Z M55,2 L67,2 L67,28 L55,28 L55,2 Z" id="elements" fill="#DF81FF"></path>
                        <path d="M25,2 L25,28 L13,28 L25,2 Z M39,2 L39,28 L27,28 L39,2 Z M53,2 L53,28 L41,28 L53,2 Z M67,2 L67,28 L55,28 L67,2 Z" id="shadows" fill="#D457FF"></path>
                        <path d="M14,3 L22,3 L22,4 L14,4 L14,3 Z M28,3 L36,3 L36,4 L28,4 L28,3 Z M42,3 L50,3 L50,4 L42,4 L42,3 Z M56,3 L64,3 L64,4 L56,4 L56,3 Z" id="lines" fill="#FFFFFF"></path>
                    </g>
                    <g id="wing" transform="translate(0.000000, 87.000000)">
                        <polygon id="wing_bg" fill="#FCD78A" points="3.04278623 3 60 3 72.0666704 18 60 33 3.04278623 33"></polygon>
                        <polygon id="element" fill="#FFFFFF" fill-rule="nonzero" points="0.5 0.5 0.5 13 -0.5 13 -0.5 -0.5 13 -0.5 13 0.5"></polygon>
                        <path d="M5,5 L17,5 L17,31 L5,31 L5,5 Z M19,5 L31,5 L31,31 L19,31 L19,5 Z M33,5 L45,5 L45,31 L33,31 L33,5 Z M47,5 L59,5 L59,31 L47,31 L47,5 Z" id="elements" fill="#DF81FF"></path>
                        <path d="M17,5 L17,31 L5,31 L17,5 Z M31,5 L31,31 L19,31 L31,5 Z M45,5 L45,31 L33,31 L45,5 Z M59,5 L59,31 L47,31 L59,5 Z" id="shadows" fill="#D457FF"></path>
                        <path d="M6,6 L14,6 L14,7 L6,7 L6,6 Z M20,6 L28,6 L28,7 L20,7 L20,6 Z M34,6 L42,6 L42,7 L34,7 L34,6 Z M48,6 L56,6 L56,7 L48,7 L48,6 Z" id="lines" fill="#FFFFFF"></path>
                    </g>
                    <g id="block_4" transform="translate(71.000000, 81.000000)">
                        <rect id="block_bg" fill="#79E0FF" x="1" y="8" width="38" height="46"></rect>
                        <polygon id="block_bg_shadow" fill="#15BDF0" points="39 8 39 54 1 54"></polygon>
                        <rect id="element" fill="#6994DB" x="41.9487014" y="32.9487014" width="1" height="18"></rect>
                        <rect id="block_bg_shadow" fill="#01A2D3" transform="translate(20.000000, 4.000000) rotate(-360.000000) translate(-20.000000, -4.000000) " x="8" y="0" width="24" height="8"></rect>
                        <rect id="line" fill="#FFFFFF" x="3" y="10" width="19" height="1"></rect>
                        <polygon id="line" fill="#3278EB" points="0.948701448 12.9487014 38.9487014 12.9487014 38.9487014 14.9487014 0.948701448 14.9487014"></polygon>
                        <polygon id="line" fill="#3278EB" points="0.948701448 16.9487014 38.9487014 16.9487014 38.9487014 18.9487014 0.948701448 18.9487014"></polygon>
                        <polygon id="line" fill="#0F55C9" points="6.65685425 47.4142136 32.6568542 47.4142136 32.6568542 49.4142136 6.65685425 49.4142136"></polygon>
                    </g>
                    <g id="block_3" transform="translate(75.000000, 44.000000)">
                        <rect id="block_bg_shadow" fill="#01A2D3" transform="translate(16.000000, 4.000000) rotate(-360.000000) translate(-16.000000, -4.000000) " x="9" y="0" width="14" height="8"></rect>
                        <polygon id="block_bg" fill="#79E0FF" transform="translate(16.000000, 22.500000) rotate(-360.000000) translate(-16.000000, -22.500000) " points="9 8 23 8 31.9971024 16 32 37 0 36.9982535 0.00667957418 16"></polygon>
                        <polygon id="block_bg_shadow" fill="#15BDF0" transform="translate(16.007489, 22.500000) rotate(-360.000000) translate(-16.007489, -22.500000) " points="9 8 23 8 31.9971024 16 32.0082983 37 0.00667957418 37 18.720033 16 0.00667957418 16"></polygon>
                        <rect id="element" fill="#6994DB" x="34.9487014" y="17.9487014" width="1" height="13"></rect>
                        <rect id="line" fill="#FFFFFF" x="2" y="18" width="10" height="1"></rect>
                        <path d="M24,28 C24.5522847,28 25,28.4477153 25,29 C25,29.5522847 24.5522847,30 24,30 C23.4477153,30 23,29.5522847 23,29 C23,28.4477153 23.4477153,28 24,28 Z M24,32 C24.5522847,32 25,32.4477153 25,33 C25,33.5522847 24.5522847,34 24,34 C23.4477153,34 23,33.5522847 23,33 C23,32.4477153 23.4477153,32 24,32 Z M28,28 C28.5522847,28 29,28.4477153 29,29 C29,29.5522847 28.5522847,30 28,30 C27.4477153,30 27,29.5522847 27,29 C27,28.4477153 27.4477153,28 28,28 Z M28,32 C28.5522847,32 29,32.4477153 29,33 C29,33.5522847 28.5522847,34 28,34 C27.4477153,34 27,33.5522847 27,33 C27,32.4477153 27.4477153,32 28,32 Z" id="elements" fill="#FFFFFF"></path>
                    </g>
                    <g id="block_2" transform="translate(72.000000, 8.000000)">
                        <rect id="block_bg" fill="#79E0FF" transform="translate(19.000000, 18.000000) rotate(-360.000000) translate(-19.000000, -18.000000) " x="0" y="0" width="38" height="36"></rect>
                        <polygon id="block_bg_shadow" fill="#15BDF0" transform="translate(19.000000, 18.000000) rotate(-360.000000) translate(-19.000000, -18.000000) " points="38 0 38 36 0 36"></polygon>
                        <rect id="element" fill="#6994DB" x="41" y="2" width="1" height="27"></rect>
                        <g id="circle" transform="translate(9.000000, 9.000000)">
                            <circle id="Oval" fill="#FCD78A" cx="10" cy="10" r="7"></circle>
                            <path d="M10,17 C13.8659932,17 17,13.8659932 17,10 C17,7.87968762 16.0572915,5.97955661 14.5681459,4.69587858 C12.0709917,7.07063974 7.58936806,11.3183361 4.43796271,14.250743 C5.7172006,15.9220751 7.73271888,17 10,17 Z" id="Oval" fill="#FFBE37"></path>
                            <path d="M10,20.5 C4.20101013,20.5 -0.5,15.7989899 -0.5,10 C-0.5,4.20101013 4.20101013,-0.5 10,-0.5 C15.7989899,-0.5 20.5,4.20101013 20.5,10 C20.5,15.7989899 15.7989899,20.5 10,20.5 Z M10,19.5 C15.2467051,19.5 19.5,15.2467051 19.5,10 C19.5,4.75329488 15.2467051,0.5 10,0.5 C4.75329488,0.5 0.5,4.75329488 0.5,10 C0.5,15.2467051 4.75329488,19.5 10,19.5 Z" id="stroke" fill="#FFFFFF" fill-rule="nonzero"></path>
                        </g>
                        <rect id="line" fill="#FFFFFF" x="2" y="2" width="29" height="1"></rect>
                    </g>
                    <g id="block_1" transform="translate(79.000000, 0.000000)">
                        <rect id="block_bg" fill="#79E0FF" transform="translate(12.000000, 4.000000) rotate(-360.000000) translate(-12.000000, -4.000000) " x="0" y="0" width="24" height="8"></rect>
                        <rect id="line" fill="#FFFFFF" x="2" y="2" width="16" height="1"></rect>
                    </g>
                </g>
            </g>
        </g>
    </g>
</svg>