<?xml version="1.0" encoding="UTF-8" standalone="no"?>
<svg width="360px" height="294px" viewBox="0 0 360 294" version="1.1" xmlns="http://www.w3.org/2000/svg" xmlns:xlink="http://www.w3.org/1999/xlink">
    <!-- Generator: Sketch 50.2 (55047) - http://www.bohemiancoding.com/sketch -->
    <title>7_1_nativescript_enterprise_auth</title>
    <desc>Created with Sketch.</desc>
    <defs></defs>
    <g id="illustrations" stroke="none" stroke-width="1" fill="none" fill-rule="evenodd">
        <g id="nativescript_enterprise_auth">
            <g id="nativescript_enterprise_auth_image" transform="translate(92.000000, 66.000000)">
                <g id="circle_bg">
                    <circle id="circle_2" fill="#0C3E91" cx="88" cy="88" r="83"></circle>
                    <path d="M88,175.5 C39.6750844,175.5 0.5,136.324916 0.5,88 C0.5,39.6750844 39.6750844,0.5 88,0.5 C136.324916,0.5 175.5,39.6750844 175.5,88 C175.5,136.324916 136.324916,175.5 88,175.5 Z M88,174.5 C135.772631,174.5 174.5,135.772631 174.5,88 C174.5,40.2273691 135.772631,1.5 88,1.5 C40.2273691,1.5 1.5,40.2273691 1.5,88 C1.5,135.772631 40.2273691,174.5 88,174.5 Z" id="circle_1" fill="#0B49AF" fill-rule="nonzero"></path>
                    <rect id="rectangle" fill="#1550B1" transform="translate(25.677670, 90.677670) rotate(-315.000000) translate(-25.677670, -90.677670) " x="13.1776695" y="78.1776695" width="25" height="25"></rect>
                    <rect id="rectangle" fill="#1D5BC1" transform="translate(61.313708, 21.313708) rotate(-315.000000) translate(-61.313708, -21.313708) " x="53.3137085" y="13.3137085" width="16" height="16"></rect>
                    <rect id="rectangle" fill="#1148A3" transform="translate(42.516504, 70.516504) rotate(-315.000000) translate(-42.516504, -70.516504) " x="35.7873196" y="63.7873196" width="13.4583694" height="13.4583694"></rect>
                    <path d="M126.62868,128.048678 L168.048678,128.048678 L168.048678,86.6286797 L126.62868,86.6286797 L126.62868,128.048678 Z M169.048678,85.6286797 L169.048678,129.048678 L125.62868,129.048678 L125.62868,85.6286797 L169.048678,85.6286797 Z" id="rectangle" fill="#1550B1" fill-rule="nonzero" transform="translate(147.338679, 107.338679) rotate(-315.000000) translate(-147.338679, -107.338679) "></path>
                    <rect id="rectangle" fill="#1550B1" transform="translate(147.338679, 107.338679) rotate(-315.000000) translate(-147.338679, -107.338679) " x="128.12868" y="88.1286797" width="38.4199982" height="38.4199982"></rect>
                    <path d="M16.5,119.5 L16.5,153.5 L50.5,153.5 L50.5,119.5 L16.5,119.5 Z M51.5,118.5 L51.5,154.5 L15.5,154.5 L15.5,118.5 L51.5,118.5 Z" id="rectangle" fill="#1550B1" fill-rule="nonzero" transform="translate(33.500000, 136.500000) rotate(-315.000000) translate(-33.500000, -136.500000) "></path>
                    <rect id="rectangle" fill="#1550B1" transform="translate(33.500000, 136.500000) rotate(-315.000000) translate(-33.500000, -136.500000) " x="18" y="121" width="31" height="31"></rect>
                </g>
                <g id="logo" transform="translate(8.000000, 8.000000)" fill-rule="nonzero">
                    <path d="M14.3116059,16.3548667 C10.9657431,20.2919237 7.71103255,24.1318826 5.19623643,27.1080594 C3.84197807,28.7107787 1.86876354,31.0596599 1.51800877,31.4573608 C1.69920411,31.2916892 1.69073219,31.2982848 1.40334437,31.0292926 C1.44010402,31.0636993 1.49974457,31.1168404 1.58035931,31.1868896 C1.74443165,31.3294583 1.99098152,31.5382988 2.31582784,31.8099099 C2.9500808,32.3402225 3.87741175,33.1053223 5.0582858,34.072827 C7.3564071,35.9557062 10.5510522,38.5529042 14.1200797,41.4402051 C20.889793,46.9168231 26.0578405,51.1082132 27.0243768,51.908043 C27.0628232,51.8775109 27.1097139,51.839979 27.165513,51.7946979 C27.4147496,51.5864455 32.606676,47.3884403 40.1579733,41.2883921 C43.3207526,38.7334527 51.0563782,32.4442964 52.3432167,31.4624501 C52.1770909,31.2573232 51.9336101,30.9607474 51.6171725,30.5780466 C50.9749324,29.8013193 50.039204,28.678334 48.8664469,27.2767514 C46.479316,24.4238496 43.2413846,20.573425 39.784517,16.4775969 C33.5682445,9.11232104 28.1829736,2.70907779 26.9943483,1.27093628 C25.7317022,2.8744123 21.1411379,8.31859653 14.3116059,16.3548667 Z M52.5259311,31.3340247 L52.584878,31.2144033 C52.3846595,31.512397 51.890251,30.8768201 52.3462771,31.4601158 C52.4663499,31.3685593 52.5292918,31.3240209 52.5259311,31.3340247 Z M1.51800877,31.4573608 C1.48078186,31.4995703 1.46183093,31.5198009 1.46383567,31.514828 C1.51647789,31.3842452 1.58884544,31.3470341 1.6313201,31.325733 L1.51800877,31.4573608 Z M27.3166483,0.858586071 C27.330992,0.834937563 27.3401473,0.81059723 27.3459588,0.787531936 C27.3437534,0.796285028 27.335229,0.812328219 27.3204684,0.835566553 L27.3166483,0.858586071 Z M40.7863679,42.0662868 C33.2723878,48.1361897 28.0487297,52.3598519 27.8012475,52.5665733 C27.1530577,53.0927891 26.9078622,53.1771958 26.4811625,52.7538121 C26.4064358,52.6796661 20.4687487,47.8624621 13.491133,42.2176536 C-1.35116823,30.2104075 0.349705507,31.6039545 0.536364288,31.1409339 C0.601476561,30.9794182 5.93805604,24.6637555 13.5496059,15.7072897 C19.3978397,8.82570735 26.3806398,0.525845421 26.3762647,0.543209746 C26.4538579,0.23524882 26.6168582,0 26.9722224,0 C27.2738996,0 27.3737007,0.104526993 27.5897319,0.42644562 C27.6419205,0.509298386 34.0529993,8.13624445 40.5487154,15.8326156 C44.0064395,19.9294585 47.2452608,23.7809414 49.6333825,26.6350273 C50.8072821,28.0379753 51.7441368,29.1623123 52.387844,29.9408139 C52.7160442,30.3377404 52.9666777,30.6431157 53.1357202,30.8521043 C53.2227758,30.9597319 53.288562,31.0422471 53.3334414,31.1001796 C54.1890933,32.2046953 53.641589,31.4347428 53.4149226,31.7721003 C52.8470213,32.3100814 49.600418,34.9461684 40.7863679,42.0662868 Z" id="bg_stroke" fill="#3579E7"></path>
                    <path d="M26.9754276,4 C27.0245727,4 27.0737178,4.060954 27.1474354,4.17067119 C27.2088668,4.26819758 32.3813897,10.4245512 38.6473913,17.8487479 C44.9133928,25.2729446 50.0244843,31.380535 49.9999118,31.4171074 C49.9876255,31.4536798 44.9993968,35.5132159 38.9176894,40.4261079 C32.835982,45.339 27.6634591,49.5204441 27.4300198,49.7154969 C27.0245727,50.0446485 27.0000001,50.0568393 26.8525648,49.9105497 C26.7665608,49.8252141 21.5817517,45.6193884 15.3280364,40.5602067 C9.07432109,35.5010251 3.97551589,31.3317718 4.00008845,31.2708178 C4.024661,31.2098638 9.16032504,25.126655 15.4386129,17.7390307 C21.7169007,10.3514064 26.8525648,4.24381598 26.8771373,4.14628959 C26.9017099,4.0487632 26.9385687,4 26.9754276,4 Z" id="bg" fill="#3579E7"></path>
                    <path d="M26.1198055,42.5890167 C25.4083332,42.3328395 24.5496596,41.6009046 24.1939235,40.9177655 C23.7523199,40.0760404 23.7891202,38.7585577 24.2797908,37.7094511 C24.6600605,36.9287206 24.6600605,36.9043227 24.4147252,36.721339 C24.2797908,36.6237477 22.6483111,35.7210281 20.8082964,34.732916 C18.9682816,33.744804 17.3613355,32.8786811 17.2509346,32.8176865 C17.1037334,32.7322941 16.8583981,32.8176865 16.4167946,33.0982615 C14.9815831,34.0009812 13.4850378,33.9033899 12.3074283,32.8176865 C11.4610216,32.036956 11.2156863,31.4880049 11.2156863,30.3657048 C11.2156863,29.2800014 11.436488,28.7188514 12.1356936,28.0235133 C13.0802345,27.0841969 14.3437113,26.7670251 15.558121,27.1695893 C16.2205263,27.3891698 16.2327931,27.3891698 16.6498631,27.071998 C17.1405337,26.7060306 21.0781652,23.1317487 22.9795137,21.3385084 L24.2920576,20.0942191 L23.8995211,19.2768919 C23.1021814,17.6300385 23.5069846,15.8002014 24.9053958,14.7022991 C25.6659352,14.1045523 26.2302064,13.9215686 27.3219485,13.9215686 C29.8734356,13.9215686 31.6521165,16.5809319 30.6953088,18.9597201 C30.4377068,19.6184615 30.4377068,19.6306604 30.6830421,20.0332246 C30.8915771,20.3869931 34.4366721,24.6444141 36.3134871,26.8158208 C36.6446898,27.1939871 37.0126927,27.49896 37.1353604,27.49896 C37.258028,27.49896 37.675098,27.3769708 38.0676345,27.2305839 C39.8953824,26.5108479 41.8212645,27.3159763 42.5818039,29.1214156 C43.0724745,30.2803124 42.6431378,31.8417734 41.6004628,32.7810898 C40.8644569,33.4398311 40.3247192,33.6472127 39.343378,33.6472127 C38.6564392,33.6472127 38.3988371,33.5740192 37.675098,33.1836539 C37.1353604,32.89088 36.7182904,32.744493 36.5465556,32.7932887 C36.2521533,32.8664822 31.7257171,35.9528074 30.7198424,36.7579358 C30.1065041,37.2580912 30.0574371,37.441075 30.3763729,38.1852087 C30.6830421,38.9171436 30.6462418,40.0638415 30.3027723,40.7835774 C29.9225026,41.5765068 28.9779617,42.3694362 28.1560885,42.6134145 C27.3219485,42.8451939 26.8190111,42.8451939 26.1198055,42.5890167 Z M26.3283405,29.1458134 L26.3283405,22.1924324 L25.9358041,21.6556801 C25.7150023,21.3629062 25.5064673,21.1189279 25.469667,21.1189279 C25.3101991,21.1189279 17.385869,28.2796905 17.385869,28.4260775 C17.385869,28.4626742 17.5085366,28.8286416 17.6557378,29.2190069 C17.802939,29.621571 17.9133399,30.19492 17.9010731,30.5242907 C17.8888063,30.8536614 17.8888063,31.2196288 17.8888063,31.3416179 C17.9010731,31.6221929 20.5506943,33.3056431 24.5251261,35.58684 C25.6168682,36.2211835 25.9971379,36.3797694 26.1320723,36.2699792 C26.2915402,36.1357911 26.3283405,34.7817117 26.3283405,29.1458134 Z M29.6894341,35.2940661 C34.9396095,32.0125582 35.9209506,31.3538168 35.9822845,31.1098385 C36.0190848,30.9634516 36.0681518,30.3901026 36.0804186,29.8167537 L36.1172189,28.7920449 L33.4430641,25.6325261 C30.5726412,22.2534269 29.5176994,21.106729 29.2723641,21.106729 C29.1864967,21.106729 28.75716,21.3507073 28.3155564,21.6434812 L27.50595,22.1802335 L27.5427503,29.1214156 C27.5795506,35.3428617 27.6286176,36.3919683 27.8616861,36.3919683 C27.8862197,36.4041673 28.7203597,35.9040118 29.6894341,35.2940661 Z M26.1198055,42.5890167 C25.4083332,42.3328395 24.5496596,41.6009046 24.1939235,40.9177655 C23.7523199,40.0760404 23.7891202,38.7585577 24.2797908,37.7094511 C24.6600605,36.9287206 24.6600605,36.9043227 24.4147252,36.721339 C24.2797908,36.6237477 22.6483111,35.7210281 20.8082964,34.732916 C18.9682816,33.744804 17.3613355,32.8786811 17.2509346,32.8176865 C17.1037334,32.7322941 16.8583981,32.8176865 16.4167946,33.0982615 C14.9815831,34.0009812 13.4850378,33.9033899 12.3074283,32.8176865 C11.4610216,32.036956 11.2156863,31.4880049 11.2156863,30.3657048 C11.2156863,29.2800014 11.436488,28.7188514 12.1356936,28.0235133 C13.0802345,27.0841969 14.3437113,26.7670251 15.558121,27.1695893 C16.2205263,27.3891698 16.2327931,27.3891698 16.6498631,27.071998 C17.1405337,26.7060306 21.0781652,23.1317487 22.9795137,21.3385084 L24.2920576,20.0942191 L23.8995211,19.2768919 C23.1021814,17.6300385 23.5069846,15.8002014 24.9053958,14.7022991 C25.6659352,14.1045523 26.2302064,13.9215686 27.3219485,13.9215686 C29.8734356,13.9215686 31.6521165,16.5809319 30.6953088,18.9597201 C30.4377068,19.6184615 30.4377068,19.6306604 30.6830421,20.0332246 C30.8915771,20.3869931 34.4366721,24.6444141 36.3134871,26.8158208 C36.6446898,27.1939871 37.0126927,27.49896 37.1353604,27.49896 C37.258028,27.49896 37.675098,27.3769708 38.0676345,27.2305839 C39.8953824,26.5108479 41.8212645,27.3159763 42.5818039,29.1214156 C43.0724745,30.2803124 42.6431378,31.8417734 41.6004628,32.7810898 C40.8644569,33.4398311 40.3247192,33.6472127 39.343378,33.6472127 C38.6564392,33.6472127 38.3988371,33.5740192 37.675098,33.1836539 C37.1353604,32.89088 36.7182904,32.744493 36.5465556,32.7932887 C36.2521533,32.8664822 31.7257171,35.9528074 30.7198424,36.7579358 C30.1065041,37.2580912 30.0574371,37.441075 30.3763729,38.1852087 C30.6830421,38.9171436 30.6462418,40.0638415 30.3027723,40.7835774 C29.9225026,41.5765068 28.9779617,42.3694362 28.1560885,42.6134145 C27.3219485,42.8451939 26.8190111,42.8451939 26.1198055,42.5890167 Z M26.3283405,29.1458134 L26.3283405,22.1924324 L25.9358041,21.6556801 C25.7150023,21.3629062 25.5064673,21.1189279 25.469667,21.1189279 C25.3101991,21.1189279 17.385869,28.2796905 17.385869,28.4260775 C17.385869,28.4626742 17.5085366,28.8286416 17.6557378,29.2190069 C17.802939,29.621571 17.9133399,30.19492 17.9010731,30.5242907 C17.8888063,30.8536614 17.8888063,31.2196288 17.8888063,31.3416179 C17.9010731,31.6221929 20.5506943,33.3056431 24.5251261,35.58684 C25.6168682,36.2211835 25.9971379,36.3797694 26.1320723,36.2699792 C26.2915402,36.1357911 26.3283405,34.7817117 26.3283405,29.1458134 Z M29.6894341,35.2940661 C34.9396095,32.0125582 35.9209506,31.3538168 35.9822845,31.1098385 C36.0190848,30.9634516 36.0681518,30.3901026 36.0804186,29.8167537 L36.1172189,28.7920449 L33.4430641,25.6325261 C30.5726412,22.2534269 29.5176994,21.106729 29.2723641,21.106729 C29.1864967,21.106729 28.75716,21.3507073 28.3155564,21.6434812 L27.50595,22.1802335 L27.5427503,29.1214156 C27.5795506,35.3428617 27.6286176,36.3919683 27.8616861,36.3919683 C27.8862197,36.4041673 28.7203597,35.9040118 29.6894341,35.2940661 Z" id="path923" fill="#FFFFFF"></path>
                    <path d="M26.3081863,42.0658332 C26.8883121,42.2783723 27.2715868,42.282055 27.9978425,42.0803418 C28.6773011,41.8786402 29.4926787,41.1868287 29.8009231,40.544087 C30.0782101,39.9630355 30.1071423,38.981587 29.8652739,38.4042659 C29.4501855,37.4357915 29.5597202,36.9864601 30.3723585,36.3238122 C31.4712144,35.4442593 36.0087143,32.3540126 36.3945745,32.2583962 C36.7639705,32.1534382 37.25904,32.3253634 37.939074,32.6942411 C38.5880622,33.0442877 38.7561972,33.0911477 39.343378,33.0911477 C40.1873074,33.0911477 40.5951525,32.9346045 41.228276,32.367949 C42.1067259,31.5765784 42.4615023,30.2634966 42.0693508,29.3372859 C41.4265265,27.8112898 39.8192589,27.1384491 38.2619342,27.7515982 C37.7930875,27.9264432 37.3486292,28.055025 37.1353604,28.055025 C36.7762477,28.055025 36.3485587,27.699858 35.892789,27.1794434 C33.8844799,24.8559028 30.4309906,20.7006617 30.2082074,20.3226038 C29.8600946,19.7513948 29.8622201,19.5632677 30.1794122,18.7522137 C30.989953,16.7370698 29.4776846,14.4776336 27.3219485,14.4776336 C26.3519449,14.4776336 25.9088537,14.6208871 25.2487805,15.1396723 C24.0568662,16.0754524 23.7161787,17.6221623 24.400774,19.036156 L24.7933105,19.8534832 C24.8978865,20.0712281 24.8499249,20.3315825 24.6746222,20.4977691 L23.3610423,21.743038 C21.3761118,23.615108 17.4835896,27.1438614 16.9864623,27.5146144 C16.4097722,27.9531734 16.2084085,27.9709734 15.3831539,27.6974101 C14.3718785,27.3621828 13.3265991,27.6234179 12.527799,28.4177996 C11.9362112,29.0061151 11.7717513,29.4246632 11.7717513,30.3657048 C11.7717513,31.3306144 11.9506179,31.7320622 12.6843485,32.4088596 C13.6711595,33.3186553 14.8911411,33.4009534 16.1185939,32.6289166 C16.7426413,32.232425 17.1261116,32.1024196 17.5198399,32.3309646 C17.6511465,32.4035092 19.449326,33.3719586 21.0713764,34.243021 C22.8935837,35.2215702 24.5671481,36.1453193 24.7471796,36.275601 C25.3038779,36.6908153 25.2697604,36.9468237 24.7834873,37.9450315 C24.3619744,38.8462716 24.3311786,39.982475 24.6871247,40.6609371 C24.9734348,41.2107536 25.7179662,41.8533148 26.3081863,42.0658332 Z M23.701512,41.1761048 C23.1744988,40.1715833 23.2151079,38.6733202 23.7798723,37.4659562 C23.8609663,37.2994623 23.9184221,37.1784286 23.9576977,37.0929098 C23.5085866,36.8333877 22.0220648,36.0158981 20.5452163,35.2228111 C19.103414,34.4485443 17.5327645,33.6028964 17.0865263,33.36108 C17.0030848,33.3954462 16.879402,33.4631489 16.7128544,33.5689598 C15.0671957,34.6040466 13.29498,34.4844956 11.9304087,33.2264217 C10.9701554,32.3406785 10.6596213,31.6437166 10.6596213,30.3657048 C10.6596213,29.1361267 10.9362572,28.4320925 11.7435883,27.629227 C12.8357572,26.5430992 14.3179609,26.1726686 15.7330881,26.6417685 C16.2352266,26.8082222 16.0574274,26.8239391 16.3174087,26.62626 C16.7686361,26.2897113 20.6535682,22.7678387 22.5969491,20.9349584 L23.6153138,19.9695505 L23.3990307,19.5192091 C22.4893886,17.6404024 22.9549842,15.5266139 24.5617829,14.2651053 C25.4242104,13.5872795 26.110176,13.3655036 27.3219485,13.3655036 C30.2679229,13.3655036 32.3147543,16.4236147 31.2131847,19.1622365 C31.0133353,19.6732924 31.0151836,19.509704 31.1620754,19.7508501 C31.335863,20.0456714 34.8149741,24.2317407 36.7318003,26.4494571 C36.8740711,26.6119016 37.027963,26.7635285 37.1578757,26.8714122 C37.1628268,26.942895 37.5411949,26.8334331 37.8638931,26.7131887 C39.9728502,25.8827174 42.2165611,26.8219886 43.0938632,28.9046125 C43.6788979,30.2863843 43.1893987,32.0980957 41.9713096,33.1954337 C41.1333426,33.9454325 40.4615734,34.2032777 39.343378,34.2032777 C38.5616994,34.2032777 38.2149776,34.1066447 37.4099624,33.6724396 C37.0037434,33.4520911 36.6701568,33.3362449 36.6807188,33.3329261 C36.5039484,33.3768743 32.010488,36.437128 31.0712618,37.1888797 C30.6477206,37.5342624 30.667532,37.4529926 30.8892407,37.9703252 C31.2561421,38.8460178 31.2174675,40.1579543 30.8041607,41.0240311 C30.3591765,41.9519016 29.2939804,42.8556731 28.3049599,43.1491809 C27.3560714,43.412845 26.7369106,43.4070599 25.9299653,43.1116744 C25.0794355,42.8048736 24.1170063,41.9740064 23.701512,41.1761048 Z M17.1152793,33.3476988 C17.1195227,33.3478153 17.1220888,33.3476022 17.1228032,33.34736 C17.1224098,33.3474934 17.1199018,33.3476063 17.1152793,33.3476988 Z M17.0098378,33.3194407 C16.9925973,33.3100501 16.9798595,33.3030782 16.9719083,33.2986778 C16.9888476,33.3085044 17.0047623,33.3164005 17.0194381,33.3227355 L17.0098378,33.3194407 Z M26.4830231,36.7013049 C26.0435446,37.0588893 25.7048995,36.9154494 24.2483179,36.0691112 C19.4712856,33.3272472 17.3600915,31.9793409 17.3327413,31.3416179 C17.3327413,31.085448 17.3344806,30.8746089 17.3410211,30.6389904 C17.3429965,30.5712082 17.3429965,30.5712082 17.3453933,30.5035955 C17.354583,30.2568478 17.259445,29.7544265 17.1354356,29.4152054 C16.9398576,28.896549 16.829804,28.5716344 16.829804,28.4260775 C16.829804,27.9598993 25.0143094,20.5628629 25.469667,20.5628629 C25.7621878,20.6287272 25.7621878,20.6287272 25.8248931,20.6851675 C25.8780492,20.7279518 25.8780492,20.7279518 25.914996,20.763317 C25.9560411,20.803302 26.0021801,20.853424 26.0544698,20.9139337 C26.1483117,21.0225275 26.2633391,21.1664804 26.3846487,21.3274321 L26.7771852,21.8641843 C26.8468541,21.9594493 26.8844055,22.0744104 26.8844055,22.1924324 L26.8844055,29.1458134 C26.8844055,35.9293698 26.8721844,36.373935 26.4830231,36.7013049 Z M26.0351908,35.7441022 C26.0416768,35.7458978 26.0464486,35.746968 26.049431,35.7473566 C26.0482446,35.747202 26.0470489,35.7470559 26.045844,35.7469184 L26.0351908,35.7441022 Z M25.7341519,34.7557571 C25.7617456,33.7519899 25.7722755,32.1187491 25.7722755,29.1458134 L25.7722755,22.3740396 L25.4918426,21.9905032 C25.4625686,21.9516871 25.4334991,21.9137495 25.4051282,21.8772984 C25.1846652,22.0642863 24.8804679,22.3285128 24.5066862,22.6574981 C23.7637132,23.3114283 22.7693707,24.2005586 21.7408174,25.13015 C20.7104511,26.06138 19.7273497,26.9594646 19.0048395,27.6301267 C18.6236852,27.983929 18.3212481,28.268668 18.1132065,28.4698252 C18.0461658,28.5346474 17.9894539,28.5902875 17.94379,28.6360103 C17.9993833,28.564684 17.941934,28.5849933 17.941934,28.4260775 C17.941934,28.3478055 17.985102,28.4903067 17.992276,28.5114866 C18.0422555,28.6590425 18.1082149,28.8429416 18.177984,29.0280429 C18.3502328,29.4991072 18.4717957,30.1410771 18.4567529,30.5449859 C18.4545584,30.60688 18.4545584,30.60688 18.4527228,30.6698499 C18.4481136,30.8358964 18.4460124,30.990779 18.4450218,31.1509875 C18.5076365,31.2056066 18.5948734,31.2750209 18.7045,31.3568027 C19.0017469,31.5785502 19.4461021,31.878652 20.0203899,32.24531 C21.1804914,32.9859847 22.8346303,33.9753992 24.8044873,35.1060432 C25.1974674,35.3343795 25.486515,35.4939869 25.697606,35.5991062 C25.7122428,35.3899685 25.7243468,35.1124325 25.7341519,34.7557571 Z M17.94379,28.6360103 C17.9174834,28.6623508 17.8948436,28.6854 17.8760079,28.7050172 C17.9315989,28.6471195 17.9596081,28.6195447 17.97163,28.6029632 L17.94379,28.6360103 Z M25.6105381,21.7008323 C25.6225291,21.695852 25.6429982,21.6783879 25.6961415,21.6366344 C25.6820324,21.6477196 25.6663367,21.6602423 25.649095,21.6741697 L25.6105381,21.7008323 Z M25.1532842,21.574544 C25.1477086,21.568675 25.1429011,21.5637749 25.1389556,21.5599313 C25.1404158,21.5613538 25.141859,21.562759 25.1432861,21.5641471 L25.1532842,21.574544 Z M28.7075722,36.5530701 C28.5364498,36.655803 28.396169,36.7382309 28.2949454,36.7954398 C28.2394027,36.826831 28.1945756,36.8512433 28.1587682,36.8693791 C28.1278756,36.8848492 28.1278756,36.8848492 28.0858462,36.9031396 C28.0653294,36.931826 28.0604677,36.9386236 27.8616861,36.9176406 C27.199356,36.9480333 27.1408773,36.6466837 27.0730958,35.1143066 C27.0292632,34.1233578 27.0064916,32.4715208 26.9866931,29.1243636 L26.9498928,22.1831815 C26.9488989,21.995713 27.0424339,21.8203632 27.1986848,21.7167721 L28.0082913,21.1800199 C28.6175765,20.7760765 29.0177841,20.550664 29.2723641,20.550664 C29.8015159,20.550664 30.4985743,21.307329 33.8675091,25.2732842 L36.5416639,28.432803 C36.6310895,28.5384595 36.6778935,28.6736706 36.6729256,28.8120019 L36.6363564,29.8286479 C36.6239233,30.4097686 36.5746804,31.0341425 36.5215698,31.2454098 C36.3983281,31.7356499 35.8854982,32.0770959 29.9848991,35.7651388 C29.5137804,36.0616597 29.0566294,36.3435145 28.7075722,36.5530701 Z M28.0099638,35.8363879 C28.0346147,35.8532551 28.0663642,35.872728 28.1092637,35.8940591 C28.0898065,35.8843843 28.0698491,35.875883 28.0494993,35.8685807 L28.0099638,35.8363879 Z M29.3932291,34.8234591 C32.1625041,33.0925808 33.612059,32.1735469 34.4735115,31.6000141 C34.9075911,31.3110151 35.1927234,31.1090983 35.3623377,30.9722812 C35.4423438,30.9077454 35.4664655,30.8809208 35.4429991,30.9742673 C35.4690967,30.8704541 35.5138129,30.3034761 35.5247118,29.7967966 L35.5537912,28.9870784 L33.0192643,25.9925288 C31.5464127,24.2586689 30.5938315,23.1625547 29.9643304,22.479224 C29.6503172,22.138359 29.4157185,21.8993446 29.2520558,21.7521629 C29.2447504,21.7455931 29.2376345,21.7392508 29.2307127,21.7331372 C29.2200468,21.7389132 29.2096003,21.7445483 29.2002504,21.7498145 C29.0367249,21.8419184 28.829742,21.9697587 28.6228216,22.1069425 L28.0635998,22.4776949 L28.0988055,29.1181265 C28.1185075,32.4489409 28.1411873,34.0941182 28.1841394,35.0651619 C28.1924925,35.2540039 28.2016745,35.4161587 28.2116581,35.5535206 C28.5430463,35.3535903 28.9620273,35.0948621 29.3932291,34.8234591 Z M26.3081863,42.0658332 C26.8883121,42.2783723 27.2715868,42.282055 27.9978425,42.0803418 C28.6773011,41.8786402 29.4926787,41.1868287 29.8009231,40.544087 C30.0782101,39.9630355 30.1071423,38.981587 29.8652739,38.4042659 C29.4501855,37.4357915 29.5597202,36.9864601 30.3723585,36.3238122 C31.4712144,35.4442593 36.0087143,32.3540126 36.3945745,32.2583962 C36.7639705,32.1534382 37.25904,32.3253634 37.939074,32.6942411 C38.5880622,33.0442877 38.7561972,33.0911477 39.343378,33.0911477 C40.1873074,33.0911477 40.5951525,32.9346045 41.228276,32.367949 C42.1067259,31.5765784 42.4615023,30.2634966 42.0693508,29.3372859 C41.4265265,27.8112898 39.8192589,27.1384491 38.2619342,27.7515982 C37.7930875,27.9264432 37.3486292,28.055025 37.1353604,28.055025 C36.7762477,28.055025 36.3485587,27.699858 35.892789,27.1794434 C33.8844799,24.8559028 30.4309906,20.7006617 30.2082074,20.3226038 C29.8600946,19.7513948 29.8622201,19.5632677 30.1794122,18.7522137 C30.989953,16.7370698 29.4776846,14.4776336 27.3219485,14.4776336 C26.3519449,14.4776336 25.9088537,14.6208871 25.2487805,15.1396723 C24.0568662,16.0754524 23.7161787,17.6221623 24.400774,19.036156 L24.7933105,19.8534832 C24.8978865,20.0712281 24.8499249,20.3315825 24.6746222,20.4977691 L23.3610423,21.743038 C21.3761118,23.615108 17.4835896,27.1438614 16.9864623,27.5146144 C16.4097722,27.9531734 16.2084085,27.9709734 15.3831539,27.6974101 C14.3718785,27.3621828 13.3265991,27.6234179 12.527799,28.4177996 C11.9362112,29.0061151 11.7717513,29.4246632 11.7717513,30.3657048 C11.7717513,31.3306144 11.9506179,31.7320622 12.6843485,32.4088596 C13.6711595,33.3186553 14.8911411,33.4009534 16.1185939,32.6289166 C16.7426413,32.232425 17.1261116,32.1024196 17.5198399,32.3309646 C17.6511465,32.4035092 19.449326,33.3719586 21.0713764,34.243021 C22.8935837,35.2215702 24.5671481,36.1453193 24.7471796,36.275601 C25.3038779,36.6908153 25.2697604,36.9468237 24.7834873,37.9450315 C24.3619744,38.8462716 24.3311786,39.982475 24.6871247,40.6609371 C24.9734348,41.2107536 25.7179662,41.8533148 26.3081863,42.0658332 Z M23.701512,41.1761048 C23.1744988,40.1715833 23.2151079,38.6733202 23.7798723,37.4659562 C23.8609663,37.2994623 23.9184221,37.1784286 23.9576977,37.0929098 C23.5085866,36.8333877 22.0220648,36.0158981 20.5452163,35.2228111 C19.103414,34.4485443 17.5327645,33.6028964 17.0865263,33.36108 C17.0030848,33.3954462 16.879402,33.4631489 16.7128544,33.5689598 C15.0671957,34.6040466 13.29498,34.4844956 11.9304087,33.2264217 C10.9701554,32.3406785 10.6596213,31.6437166 10.6596213,30.3657048 C10.6596213,29.1361267 10.9362572,28.4320925 11.7435883,27.629227 C12.8357572,26.5430992 14.3179609,26.1726686 15.7330881,26.6417685 C16.2352266,26.8082222 16.0574274,26.8239391 16.3174087,26.62626 C16.7686361,26.2897113 20.6535682,22.7678387 22.5969491,20.9349584 L23.6153138,19.9695505 L23.3990307,19.5192091 C22.4893886,17.6404024 22.9549842,15.5266139 24.5617829,14.2651053 C25.4242104,13.5872795 26.110176,13.3655036 27.3219485,13.3655036 C30.2679229,13.3655036 32.3147543,16.4236147 31.2131847,19.1622365 C31.0133353,19.6732924 31.0151836,19.509704 31.1620754,19.7508501 C31.335863,20.0456714 34.8149741,24.2317407 36.7318003,26.4494571 C36.8740711,26.6119016 37.027963,26.7635285 37.1578757,26.8714122 C37.1628268,26.942895 37.5411949,26.8334331 37.8638931,26.7131887 C39.9728502,25.8827174 42.2165611,26.8219886 43.0938632,28.9046125 C43.6788979,30.2863843 43.1893987,32.0980957 41.9713096,33.1954337 C41.1333426,33.9454325 40.4615734,34.2032777 39.343378,34.2032777 C38.5616994,34.2032777 38.2149776,34.1066447 37.4099624,33.6724396 C37.0037434,33.4520911 36.6701568,33.3362449 36.6807188,33.3329261 C36.5039484,33.3768743 32.010488,36.437128 31.0712618,37.1888797 C30.6477206,37.5342624 30.667532,37.4529926 30.8892407,37.9703252 C31.2561421,38.8460178 31.2174675,40.1579543 30.8041607,41.0240311 C30.3591765,41.9519016 29.2939804,42.8556731 28.3049599,43.1491809 C27.3560714,43.412845 26.7369106,43.4070599 25.9299653,43.1116744 C25.0794355,42.8048736 24.1170063,41.9740064 23.701512,41.1761048 Z M17.1152793,33.3476988 C17.1195227,33.3478153 17.1220888,33.3476022 17.1228032,33.34736 C17.1224098,33.3474934 17.1199018,33.3476063 17.1152793,33.3476988 Z M17.0098378,33.3194407 C16.9925973,33.3100501 16.9798595,33.3030782 16.9719083,33.2986778 C16.9888476,33.3085044 17.0047623,33.3164005 17.0194381,33.3227355 L17.0098378,33.3194407 Z M26.4830231,36.7013049 C26.0435446,37.0588893 25.7048995,36.9154494 24.2483179,36.0691112 C19.4712856,33.3272472 17.3600915,31.9793409 17.3327413,31.3416179 C17.3327413,31.085448 17.3344806,30.8746089 17.3410211,30.6389904 C17.3429965,30.5712082 17.3429965,30.5712082 17.3453933,30.5035955 C17.354583,30.2568478 17.259445,29.7544265 17.1354356,29.4152054 C16.9398576,28.896549 16.829804,28.5716344 16.829804,28.4260775 C16.829804,27.9598993 25.0143094,20.5628629 25.469667,20.5628629 C25.7621878,20.6287272 25.7621878,20.6287272 25.8248931,20.6851675 C25.8780492,20.7279518 25.8780492,20.7279518 25.914996,20.763317 C25.9560411,20.803302 26.0021801,20.853424 26.0544698,20.9139337 C26.1483117,21.0225275 26.2633391,21.1664804 26.3846487,21.3274321 L26.7771852,21.8641843 C26.8468541,21.9594493 26.8844055,22.0744104 26.8844055,22.1924324 L26.8844055,29.1458134 C26.8844055,35.9293698 26.8721844,36.373935 26.4830231,36.7013049 Z M26.0351908,35.7441022 C26.0416768,35.7458978 26.0464486,35.746968 26.049431,35.7473566 C26.0482446,35.747202 26.0470489,35.7470559 26.045844,35.7469184 L26.0351908,35.7441022 Z M25.7341519,34.7557571 C25.7617456,33.7519899 25.7722755,32.1187491 25.7722755,29.1458134 L25.7722755,22.3740396 L25.4918426,21.9905032 C25.4625686,21.9516871 25.4334991,21.9137495 25.4051282,21.8772984 C25.1846652,22.0642863 24.8804679,22.3285128 24.5066862,22.6574981 C23.7637132,23.3114283 22.7693707,24.2005586 21.7408174,25.13015 C20.7104511,26.06138 19.7273497,26.9594646 19.0048395,27.6301267 C18.6236852,27.983929 18.3212481,28.268668 18.1132065,28.4698252 C18.0461658,28.5346474 17.9894539,28.5902875 17.94379,28.6360103 C17.9993833,28.564684 17.941934,28.5849933 17.941934,28.4260775 C17.941934,28.3478055 17.985102,28.4903067 17.992276,28.5114866 C18.0422555,28.6590425 18.1082149,28.8429416 18.177984,29.0280429 C18.3502328,29.4991072 18.4717957,30.1410771 18.4567529,30.5449859 C18.4545584,30.60688 18.4545584,30.60688 18.4527228,30.6698499 C18.4481136,30.8358964 18.4460124,30.990779 18.4450218,31.1509875 C18.5076365,31.2056066 18.5948734,31.2750209 18.7045,31.3568027 C19.0017469,31.5785502 19.4461021,31.878652 20.0203899,32.24531 C21.1804914,32.9859847 22.8346303,33.9753992 24.8044873,35.1060432 C25.1974674,35.3343795 25.486515,35.4939869 25.697606,35.5991062 C25.7122428,35.3899685 25.7243468,35.1124325 25.7341519,34.7557571 Z M17.94379,28.6360103 C17.9174834,28.6623508 17.8948436,28.6854 17.8760079,28.7050172 C17.9315989,28.6471195 17.9596081,28.6195447 17.97163,28.6029632 L17.94379,28.6360103 Z M25.6105381,21.7008323 C25.6225291,21.695852 25.6429982,21.6783879 25.6961415,21.6366344 C25.6820324,21.6477196 25.6663367,21.6602423 25.649095,21.6741697 L25.6105381,21.7008323 Z M25.1532842,21.574544 C25.1477086,21.568675 25.1429011,21.5637749 25.1389556,21.5599313 C25.1404158,21.5613538 25.141859,21.562759 25.1432861,21.5641471 L25.1532842,21.574544 Z M28.7075722,36.5530701 C28.5364498,36.655803 28.396169,36.7382309 28.2949454,36.7954398 C28.2394027,36.826831 28.1945756,36.8512433 28.1587682,36.8693791 C28.1278756,36.8848492 28.1278756,36.8848492 28.0858462,36.9031396 C28.0653294,36.931826 28.0604677,36.9386236 27.8616861,36.9176406 C27.199356,36.9480333 27.1408773,36.6466837 27.0730958,35.1143066 C27.0292632,34.1233578 27.0064916,32.4715208 26.9866931,29.1243636 L26.9498928,22.1831815 C26.9488989,21.995713 27.0424339,21.8203632 27.1986848,21.7167721 L28.0082913,21.1800199 C28.6175765,20.7760765 29.0177841,20.550664 29.2723641,20.550664 C29.8015159,20.550664 30.4985743,21.307329 33.8675091,25.2732842 L36.5416639,28.432803 C36.6310895,28.5384595 36.6778935,28.6736706 36.6729256,28.8120019 L36.6363564,29.8286479 C36.6239233,30.4097686 36.5746804,31.0341425 36.5215698,31.2454098 C36.3983281,31.7356499 35.8854982,32.0770959 29.9848991,35.7651388 C29.5137804,36.0616597 29.0566294,36.3435145 28.7075722,36.5530701 Z M28.0099638,35.8363879 C28.0346147,35.8532551 28.0663642,35.872728 28.1092637,35.8940591 C28.0898065,35.8843843 28.0698491,35.875883 28.0494993,35.8685807 L28.0099638,35.8363879 Z M29.3932291,34.8234591 C32.1625041,33.0925808 33.612059,32.1735469 34.4735115,31.6000141 C34.9075911,31.3110151 35.1927234,31.1090983 35.3623377,30.9722812 C35.4423438,30.9077454 35.4664655,30.8809208 35.4429991,30.9742673 C35.4690967,30.8704541 35.5138129,30.3034761 35.5247118,29.7967966 L35.5537912,28.9870784 L33.0192643,25.9925288 C31.5464127,24.2586689 30.5938315,23.1625547 29.9643304,22.479224 C29.6503172,22.138359 29.4157185,21.8993446 29.2520558,21.7521629 C29.2447504,21.7455931 29.2376345,21.7392508 29.2307127,21.7331372 C29.2200468,21.7389132 29.2096003,21.7445483 29.2002504,21.7498145 C29.0367249,21.8419184 28.829742,21.9697587 28.6228216,22.1069425 L28.0635998,22.4776949 L28.0988055,29.1181265 C28.1185075,32.4489409 28.1411873,34.0941182 28.1841394,35.0651619 C28.1924925,35.2540039 28.2016745,35.4161587 28.2116581,35.5535206 C28.5430463,35.3535903 28.9620273,35.0948621 29.3932291,34.8234591 Z" id="path923" fill="#FFFFFF"></path>
                </g>
                <g id="logo" transform="translate(133.000000, 91.000000)">
                    <polygon id="Fill-10" fill="#FFFFFF" points="14.0377358 2.31304592 14.0377358 25.9775046 14.0377358 28.945699 18.7169811 26.7173005 18.7169811 0"></polygon>
                    <polyline id="Fill-11" fill="#7FAAF0" points="30.2428835 10.1252612 30.8887656 16.9112612 21.8398363 14.9191388"></polyline>
                    <path d="M4.67924528,18.8093408 C4.67924528,15.4545143 8.29206132,12.6292337 13.2163821,11.7667796 L13.2163821,8.75950918 C5.68425943,9.68070306 0,13.8296265 0,18.8093408 C0,23.9685296 6.10129717,28.2356724 14.0377358,28.9457286 L14.0377358,25.9775194 C8.69813208,25.3001622 4.67924528,22.3483765 4.67924528,18.8093408 M19.5383349,8.76069286 L19.5383349,11.7667796 C21.4976226,12.1098969 23.2502925,12.762101 24.649109,13.6369837 L27.9577594,11.5679224 C25.7029481,10.1577235 22.79275,9.15870306 19.5383349,8.76069286" id="Fill-12" fill="#7FAAF0"></path>
                </g>
                <path d="M40.896634,135.001301 L40.896634,130.998558 C40.884036,130.431989 40.6799098,129.960317 40.2843538,129.583448 C39.8886993,129.206204 39.3932455,129.012097 38.7986812,129.000188 L36.701122,129.000188 L36.701122,138.998699 L28.298878,129 L26.2009252,129 C25.6062624,129.012003 25.1112022,129.20611 24.7156462,129.583354 C24.3196965,129.960317 24.115964,130.431989 24.1034644,130.998371 L24.1034644,135.001301 C24.087028,135.56787 23.8812287,136.038792 23.485279,136.414067 C23.0896245,136.788873 22.5945643,136.984199 22,136.999766 C22.5945643,137.015707 23.0897229,137.211033 23.4851805,137.585839 C23.8812287,137.961114 24.087028,138.432036 24.103366,138.998605 L24.103366,143.001348 C24.115964,143.567448 24.3196965,144.039589 24.7156462,144.416458 C25.1113007,144.793421 25.6063608,144.98781 26.2008267,144.999719 L28.298878,144.999719 L28.298878,135.001395 L36.701122,145 L38.7986812,145 C39.3932455,144.987997 39.8887978,144.793515 40.2843538,144.416646 C40.6800082,144.039683 40.884036,143.567636 40.8965356,143.001629 L40.8965356,138.998699 C40.912972,138.43213 41.1187713,137.961208 41.514721,137.585933 C41.9103755,137.211127 42.4054357,137.015801 43,136.999859 C42.4054357,136.984199 41.9102771,136.788967 41.5148195,136.414161 C41.1187713,136.038792 40.912972,135.56787 40.896634,135.001301 Z" id="logo" fill="#5998FF"></path>
                <g id="bottom_2" transform="translate(50.000000, 158.000000)">
                    <g id="element" transform="translate(64.000000, 0.000000)">
                        <rect id="bg_2" fill="#EAADFF" x="0" y="0" width="12" height="12"></rect>
                        <polygon id="bg_2" fill="#CF75EF" fill-rule="nonzero" points="2.5 2.5 2.5 7 1.5 7 1.5 1.5 7 1.5 7 2.5"></polygon>
                        <polygon id="bg_1" fill="#C858EF" transform="translate(6.000000, 6.000000) scale(-1, 1) translate(-6.000000, -6.000000) " points="0 0 12 12 0 12"></polygon>
                        <polygon id="bg_1" fill="#F6DBFF" fill-rule="nonzero" transform="translate(7.750000, 7.750000) rotate(-180.000000) translate(-7.750000, -7.750000) " points="6 6 6 10.5 5 10.5 5 5 10.5 5 10.5 6"></polygon>
                    </g>
                    <g id="element" transform="translate(48.000000, 0.000000)">
                        <rect id="bg_2" fill="#EAADFF" x="0" y="0" width="12" height="12"></rect>
                        <polygon id="bg_2" fill="#CF75EF" fill-rule="nonzero" points="2.5 2.5 2.5 7 1.5 7 1.5 1.5 7 1.5 7 2.5"></polygon>
                        <polygon id="bg_1" fill="#C858EF" transform="translate(6.000000, 6.000000) scale(-1, 1) translate(-6.000000, -6.000000) " points="0 0 12 12 0 12"></polygon>
                        <polygon id="bg_1" fill="#F6DBFF" fill-rule="nonzero" transform="translate(7.750000, 7.750000) rotate(-180.000000) translate(-7.750000, -7.750000) " points="6 6 6 10.5 5 10.5 5 5 10.5 5 10.5 6"></polygon>
                    </g>
                    <g id="element" transform="translate(32.000000, 0.000000)">
                        <rect id="bg_2" fill="#EAADFF" x="0" y="0" width="12" height="12"></rect>
                        <polygon id="bg_2" fill="#CF75EF" fill-rule="nonzero" points="2.5 2.5 2.5 7 1.5 7 1.5 1.5 7 1.5 7 2.5"></polygon>
                        <polygon id="bg_1" fill="#C858EF" transform="translate(6.000000, 6.000000) scale(-1, 1) translate(-6.000000, -6.000000) " points="0 0 12 12 0 12"></polygon>
                        <polygon id="bg_1" fill="#F6DBFF" fill-rule="nonzero" transform="translate(7.750000, 7.750000) rotate(-180.000000) translate(-7.750000, -7.750000) " points="6 6 6 10.5 5 10.5 5 5 10.5 5 10.5 6"></polygon>
                    </g>
                    <g id="element" transform="translate(16.000000, 0.000000)">
                        <rect id="bg_2" fill="#EAADFF" x="0" y="0" width="12" height="12"></rect>
                        <polygon id="bg_2" fill="#CF75EF" fill-rule="nonzero" points="2.5 2.5 2.5 7 1.5 7 1.5 1.5 7 1.5 7 2.5"></polygon>
                        <polygon id="bg_1" fill="#C858EF" transform="translate(6.000000, 6.000000) scale(-1, 1) translate(-6.000000, -6.000000) " points="0 0 12 12 0 12"></polygon>
                        <polygon id="bg_1" fill="#F6DBFF" fill-rule="nonzero" transform="translate(7.750000, 7.750000) rotate(-180.000000) translate(-7.750000, -7.750000) " points="6 6 6 10.5 5 10.5 5 5 10.5 5 10.5 6"></polygon>
                    </g>
                    <g id="element">
                        <rect id="bg_2" fill="#EAADFF" x="0" y="0" width="12" height="12"></rect>
                        <polygon id="bg_2" fill="#CF75EF" fill-rule="nonzero" points="2.5 2.5 2.5 7 1.5 7 1.5 1.5 7 1.5 7 2.5"></polygon>
                        <polygon id="bg_1" fill="#C858EF" transform="translate(6.000000, 6.000000) scale(-1, 1) translate(-6.000000, -6.000000) " points="0 0 12 12 0 12"></polygon>
                        <polygon id="bg_1" fill="#F6DBFF" fill-rule="nonzero" transform="translate(7.750000, 7.750000) rotate(-180.000000) translate(-7.750000, -7.750000) " points="6 6 6 10.5 5 10.5 5 5 10.5 5 10.5 6"></polygon>
                    </g>
                </g>
                <g id="bottom_1" transform="translate(49.000000, 136.000000)">
                    <rect id="bg_2" fill="#79E0FF" x="0" y="0" width="78" height="18" rx="4"></rect>
                    <path d="M48.1716992,0 L74.0000762,0 C76.2092152,7.44262609e-15 78.0000762,1.790861 78.0000762,4 L78.0000762,14.0000646 C78.0000762,16.2092036 76.2092152,18.0000646 74.0000762,18.0000646 L4,18.0000646 C1.790861,18.0000646 1.25159629e-15,16.2092036 0,14.0000646 C0,13.7085094 0,13.4169542 0,13.125399 C26.8828645,13.8335453 42.9400976,9.45841233 48.1716992,0 Z" id="bg_1" fill="#35C9F5"></path>
                    <rect id="element" fill="#2565CE" x="17" y="6" width="44" height="5"></rect>
                    <rect id="line" fill="#8AB3F7" x="32" y="8" width="26" height="1"></rect>
                </g>
                <g id="lock" transform="translate(45.000000, 27.000000)">
                    <polygon id="corner" fill="#397CE9" fill-rule="nonzero" points="0.5 105.5 20 105.5 20 106.5 -0.5 106.5 -0.5 86 0.5 86"></polygon>
                    <polygon id="corner" fill="#397CE9" fill-rule="nonzero" transform="translate(75.750000, 30.250000) rotate(-180.000000) translate(-75.750000, -30.250000) " points="66.5 39.5 86 39.5 86 40.5 65.5 40.5 65.5 20 66.5 20"></polygon>
                    <g id="bg" transform="translate(4.000000, 24.000000)">
                        <rect id="bg_3" fill="#3BE5B2" x="0" y="0" width="78" height="78" rx="12"></rect>
                        <path d="M46.0204625,0 L66.0000002,0 C72.6274172,-1.21743675e-15 78.0000002,5.372583 78.0000002,12 L78.0000002,66.0000186 C78.0000002,72.6274356 72.6274172,78.0000186 66.0000002,78.0000186 L12,78.0000186 C5.372583,78.0000186 -1.51955064e-13,72.6274356 -1.52766688e-13,66.0000186 C-1.0386703e-13,60.0970726 -8.65724736e-14,54.1941266 -6.92779167e-14,48.2911805 C27.5806369,45.5177421 42.920791,29.4206819 46.0204625,0 Z" id="bg_2" fill="#2CD2A1"></path>
                        <path d="M54.4824184,2.17070806e-12 L66.0000268,-3.91293367e-07 C72.6274438,-5.01563031e-07 78.0000269,5.37258241 78.000027,11.9999994 C78.000027,11.9999994 78.000027,11.9999996 78.000027,11.9999996 L78.0000268,66.0000186 C78.0000268,72.6274356 72.6274438,78.0000186 66.0000268,78.0000186 C48.7961864,78.0000186 31.5923459,78.0000186 14.3885055,78.0000186 C39.6436486,71.5980025 53.0082863,45.5979963 54.4824184,2.17070806e-12 Z" id="bg_1" fill="#1BC08F"></path>
                        <path d="M14,4.5 C8.75329488,4.5 4.5,8.75329488 4.5,14 L4.5,64 C4.5,69.2467051 8.75329488,73.5 14,73.5 L64,73.5 C69.2467051,73.5 73.5,69.2467051 73.5,64 L73.5,14 C73.5,8.75329488 69.2467051,4.5 64,4.5 L14,4.5 Z M14,3.5 L64,3.5 C69.7989899,3.5 74.5,8.20101013 74.5,14 L74.5,64 C74.5,69.7989899 69.7989899,74.5 64,74.5 L14,74.5 C8.20101013,74.5 3.5,69.7989899 3.5,64 L3.5,14 C3.5,8.20101013 8.20101013,3.5 14,3.5 Z" id="stroke" fill="#74FFD5" fill-rule="nonzero"></path>
                        <path d="M70.5,54.0717296 L71.5,54.0717296 L71.5,63 C71.5,67.6944204 67.6944204,71.5 63,71.5 L54.0582745,71.5 L54.0582745,70.5 L63,70.5 C67.1421356,70.5 70.5,67.1421356 70.5,63 L70.5,54.0717296 Z M7.5,24.1843211 L6.5,24.1843211 L6.5,15 C6.5,10.3055796 10.3055796,6.5 15,6.5 L23.9847701,6.5 L23.9847701,7.5 L15,7.5 C10.8578644,7.5 7.5,10.8578644 7.5,15 L7.5,24.1843211 Z" id="stroke" fill="#FFFFFF" fill-rule="nonzero"></path>
                    </g>
                    <g id="middle" transform="translate(21.000000, 41.000000)">
                        <circle id="Oval" fill="#FFFFFF" cx="22" cy="22" r="22"></circle>
                        <circle id="Oval" fill="#FCD58A" cx="22" cy="22" r="16"></circle>
                        <path d="M22,40.5 C11.7827321,40.5 3.5,32.2172679 3.5,22 C3.5,11.7827321 11.7827321,3.5 22,3.5 C32.2172679,3.5 40.5,11.7827321 40.5,22 C40.5,32.2172679 32.2172679,40.5 22,40.5 Z M22,39.5 C31.6649831,39.5 39.5,31.6649831 39.5,22 C39.5,12.3350169 31.6649831,4.5 22,4.5 C12.3350169,4.5 4.5,12.3350169 4.5,22 C4.5,31.6649831 12.3350169,39.5 22,39.5 Z" id="Oval" fill="#EAADFF" fill-rule="nonzero"></path>
                        <path d="M26.5039178,26.7535826 L26.5038695,26.9434971 C26.5035498,28.1860215 26.5036761,28.8569097 26.5048186,30.0002476 L25.5048191,30.0012468 C25.5036761,28.8574154 25.5035498,28.1861471 25.5038696,26.9432398 L25.5039178,26.7533359 C25.5041724,25.7213055 25.5040002,25.0754218 25.50293,24.1155799 L25.5025955,23.8155745 L25.7671511,23.6741047 C28.1586199,22.3952788 29.5,19.9139875 29.5,17 L30.5,17 C30.5,20.1602973 29.0700142,22.9089569 26.5032381,24.4080475 C26.5040317,25.2151369 26.5041457,25.829789 26.5039178,26.7535826 Z" id="line" fill="#FFFFFF" fill-rule="nonzero"></path>
                        <path d="M19.6941428,8.81661616 L19.9648756,9.7792707 C17.3435677,10.5164759 15.3110876,12.6403061 14.6942901,15.296064 L13.7202157,15.0698361 C14.4196427,12.0582983 16.7219642,9.6524987 19.6941428,8.81661616 Z" id="line" fill="#FFFFFF" fill-rule="nonzero"></path>
                        <path d="M20,22.6585886 C17.6696153,21.8349158 16,19.6124377 16,17 C16,13.6862915 18.6862915,11 22,11 C25.3137085,11 28,13.6862915 28,17 C28,19.6124377 26.3303847,21.8349158 24,22.6585886 L24,30 C24,31.1045695 23.1045695,32 22,32 C20.8954305,32 20,31.1045695 20,30 L20,22.6585886 Z" id="bg" fill="#A908E2"></path>
                        <path d="M22,19.5 C20.6192881,19.5 19.5,18.3807119 19.5,17 C19.5,15.6192881 20.6192881,14.5 22,14.5 C23.3807119,14.5 24.5,15.6192881 24.5,17 C24.5,18.3807119 23.3807119,19.5 22,19.5 Z M22,18.5 C22.8284271,18.5 23.5,17.8284271 23.5,17 C23.5,16.1715729 22.8284271,15.5 22,15.5 C21.1715729,15.5 20.5,16.1715729 20.5,17 C20.5,17.8284271 21.1715729,18.5 22,18.5 Z" id="element" fill="#D55EFF" fill-rule="nonzero"></path>
                    </g>
                    <g id="top" transform="translate(28.000000, 0.000000)" fill-rule="nonzero">
                        <path d="M30.487636,24.002268 L25.4876413,23.9949954 L25.5,15.5 C25.5,9.9771525 21.0228475,5.5 15.5,5.5 C9.9771525,5.5 5.5,9.9771525 5.5,15.5 L5.5,23.9986317 L0.5,23.9986317 L0.5,15.5 C0.5,7.21572875 7.21572875,0.5 15.5,0.5 C23.7842712,0.5 30.5,7.21572875 30.4999974,15.5036363 L30.487636,24.002268 Z" fill="#06976C"></path>
                        <path d="M12.9773572,2.74468644 L13.1703504,3.72588654 C8.3916432,4.66581503 4.63151608,8.44344925 3.714769,13.2276116 L2.73263774,13.0394144 C3.72614045,7.85469293 7.79856399,3.76330823 12.9773572,2.74468644 Z" fill="#6BE0BD"></path>
                    </g>
                </g>
                <g id="arrow" transform="translate(9.000000, 82.000000)">
                    <path d="M20.9497475,7 L16.1568542,2.20710678 L17.5710678,0.792893219 L23.7781746,7 L24,7 L24,7.22182541 L25.3492424,8.57106781 L17.5710678,16.3492424 L16.1568542,14.9350288 L22.0918831,9 L8,9 L8,7 L20.9497475,7 Z" fill="#FCD78A"></path>
                    <polygon id="line" fill="#72A6FB" fill-rule="nonzero" transform="translate(24.389087, 12.889087) rotate(-135.000000) translate(-24.389087, -12.889087) " points="24.8890873 17.8890873 23.8890873 17.8890873 23.8890873 7.8890873 24.8890873 7.8890873"></polygon>
                    <rect id="line" fill="#72A6FB" x="0" y="4" width="12" height="1"></rect>
                </g>
                <g id="stars" transform="translate(115.000000, 19.000000)">
                    <rect id="bg" fill="#2369DB" x="0" y="4" width="62" height="20"></rect>
                    <rect id="line" fill="#72A6FB" x="34" y="27" width="28" height="1"></rect>
                    <rect id="line" fill="#72A6FB" x="0" y="0" width="28" height="1"></rect>
                    <path d="M15,13.1339746 L19.4461524,10.5669873 L19.9461524,11.4330127 L15.5,14 L19.9461524,16.5669873 L19.4461524,17.4330127 L15,14.8660254 L15,20 L14,20 L14,14.8660254 L9.55384758,17.4330127 L9.05384758,16.5669873 L13.5,14 L9.05384758,11.4330127 L9.55384758,10.5669873 L14,13.1339746 L14,8 L15,8 L15,13.1339746 Z" id="star" fill="#FCD78A"></path>
                    <path d="M31.9461524,13.1339746 L36.3923048,10.5669873 L36.8923048,11.4330127 L32.4461524,14 L36.8923048,16.5669873 L36.3923048,17.4330127 L31.9461524,14.8660254 L31.9461524,20 L30.9461524,20 L30.9461524,14.8660254 L26.5,17.4330127 L26,16.5669873 L30.4461524,14 L26,11.4330127 L26.5,10.5669873 L30.9461524,13.1339746 L30.9461524,8 L31.9461524,8 L31.9461524,13.1339746 Z" id="star" fill="#FCD78A"></path>
                    <path d="M48.9461524,13.1339746 L53.3923048,10.5669873 L53.8923048,11.4330127 L49.4461524,14 L53.8923048,16.5669873 L53.3923048,17.4330127 L48.9461524,14.8660254 L48.9461524,20 L47.9461524,20 L47.9461524,14.8660254 L43.5,17.4330127 L43,16.5669873 L47.4461524,14 L43,11.4330127 L43.5,10.5669873 L47.9461524,13.1339746 L47.9461524,8 L48.9461524,8 L48.9461524,13.1339746 Z" id="star" fill="#FCD78A"></path>
                </g>
            </g>
        </g>
    </g>
</svg>