<?xml version="1.0" encoding="UTF-8" standalone="no"?>
<svg width="360px" height="294px" viewBox="0 0 360 294" version="1.1" xmlns="http://www.w3.org/2000/svg" xmlns:xlink="http://www.w3.org/1999/xlink">
    <!-- Generator: Sketch 50.2 (55047) - http://www.bohemiancoding.com/sketch -->
    <title>3_1_nativescript_hands_on_ui</title>
    <desc>Created with Sketch.</desc>
    <defs>
        <rect id="path-1" x="0" y="0" width="360" height="294"></rect>
    </defs>
    <g id="Page-1" stroke="none" stroke-width="1" fill="none" fill-rule="evenodd">
        <g id="nativescript_hands_on_ui">
            <mask id="mask-2" fill="white">
                <use xlink:href="#path-1"></use>
            </mask>
            <g id="Mask"></g>
            <g id="nativescript_hands_on_ui_image" transform="translate(76.000000, 53.000000)">
                <g id="circle_bg" transform="translate(16.000000, 13.000000)">
                    <circle id="circle_2" fill="#0C3E91" cx="88" cy="88" r="83"></circle>
                    <rect id="rectangle" fill="#1550B1" transform="translate(122.677670, 64.677670) rotate(-315.000000) translate(-122.677670, -64.677670) " x="110.17767" y="52.1776695" width="25" height="25"></rect>
                    <rect id="rectangle" fill="#1550B1" transform="translate(38.677670, 47.677670) rotate(-315.000000) translate(-38.677670, -47.677670) " x="26.1776695" y="35.1776695" width="25" height="25"></rect>
                    <rect id="rectangle" fill="#1148A3" transform="translate(149.516504, 10.516504) rotate(-315.000000) translate(-149.516504, -10.516504) " x="142.78732" y="3.78731957" width="13.4583694" height="13.4583694"></rect>
                    <rect id="rectangle" fill="#1148A3" transform="translate(31.748737, 106.748737) rotate(-315.000000) translate(-31.748737, -106.748737) " x="14.2487373" y="89.2487373" width="35" height="35"></rect>
                    <path d="M88,175.5 C39.6750844,175.5 0.5,136.324916 0.5,88 C0.5,39.6750844 39.6750844,0.5 88,0.5 C136.324916,0.5 175.5,39.6750844 175.5,88 C175.5,136.324916 136.324916,175.5 88,175.5 Z M88,174.5 C135.772631,174.5 174.5,135.772631 174.5,88 C174.5,40.2273691 135.772631,1.5 88,1.5 C40.2273691,1.5 1.5,40.2273691 1.5,88 C1.5,135.772631 40.2273691,174.5 88,174.5 Z" id="circle_1" fill="#0B49AF" fill-rule="nonzero"></path>
                </g>
                <g id="rocket" transform="translate(27.000000, 0.000000)">
                    <polygon id="line" fill="#2F73E4" fill-rule="nonzero" points="0.5 137 1.5 137 1.5 171.921867 0.5 171.921867"></polygon>
                    <polygon id="line" fill="#2F73E4" fill-rule="nonzero" points="152.5 156 153.5 156 153.5 190.921867 152.5 190.921867"></polygon>
                    <g id="wing" transform="translate(113.000000, 103.000000)">
                        <polygon id="bg" fill="#3278EB" transform="translate(18.000000, 42.500000) scale(-1, 1) translate(-18.000000, -42.500000) " points="0 32.0348991 36 0 36 52.9779788 0 85"></polygon>
                        <polygon id="shadow" fill="#1862DB" transform="translate(4.506179, 30.491158) scale(-1, 1) translate(-4.506179, -30.491158) " points="0 8.0197219 9.0123583 0 9.0123583 52.9779788 0.0197893275 60.9823151"></polygon>
                        <polygon id="line" fill="#A2C5FF" fill-rule="nonzero" transform="translate(25.981146, 64.503743) scale(-1, 1) translate(-25.981146, -64.503743) " points="31.7976726 64.7303369 32.4622917 65.4775192 19.5 77.0074853 19.5 52 20.5 52 20.5 74.7796233"></polygon>
                    </g>
                    <g id="wing" transform="translate(5.000000, 103.000000)">
                        <polygon id="bg" fill="#3278EB" points="0 32.0348991 36 0 36 52.9779788 0 85"></polygon>
                        <polygon id="shadow" fill="#1862DB" points="26.9876417 8.0197219 36 0 36 52.9779788 27.007431 60.9823151"></polygon>
                        <polygon id="line" fill="#A2C5FF" fill-rule="nonzero" points="15.7976726 64.8367826 16.4622917 65.5839649 3.5 77.113931 3.5 52.1064457 4.5 52.1064457 4.5 74.886069"></polygon>
                    </g>
                    <polygon id="line" fill="#DB76FF" fill-rule="nonzero" points="36.6129229 65.4629995 37.6129229 65.4629995 37.6129229 100.384867 36.6129229 100.384867"></polygon>
                    <polygon id="line" fill="#DB76FF" fill-rule="nonzero" points="116.5 39 117.5 39 117.5 73.9218674 116.5 73.9218674"></polygon>
                    <g id="body" transform="translate(32.000000, 0.000000)">
                        <path d="M9,44 C9,18.5120877 33.968193,0.242612811 45,0.242612811 C56.031807,0.242612811 81,19.5541234 81,44 C81,60.2972511 81,97.6305844 81,156 L9,156 C9,98.3252749 9,60.9919416 9,44 Z" id="bg" fill="#C93AFB"></path>
                        <polygon id="corner" fill="#DA77FD" fill-rule="nonzero" transform="translate(72.750000, 148.250000) scale(-1, 1) translate(-72.750000, -148.250000) " points="68.5 152.5 78 152.5 78 153.5 67.5 153.5 67.5 143 68.5 143"></polygon>
                        <polygon id="corner" fill="#DA77FD" fill-rule="nonzero" points="12.5 152.5 22 152.5 22 153.5 11.5 153.5 11.5 143 12.5 143"></polygon>
                        <g id="bottom_elements" transform="translate(20.000000, 156.000000)">
                            <path d="M14.0533868,26.5 L14.0533868,25.5 L35.9548084,25.5 L35.9548084,26.5 L14.0533868,26.5 Z M9.98919069,22.5 L9.98919069,21.5 L40.0808002,21.5 L40.0808002,22.5 L9.98919069,22.5 Z M6,17.5 L6,16.5 L44,16.5 L44,17.5 L6,17.5 Z" id="lines" fill="#FCD78A" fill-rule="nonzero"></path>
                            <polygon id="element" fill="#79E0FF" points="5.0399566 0 45.0206794 0 50 11 0 11"></polygon>
                            <polygon id="shadow" fill="#2DC8F6" points="5.0399566 0 45.0206794 0 47.302909 5.04175732 2.71698131 5.07002942"></polygon>
                        </g>
                        <g id="button" transform="translate(19.000000, 130.000000)">
                            <rect id="bg" fill="#DE7EFF" x="0" y="0" width="52" height="18" rx="2"></rect>
                            <path d="M30.985047,4.40666143 C31.3127388,3.96209816 31.9387753,3.86735515 32.3833385,4.195047 C32.8279018,4.52273884 32.9226448,5.14877531 32.594953,5.59333857 L26.6020793,13.723573 C26.2576976,14.1907785 25.5892228,14.2676243 25.1478084,13.8907515 L20.3506822,9.79503887 C19.9306601,9.43643053 19.8808745,8.8052259 20.2394829,8.38520388 C20.5980912,7.96518185 21.2292958,7.91539623 21.6493178,8.27400458 L25.6295196,11.6722396 L30.985047,4.40666143 Z" id="tick" fill="#FFFFFF" fill-rule="nonzero"></path>
                        </g>
                        <g id="switcher" transform="translate(47.000000, 108.000000)">
                            <rect id="bg" fill="#A908E2" x="0" y="2" width="28" height="11" rx="5.5"></rect>
                            <circle id="circle" fill="#44D4FF" cx="20.5" cy="7.5" r="7.5"></circle>
                            <path d="M20.5,14 C24.0898509,14 27,11.0898509 27,7.5 C27,3.91014913 24.0898509,1 20.5,1 C16.9101491,1 14,3.91014913 14,7.5 C14,11.0898509 16.9101491,14 20.5,14 Z M20.5,15 C16.3578644,15 13,11.6421356 13,7.5 C13,3.35786438 16.3578644,0 20.5,0 C24.6421356,0 28,3.35786438 28,7.5 C28,11.6421356 24.6421356,15 20.5,15 Z" id="stroke" fill="#FFFFFF" fill-rule="nonzero"></path>
                        </g>
                        <path d="M30,108.5 L43,108.5 L43,109.5 L30,109.5 L30,108.5 Z M30,114.5 L43,114.5 L43,115.5 L30,115.5 L30,114.5 Z M30,120.5 L43,120.5 L43,121.5 L30,121.5 L30,120.5 Z" id="lines" fill="#FFFFFF"></path>
                        <path d="M16,108 C16.5522847,108 17,108.447715 17,109 C17,109.552285 16.5522847,110 16,110 C15.4477153,110 15,109.552285 15,109 C15,108.447715 15.4477153,108 16,108 Z M16,114 C16.5522847,114 17,114.447715 17,115 C17,115.552285 16.5522847,116 16,116 C15.4477153,116 15,115.552285 15,115 C15,114.447715 15.4477153,114 16,114 Z M16,120 C16.5522847,120 17,120.447715 17,121 C17,121.552285 16.5522847,122 16,122 C15.4477153,122 15,121.552285 15,121 C15,120.447715 15.4477153,120 16,120 Z M21,108 C21.5522847,108 22,108.447715 22,109 C22,109.552285 21.5522847,110 21,110 C20.4477153,110 20,109.552285 20,109 C20,108.447715 20.4477153,108 21,108 Z M21,114 C21.5522847,114 22,114.447715 22,115 C22,115.552285 21.5522847,116 21,116 C20.4477153,116 20,115.552285 20,115 C20,114.447715 20.4477153,114 21,114 Z M21,120 C21.5522847,120 22,120.447715 22,121 C22,121.552285 21.5522847,122 21,122 C20.4477153,122 20,121.552285 20,121 C20,120.447715 20.4477153,120 21,120 Z M26,108 C26.5522847,108 27,108.447715 27,109 C27,109.552285 26.5522847,110 26,110 C25.4477153,110 25,109.552285 25,109 C25,108.447715 25.4477153,108 26,108 Z M26,114 C26.5522847,114 27,114.447715 27,115 C27,115.552285 26.5522847,116 26,116 C25.4477153,116 25,115.552285 25,115 C25,114.447715 25.4477153,114 26,114 Z M26,120 C26.5522847,120 27,120.447715 27,121 C27,121.552285 26.5522847,122 26,122 C25.4477153,122 25,121.552285 25,121 C25,120.447715 25.4477153,120 26,120 Z" id="dots" fill="#FFFFFF"></path>
                        <g id="yellow_square" transform="translate(15.000000, 75.000000)">
                            <rect id="bg" fill="#FCD58A" x="0" y="0" width="28" height="28"></rect>
                            <path d="M1,1 L0,1 L1,0 L1,1 Z M1,1 L7,1 L8,0 L0,0 L0,8 L1,7 L1,1 Z M1,1 L7,1 L8,0 L0,0 L0,8 L1,7 L1,1 Z" id="corner" fill="#FFFFFF" fill-rule="nonzero"></path>
                            <path d="M21,21 L20,21 L21,20 L21,21 Z M21,21 L27,21 L28,20 L20,20 L20,28 L21,27 L21,21 Z M21,21 L27,21 L28,20 L20,20 L20,28 L21,27 L21,21 Z" id="corner" fill="#FFFFFF" fill-rule="nonzero" transform="translate(24.000000, 24.000000) scale(-1, -1) translate(-24.000000, -24.000000) "></path>
                            <path d="M3,3 L3,25 L25,25 L25,3 L3,3 Z M2,2 L26,2 L26,26 L2,26 L2,2 Z" id="stroke" fill="#FFFFFF" fill-rule="nonzero"></path>
                            <g id="icon_settings" transform="translate(2.000000, 3.000000)">
                                <path d="M10.9757466,18.5899045 L13.0263384,18.5899045 C13.2446464,17.4912017 13.9439799,16.5382438 14.9433201,15.9776989 C15.9426602,15.417154 17.1437693,15.3041252 18.2357464,15.6678694 L19.2610423,13.963349 C18.3901995,13.2298625 17.8901473,12.1666759 17.8901473,11.0486191 C17.8901473,9.93056221 18.3901995,8.86737561 19.2610423,8.13388913 L18.2357464,6.41475852 C17.1437693,6.77850274 15.9426602,6.66547396 14.9433201,6.10492909 C13.9439799,5.54438421 13.2446464,4.59142627 13.0263384,3.49272349 L10.9757466,3.49272349 C10.7574386,4.59142627 10.0581051,5.54438421 9.05876493,6.10492909 C8.05942478,6.66547396 6.85831573,6.77850274 5.76633863,6.41475852 L4.74104271,8.11927896 C5.61188549,8.85276543 6.11193772,9.91595204 6.11193772,11.0340089 C6.11193772,12.1520658 5.61188549,13.2152524 4.74104271,13.9487388 L5.76633863,15.6678694 C6.85831573,15.3041252 8.05942478,15.417154 9.05876493,15.9776989 C10.0581051,16.5382438 10.7574386,17.4912017 10.9757466,18.5899045 Z" id="settings" fill="#FFC350"></path>
                                <path d="M10.9757466,18.5899045 L13.0263384,18.5899045 C13.2446464,17.4912017 13.9439799,16.5382438 14.9433201,15.9776989 C15.9426602,15.417154 17.1437693,15.3041252 18.2357464,15.6678694 L19.2610423,13.963349 C18.3901995,13.2298625 17.8901473,12.1666759 17.8901473,11.0486191 C17.8901473,9.93056221 18.3901995,8.86737561 19.2610423,8.13388913 L18.2357464,6.41475852 C17.1437693,6.77850274 15.9426602,6.66547396 14.9433201,6.10492909 C13.9439799,5.54438421 13.2446464,4.59142627 13.0263384,3.49272349 L10.9757466,3.49272349 C10.7574386,4.59142627 10.0581051,5.54438421 9.05876493,6.10492909 C8.05942478,6.66547396 6.85831573,6.77850274 5.76633863,6.41475852 L4.74104271,8.11927896 C5.61188549,8.85276543 6.11193772,9.91595204 6.11193772,11.0340089 C6.11193772,12.1520658 5.61188549,13.2152524 4.74104271,13.9487388 L5.76633863,15.6678694 C6.85831573,15.3041252 8.05942478,15.417154 9.05876493,15.9776989 C10.0581051,16.5382438 10.7574386,17.4912017 10.9757466,18.5899045 Z M10.9757466,20.0899045 C10.2600178,20.0899045 9.64399356,19.5842392 9.50450782,18.8822339 C9.37223381,18.2165239 8.94424707,17.633321 8.32494879,17.2859473 C7.6945591,16.9323523 6.93204444,16.8605968 6.24038922,17.0909914 C5.57207099,17.3136123 4.83888047,17.0411978 4.47805979,16.4362038 L3.45276387,14.7170732 C3.07632069,14.0858847 3.21262431,13.2749098 3.77472718,12.8014663 C4.30894998,12.3515054 4.61193772,11.7073077 4.61193772,11.0340089 C4.61193772,10.3607101 4.30894998,9.7165124 3.77472718,9.2665515 C3.21099067,8.79173203 3.0757475,7.97770124 3.45566368,7.3461032 L4.4809596,5.64158277 C4.84296433,5.03976192 5.57407646,4.76968375 6.24038922,4.99163659 C6.93204444,5.22203115 7.6945591,5.15027572 8.32494879,4.79668069 C8.94424707,4.44930699 9.37223381,3.86610404 9.50450782,3.20039403 C9.64399356,2.49838877 10.2600178,1.99272349 10.9757466,1.99272349 L13.0263384,1.99272349 C13.7420672,1.99272349 14.3580914,2.49838877 14.4975772,3.20039403 C14.6298512,3.86610404 15.0578379,4.44930699 15.6771362,4.79668069 C16.3075259,5.15027572 17.0700406,5.22203115 17.7616958,4.99163659 C18.430014,4.76901571 19.1632045,5.04143021 19.5240252,5.64642421 L20.5493211,7.36555481 C20.9257643,7.99674332 20.7894607,8.80771817 20.2273578,9.28116168 C19.693135,9.73112258 19.3901473,10.3753203 19.3901473,11.0486191 C19.3901473,11.7219179 19.693135,12.3661156 20.2273578,12.8160765 C20.7910943,13.2908959 20.9263375,14.1049267 20.5464213,14.7365248 L19.5211254,16.4410452 C19.1591207,17.042866 18.4280085,17.3129442 17.7616958,17.0909914 C17.0700406,16.8605968 16.3075259,16.9323523 15.6771362,17.2859473 C15.0578379,17.633321 14.6298512,18.2165239 14.4975772,18.8822339 C14.3580914,19.5842392 13.7420672,20.0899045 13.0263384,20.0899045 L10.9757466,20.0899045 Z" id="stroke_2" fill="#FFFFFF" fill-rule="nonzero"></path>
                                <path d="M10.9757466,19.0899045 C10.7371703,19.0899045 10.5318289,18.9213494 10.4853337,18.6873476 C10.2957037,17.7329758 9.68681908,16.9032695 8.81415955,16.4137817 C7.93780289,15.9222201 6.88289197,15.8229491 5.9243555,16.1422434 C5.70158275,16.2164504 5.45718591,16.1256456 5.33691235,15.9239809 L4.31161643,14.2048503 C4.18613537,13.9944541 4.23156991,13.7241292 4.41893754,13.5663147 C5.17757365,12.9273367 5.61193772,12.0038131 5.61193772,11.0340089 C5.61193772,10.0642047 5.17757365,9.14068109 4.41893754,8.50170314 C4.23102537,8.34342998 4.18594431,8.07208638 4.31258304,7.8615537 L5.33787896,6.15703327 C5.4585472,5.95642632 5.70225124,5.86640026 5.9243555,5.94038454 C6.88289197,6.25967888 7.93780289,6.16040788 8.81415955,5.66884629 C9.68681908,5.17935847 10.2957037,4.3496522 10.4853337,3.39528034 C10.5318289,3.16127858 10.7371703,2.99272349 10.9757466,2.99272349 L13.0263384,2.99272349 C13.2649147,2.99272349 13.4702561,3.16127858 13.5167513,3.39528034 C13.7063813,4.3496522 14.3152659,5.17935847 15.1879255,5.66884629 C16.0642821,6.16040788 17.119193,6.25967888 18.0777295,5.94038454 C18.3005023,5.86617759 18.5448991,5.95698242 18.6651727,6.15864708 L19.6904686,7.87777769 C19.8159496,8.08817386 19.7705151,8.35849881 19.5831475,8.51631331 C18.8245114,9.15529127 18.3901473,10.0788149 18.3901473,11.0486191 C18.3901473,12.0184232 18.8245114,12.9419469 19.5831475,13.5809248 C19.7710596,13.739198 19.8161407,14.0105416 19.689502,14.2210743 L18.664206,15.9255947 C18.5435378,16.1262016 18.2998338,16.2162277 18.0777295,16.1422434 C17.119193,15.8229491 16.0642821,15.9222201 15.1879255,16.4137817 C14.3152659,16.9032695 13.7063813,17.7329758 13.5167513,18.6873476 C13.4702561,18.9213494 13.2649147,19.0899045 13.0263384,19.0899045 L10.9757466,19.0899045 Z M12.636491,18.0899045 C12.9601737,17.0187352 13.6961759,16.1039551 14.6987147,15.5416161 C15.7032469,14.9781589 16.8880154,14.8174525 18.0043018,15.0826131 L18.6236446,14.0529763 C17.8359187,13.2467253 17.3901473,12.1726736 17.3901473,11.0486191 C17.3901473,9.92404129 17.8363338,8.84951296 18.6247448,8.04313617 L18.0028315,7.00036389 C16.8869751,7.26503432 15.7028058,7.10422167 14.6987147,6.54101188 C13.6961759,5.97867286 12.9601737,5.0638928 12.636491,3.99272349 L11.365594,3.99272349 C11.0419113,5.0638928 10.3059091,5.97867286 9.30337031,6.54101188 C8.29883813,7.10446905 7.11406965,7.26517551 5.99778318,7.00001489 L5.37844042,8.02965167 C6.16616631,8.83590264 6.61193772,9.90995433 6.61193772,11.0340089 C6.61193772,12.1585867 6.16575123,13.233115 5.37734022,14.0394918 L5.99925351,15.0822641 C7.11510994,14.8175937 8.29927916,14.9784063 9.30337031,15.5416161 C10.3059091,16.1039551 11.0419113,17.0187352 11.365594,18.0899045 L12.636491,18.0899045 Z" id="stroke_1" fill="#C93AFB" fill-rule="nonzero"></path>
                                <circle id="circle" fill="#FCD58A" cx="12" cy="11.0769231" r="2.76923077"></circle>
                                <path d="M12,14.3461538 C10.1944537,14.3461538 8.73076923,12.8824694 8.73076923,11.0769231 C8.73076923,9.27137678 10.1944537,7.80769231 12,7.80769231 C13.8055463,7.80769231 15.2692308,9.27137678 15.2692308,11.0769231 C15.2692308,12.8824694 13.8055463,14.3461538 12,14.3461538 Z M12,13.3461538 C13.2532615,13.3461538 14.2692308,12.3301846 14.2692308,11.0769231 C14.2692308,9.82366153 13.2532615,8.80769231 12,8.80769231 C10.7467385,8.80769231 9.73076923,9.82366153 9.73076923,11.0769231 C9.73076923,12.3301846 10.7467385,13.3461538 12,13.3461538 Z" id="stroke" fill="#C93AFB" fill-rule="nonzero"></path>
                            </g>
                        </g>
                        <g id="red_blue_square" transform="translate(46.000000, 43.000000)">
                            <rect id="bg" fill="#FF4A70" x="1" y="0" width="28" height="28"></rect>
                            <path d="M10.0462552,9.04910928 C10.0139657,8.70579434 9.99745452,8.3578903 9.99745452,8.00612986 C9.99745452,4.85086051 11.3259375,2.00587497 13.4540766,0 C14.7430738,0.00205739102 19.9247589,0.00364559643 28.9991319,0.00476461623 C29.0017412,7.12735956 28.9984682,12.3139783 28.9893127,15.5646209 C26.9842264,17.6839346 24.1452481,19.0061299 20.9974545,19.0061299 C20.6445752,19.0061299 20.2955769,18.9895135 19.9511993,18.9570206 C19.9834889,19.3003355 20,19.6482396 20,20 C20,23.1552694 18.6715171,26.0002549 16.543378,28.0061299 C15.2543807,28.0040725 10.0726956,28.0024843 0.998322625,28.0013652 C0.995713275,20.8787703 0.998986331,15.6921515 1.00814179,12.4415089 C3.01322807,10.3221953 5.85220641,9 9,9 C9.35287927,9 9.70187759,9.01661634 10.0462552,9.04910928 Z" id="bg" fill="#44D4FF"></path>
                            <path d="M1.99799124,27.0014925 C9.71461633,27.0025063 14.4268512,27.003882 16.135989,27.0056207 C17.9571346,25.1516826 19,22.6603094 19,20 C19,19.6813745 18.9851305,19.3647123 18.9555931,19.0506596 L18.8424773,17.8479684 L20.0451347,17.9614423 C20.3601637,17.9911661 20.6778212,18.0061299 20.9974545,18.0061299 C23.6515536,18.0061299 26.1375963,16.9681644 27.9904072,15.1545345 C27.9983146,12.0477013 28.0013339,7.33093877 27.9994633,1.00463738 C20.2828382,1.00362358 15.5706033,1.00224782 13.8614655,1.00050915 C12.0403199,2.85444725 10.9974545,5.34582045 10.9974545,8.00612986 C10.9974545,8.32475533 11.0123241,8.64141756 11.0418614,8.95547025 L11.1549773,10.1581615 L9.95231977,10.0446876 C9.63729081,10.0149638 9.31963336,10 9,10 C6.34590095,10 3.85985827,11.0379655 2.00704731,12.8515954 C1.99913989,15.9584285 1.99612064,20.6751911 1.99799124,27.0014925 Z M13.4540766,0 C14.7430738,0.00205739102 19.9247589,0.00364559643 28.9991319,0.00476461623 C29.0017412,7.12735956 28.9984682,12.3139783 28.9893127,15.5646209 C26.9842264,17.6839346 24.1452481,19.0061299 20.9974545,19.0061299 C20.9554631,18.9584594 20.9512745,18.9108976 20.9468055,18.8633816 L19.9511993,18.9570206 L19.8572639,19.9525989 C19.9047793,19.9570821 19.9523407,19.9612849 19.9999461,19.9652068 C20,23.1552694 18.6715171,26.0002549 16.543378,28.0061299 C15.2543807,28.0040725 10.0726956,28.0024843 0.998322625,28.0013652 C0.995713275,20.8787703 0.998986331,15.6921515 1.00814179,12.4415089 C3.01322807,10.3221953 5.85220641,9 9,9 C9.04199145,9.04767045 9.04618001,9.09523228 9.050649,9.1427483 L10.0462552,9.04910928 L10.1401906,8.05353099 C10.0926752,8.04904778 10.0451139,8.04484501 9.99750838,8.04092311 C9.99745452,4.85086051 11.3259375,2.00587497 13.4540766,0 Z" id="stroke" fill="#BBEFFF" fill-rule="nonzero"></path>
                            <g id="circle_2" transform="translate(15.000000, 2.000000)">
                                <rect id="circle" fill="#13B3E2" x="1" y="1" width="10" height="10" rx="5"></rect>
                                <path d="M6,1 C3.23857625,1 1,3.23857625 1,6 C1,8.76142375 3.23857625,11 6,11 C8.76142375,11 11,8.76142375 11,6 C11,3.23857625 8.76142375,1 6,1 Z M6,0 C9.3137085,0 12,2.6862915 12,6 C12,9.3137085 9.3137085,12 6,12 C2.6862915,12 0,9.3137085 0,6 C0,2.6862915 2.6862915,0 6,0 Z" id="stroke" fill="#BBEFFF" fill-rule="nonzero"></path>
                                <rect id="white_circle" fill="#FFFFFF" x="5" y="5" width="2" height="2" rx="1"></rect>
                            </g>
                            <g id="circle_1" transform="translate(3.000000, 14.000000)">
                                <rect id="circle" fill="#13B3E2" x="1" y="1" width="10" height="10" rx="5"></rect>
                                <path d="M6,1 C3.23857625,1 1,3.23857625 1,6 C1,8.76142375 3.23857625,11 6,11 C8.76142375,11 11,8.76142375 11,6 C11,3.23857625 8.76142375,1 6,1 Z M6,0 C9.3137085,0 12,2.6862915 12,6 C12,9.3137085 9.3137085,12 6,12 C2.6862915,12 0,9.3137085 0,6 C0,2.6862915 2.6862915,0 6,0 Z" id="stroke" fill="#BBEFFF" fill-rule="nonzero"></path>
                                <rect id="white_circle" fill="#FFFFFF" x="5" y="5" width="2" height="2" rx="1"></rect>
                            </g>
                            <g id="lines" transform="translate(1.000000, 0.000000)" fill="#BBEFFF" fill-rule="nonzero">
                                <path d="M12.9874669,7.49088046 L12.9874669,8.49088046 L10.9982881,8.49088046 L10.9982881,7.49088046 L12.9874669,7.49088046 Z M19.5014114,15.0048966 L20.5014114,15.0048966 L20.5014114,17.0116001 L19.5014114,17.0116001 L19.5014114,15.0048966 Z M13.6960667,10.9862128 L14.2214503,11.8370783 L12.5736666,12.8545347 L12.048283,12.0036692 L13.6960667,10.9862128 Z M15.880486,13.7372431 L16.7611529,14.2109791 L15.8136809,15.9723129 L14.933014,15.4985769 L15.880486,13.7372431 Z M12.8535868,15.5284936 L12.1993201,14.7722297 L13.7118479,13.4636963 L14.3661146,14.2199602 L12.8535868,15.5284936 Z M3.59674824,14.6851652 L2.86960782,15.371654 L1.51432772,13.9361185 L2.24146814,13.2496297 L3.59674824,14.6851652 Z M6.49126721,13.3268315 L5.5323105,13.610384 L4.96414321,11.6888783 L5.92309991,11.4053257 L6.49126721,13.3268315 Z M9.73892457,13.3922458 L8.8080828,13.0268233 L9.4902534,11.2891282 L10.4210952,11.6545508 L9.73892457,13.3922458 Z M12.1774645,25.5263736 L12.8561734,24.7919662 L14.2959621,26.1225595 L13.6172531,26.8569668 L12.1774645,25.5263736 Z M14.2424009,22.8743619 L14.6270366,21.9512934 L16.41503,22.6963369 L16.0303942,23.6194053 L14.2424009,22.8743619 Z M14.8974634,19.4295713 L14.6064352,18.4728569 L16.5854511,17.8708492 L16.8764794,18.8275636 L14.8974634,19.4295713 Z M2.80163292,24.5426467 L3.47660044,25.2804942 L1.8143161,26.8011174 L1.13934858,26.0632699 L2.80163292,24.5426467 Z M1.3153181,21.6496149 L1.66735269,22.5856019 L0.628553157,22.9763054 L0.276518564,22.0403184 L1.3153181,21.6496149 Z M1.55550173,17.3708014 L1.17080194,18.2938432 L0.260771948,17.9145663 L0.645471737,16.9915246 L1.55550173,17.3708014 Z M5.73703019,26.3705404 L6.69225589,26.6664185 L6.45812015,27.4223125 L5.50289445,27.1264343 L5.73703019,26.3705404 Z M9.19616818,26.6851843 L10.1385152,26.350547 L10.4216986,27.1479985 L9.47935154,27.4826358 L9.19616818,26.6851843 Z M23.2605828,14.3012447 L24.1249375,13.7983621 L25.1307027,15.5270715 L24.266348,16.0299541 L23.2605828,14.3012447 Z M25.6031919,12.2324244 L26.3275279,11.5429773 L27.862168,13.1552764 L27.137832,13.8447236 L25.6031919,12.2324244 Z M13.9839743,4.5602195 L13.4869329,5.4279463 L11.7514793,4.4338634 L12.2485207,3.5661366 L13.9839743,4.5602195 Z M16.2257507,1.95844759 L15.4226493,2.55428997 L14.2111787,0.921418955 L15.0142801,0.325576578 L16.2257507,1.95844759 Z M25.7701579,4.60340849 L25.3041409,3.71863269 L27.0869416,2.77962045 L27.5529586,3.66439626 L25.7701579,4.60340849 Z M23.441428,2.1362867 L22.5844547,1.62092581 L23.388411,0.284058678 L24.2453843,0.799419569 L23.441428,2.1362867 Z M20.2484151,1.28874786 L19.2484151,1.28874786 L19.2484151,0.543450662 L20.2484151,0.543450662 L20.2484151,1.28874786 Z M26.5754454,8.53046012 L26.5754454,7.53046012 L27.2980378,7.53046012 L27.2980378,8.53046012 L26.5754454,8.53046012 Z"></path>
                            </g>
                            <path d="M1,1 L2,0 L2,1 L1,1 Z M8,1 L9,0 L1,0 L1,8 L2,7 L2,1 L8,1 Z M2,0 L1,1 L2,1 L2,0 Z M8,1 L9,0 L1,0 L1,8 L2,7 L2,1 L8,1 Z" id="corner" fill="#FFFFFF" fill-rule="nonzero"></path>
                            <path d="M21,21 L22,20 L22,21 L21,21 Z M28,21 L29,20 L21,20 L21,28 L22,27 L22,21 L28,21 Z M22,20 L21,21 L22,21 L22,20 Z M28,21 L29,20 L21,20 L21,28 L22,27 L22,21 L28,21 Z" id="corner" fill="#FFFFFF" fill-rule="nonzero" transform="translate(25.000000, 24.000000) scale(-1, -1) translate(-25.000000, -24.000000) "></path>
                        </g>
                        <rect id="bg" fill="#A908E2" x="47" y="75" width="28" height="28"></rect>
                        <g id="place_2" transform="translate(32.000000, 60.000000)" fill="#DA77FD" fill-rule="nonzero">
                            <path d="M14,14 L14,40 L40,40 L40,14 L14,14 Z M13,13 L41,13 L41,41 L13,41 L13,13 Z" id="frame"></path>
                            <g id="lines" transform="translate(27.223611, 27.223611) rotate(-315.000000) translate(-27.223611, -27.223611) translate(8.723611, 8.223611)">
                                <polygon id="Path-3" points="26.5 8.73488459 27.5 8.73488459 27.5 29.2548735 26.5 29.2548735"></polygon>
                                <polygon id="Path-3" points="23.5 5.70020826 24.5 5.70020826 24.5 32.1988225 23.5 32.1988225"></polygon>
                                <polygon id="Path-3" points="20.5 2.77719628 21.5 2.77719628 21.5 35.2368842 20.5 35.2368842"></polygon>
                                <polygon id="Path-3" points="17.5000001 -0.000330465837 18.4999999 0.000330465837 18.4751303 37.6284148 17.4751305 37.6277539"></polygon>
                                <polygon id="Path-3" points="36.5 17.7018566 36.5 20.2222298 35.5 20.2222298 35.5 17.7018566"></polygon>
                                <polygon id="Path-3" points="32.5 14.8403863 33.5 14.8403863 33.5 23.1975819 32.5 23.1975819"></polygon>
                                <polygon id="Path-3" points="29.5 11.7608487 30.5 11.7608487 30.5 26.2201389 29.5 26.2201389"></polygon>
                                <polygon id="Path-3" points="11.5 6.14374068 12.5 6.14374068 12.5 31.8416946 11.5 31.8416946"></polygon>
                                <polygon id="Path-3" points="14.5 3.10041871 15.5 3.10041871 15.5 34.9892331 14.5 34.9892331"></polygon>
                                <polygon id="Path-3" points="5.5 12.0204411 6.5 12.0204411 6.5 25.8543194 5.5 25.8543194"></polygon>
                                <polygon id="Path-3" points="8.5 9.14451146 9.5 9.14451146 9.5 28.887277 8.5 28.887277"></polygon>
                                <polygon id="Path-3" points="2.5 15.1100121 3.5 15.1100121 3.5 22.9225055 2.5 22.9225055"></polygon>
                                <polygon id="Path-3" points="-0.5 18.1084413 0.5 18.1084413 0.5 19.9552995 -0.5 19.9552995"></polygon>
                            </g>
                        </g>
                        <rect id="bg" fill="#A908E2" x="15" y="43" width="28" height="28"></rect>
                        <g id="place_1" transform="translate(0.000000, 28.000000)" fill="#DA77FD" fill-rule="nonzero">
                            <path d="M14,14 L14,40 L40,40 L40,14 L14,14 Z M13,13 L41,13 L41,41 L13,41 L13,13 Z" id="frame"></path>
                            <g id="lines" transform="translate(27.223611, 27.223611) rotate(-315.000000) translate(-27.223611, -27.223611) translate(8.723611, 8.223611)">
                                <polygon id="Path-3" points="26.5 8.73488459 27.5 8.73488459 27.5 29.2548735 26.5 29.2548735"></polygon>
                                <polygon id="Path-3" points="23.5 5.70020826 24.5 5.70020826 24.5 32.1988225 23.5 32.1988225"></polygon>
                                <polygon id="Path-3" points="20.5 2.77719628 21.5 2.77719628 21.5 35.2368842 20.5 35.2368842"></polygon>
                                <polygon id="Path-3" points="17.5000001 -0.000330465837 18.4999999 0.000330465837 18.4751303 37.6284148 17.4751305 37.6277539"></polygon>
                                <polygon id="Path-3" points="35.5 17.7018566 36.5 17.7018566 36.5 20.2222298 35.5 20.2222298"></polygon>
                                <polygon id="Path-3" points="32.5 14.8403863 33.5 14.8403863 33.5 23.1975819 32.5 23.1975819"></polygon>
                                <polygon id="Path-3" points="29.5 11.7608487 30.5 11.7608487 30.5 26.2201389 29.5 26.2201389"></polygon>
                                <polygon id="Path-3" points="11.5 6.14374068 12.5 6.14374068 12.5 31.8416946 11.5 31.8416946"></polygon>
                                <polygon id="Path-3" points="14.5 3.10041871 15.5 3.10041871 15.5 34.9892331 14.5 34.9892331"></polygon>
                                <polygon id="Path-3" points="5.5 12.0204411 6.5 12.0204411 6.5 25.8543194 5.5 25.8543194"></polygon>
                                <polygon id="Path-3" points="8.5 9.14451146 9.5 9.14451146 9.5 28.887277 8.5 28.887277"></polygon>
                                <polygon id="Path-3" points="2.5 15.1100121 3.5 15.1100121 3.5 22.9225055 2.5 22.9225055"></polygon>
                                <polygon id="Path-3" points="-0.5 18.1084413 0.5 18.1084413 0.5 19.9552995 -0.5 19.9552995"></polygon>
                            </g>
                        </g>
                        <g id="top_elements" transform="translate(18.000000, 11.000000)">
                            <polygon id="line" fill="#ECB7FF" fill-rule="nonzero" points="0.4971911 12.5 0.4971911 11.5 53.5071894 11.5 53.5071894 12.5"></polygon>
                            <path d="M8.04989215,3 C15.1382419,3 27.7928466,3 46.0137061,3 C47.9718822,4.73202107 49.9673135,7.0653544 52,10 C24.0041561,10 7.3374894,10 2,10 C4.28166756,6.90559006 5.9771821,4.80370113 8.04989215,3 Z" id="element" fill="#DE7FFF"></path>
                            <polygon id="line" fill="#ECB7FF" fill-rule="nonzero" points="9.49722246 1.5 9.49722246 0.5 44.5072208 0.5 44.5072208 1.5"></polygon>
                        </g>
                    </g>
                </g>
                <g id="side_element" transform="translate(157.000000, 58.000000)">
                    <rect id="square" fill="#FCD58A" x="3" y="28" width="28" height="28"></rect>
                    <polygon id="element" fill="#4389FE" points="14.0004088 24 19.9985032 24 22 28 12 28"></polygon>
                    <polygon id="line" fill="#4389FE" fill-rule="nonzero" points="17.5 24.5 16.5 24.5 16.5 1 17.5 1"></polygon>
                    <polygon id="line" fill="#185AC8" fill-rule="nonzero" points="52.5 2 53.5 2 53.5 84 52.5 84"></polygon>
                    <polygon id="line" fill="#2F73E4" fill-rule="nonzero" points="16.5 2 16.5 1 53.5 1 53.5 2"></polygon>
                    <polygon id="corner" fill="#FFFFFF" fill-rule="nonzero" points="1 26 1 34.5 0 34.5 0 25 9.5 25 9.5 26"></polygon>
                    <polygon id="corner" fill="#FFFFFF" fill-rule="nonzero" transform="translate(29.250000, 54.250000) scale(-1, -1) translate(-29.250000, -54.250000) " points="25.5 50.5 25.5 59 24.5 59 24.5 49.5 34 49.5 34 50.5"></polygon>
                    <polygon id="shield" fill="#FFC350" points="6 34.3218159 17 30 28 34.3218159 26.1265884 49.5883972 17.0187665 55 7.75356504 49.5883972"></polygon>
                    <path d="M8.68994019,48.9772344 L17.0144186,53.8393813 L25.1938167,48.9794209 L26.9130589,34.9691786 L17,31.0744135 L7.08119257,34.9714372 L8.68994019,48.9772344 Z M6,34.3218159 L17,30 L28,34.3218159 L26.1265884,49.5883972 L17.0187665,55 L7.75356504,49.5883972 L6,34.3218159 Z" id="border" fill="#FFFFFF" fill-rule="nonzero"></path>
                    <path d="M22.597756,40.2009108 L22.597756,37.3989908 C22.5893574,37.0023924 22.4532732,36.6722219 22.1895692,36.4084137 C21.9257996,36.1443429 21.595497,36.0084676 21.1991208,36.0001313 L19.800748,36.0001313 L19.800748,42.9990892 L14.199252,36 L12.8006168,36 C12.4041749,36.008402 12.0741348,36.1442773 11.8104308,36.408348 C11.5464643,36.6722219 11.4106426,37.0023924 11.4023096,37.3988595 L11.4023096,40.2009108 C11.391352,40.5975092 11.2541525,40.9271546 10.990186,41.1898469 C10.7264163,41.452211 10.3963762,41.5889396 10,41.5998359 C10.3963762,41.6109947 10.7264819,41.7477234 10.9901204,42.0100875 C11.2541525,42.2727798 11.391352,42.6024252 11.402244,42.9990236 L11.402244,45.8009436 C11.4106426,46.1972138 11.5464643,46.5277125 11.8104308,46.7915207 C12.0742004,47.0553945 12.4042406,47.1914668 12.8005512,47.1998031 L14.199252,47.1998031 L14.199252,40.2009764 L19.800748,47.2 L21.1991208,47.2 C21.595497,47.191598 21.9258652,47.0554602 22.1895692,46.791652 C22.4533388,46.5277781 22.5893574,46.1973451 22.5976904,45.8011405 L22.5976904,42.9990892 C22.608648,42.6024908 22.7458475,42.2728454 23.009814,42.0101531 C23.2735837,41.747789 23.6036238,41.6110604 24,41.5999015 C23.6036238,41.5889396 23.2735181,41.4522766 23.0098796,41.1899125 C22.7458475,40.9271546 22.608648,40.5975092 22.597756,40.2009108 Z" id="Path" fill="#FFFFFF"></path>
                </g>
                <g id="side_element">
                    <rect id="square" fill="#44D4FF" x="24" y="28" width="28" height="28"></rect>
                    <polygon id="element" fill="#4389FE" points="35.0004088 24 40.9985032 24 43 28 33 28"></polygon>
                    <polygon id="corner" fill="#FFFFFF" fill-rule="nonzero" points="22 26 22 34.5 21 34.5 21 25 30.5 25 30.5 26"></polygon>
                    <polygon id="corner" fill="#FFFFFF" fill-rule="nonzero" transform="translate(50.250000, 54.250000) scale(-1, -1) translate(-50.250000, -54.250000) " points="46.5 50.5 46.5 59 45.5 59 45.5 49.5 55 49.5 55 50.5"></polygon>
                    <path d="M45.8755872,41.7017694 C45.533185,41.3625488 45.3552175,40.9368701 45.3410891,40.4247333 L45.3410891,36.8065492 C45.3301948,36.2944125 45.1536743,35.8680557 44.8116125,35.527394 C44.4694656,35.1863934 44.041016,35.0109344 43.5268594,35.0001695 L41.7129702,35.0001695 L41.7129702,44.038086 L34.4470297,35 L32.6328,35 C32.1185583,35.0108496 31.6904492,35.1863086 31.3483874,35.5273093 C31.0059851,35.8680557 30.829805,36.2944125 30.8189959,36.8063797 L30.8189959,40.4247333 C30.8047823,40.9368701 30.6268149,41.3625488 30.2844126,41.7017694 C29.9422657,42.0405663 29.5141566,42.2171271 29,42.2311978 C29.5141566,42.2456074 29.9423509,42.4221683 30.2843275,42.7609652 C30.6268149,43.1001858 30.8047823,43.5258645 30.8189108,44.0380012 L30.8189108,47.6561854 C30.829805,48.1678983 31.0059851,48.5946789 31.3483874,48.9353406 C31.6905343,49.2760869 32.1186434,49.4518002 32.6327149,49.4625651 L34.4470297,49.4625651 L34.4470297,40.4248181 L41.7129702,49.4628194 L43.5268594,49.4628194 C44.041016,49.4519697 44.4695507,49.2761717 44.8116125,48.9355101 C45.1537594,48.5947637 45.3301948,48.1680678 45.3410039,47.6564397 L45.3410039,44.038086 C45.3552175,43.5259493 45.533185,43.1002706 45.8755872,42.7610499 C46.2177341,42.4222531 46.6458433,42.2456922 47.1599998,42.2312825 C46.6458433,42.2171271 46.217649,42.040651 45.8756723,41.7018542 L45.8755872,41.7017694 Z" id="Path" fill="#FFFFFF"></path>
                    <polygon id="line" fill="#185AC8" fill-rule="nonzero" points="0.5 0.5 1.5 0.5 1.5 82.5 0.5 82.5"></polygon>
                    <polygon id="line" fill="#2F73E4" fill-rule="nonzero" points="0.5 1.5 0.5 0.5 38 0.5 38 1.5"></polygon>
                    <polygon id="line" fill="#4389FE" fill-rule="nonzero" points="38.5 24 37.5 24 37.5 0.5 38.5 0.5"></polygon>
                </g>
            </g>
        </g>
    </g>
</svg>