<?xml version="1.0" encoding="UTF-8" standalone="no"?>
<svg width="360px" height="294px" viewBox="0 0 360 294" version="1.1" xmlns="http://www.w3.org/2000/svg" xmlns:xlink="http://www.w3.org/1999/xlink">
    <!-- Generator: Sketch 50.2 (55047) - http://www.bohemiancoding.com/sketch -->
    <title>9_1_nativescript_core_getting_started_guide</title>
    <desc>Created with Sketch.</desc>
    <defs></defs>
    <g id="illustrations" stroke="none" stroke-width="1" fill="none" fill-rule="evenodd">
        <g id="nativescript_core_getting_started_guide">
            <g id="nativescript_core_getting_started_guide_image" transform="translate(92.000000, 46.000000)">
                <g id="circle_bg">
                    <circle id="circle_2" fill="#0C3E91" cx="88" cy="108" r="83"></circle>
                    <path d="M88,195.5 C39.6750844,195.5 0.5,156.324916 0.5,108 C0.5,59.6750844 39.6750844,20.5 88,20.5 C136.324916,20.5 175.5,59.6750844 175.5,108 C175.5,156.324916 136.324916,195.5 88,195.5 Z M88,194.5 C135.772631,194.5 174.5,155.772631 174.5,108 C174.5,60.2273691 135.772631,21.5 88,21.5 C40.2273691,21.5 1.5,60.2273691 1.5,108 C1.5,155.772631 40.2273691,194.5 88,194.5 Z" id="circle_1" fill="#0B49AF" fill-rule="nonzero"></path>
                    <rect id="rectangle" fill="#1148A3" transform="translate(25.334524, 68.334524) rotate(-315.000000) translate(-25.334524, -68.334524) " x="8.83452378" y="51.8345238" width="33" height="33"></rect>
                    <rect id="rectangle" fill="#1148A3" transform="translate(67.516504, 9.516504) rotate(-315.000000) translate(-67.516504, -9.516504) " x="60.7873196" y="2.78731957" width="13.4583694" height="13.4583694"></rect>
                    <rect id="rectangle" fill="#1148A3" transform="translate(168.758252, 139.758252) rotate(-315.000000) translate(-168.758252, -139.758252) " x="155.494165" y="126.494165" width="26.5281746" height="26.5281746"></rect>
                </g>
                <g id="blueprint" transform="translate(92.500000, 108.000000) rotate(-90.000000) translate(-92.500000, -108.000000) translate(9.500000, 32.500000)">
                    <g id="drawing">
                        <path d="M0,136 L20,136 L20,151 C14.5009838,151 10.5009838,151 8,151 C3.48510732,151 0,148.930097 3.69929781e-13,144.022097 C1.23309927e-13,141.561614 0,138.887582 0,136 Z" id="further_part" fill="#1F68E0"></path>
                        <path d="M146,136 L166,136 L166,151 C160.500984,151 156.500984,151 154,151 C149.485107,151 146,148.930097 146,144.022097 C146,141.561614 146,138.887582 146,136 Z" id="further_part" fill="#1F68E0" transform="translate(156.000000, 143.500000) scale(-1, 1) translate(-156.000000, -143.500000) "></path>
                        <path d="M7.99999961,5.05114266 L157.997477,5.00180407 C162.415754,5.00042434 165.998595,8.58102768 165.999974,12.9993055 C165.999975,13.0001382 165.999975,13.0009709 165.999975,13.0018037 C165.997477,57.0018037 165.997477,101.001804 165.997477,145.001804 C165.997477,139.103742 163.412683,136.99771 157.951518,136.99818 C68.3594514,137.005884 18.391714,136.986034 8.09743791,136.986034 C3.30608644,136.986034 1.45098014e-13,139.050158 1.0658141e-12,144.969819 C1.0658141e-12,100.99776 1.0658141e-12,57.0257004 1.0658141e-12,13.0536409 L0.00249860618,13.0536409 C0.00249860618,8.63633846 3.58269819,5.05502069 8.00000039,5.05364126 Z" id="bg" fill="#0B51C5"></path>
                        <path d="M5,10 L5,132 L161,132 L161,10 L5,10 Z M4,9 L162,9 L162,133 L4,133 L4,9 Z" id="stroke" fill="#6A9FF8" fill-rule="nonzero"></path>
                        <g id="signature" transform="translate(14.500000, 120.000000) rotate(-270.000000) translate(-14.500000, -120.000000) translate(1.500000, 109.500000)">
                            <path d="M1,1 L1,20 L25,20 L25,1 L1,1 Z M0,0 L26,0 L26,21 L0,21 L0,0 Z" id="stroke" fill="#6A9FF8" fill-rule="nonzero"></path>
                            <rect id="bg" fill="#44D4FF" x="4" y="4" width="18" height="13"></rect>
                            <rect id="line" fill="#CDF4FF" x="7" y="7" width="12" height="1"></rect>
                            <rect id="line" fill="#CDF4FF" x="7" y="10" width="12" height="1"></rect>
                            <rect id="line" fill="#CDF4FF" x="7" y="13" width="7" height="1"></rect>
                        </g>
                        <rect id="line" fill="#5893F4" transform="translate(97.500000, 141.500000) scale(1, -1) translate(-97.500000, -141.500000) " x="56" y="141" width="83" height="1"></rect>
                        <rect id="line" fill="#5893F4" transform="translate(56.500000, 0.500000) scale(1, -1) translate(-56.500000, -0.500000) " x="15" y="0" width="83" height="1"></rect>
                    </g>
                    <g id="circle" transform="translate(52.000000, 14.000000)">
                        <rect id="line" fill="#B5D1FE" x="0" y="15" width="31" height="1"></rect>
                        <rect id="line" fill="#B5D1FE" transform="translate(15.500000, 15.500000) rotate(-270.000000) translate(-15.500000, -15.500000) " x="0" y="15" width="31" height="1"></rect>
                        <rect id="line" fill="#B5D1FE" transform="translate(15.500000, 15.500000) rotate(-225.000000) translate(-15.500000, -15.500000) " x="6" y="15" width="19" height="1"></rect>
                        <rect id="line" fill="#B5D1FE" transform="translate(15.500000, 15.500000) scale(-1, 1) rotate(-225.000000) translate(-15.500000, -15.500000) " x="6" y="15" width="19" height="1"></rect>
                        <path d="M20.216962,3.3823451 L19.8539926,4.31414614 C18.4785458,3.778361 17.0089212,3.5 15.5,3.5 C14.0155689,3.5 12.569092,3.7693916 11.2127191,4.28838997 L10.8553502,3.35442664 C12.3253713,2.79194231 13.8929324,2.5 15.5,2.5 C17.1335968,2.5 18.7262686,2.80166732 20.216962,3.3823451 Z M2.99926972,11.9201273 L3.96075703,12.1949766 C3.6561912,13.2604191 3.5,14.3695417 3.5,15.5 C3.5,16.6590559 3.66419607,17.7956235 3.98408538,18.8855569 L3.02455814,19.1671727 C2.67789425,17.9860125 2.5,16.7546259 2.5,15.5 C2.5,14.276348 2.66921687,13.0747293 2.99926972,11.9201273 Z M11.8246739,27.973046 L12.1069217,27.0137044 C13.1991371,27.3350451 14.3382697,27.5 15.5,27.5 C16.6494052,27.5 17.7767146,27.3385277 18.8584012,27.0238496 L19.1377353,27.9840436 C17.9655179,28.3250584 16.7441732,28.5 15.5,28.5 C14.2424775,28.5 13.0083088,28.3212831 11.8246739,27.973046 Z M27.9636986,19.2069481 L27.0050816,18.9222492 C27.3320838,17.8211916 27.5,16.6721085 27.5,15.5 C27.5,14.3390452 27.3352653,13.2006564 27.0143459,12.1091026 L27.9737413,11.8270381 C28.3215219,13.0099555 28.5,14.2433175 28.5,15.5 C28.5,16.7687631 28.318073,18.0137248 27.9636986,19.2069481 Z" id="oval_2" fill="#FFFFFF" fill-rule="nonzero"></path>
                        <path d="M15.5,19.5 C13.290861,19.5 11.5,17.709139 11.5,15.5 C11.5,13.290861 13.290861,11.5 15.5,11.5 C17.709139,11.5 19.5,13.290861 19.5,15.5 C19.5,17.709139 17.709139,19.5 15.5,19.5 Z M15.5,18.5 C17.1568542,18.5 18.5,17.1568542 18.5,15.5 C18.5,13.8431458 17.1568542,12.5 15.5,12.5 C13.8431458,12.5 12.5,13.8431458 12.5,15.5 C12.5,17.1568542 13.8431458,18.5 15.5,18.5 Z" id="oval_1" fill="#FFFFFF" fill-rule="nonzero"></path>
                    </g>
                    <g id="circle" transform="translate(91.000000, 106.000000)">
                        <rect id="line" fill="#B5D1FE" x="0" y="2.5" width="19" height="1"></rect>
                        <rect id="line" fill="#B5D1FE" x="0" y="15.5" width="19" height="1"></rect>
                        <rect id="line" fill="#B5D1FE" transform="translate(3.000000, 9.500000) rotate(-270.000000) translate(-3.000000, -9.500000) " x="-6.5" y="9" width="19" height="1"></rect>
                        <rect id="line" fill="#B5D1FE" transform="translate(16.000000, 9.500000) rotate(-270.000000) translate(-16.000000, -9.500000) " x="6.5" y="9" width="19" height="1"></rect>
                        <path d="M9.5,16.5 C5.63400675,16.5 2.5,13.3659932 2.5,9.5 C2.5,5.63400675 5.63400675,2.5 9.5,2.5 C13.3659932,2.5 16.5,5.63400675 16.5,9.5 C16.5,13.3659932 13.3659932,16.5 9.5,16.5 Z M9.5,15.5 C12.8137085,15.5 15.5,12.8137085 15.5,9.5 C15.5,6.1862915 12.8137085,3.5 9.5,3.5 C6.1862915,3.5 3.5,6.1862915 3.5,9.5 C3.5,12.8137085 6.1862915,15.5 9.5,15.5 Z" id="oval_2" fill="#FFFFFF" fill-rule="nonzero"></path>
                        <path d="M9.67567933,16.0006156 C13.1706608,16.0006156 16.003903,13.1673733 16.003903,9.6723919 C16.003903,7.9275446 15.2977338,6.34763197 14.1556032,5.20286195 C11.4838361,7.83822228 8.41563225,11.0452455 5.22390331,14.1699593 C6.36722682,15.3017145 7.93983452,16.0006156 9.67567933,16.0006156 Z" id="oval_1" fill="#FFFFFF"></path>
                    </g>
                    <g id="rocket_and_lines" transform="translate(83.500000, 72.500000) rotate(-270.000000) translate(-83.500000, -72.500000) translate(40.000000, 4.000000)">
                        <g id="lines" transform="translate(7.000000, 33.000000)" fill="#6A9FF8">
                            <rect id="line" x="0" y="3" width="34" height="1"></rect>
                            <rect id="line" x="0" y="26" width="34" height="1"></rect>
                            <rect id="line" x="0" y="33" width="34" height="1"></rect>
                            <rect id="line" x="3" y="0" width="1" height="37"></rect>
                            <polygon id="diagonal_line" fill-rule="nonzero" points="5.69131765 30.6746931 6.39592316 31.3842924 1.35317755 36.3915503 0.648572041 35.681951"></polygon>
                            <polygon id="diagonal_line" fill-rule="nonzero" points="5.69131765 23.6746931 6.39592316 24.3842924 1.35317755 29.3915503 0.648572041 28.681951"></polygon>
                            <polygon id="diagonal_line" fill-rule="nonzero" points="5.69131765 0.674693149 6.39592316 1.38429238 1.35317755 6.39155028 0.648572041 5.68195104"></polygon>
                        </g>
                        <g id="lines" transform="translate(0.000000, 105.000000)" fill="#6A9FF8">
                            <rect id="line" x="0" y="3" width="28" height="1"></rect>
                            <rect id="line" x="0" y="15" width="28" height="1"></rect>
                            <rect id="line" x="3" y="0" width="1" height="19"></rect>
                            <polygon id="diagonal_line" fill-rule="nonzero" points="5.69131765 12.6746931 6.39592316 13.3842924 1.35317755 18.3915503 0.648572041 17.681951"></polygon>
                            <polygon id="diagonal_line" fill-rule="nonzero" points="5.69131765 0.674693149 6.39592316 1.38429238 1.35317755 6.39155028 0.648572041 5.68195104"></polygon>
                        </g>
                        <g id="lines" transform="translate(41.000000, 6.000000)" fill="#6A9FF8">
                            <rect id="line" x="0" y="3" width="34" height="1"></rect>
                            <rect id="line" x="0" y="26" width="34" height="1"></rect>
                            <rect id="line" x="30" y="0" width="1" height="30"></rect>
                            <polygon id="diagonal_line" fill-rule="nonzero" points="32.6913176 23.6746931 33.3959232 24.3842924 28.3531776 29.3915503 27.648572 28.681951"></polygon>
                            <polygon id="diagonal_line" fill-rule="nonzero" points="32.6913176 0.674693149 33.3959232 1.38429238 28.3531776 6.39155028 27.648572 5.68195104"></polygon>
                        </g>
                        <g id="lines" transform="translate(51.000000, 68.000000)" fill="#6A9FF8">
                            <rect id="line" x="0" y="3" width="36" height="1"></rect>
                            <rect id="line" x="2" y="34" width="34" height="1"></rect>
                            <rect id="line" x="32" y="0" width="1" height="43"></rect>
                            <polygon id="diagonal_line" fill-rule="nonzero" points="34.6913176 0.674693149 35.3959232 1.38429238 30.3531776 6.39155028 29.648572 5.68195104"></polygon>
                            <polygon id="diagonal_line" fill-rule="nonzero" points="34.6628754 31.6740268 35.3689518 32.3821625 30.3415305 37.3949641 29.6354541 36.6868285"></polygon>
                            <rect id="line" x="2" y="39" width="34" height="1"></rect>
                            <polygon id="diagonal_line" fill-rule="nonzero" points="34.6628754 36.6740268 35.3689518 37.3821625 30.3415305 42.3949641 29.6354541 41.6868285"></polygon>
                        </g>
                        <g id="lines" transform="translate(28.000000, 0.000000)" fill="#6A9FF8">
                            <rect id="line" x="3" y="0" width="1" height="32"></rect>
                            <rect id="line" x="22" y="0" width="1" height="32"></rect>
                            <rect id="line" x="0" y="3" width="26" height="1"></rect>
                            <polygon id="diagonal_line" fill-rule="nonzero" points="24.6913176 0.674693149 25.3959232 1.38429238 20.3531776 6.39155028 19.648572 5.68195104"></polygon>
                            <polygon id="diagonal_line" fill-rule="nonzero" points="5.69131765 0.674693149 6.39592316 1.38429238 1.35317755 6.39155028 0.648572041 5.68195104"></polygon>
                        </g>
                        <g id="lines" transform="translate(19.000000, 105.000000)" fill="#6A9FF8">
                            <rect id="line" x="3" y="0" width="1" height="32"></rect>
                            <rect id="line" x="40" y="0" width="1" height="32"></rect>
                            <rect id="line" x="0" y="28" width="44" height="1"></rect>
                            <polygon id="diagonal_line" fill-rule="nonzero" transform="translate(40.535123, 28.496351) scale(-1, 1) translate(-40.535123, -28.496351) " points="43.3677872 30.6334824 42.6590352 31.3389402 37.7024589 26.3592189 38.4112109 25.6537612"></polygon>
                            <polygon id="diagonal_line" fill-rule="nonzero" transform="translate(3.832664, 28.842590) scale(-1, 1) translate(-3.832664, -28.842590) " points="6.6653282 30.9797212 5.95657626 31.685179 1 26.7054578 1.70875195 26"></polygon>
                        </g>
                        <g id="rocket" transform="translate(8.000000, 7.000000)">
                            <g id="centre" transform="translate(20.000000, 25.000000)">
                                <rect id="bg" fill="#FCD58A" x="2.27373675e-13" y="0" width="26" height="47"></rect>
                                <path d="M1,1 L1,46 L25,46 L25,1 L1,1 Z M2.27373675e-13,0 L26,0 L26,47 L2.27373675e-13,47 L2.27373675e-13,0 Z" id="stroke" fill="#FFFFFF" fill-rule="nonzero"></path>
                                <rect id="darker" fill="#F9BE4F" x="1" y="1" width="24" height="3"></rect>
                            </g>
                            <g id="logo" transform="translate(22.000000, 32.000000)">
                                <circle id="Oval" fill="#FFFFFF" cx="11" cy="11" r="11"></circle>
                                <circle id="Oval" fill="#D974FF" cx="11" cy="11" r="10"></circle>
                                <path d="M17.009814,10.597171 C16.7458475,10.3391697 16.608648,10.0154108 16.597756,9.6258945 L16.597756,6.8740088 C16.5893574,6.48449249 16.4532732,6.1602179 16.1895692,5.90112057 C15.9257996,5.64176537 15.595497,5.50831639 15.1991208,5.50012894 L13.800748,5.50012894 L13.800748,12.3741055 L8.199252,5.5 L6.80061677,5.5 C6.40417495,5.50825192 6.07413483,5.6417009 5.8104308,5.9010561 C5.54646432,6.1602179 5.41064265,6.48449249 5.40230962,6.87387987 L5.40230962,9.6258945 C5.39135203,10.0154108 5.25415245,10.3391697 4.99018597,10.597171 C4.72641633,10.8548501 4.39637621,10.9891371 4,10.9998388 C4.39637621,11.0107984 4.72648195,11.1450855 4.99012036,11.4027645 C5.25415245,11.6607659 5.39135203,11.9845247 5.40224401,12.374041 L5.40224401,15.1259267 C5.41064265,15.5151207 5.54646432,15.8397176 5.8104308,16.098815 C6.07420044,16.3579768 6.40424056,16.4916191 6.80055116,16.4998066 L8.199252,16.4998066 L8.199252,9.62595896 L13.800748,16.5 L15.1991208,16.5 C15.595497,16.4917481 15.9258652,16.3580412 16.1895692,16.0989439 C16.4533388,15.8397821 16.5893574,15.5152496 16.5976904,15.1261201 L16.5976904,12.3741055 C16.608648,11.9845892 16.7458475,11.6608303 17.009814,11.402829 C17.2735837,11.1451499 17.6036238,11.0108629 18,10.9999033 C17.6036238,10.9891371 17.2735181,10.8549145 17.0098796,10.5972355 L17.009814,10.597171 Z" id="Path" fill="#FFFFFF" transform="translate(11.000000, 11.000000) rotate(-180.000000) translate(-11.000000, -11.000000) "></path>
                            </g>
                            <g id="bottom_wing_right" transform="translate(42.000000, 64.000000)">
                                <polygon id="bg" fill="#FCD58A" transform="translate(11.500000, 34.500000) scale(-1, 1) translate(-11.500000, -34.500000) " points="0 32 23 32 23 37 2.00033569 37"></polygon>
                                <path d="M22,36 L23,36 L22,37 L22,36 Z M22,36 L22,32 L23,32 L23,37 L2.00033569,37 L0,32 L1.0770579,32 L2.67732645,36 L22,36 Z M2.92879089,36.6285556 L2.00033569,36 L2.67732645,36 L2.92879089,36.6285556 Z M2.00033569,36 L2.92879089,36.6285556 L2.67732645,36 L2.00033569,36 Z M2.67732645,36 L22,36 L22,32 L23,32 L23,37 L2.00033569,37 L0,32 L1.0770579,32 L2.67732645,36 Z M22,36 L23,36 L22,37 L22,36 Z" id="bg" fill="#FFFFFF" fill-rule="nonzero" transform="translate(11.500000, 34.500000) scale(-1, 1) translate(-11.500000, -34.500000) "></path>
                                <polygon id="bg" fill="#D457FF" transform="translate(11.516404, 16.000000) scale(1, -1) translate(-11.516404, -16.000000) " points="0 0 23.0328074 0 21.0048019 4.99852916 8.00293542 14.9939913 3.99729919 29.9922943 0 32"></polygon>
                                <path d="M1,1 L1,30.3786854 L3.14706536,29.3002885 L7.12437417,14.4080518 L20.1801843,4.37111928 L21.5479164,1 L1,1 Z M0,0 L23.0328074,0 L21.0048019,4.99852916 L8.00293542,14.9939913 L3.99729919,29.9922943 L0,32 L0,0 Z" id="stroke" fill="#FFFFFF" fill-rule="nonzero" transform="translate(11.516404, 16.000000) scale(1, -1) translate(-11.516404, -16.000000) "></path>
                                <rect id="darker" fill="#F9BE4F" x="1" y="32" width="3" height="4"></rect>
                                <polygon id="darker" fill="#C334F4" transform="translate(2.500854, 16.310696) scale(1, -1) translate(-2.500854, -16.310696) " points="1.00541687 1.62311352 4.00170898 1.62311352 4.00170898 26.7064651 3.14920044 29.9202808 1 30.9982782"></polygon>
                                <rect id="line" fill="#FFFFFF" x="6" y="34" width="14" height="1"></rect>
                            </g>
                            <g id="bottom_wing_left" transform="translate(0.000000, 64.000000)">
                                <polygon id="bg" fill="#FCD58A" points="1 32 24 32 24 37 3.00033569 37"></polygon>
                                <path d="M23,36 L24,36 L23,37 L23,36 Z M23,36 L23,32 L24,32 L24,37 L3.00033569,37 L1,32 L2.0770579,32 L3.67732645,36 L23,36 Z M3.92879089,36.6285556 L3.00033569,36 L3.67732645,36 L3.92879089,36.6285556 Z M3.00033569,36 L3.92879089,36.6285556 L3.67732645,36 L3.00033569,36 Z M3.67732645,36 L23,36 L23,32 L24,32 L24,37 L3.00033569,37 L1,32 L2.0770579,32 L3.67732645,36 Z M23,36 L24,36 L23,37 L23,36 Z" id="bg" fill="#FFFFFF" fill-rule="nonzero"></path>
                                <polygon id="bg" fill="#D457FF" transform="translate(12.483596, 16.000000) scale(-1, -1) translate(-12.483596, -16.000000) " points="0.967192583 0 24 0 21.9719944 4.99852916 8.97012801 14.9939913 4.96449178 29.9922943 0.967192583 32"></polygon>
                                <path d="M22.515109,1 L1.96719258,1 L1.96719258,30.3786854 L4.11425794,29.3002885 L8.09156675,14.4080518 L21.1473769,4.37111928 L22.515109,1 Z M0.967192583,0 L24,0 L21.9719944,4.99852916 L8.97012801,14.9939913 L4.96449178,29.9922943 L0.967192583,32 L0.967192583,0 Z" id="stroke" fill="#FFFFFF" fill-rule="nonzero" transform="translate(12.483596, 16.000000) scale(-1, -1) translate(-12.483596, -16.000000) "></path>
                                <polygon id="darker" fill="#C334F4" transform="translate(21.500854, 16.310696) scale(-1, -1) translate(-21.500854, -16.310696) " points="20.0054169 1.62311352 23.001709 1.62311352 23.001709 26.7064651 22.1492004 29.9202808 20 30.9982782"></polygon>
                                <rect id="darker" fill="#F9BE4F" x="20" y="32" width="3" height="4"></rect>
                                <rect id="line" fill="#FFFFFF" x="4" y="34" width="14" height="1"></rect>
                            </g>
                            <g id="bottom" transform="translate(14.000000, 101.000000)">
                                <rect id="bg_2" fill="#05B1E5" transform="translate(33.000000, 11.000000) scale(1, -1) translate(-33.000000, -11.000000) " x="28" y="9" width="10" height="4"></rect>
                                <rect id="bg_1" fill="#44D4FF" x="28" y="0" width="10" height="9"></rect>
                                <rect id="darker" fill="#0B9CC8" transform="translate(33.000000, 1.000000) scale(1, -1) translate(-33.000000, -1.000000) " x="29" y="0" width="8" height="2"></rect>
                                <path d="M29,1 L28,1 L29,0 L29,1 Z M29,1 L37,1 L37,13 L38,13 L38,0 L28,0 L28,13 L29,13 L29,1 Z M37,1 L37,0 L38,1 L37,1 Z M37,1 L37,13 L38,13 L38,0 L28,0 L28,13 L29,13 L29,1 L37,1 Z" id="stroke" fill="#FFFFFF" fill-rule="nonzero" transform="translate(33.000000, 6.500000) scale(1, -1) translate(-33.000000, -6.500000) "></path>
                                <rect id="bg_2" fill="#05B1E5" transform="translate(5.000000, 11.000000) scale(1, -1) translate(-5.000000, -11.000000) " x="0" y="9" width="10" height="4"></rect>
                                <rect id="bg_1" fill="#44D4FF" x="0" y="0" width="10" height="9"></rect>
                                <rect id="darker" fill="#0B9CC8" transform="translate(5.000000, 1.000000) scale(1, -1) translate(-5.000000, -1.000000) " x="1" y="0" width="8" height="2"></rect>
                                <path d="M1,1 L0,1 L1,0 L1,1 Z M1,1 L9,1 L9,13 L10,13 L10,0 L0,0 L0,13 L1,13 L1,1 Z M9,1 L9,0 L10,1 L9,1 Z M9,1 L9,13 L10,13 L10,0 L0,0 L0,13 L1,13 L1,1 L9,1 Z" id="stroke" fill="#FFFFFF" fill-rule="nonzero" transform="translate(5.000000, 6.500000) scale(1, -1) translate(-5.000000, -6.500000) "></path>
                            </g>
                            <g id="bottom_center" transform="translate(23.000000, 71.000000)">
                                <rect id="bg" fill="#44D4FF" transform="translate(10.000000, 11.000000) scale(1, -1) translate(-10.000000, -11.000000) " x="1" y="1" width="18" height="20"></rect>
                                <rect id="bg" fill="#05B1E5" x="1" y="21" width="18" height="14"></rect>
                                <rect id="line" fill="#FFFFFF" x="9" y="16" width="2" height="24"></rect>
                                <rect id="line" fill="#FFFFFF" x="3" y="3" width="14" height="1"></rect>
                                <path d="M1,34 L19,34 L19,1 L1,1 L1,34 Z M0,35 L0,0 L20,0 L20,35 L0,35 Z" id="stroke" fill="#FFFFFF" fill-rule="nonzero" transform="translate(10.000000, 17.500000) scale(1, -1) translate(-10.000000, -17.500000) "></path>
                            </g>
                            <g id="lines" transform="translate(2.000000, 0.000000)">
                                <polygon id="bg" fill="#E599FF" fill-rule="nonzero" transform="translate(53.418776, 76.933673) scale(1, -1) translate(-53.418776, -76.933673) " points="47.2812477 87.1225744 46.3151104 86.8645456 49.5636548 74.7010216 59.9129602 66.7447723 60.5224421 67.5375723 50.4422161 75.2869611"></polygon>
                                <rect id="line" fill="#FCD58A" x="52" y="103" width="10" height="1"></rect>
                                <rect id="line" fill="#FCD58A" x="2.27373675e-13" y="103" width="10" height="1"></rect>
                                <rect id="line" fill="#44D4FF" x="14" y="116" width="6" height="1"></rect>
                                <rect id="line" fill="#44D4FF" x="42" y="116" width="6" height="1"></rect>
                                <path d="M60.2730492,46.6230434 L59.6160751,47.3769566 C53.6055395,42.1392628 50.2760955,35.3598944 49.6375761,27.0665272 L50.6346253,26.9897628 C51.2532447,35.0246595 54.462775,41.5598612 60.2730492,46.6230434 Z" id="line" fill="#E3A7FA" fill-rule="nonzero" transform="translate(54.955313, 37.183360) scale(-1, -1) translate(-54.955313, -37.183360) "></path>
                                <path d="M43.3662841,0.452470814 L44.3612534,0.55265062 C43.4070521,10.0296214 40.0346437,16.828505 34.2321803,20.9089936 L33.656944,20.0910064 C39.1987039,16.1938533 42.4391,9.66111067 43.3662841,0.452470814 Z" id="line" fill="#FFC7FF" fill-rule="nonzero" transform="translate(39.009099, 10.680732) scale(1, -1) translate(-39.009099, -10.680732) "></path>
                            </g>
                            <g id="right" transform="translate(52.000000, 44.500000) scale(-1, 1) translate(-52.000000, -44.500000) translate(45.000000, 29.000000)">
                                <rect id="bg_2" fill="#44D4FF" x="0" y="24" width="14" height="7"></rect>
                                <rect id="bg_1" fill="#05B1E5" x="10" y="24" width="3" height="6"></rect>
                                <path d="M13,30 L14,30 L13,31 L13,30 Z M13,30 L13,24 L14,24 L14,31 L0,31 L0,24 L1,24 L1,30 L13,30 Z M1,30 L1,31 L0,30 L1,30 Z M1,30 L1,31 L0,30 L1,30 Z M1,30 L13,30 L13,24 L14,24 L14,31 L0,31 L0,24 L1,24 L1,30 Z M13,30 L14,30 L13,31 L13,30 Z" id="border" fill="#FFFFFF" fill-rule="nonzero"></path>
                                <path d="M0,-1.38022926e-12 C4.81050642,-9.77290387e-14 8.67022945,-1.42716175e-12 14,-1.38022926e-12 C14,6.11274436 14,12.9626768 14,20.5497974 L9.91003159,24 C3.30334386,19.9381962 0,11.9381962 0,-1.38022926e-12 Z" id="bg_2" fill="#D974FF" transform="translate(7.000000, 12.000000) scale(1, -1) translate(-7.000000, -12.000000) "></path>
                                <path d="M9.83040301,22.7588831 L13,20.0850845 L13,1 L1.00797082,1 C1.18012636,11.6929593 4.14037279,18.9099305 9.83040301,22.7588831 Z M0,-1.38022926e-12 L14,-1.38022926e-12 L14,20.5497974 L9.91003159,24 C3.30334386,19.9381962 0,11.9381962 0,-1.38022926e-12 Z" id="stroke" fill="#FFFFFF" fill-rule="nonzero" transform="translate(7.000000, 12.000000) scale(1, -1) translate(-7.000000, -12.000000) "></path>
                                <path d="M10.0054663,1.38594055 C11.2671885,1.39060741 12.2816269,1.39294084 13.0487817,1.39294084 C13.0487817,7.5056852 13.0333553,13.8567981 13.0025024,20.4462796 L10.0007172,22.9820005 L10.0054663,1.38594055 Z" id="bg_1" fill="#C441F5" transform="translate(11.524749, 12.183971) scale(1, -1) translate(-11.524749, -12.183971) "></path>
                                <path d="M9.83040301,22.7588831 L13,20.0850845 L13,1 L1.00797082,1 C1.18012636,11.6929593 4.14037279,18.9099305 9.83040301,22.7588831 Z M0,-1.38022926e-12 L14,-1.38022926e-12 L14,20.5497974 L9.91003159,24 C3.30334386,19.9381962 0,11.9381962 0,-1.38022926e-12 Z" id="stroke" fill="#FFFFFF" fill-rule="nonzero" transform="translate(7.000000, 12.000000) scale(1, -1) translate(-7.000000, -12.000000) "></path>
                                <rect id="line" fill="#C6F1FE" x="2" y="26" width="6" height="1"></rect>
                            </g>
                            <g id="left" transform="translate(7.000000, 29.000000)">
                                <rect id="bg_2" fill="#44D4FF" x="0" y="24" width="14" height="7"></rect>
                                <rect id="bg_1" fill="#05B1E5" x="10" y="24" width="3" height="6"></rect>
                                <path d="M13,30 L14,30 L13,31 L13,30 Z M13,30 L13,24 L14,24 L14,31 L0,31 L0,24 L1,24 L1,30 L13,30 Z M1,30 L1,31 L0,30 L1,30 Z M1,30 L1,31 L0,30 L1,30 Z M1,30 L13,30 L13,24 L14,24 L14,31 L0,31 L0,24 L1,24 L1,30 Z M13,30 L14,30 L13,31 L13,30 Z" id="border" fill="#FFFFFF" fill-rule="nonzero"></path>
                                <path d="M0,-1.38022926e-12 C4.81050642,-9.77290387e-14 8.67022945,-1.42716175e-12 14,-1.38022926e-12 C14,6.11274436 14,12.9626768 14,20.5497974 L9.91003159,24 C3.30334386,19.9381962 0,11.9381962 0,-1.38022926e-12 Z" id="bg_2" fill="#D974FF" transform="translate(7.000000, 12.000000) scale(1, -1) translate(-7.000000, -12.000000) "></path>
                                <path d="M9.83040301,22.7588831 L13,20.0850845 L13,1 L1.00797082,1 C1.18012636,11.6929593 4.14037279,18.9099305 9.83040301,22.7588831 Z M0,-1.38022926e-12 L14,-1.38022926e-12 L14,20.5497974 L9.91003159,24 C3.30334386,19.9381962 0,11.9381962 0,-1.38022926e-12 Z" id="stroke" fill="#FFFFFF" fill-rule="nonzero" transform="translate(7.000000, 12.000000) scale(1, -1) translate(-7.000000, -12.000000) "></path>
                                <path d="M10.0054663,1.38594055 C11.2671885,1.39060741 12.2816269,1.39294084 13.0487817,1.39294084 C13.0487817,7.5056852 13.0333553,13.8567981 13.0025024,20.4462796 L10.0007172,22.9820005 L10.0054663,1.38594055 Z" id="bg_1" fill="#C441F5" transform="translate(11.524749, 12.183971) scale(1, -1) translate(-11.524749, -12.183971) "></path>
                                <path d="M9.83040301,22.7588831 L13,20.0850845 L13,1 L1.00797082,1 C1.18012636,11.6929593 4.14037279,18.9099305 9.83040301,22.7588831 Z M0,-1.38022926e-12 L14,-1.38022926e-12 L14,20.5497974 L9.91003159,24 C3.30334386,19.9381962 0,11.9381962 0,-1.38022926e-12 Z" id="stroke" fill="#FFFFFF" fill-rule="nonzero" transform="translate(7.000000, 12.000000) scale(1, -1) translate(-7.000000, -12.000000) "></path>
                                <rect id="line" fill="#C6F1FE" x="2" y="26" width="6" height="1"></rect>
                            </g>
                            <g id="top" transform="translate(23.000000, 2.000000)">
                                <path d="M0,-1.01785247e-12 C4.82726817,-9.75714567e-14 14.6516584,-1.02629573e-12 20,-1.01785247e-12 C20,11.9185945 16.6481874,19.9185945 9.94456214,24 C3.31485405,19.9381962 0,11.9381962 0,-1.01785247e-12 Z" id="bg" fill="#FD97FD" transform="translate(10.000000, 12.000000) scale(1, -1) translate(-10.000000, -12.000000) "></path>
                                <path d="M9.94641736,22.8149284 C15.7823912,18.9627804 18.8160151,11.7285834 18.9918842,1 L1.00799882,1 C1.18160511,11.7452912 4.18057382,18.9801421 9.94641736,22.8149284 Z M0,-1.01785247e-12 L20,-1.01785247e-12 C20,11.9185945 16.6481874,19.9185945 9.94456214,24 C3.31485405,19.9381962 0,11.9381962 0,-1.01785247e-12 Z" id="stroke" fill="#FFFFFF" fill-rule="nonzero" transform="translate(10.000000, 12.000000) scale(1, -1) translate(-10.000000, -12.000000) "></path>
                                <rect id="line" fill="#FFEEFF" x="2" y="21" width="16" height="1"></rect>
                            </g>
                        </g>
                    </g>
                    <g id="lines" transform="translate(129.000000, 17.000000)" fill="#6A9FF8">
                        <rect id="line" x="0" y="3" width="18" height="1"></rect>
                        <rect id="line" transform="translate(3.500000, 12.500000) rotate(-270.000000) translate(-3.500000, -12.500000) " x="-9" y="12" width="25" height="1"></rect>
                        <rect id="line" x="0" y="21" width="18" height="1"></rect>
                        <polygon id="diagonal_line" fill-rule="nonzero" transform="translate(3.626324, 3.358429) scale(-1, 1) translate(-3.626324, -3.358429) " points="5.79539449 0.5 6.5 1.20959923 1.45725439 6.21685713 0.752648879 5.5072579"></polygon>
                        <polygon id="diagonal_line" fill-rule="nonzero" transform="translate(3.626324, 21.358429) scale(-1, 1) translate(-3.626324, -21.358429) " points="5.79539449 18.5 6.5 19.2095992 1.45725439 24.2168571 0.752648879 23.5072579"></polygon>
                    </g>
                    <g id="section" transform="translate(141.000000, 20.000000)" fill="#FFFFFF" fill-rule="nonzero">
                        <path d="M1,1 L1,18 L6,18 L6,1 L1,1 Z M0,0 L7,0 L7,19 L0,19 L0,0 Z" id="Rectangle-7"></path>
                        <path d="M3.13193998,0.868361209 L6.1459013,3.84285297 L6.84833232,3.13110114 L3.83437101,0.156609385 L3.13193998,0.868361209 Z M0.580560743,1.23735881 L6.14229371,6.83925616 L6.85193992,6.13469795 L1.29020695,0.532800605 L0.580560743,1.23735881 Z M0.0403094757,3.81215403 L6.14575188,9.84270544 L6.84848174,9.13124867 L0.743039334,3.10069726 L0.0403094757,3.81215403 Z M0.0403094757,6.81215403 L6.14575188,12.8427054 L6.84848174,12.1312487 L0.743039334,6.10069726 L0.0403094757,6.81215403 Z M0.0403094757,9.81215403 L6.14575188,15.8427054 L6.84848174,15.1312487 L0.743039334,9.10069726 L0.0403094757,9.81215403 Z M0.0393187404,12.8111727 L5.87712113,18.6096215 L6.58183246,17.9001274 L0.744030069,12.1016786 L0.0393187404,12.8111727 Z M0.743039334,15.1006973 L3.81431251,18.1342974 L3.11158265,18.8457541 L0.0403094757,15.812154 L0.743039334,15.1006973 Z" id="Combined-Shape"></path>
                    </g>
                </g>
            </g>
        </g>
    </g>
</svg>