<?xml version="1.0" encoding="UTF-8"?>
<svg width="360px" height="294px" viewBox="0 0 360 294" version="1.1" xmlns="http://www.w3.org/2000/svg" xmlns:xlink="http://www.w3.org/1999/xlink">
    <title>nx-and-xplat</title>
    <g id="illustrations" stroke="none" stroke-width="1" fill="none" fill-rule="evenodd">
        <g id="nx-and-xplat">
            <g id="nx-xplat" transform="translate(88.000000, 66.000000)">
                <g id="circle_bg" transform="translate(4.000000, 0.000000)">
                    <circle id="circle_2" fill="#0C3E91" cx="88" cy="88" r="83"></circle>
                    <rect id="rectangle" fill="#073581" transform="translate(103.016504, 87.016504) rotate(-315.000000) translate(-103.016504, -87.016504) " x="86.0342712" y="70.0342712" width="33.9644661" height="33.9644661"></rect>
                    <rect id="rectangle" fill="#1550B1" transform="translate(67.343146, 33.343146) rotate(-315.000000) translate(-67.343146, -33.343146) " x="53.6654762" y="19.6654762" width="27.3553391" height="27.3553391"></rect>
                    <rect id="rectangle" fill="#1148A3" transform="translate(38.748737, 119.748737) rotate(-315.000000) translate(-38.748737, -119.748737) " x="21.2487373" y="102.248737" width="35" height="35"></rect>
                    <path d="M88,175.5 C39.6750844,175.5 0.5,136.324916 0.5,88 C0.5,39.6750844 39.6750844,0.5 88,0.5 C136.324916,0.5 175.5,39.6750844 175.5,88 C175.5,136.324916 136.324916,175.5 88,175.5 Z M88,174.5 C135.772631,174.5 174.5,135.772631 174.5,88 C174.5,40.2273691 135.772631,1.5 88,1.5 C40.2273691,1.5 1.5,40.2273691 1.5,88 C1.5,135.772631 40.2273691,174.5 88,174.5 Z" id="circle_1" fill="#0B49AF" fill-rule="nonzero"></path>
                    <polygon id="rectangle" fill="#073581" transform="translate(130.167041, 128.167041) rotate(-315.000000) translate(-130.167041, -128.167041) " points="110.957042 108.957042 149.37704 108.957042 149.37704 147.37704 110.957042 147.37704"></polygon>
                    <rect id="rectangle" fill="#1550B1" transform="translate(159.708513, 95.708513) rotate(-270.000000) translate(-159.708513, -95.708513) " x="152.136451" y="88.1364509" width="15.1441246" height="15.1441246"></rect>
                </g>
                <g id="phone" transform="translate(22.000000, 50.000000)">
                    <rect id="bg" fill="#35C9F5" x="3" y="3" width="41" height="74" rx="3"></rect>
                    <path d="M23.5,74.5 C24.8807119,74.5 26,73.3807119 26,72 C26,70.6192881 24.8807119,69.5 23.5,69.5 C22.1192881,69.5 21,70.6192881 21,72 C21,73.3807119 22.1192881,74.5 23.5,74.5 Z M23.5,75.5 C21.5670034,75.5 20,73.9329966 20,72 C20,70.0670034 21.5670034,68.5 23.5,68.5 C25.4329966,68.5 27,70.0670034 27,72 C27,73.9329966 25.4329966,75.5 23.5,75.5 Z" id="oval" fill="#FFFFFF" fill-rule="nonzero"></path>
                    <polygon id="line-2" fill="#82E2FF" fill-rule="nonzero" points="4.99826356 67.4997255 4.99840711 66.4997255 42.0017361 66.5050373 42.0015925 67.5050373"></polygon>
                    <g id="button" transform="translate(16.000000, 58.000000)">
                        <rect id="bg" fill="#FFFFFF" x="0" y="0" width="15" height="5"></rect>
                        <rect id="line" fill="#FB6A89" x="2" y="2" width="11" height="1"></rect>
                    </g>
                    <polygon id="text_line" fill="#09AEDF" points="9 54 38 54 38 55 9 55"></polygon>
                    <polygon id="text_line" fill="#07A4D3" points="7 51 40 51 40 52 7 52"></polygon>
                    <rect id="text_line" fill="#0196C3" x="5" y="48" width="37" height="1"></rect>
                    <rect id="title" fill="#256DE3" x="11" y="41" width="25" height="4"></rect>
                    <polygon id="line" fill="#82E2FF" fill-rule="nonzero" points="4.99826356 9.49972552 4.99840711 8.49972553 42.0017361 8.50503733 42.0015925 9.50503732"></polygon>
                    <polygon id="line" fill="#FFFFFF" fill-rule="nonzero" points="20 6.5 20 5.5 27 5.5 27 6.5"></polygon>
                    <path d="M0.665494015,65.8793708 L0.665494015,72.4600644 C0.665494015,76.4871187 3.4960363,79.7516913 6.98768716,79.7516913 L12.6538462,79.7516913 L12.6538462,80.519231 L6.98768716,80.519231 C3.12849411,80.519231 0,76.9110192 0,72.4600644 L0,65.8793708 L0.665494015,65.8793708 Z M40.0123128,0 C43.8715059,0 47,3.6082118 47,8.05916662 L47,14.6398602 L46.334506,14.6398602 L46.334506,8.05916662 C46.334506,4.03211226 43.5039637,0.767539678 40.0123128,0.767539678 L34.3461538,0.767539678 L34.3461538,0 L40.0123128,0 Z" id="lines" fill="#FFD57E" fill-rule="nonzero"></path>
                    <g id="angular_logo-copy" transform="translate(11.000000, 12.000000)" fill-rule="nonzero">
                        <polygon id="Path" fill="#E23237" points="0 4.30939492 12.3339242 0 25 4.23277277 22.9491498 20.2349766 12.3339242 26 1.88477436 20.3115987"></polygon>
                        <polygon id="Path" fill="#B52E31" points="25 4.23277277 12 0 12 26 22.8950819 20.2445904"></polygon>
                        <path d="M18.3437495,10.731745 L18.3437495,7.72968792 C18.334751,7.30476104 18.1889466,6.95100694 17.9064066,6.66835531 C17.6237962,6.38542236 17.2699006,6.23984165 16.8452118,6.23090989 L15.3469553,6.23090989 L15.3469553,13.7297934 L9.34535241,6.23076923 L7.84681468,6.23076923 C7.42205557,6.23977132 7.06844116,6.38535203 6.78590114,6.66828498 C6.50307991,6.95100694 6.35755668,7.30476104 6.34862844,7.72954727 L6.34862844,10.731745 C6.33688816,11.1566719 6.18988861,11.5098634 5.90706739,11.7913194 C5.62445706,12.0724238 5.27084265,12.2189188 4.84615385,12.2305934 C5.27084265,12.2425493 5.62452736,12.3890443 5.90699708,12.6701487 C6.18988861,12.9516047 6.33688816,13.3047962 6.34855814,13.7297231 L6.34855814,16.7317802 C6.35755668,17.1563555 6.50307991,17.5104612 6.78590114,17.7931128 C7.06851146,18.0758348 7.42212588,18.2216265 7.84674438,18.2305582 L9.34535241,18.2305582 L9.34535241,10.7318154 L15.3469553,18.2307692 L16.8452118,18.2307692 C17.2699006,18.2217671 17.6238665,18.0759051 17.9064066,17.7932535 C18.1890169,17.5105315 18.334751,17.1564961 18.3436792,16.7319912 L18.3436792,13.7297934 C18.3554195,13.3048665 18.5024191,12.9516751 18.7852403,12.670219 C19.0678506,12.3891146 19.421465,12.2426196 19.8461538,12.2306637 C19.421465,12.2189188 19.0677803,12.0724942 18.7853106,11.7913898 C18.5024191,11.5098634 18.3554195,11.1566719 18.3437495,10.731745 Z" id="logo-copy" fill="#FFFFFF"></path>
                    </g>
                </g>
                <g id="bg_elements" transform="translate(0.000000, 4.000000)">
                    <g id="circle" transform="translate(3.000000, 98.000000)">
                        <circle id="Oval" fill="#FFDF9D" cx="5.5" cy="5.5" r="2.5"></circle>
                        <path d="M5.5,11.5 C2.1862915,11.5 -0.5,8.8137085 -0.5,5.5 C-0.5,2.1862915 2.1862915,-0.5 5.5,-0.5 C8.8137085,-0.5 11.5,2.1862915 11.5,5.5 C11.5,8.8137085 8.8137085,11.5 5.5,11.5 Z M5.5,10.5 C8.26142375,10.5 10.5,8.26142375 10.5,5.5 C10.5,2.73857625 8.26142375,0.5 5.5,0.5 C2.73857625,0.5 0.5,2.73857625 0.5,5.5 C0.5,8.26142375 2.73857625,10.5 5.5,10.5 Z" id="stroke" fill="#2165D4" fill-rule="nonzero"></path>
                    </g>
                    <g id="circle" transform="translate(137.000000, 126.000000)">
                        <circle id="Oval" fill="#7BADFF" cx="12" cy="12" r="4"></circle>
                        <path d="M11.5,23 C5.14872538,23 0,17.8512746 0,11.5 C0,5.14872538 5.14872538,0 11.5,0 C17.8512746,0 23,5.14872538 23,11.5 C23,17.8512746 17.8512746,23 11.5,23 Z M11.5,20.9090909 C16.6964974,20.9090909 20.9090909,16.6964974 20.9090909,11.5 C20.9090909,6.30350258 16.6964974,2.09090909 11.5,2.09090909 C6.30350258,2.09090909 2.09090909,6.30350258 2.09090909,11.5 C2.09090909,16.6964974 6.30350258,20.9090909 11.5,20.9090909 Z" id="stroke" fill="#2165D4" fill-rule="nonzero"></path>
                    </g>
                    <g id="circle" transform="translate(140.000000, 0.000000)">
                        <circle id="Oval" fill="#FF97AD" cx="21.65625" cy="20.34375" r="8.53125"></circle>
                        <path d="M21,42 C9.40202025,42 0,32.5979797 0,21 C0,9.40202025 9.40202025,0 21,0 C32.5979797,0 42,9.40202025 42,21 C42,32.5979797 32.5979797,42 21,42 Z M21,38.5 C30.6649831,38.5 38.5,30.6649831 38.5,21 C38.5,11.3350169 30.6649831,3.5 21,3.5 C11.3350169,3.5 3.5,11.3350169 3.5,21 C3.5,30.6649831 11.3350169,38.5 21,38.5 Z" id="stroke" fill="#2165D4" fill-rule="nonzero"></path>
                    </g>
                    <g id="circle" transform="translate(116.000000, 11.000000)">
                        <circle id="Oval" fill="#35C9F5" cx="7" cy="7" r="4"></circle>
                        <path d="M7,14.5 C2.85786438,14.5 -0.5,11.1421356 -0.5,7 C-0.5,2.85786438 2.85786438,-0.5 7,-0.5 C11.1421356,-0.5 14.5,2.85786438 14.5,7 C14.5,11.1421356 11.1421356,14.5 7,14.5 Z M7,13.5 C10.5898509,13.5 13.5,10.5898509 13.5,7 C13.5,3.41014913 10.5898509,0.5 7,0.5 C3.41014913,0.5 0.5,3.41014913 0.5,7 C0.5,10.5898509 3.41014913,13.5 7,13.5 Z" id="stroke" fill="#2165D4" fill-rule="nonzero"></path>
                    </g>
                    <g id="rectangle" transform="translate(22.727922, 35.727922) rotate(-315.000000) translate(-22.727922, -35.727922) translate(13.727922, 26.727922)">
                        <path d="M0.5,0.5 L0.5,17.5 L17.5,17.5 L17.5,0.5 L0.5,0.5 Z M18.5,-0.5 L18.5,18.5 L-0.5,18.5 L-0.5,-0.5 L18.5,-0.5 Z" fill="#2165D4" fill-rule="nonzero"></path>
                        <rect fill="#1A68EB" x="3" y="3" width="12" height="12"></rect>
                    </g>
                    <g id="rectangle" transform="translate(23.399495, 146.813708) rotate(-315.000000) translate(-23.399495, -146.813708) translate(6.899495, 130.313708)">
                        <path d="M3.53571429,3.53571429 L3.53571429,29.4642857 L29.4642857,29.4642857 L29.4642857,3.53571429 L3.53571429,3.53571429 Z M31.8214286,1.17857143 L31.8214286,31.8214286 L1.17857143,31.8214286 L1.17857143,1.17857143 L31.8214286,1.17857143 Z" fill="#2165D4" fill-rule="nonzero"></path>
                        <rect fill="#FFDF9D" x="9.42857143" y="9.42857143" width="14.1428571" height="14.1428571"></rect>
                    </g>
                    <g id="rectangle" transform="translate(173.192388, 94.485281) rotate(-315.000000) translate(-173.192388, -94.485281) translate(167.192388, 88.485281)">
                        <path d="M0.5,0.5 L0.5,11.5 L11.5,11.5 L11.5,0.5 L0.5,0.5 Z M12.5,-0.5 L12.5,12.5 L-0.5,12.5 L-0.5,-0.5 L12.5,-0.5 Z" fill="#2165D4" fill-rule="nonzero"></path>
                        <rect fill="#82E2FF" x="3" y="3" width="6" height="6"></rect>
                    </g>
                    <g id="rectangle" transform="translate(52.192388, 26.485281) rotate(-315.000000) translate(-52.192388, -26.485281) translate(46.192388, 20.485281)">
                        <path d="M0.5,0.5 L0.5,11.5 L11.5,11.5 L11.5,0.5 L0.5,0.5 Z M12.5,-0.5 L12.5,12.5 L-0.5,12.5 L-0.5,-0.5 L12.5,-0.5 Z" fill="#2165D4" fill-rule="nonzero"></path>
                        <rect fill="#FF97AD" x="3" y="3" width="6" height="6"></rect>
                    </g>
                </g>
                <g id="web" transform="translate(71.000000, 48.000000)">
                    <g id="frame" transform="translate(0.000000, 5.000000)" fill="#98BEFF" fill-rule="nonzero">
                        <path d="M1.23913043,60.4333333 L1.23913043,68.6555556 C1.23913043,71.1531099 3.27331494,73.1777778 5.7826087,73.1777778 L5.7826087,73.1777778 L14.0434783,73.1777778 L14.0434783,74 L5.7826087,74 C2.81707971,74 0.413043478,71.6072107 0.413043478,68.6555556 L0.413043478,68.6555556 L0.413043478,60.4333333 L1.23913043,60.4333333 Z M89.6304348,0.411111111 C92.5959638,0.411111111 95,2.80390039 95,5.75555556 L95,5.75555556 L95,13.9777778 L94.173913,13.9777778 L94.173913,5.75555556 C94.173913,3.25800119 92.1397285,1.23333333 89.6304348,1.23333333 L89.6304348,1.23333333 L81.3695652,1.23333333 L81.3695652,0.411111111 Z" id="Combined-Shape"></path>
                    </g>
                    <g id="lines" transform="translate(7.000000, 78.000000)">
                        <rect id="Rectangle-6" fill="#3983FF" x="4.92537313" y="2.57142857" width="33.6567164" height="1"></rect>
                        <rect id="Rectangle-6" fill="#72A7FF" x="10.6716418" y="0" width="44.3283582" height="1"></rect>
                        <polygon id="Rectangle-6" fill="#1A68EB" points="0 5.14285714 23.8059701 5.14285714 23.8059701 6 0 6"></polygon>
                    </g>
                    <g id="lines" transform="translate(61.500000, 3.500000) scale(-1, -1) translate(-61.500000, -3.500000) translate(34.000000, 0.000000)">
                        <rect id="Rectangle-6" fill="#3983FF" x="4.92537313" y="3.0625" width="33.6567164" height="1"></rect>
                        <rect id="Rectangle-6" fill="#72A7FF" x="10.6716418" y="0.4375" width="44.3283582" height="1"></rect>
                        <polygon id="Rectangle-6" fill="#1A68EB" points="0 5.6875 23.8059701 5.6875 23.8059701 6.5625 0 6.5625"></polygon>
                    </g>
                    <path d="M4,16 L92,16 L92,73 C92,74.6568542 90.6568542,76 89,76 L7,76 C5.34314575,76 4,74.6568542 4,73 L4,16 L4,16 Z" id="bg_2" fill="#35C9F5"></path>
                    <path d="M88.1782178,66.2330202 L89,66.2330202 L89,71.5246038 C89,72.8917274 87.8962268,74 86.5346535,74 L75.8303714,74 L75.8303714,73.1748679 L86.5346535,73.1748679 C87.442369,73.1748679 88.1782178,72.4360195 88.1782178,71.5246038 L88.1782178,66.2330202 Z M6.82178218,18.8251321 L6.82178218,71.5246038 C6.82178218,72.4360195 7.55763101,73.1748679 8.46534653,73.1748679 L65.7906152,73.1748679 L65.7906152,74 L8.46534653,74 C7.10377324,74 6,72.8917274 6,71.5246038 L6,18 L89,18 L89,31.5438049 L88.1782178,31.5438049 L88.1782178,18.8251321 L6.82178218,18.8251321 Z" id="stroke" fill="#FFFFFF" fill-rule="nonzero"></path>
                    <g id="button" transform="translate(12.000000, 51.000000)">
                        <rect id="bg" fill="#FFFFFF" x="0" y="0" width="12" height="4"></rect>
                        <rect id="line" fill="#FB6A89" x="1.6" y="1.6" width="8.8" height="1"></rect>
                    </g>
                    <polygon id="text_line" fill="#09AEDF" points="11 46 37 46 37 47 11 47"></polygon>
                    <polygon id="text_line" fill="#07A4D3" points="11 42 39 42 39 43 11 43"></polygon>
                    <rect id="text_line" fill="#0196C3" x="11" y="38" width="31" height="1"></rect>
                    <rect id="title" fill="#256DE3" x="11" y="31" width="21" height="3"></rect>
                    <g id="top" transform="translate(4.000000, 9.000000)">
                        <path d="M0,0 L88,0 L88,4 C88,5.65685425 86.6568542,7 85,7 L3,7 C1.34314575,7 2.02906125e-16,5.65685425 0,4 L0,0 L0,0 Z" id="bg_2" fill="#FFFFFF" transform="translate(44.000000, 3.500000) scale(1, -1) translate(-44.000000, -3.500000) "></path>
                        <ellipse id="circle" fill="#F65879" cx="3.32075472" cy="3.5" rx="1.66037736" ry="1.75"></ellipse>
                        <ellipse id="circle" fill="#FFDD97" cx="7.47169811" cy="3.5" rx="1.66037736" ry="1.75"></ellipse>
                        <ellipse id="circle" fill="#37DE93" cx="11.6226415" cy="3.5" rx="1.66037736" ry="1.75"></ellipse>
                    </g>
                    <g id="angular_logo" transform="translate(48.000000, 26.000000)" fill-rule="nonzero">
                        <polygon id="Path" fill="#E23237" points="0 6.96133026 19.7342787 0 40 6.83755602 36.7186397 32.6872698 19.7342787 42 3.01563897 32.8110441"></polygon>
                        <polygon id="Path" fill="#B52E31" points="40 6.83755602 20 0 20 42 36.7616644 32.7027998"></polygon>
                        <path d="M20.2052724,5 L8,31.9231293 L12.5594811,31.8462585 L15.0099395,25.7726979 L25.9590775,25.7726979 L28.6421418,31.9231293 L33,32 L20.2052724,5 Z M20.2364111,13.6258854 L24.3616633,22.1747457 L16.607198,22.1747457 L20.2364111,13.6258854 Z" id="Shape" fill="#FFFFFF"></path>
                    </g>
                </g>
                <g id="xplat-logo" transform="translate(50.000000, 131.000000)" fill-rule="nonzero">
                    <g id="Group" transform="translate(53.454545, 18.545455) scale(-1, 1) rotate(-180.000000) translate(-53.454545, -18.545455) translate(22.909091, 0.000000)" fill="#FFFFFF">
                        <polygon id="Path" points="21.1375085 22.6449958 21.1375085 8.53289697 23.5112544 8.53289697 25.8850002 8.53289697 25.8850002 22.6449958 25.8850002 36.7570947 23.5112544 36.7570947 21.1375085 36.7570947"></polygon>
                        <polygon id="Path" points="51.9496604 28.6461541 51.9496604 26.2550676 50.2275311 26.2550676 48.5054017 26.2550676 48.5054017 24.2859375 48.5054017 22.3168075 50.2275311 22.3168075 51.9496604 22.3168075 51.9496604 15.4248522 51.9496604 8.53289697 54.3699503 8.53289697 56.7902402 8.53289697 56.7902402 15.4248522 56.7902402 22.3168075 58.8847218 22.3168075 60.9792034 22.3168075 60.9792034 24.2859375 60.9792034 26.2550676 58.8847218 26.2550676 56.7902402 26.2550676 56.7902402 28.6461541 56.7902402 31.0372406 54.3699503 31.0372406 51.9496604 31.0372406"></polygon>
                        <path d="M8.80333898,26.6770241 C7.98416395,26.5269951 7.26738579,26.2550676 6.55991644,25.8237344 C5.92691755,25.4392852 5.61041811,25.1673577 5.12636013,24.5484882 C4.93087518,24.3046912 4.75400784,24.1359086 4.71677261,24.164039 C4.68884619,24.2015463 4.66091977,24.6797636 4.66091977,25.2423721 L4.66091977,26.2550676 L2.33371797,26.2550676 L0.00651616505,26.2550676 L0.00651616505,13.1275338 L0.00651616505,0 L2.42680604,0 L4.84709592,0 L4.84709592,5.26976714 L4.84709592,10.5489111 L5.26599224,10.061317 C7.05328322,7.99841881 10.683718,7.38892617 13.532213,8.66417231 C15.319504,9.46120115 16.9950893,11.1771574 17.8235732,13.0712729 C19.0709533,15.9124463 19.0057917,19.5881558 17.6467058,22.3636915 C16.4831049,24.7360244 14.4910202,26.2738212 11.9776422,26.7145313 C11.2422465,26.8551834 9.61320521,26.827053 8.80333898,26.6770241 Z M10.2648217,22.4011988 C11.9217894,22.0542568 13.2715664,20.6852426 13.7370068,18.8848951 C13.9138741,18.1910111 13.9138741,16.7282288 13.7370068,15.9499536 C13.1505519,13.4369685 10.8047325,11.8991717 8.34720743,12.4055194 C6.62507809,12.7618382 5.470786,13.7932873 4.86571353,15.5092435 C4.66091977,16.0812289 4.62368454,16.3344028 4.62368454,17.3470982 C4.61437574,18.3035329 4.65161096,18.641098 4.81916949,19.1755762 C5.56387407,21.5666627 7.83522303,22.9075465 10.2648217,22.4011988 Z" id="Shape"></path>
                        <path d="M35.2589691,26.7239081 C34.1326034,26.5176183 33.2017227,26.1237923 32.1498275,25.3830243 C30.4649334,24.2202999 29.1896268,22.3074307 28.6124807,20.0851267 C28.3239077,18.9692864 28.2215108,16.9814027 28.3890694,15.7249101 C28.9010538,11.8710413 31.0886234,9.14238962 34.4025588,8.24221587 C35.4637628,7.95153476 37.5210092,7.95153476 38.5915221,8.24221587 C39.9971519,8.62666507 41.2445321,9.38618667 41.8961486,10.2676068 L42.2219569,10.7083169 L42.2871185,10.2957372 C42.3150449,10.0800706 42.3522802,9.58309968 42.3522802,9.21740409 L42.361589,8.53289697 L44.6422467,8.53289697 L46.9229045,8.53289697 L46.9229045,17.3939823 L46.9229045,26.2550676 L44.6422467,26.2550676 L42.361589,26.2550676 L42.3522802,25.6268214 C42.3522802,25.2705026 42.3150449,24.7829085 42.2871185,24.5391114 L42.2219569,24.0890245 L41.8868398,24.5484882 C41.2538409,25.3924011 39.9319903,26.236314 38.6846101,26.583256 C38.0423024,26.7614153 35.9478208,26.8458066 35.2589691,26.7239081 Z M38.9638743,22.3636915 C41.4213995,21.7166916 42.8363381,19.1661994 42.3243538,16.3156492 C41.9426927,14.1964901 40.4439747,12.6680701 38.4425811,12.3680122 C36.0502177,12.0116934 33.9278096,13.465099 33.2855019,15.8936927 C33.090017,16.6250839 33.090017,18.2378952 33.2761931,18.9692864 C33.7323247,20.6664889 34.9424696,21.9323583 36.5249669,22.3636915 C37.1765834,22.5324741 38.2843314,22.5324741 38.9638743,22.3636915 Z" id="Shape"></path>
                    </g>
                    <g id="Group-Copy" transform="translate(10.909091, 16.363636) scale(-1, 1) rotate(-180.000000) translate(-10.909091, -16.363636) translate(0.000000, 4.363636)" fill="#F75930" stroke="#FFFFFF">
                        <path d="M5.00322814,23.2734785 C2.22158264,22.7586207 0.252028283,20.5466391 0.0186687617,17.6672493 C-0.130681332,15.8175751 0.700078564,13.8153504 2.13757322,12.5949468 C3.28570206,11.6129032 4.88188119,11.088511 6.37538213,11.1933895 C6.78609488,11.2219927 7.18747326,11.2696647 7.27148269,11.3078023 C7.37416088,11.3459399 7.61685478,11.1075799 8.13024573,10.4306372 C8.52228972,9.91577944 8.84899305,9.46766248 8.84899305,9.42952487 C8.84899305,9.40092166 7.44883592,7.39869696 5.74064423,4.99602733 C4.03245253,2.5933577 2.55762036,0.514857778 2.46427655,0.362307326 L2.29625769,0.104878436 L4.90988433,0.104878436 L7.52351097,0.104878436 L8.71831172,1.99269029 C9.37171838,3.02240585 10.2678189,4.42396313 10.6878661,5.10090577 L11.4719541,6.32130939 L13.4321741,3.33704116 C14.5149622,1.68758939 15.4484003,0.286032099 15.513741,0.219291276 C15.5977504,0.133481646 16.2418227,0.104878436 18.3047209,0.123947243 L20.9930226,0.152550453 L17.6793173,4.72906404 C15.8497787,7.24614651 14.3749465,9.35324964 14.4029497,9.41999047 C14.4216184,9.47719689 15.2710471,10.6976005 16.2791602,12.1372954 C17.2966077,13.5674559 18.6594273,15.5029398 19.3221684,16.4373113 L20.5169691,18.1249007 L17.8846737,18.1249007 L15.2430439,18.1153663 L13.5348522,15.4075957 C12.5920798,13.9106944 11.789323,12.6902908 11.7519855,12.6902908 C11.714648,12.6902908 11.5092916,12.9477197 11.3039352,13.262355 L10.9118912,13.8248848 L11.1919226,14.3302082 C11.8359949,15.531543 12.0693544,17.0379787 11.7986574,18.4013984 C11.3506071,20.6515176 9.86644057,22.3677102 7.78487364,23.0446528 C6.95411374,23.3116161 5.74064423,23.4164945 5.00322814,23.2734785 Z M6.89810745,19.1641506 C7.42083278,18.8971874 7.88755183,18.2774511 8.01823316,17.6958525 C8.34493649,16.21802 6.94477936,14.8164627 5.49795033,15.1692357 C4.57384662,15.3980613 3.87376806,16.3038297 3.87376806,17.2668044 C3.87376806,18.8590497 5.50728471,19.8887653 6.89810745,19.1641506 Z" id="Shape"></path>
                    </g>
                </g>
                <g id="nx-logo-white" transform="translate(65.000000, 12.000000)" fill-rule="nonzero">
                    <polygon id="Path" fill="#FFFFFF" points="26 20.5873162 19.3965412 10.375346 19.3865932 18.9555268 8.00612182 0 0 0 0 32 7.91659014 32 7.94245485 13.0680937 19.2055403 31.151627"></polygon>
                    <polygon id="Path" fill="#FFFFFF" points="19.002008 8 26.9819277 8 27 7.91194066 27 0 19.0100402 0 19 7.91194066"></polygon>
                    <path d="M39.2897103,17.0008377 C37.3875868,16.9636872 35.6690755,18.1651889 35,20 C36.113844,18.2838909 38.2346999,17.5943345 40.1028971,18.340889 C40.966034,18.7031762 42.1008991,19.2877762 43,18.9748917 C42.1449163,17.738562 40.7632158,17.0034304 39.2897103,17.0008377 L39.2897103,17.0008377 Z" id="Path" fill="#96D8E9"></path>
                    <path d="M47.9980258,20.7125867 C47.9980258,19.7472745 47.4748671,19.5232904 46.3890661,19.1268583 C45.5835991,18.8453915 44.669552,18.5282458 44.0042521,17.6560951 C43.873956,17.4836472 43.7535308,17.2893954 43.6252088,17.0832507 C43.3377321,16.5493379 42.9479189,16.0777857 42.478208,15.6957384 C41.8444951,15.2279485 41.0133637,15 39.9354594,15 C37.7725952,15.0015204 35.8240622,16.3123126 35,18.3201189 C36.0417697,16.8687462 37.7730798,16.0823593 39.5465742,16.2549972 C41.3200685,16.4276351 42.8686795,17.5333006 43.6133637,19.1585728 C43.9854213,19.7749776 44.7191706,20.0693397 45.4118451,19.8800793 C46.4719818,19.6521308 46.398937,20.6590684 48,21 L47.9980258,20.7125867 Z" id="Path" fill="#48C4E5"></path>
                    <path d="M52,20.7690417 L52,20.7474399 C51.9765797,14.4161565 46.8689924,9 40.5728226,9 C36.7274135,8.99731563 33.1391612,10.9431925 31.0270798,14.1765732 L30.9860942,14.1058765 L27.7540864,9 L20,9 L27.3676506,20.6099741 L20.1776043,32 L27.7091974,32 L30.9860942,26.9353661 L34.3215418,32 L41.8550866,32 L35.0241522,21.183403 C34.9107597,20.9726557 34.8491898,20.7376433 34.8445962,20.4980376 C34.8440783,18.9702791 35.4470085,17.504944 36.5206396,16.4246555 C37.5942708,15.344367 39.0505757,14.7376982 40.5689192,14.7382193 C43.7345694,14.7382193 44.2634789,16.643103 44.9465723,17.5385946 C46.2951939,19.3060125 48.9885338,18.5322762 48.9885338,20.8377746 L48.9885338,20.8377746 C48.9965525,21.3780045 49.2903951,21.8728931 49.7593741,22.1360207 C50.2283531,22.3991482 50.8012192,22.3905393 51.2621797,22.1134371 C51.7231399,21.8363346 52.0021636,21.3328371 51.9941449,20.7926072 L51.9941449,20.7926072 L51.9941449,20.7690417 L52,20.7690417 Z" id="Path" fill="#FFFFFF"></path>
                    <path d="M51.9669701,22 C52.0541668,22.46738 51.967885,22.9441443 51.7180132,23.3756493 C51.2289906,24.2433142 50.4132121,23.9535243 50.4132121,23.9535243 C50.4132121,23.9535243 49.7107979,23.6910089 50.1375812,23.1881383 C50.6110439,22.6273097 51.5468553,22.6920863 51.9669701,22 Z" id="Path" fill="#FFFFFF"></path>
                </g>
            </g>
        </g>
    </g>
</svg>