<?xml version="1.0" encoding="UTF-8" standalone="no"?>
<svg width="360px" height="294px" viewBox="0 0 360 294" version="1.1" xmlns="http://www.w3.org/2000/svg" xmlns:xlink="http://www.w3.org/1999/xlink">
    <!-- Generator: Sketch 50.2 (55047) - http://www.bohemiancoding.com/sketch -->
    <title>13_1_nativescript_with_angular_web_application_conversion</title>
    <desc>Created with Sketch.</desc>
    <defs></defs>
    <g id="illustrations" stroke="none" stroke-width="1" fill="none" fill-rule="evenodd">
        <g id="nativescript_with_angular_web_application_conversion">
            <g id="nativescript_with_angular_web_application_conversion_image" transform="translate(64.000000, 66.000000)">
                <g id="circle_bg" transform="translate(28.000000, 0.000000)">
                    <circle id="circle_2" fill="#0C3E91" cx="88" cy="88" r="83"></circle>
                    <rect id="rectangle" fill="#073581" transform="translate(103.016504, 87.016504) rotate(-315.000000) translate(-103.016504, -87.016504) " x="86.0342712" y="70.0342712" width="33.9644661" height="33.9644661"></rect>
                    <rect id="rectangle" fill="#1550B1" transform="translate(67.343146, 33.343146) rotate(-315.000000) translate(-67.343146, -33.343146) " x="53.6654762" y="19.6654762" width="27.3553391" height="27.3553391"></rect>
                    <rect id="rectangle" fill="#1148A3" transform="translate(38.748737, 119.748737) rotate(-315.000000) translate(-38.748737, -119.748737) " x="21.2487373" y="102.248737" width="35" height="35"></rect>
                    <path d="M88,175.5 C39.6750844,175.5 0.5,136.324916 0.5,88 C0.5,39.6750844 39.6750844,0.5 88,0.5 C136.324916,0.5 175.5,39.6750844 175.5,88 C175.5,136.324916 136.324916,175.5 88,175.5 Z M88,174.5 C135.772631,174.5 174.5,135.772631 174.5,88 C174.5,40.2273691 135.772631,1.5 88,1.5 C40.2273691,1.5 1.5,40.2273691 1.5,88 C1.5,135.772631 40.2273691,174.5 88,174.5 Z" id="circle_1" fill="#0B49AF" fill-rule="nonzero"></path>
                    <rect id="rectangle" fill="#073581" transform="translate(130.167041, 128.167041) rotate(-315.000000) translate(-130.167041, -128.167041) " x="110.957042" y="108.957042" width="38.4199982" height="38.4199982"></rect>
                    <rect id="rectangle" fill="#1550B1" transform="translate(159.708513, 95.708513) rotate(-270.000000) translate(-159.708513, -95.708513) " x="152.136451" y="88.1364509" width="15.1441246" height="15.1441246"></rect>
                </g>
                <path d="M195,36 L195,35 L203.514215,35 C209.313205,35 214.014215,39.7010101 214.014215,45.5 L214.014215,54.0737503 L213.014215,54.0737503 L213.014215,45.5 C213.014215,40.2532949 208.76092,36 203.514215,36 L195,36 Z M162.5,137.57375 L162.5,138.57375 L153.985785,138.57375 C148.186795,138.57375 143.485785,133.87274 143.485785,128.07375 L143.485785,119.5 L144.485785,119.5 L144.485785,128.07375 C144.485785,133.320455 148.73908,137.57375 153.985785,137.57375 L162.5,137.57375 Z" id="lines" fill="#FFD57E" fill-rule="nonzero"></path>
                <rect id="element" fill="#FFDF9D" x="147" y="39" width="63" height="96" rx="9"></rect>
                <rect id="element" fill="#FFFFFF" x="153" y="45" width="51" height="84" rx="5"></rect>
                <g id="shine" transform="translate(131.000000, 15.000000)" fill-rule="nonzero">
                    <path d="M48.0408917,19.0124882 L47.0408917,19.0124882 L47.0408917,0.0136989362 L48.0408917,0.0136989362 L48.0408917,19.0124882 Z M48.5,143.998789 L47.5,143.998789 L47.5,125 L48.5,125 L48.5,143.998789 Z M99.5,72 L99.5,73 L84.5,73 L84.5,72 L99.5,72 Z M94.1608599,9.13259828 L94.8391401,9.86740172 L81.8391401,21.8674017 L81.1608599,21.1325983 L94.1608599,9.13259828 Z M0.839140051,9.13259828 L13.8391401,21.1325983 L13.1608599,21.8674017 L0.160859949,9.86740172 L0.839140051,9.13259828 Z M94.8391401,133.132598 L94.1608599,133.867402 L81.1608599,121.867402 L81.8391401,121.132598 L94.8391401,133.132598 Z M0.160859949,133.132598 L13.1608599,121.132598 L13.8391401,121.867402 L0.839140051,133.867402 L0.160859949,133.132598 Z" id="yellow" fill="#FFDF9D"></path>
                    <path d="M67.0527864,10.2763932 L67.9472136,10.7236068 L63.9472136,18.7236068 L63.0527864,18.2763932 L67.0527864,10.2763932 Z M27.9472136,10.2763932 L31.9472136,18.2763932 L31.0527864,18.7236068 L27.0527864,10.7236068 L27.9472136,10.2763932 Z M67.0527864,133.723607 L63.0527864,125.723607 L63.9472136,125.276393 L67.9472136,133.276393 L67.0527864,133.723607 Z M93.2763932,108.947214 L84.1711241,104.394579 L84.6183377,103.500152 L93.7236068,108.052786 L93.2763932,108.947214 Z M1.61833772,108.947214 L1.17112412,108.052786 L10.2763932,103.500152 L10.7236068,104.394579 L1.61833772,108.947214 Z M92.8816623,34.5527864 L93.3288759,35.4472136 L84.2236068,39.9998481 L83.7763932,39.1054209 L92.8816623,34.5527864 Z M1.2236068,34.5527864 L10.3288759,39.1054209 L9.88166228,39.9998481 L0.776393202,35.4472136 L1.2236068,34.5527864 Z M27.9472136,133.723607 L27.0527864,133.276393 L31.0527864,125.276393 L31.9472136,125.723607 L27.9472136,133.723607 Z" id="light_blue" fill="#35C9F5"></path>
                    <path d="M94.4019419,91.9902903 L84.4019419,89.9902903 L84.5980581,89.0097097 L94.5980581,91.0097097 L94.4019419,91.9902903 Z M94.007211,53.5097097 L94.2033271,54.4902903 L84.2033271,56.4902903 L84.007211,55.5097097 L94.007211,53.5097097 Z" id="red" fill="#FD96AD"></path>
                </g>
                <g id="phone" transform="translate(158.000000, 50.000000)">
                    <rect id="bg" fill="#35C9F5" x="0" y="0" width="41" height="74" rx="3"></rect>
                    <path d="M20.5,71.5 C21.8807119,71.5 23,70.3807119 23,69 C23,67.6192881 21.8807119,66.5 20.5,66.5 C19.1192881,66.5 18,67.6192881 18,69 C18,70.3807119 19.1192881,71.5 20.5,71.5 Z M20.5,72.5 C18.5670034,72.5 17,70.9329966 17,69 C17,67.0670034 18.5670034,65.5 20.5,65.5 C22.4329966,65.5 24,67.0670034 24,69 C24,70.9329966 22.4329966,72.5 20.5,72.5 Z" id="oval" fill="#FFFFFF" fill-rule="nonzero"></path>
                    <polygon id="line" fill="#82E2FF" fill-rule="nonzero" points="1.99826356 64.4997255 1.99840711 63.4997255 39.0017361 63.5050373 39.0015925 64.5050373"></polygon>
                    <g id="button" transform="translate(13.000000, 55.000000)">
                        <rect id="bg" fill="#FFFFFF" x="0" y="0" width="15" height="5"></rect>
                        <rect id="line" fill="#FB6A89" x="2" y="2" width="11" height="1"></rect>
                    </g>
                    <rect id="text_line" fill="#09AEDF" x="6" y="51" width="29" height="1"></rect>
                    <rect id="text_line" fill="#07A4D3" x="4" y="48" width="33" height="1"></rect>
                    <rect id="text_line" fill="#0196C3" x="2" y="45" width="37" height="1"></rect>
                    <rect id="title" fill="#256DE3" x="8" y="38" width="25" height="4"></rect>
                    <g id="logo" transform="translate(8.500000, 8.000000)">
                        <g id="shield">
                            <polygon id="light_blue" fill="#89E3FE" points="0 4.78116816 12 0 24 4.78116816 21.9562782 21.6703864 12.0204725 27.6571714 1.91298005 21.6703864"></polygon>
                            <polygon id="light_red" fill="#FF97AD" points="2.03389831 5.95745355 12 2.02898551 21.9661017 5.95745355 20.2687735 19.8345547 12.0170026 24.7536232 3.62264444 19.8345547"></polygon>
                            <polygon id="dark_red" fill="#F65879" points="4.19999695 7.5421075 12.0399971 4.5 19.8799973 7.5421075 18.5447657 18.2881879 12.0533725 22.0973916 5.4498106 18.2881879"></polygon>
                            <polygon id="line" fill="#FFC8D3" fill-rule="nonzero" points="11.5 2.5 12.5 2.5 12.5 24.5 11.5 24.5"></polygon>
                            <path d="M3.11471502,6.60630012 L4.55932163,19.2243966 L12.0126441,23.5920211 L19.335682,19.2265914 L20.8795639,6.60404496 L12,3.10387166 L3.11471502,6.60630012 Z M2.03389831,5.95745355 L12,2.02898551 L21.9661017,5.95745355 L20.2687735,19.8345547 L12.0170026,24.7536232 L3.62264444,19.8345547 L2.03389831,5.95745355 Z" id="stroke" fill="#FFFFFF" fill-rule="nonzero"></path>
                        </g>
                        <rect id="Rectangle" fill="#FF87A0" x="6.5" y="6.5" width="11" height="11" rx="2"></rect>
                        <rect id="Rectangle" fill="#FFFFFF" x="7.5" y="7.5" width="9" height="9" rx="1.6"></rect>
                        <path d="M14.8886599,11.4642301 L14.8886599,10.0429663 C14.8842674,9.84179322 14.8130951,9.67431544 14.6751773,9.54049969 C14.5372251,9.40655076 14.364476,9.33762849 14.1571703,9.33339992 L13.425818,9.33339992 L13.425818,12.883596 L10.496222,9.33333333 L9.76473241,9.33333333 C9.55739237,9.33759519 9.38478059,9.40651746 9.24686275,9.54046639 C9.10880764,9.67431544 9.03777257,9.84179322 9.03341438,10.0428997 L9.03341438,11.4642301 C9.02768353,11.6654032 8.95592782,11.8326146 8.81787271,11.9658643 C8.67992055,12.0989476 8.50730877,12.1683027 8.30000305,12.1738298 C8.50730877,12.1794901 8.67995487,12.2488452 8.8178384,12.3819284 C8.95592782,12.5151782 9.02768353,12.6823896 9.03338006,12.8835627 L9.03338006,14.3048265 C9.03777257,14.5058331 9.10880764,14.6734774 9.24686275,14.8072931 C9.38481491,14.9411421 9.55742669,15.0101643 9.76469809,15.0143929 L10.496222,15.0143929 L10.496222,11.4642634 L13.425818,15.0144928 L14.1571703,15.0144928 C14.364476,15.0102309 14.5372594,14.9411754 14.6751773,14.8073597 C14.8131294,14.6735106 14.8842674,14.5058997 14.8886256,14.3049263 L14.8886256,12.883596 C14.8943565,12.6824229 14.9661122,12.5152115 15.1041673,12.3819617 C15.2421194,12.2488785 15.4147312,12.1795234 15.622037,12.1738631 C15.4147312,12.1683027 15.2420851,12.0989809 15.1042016,11.9658976 C14.9661122,11.8326146 14.8943565,11.6654032 14.8886599,11.4642301 Z" fill="#00AADD"></path>
                    </g>
                    <polygon id="line" fill="#82E2FF" fill-rule="nonzero" points="1.99826356 6.49972552 1.99840711 5.49972553 39.0017361 5.50503733 39.0015925 6.50503732"></polygon>
                    <polygon id="line" fill="#FFFFFF" fill-rule="nonzero" points="17 3.5 17 2.5 24 2.5 24 3.5"></polygon>
                </g>
                <g id="bg_elements" transform="translate(0.000000, 15.000000)">
                    <g id="circle" transform="translate(135.000000, 132.000000)">
                        <circle id="Oval" fill="#FFDF9D" cx="5.5" cy="5.5" r="2.5"></circle>
                        <path d="M5.5,11.5 C2.1862915,11.5 -0.5,8.8137085 -0.5,5.5 C-0.5,2.1862915 2.1862915,-0.5 5.5,-0.5 C8.8137085,-0.5 11.5,2.1862915 11.5,5.5 C11.5,8.8137085 8.8137085,11.5 5.5,11.5 Z M5.5,10.5 C8.26142375,10.5 10.5,8.26142375 10.5,5.5 C10.5,2.73857625 8.26142375,0.5 5.5,0.5 C2.73857625,0.5 0.5,2.73857625 0.5,5.5 C0.5,8.26142375 2.73857625,10.5 5.5,10.5 Z" id="stroke" fill="#2165D4" fill-rule="nonzero"></path>
                    </g>
                    <g id="circle" transform="translate(213.000000, 110.000000)">
                        <circle id="Oval" fill="#7BADFF" cx="5" cy="5" r="2"></circle>
                        <path d="M5,10.5 C1.96243388,10.5 -0.5,8.03756612 -0.5,5 C-0.5,1.96243388 1.96243388,-0.5 5,-0.5 C8.03756612,-0.5 10.5,1.96243388 10.5,5 C10.5,8.03756612 8.03756612,10.5 5,10.5 Z M5,9.5 C7.48528137,9.5 9.5,7.48528137 9.5,5 C9.5,2.51471863 7.48528137,0.5 5,0.5 C2.51471863,0.5 0.5,2.51471863 0.5,5 C0.5,7.48528137 2.51471863,9.5 5,9.5 Z" id="stroke" fill="#2165D4" fill-rule="nonzero"></path>
                    </g>
                    <g id="circle" transform="translate(218.000000, 18.000000)">
                        <circle id="Oval" fill="#FF97AD" cx="5.5" cy="5.5" r="2.5"></circle>
                        <path d="M5.5,11.5 C2.1862915,11.5 -0.5,8.8137085 -0.5,5.5 C-0.5,2.1862915 2.1862915,-0.5 5.5,-0.5 C8.8137085,-0.5 11.5,2.1862915 11.5,5.5 C11.5,8.8137085 8.8137085,11.5 5.5,11.5 Z M5.5,10.5 C8.26142375,10.5 10.5,8.26142375 10.5,5.5 C10.5,2.73857625 8.26142375,0.5 5.5,0.5 C2.73857625,0.5 0.5,2.73857625 0.5,5.5 C0.5,8.26142375 2.73857625,10.5 5.5,10.5 Z" id="stroke" fill="#2165D4" fill-rule="nonzero"></path>
                    </g>
                    <g id="circle" transform="translate(139.000000, 0.000000)">
                        <circle id="Oval" fill="#35C9F5" cx="7" cy="7" r="4"></circle>
                        <path d="M7,14.5 C2.85786438,14.5 -0.5,11.1421356 -0.5,7 C-0.5,2.85786438 2.85786438,-0.5 7,-0.5 C11.1421356,-0.5 14.5,2.85786438 14.5,7 C14.5,11.1421356 11.1421356,14.5 7,14.5 Z M7,13.5 C10.5898509,13.5 13.5,10.5898509 13.5,7 C13.5,3.41014913 10.5898509,0.5 7,0.5 C3.41014913,0.5 0.5,3.41014913 0.5,7 C0.5,10.5898509 3.41014913,13.5 7,13.5 Z" id="stroke" fill="#2165D4" fill-rule="nonzero"></path>
                    </g>
                    <g id="rectangle" transform="translate(36.727922, 24.727922) rotate(-315.000000) translate(-36.727922, -24.727922) translate(27.727922, 15.727922)">
                        <path d="M0.5,0.5 L0.5,17.5 L17.5,17.5 L17.5,0.5 L0.5,0.5 Z M18.5,-0.5 L18.5,18.5 L-0.5,18.5 L-0.5,-0.5 L18.5,-0.5 Z" fill="#2165D4" fill-rule="nonzero"></path>
                        <rect fill="#1A68EB" x="3" y="3" width="12" height="12"></rect>
                    </g>
                    <g id="rectangle" transform="translate(88.899495, 127.020815) rotate(-315.000000) translate(-88.899495, -127.020815) translate(82.399495, 120.520815)">
                        <path d="M0.5,0.5 L0.5,11.5 L11.5,11.5 L11.5,0.5 L0.5,0.5 Z M12.5,-0.5 L12.5,12.5 L-0.5,12.5 L-0.5,-0.5 L12.5,-0.5 Z" fill="#2165D4" fill-rule="nonzero"></path>
                        <rect fill="#FFDF9D" x="3" y="3" width="6" height="6"></rect>
                    </g>
                    <g id="rectangle" transform="translate(9.192388, 83.485281) rotate(-315.000000) translate(-9.192388, -83.485281) translate(3.192388, 77.485281)">
                        <path d="M0.5,0.5 L0.5,11.5 L11.5,11.5 L11.5,0.5 L0.5,0.5 Z M12.5,-0.5 L12.5,12.5 L-0.5,12.5 L-0.5,-0.5 L12.5,-0.5 Z" fill="#2165D4" fill-rule="nonzero"></path>
                        <rect fill="#82E2FF" x="3" y="3" width="6" height="6"></rect>
                    </g>
                    <g id="rectangle" transform="translate(76.192388, 15.485281) rotate(-315.000000) translate(-76.192388, -15.485281) translate(70.192388, 9.485281)">
                        <path d="M0.5,0.5 L0.5,11.5 L11.5,11.5 L11.5,0.5 L0.5,0.5 Z M12.5,-0.5 L12.5,12.5 L-0.5,12.5 L-0.5,-0.5 L12.5,-0.5 Z" fill="#2165D4" fill-rule="nonzero"></path>
                        <rect fill="#FF97AD" x="3" y="3" width="6" height="6"></rect>
                    </g>
                </g>
                <g id="arrows" transform="translate(121.000000, 70.000000)" fill="#FF97AD" fill-rule="nonzero">
                    <path d="M15.5,28.7079996 L15.5,29 L15.2079996,29 L10.738961,33.4690386 L9.67830086,32.4083784 L13.0866793,29 L0.5,29 L0.5,28 L14.0866793,28 L14.0977182,27.988961 L9.67830086,23.5695436 L10.738961,22.5088835 L16.2190386,27.988961 L15.5,28.7079996 Z" id="arrow"></path>
                    <path d="M22.5,17.7079996 L22.5,18 L22.2079996,18 L17.738961,22.4690386 L16.6783009,21.4083784 L20.0866793,18 L7.5,18 L7.5,17 L21.0866793,17 L21.0977182,16.988961 L16.6783009,12.5695436 L17.738961,11.5088835 L23.2190386,16.988961 L22.5,17.7079996 Z" id="arrow"></path>
                    <path d="M15.5,6.70799962 L15.5,7 L15.2079996,7 L10.738961,11.4690386 L9.67830086,10.4083784 L13.0866793,7 L0.5,7 L0.5,6 L14.0866793,6 L14.0977182,5.98896103 L9.67830086,1.56954365 L10.738961,0.508883476 L16.2190386,5.98896103 L15.5,6.70799962 Z" id="arrow"></path>
                </g>
                <g id="web" transform="translate(7.000000, 36.000000)">
                    <g id="frame" transform="translate(0.000000, 6.000000)" fill="#98BEFF" fill-rule="nonzero">
                        <path d="M1.5,73.5 L1.5,83.5 C1.5,86.5375661 3.96243388,89 7,89 L17,89 L17,90 L7,90 C3.41014913,90 0.5,87.0898509 0.5,83.5 L0.5,73.5 L1.5,73.5 Z M114,17 L114,7 C114,3.96243388 111.537566,1.5 108.5,1.5 L98.5,1.5 L98.5,0.5 L108.5,0.5 C112.089851,0.5 115,3.41014913 115,7 L115,17 L114,17 Z" id="Combined-Shape"></path>
                    </g>
                    <g id="lines" transform="translate(8.000000, 95.000000)">
                        <rect id="Rectangle-6" fill="#3983FF" x="6" y="3" width="41" height="1"></rect>
                        <rect id="Rectangle-6" fill="#72A7FF" x="13" y="0" width="54" height="1"></rect>
                        <rect id="Rectangle-6" fill="#1A68EB" x="0" y="6" width="29" height="1"></rect>
                    </g>
                    <g id="lines" transform="translate(74.500000, 4.000000) scale(-1, -1) translate(-74.500000, -4.000000) translate(41.000000, 0.000000)">
                        <rect id="Rectangle-6" fill="#3983FF" x="6" y="3.5" width="41" height="1"></rect>
                        <rect id="Rectangle-6" fill="#72A7FF" x="13" y="0.5" width="54" height="1"></rect>
                        <rect id="Rectangle-6" fill="#1A68EB" x="0" y="6.5" width="29" height="1"></rect>
                    </g>
                    <path d="M5,19 L111,19 L111,89 C111,90.6568542 109.656854,92 108,92 L8,92 C6.34314575,92 5,90.6568542 5,89 L5,19 Z" id="bg_2" fill="#35C9F5"></path>
                    <g id="logo" transform="translate(57.000000, 28.000000)">
                        <g id="shield">
                            <polygon id="light_blue" fill="#89E3FE" points="0 11.7821644 29.5 0 54.0121108 9.78691178 53.9758507 53.4020236 36.3918796 64.0228381 22.5416798 63.993817 4.70274261 53.4020236"></polygon>
                            <polygon id="light_red" fill="#FF97AD" points="5 14.6808677 29.5 5 54 14.6808677 49.8274014 48.8780098 29.5417981 61 8.90566759 48.8780098"></polygon>
                            <polygon id="dark_red" fill="#F65879" points="9 17.6737473 29.5 9.69999695 50 17.6737473 46.508642 45.8405898 29.5349739 55.8249969 12.2680076 45.8405898"></polygon>
                            <polygon id="line" fill="#FFC8D3" fill-rule="nonzero" points="28.9468652 5.5 29.9468652 5.5 29.9468652 60.5 28.9468652 60.5"></polygon>
                            <path d="M6.04812431,15.3096939 L9.8144598,48.2868756 L29.5375628,59.872539 L48.9220748,48.2890105 L52.9463458,15.3075089 L29.5,6.04297944 L6.04812431,15.3096939 Z M5,14.6808677 L29.5,5 L54,14.6808677 L49.8274014,48.8780098 L29.5417981,61 L8.90566759,48.8780098 L5,14.6808677 Z" id="stroke" fill="#FFFFFF" fill-rule="nonzero"></path>
                        </g>
                        <rect id="Rectangle" fill="#FF87A0" x="16" y="17" width="26" height="26" rx="5"></rect>
                        <rect id="Rectangle" fill="#FFFFFF" x="18" y="19" width="22" height="22" rx="4"></rect>
                        <path d="M36.1971148,28.2511384 L36.1971148,24.7487385 C36.1863166,24.2529904 36.0113513,23.8402773 35.6723033,23.5105171 C35.3331709,23.1804287 34.9084961,23.0105845 34.3988696,23.0001641 L32.6009617,23.0001641 L32.6009617,31.7488616 L25.3990383,23 L23.600793,23 C23.0910821,23.0105024 22.6667448,23.1803466 22.3276967,23.510435 C21.9883113,23.8402773 21.8136834,24.2529904 21.8029695,24.7485744 L21.8029695,28.2511384 C21.7888812,28.7468865 21.6124817,29.1589432 21.2730962,29.4873086 C20.9339639,29.8152637 20.5096266,29.9861745 20,29.9997949 C20.5096266,30.0137434 20.9340482,30.1846542 21.2730119,30.5126094 C21.6124817,30.8409748 21.7888812,31.2530315 21.8028852,31.7487795 L21.8028852,35.2511795 C21.8136834,35.7465173 21.9883113,36.1596406 22.3276967,36.4894009 C22.6668291,36.8192431 23.0911664,36.9893335 23.6007086,36.9997538 L25.3990383,36.9997538 L25.3990383,28.2512205 L32.6009617,37 L34.3988696,37 C34.9084961,36.9894976 35.3332552,36.8193252 35.6723033,36.489565 C36.0114356,36.1597227 36.1863166,35.7466814 36.1970305,35.2514256 L36.1970305,31.7488616 C36.2111188,31.2531135 36.3875183,30.8410568 36.7269038,30.5126914 C37.0660361,30.1847363 37.4903734,30.0138255 38,29.9998769 C37.4903734,29.9861745 37.0659518,29.8153458 36.7269881,29.4873906 C36.3875183,29.1589432 36.2111188,28.7468865 36.1971148,28.2511384 Z" fill="#00AADD"></path>
                    </g>
                    <path d="M107.5,79.9549103 L108.5,79.9549103 L108.5,86.3679245 C108.5,88.0247788 107.156854,89.3679245 105.5,89.3679245 L92.4743073,89.3679245 L92.4743073,88.3679245 L105.5,88.3679245 C106.604569,88.3679245 107.5,87.472494 107.5,86.3679245 L107.5,79.9549103 Z M8.5,22.5 L8.5,86.3679245 C8.5,87.472494 9.3954305,88.3679245 10.5,88.3679245 L80.2572546,88.3679245 L80.2572546,89.3679245 L10.5,89.3679245 C8.84314575,89.3679245 7.5,88.0247788 7.5,86.3679245 L7.5,21.5 L108.5,21.5 L108.5,37.9141059 L107.5,37.9141059 L107.5,22.5 L8.5,22.5 Z" id="stroke" fill="#FFFFFF" fill-rule="nonzero"></path>
                    <g id="button" transform="translate(14.000000, 62.000000)">
                        <rect id="bg" fill="#FFFFFF" x="0" y="0" width="15" height="5"></rect>
                        <rect id="line" fill="#FB6A89" x="2" y="2" width="11" height="1"></rect>
                    </g>
                    <rect id="text_line" fill="#09AEDF" x="13" y="56" width="31" height="1"></rect>
                    <rect id="text_line" fill="#07A4D3" x="13" y="51" width="34" height="1"></rect>
                    <rect id="text_line" fill="#0196C3" x="13" y="46" width="37" height="1"></rect>
                    <rect id="title" fill="#256DE3" x="13" y="37" width="26" height="4"></rect>
                    <g id="top" transform="translate(5.000000, 11.000000)">
                        <path d="M0,0 L106,0 L106,5 C106,6.65685425 104.656854,8 103,8 L3,8 C1.34314575,8 2.02906125e-16,6.65685425 0,5 L0,0 Z" id="bg_2" fill="#FFFFFF" transform="translate(53.000000, 4.000000) scale(1, -1) translate(-53.000000, -4.000000) "></path>
                        <circle id="circle" fill="#F65879" cx="4" cy="4" r="2"></circle>
                        <circle id="circle" fill="#FFDD97" cx="9" cy="4" r="2"></circle>
                        <circle id="circle" fill="#37DE93" cx="14" cy="4" r="2"></circle>
                    </g>
                </g>
            </g>
        </g>
    </g>
</svg>