<?xml version="1.0" encoding="UTF-8" standalone="no"?>
<svg width="360px" height="294px" viewBox="0 0 360 294" version="1.1" xmlns="http://www.w3.org/2000/svg" xmlns:xlink="http://www.w3.org/1999/xlink">
    <!-- Generator: Sketch 50.2 (55047) - http://www.bohemiancoding.com/sketch -->
    <title>10_1_nativescript_with_angular_getting_started_guide</title>
    <desc>Created with Sketch.</desc>
    <defs></defs>
    <g id="illustrations" stroke="none" stroke-width="1" fill="none" fill-rule="evenodd">
        <g id="nativescript_with_angular_getting_started_guide">
            <g id="nativescript_with_angular_getting_started_guide_image" transform="translate(89.000000, 66.000000)">
                <g id="circle_bg">
                    <circle id="circle_2" fill="#0C3E91" cx="91" cy="88" r="83"></circle>
                    <path d="M91,175.5 C42.6750844,175.5 3.5,136.324916 3.5,88 C3.5,39.6750844 42.6750844,0.5 91,0.5 C139.324916,0.5 178.5,39.6750844 178.5,88 C178.5,136.324916 139.324916,175.5 91,175.5 Z M91,174.5 C138.772631,174.5 177.5,135.772631 177.5,88 C177.5,40.2273691 138.772631,1.5 91,1.5 C43.2273691,1.5 4.5,40.2273691 4.5,88 C4.5,135.772631 43.2273691,174.5 91,174.5 Z" id="circle_1" fill="#0B49AF" fill-rule="nonzero"></path>
                    <rect id="rectangle" fill="#1148A3" transform="translate(55.334524, 175.167262) rotate(-315.000000) translate(-55.334524, -175.167262) " x="47.9086399" y="167.741378" width="14.8517677" height="14.8517677"></rect>
                    <rect id="rectangle" fill="#1148A3" transform="translate(175.516504, 94.516504) rotate(-315.000000) translate(-175.516504, -94.516504) " x="168.78732" y="87.7873196" width="13.4583694" height="13.4583694"></rect>
                    <rect id="rectangle" fill="#1148A3" transform="translate(18.758252, 37.758252) rotate(-315.000000) translate(-18.758252, -37.758252) " x="5.49416485" y="24.4941649" width="26.5281746" height="26.5281746"></rect>
                </g>
                <g id="blueprint" transform="translate(96.000000, 88.500000) rotate(-90.000000) translate(-96.000000, -88.500000) translate(13.000000, 13.000000)">
                    <g id="drawing">
                        <path d="M0,136 L20,136 L20,151 C14.5009838,151 10.5009838,151 8,151 C3.48510732,151 0,148.930097 3.69929781e-13,144.022097 C1.23309927e-13,141.561614 0,138.887582 0,136 Z" id="further_part" fill="#1F68E0"></path>
                        <path d="M146,136 L166,136 L166,151 C160.500984,151 156.500984,151 154,151 C149.485107,151 146,148.930097 146,144.022097 C146,141.561614 146,138.887582 146,136 Z" id="further_part" fill="#1F68E0" transform="translate(156.000000, 143.500000) scale(-1, 1) translate(-156.000000, -143.500000) "></path>
                        <path d="M7.99999961,5.05114266 L157.997477,5.00180407 C162.415754,5.00042434 165.998595,8.58102768 165.999974,12.9993055 C165.999975,13.0001382 165.999975,13.0009709 165.999975,13.0018037 C165.997477,57.0018037 165.997477,101.001804 165.997477,145.001804 C165.997477,139.103742 163.412683,136.99771 157.951518,136.99818 C68.3594514,137.005884 18.391714,136.986034 8.09743791,136.986034 C3.30608644,136.986034 1.45098014e-13,139.050158 1.0658141e-12,144.969819 C1.0658141e-12,100.99776 1.0658141e-12,57.0257004 1.0658141e-12,13.0536409 L0.00249860618,13.0536409 C0.00249860618,8.63633846 3.58269819,5.05502069 8.00000039,5.05364126 Z" id="bg" fill="#0B51C5"></path>
                        <path d="M5,10 L5,132 L161,132 L161,10 L5,10 Z M4,9 L162,9 L162,133 L4,133 L4,9 Z" id="stroke" fill="#6A9FF8" fill-rule="nonzero"></path>
                        <g id="signature" transform="translate(14.500000, 120.000000) rotate(-270.000000) translate(-14.500000, -120.000000) translate(1.500000, 109.500000)">
                            <path d="M1,1 L1,20 L25,20 L25,1 L1,1 Z M0,0 L26,0 L26,21 L0,21 L0,0 Z" id="stroke" fill="#6A9FF8" fill-rule="nonzero"></path>
                            <rect id="bg" fill="#44D4FF" x="4" y="4" width="18" height="13"></rect>
                            <rect id="line" fill="#CDF4FF" x="7" y="7" width="12" height="1"></rect>
                            <rect id="line" fill="#CDF4FF" x="7" y="10" width="12" height="1"></rect>
                            <rect id="line" fill="#CDF4FF" x="7" y="13" width="7" height="1"></rect>
                        </g>
                        <rect id="line" fill="#5893F4" transform="translate(97.500000, 141.500000) scale(1, -1) translate(-97.500000, -141.500000) " x="56" y="141" width="83" height="1"></rect>
                        <rect id="line" fill="#5893F4" transform="translate(56.500000, 0.500000) scale(1, -1) translate(-56.500000, -0.500000) " x="15" y="0" width="83" height="1"></rect>
                    </g>
                    <g id="lines" transform="translate(10.000000, 15.000000)">
                        <rect id="line" fill="#B5D1FE" x="0" y="15" width="31" height="1"></rect>
                        <rect id="line" fill="#B5D1FE" transform="translate(15.500000, 15.500000) rotate(-270.000000) translate(-15.500000, -15.500000) " x="0" y="15" width="31" height="1"></rect>
                        <rect id="line" fill="#6A9FF8" x="7" y="3" width="20" height="1"></rect>
                        <rect id="line" fill="#6A9FF8" x="10" y="0" width="1" height="15"></rect>
                        <polygon id="diagonal_line" fill="#6A9FF8" fill-rule="nonzero" transform="translate(10.373676, 3.858429) scale(-1, 1) translate(-10.373676, -3.858429) " points="12.5427456 1 13.2473511 1.70959923 8.20460551 6.71685713 7.5 6.0072579"></polygon>
                        <rect id="line" fill="#6A9FF8" x="23" y="0" width="1" height="15"></rect>
                        <polygon id="diagonal_line" fill="#6A9FF8" fill-rule="nonzero" transform="translate(23.373676, 3.858429) scale(-1, 1) translate(-23.373676, -3.858429) " points="25.5427456 1 26.2473511 1.70959923 21.2046055 6.71685713 20.5 6.0072579"></polygon>
                    </g>
                    <g id="section" transform="translate(20.000000, 24.000000)" fill="#FFFFFF" fill-rule="nonzero">
                        <path d="M10,1 L10,12 L13,12 L13,1 L10,1 Z M9,0 L14,0 L14,13 L9,13 L9,0 Z" id="element"></path>
                        <path d="M9.25855066,2.14152644 L13.0486528,5.88513815 L13.7513827,5.17368138 L9.96128052,1.43006966 L9.25855066,2.14152644 Z M9.25855066,5.14152644 L13.0486528,8.88513815 L13.7513827,8.17368138 L9.96128052,4.43006966 L9.25855066,5.14152644 Z M9.25855066,8.14152644 L13.0486528,11.8851382 L13.7513827,11.1736814 L9.96128052,7.43006966 L9.25855066,8.14152644 Z M9.25855066,11.1415264 L10.9909773,12.8527026 L11.6937071,12.1412459 L9.96128052,10.4300697 L9.25855066,11.1415264 Z M10.9791948,0.865597213 L13.2155634,3.07453394 L13.9182933,2.36307716 L11.6819246,0.154140435 L10.9791948,0.865597213 Z" id="lines"></path>
                        <path d="M1,5 L1,8 L9,8 L9,5 L1,5 Z M0,4 L10,4 L10,9 L0,9 L0,4 Z" id="element"></path>
                    </g>
                    <g id="lines" transform="translate(121.000000, 89.000000)" fill="#6A9FF8">
                        <rect id="line" x="0" y="39" width="20" height="1"></rect>
                        <rect id="line" x="0" y="15" width="20" height="1"></rect>
                        <rect id="line" x="12" y="3" width="27" height="1"></rect>
                        <polygon id="diagonal_line" fill-rule="nonzero" transform="translate(3.626324, 39.558426) scale(-1, 1) translate(-3.626324, -39.558426) " points="5.79539449 36.6999969 6.5 37.4095962 1.45725439 42.4168541 0.752648879 41.7072548"></polygon>
                        <rect id="line" x="3" y="12" width="1" height="31"></rect>
                        <rect id="line" x="15" y="0" width="1" height="15"></rect>
                        <rect id="line" x="35" y="0" width="1" height="15"></rect>
                        <polygon id="diagonal_line" fill-rule="nonzero" transform="translate(3.626324, 15.558426) scale(-1, 1) translate(-3.626324, -15.558426) " points="5.79539449 12.6999969 6.5 13.4095962 1.45725439 18.4168541 0.752648879 17.7072548"></polygon>
                        <polygon id="diagonal_line" fill-rule="nonzero" transform="translate(15.626324, 3.558426) scale(-1, 1) translate(-15.626324, -3.558426) " points="17.7953945 0.699996948 18.5 1.40959618 13.4572544 6.41685408 12.7526489 5.70725484"></polygon>
                        <polygon id="diagonal_line" fill-rule="nonzero" transform="translate(35.626324, 3.558426) scale(-1, 1) translate(-35.626324, -3.558426) " points="37.7953945 0.699996948 38.5 1.40959618 33.4572544 6.41685408 32.7526489 5.70725484"></polygon>
                    </g>
                    <g id="section" transform="translate(146.500000, 117.000000) rotate(-270.000000) translate(-146.500000, -117.000000) translate(133.500000, 106.500000)">
                        <polygon id="bg" fill="#1962D8" transform="translate(12.901089, 10.744539) scale(-1, 1) translate(-12.901089, -10.744539) " points="1.9950587 20.0178166 1.0121158 10.0877364 24.7900619 1.47126046 24.7900619 20.0178166"></polygon>
                        <path d="M0.926217511,0.954704515 L4.92621751,2.38511992 L4.92621751,20.4954128 L0.926217511,20.4954128 L0.926217511,0.954704515 Z M7.92621751,3.5039425 L11.9262175,4.94215748 L11.9262175,20.4954128 L7.92621751,20.4954128 L7.92621751,3.5039425 Z M14.9262175,6.07506481 L18.9262175,7.50473238 L18.9262175,20.4954128 L14.9262175,20.4954128 L14.9262175,6.07506481 Z M21.9262175,8.53282141 L25.5,9.8715128 L24.297098,20.4954128 L21.9262175,20.4954128 L21.9262175,8.53282141 Z" id="dark_lines" fill="#0C4AB0"></path>
                        <path d="M1.9950587,20.0178166 L24.7900619,20.0178166 L24.7900619,1.47126046 L1.0121158,10.0877364 L1.9950587,20.0178166 Z M1.08915789,21.0178166 L-0.0596136688,9.41246939 L25.7900619,0.0452554571 L25.7900619,21.0178166 L1.08915789,21.0178166 Z" id="stroke" fill="#B5D1FE" fill-rule="nonzero" transform="translate(12.865224, 10.531536) scale(-1, 1) translate(-12.865224, -10.531536) "></path>
                        <path d="M1.57458418,20.2428052 L0.601991784,20.0102885 L4.78006438,2.53386258 L5.75265677,2.76637933 L1.57458418,20.2428052 Z M0.996058211,8.55925028 L0.019910275,8.34214384 L1.58087084,1.32379638 L2.55701877,1.54090282 L0.996058211,8.55925028 Z M5.0826562,20.589471 L4.10906567,20.3611697 L8.00841804,3.73238803 L8.98200856,3.96068933 L5.0826562,20.589471 Z M8.7885363,20.2979391 L7.81500654,20.0693789 L11.3834643,4.86988751 L12.3569941,5.09844778 L8.7885363,20.2979391 Z M12.439401,20.2975133 L11.4656717,20.0698047 L14.7111716,6.19137062 L15.684901,6.4190792 L12.439401,20.2975133 Z M15.8972609,20.3006431 L14.9250166,20.0666749 L18.0200783,7.20528094 L18.9923226,7.43924905 L15.8972609,20.3006431 Z M19.8972609,20.3006431 L18.9250166,20.0666749 L21.6421352,8.77580712 L22.6143795,9.00977523 L19.8972609,20.3006431 Z M22.8972609,20.3006431 L21.9250166,20.0666749 L24.4204587,9.69697399 L25.392703,9.9309421 L22.8972609,20.3006431 Z" id="lines" fill="#B5D1FE" fill-rule="nonzero"></path>
                    </g>
                    <g id="element" transform="translate(139.000000, 24.000000)" fill-rule="nonzero">
                        <path d="M1,1 L1,10 L10,10 L10,1 L1,1 Z M0,0 L11,0 L11,11 L0,11 L0,0 Z" id="Rectangle-7" fill="#B5D1FE"></path>
                        <path d="M3,3 L3,8 L8,8 L8,3 L3,3 Z M2,2 L9,2 L9,9 L2,9 L2,2 Z" id="Rectangle-7" fill="#FFFFFF" transform="translate(5.500000, 5.500000) rotate(-315.000000) translate(-5.500000, -5.500000) "></path>
                    </g>
                    <g id="circle" transform="translate(42.000000, 30.000000)">
                        <circle id="Oval" fill="#0C4BB2" cx="41.5" cy="41.5" r="41.5"></circle>
                        <path d="M41.5,80 C62.7629629,80 80,62.7629629 80,41.5 C80,20.2370371 62.7629629,3 41.5,3 C20.2370371,3 3,20.2370371 3,41.5 C3,62.7629629 20.2370371,80 41.5,80 Z M41.5,81 C19.6847524,81 2,63.3152476 2,41.5 C2,19.6847524 19.6847524,2 41.5,2 C63.3152476,2 81,19.6847524 81,41.5 C81,63.3152476 63.3152476,81 41.5,81 Z" id="Oval" fill="#FFFFFF" fill-rule="nonzero"></path>
                    </g>
                    <g id="lines" transform="translate(82.500000, 72.000000) rotate(-270.000000) translate(-82.500000, -72.000000) translate(34.500000, 22.500000)" fill="#6A9FF8">
                        <g transform="translate(0.000000, 15.000000)">
                            <rect id="line" x="0" y="3" width="47" height="1"></rect>
                            <rect id="line" x="0" y="27.5" width="47" height="1"></rect>
                            <rect id="line" x="3" y="0" width="1" height="31.5"></rect>
                            <polygon id="diagonal_line" fill-rule="nonzero" points="5.54274561 25 6.24735112 25.7095992 1.20460551 30.7168571 0.5 30.0072579"></polygon>
                            <polygon id="diagonal_line" fill-rule="nonzero" points="5.74274256 0.699996948 6.44734807 1.40959618 1.40460246 6.41685408 0.699996948 5.70725484"></polygon>
                        </g>
                        <g transform="translate(47.000000, 39.000000)">
                            <rect id="line" x="13" y="3.5" width="36" height="1"></rect>
                            <rect id="line" x="15" y="30" width="34" height="1"></rect>
                            <rect id="line" x="45" y="0.5" width="1" height="47.5"></rect>
                            <polygon id="diagonal_line" fill-rule="nonzero" points="47.6913176 1.1000061 48.3959232 1.80960534 43.3531776 6.81686323 42.648572 6.107264"></polygon>
                            <polygon id="diagonal_line" fill-rule="nonzero" points="47.6774152 27.6999969 48.3834916 28.4081326 43.3560703 33.4209342 42.6499939 32.7127986"></polygon>
                            <rect id="line" x="0" y="44" width="49" height="1"></rect>
                            <polygon id="diagonal_line" fill-rule="nonzero" points="47.6628754 41.6740268 48.3689518 42.3821625 43.3415305 47.3949641 42.6354541 46.6868285"></polygon>
                        </g>
                        <g transform="translate(15.000000, -0.000000)">
                            <rect id="line" x="3" y="0" width="1" height="29"></rect>
                            <rect id="line" x="31.5" y="0" width="1" height="29.1244345"></rect>
                            <rect id="line" x="0" y="3" width="64" height="1"></rect>
                            <polygon id="diagonal_line" fill-rule="nonzero" points="34.0427456 0.674693149 34.7473511 1.38429238 29.7046055 6.39155028 29 5.68195104"></polygon>
                            <polygon id="diagonal_line" fill-rule="nonzero" points="5.69131765 0.674693149 6.39592316 1.38429238 1.35317755 6.39155028 0.648572041 5.68195104"></polygon>
                            <rect id="line" x="60" y="0" width="1" height="29"></rect>
                            <polygon id="diagonal_line" fill-rule="nonzero" points="62.6913176 0.674693149 63.3959232 1.38429238 58.3531776 6.39155028 57.648572 5.68195104"></polygon>
                        </g>
                        <g transform="translate(19.000000, 67.000000)">
                            <rect id="line" x="3" y="0" width="1" height="32"></rect>
                            <rect id="line" x="52" y="0" width="1" height="32"></rect>
                            <rect id="line" x="0" y="28" width="56" height="1"></rect>
                            <polygon id="diagonal_line" fill-rule="nonzero" transform="translate(52.535123, 28.496351) scale(-1, 1) translate(-52.535123, -28.496351) " points="55.3677872 30.6334824 54.6590352 31.3389402 49.7024589 26.3592189 50.4112109 25.6537612"></polygon>
                            <polygon id="diagonal_line" fill-rule="nonzero" transform="translate(3.532661, 28.342590) scale(-1, 1) translate(-3.532661, -28.342590) " points="6.36532515 30.4797212 5.65657321 31.185179 0.699996948 26.2054578 1.4087489 25.5"></polygon>
                        </g>
                    </g>
                    <g id="shield_elements" transform="translate(81.000000, 71.000000) rotate(-270.000000) translate(-81.000000, -71.000000) translate(51.000000, 37.500000)">
                        <g id="shield" transform="translate(0.000000, -0.000000)">
                            <g id="bg_all" transform="translate(0.000000, 0.000000)">
                                <path d="M30,1.55391139 L1.70806885,12.0830514 L6.14243781,51.3343351 L29.853211,65.4590912 L53.8226969,51.3343351 L57.9248455,12.0830514 L30,1.55391139 Z M30.0022907,0.486052123 L58.9996313,11.4195794 L54.7648611,51.9398476 L29.8504452,66.6214328 L5.20445059,51.9395555 L0.626632036,11.4185127 L30.0022907,0.486052123 Z" id="stroke" fill="#FFFFFF" fill-rule="nonzero"></path>
                                <polygon id="bg_2" fill="#15BBED" points="30 1.45141226 57.9258319 12.0830461 53.8222486 51.3360061 29.853211 65.459423"></polygon>
                                <polygon id="bg_1" fill="#FFDD97" points="1.65811888 12.0930384 30 1.39328707 30 65.6023124 6.11491163 51.3253837"></polygon>
                            </g>
                            <g id="right" transform="translate(29.000000, 5.000000)">
                                <polygon id="bg_right_all" fill="#C151C1" points="0.853211009 0.796950902 25.2110092 9.60410882 21.3919262 43.3796775 0.853211009 55.5883414"></polygon>
                                <polygon id="bg_right_top" fill="#FFDD97" points="0.853211009 0.796950902 25.2110092 9.60410882 23.9755347 20.5115292 0.853211009 20.5546029"></polygon>
                                <path d="M1,0.459291671 L5,1.88970707 L5,20 L1,20 L1,0.459291671 Z M8,3.00852965 L12,4.44674464 L12,20 L8,20 L8,3.00852965 Z M15,5.57965197 L19,7.00931953 L19,20 L15,20 L15,5.57965197 Z M22,8.03740857 L25.5737825,9.37609995 L24.3708805,20 L22,20 L22,8.03740857 Z" id="darker_parts" fill="#FFBA2D"></path>
                                <polygon id="line" fill="#AC36AC" fill-rule="nonzero" transform="translate(12.363224, 22.500000) scale(-1, -1) translate(-12.363224, -22.500000) " points="0.797348022 24 1.12909703 21 23.9290996 21 23.9290996 24"></polygon>
                                <polygon id="line" fill="#FCA4FC" fill-rule="nonzero" points="20.6317781 32.8843729 21.6234981 33.012792 20.3544044 42.8134023 13.8515763 46.5273147 13.3556376 45.6589572 19.4265581 42.191717"></polygon>
                            </g>
                            <g id="left" transform="translate(5.000000, 5.000000)">
                                <polygon id="bg_left_all" fill="#EE91EE" transform="translate(12.674312, 28.194482) scale(-1, 1) translate(-12.674312, -28.194482) " points="0.495412844 0.796610169 24.853211 9.4697586 21.0289226 43.2325924 0.495412844 55.5923546"></polygon>
                                <polygon id="bg_left_bottom" fill="#35C9F5" transform="translate(13.298429, 38.041095) scale(-1, 1) translate(-13.298429, -38.041095) " points="24.853211 20.4898353 22.2771576 43.2325924 1.74364785 55.5923546 1.74364785 20.5756313"></polygon>
                                <path d="M4.54747351e-13,0.459291671 L4,1.88970707 L4,20 L4.54747351e-13,20 L4.54747351e-13,0.459291671 Z M7,3.00852965 L11,4.44674464 L11,20 L7,20 L7,3.00852965 Z M14,5.57965197 L18,7.00931953 L18,20 L14,20 L14,5.57965197 Z M21,8.03740857 L24.5737825,9.37609995 L23.3708805,20 L21,20 L21,8.03740857 Z" id="darker_parts" fill="#C945C9" transform="translate(12.286891, 10.229646) scale(-1, 1) translate(-12.286891, -10.229646) "></path>
                                <polygon id="line" fill="#0CB2E3" fill-rule="nonzero" transform="translate(13.398674, 22.500000) scale(1, -1) translate(-13.398674, -22.500000) " points="1.79734802 24 2.14031881 21 25 21 25 24"></polygon>
                                <polygon id="line" fill="#91E6FF" fill-rule="nonzero" points="6.44089315 37.0776582 5.44858029 37.2014128 3.93377003 25.0550673 10.0581933 25.0550673 10.0581933 26.0550673 5.06622997 26.0550673"></polygon>
                            </g>
                            <g id="dots" transform="translate(2.000000, 7.000000)" fill="#FFFFFF">
                                <circle id="Oval-2" cx="7" cy="20.5" r="1"></circle>
                                <circle id="Oval-2" cx="1.30000305" cy="6" r="1"></circle>
                                <circle id="Oval-2" cx="26" cy="1" r="1"></circle>
                                <circle id="Oval-2" cx="30" cy="1" r="1"></circle>
                                <circle id="Oval-2" cx="54.5" cy="6" r="1"></circle>
                                <circle id="Oval-2" cx="49" cy="20.5" r="1"></circle>
                                <circle id="Oval-2" cx="50.6000061" cy="43.1000061" r="1"></circle>
                                <circle id="Oval-2" cx="5.5" cy="43.1000061" r="1"></circle>
                                <circle id="Oval-2" cx="26" cy="50.5" r="1"></circle>
                                <circle id="Oval-2" cx="30" cy="50.5" r="1"></circle>
                            </g>
                            <g id="white_lines" transform="translate(4.000000, 1.000000)" fill="#FFFFFF" fill-rule="nonzero">
                                <path d="M25.8638444,4.79661017 L1.49541284,13.5923236 L5.33170255,47.3700059 L25.8638444,59.5923546 L46.3973542,47.2325924 L50.2216425,13.4697586 L25.8638444,4.79661017 Z M25.8615502,3.73429066 L51.3045949,12.7938658 L47.335506,47.8350747 L25.8666984,60.7578219 L4.39405521,47.9756127 L0.41262552,12.9200049 L25.8615502,3.73429066 Z" id="stroke" transform="translate(25.858610, 32.246056) scale(-1, 1) translate(-25.858610, -32.246056) "></path>
                                <polygon id="line" points="2.79734802 25 2.68045376 24 49.0432434 24 48.9321747 25"></polygon>
                                <polygon id="line" points="25.5 -4.54747351e-13 26.4981481 -4.54747351e-13 26.4981481 65 25.5 65"></polygon>
                                <path d="M25.5,36.5 C32.127417,36.5 37.5,31.127417 37.5,24.5 C37.5,17.872583 32.127417,12.5 25.5,12.5 C18.872583,12.5 13.5,17.872583 13.5,24.5 C13.5,31.127417 18.872583,36.5 25.5,36.5 Z M25.5,37.5 C18.3202983,37.5 12.5,31.6797017 12.5,24.5 C12.5,17.3202983 18.3202983,11.5 25.5,11.5 C32.6797017,11.5 38.5,17.3202983 38.5,24.5 C38.5,31.6797017 32.6797017,37.5 25.5,37.5 Z" id="Oval"></path>
                            </g>
                        </g>
                        <g id="logo" transform="translate(18.500000, 14.500000)">
                            <circle id="Oval" fill="#FFFFFF" cx="11" cy="11" r="11"></circle>
                            <circle id="Oval" fill="#FFBA2D" cx="11" cy="11" r="10"></circle>
                            <path d="M17.009814,10.597171 C16.7458475,10.3391697 16.608648,10.0154108 16.597756,9.6258945 L16.597756,6.8740088 C16.5893574,6.48449249 16.4532732,6.1602179 16.1895692,5.90112057 C15.9257996,5.64176537 15.595497,5.50831639 15.1991208,5.50012894 L13.800748,5.50012894 L13.800748,12.3741055 L8.199252,5.5 L6.80061677,5.5 C6.40417495,5.50825192 6.07413483,5.6417009 5.8104308,5.9010561 C5.54646432,6.1602179 5.41064265,6.48449249 5.40230962,6.87387987 L5.40230962,9.6258945 C5.39135203,10.0154108 5.25415245,10.3391697 4.99018597,10.597171 C4.72641633,10.8548501 4.39637621,10.9891371 4,10.9998388 C4.39637621,11.0107984 4.72648195,11.1450855 4.99012036,11.4027645 C5.25415245,11.6607659 5.39135203,11.9845247 5.40224401,12.374041 L5.40224401,15.1259267 C5.41064265,15.5151207 5.54646432,15.8397176 5.8104308,16.098815 C6.07420044,16.3579768 6.40424056,16.4916191 6.80055116,16.4998066 L8.199252,16.4998066 L8.199252,9.62595896 L13.800748,16.5 L15.1991208,16.5 C15.595497,16.4917481 15.9258652,16.3580412 16.1895692,16.0989439 C16.4533388,15.8397821 16.5893574,15.5152496 16.5976904,15.1261201 L16.5976904,12.3741055 C16.608648,11.9845892 16.7458475,11.6608303 17.009814,11.402829 C17.2735837,11.1451499 17.6036238,11.0108629 18,10.9999033 C17.6036238,10.9891371 17.2735181,10.8549145 17.0098796,10.5972355 L17.009814,10.597171 Z" id="Path" fill="#FFFFFF" transform="translate(11.000000, 11.000000) rotate(-180.000000) translate(-11.000000, -11.000000) "></path>
                        </g>
                    </g>
                    <polygon id="line" fill="#35C9F5" fill-rule="nonzero" points="113.103036 77.5674529 114.04085 77.91459 106.794738 97.4904489 105.856924 97.1433117"></polygon>
                    <polygon id="line" fill="#FFDD97" fill-rule="nonzero" points="83.7233334 40.8150707 83.849829 41.8070379 64.9724659 44.214279 64.8459703 43.2223118"></polygon>
                </g>
            </g>
        </g>
    </g>
</svg>