<?xml version="1.0" encoding="UTF-8" standalone="no"?>
<svg width="359px" height="294px" viewBox="0 0 359 294" version="1.1" xmlns="http://www.w3.org/2000/svg" xmlns:xlink="http://www.w3.org/1999/xlink">
    <!-- Generator: Sketch 50.2 (55047) - http://www.bohemiancoding.com/sketch -->
    <title>2_1_nativescript_with_angular_pro</title>
    <desc>Created with Sketch.</desc>
    <defs></defs>
    <g id="Page-1" stroke="none" stroke-width="1" fill="none" fill-rule="evenodd">
        <g id="nativescript_with_angular_pro" transform="translate(2.000000, 0.000000)">
            <g id="nativescript_with_angular_pro_image" transform="translate(90.000000, 50.000000)">
                <g id="circle_bg" transform="translate(2.000000, 17.000000)">
                    <circle id="circle_2" fill="#0C3E91" cx="87" cy="87" r="83"></circle>
                    <circle id="circle_1" stroke="#0B49AF" cx="87" cy="87" r="87"></circle>
                    <rect id="rectangle" fill="#1550B1" transform="translate(51.677670, 39.677670) rotate(-315.000000) translate(-51.677670, -39.677670) " x="39.1776695" y="27.1776695" width="25" height="25"></rect>
                    <rect id="rectangle" fill="#1550B1" transform="translate(114.677670, 132.677670) rotate(-315.000000) translate(-114.677670, -132.677670) " x="102.17767" y="120.17767" width="25" height="25"></rect>
                    <rect id="rectangle" fill="#1148A3" transform="translate(145.516504, 120.516504) rotate(-315.000000) translate(-145.516504, -120.516504) " x="138.78732" y="113.78732" width="13.4583694" height="13.4583694"></rect>
                </g>
                <g id="lines" transform="translate(0.000000, 37.000000)" fill-rule="nonzero">
                    <polygon id="Path-28" fill="#367BEE" points="178.689767 19.5675403 179.191678 20.4324597 125.249388 51.7350491 124.747477 50.8701297"></polygon>
                    <polygon id="Path-28" fill="#276BDB" points="183.689767 10.5675403 184.191678 11.4324597 130.249388 42.7350491 129.747477 41.8701297"></polygon>
                    <polygon id="Path-28" fill="#185AC8" points="189.689767 0.567540299 190.191678 1.4324597 136.249388 32.7350491 135.747477 31.8701297"></polygon>
                    <polygon id="Path-28" fill="#185AC8" points="54.6897675 109.56754 55.1916782 110.43246 1.24938776 141.735049 0.747476982 140.87013"></polygon>
                    <polygon id="Path-28" fill="#276BDB" points="59.6897675 100.56754 60.1916782 101.43246 6.24938776 132.735049 5.74747698 131.87013"></polygon>
                    <polygon id="Path-28" fill="#367BEE" points="65.6897675 90.5675403 66.1916782 91.4324597 12.2493878 122.735049 11.747477 121.87013"></polygon>
                </g>
                <g id="body" transform="translate(59.000000, 39.000000)">
                    <path d="M13.2844597,26.440367 L94.1055917,26.440367 C98.7447836,26.440367 102.505592,30.2011751 102.505592,34.840367 C102.505592,35.1301647 102.490595,35.4197682 102.460661,35.7080158 L98.9589547,69.4278804 L29.6842366,111.003689 C23.4334141,114.755173 15.3249427,112.729059 11.5734586,106.478236 C10.7061553,105.033112 10.1236287,103.435263 9.85735357,101.771023 L0.250239362,41.7258164 C-0.901522572,34.5272153 4.00040913,27.7579085 11.1990103,26.6061466 C11.8886795,26.4958009 12.5860188,26.440367 13.2844597,26.440367 Z" id="element_2" fill="#3679E6"></path>
                    <polygon id="element_1" fill="#6BA3FF" points="35.4819506 77.3980453 102.290543 37.3120728 99.8316951 61.0409164 37.8945102 96.8209645"></polygon>
                    <g id="badge" transform="translate(77.000000, 34.000000)">
                        <circle id="circle_2" stroke="#B6D2FF" cx="9" cy="9" r="9"></circle>
                        <circle id="circle_1" fill="#1960D2" cx="9" cy="9" r="7"></circle>
                        <polygon id="star" fill="#FFDD97" points="8.99966394 4.5 10.4036785 7.10686505 13.5 7.55049143 11.2713927 9.61025004 11.7816153 12.5 8.99966394 11.1526271 6.21774558 12.5 6.72818263 9.61025004 4.5 7.55049143 7.59745072 7.10686505"></polygon>
                    </g>
                    <polygon id="shadow" fill="#0959DD" points="67.1448288 26.5679851 33.5162375 46.6010612 34.5572474 0 51.5608232 1.58340079 51.5895579 13.537456 67.1445418 13.5329884"></polygon>
                    <polygon id="line" fill="#B6D2FF" fill-rule="nonzero" points="96.1888153 57.766423 96.6957657 58.6283982 77.7550429 69.7679391 77.2480924 68.9059639"></polygon>
                </g>
                <g id="shield" transform="translate(14.000000, 56.000000)">
                    <path d="M57,3.38813179e-21 L109,18.590626 L100.786276,90.9601803 L57,117.003702 L13.2137238,90.9601706 L5,18.5906162 L57,-9.77905347e-06 Z" id="bg_1" fill="#FF7491"></path>
                    <polygon id="bg_2" fill="#FF5579" points="57 -0.000391968401 108.862978 18.5906162 100.649254 90.9601706 57 117.003311"></polygon>
                    <polygon id="bg_3" fill="#E63D60" points="57 7.00062823 102 23.2388256 94.9347893 85.4890505 57 108.022255"></polygon>
                    <polygon id="bg_4" fill="#F65879" transform="translate(34.500000, 57.514827) scale(-1, 1) translate(-34.500000, -57.514827) " points="12 7 57 22.9911174 49.9347893 85.2413423 12 108.029654"></polygon>
                    <polygon id="line" fill="#FF7592" fill-rule="nonzero" points="95.9578923 44.5130325 59.9972183 44.3129662 60.0027817 43.3129816 97.0778888 43.5192481 92.5024455 83.5823075 59.5 103.185707 59.5 65.1447337 60.5 65.1447337 60.5 101.428595 91.5651986 82.9759167"></polygon>
                    <polygon id="line" fill="#F2F7FF" fill-rule="nonzero" points="107.0116 64.9432658 108.005142 65.0567342 104.756075 93.5059006 92.2553483 100.931312 91.7446517 100.071551 103.818828 92.8995098"></polygon>
                    <path d="M16.0633102,11.7083106 L16.0633102,40.5637552 L51.6951704,40.5325176 L53.4584084,24.9969641 L16.0633102,11.7083106 Z M54.5415916,24.320619 L52.5881824,41.5317351 L15.0633102,41.5646322 L15.0633102,10.2916894 L54.5415916,24.320619 Z" id="line" fill="#FFA8BA" fill-rule="nonzero" transform="translate(34.802451, 25.928161) scale(-1, 1) translate(-34.802451, -25.928161) "></path>
                    <polygon id="line" fill="#77AAFF" fill-rule="nonzero" transform="translate(10.474647, 30.631723) scale(-1, 1) translate(-10.474647, -30.631723) " points="19.0335329 15.9389947 0.83257773 9.47113669 1.16742227 8.52886331 20.1167162 15.2626496 15.863766 52.7345832 14.8701452 52.6218103"></polygon>
                    <polygon id="line" fill="#FFFFFF" fill-rule="nonzero" points="18 44.5 18 43.5 57.2334959 43.5 57.2334959 44.5"></polygon>
                    <polygon id="line" fill="#FFFFFF" fill-rule="nonzero" points="57 41.5 57 40.5 97.5030863 40.5 97.5030863 41.5"></polygon>
                    <polygon id="line" fill="#FFA8BA" fill-rule="nonzero" points="56.5 9.21053703 57.5 9.21053703 57.5 104.623155 56.5 104.623155"></polygon>
                    <path d="M60.0227216,66.1569537 L59.8527125,65.1715112 C68.7619441,63.6344854 75.9158152,56.8421972 77.9315597,48.0482831 L78.9062806,48.271709 C76.8005671,57.4581234 69.3297991,64.5512913 60.0227216,66.1569537 Z" id="line" fill="#FF7592" fill-rule="nonzero"></path>
                    <path d="M34.8697851,47.1747191 L35.8540856,46.9982187 C37.5073397,56.2180219 44.7788433,63.4906073 53.9983259,65.1452945 L53.8216714,66.1295674 C44.1905489,64.4010002 36.5968551,56.8061768 34.8697851,47.1747191 Z" id="line" fill="#FFA8BA" fill-rule="nonzero"></path>
                </g>
                <g id="logo" transform="translate(51.000000, 79.000000)">
                    <rect id="circle_2" fill="#FFFFFF" x="0" y="0" width="40" height="40" rx="20"></rect>
                    <path d="M20,2.5 C10.3350169,2.5 2.5,10.3350169 2.5,20 C2.5,29.6649831 10.3350169,37.5 20,37.5 C29.6649831,37.5 37.5,29.6649831 37.5,20 C37.5,10.3350169 29.6649831,2.5 20,2.5 Z M20,1.5 C30.2172679,1.5 38.5,9.78273213 38.5,20 C38.5,30.2172679 30.2172679,38.5 20,38.5 C9.78273213,38.5 1.5,30.2172679 1.5,20 C1.5,9.78273213 9.78273213,1.5 20,1.5 Z" id="circle_1" fill="#FFC4D0" fill-rule="nonzero"></path>
                    <path d="M31.477036,19.7603563 C30.9804019,19.2663204 30.7222707,18.6463684 30.7017782,17.9005001 L30.7017782,12.6310311 C30.6859768,11.8851629 30.4299442,11.2642232 29.9338039,10.7680887 C29.4375402,10.2714605 28.8160994,10.0159247 28.0703459,10.0002469 L25.4394074,10.0002469 L25.4394074,23.1629327 L14.9005927,10 L12.2691604,10 C11.5232835,10.0158012 10.9023365,10.271337 10.4061963,10.7679653 C9.90956218,11.2642232 9.65402339,11.8851629 9.63834541,12.6307842 L9.63834541,17.9005001 C9.61772948,18.6463684 9.35959827,19.2663204 8.86296419,19.7603563 C8.36670045,20.253775 7.74575354,20.5109156 7,20.5314078 C7.74575354,20.5523938 8.3668239,20.8095344 8.86284074,21.3029531 C9.35959827,21.7969889 9.61772948,22.416941 9.63822196,23.1628092 L9.63822196,28.4322783 C9.65402339,29.1775293 9.90956218,29.7990862 10.4061963,30.2952206 C10.90246,30.7914786 11.5234069,31.0473847 12.269037,31.0630625 L14.9005927,31.0630625 L14.9005927,17.9006236 L25.4394074,31.0634328 L28.0703459,31.0634328 C28.8160994,31.0476316 29.4376636,30.791602 29.9338039,30.2954675 C30.4300676,29.7992096 30.6859768,29.1777762 30.7016547,28.4326486 L30.7016547,23.1629327 C30.7222707,22.4170644 30.9804019,21.7971124 31.477036,21.3030765 C31.9732997,20.8096579 32.5942466,20.5525173 33.3400002,20.5315312 C32.5942466,20.5109156 31.9731763,20.2538984 31.4771594,19.7604798 L31.477036,19.7603563 Z" id="Path" fill="#FF5579"></path>
                </g>
                <g id="tale" transform="translate(23.000000, 0.000000)">
                    <polygon id="shape_1" fill="#FCD78A" points="32.5714286 0 63.8102644 0 76 17 20.5360711 17"></polygon>
                    <polygon id="shape_2" fill="#F6C868" transform="translate(21.714286, 25.500000) scale(-1, 1) translate(-21.714286, -25.500000) " points="0 17 31.2388358 17 43.4285714 34 0 34"></polygon>
                    <polygon id="shadow" fill="#EAB23E" transform="translate(31.149719, 18.230832) scale(-1, 1) translate(-31.149719, -18.230832) " points="18.8693179 17 41.6652588 17 43.4303785 19.4616642 18.8690603 19.4233861"></polygon>
                    <polygon id="line" fill="#FFEECB" fill-rule="nonzero" points="39.3095238 20.6428571 40.3095238 20.6428571 40.3095238 30.8571429 30.1587302 30.8571429 30.1587302 29.8571429 39.3095238 29.8571429"></polygon>
                    <polygon id="line" fill="#FFFBF2" fill-rule="nonzero" points="34.3775974 2.93928775 26.7799141 14.2730275 25.9492824 13.7162054 33.8440542 1.93928775 48.0502641 1.93928775 48.0502641 2.93928775"></polygon>
                </g>
                <g id="head" transform="translate(87.000000, 12.000000)">
                    <path d="M8.85377769,62.8052476 L9.06762063,63.7821156 C6.86644562,64.2639675 3.99809284,64.5 1,64.5 L0.5,64.5 L0.5,43.0658716 L1.5,43.0658716 L1.5,63.4977578 C4.24918547,63.4729674 6.85374789,63.2430674 8.85377769,62.8052476 Z" id="line" fill="#FFFFFF" fill-rule="nonzero"></path>
                    <path d="M26.2,26.5432848 C30.1941734,26.4564069 36.9860773,26.4691353 46.5757118,26.5814701 L46.6047073,49.5437876 L39.4169054,49.5264163 L26.1242216,43.9989624 C25.1989761,54.7037915 15.9156251,59.1698113 4.6,59.1698113 C4.6,50.878179 4.6,38.5264052 4.6,22.1144899 C4.60109742,22.1160661 4.6021948,22.1176422 4.60329216,22.1192182 C4.60110039,21.9916931 4.6,21.8639004 4.6,21.7358491 C4.6,9.7314711 12.3269362,1.70964561e-15 26.2,0 C40.0730638,0 47.8,9.7314711 47.8,21.7358491 C40.0145833,21.7358491 32.8145833,21.7358491 26.2,21.7358491 C26.2,23.3699142 26.2,24.9723928 26.2,26.5432848 Z" id="dark" fill="#28CAFB"></path>
                    <path d="M26.2,26.5266144 C30.4857174,26.4598466 37.2853286,26.4797808 46.5988335,26.586417 L46.6142728,49.8036789 L39.0403348,49.8155534 L26.0637975,44.5911975 C25.281183,51.22941 21.1879331,55.3743482 15.3949918,57.4774729 C15.4036563,53.935502 15.4054712,45.628284 15.4004364,32.5558188 C15.3353104,29.7125372 15.4,26.1606843 15.4,21.7358491 C15.4,3.24766446 32.7982438,0.617295752 35.4873101,1.7327281 C43.4751177,5.04609341 47.8,12.7548812 47.8,21.7358491 C40.0145833,21.7358491 32.8145833,21.7358491 26.2,21.7358491 C26.2,23.3641343 26.2,24.9610561 26.2,26.5266144 Z" id="medium" fill="#79E0FF"></path>
                    <rect id="dark" fill="#2E70DD" x="23.8" y="21.7358491" width="25.2" height="9.66037736"></rect>
                    <rect id="medium" fill="#4889F4" x="32.2" y="24.1509434" width="16.8" height="7.24528302"></rect>
                    <polygon id="light" fill="#E2F8FF" transform="translate(36.400000, 15.748881) scale(1, -1) translate(-36.400000, -15.748881) " points="23.8 9.66037736 49 9.66037736 49 21.8373842 23.8 13.384554"></polygon>
                    <path d="M16.3525167,27.8469608 L17.1902248,27.3008425 C18.6420063,29.5277758 21.1050765,30.8962264 23.8,30.8962264 L23.8,31.8962264 C20.7630191,31.8962264 17.986754,30.3537686 16.3525167,27.8469608 Z" id="line" fill="#D8F1FF" fill-rule="nonzero"></path>
                    <ellipse id="circle_2" fill="#28CAFB" cx="23.8" cy="22.9433962" rx="6" ry="6.03773585"></ellipse>
                    <ellipse id="circle_1" fill="#FFFFFF" cx="23.8" cy="22.9433962" rx="3.6" ry="3.62264151"></ellipse>
                    <polygon id="line" fill="#A8C9FF" fill-rule="nonzero" points="46.1368418 24.1990605 47.1368418 24.1990605 47.1368418 29.5613107 46.1368418 29.5613107"></polygon>
                    <polygon id="line" fill="#F0FAFF" fill-rule="nonzero" points="43.7 32.6037736 44.7 32.6037736 44.7 46.5036854 43.7 46.5036854"></polygon>
                    <polygon id="line" fill="#79E0FF" fill-rule="nonzero" points="46.1 13.2830189 47.1 13.2830189 47.1 19.8207547 40.6 19.8207547 40.6 18.8207547 46.1 18.8207547"></polygon>
                </g>
            </g>
        </g>
    </g>
</svg>