<?xml version="1.0" encoding="UTF-8"?>
<svg width="360px" height="294px" viewBox="0 0 360 294" version="1.1" xmlns="http://www.w3.org/2000/svg" xmlns:xlink="http://www.w3.org/1999/xlink">
    <title>15_1_nativescript_vue_vuex copy</title>
    <g id="illustrations" stroke="none" stroke-width="1" fill="none" fill-rule="evenodd">
        <g id="nativescript_vue_vuex-copy" transform="translate(-5.000000, 0.000000)">
            <g id="nativescript_vue_vuex_image" transform="translate(82.000000, 66.000000)">
                <g id="circle_bg">
                    <circle id="circle_2" fill="#0C3E91" cx="98" cy="88" r="83"></circle>
                    <path d="M98,175.5 C49.6750844,175.5 10.5,136.324916 10.5,88 C10.5,39.6750844 49.6750844,0.5 98,0.5 C146.324916,0.5 185.5,39.6750844 185.5,88 C185.5,136.324916 146.324916,175.5 98,175.5 Z M98,174.5 C145.772631,174.5 184.5,135.772631 184.5,88 C184.5,40.2273691 145.772631,1.5 98,1.5 C50.2273691,1.5 11.5,40.2273691 11.5,88 C11.5,135.772631 50.2273691,174.5 98,174.5 Z" id="circle_1" fill="#0B49AF" fill-rule="nonzero"></path>
                    <rect id="rectangle" fill="#1550B1" transform="translate(185.677670, 82.677670) rotate(-315.000000) translate(-185.677670, -82.677670) " x="173.17767" y="70.1776695" width="25" height="25"></rect>
                    <rect id="rectangle" fill="#073581" transform="translate(161.748737, 91.748737) rotate(-315.000000) translate(-161.748737, -91.748737) " x="144.248737" y="74.2487373" width="35" height="35"></rect>
                    <rect id="rectangle" fill="#1550B1" transform="translate(13.677670, 91.435029) rotate(-315.000000) translate(-13.677670, -91.435029) " x="4.17766953" y="81.9350288" width="19" height="19"></rect>
                    <rect id="rectangle" fill="#023386" transform="translate(29.516504, 87.001786) rotate(-315.000000) translate(-29.516504, -87.001786) " x="16.7873196" y="74.2726009" width="25.4583694" height="25.4583694"></rect>
                </g>
            </g>
        </g>
        <g id="nic-thumb" transform="translate(78.000000, 64.000000)">
            <g id="NativeScript-for-the-Angular-Developer">
                <g id="Group" transform="translate(70.777537, 63.866128)" fill="#FFFFFF">
                    <ellipse id="Oval" cx="26.7777628" cy="26.6969175" rx="26.3995553" ry="26.3226863"></ellipse>
                </g>
                <g id="Group" transform="translate(78.622945, 71.314096)" fill="#F9B934">
                    <path d="M20.75768,0.523732044 C19.5437637,0.406335566 18.3216778,0.406335566 17.1077615,0.523732044 L16.5065702,3.44187308 C15.3435942,3.61916572 14.2032049,3.92391739 13.1070279,4.3498989 L11.1232407,2.12272 C10.0131273,2.62632693 8.95443466,3.23535111 7.96254108,3.94212583 L8.9049361,6.76874552 C7.98656951,7.50235372 7.15182186,8.33467079 6.41607134,9.25036333 L3.58167775,8.31071233 C2.8723585,9.29971776 2.26155582,10.3553277 1.75647822,11.4622088 L3.99016106,13.4402197 C3.56293558,14.5332049 3.25729395,15.6702736 3.07948357,16.8298633 L0.153301382,17.4293041 C0.0350815076,18.6396857 0.0350815076,19.8582133 0.153301382,21.0685949 L3.07948357,21.6675566 C3.25729395,22.8276254 3.56293558,23.964215 3.99016106,25.0576793 L1.75647822,27.0356902 C2.26155582,28.1425713 2.8723585,29.1977021 3.58167775,30.1871867 L6.41607134,29.2470565 C7.15182186,30.1632282 7.98656951,30.9950661 8.9049361,31.7286743 L7.96254108,34.555294 C8.95443466,35.2625479 10.0131273,35.8715721 11.1232407,36.3746999 L13.1070279,34.147521 C14.2032049,34.5739816 15.3435942,34.8787333 16.5065702,35.0560259 L17.1077615,37.9736878 C18.3216778,38.0915635 19.5437637,38.0915635 20.75768,37.9736878 L21.3583907,35.0560259 C22.5218473,34.8787333 23.6622366,34.5739816 24.7584135,34.147521 L26.7422007,36.3746999 C27.8523142,35.8715721 28.9105262,35.2625479 29.9029004,34.555294 L28.9600248,31.7286743 C29.8788719,30.9950661 30.713139,30.1632282 31.4493701,29.2470565 L34.2837637,30.1871867 C34.9930829,29.1977021 35.6038856,28.1425713 36.1089632,27.0356902 L33.8747998,25.0576793 C34.3025059,23.964215 34.6081475,22.8276254 34.7859579,21.6675566 L37.7121401,21.0685949 C37.8303599,19.8582133 37.8303599,18.6396857 37.7121401,17.4293041 L34.7859579,16.8298633 C34.6081475,15.6702736 34.3025059,14.5332049 33.8747998,13.4402197 L36.1089632,11.4622088 C35.6038856,10.3553277 34.9930829,9.29971776 34.2837637,8.31071233 L31.4493701,9.25036333 C30.713139,8.33467079 29.8788719,7.50235372 28.9600248,6.76874552 L29.9029004,3.94212583 C28.9105262,3.23535111 27.8523142,2.62632693 26.7422007,2.12272 L24.7584135,4.3498989 C23.6622366,3.92391739 22.5218473,3.61916572 21.3583907,3.44187308 L20.75768,0.523732044 Z M18.9324804,15.4862726 C21.0152647,15.4862726 22.7063856,17.1724694 22.7063856,19.2487099 C22.7063856,21.3254297 21.0152647,23.0116264 18.9324804,23.0116264 C16.8501767,23.0116264 15.1590558,21.3254297 15.1590558,19.2487099 C15.1590558,17.1724694 16.8501767,15.4862726 18.9324804,15.4862726 Z" id="Shape"></path>
                </g>
                <g id="Group" transform="translate(87.323868, 80.375211)" stroke="#FFFFFF" stroke-width="0.5">
                    <ellipse id="Oval" cx="10.231786" cy="10.1876185" rx="9.81176904" ry="9.78319959"></ellipse>
                </g>
                <g id="Android" transform="translate(0.000000, 116.438140)">
                    <g id="Group" transform="translate(0.155031, 0.076677)" fill="#FFFFFF" stroke="#F9B934" stroke-width="0.867708333">
                        <ellipse id="Oval" cx="30.6122196" cy="30.6936686" rx="30.4113419" ry="30.3227916"></ellipse>
                    </g>
                    <g id="Group" transform="translate(19.071624, 10.370704)" fill="#073581">
                        <path d="M23.171576,3.65366591 C23.171576,1.81509331 21.6746049,0.322960108 19.8311437,0.322960108 L3.56053273,0.322960108 C1.71659103,0.322960108 0.220100417,1.81509331 0.220100417,3.65366591 L0.220100417,37.1456833 C0.220100417,38.9837767 1.71659103,40.4763891 3.56053273,40.4763891 L19.8311437,40.4763891 C21.6746049,40.4763891 23.171576,38.9837767 23.171576,37.1456833 L23.171576,3.65366591 Z" id="Path"></path>
                    </g>
                    <g id="Group" transform="translate(22.196176, 14.416786)" fill="#FFFFFF">
                        <rect id="Rectangle" x="0.161300151" y="0.225651258" width="16.819943" height="28.0550804"></rect>
                    </g>
                </g>
                <g id="iPhone" transform="translate(138.403756, 11.020894)">
                    <g id="Group" transform="translate(0.334476, 0.229043)" fill="#073581" stroke="#F9B934" stroke-width="0.867708333">
                        <ellipse id="Oval" cx="30.6122196" cy="30.6936686" rx="30.4113419" ry="30.3227916"></ellipse>
                    </g>
                    <g id="Group" transform="translate(19.251097, 10.523037)" fill="#FFFFFF">
                        <path d="M23.171576,3.65366591 C23.171576,1.81509331 21.6746049,0.322960108 19.8311437,0.322960108 L3.56053273,0.322960108 C1.71659103,0.322960108 0.220100417,1.81509331 0.220100417,3.65366591 L0.220100417,37.1456833 C0.220100417,38.9837767 1.71659103,40.4763891 3.56053273,40.4763891 L19.8311437,40.4763891 C21.6746049,40.4763891 23.171576,38.9837767 23.171576,37.1456833 L23.171576,3.65366591 Z" id="Path"></path>
                    </g>
                    <g id="Group" transform="translate(22.375332, 16.853540)" fill="#1550B1">
                        <rect id="Rectangle" x="0.161300151" y="0.223161236" width="16.819943" height="27.7454974"></rect>
                    </g>
                    <g id="Group" transform="translate(28.530685, 45.543706)" stroke="#555555" stroke-width="0.5">
                        <ellipse id="Oval" cx="2.4162989" cy="2.43897173" rx="2.01550469" ry="2.00963604"></ellipse>
                    </g>
                    <g id="Group" transform="translate(22.106155, 12.994947)" fill="#1550B1">
                        <ellipse id="Oval" cx="1.72379956" cy="1.4140286" rx="1.29272953" ry="1.28896542"></ellipse>
                    </g>
                    <path d="M39.3566458,13.7641381 C39.3566458,13.4085945 39.0668629,13.1196554 38.710281,13.1196554 L26.7724765,13.1196554 C26.4154141,13.1196554 26.1261118,13.4085945 26.1261118,13.7641381 L26.1261118,15.0535827 C26.1261118,15.4091263 26.4154141,15.6980654 26.7724765,15.6980654 L38.710281,15.6980654 C39.0668629,15.6980654 39.3566458,15.4091263 39.3566458,15.0535827 L39.3566458,13.7641381 Z" id="Path" fill="#1550B1"></path>
                </g>
                <g id="Group" transform="translate(134.457136, 66.529480) rotate(50.080019) translate(-134.457136, -66.529480) translate(127.957136, 55.029480)" fill="#FFFFFF">
                    <polygon id="Path" points="12.0467786 8.53702001 7.8543512 8.53702001 7.8543512 22.5650019 4.48205153 22.5650019 4.48205153 8.53702001 0.289624099 8.53702001 6.16820137 0.166506428"></polygon>
                </g>
                <g id="Group" transform="translate(64.057336, 120.621679) rotate(-129.919981) translate(-64.057336, -120.621679) translate(57.557336, 109.121679)" fill="#FFFFFF">
                    <polygon id="Path" points="12.0504967 8.53108213 7.85806925 8.53108213 7.85806925 22.5590641 4.48576958 22.5590641 4.48576958 8.53108213 0.293342149 8.53108213 6.17191942 0.160568543"></polygon>
                </g>
                <g id="NativeScript" transform="translate(112.453052, 116.917309)">
                    <ellipse id="Oval" fill="#FFFFFF" cx="19.4538974" cy="19.4504402" rx="19.2919457" ry="19.2357724"></ellipse>
                    <g id="Group" transform="translate(8.687300, 10.821681)" fill="#3C5AFD">
                        <path d="M6.47168509,0.0689279618 L4.3267665,0.0689279618 C3.69353452,0.0923052763 3.20258604,0.299490489 2.80823739,0.693092227 C2.40342375,1.09632582 2.19513038,1.60099489 2.1822504,2.20719975 L2.1822504,6.49006424 C2.16554668,7.09626911 1.95514019,7.60013552 1.55032655,8.00166348 C1.14591541,8.40268977 0.63967196,8.61158062 0.0317974421,8.62833604 C0.63967196,8.64549278 1.14591541,8.85438363 1.55032655,9.25540993 C1.95514019,9.65693788 2.16554668,10.1608043 2.1822504,10.7670092 L2.1822504,15.0498736 C2.19513038,15.6555769 2.40342375,16.1607476 2.80823739,16.5639812 C3.21264853,16.9672148 3.71879135,17.175303 4.3267665,17.1881454 L6.47168509,17.1881454 L6.47168509,6.49006424 L15.0620257,17.1881454 L17.2065418,17.1881454 C17.8144163,17.175303 18.3210623,16.9672148 18.7254734,16.5639812 C19.1298845,16.1607476 19.3385804,15.6555769 19.3514604,15.0498736 L19.3514604,10.7670092 C19.3681641,10.1608043 19.5785706,9.65693788 19.9833842,9.25540993 C20.3877954,8.85438363 20.8940388,8.64549278 21.5019133,8.62833604 C20.8940388,8.61158062 20.3877954,8.40268977 19.9833842,8.00166348 C19.5785706,7.60013552 19.3681641,7.09626911 19.3514604,6.49006424 L19.3514604,2.20719975 C19.3385804,1.60099489 19.1298845,1.09632582 18.7254734,0.693092227 C18.3311247,0.299490489 17.8397738,0.0923052763 17.2065418,0.0689279618 L15.0620257,0.0689279618 L15.0620257,10.7670092 L6.47168509,0.0689279618 Z" id="Path"></path>
                    </g>
                </g>
                <g id="Angular" transform="translate(48.820704, 18.176415)">
                    <g id="Group" transform="translate(0.176849, 0.264501)" fill="#FFFFFF">
                        <ellipse id="Oval" cx="19.4538974" cy="19.4504402" rx="19.2919457" ry="19.2357724"></ellipse>
                    </g>
                    <g id="Group" transform="translate(6.992641, 6.547321)" fill-rule="nonzero">
                        <polygon id="Path" fill="#B3B3B3" points="12.3969202 0.00370503669 0.00907851267 4.35061828 1.96669087 20.5334818 12.4100101 26.2566056 22.9073043 20.4559075 24.864146 4.27363351"></polygon>
                        <polygon id="Path" fill="#A6120D" points="23.6286238 5.20891319 12.3679956 1.38011564 12.3679956 24.8892155 21.8048984 19.6817443 23.6285182 5.20891319"></polygon>
                        <polygon id="Path" fill="#DD1B16" points="1.39917826 5.27789845 3.07669739 19.750898 12.3677845 24.8892155 12.3677845 1.37972619 1.39927327 5.27780371"></polygon>
                        <path d="M15.4676743,13.8951507 L12.3679956,15.3404308 L9.10102949,15.3404308 L7.56530407,19.1705124 L4.70887673,19.2231408 L12.3679956,2.23383188 L15.4676743,13.8952559 L15.4676743,13.8951507 Z M15.1680834,13.1675109 L12.3886862,7.68107787 L10.1087127,13.0730957 L12.3678901,13.0730957 L15.1680834,13.1676162 L15.1680834,13.1675109 Z" id="Shape" fill="#F2F2F2"></path>
                        <polygon id="Path" fill="#B3B3B3" points="12.3678901 2.23372662 12.3884751 7.68107787 14.9753233 13.0773059 12.3738016 13.0773059 12.3678901 15.3369573 15.9653035 15.3403255 17.6466229 19.2236671 20.3798886 19.2741903"></polygon>
                    </g>
                </g>
            </g>
        </g>
    </g>
</svg>