<?xml version="1.0" encoding="UTF-8" standalone="no"?>
<svg width="360px" height="294px" viewBox="0 0 360 294" version="1.1" xmlns="http://www.w3.org/2000/svg" xmlns:xlink="http://www.w3.org/1999/xlink">
    <!-- Generator: Sketch 50.2 (55047) - http://www.bohemiancoding.com/sketch -->
    <title>6_1_nativescript_plugins</title>
    <desc>Created with Sketch.</desc>
    <defs></defs>
    <g id="illustrations" stroke="none" stroke-width="1" fill="none" fill-rule="evenodd">
        <g id="nativescript_plugins">
            <g id="nativescript_plugins_image" transform="translate(92.000000, 28.000000)">
                <g id="circle_bg" transform="translate(0.000000, 38.000000)">
                    <circle id="circle_2" fill="#0C3E91" cx="88" cy="88" r="83"></circle>
                    <rect id="rectangle" fill="#1550B1" transform="translate(135.677670, 83.677670) rotate(-315.000000) translate(-135.677670, -83.677670) " x="123.17767" y="71.1776695" width="25" height="25"></rect>
                    <rect id="rectangle" fill="#1550B1" transform="translate(79.177670, 24.177670) rotate(-315.000000) translate(-79.177670, -24.177670) " x="71.1776695" y="16.1776695" width="16" height="16"></rect>
                    <rect id="rectangle" fill="#1148A3" transform="translate(154.516504, 59.516504) rotate(-315.000000) translate(-154.516504, -59.516504) " x="147.78732" y="52.7873196" width="13.4583694" height="13.4583694"></rect>
                    <rect id="rectangle" fill="#1148A3" transform="translate(31.748737, 106.748737) rotate(-315.000000) translate(-31.748737, -106.748737) " x="14.2487373" y="89.2487373" width="35" height="35"></rect>
                    <path d="M88,175.5 C39.6750844,175.5 0.5,136.324916 0.5,88 C0.5,39.6750844 39.6750844,0.5 88,0.5 C136.324916,0.5 175.5,39.6750844 175.5,88 C175.5,136.324916 136.324916,175.5 88,175.5 Z M88,174.5 C135.772631,174.5 174.5,135.772631 174.5,88 C174.5,40.2273691 135.772631,1.5 88,1.5 C40.2273691,1.5 1.5,40.2273691 1.5,88 C1.5,135.772631 40.2273691,174.5 88,174.5 Z" id="circle_1" fill="#0B49AF" fill-rule="nonzero"></path>
                </g>
                <g id="logo" transform="translate(10.000000, 65.000000)">
                    <polygon id="bg_2" fill="#0B3D91" points="0.701298701 11.1251707 27.3506494 0.701149425 54 11.1251707 49.4613452 47.9474629 27.3961143 61 4.94960504 47.9474629"></polygon>
                    <polygon id="bg_1" fill="#154FAF" transform="translate(13.324675, 30.149425) scale(-1, 1) translate(-13.324675, -30.149425) " points="0 0 26.6493506 10.4240213 22.1106958 47.2463135 0.045464936 60.2988506"></polygon>
                    <rect id="line" fill="#1860D7" x="26" y="1" width="1" height="58.5"></rect>
                    <path d="M1.08170292,11.0746874 L5.1842715,46.6337941 L26.690482,59.1395521 L47.8277088,46.6359695 L52.2112126,11.0724242 L26.6493506,1.07377934 L1.08170292,11.0746874 Z M0,10.4240213 L26.6493506,0 L53.2987013,10.4240213 L48.7600465,47.2463135 L26.6948156,60.2988506 L4.24830633,47.2463135 L0,10.4240213 Z" id="stroke" fill="#1860D7" fill-rule="nonzero"></path>
                    <path d="M38.8446655,27.1425626 C39.3337361,27.626401 39.9399491,27.8759299 40.6890657,27.8965248 L40.6893123,28.8961403 C39.9401117,28.9171076 39.3338934,29.1667885 38.844522,29.6506835 C38.3561108,30.1338726 38.104972,30.7331469 38.0845198,31.4620849 L38.0844079,37.6122129 C38.0633413,38.6079482 37.7120649,39.4556754 37.0375643,40.1264657 C36.3636399,40.796683 35.5125019,41.1454835 34.5019582,41.1666667 L31.1804664,41.1666667 L19.573676,26.7495472 L19.573676,41.1662352 L19.073676,41.1662352 L15.9803721,41.1661259 C14.9805481,41.1452188 14.1300732,40.7966009 13.4561185,40.1263534 C12.7813686,39.4559823 12.4301979,38.6082217 12.4088421,37.6012054 L12.4090328,31.475749 C12.3885127,30.7329743 12.1373955,30.1337516 11.648841,29.6505408 C11.1597456,29.166678 10.5534502,28.9169653 9.80419418,28.8959965 L9.80452305,27.8963788 C10.5533944,27.8759138 11.1595478,27.6263795 11.6489845,27.14242 C12.1373957,26.6592309 12.3885345,26.0599565 12.4089867,25.3310185 L12.4090984,19.1808975 C12.4301677,18.1843735 12.7811504,17.3372171 13.4557659,16.6668131 C14.1295118,15.9961065 14.9798948,15.6476277 15.9909698,15.6264368 L19.3130415,15.6264368 L30.9198305,30.0436897 L30.9198305,15.6267244 L31.4198305,15.6267244 L34.5124096,15.6268337 C35.5129146,15.6477516 36.3638552,15.9962783 37.0375643,16.6667816 C37.7121199,17.3376265 38.0633288,18.18486 38.0846644,19.1917542 L38.0846644,25.3238845 C38.1065009,26.0635707 38.3575737,26.6606783 38.8446655,27.1425626 Z M38.1413703,27.8534606 C37.4664993,27.1858045 37.1123681,26.3407246 37.0848551,25.3448264 L37.0847778,19.2024029 C37.0689803,18.4608111 36.8203921,17.8611333 36.3322782,17.3757043 C35.8441709,16.8899197 35.2394847,16.6422534 34.5019582,16.6267244 L31.9198305,16.6267244 L31.9198305,32.8804801 L18.8343036,16.6264281 L16.0015017,16.6263258 C15.2534852,16.6420854 14.6493268,16.8896637 14.1609638,17.3758235 C13.672895,17.8608456 13.4245584,18.4602481 13.4089867,19.1914666 L13.4087937,25.3449095 C13.3811155,26.340787 13.0269826,27.1858289 12.352191,27.8534056 C12.1361104,28.0670681 11.9019716,28.2481495 11.6506374,28.3964616 C11.9019965,28.5448172 12.1361063,28.7259242 12.3520918,28.9395989 C13.0269829,29.6071081 13.3811375,30.4522017 13.4088421,31.4619411 L13.4087285,37.5905479 C13.4245417,38.332261 13.6730925,38.9322871 14.1610961,39.4171238 C14.6496431,39.9029834 15.254008,40.1507184 15.9908252,40.1662352 L18.573676,40.1662352 L18.573676,23.9127775 L31.6592015,40.1666753 L34.4914245,40.1667776 C35.2389942,40.1510249 35.8440764,39.9030593 36.3324104,39.4174114 C36.8202839,38.9322217 37.0689533,38.3321135 37.0845198,37.6016369 L37.0847128,31.4481939 C37.1123909,30.4523164 37.4665239,29.6072745 38.1413155,28.9396978 C38.3573946,28.7260368 38.591541,28.5449462 38.8428989,28.3966047 C38.5915201,28.2482739 38.357385,28.0671642 38.1413703,27.8534606 Z" fill="#6BA1F8" fill-rule="nonzero"></path>
                </g>
                <g id="bg_lines" transform="translate(9.000000, 0.000000)">
                    <rect id="Rectangle-8" fill="#FFFFFF" x="78" y="11" width="1" height="65"></rect>
                    <rect id="Rectangle-8" fill="#FFFFFF" x="78" y="175" width="1" height="29"></rect>
                    <rect id="Rectangle-8" fill="#FFDD9A" x="54" y="23" width="1" height="26"></rect>
                    <rect id="Rectangle-8" fill="#6094E9" x="48" y="35" width="1" height="26"></rect>
                    <rect id="Rectangle-8" fill="#6094E9" x="12" y="128" width="1" height="18"></rect>
                    <rect id="Rectangle-8" fill="#145FDA" x="54" y="54" width="1" height="17"></rect>
                    <rect id="Rectangle-8" fill="#145FDA" x="36" y="52" width="1" height="17"></rect>
                    <rect id="Rectangle-8" fill="#8FB6F4" x="36" y="143" width="1" height="8"></rect>
                    <rect id="Rectangle-8" fill="#4B86E7" x="42" y="144" width="1" height="6"></rect>
                    <rect id="Rectangle-8" fill="#145FDA" x="126" y="57" width="1" height="17"></rect>
                    <rect id="Rectangle-8" fill="#145FDA" x="102" y="11" width="1" height="13"></rect>
                    <rect id="Rectangle-8" fill="#145FDA" x="114" y="25" width="1" height="13"></rect>
                    <rect id="Rectangle-8" fill="#145FDA" x="48" y="20" width="1" height="10"></rect>
                    <rect id="Rectangle-8" fill="#145FDA" x="66" y="11" width="1" height="13"></rect>
                    <rect id="Rectangle-8" fill="#6094E9" x="126" y="115" width="1" height="17"></rect>
                    <rect id="Rectangle-8" fill="#6094E9" x="138" y="133" width="1" height="17"></rect>
                    <rect id="Rectangle-8" fill="#226BE5" x="156" y="120" width="1" height="25"></rect>
                    <rect id="Rectangle-8" fill="#145FDA" x="96" y="179" width="1" height="17"></rect>
                    <rect id="Rectangle-8" fill="#145FDA" x="90" y="198" width="1" height="17"></rect>
                    <rect id="Rectangle-8" fill="#ACC7F4" x="126" y="182" width="1" height="14"></rect>
                    <rect id="Rectangle-8" fill="#145FDA" x="42" y="43" width="1" height="25"></rect>
                    <rect id="Rectangle-8" fill="#FFFFFF" x="102" y="31" width="1" height="27"></rect>
                    <rect id="Rectangle-8" fill="#ACC7F4" x="84" y="0" width="1" height="65"></rect>
                    <rect id="Rectangle-8" fill="#ACC7F4" x="144" y="92" width="1" height="65"></rect>
                    <rect id="Rectangle-8" fill="#145FDA" x="96" y="17" width="1" height="46"></rect>
                    <rect id="Rectangle-8" fill="#145FDA" x="138" y="80" width="1" height="46"></rect>
                    <rect id="Rectangle-8" fill="#6094E9" x="108" y="18" width="1" height="27"></rect>
                    <rect id="Rectangle-8" fill="#6094E9" x="120" y="36" width="1" height="27"></rect>
                    <rect id="Rectangle-8" fill="#6094E9" x="60" y="8" width="1" height="55"></rect>
                    <rect id="Rectangle-8" fill="#FFBBCA" x="54" y="188" width="1" height="12"></rect>
                    <rect id="Rectangle-8" fill="#76FAD3" x="90" y="181" width="1" height="12"></rect>
                    <rect id="Rectangle-8" fill="#8FB6F4" x="102" y="184" width="1" height="19"></rect>
                    <rect id="Rectangle-8" fill="#145FDA" x="60" y="184" width="1" height="21"></rect>
                    <rect id="Rectangle-8" fill="#145FDA" x="42" y="179" width="1" height="17"></rect>
                    <rect id="Rectangle-8" fill="#145FDA" x="36" y="177" width="1" height="12"></rect>
                    <rect id="Rectangle-8" fill="#145FDA" x="24" y="152" width="1" height="21"></rect>
                    <rect id="Rectangle-8" fill="#6094E9" x="24" y="134" width="1" height="11"></rect>
                    <rect id="Rectangle-8" fill="#145FDA" x="18" y="127" width="1" height="14"></rect>
                    <rect id="Rectangle-8" fill="#226CE6" x="18" y="148" width="1" height="22"></rect>
                    <rect id="Rectangle-8" fill="#226CE6" x="6" y="124" width="1" height="37"></rect>
                    <rect id="Rectangle-8" fill="#8FB6F4" x="30" y="174" width="1" height="10"></rect>
                    <rect id="Rectangle-8" fill="#145FDA" x="30" y="129" width="1" height="23"></rect>
                    <rect id="Rectangle-8" fill="#ACC7F4" x="72" y="4" width="1" height="65"></rect>
                    <rect id="Rectangle-8" fill="#8FB6F4" x="66" y="28" width="1" height="44"></rect>
                    <rect id="Rectangle-8" fill="#ACC7F4" x="72" y="174" width="1" height="42"></rect>
                    <rect id="Rectangle-8" fill="#8FB6F4" x="66" y="181" width="1" height="20"></rect>
                    <rect id="Rectangle-8" fill="#2369DB" x="84" y="182" width="1" height="25"></rect>
                    <rect id="Rectangle-8" fill="#FFDD9A" x="108" y="186" width="1" height="11"></rect>
                    <rect id="Rectangle-8" fill="#145FDA" x="114" y="187" width="1" height="11"></rect>
                    <rect id="Rectangle-8" fill="#6094E9" x="120" y="185" width="1" height="8"></rect>
                    <rect id="Rectangle-8" fill="#6094E9" x="132" y="179" width="1" height="8"></rect>
                    <rect id="Rectangle-8" fill="#FFDD9A" x="48" y="180" width="1" height="11"></rect>
                    <rect id="Rectangle-8" fill="#8FB6F4" x="90" y="7" width="1" height="45"></rect>
                    <rect id="Rectangle-8" fill="#E9A5FF" x="90" y="57" width="1" height="15"></rect>
                    <rect id="Rectangle-8" fill="#E9A5FF" x="12" y="153" width="1" height="15"></rect>
                    <rect id="Rectangle-8" fill="#76FAD3" x="60" y="66" width="1" height="8"></rect>
                    <rect id="Rectangle-8" fill="#FFDD9A" x="108" y="52" width="1" height="11"></rect>
                    <rect id="Rectangle-8" fill="#2369DB" x="114" y="45" width="1" height="26"></rect>
                    <rect id="Rectangle-8" fill="#8FB6F4" x="132" y="67" width="1" height="26"></rect>
                    <rect id="Rectangle-8" fill="#226CE6" x="132" y="114" width="1" height="26"></rect>
                    <rect id="Rectangle-8" fill="#226CE6" x="150" y="103" width="1" height="26"></rect>
                    <rect id="Rectangle-8" fill="#226CE6" x="0" y="114" width="1" height="26"></rect>
                </g>
                <g id="puzzles_secondary" transform="translate(0.000000, 32.000000)">
                    <g id="puzzle" transform="translate(0.000000, 145.000000)">
                        <path d="M8,3.80494622 L18.5806073,3.80494622 C18.5775096,3.08424005 18.5759608,2.13834201 18.5759608,0.967252097 C18.4230771,-0.724100673 20.2133604,-4 23.5,-4 C26.7866396,-4 28.5089526,-0.724100673 28.4305389,0.967252097 C28.3774895,2.1115058 28.3774895,3.05740384 28.4305389,3.80494622 L39,3.80494622 L39,30.8 C39,33.1195959 37.1195959,35 34.8,35 L8,35 L8,24.3665991 C9.01683205,24.3658923 9.95750172,24.3655389 10.822009,24.3655389 C13.0396363,24.3655389 15.7258967,22.4965413 15.7254805,19.3985093 C15.7250643,16.3004772 13.1175566,14.4421778 10.8206759,14.4421778 C9.8819479,14.4421778 8.94172259,14.4400444 8,14.4357776 L8,3.80494622 Z" id="bg" fill="#2369DB" transform="translate(23.500000, 15.500000) scale(1, -1) rotate(-270.000000) translate(-23.500000, -15.500000) "></path>
                        <path d="M7.05645363,3.44354637 L7.05645363,2.44354637 L9.80211867,2.44354637 C12.3836236,2.44354637 14.4763469,4.53626962 14.4763469,7.11777458 L14.4763469,9.97634687 L13.4763469,9.97634687 L13.4763469,7.11777458 C13.4763469,5.08855437 11.8313389,3.44354637 9.80211867,3.44354637 L7.05645363,3.44354637 Z" id="line" fill="#6197F3" fill-rule="nonzero" transform="translate(10.766400, 6.209947) scale(-1, -1) rotate(-270.000000) translate(-10.766400, -6.209947) "></path>
                        <polygon id="line" fill="#327AF1" fill-rule="nonzero" points="1.5 33.5 12 33.5 12 34.5 0.5 34.5 0.5 23 1.5 23"></polygon>
                    </g>
                    <g id="puzzle" transform="translate(155.000000, 114.000000)">
                        <path d="M2.5,6.90342431 L10.0088181,6.90342431 C10.0066197,6.40447388 10.0055205,5.74962139 10.0055205,4.93886684 C9.89702247,3.7679303 11.1675461,1.5 13.5,1.5 C15.8324539,1.5 17.0547406,3.7679303 16.9990921,4.93886684 C16.9614441,5.73104248 16.9614441,6.38589497 16.9990921,6.90342431 L24.5,6.90342431 L24.5,25.56 C24.5,27.1837172 23.1837172,28.5 21.56,28.5 L2.5,28.5 L2.5,21.1384148 C3.22162274,21.1379255 3.88919477,21.1376808 4.50271606,21.1376808 C6.07651611,21.1376808 7.98289442,19.8437594 7.98259907,17.698968 C7.98230371,15.5541766 6.13181437,14.2676615 4.50177002,14.2676615 C3.83557593,14.2676615 3.16831926,14.2661846 2.5,14.2632307 L2.5,6.90342431 Z" id="bg" fill="#0C9068" transform="translate(13.500000, 15.000000) scale(-1, -1) rotate(-270.000000) translate(-13.500000, -15.000000) "></path>
                        <polygon id="line" fill="#17B082" fill-rule="nonzero" points="8 23.5 11.5 23.5 11.5 24.5 7 24.5 7 20 8 20"></polygon>
                        <path d="M23,1.5 L23,0.5 L25.745665,0.5 C28.32717,0.5 30.4198932,2.59272325 30.4198932,5.17422821 L30.4198932,8.0328005 L29.4198932,8.0328005 L29.4198932,5.17422821 C29.4198932,3.145008 27.7748852,1.5 25.745665,1.5 L23,1.5 Z" id="line" fill="#336FD4" fill-rule="nonzero" transform="translate(26.709947, 4.266400) scale(-1, -1) rotate(-180.000000) translate(-26.709947, -4.266400) "></path>
                    </g>
                    <g id="puzzle" transform="translate(149.000000, 0.000000)">
                        <path d="M23,1.5 L23,0.5 L27.7296001,0.5 C31.9768907,0.5 35.4200001,3.94310937 35.4200001,8.19040002 L35.4200001,13.1144907 L34.4200001,13.1144907 L34.4200001,8.19040002 C34.4200001,4.49539412 31.424606,1.5 27.7296001,1.5 L23,1.5 Z" id="line" fill="#336FD4" fill-rule="nonzero"></path>
                        <path d="M0,12.8049462 L10.5806073,12.8049462 C10.5775096,12.08424 10.5759608,11.138342 10.5759608,9.9672521 C10.4230771,8.27589933 12.2133604,5 15.5,5 C18.7866396,5 20.5089526,8.27589933 20.4305389,9.9672521 C20.3774895,11.1115058 20.3774895,12.0574038 20.4305389,12.8049462 L31,12.8049462 L31,39.8 C31,42.1195959 29.1195959,44 26.8,44 L0,44 L0,33.3665991 C1.01683205,33.3658923 1.95750172,33.3655389 2.822009,33.3655389 C5.03963633,33.3655389 7.72589668,31.4965413 7.7254805,28.3985093 C7.72506433,25.3004772 5.11755662,23.4421778 2.82067594,23.4421778 C1.8819479,23.4421778 0.941722588,23.4400444 0,23.4357776 L0,12.8049462 Z" id="bg" fill="#2369DB" transform="translate(15.500000, 24.500000) scale(1, -1) translate(-15.500000, -24.500000) "></path>
                        <polygon id="line" fill="#498CFA" fill-rule="nonzero" points="3.5 33.5 9 33.5 9 34.5 2.5 34.5 2.5 28 3.5 28"></polygon>
                    </g>
                    <g id="puzzle" transform="translate(9.000000, 21.000000)">
                        <path d="M0,18.5 L0,17.5 L2.74566504,17.5 C5.32717,17.5 7.41989325,19.5927233 7.41989325,22.1742282 L7.41989325,25.0328005 L6.41989325,25.0328005 L6.41989325,22.1742282 C6.41989325,20.145008 4.77488525,18.5 2.74566504,18.5 L0,18.5 Z" id="line" fill="#558DEB" fill-rule="nonzero" transform="translate(3.709947, 21.266400) scale(-1, -1) translate(-3.709947, -21.266400) "></path>
                        <path d="M5.5,2.90342431 L13.0088181,2.90342431 C13.0066197,2.40447388 13.0055205,1.74962139 13.0055205,0.938866837 C12.8970225,-0.232069696 14.1675461,-2.5 16.5,-2.5 C18.8324539,-2.5 20.0547406,-0.232069696 19.9990921,0.938866837 C19.9614441,1.73104248 19.9614441,2.38589497 19.9990921,2.90342431 L27.5,2.90342431 L27.5,21.56 C27.5,23.1837172 26.1837172,24.5 24.56,24.5 L5.5,24.5 L5.5,17.1384148 C6.22162274,17.1379255 6.88919477,17.1376808 7.50271606,17.1376808 C9.07651611,17.1376808 10.9828944,15.8437594 10.9825991,13.698968 C10.9823037,11.5541766 9.13181437,10.2676615 7.50177002,10.2676615 C6.83557593,10.2676615 6.16831926,10.2661846 5.5,10.2632307 L5.5,2.90342431 Z" id="bg" fill="#BA39E6" transform="translate(16.500000, 11.000000) rotate(-270.000000) translate(-16.500000, -11.000000) "></path>
                        <polygon id="line" fill="#CF66F3" fill-rule="nonzero" transform="translate(20.250000, 4.250000) rotate(-180.000000) translate(-20.250000, -4.250000) " points="19 5.5 22.5 5.5 22.5 6.5 18 6.5 18 2 19 2"></polygon>
                    </g>
                </g>
                <g id="puzzles_center" transform="translate(40.000000, 69.000000)">
                    <path d="M48,56 L62.9609928,56 C62.9609928,54.7541289 62.9609928,53.4284354 62.9609928,52.0229193 C62.9609928,46.6666654 67.6934581,44.9904276 70,44.9904276 C73.6467533,44.9904276 76.9981842,47.7484564 77.0098824,52.0229193 C77.0020836,53.6673474 77.0020836,54.993041 77.0098824,56 L92,56 L92,71.6234242 C90.6812523,71.2041916 89.3392308,70.9975843 87.9739355,71.0036025 C83.0455028,70.8051828 80.0149652,74.027374 80.0149652,78 C80.0149652,81.972626 83.3244232,85.3256386 87.9739355,85.0018005 C89.3253939,84.9995829 90.6674154,84.9984741 92,84.9984741 L92,100 L76.9981842,100 C76.9981842,98.6407317 76.9981842,97.3072267 76.9981842,95.9994849 C76.9981842,92.4319815 74.1644057,89.0091427 70,89.0091427 C65.8355943,89.0091427 63.0110411,92.4319815 63.0110411,95.9994849 C63.0110411,97.1871689 63.2918988,98.5206739 63.8536143,100 L48,100 L48,85.0018005 C49.4432455,85.0008036 50.7783895,85.0003052 52.0054321,85.0003052 C55.1530322,85.0003052 58.9657888,82.3641214 58.9651981,77.9944091 C58.9646074,73.6246968 55.2636287,71.0036025 52.00354,71.0036025 C50.6711519,71.0036025 49.3366385,71.0005934 48,70.9945753 L48,56 Z" id="puzzle" fill="#D457FF"></path>
                    <path d="M0,89.5 L0,88.5 L5.91989325,88.5 C11.1665984,88.5 15.4198932,92.7532949 15.4198932,98 L15.4198932,104.163331 L14.4198932,104.163331 L14.4198932,98 C14.4198932,93.3055796 10.6143136,89.5 5.91989325,89.5 L0,89.5 Z" id="line" fill="#6BA3FF" fill-rule="nonzero" transform="translate(7.709947, 96.331666) scale(-1, -1) translate(-7.709947, -96.331666) "></path>
                    <path d="M4,56 L19.0321285,56 C19.0180702,55.0811917 19.0110411,53.7524126 19.0110411,52.0136627 C19.0110411,47.9836515 22.2626444,45.0115496 26.0299312,45.0115496 C28.9103653,45.0115496 33.0444723,46.9601225 32.9981842,52.0136627 C32.9981842,53.0457072 33.0136136,54.3744863 33.0444723,56 L48,56 L48,70.999373 C48.8946768,71.0021927 50.2323177,71.0005934 52.0129226,70.9945753 C54.2452816,70.862624 58.9772786,72.8051663 58.9772786,78 C58.9772786,83.1948337 54.3329823,85.0018005 52.0129226,85.0018005 C50.2561375,84.9995829 48.9184966,84.9984741 48,84.9984741 L48,100 L32.9981842,100 C32.9981842,103.992965 32.9981842,105.335576 32.9981842,104.027834 C32.9981842,107.397749 30.1943369,111.003034 26.0299312,111.003034 C21.8655255,111.003034 19.0110411,107.529518 19.0110411,104.027834 C19.0110411,105.215518 19.0110411,103.872907 19.0110411,100 L10,100 C6.6862915,100 4,97.3137085 4,94 L4,85.0018005 C5.44324549,85.0008036 6.77838953,85.0003052 8.00543213,85.0003052 C11.1530322,85.0003052 14.9657888,82.3641214 14.9651981,77.9944091 C14.9646074,73.6246968 11.2636287,71.0036025 8.00354004,71.0036025 C6.67115186,71.0036025 5.33663851,71.0005934 4,70.9945753 L4,56 Z" id="puzzle" fill="#FF8DA5"></path>
                    <path d="M52,82.5 L52,81.5 C53.9329966,81.5 55.5,79.9329966 55.5,78 C55.5,76.0670034 53.9329966,74.5 52,74.5 L52,73.5 C54.4852814,73.5 56.5,75.5147186 56.5,78 C56.5,80.4852814 54.4852814,82.5 52,82.5 Z" id="line" fill="#FFBBCA" fill-rule="nonzero"></path>
                    <rect id="line" fill="#FFBBCA" x="6" y="59" width="11" height="1"></rect>
                    <path d="M48,12 L63.0176361,12 C63.0132394,10.9834583 63.0110411,9.64928806 63.0110411,7.99748914 C62.7940449,5.61186986 65.3350922,0.99127932 70,0.99127932 C74.6649078,0.99127932 77.1094812,5.61186986 76.9981842,7.99748914 C76.9228883,9.61143613 76.9228883,10.9456064 76.9981842,12 L86,12 C89.3137085,12 92,14.6862915 92,18 L92,26.999373 C92.8946768,27.0021927 94.2323177,27.0005934 96.0129226,26.9945753 C97.5955669,26.9945753 102.977279,28.8051663 102.977279,34 C102.977279,39.1948337 98.1042964,41.0018005 96.0129226,41.0018005 C94.2561375,40.9995829 92.9184966,40.9984741 92,40.9984741 L92,56 L76.9981842,56 C76.9981842,54.6407317 76.9981842,53.3072267 76.9981842,51.9994849 C76.9981842,48.4319815 74.1644057,45.0091427 70,45.0091427 C65.8355943,45.0091427 63.0110411,48.4319815 63.0110411,51.9994849 C63.0110411,53.1871689 63.0110411,54.5206739 63.0110411,56 L48,56 L48,41.0018005 C49.4432455,41.0008036 50.7783895,41.0003052 52.0054321,41.0003052 C55.1530322,41.0003052 58.9657888,38.3641214 58.9651981,33.9944091 C58.9646074,29.6246968 55.2636287,27.0036025 52.00354,27.0036025 C50.6711519,27.0036025 49.3366385,27.0005934 48,26.9945753 L48,12 Z" id="puzzle" fill="#FFC24B"></path>
                    <path d="M81.0801068,8.5 L81.0801068,7.5 L87,7.5 C92.2467051,7.5 96.5,11.7532949 96.5,17 L96.5,23.1633311 L95.5,23.1633311 L95.5,17 C95.5,12.3055796 91.6944204,8.5 87,8.5 L81.0801068,8.5 Z" id="line" fill="#FFDD9A" fill-rule="nonzero"></path>
                    <path d="M10,12 L19.0594445,12 C19.0271755,13.3828839 19.0110411,14.7184356 19.0110411,16.0066549 C19.0110411,20.4488622 22.7939418,22.9954681 26,22.9954681 C29.2060582,22.9954681 32.8389021,20.6260624 32.9981842,16.05101 C33.0271499,14.2934509 33.0416327,12.9431142 33.0416327,12 L48,12 L48,27.0057177 C49.3566335,26.9982894 50.7022542,26.9982894 52.0368623,27.0057177 C56.689585,27.0057177 58.9941459,30.8712831 58.9941459,34 C58.9941459,37.1287169 56.6094762,40.8533408 52.0027466,41.0003052 C50.502289,41.0003052 49.1680401,41.0008036 48,41.0018005 L48,56 L32.9981842,56 C32.9981842,54.6407317 32.9981842,53.3072267 32.9981842,51.9994849 C32.9981842,48.4319815 30.1644057,45.0091427 26,45.0091427 C21.8355943,45.0091427 19.0110411,48.4319815 19.0110411,51.9994849 C19.0110411,53.1871689 19.0110411,54.5206739 19.0110411,56 L4,56 L4,41.0018005 C5.44324549,41.0008036 6.77838953,41.0003052 8.00543213,41.0003052 C11.1530322,41.0003052 14.9657888,38.3641214 14.9651981,33.9944091 C14.9646074,29.6246968 11.2636287,27.0036025 8.00354004,27.0036025 C6.67115186,27.0036025 5.33663851,27.0005934 4,26.9945753 L4,18 C4,14.6862915 6.6862915,12 10,12 Z" id="puzzle" fill="#37DEAC"></path>
                    <rect id="line" fill="#76FAD3" x="35" y="15" width="11" height="1"></rect>
                </g>
                <g id="clock" transform="translate(102.000000, 139.000000)">
                    <circle id="bg_blue" fill="#1D56B5" cx="22" cy="22" r="22"></circle>
                    <circle id="oval_white" fill="#FFFFFF" cx="22" cy="22" r="13"></circle>
                    <path d="M22,37.5 C13.4395864,37.5 6.5,30.5604136 6.5,22 C6.5,13.4395864 13.4395864,6.5 22,6.5 C30.5604136,6.5 37.5,13.4395864 37.5,22 C37.5,30.5604136 30.5604136,37.5 22,37.5 Z M22,36.5 C30.0081289,36.5 36.5,30.0081289 36.5,22 C36.5,13.9918711 30.0081289,7.5 22,7.5 C13.9918711,7.5 7.5,13.9918711 7.5,22 C7.5,30.0081289 13.9918711,36.5 22,36.5 Z" id="pink_stroke" fill="#FFB6C6" fill-rule="nonzero"></path>
                    <path d="M3.18792395,27.1519003 L4.15256082,26.8883178 C5.86766984,33.1651287 10.8072349,38.1129674 17.080763,39.8389616 L16.815496,40.8031366 C10.201513,38.9834753 4.99611255,33.7693559 3.18792395,27.1519003 Z M40.8216143,16.883136 L39.8564846,17.1449083 C38.1447645,10.8339575 33.1751323,5.86159252 26.8652581,4.14627598 L27.1275842,3.1812967 C33.7799021,4.98970531 39.0169963,10.2296793 40.8216143,16.883136 Z" id="white_stroke" fill="#FFFFFF" fill-rule="nonzero"></path>
                    <path d="M23,21 L31,21 C31.5522847,21 32,21.4477153 32,22 C32,22.5522847 31.5522847,23 31,23 L22,23 C21.4477153,23 21,22.5522847 21,22 L21,12 C21,11.4477153 21.4477153,11 22,11 C22.5522847,11 23,11.4477153 23,12 L23,21 Z" id="lines" fill="#FF7F9A"></path>
                    <g id="top_element" transform="translate(18.000000, 2.000000)">
                        <rect id="Rectangle-6" fill="#FFB6C6" x="0" y="0" width="8" height="3" rx="1.5"></rect>
                        <rect id="Rectangle-7" fill="#FF7F9A" x="2" y="1" width="4" height="1"></rect>
                    </g>
                </g>
                <g id="logo" transform="translate(67.000000, 103.000000)" fill="#FFFFFF">
                    <path d="M41.5,32.0729659 L42.5,32.0729659 L42.5,34 C42.5,38.1421356 39.1421356,41.5 35,41.5 L32.9776502,41.5 L32.9776502,40.5 L35,40.5 C38.5898509,40.5 41.5,37.5898509 41.5,34 L41.5,32.0729659 Z" id="line" fill-rule="nonzero"></path>
                    <path d="M10.5223498,0 L11.5223498,0 L11.5223498,1.92703407 C11.5223498,6.06916969 8.16448539,9.42703407 4.02234977,9.42703407 L2,9.42703407 L2,8.42703407 L4.02234977,8.42703407 C7.61220065,8.42703407 10.5223498,5.51688494 10.5223498,1.92703407 L10.5223498,0 Z" id="line" fill-rule="nonzero" transform="translate(6.761175, 4.713517) scale(-1, -1) translate(-6.761175, -4.713517) "></path>
                    <path d="M39.5929474,16.1278461 L39.5929474,7.37184619 C39.5665517,6.1324761 39.1388587,5.10069333 38.3100746,4.27629273 C37.4810843,3.45107164 36.4429905,3.02646123 35.1972367,3.00041025 L30.8023509,3.00041025 L30.8023509,24.8721539 L13.1976491,3 L8.80193844,3 C7.5559784,3.0262561 6.51870946,3.45086651 5.68992539,4.27608761 C4.86031645,5.10069333 4.43344831,6.1324761 4.40725882,7.37143594 L4.40725882,16.1278461 C4.37282067,17.3672162 3.94162199,18.397358 3.11201305,19.2182714 C2.28302276,20.0381593 1.24575382,20.4654363 0,20.4994872 C1.24575382,20.5343586 2.28322898,20.9616356 3.11180683,21.7815234 C3.94162199,22.6024369 4.37282067,23.6325787 4.4070526,24.8719488 L4.4070526,33.6279487 C4.43344831,34.8662931 4.86031645,35.8991015 5.68992539,36.7235021 C6.51891568,37.5481079 7.55618462,37.9733336 8.80173222,37.9993846 L13.1976491,37.9993846 L13.1976491,16.1280512 L30.8023509,38 L35.1972367,38 C36.4429905,37.9737439 37.4812905,37.548313 38.3100746,36.7239124 C39.1390649,35.8993067 39.5665517,34.8667034 39.5927412,33.6285641 L39.5927412,24.8721539 C39.6271793,23.6327838 40.058378,22.602642 40.887987,21.7817286 C41.7169772,20.9618407 42.7542462,20.5345637 44,20.4996923 C42.7542462,20.4654363 41.716771,20.0383644 40.8881932,19.2184766 C40.058378,18.397358 39.6271793,17.3672162 39.5929474,16.1278461 Z"></path>
                </g>
            </g>
        </g>
    </g>
</svg>