<?xml version="1.0" encoding="UTF-8"?>
<svg width="360px" height="294px" viewBox="0 0 360 294" version="1.1" xmlns="http://www.w3.org/2000/svg" xmlns:xlink="http://www.w3.org/1999/xlink">
    <!-- Generator: Sketch 57.1 (83088) - https://sketch.com -->
    <title>17_1_nativescript_vue_pro </title>
    <desc>Created with Sketch.</desc>
    <g id="illustrations" stroke="none" stroke-width="1" fill="none" fill-rule="evenodd">
        <g id="nativescript_vue_pro" transform="translate(84.000000, 46.000000)">
            <g id="nativescript_vue_pro_image">
                <g id="circle_bg" transform="translate(8.000000, 0.000000)">
                    <circle id="circle_2" fill="#0C3E91" cx="88" cy="108" r="83"></circle>
                    <path d="M88,195.5 C39.6750844,195.5 0.5,156.324916 0.5,108 C0.5,59.6750844 39.6750844,20.5 88,20.5 C136.324916,20.5 175.5,59.6750844 175.5,108 C175.5,156.324916 136.324916,195.5 88,195.5 Z M88,194.5 C135.772631,194.5 174.5,155.772631 174.5,108 C174.5,60.2273691 135.772631,21.5 88,21.5 C40.2273691,21.5 1.5,60.2273691 1.5,108 C1.5,155.772631 40.2273691,194.5 88,194.5 Z" id="circle_1" fill="#0B49AF" fill-rule="nonzero"></path>
                    <polygon id="rectangle" fill="#1148A3" transform="translate(25.334524, 68.334524) rotate(-315.000000) translate(-25.334524, -68.334524) " points="8.83452378 51.8345238 41.8345238 51.8345238 41.8345238 84.8345238 8.83452378 84.8345238"></polygon>
                    <rect id="rectangle" fill="#1148A3" transform="translate(67.516504, 9.516504) rotate(-315.000000) translate(-67.516504, -9.516504) " x="60.7873196" y="2.78731957" width="13.4583694" height="13.4583694"></rect>
                    <polygon id="rectangle" fill="#1148A3" transform="translate(168.758252, 139.758252) rotate(-315.000000) translate(-168.758252, -139.758252) " points="155.494165 126.494165 182.022339 126.494165 182.022339 153.022339 155.494165 153.022339"></polygon>
                    <rect id="rectangle" fill="#1148A3" transform="translate(126.748737, 150.748737) rotate(-315.000000) translate(-126.748737, -150.748737) " x="109.248737" y="133.248737" width="35" height="35"></rect>
                </g>
                <path d="M143,134.5 C149.903559,134.5 155.5,128.903559 155.5,122 C155.5,115.096441 149.903559,109.5 143,109.5 C136.096441,109.5 130.5,115.096441 130.5,122 C130.5,128.903559 136.096441,134.5 143,134.5 Z M143,133.5 C136.648725,133.5 131.5,128.351275 131.5,122 C131.5,115.648725 136.648725,110.5 143,110.5 C149.351275,110.5 154.5,115.648725 154.5,122 C154.5,128.351275 149.351275,133.5 143,133.5 Z" id="Oval" fill="#1055C6" fill-rule="nonzero"></path>
                <path d="M160,54.5 C166.351275,54.5 171.5,49.3512746 171.5,43 C171.5,36.6487254 166.351275,31.5 160,31.5 C153.648725,31.5 148.5,36.6487254 148.5,43 C148.5,49.3512746 153.648725,54.5 160,54.5 Z M160,53.5 C154.20101,53.5 149.5,48.7989899 149.5,43 C149.5,37.2010101 154.20101,32.5 160,32.5 C165.79899,32.5 170.5,37.2010101 170.5,43 C170.5,48.7989899 165.79899,53.5 160,53.5 Z" id="Oval" fill="#1C67E2" fill-rule="nonzero"></path>
                <path d="M61.5,54.5 C66.4705627,54.5 70.5,50.4705627 70.5,45.5 C70.5,40.5294373 66.4705627,36.5 61.5,36.5 C56.5294373,36.5 52.5,40.5294373 52.5,45.5 C52.5,50.4705627 56.5294373,54.5 61.5,54.5 Z M61.5,53.5 C57.081722,53.5 53.5,49.918278 53.5,45.5 C53.5,41.081722 57.081722,37.5 61.5,37.5 C65.918278,37.5 69.5,41.081722 69.5,45.5 C69.5,49.918278 65.918278,53.5 61.5,53.5 Z" id="Oval" fill="#1055C6" fill-rule="nonzero"></path>
                <g id="element" transform="translate(162.000000, 30.000000)">
                    <circle id="Oval" fill="#93FFDF" cx="8" cy="8" r="8"></circle>
                    <circle id="Oval" fill="#37DEAC" cx="8" cy="8" r="5"></circle>
                </g>
                <g id="element" transform="translate(35.000000, 118.000000)">
                    <path d="M15,30.5 C23.5604136,30.5 30.5,23.5604136 30.5,15 C30.5,6.43958638 23.5604136,-0.5 15,-0.5 C6.43958638,-0.5 -0.5,6.43958638 -0.5,15 C-0.5,23.5604136 6.43958638,30.5 15,30.5 Z M15,29.5 C6.99187113,29.5 0.5,23.0081289 0.5,15 C0.5,6.99187113 6.99187113,0.5 15,0.5 C23.0081289,0.5 29.5,6.99187113 29.5,15 C29.5,23.0081289 23.0081289,29.5 15,29.5 Z" id="Oval" fill="#2B7AFA" fill-rule="nonzero"></path>
                    <circle id="Oval" fill="#FFFABB" cx="15" cy="15" r="11"></circle>
                    <circle id="Oval" fill="#F5E532" cx="15" cy="15" r="7"></circle>
                </g>
                <g id="element" transform="translate(141.000000, 124.000000)">
                    <circle id="Oval" fill="#FF9DB1" cx="9.5" cy="9.5" r="9.5"></circle>
                    <circle id="Oval" fill="#F75D7D" cx="9.5" cy="9.5" r="5.5"></circle>
                </g>
                <g id="diamond-copy" transform="translate(29.000000, 64.000000)">
                    <g id="2_part" transform="translate(100.500000, 48.000000) scale(-1, 1) translate(-100.500000, -48.000000) translate(67.000000, 0.000000)">
                        <polygon id="Triangle" fill="#EFBEFF" transform="translate(30.500000, 13.500000) scale(1, -1) translate(-30.500000, -13.500000) " points="31.5485073 27 44 0 17 0"></polygon>
                        <path d="M30,27 L24.0517124,27 C22.1064849,27 20.4432751,25.6005941 20.1106317,23.6840195 L16,0 L16,0 L30,27 Z" id="Triangle" fill="#F8E4FF" transform="translate(23.000000, 13.500000) scale(1, -1) translate(-23.000000, -13.500000) "></path>
                        <path d="M1.35220641,5.63688145 L19,27 L19,27 L15.3088985,4 L2.12316816,4 C1.57088341,4 1.12316816,4.44771525 1.12316816,5 C1.12316816,5.23246214 1.20415559,5.45766203 1.35220641,5.63688145 Z" id="Triangle" fill="#DE7AFF" transform="translate(9.500000, 15.500000) scale(1, -1) translate(-9.500000, -15.500000) "></path>
                        <polygon id="Triangle" fill="#FFFFFF" transform="translate(49.000000, 12.770077) scale(1, -1) translate(-49.000000, -12.770077) " points="33 25.5401533 45.0650523 -4.4408921e-13 65 25.5401533"></polygon>
                        <polygon id="Triangle" fill="#DB78FE" transform="translate(42.057730, 62.500000) scale(1, -1) translate(-42.057730, -62.500000) " points="66.1154599 29 44 96 18 96"></polygon>
                        <path d="M65,29 L15.9679797,96 L3.33813843,96 C2.78585368,96 2.33813843,95.5522847 2.33813843,95 C2.33813843,94.7427088 2.4373086,94.4953176 2.61502796,94.3092676 L65,29 L65,29 Z" id="Triangle" fill="#CF48FE" transform="translate(33.000000, 62.500000) scale(1, -1) translate(-33.000000, -62.500000) "></path>
                    </g>
                    <g id="1_part">
                        <polygon id="Triangle" fill="#F8E4FF" transform="translate(67.028767, 13.500000) scale(1, -1) translate(-67.028767, -13.500000) " points="67 27 88.0575347 0 46 0"></polygon>
                        <polygon id="Triangle" fill="#EFBEFF" transform="translate(30.500000, 13.500000) scale(1, -1) translate(-30.500000, -13.500000) " points="31.5485073 27 44 0 17 0"></polygon>
                        <path d="M30,27 L24.0517124,27 C22.1064849,27 20.4432751,25.6005941 20.1106317,23.6840195 L16,0 L16,0 L30,27 Z" id="Triangle" fill="#F8E4FF" transform="translate(23.000000, 13.500000) scale(1, -1) translate(-23.000000, -13.500000) "></path>
                        <path d="M1.35220641,5.63688145 L19,27 L19,27 L15.3088985,4 L2.12316816,4 C1.57088341,4 1.12316816,4.44771525 1.12316816,5 C1.12316816,5.23246214 1.20415559,5.45766203 1.35220641,5.63688145 Z" id="Triangle" fill="#DE7AFF" transform="translate(9.500000, 15.500000) scale(1, -1) translate(-9.500000, -15.500000) "></path>
                        <polygon id="Triangle" fill="#FFFFFF" transform="translate(49.000000, 12.770077) scale(1, -1) translate(-49.000000, -12.770077) " points="33 25.5401533 45.0650523 1.24344979e-14 65 25.5401533"></polygon>
                        <polygon id="Triangle" fill="#E8ADFC" transform="translate(67.028767, 62.500000) scale(1, -1) translate(-67.028767, -62.500000) " points="67 29 88.0575347 96 46 96"></polygon>
                        <polygon id="Triangle" fill="#DB78FE" transform="translate(42.057730, 62.500000) scale(1, -1) translate(-42.057730, -62.500000) " points="66.1154599 29 44 96 18 96"></polygon>
                        <path d="M65,29 L15.9679797,96 L3.33813843,96 C2.78585368,96 2.33813843,95.5522847 2.33813843,95 C2.33813843,94.7427088 2.4373086,94.4953176 2.61502796,94.3092676 L65,29 L65,29 Z" id="Triangle" fill="#CF48FE" transform="translate(33.000000, 62.500000) scale(1, -1) translate(-33.000000, -62.500000) "></path>
                    </g>
                </g>
                <g id="star" transform="translate(50.000000, 140.000000)">
                    <path d="M8,10 C8,8.8954305 8.8954305,8 10,8 L22,8 C23.1045695,8 24,8.8954305 24,10 L24,22 C24,23.1045695 23.1045695,24 22,24 L10,24 C8.8954305,24 8,23.1045695 8,22 L8,10 Z" id="shine" fill="#2255AA" fill-rule="nonzero" transform="translate(16.000000, 16.000000) rotate(-315.000000) translate(-16.000000, -16.000000) "></path>
                    <path d="M10,11 C10,10.4477153 10.4477153,10 11,10 L21,10 C21.5522847,10 22,10.4477153 22,11 L22,21 C22,21.5522847 21.5522847,22 21,22 L11,22 C10.4477153,22 10,21.5522847 10,21 L10,11 Z" id="shine" fill="#4076D0" fill-rule="nonzero" transform="translate(16.000000, 16.000000) rotate(-315.000000) translate(-16.000000, -16.000000) "></path>
                    <path d="M11,11 C12.613337,12.613337 14.2289165,13.3872868 15.8467383,13.3218493 C17.4645602,13.2564118 19.1823141,12.4824621 21,11 C19.2557692,12.7442308 18.4414687,14.421634 18.5570985,16.0322095 C18.6727283,17.6427851 19.4870288,19.2987152 21,21 C19.1486798,19.4318254 17.4723184,18.6379563 15.9709156,18.6183924 C14.4695128,18.5988286 12.8125409,19.3926978 11,21 C12.5144156,19.1729498 13.2679341,17.4756272 13.2605554,15.9080322 C13.2531766,14.3404373 12.4996582,12.7044266 11,11 Z" id="shine" fill="#FFFFFF" transform="translate(16.000000, 16.000000) rotate(-315.000000) translate(-16.000000, -16.000000) "></path>
                    <path d="M4.62461734,5.33028451 L5.35355339,4.64644661 C8.81174117,8.10463439 12.2383642,9.74617182 15.6426169,9.60847699 C19.0813162,9.46938887 22.7625043,7.81079578 26.6839862,4.61252709 L27.3535534,5.35355339 C23.6097825,9.09732425 21.8817981,12.6568536 22.1243331,16.035056 C22.3699944,19.4568052 24.1129472,23.0012069 27.3736263,26.66773 L26.676828,27.3815231 C22.6846273,23.9998997 19.0986854,22.3017166 15.9294996,22.2604209 C12.7701745,22.2192538 9.2345771,23.9131883 5.33173834,27.3740985 L4.61504864,26.6809194 C7.87811993,22.7442226 9.48883593,19.1160372 9.47322735,15.8000244 C9.45762887,12.4861578 7.85032565,8.99644186 4.62461734,5.33028451 Z M10.4732163,15.7953175 C10.4858554,18.4804694 9.53073167,21.3110025 7.61881583,24.2884598 C10.5710959,22.2405193 13.3443777,21.226651 15.9425289,21.2605058 C18.5057186,21.2939051 21.26527,22.3006292 24.2255372,24.2696649 C22.3548369,21.5074041 21.3192947,18.7864736 21.1269003,16.1066658 C20.933181,13.4084024 21.8624835,10.6504641 23.8973697,7.83397362 C21.0574695,9.57397984 18.319626,10.5010153 15.6830317,10.60766 C13.1123987,10.7116366 10.5572081,9.89872532 8.02050813,8.1813316 C9.64103847,10.7790622 10.4615513,13.3171228 10.4732163,15.7953175 Z" id="shine" fill="#9FC3FF" fill-rule="nonzero" transform="translate(15.994337, 15.997025) rotate(-315.000000) translate(-15.994337, -15.997025) "></path>
                </g>
                <g id="star" transform="translate(124.000000, 141.000000)">
                    <path d="M3.33333333,5.33333333 C3.33333333,4.22876383 4.22876383,3.33333333 5.33333333,3.33333333 L14.6666667,3.33333333 C15.7712362,3.33333333 16.6666667,4.22876383 16.6666667,5.33333333 L16.6666667,14.6666667 C16.6666667,15.7712362 15.7712362,16.6666667 14.6666667,16.6666667 L5.33333333,16.6666667 C4.22876383,16.6666667 3.33333333,15.7712362 3.33333333,14.6666667 L3.33333333,5.33333333 Z" id="shine" fill="#2255AA" fill-rule="nonzero" transform="translate(10.000000, 10.000000) rotate(-315.000000) translate(-10.000000, -10.000000) "></path>
                    <path d="M5.11111111,6.11111111 C5.11111111,5.55882636 5.55882636,5.11111111 6.11111111,5.11111111 L13.8888889,5.11111111 C14.4411736,5.11111111 14.8888889,5.55882636 14.8888889,6.11111111 L14.8888889,13.8888889 C14.8888889,14.4411736 14.4411736,14.8888889 13.8888889,14.8888889 L6.11111111,14.8888889 C5.55882636,14.8888889 5.11111111,14.4411736 5.11111111,13.8888889 L5.11111111,6.11111111 Z" id="shine" fill="#4076D0" fill-rule="nonzero" transform="translate(10.000000, 10.000000) rotate(-315.000000) translate(-10.000000, -10.000000) "></path>
                    <path d="M6.11111111,6.11111111 C7.36592879,7.36592879 8.62249057,7.96788972 9.88079646,7.91699391 C11.1391023,7.86609809 12.4751332,7.26413716 13.8888889,6.11111111 C12.5322649,7.46773505 11.8989201,8.77238196 11.9888544,10.0250518 C12.0787887,11.2777217 12.7121335,12.5656674 13.8888889,13.8888889 C12.4489732,12.6691976 11.1451365,12.0517438 9.97737877,12.0365275 C8.80962104,12.0213111 7.52086516,12.638765 6.11111111,13.8888889 C7.28898994,12.4678498 7.87505985,11.14771 7.86932084,9.92846953 C7.86358184,8.70922901 7.27751193,7.43677621 6.11111111,6.11111111 Z" id="shine" fill="#FFFFFF" transform="translate(10.000000, 10.000000) rotate(-315.000000) translate(-10.000000, -10.000000) "></path>
                </g>
                <g id="star" transform="translate(157.000000, 99.000000)">
                    <path d="M2.83333333,4.83333333 C2.83333333,3.72876383 3.72876383,2.83333333 4.83333333,2.83333333 L12.1666667,2.83333333 C13.2712362,2.83333333 14.1666667,3.72876383 14.1666667,4.83333333 L14.1666667,12.1666667 C14.1666667,13.2712362 13.2712362,14.1666667 12.1666667,14.1666667 L4.83333333,14.1666667 C3.72876383,14.1666667 2.83333333,13.2712362 2.83333333,12.1666667 L2.83333333,4.83333333 Z" id="shine" fill="#2255AA" fill-rule="nonzero" transform="translate(8.500000, 8.500000) rotate(-315.000000) translate(-8.500000, -8.500000) "></path>
                    <path d="M4.44444444,5.44444444 C4.44444444,4.89215969 4.89215969,4.44444444 5.44444444,4.44444444 L11.5555556,4.44444444 C12.1078403,4.44444444 12.5555556,4.89215969 12.5555556,5.44444444 L12.5555556,11.5555556 C12.5555556,12.1078403 12.1078403,12.5555556 11.5555556,12.5555556 L5.44444444,12.5555556 C4.89215969,12.5555556 4.44444444,12.1078403 4.44444444,11.5555556 L4.44444444,5.44444444 Z" id="shine" fill="#4076D0" fill-rule="nonzero" transform="translate(8.500000, 8.500000) rotate(-315.000000) translate(-8.500000, -8.500000) "></path>
                    <path d="M5.44444444,5.44444444 C6.43037262,6.43037262 7.41767117,6.90334193 8.40634008,6.86335236 C9.39500899,6.82336279 10.4447475,6.35039348 11.5555556,5.44444444 C10.4896367,6.51036326 9.99200866,7.53544297 10.0626713,8.51968359 C10.133334,9.5039242 10.630962,10.5158815 11.5555556,11.5555556 C10.4241932,10.5972267 9.39975011,10.1120844 8.48222618,10.1001287 C7.56470225,10.088173 6.55210834,10.5733153 5.44444444,11.5555556 C6.36992066,10.4390249 6.83040417,9.40177217 6.82589495,8.44379748 C6.82138573,7.4858228 6.36090223,6.48603845 5.44444444,5.44444444 Z" id="shine" fill="#FFFFFF" transform="translate(8.500000, 8.500000) rotate(-315.000000) translate(-8.500000, -8.500000) "></path>
                </g>
                <g id="star" transform="translate(17.000000, 136.000000)">
                    <path d="M3.33333333,5.33333333 C3.33333333,4.22876383 4.22876383,3.33333333 5.33333333,3.33333333 L14.6666667,3.33333333 C15.7712362,3.33333333 16.6666667,4.22876383 16.6666667,5.33333333 L16.6666667,14.6666667 C16.6666667,15.7712362 15.7712362,16.6666667 14.6666667,16.6666667 L5.33333333,16.6666667 C4.22876383,16.6666667 3.33333333,15.7712362 3.33333333,14.6666667 L3.33333333,5.33333333 Z" id="shine" fill="#2255AA" fill-rule="nonzero" transform="translate(10.000000, 10.000000) rotate(-315.000000) translate(-10.000000, -10.000000) "></path>
                    <path d="M5.11111111,6.11111111 C5.11111111,5.55882636 5.55882636,5.11111111 6.11111111,5.11111111 L13.8888889,5.11111111 C14.4411736,5.11111111 14.8888889,5.55882636 14.8888889,6.11111111 L14.8888889,13.8888889 C14.8888889,14.4411736 14.4411736,14.8888889 13.8888889,14.8888889 L6.11111111,14.8888889 C5.55882636,14.8888889 5.11111111,14.4411736 5.11111111,13.8888889 L5.11111111,6.11111111 Z" id="shine" fill="#4076D0" fill-rule="nonzero" transform="translate(10.000000, 10.000000) rotate(-315.000000) translate(-10.000000, -10.000000) "></path>
                    <path d="M6.11111111,6.11111111 C7.36592879,7.36592879 8.62249057,7.96788972 9.88079646,7.91699391 C11.1391023,7.86609809 12.4751332,7.26413716 13.8888889,6.11111111 C12.5322649,7.46773505 11.8989201,8.77238196 11.9888544,10.0250518 C12.0787887,11.2777217 12.7121335,12.5656674 13.8888889,13.8888889 C12.4489732,12.6691976 11.1451365,12.0517438 9.97737877,12.0365275 C8.80962104,12.0213111 7.52086516,12.638765 6.11111111,13.8888889 C7.28898994,12.4678498 7.87505985,11.14771 7.86932084,9.92846953 C7.86358184,8.70922901 7.27751193,7.43677621 6.11111111,6.11111111 Z" id="shine" fill="#FFFFFF" transform="translate(10.000000, 10.000000) rotate(-315.000000) translate(-10.000000, -10.000000) "></path>
                </g>
                <path d="M67.6956851,40.4013523 L68.4246212,39.7175144 C69.9468046,41.2396978 71.4347323,41.9524955 72.8975987,41.8933256 C74.3949118,41.8327625 76.0147953,41.1029091 77.755054,39.6835949 L78.4246212,40.4246212 C76.7739273,42.0753151 76.0231035,43.6219606 76.1268827,45.0674724 C76.2337883,46.556531 76.9995804,48.1138165 78.4446942,49.7387978 L77.7478958,50.4525909 C75.9772793,48.952777 74.4029712,48.2072369 73.0354687,48.1894178 C71.677827,48.1717272 70.1305958,48.9130187 68.4028062,50.4451663 L67.6861165,49.7519872 C69.131889,48.0077507 69.8383828,46.4163524 69.8316287,44.9814535 C69.8248847,43.5487008 69.1218036,42.0221978 67.6956851,40.4013523 Z M70.8316176,44.9767466 C70.8362528,45.961478 70.5696853,46.9807428 70.0369718,48.0352523 C71.0835517,47.4610102 72.0867925,47.1769713 73.048498,47.1895027 C73.9877652,47.2017417 74.9742448,47.4847918 76.009926,48.0336218 C75.4928687,47.0618387 75.1982244,46.0970222 75.1294499,45.1390822 C75.0576415,44.1388818 75.3047972,43.1283624 75.8628265,42.1080451 C74.8644835,42.5914253 73.8896659,42.8540163 72.9380135,42.8925086 C72.0044557,42.9302691 71.0790916,42.7165579 70.1632637,42.2568396 C70.6033292,43.1753184 70.827406,44.0819827 70.8316176,44.9767466 Z" id="shine" fill="#FAED58" fill-rule="nonzero" transform="translate(73.065405, 45.068093) rotate(-315.000000) translate(-73.065405, -45.068093) "></path>
                <path d="M60.1246173,50.9516049 L60.8535534,50.267767 C61.8917356,51.3059492 62.8949895,51.786562 63.8725094,51.7470234 C64.8844759,51.7060915 65.9890332,51.208423 67.1839862,50.2338474 L67.8535534,50.9748737 C66.7261287,52.1022984 66.2195951,53.145723 66.2886853,54.1080621 C66.360902,55.113948 66.882404,56.1744545 67.8736263,57.2890503 L67.176828,58.0028434 C65.9616075,56.9734819 64.8902078,56.4661025 63.9731263,56.4541526 C63.0659053,56.4423312 62.0157657,56.9454619 60.8317383,57.9954188 L60.1150486,57.3022397 C61.1064965,56.1061183 61.5869348,55.0239168 61.5823943,54.0592964 C61.5778639,53.0968222 61.1008384,52.0611224 60.1246173,50.9516049 Z M62.5823832,54.0545894 C62.5851593,54.6443525 62.4545304,55.2488378 62.1933661,55.8684488 C62.8092741,55.5859684 63.4065268,55.4466847 63.9861555,55.4542375 C64.5470095,55.4615456 65.128168,55.6007304 65.7307443,55.8689759 C65.4786656,55.3040497 65.3315501,54.7409644 65.2912526,54.1796719 C65.2477477,53.5737037 65.363891,52.9649937 65.6350173,52.3538423 C65.0512537,52.5919766 64.4772895,52.723379 63.9129242,52.7462064 C63.3556693,52.7687461 62.8038238,52.6685716 62.2581335,52.4487171 C62.4710872,52.9881673 62.5798832,53.5234738 62.5823832,54.0545894 Z" id="shine" fill="#FFFABF" fill-rule="nonzero" transform="translate(63.994337, 54.118345) rotate(-315.000000) translate(-63.994337, -54.118345) "></path>
                <path d="M150.624617,66.3302845 L151.353553,65.6464466 C152.391736,66.6846289 153.39499,67.1652416 154.372509,67.125703 C155.384476,67.0847711 156.489033,66.5871027 157.683986,65.6125271 L158.353553,66.3535534 C157.226129,67.4809781 156.719595,68.5244026 156.788685,69.4867418 C156.860902,70.4926276 157.382404,71.5531341 158.373626,72.66773 L157.676828,73.3815231 C156.461608,72.3521615 155.390208,71.8447822 154.473126,71.8328323 C153.565905,71.8210109 152.515766,72.3241416 151.331738,73.3740985 L150.615049,72.6809194 C151.606496,71.4847979 152.086935,70.4025964 152.082394,69.4379761 C152.077864,68.4755018 151.600838,67.439802 150.624617,66.3302845 Z M153.082383,69.4332691 C153.085159,70.0230322 152.95453,70.6275174 152.693366,71.2471284 C153.309274,70.964648 153.906527,70.8253644 154.486156,70.8329172 C155.04701,70.8402253 155.628168,70.9794101 156.230744,71.2476556 C155.978666,70.6827293 155.83155,70.1196441 155.791253,69.5583515 C155.747748,68.9523834 155.863891,68.3436734 156.135017,67.732522 C155.551254,67.9706562 154.97729,68.1020586 154.412924,68.124886 C153.855669,68.1474258 153.303824,68.0472512 152.758134,67.8273967 C152.971087,68.3668469 153.079883,68.9021535 153.082383,69.4332691 Z" id="shine" fill="#FFFABF" fill-rule="nonzero" transform="translate(154.494337, 69.497025) rotate(-315.000000) translate(-154.494337, -69.497025) "></path>
                <path d="M112.5,38.5502525 C115.242673,41.2929255 117.989158,42.6086401 120.739455,42.4973964 C123.489752,42.3861526 126.409934,41.070438 129.5,38.5502525 C126.534808,41.5154449 125.150497,44.3670303 125.347067,47.1050087 C125.543638,49.8429871 126.927949,52.6580684 129.5,55.5502525 C126.352756,52.8843558 123.502941,51.5347782 120.950556,51.5015197 C118.398172,51.4682612 115.58132,52.8178388 112.5,55.5502525 C115.074507,52.4442672 116.355488,49.5588188 116.342944,46.8939074 C116.3304,44.2289959 115.049419,41.4477777 112.5,38.5502525 Z" id="shine" fill="#FFF798" transform="translate(121.000000, 47.050253) rotate(-315.000000) translate(-121.000000, -47.050253) "></path>
                <g id="shine" transform="translate(140.000000, 46.000000)" fill="#FFFFFF" fill-rule="nonzero">
                    <polygon id="Path-4" points="1 8 1 0 0 0 0 8"></polygon>
                    <polygon id="Path-6" points="30 38 38 38 38 37 30 37"></polygon>
                    <polygon id="Path-7" transform="translate(29.500000, 20.500000) scale(-1, 1) translate(-29.500000, -20.500000) " points="33.2906191 22.5931333 26.2906191 17.5931333 25.7093809 18.4068667 32.7093809 23.4068667"></polygon>
                    <polygon id="Path-7" transform="translate(32.531666, 28.837947) scale(-1, 1) translate(-32.531666, -28.837947) " points="36.6597429 29.7020979 28.7230748 27.0262045 28.403589 27.9737955 36.3402571 30.649689"></polygon>
                    <polygon id="Path-8" transform="translate(17.000000, 8.500000) scale(-1, 1) translate(-17.000000, -8.500000) " points="19.4341216 11.7519305 15.4341216 4.75193053 14.5658784 5.24806947 18.5658784 12.2480695"></polygon>
                    <polygon id="Path-2" points="21.3652873 17.2958875 27.3511357 11.4900683 26.6549058 10.7722495 20.6690574 16.5780686"></polygon>
                    <polygon id="Path-3" points="7.97812979 9.64625973 10.3181263 1.99670351 9.36186671 1.70418405 7.02187021 9.35374027"></polygon>
                </g>
                <g id="shine" transform="translate(24.000000, 97.000000) scale(-1, -1) rotate(17.000000) translate(-24.000000, -97.000000) translate(5.000000, 78.000000)" fill="#FFFFFF" fill-rule="nonzero">
                    <polygon id="Path-4" points="1 8 1 0 0 0 0 8"></polygon>
                    <polygon id="Path-6" points="30 38 38 38 38 37 30 37"></polygon>
                    <polygon id="Path-7" transform="translate(29.500000, 20.500000) scale(-1, 1) translate(-29.500000, -20.500000) " points="33.2906191 22.5931333 26.2906191 17.5931333 25.7093809 18.4068667 32.7093809 23.4068667"></polygon>
                    <polygon id="Path-7" transform="translate(32.531666, 28.837947) scale(-1, 1) translate(-32.531666, -28.837947) " points="36.6597429 29.7020979 28.7230748 27.0262045 28.403589 27.9737955 36.3402571 30.649689"></polygon>
                    <polygon id="Path-8" transform="translate(17.000000, 8.500000) scale(-1, 1) translate(-17.000000, -8.500000) " points="19.4341216 11.7519305 15.4341216 4.75193053 14.5658784 5.24806947 18.5658784 12.2480695"></polygon>
                    <polygon id="Path-2" points="21.3652873 17.2958875 27.3511357 11.4900683 26.6549058 10.7722495 20.6690574 16.5780686"></polygon>
                    <polygon id="Path-3" points="7.97812979 9.64625973 10.3181263 1.99670351 9.36186671 1.70418405 7.02187021 9.35374027"></polygon>
                </g>
                <g id="shine_lines" transform="translate(25.000000, 60.500000)" fill-rule="nonzero">
                    <polygon id="Path-5" fill="#FFFFFF" points="106.136121 8.41793602 98.1281811 25.7618417 99.0360795 26.1810319 107.044019 8.83712625"></polygon>
                    <polygon id="Path-5" fill="#FFFFFF" points="34.5643361 8.39684565 25.5511962 25.7289373 26.4384035 26.1903083 35.4515434 8.85821661"></polygon>
                    <path d="M26.2865197,43.0539715 L29.8946761,47.6930297 L29.1053239,48.3069703 L25.4971675,43.6679121 L26.2865197,43.0539715 Z M19.2445419,34 L24.1405993,40.294931 L23.3512471,40.9088716 L18.7554581,35 L10.9340045,35 L10.9340045,34 L19.2445419,34 Z" id="Shape" fill="#F9EF77"></path>
                    <polygon id="Path-11" fill="#EFBEFF" points="30.0960009 49.7927047 36.5946311 58.7927047 37.4053689 58.2072953 30.9067387 49.2072953"></polygon>
                    <path d="M125.177466,41.6047728 L125.880949,42.3154847 L133.417737,34.855356 C133.735202,34.5411201 133.512681,34 133.065995,34 L125,34 L125,35 L131.850108,35 L125.177466,41.6047728 Z" id="Shape" fill="#F9EF77"></path>
                    <polygon id="Path-11" fill="#EFBEFF" points="113.594564 47.01463 95.8813564 69.8120941 96.6710132 70.4256429 114.384221 47.6281788"></polygon>
                    <polygon id="Path-10" fill="#FFFFFF" points="27.6959218 29 43.4308789 29 43.4308789 28 27.6959218 28"></polygon>
                    <polygon id="Path-10" fill="#FFFFFF" points="29.6959218 27 34.7608673 27 34.7608673 26 29.6959218 26"></polygon>
                    <polygon id="Path-10" fill="#FFFFFF" points="104 29 113.304078 29 113.304078 28 104 28"></polygon>
                    <path d="M40.4373985,35.141425 L40.4440306,34.141447 L26.044412,34.0459212 C25.6439294,34.0432886 25.4030075,34.4890428 25.6246314,34.8226237 L32.9022742,45.7766899 L33.7352032,45.2233101 L26.9777106,35.0521566 L40.4373985,35.141425 Z" id="Path-12" fill="#EFBEFF"></path>
                    <polygon id="Path-13" fill="#F9EF77" points="45.9504915 34.6616824 48.2298088 41.3317342 49.1760832 41.0083694 46.8967659 34.3383176"></polygon>
                    <polygon id="Path-14" fill="#EFBEFF" points="16.9303243 28 8.33452378 28 8.33452378 29 17.7496035 29 20.7072309 14.2599847 19.7267736 14.0632531"></polygon>
                    <polygon id="Path-15" fill="#F9EF77" points="14.3762794 20.6122679 9.84472164 26.2699107 10.625224 26.8950635 15.1567817 21.2374207"></polygon>
                    <polygon id="Path-14" fill="#EFBEFF" points="122.736541 19.0981996 121.750772 19.2663039 123.41067 29 133.935621 29 133.935621 28 124.254575 28"></polygon>
                    <polygon id="Path-15" fill="#F9EF77" points="120.971487 13.4521244 130.241008 24.7522988 131.014163 24.118081 121.744642 12.8179066"></polygon>
                    <polygon id="Path-16" fill="#FFFFFF" points="70.5995498 7.2006012 62.0015114 18.7006012 62.8024117 19.2993988 71.4004502 7.7993988"></polygon>
                    <polygon id="Path-17" fill="#FFFFFF" points="73.8678308 11.9071708 84.5995696 26.2590481 85.4004304 25.6601975 74.6686916 11.3083203"></polygon>
                    <polygon id="Path-18" fill="#F3D2FE" points="46.8654983 16.7660101 45.9817591 17.2339899 49.9086558 24.6495923 60.4143358 11.9260956 59.6432243 11.2893955 50.0913442 22.8577391"></polygon>
                    <polygon id="Path-18" fill="#F3D2FE" points="92.459518 22.8699125 87.1299833 16.877516 86.3827573 17.542086 92.6932247 24.6374189 101.930847 6.17823038 101.036575 5.73070567"></polygon>
                    <polygon id="Path-19" fill="#F7DDFF" points="41 6.2799906 54.1429856 6.2799906 54.1429856 5.2799906 41 5.2799906"></polygon>
                    <polygon id="Path-19" fill="#F7DDFF" points="79 6.2799906 92.1429856 6.2799906 92.1429856 5.2799906 79 5.2799906"></polygon>
                    <polygon id="Path-19" fill="#A2C5FF" points="100 1 113.142986 1 113.142986 0 100 0"></polygon>
                    <polygon id="Path-20" fill="#FDF8FF" points="63.5161648 67.6261093 70.5161648 94.482553 71.4838352 94.2303345 64.4838352 67.3738907"></polygon>
                    <polygon id="Path-21" fill="#EFBEFF" points="38.8393344 54.2868137 48.2933878 67.7868137 49.1125041 67.2131863 39.6584508 53.7131863"></polygon>
                    <path d="M106.220737,47.3683587 L107.031741,47.9533992 L116.510654,34.8133907 C116.749209,34.4826977 116.51291,34.0208704 116.105152,34.0208704 L100,34.0208704 L100,35.0208704 L115.127943,35.0208704 L106.220737,47.3683587 Z" id="Path-22" fill="#FAEBFF"></path>
                    <path d="M107.97534,41.3702525 L108.786344,41.955293 L112.510654,36.7925202 C112.749209,36.4618273 112.51291,36 112.105152,36 L103.633483,36 L103.633483,37 L111.127943,37 L107.97534,41.3702525 Z" id="Path-22" fill="#EBAFFF"></path>
                    <polygon id="Path-23" fill="#F9EF77" points="115.4 45.8 121.4 37.8 120.6 37.2 114.6 45.2"></polygon>
                    <polygon id="Path-24" fill="#689FF9" points="14.3773806 11.2937992 2.36307031 26.1860537 3.14137026 26.8139463 15.1556805 11.9216919"></polygon>
                    <polygon id="Path-24" fill="#3577E4" points="8.37988343 14.2087139 -0.389149977 25.0783081 0.389149977 25.7062008 9.15818338 14.8366066"></polygon>
                    <polygon id="Path-25" fill="#5896FC" points="103.277404 72.6489907 83.6231054 92.5871763 84.335264 93.2891949 103.989562 73.3510093"></polygon>
                    <polygon id="Path-25" fill="#2573F2" points="99.7822327 80.759094 86.6439207 94.0871763 87.3560793 94.7891949 100.494391 81.4611126"></polygon>
                    <polygon id="Path-25" fill="#0F56CC" points="139.782233 33.1489907 126.643921 46.477073 127.356079 47.1790916 140.494391 33.8510093"></polygon>
                </g>
                <g id="logo" transform="translate(66.000000, 81.000000)">
                    <polygon id="Path-40" fill="#FFFFFF" fill-rule="nonzero" points="8.30396694 38.5 15.6120485 38.5 24.1420687 22.9997614 20.5111794 16.4338924"></polygon>
                    <polygon id="Path-40" fill="#34495E" points="10 37.5 15.0209407 37.5 23 23.0009343 20.5110081 18.5"></polygon>
                    <path d="M36.4784743,16.2210623 L38.3927422,16.2091096 L37.425056,14.5250947 L36.4784743,16.2210623 Z M33.0434445,6.9 L23.6092804,6.9 L37.4341375,31.2171262 L51.4002818,6.9 L41.6809007,6.9 L37.425056,14.5250947 L33.0434445,6.9 Z" id="Path-39" fill="#FFFFFF" fill-rule="nonzero"></path>
                    <polygon id="Path-39" fill="#34495E" points="49.5 8 42.3266865 8 37.438993 16.7571629 32.4068606 8 25.5 8 37.438993 29"></polygon>
                    <path d="M20.3663461,18.7933518 L19.414741,17.0894703 L21.3312595,17.0969714 L20.3663461,18.7933518 Z M20.3663461,18.7933518 L9.18675046,38.4478084 L0.117180011,38.4478084 L21.3649985,0.755140528 L37.3898394,29.3441124 L50.0490201,7.24352701 L60.8755885,7.24352701 L37.3787825,49.2547019 L20.3663461,18.7933518 Z M37.3898394,29.3441124 L38.3390169,31.0374839 L36.4249716,31.0285931 L37.3898394,29.3441124 Z" id="Path-37" fill="#FFFFFF" fill-rule="nonzero"></path>
                    <polygon id="Path-37" fill="#37DE93" points="21.3622802 3 37.3794753 31.5753313 50.6866164 8.34352701 59 8.34352701 37.3794753 47 20.3751142 16.5531091 8.54694029 37.3478084 2 37.3478084"></polygon>
                    <polygon id="Path-39" fill="#34495E" points="49.5 8 42.3266865 8 37.438993 16.7571629 32.4068606 8 25.5 8 37.438993 29"></polygon>
                </g>
            </g>
        </g>
    </g>
</svg>