<?xml version="1.0" encoding="UTF-8" standalone="no"?>
<svg width="360px" height="294px" viewBox="0 0 360 294" version="1.1" xmlns="http://www.w3.org/2000/svg" xmlns:xlink="http://www.w3.org/1999/xlink">
    <!-- Generator: Sketch 50.2 (55047) - http://www.bohemiancoding.com/sketch -->
    <title>14_1_securing_nativescript_applications</title>
    <desc>Created with Sketch.</desc>
    <defs></defs>
    <g id="illustrations" stroke="none" stroke-width="1" fill="none" fill-rule="evenodd">
        <g id="securing_nativescript_applications">
            <g id="securing_nativescript_applications_image" transform="translate(70.000000, 48.000000)">
                <g id="circle_bg" transform="translate(22.000000, 18.000000)">
                    <circle id="circle_2" fill="#0C3E91" cx="88" cy="88" r="83"></circle>
                    <rect id="rectangle" fill="#073581" transform="translate(36.016504, 60.016504) rotate(-315.000000) translate(-36.016504, -60.016504) " x="19.0342712" y="43.0342712" width="33.9644661" height="33.9644661"></rect>
                    <rect id="rectangle" fill="#1550B1" transform="translate(41.920310, 122.920310) rotate(-315.000000) translate(-41.920310, -122.920310) " x="26.4203102" y="107.42031" width="31" height="31"></rect>
                    <path d="M88,175.5 C39.6750844,175.5 0.5,136.324916 0.5,88 C0.5,39.6750844 39.6750844,0.5 88,0.5 C136.324916,0.5 175.5,39.6750844 175.5,88 C175.5,136.324916 136.324916,175.5 88,175.5 Z M88,174.5 C135.772631,174.5 174.5,135.772631 174.5,88 C174.5,40.2273691 135.772631,1.5 88,1.5 C40.2273691,1.5 1.5,40.2273691 1.5,88 C1.5,135.772631 40.2273691,174.5 88,174.5 Z" id="circle_1" fill="#0B49AF" fill-rule="nonzero"></path>
                    <rect id="rectangle" fill="#073581" transform="translate(132.167041, 121.167041) rotate(-315.000000) translate(-132.167041, -121.167041) " x="112.957042" y="101.957042" width="38.4199982" height="38.4199982"></rect>
                    <rect id="rectangle" fill="#1550B1" transform="translate(159.708513, 95.708513) rotate(-270.000000) translate(-159.708513, -95.708513) " x="152.136451" y="88.1364509" width="15.1441246" height="15.1441246"></rect>
                </g>
                <g id="blue_lines" transform="translate(74.000000, 42.000000)" fill="#165FD5" fill-rule="nonzero">
                    <polygon id="line" transform="translate(54.000000, 30.750000) scale(-1, 1) translate(-54.000000, -30.750000) " points="36.0672053 0.750377127 36.9327947 0.249622873 71.9327947 60.7496229 71.0672053 61.2503771"></polygon>
                    <polygon id="line" points="0.0672052516 0.750377127 0.932794748 0.249622873 35.9327947 60.7496229 35.0672053 61.2503771"></polygon>
                    <polygon id="line" transform="translate(20.500000, 95.250000) scale(1, -1) translate(-20.500000, -95.250000) " points="5.04309423 61.7030692 5.95690577 61.2969308 35.9569058 128.796931 35.0430942 129.203069"></polygon>
                    <polygon id="line" transform="translate(50.500000, 97.250000) scale(-1, -1) translate(-50.500000, -97.250000) " points="35.0430942 63.7030692 35.9569058 63.2969308 65.9569058 130.796931 65.0430942 131.203069"></polygon>
                </g>
                <g id="shield" transform="translate(45.000000, 37.000000)">
                    <path d="M64.9614428,1.53101078 L2.04142738,24.0388641 L11.9830185,111.771114 L64.9614445,143.294595 L117.961167,111.771032 L127.918495,24.038915 L64.9614428,1.53101078 Z M129.001503,23.364117 L118.89883,112.376839 L64.9613424,144.458173 L11.0452484,112.376756 L0.958572616,23.3641678 L64.9613441,0.468989218 L129.001503,23.364117 Z" id="lines" fill="#165FD5" fill-rule="nonzero"></path>
                    <path d="M64.9959342,9.53101078 L9.57190108,29.3573888 L18.330635,106.651197 L64.9959359,134.418211 L111.680013,106.651114 L120.452609,29.3574396 L64.9959342,9.53101078 Z M121.535617,28.6826416 L112.617676,107.256921 L64.9958338,135.581789 L17.3928649,107.256839 L8.48904631,28.6826925 L64.9958355,8.46898922 L121.535617,28.6826416 Z" id="lines" fill="#FFA4B7" fill-rule="nonzero"></path>
                    <path d="M99.521138,17.4176144 L99.8591263,16.4764641 L125.542706,25.7000159 L121.988232,57.3760461 L120.994469,57.2645326 L124.460798,26.3740082 L99.521138,17.4176144 Z M33.8051518,120.072472 L33.300712,120.935919 L14.3817265,109.883139 L10.7150215,77.982118 L11.7084806,77.8679297 L15.3180679,109.272016 L33.8051518,120.072472 Z" id="lines" fill="#6199F4" fill-rule="nonzero"></path>
                    <polygon id="bg_1" fill="#FF7491" points="65 13 117 31.590626 108.786276 103.96018 65 130.003702 21.231204 103.96018 13.0304737 31.590626"></polygon>
                    <polygon id="bg_2" fill="#FF5579" points="65 12.999608 116.862978 31.5906162 108.649254 103.960171 65 130.003311"></polygon>
                </g>
                <g id="white_lines" transform="translate(38.000000, 38.000000)" fill="#FFFFFF" fill-rule="nonzero">
                    <polygon id="line" points="71.5 100 72.5 100 72.5 142.592098 71.9979905 143 71.5 142.587299"></polygon>
                    <polygon id="line" points="71.5 0 72.5 0 72.5 31.0033743 71.5 31.0033743"></polygon>
                    <polygon id="line" points="106.49656 65.5 106.49656 64.5 142.832192 64.5 142.832192 65.5"></polygon>
                    <polygon id="line" points="0 65.5 0 64.5 37 64.5 37 65.5"></polygon>
                </g>
                <g id="light_red_lines" transform="translate(40.000000, 57.000000)" fill="#FFCED9" fill-rule="nonzero">
                    <polygon id="line" points="0.224747475 0.917415917 0.775252525 0.0825840832 69.7752525 45.5825841 69.2247475 46.4174159"></polygon>
                    <polygon id="line" transform="translate(105.000000, 23.250000) scale(-1, 1) translate(-105.000000, -23.250000) " points="70.2247475 0.917415917 70.7752525 0.0825840832 139.775253 45.5825841 139.224747 46.4174159"></polygon>
                    <polygon id="line" transform="translate(101.500000, 73.250000) scale(-1, 1) translate(-101.500000, -73.250000) " points="70.8301091 100.875537 70.1698909 100.124463 132.169891 45.6244631 132.830109 46.3755369"></polygon>
                    <polygon id="line" points="8.83010908 100.875537 8.16989092 100.124463 70.1698909 45.6244631 70.8301091 46.3755369"></polygon>
                </g>
                <g id="lock" transform="translate(75.000000, 68.000000)">
                    <rect id="Rectangle" fill="#FFFFFF" x="0" y="0" width="70" height="70" rx="14"></rect>
                    <rect id="Rectangle" fill="#4189FF" x="1" y="1" width="68" height="68" rx="13"></rect>
                    <path d="M44.6629692,5.5 L44.6629692,4.5 L54.3548387,4.5 C60.5101413,4.5 65.5,9.48985868 65.5,15.6451613 L65.5,25.3104082 L64.5,25.3104082 L64.5,15.6451613 C64.5,10.0421434 59.9578566,5.5 54.3548387,5.5 L44.6629692,5.5 Z M25.3401852,64.5 L25.3401852,65.5 L15.6451613,65.5 C9.48985868,65.5 4.5,60.5101413 4.5,54.3548387 L4.5,44.7362028 L5.5,44.7362028 L5.5,54.3548387 C5.5,59.9578566 10.0421434,64.5 15.6451613,64.5 L25.3401852,64.5 Z" id="lines" fill="#97F3D8" fill-rule="nonzero"></path>
                    <rect id="Rectangle" fill="#FFFFFF" x="8" y="8" width="54" height="54" rx="9"></rect>
                    <path d="M17,10.5 C13.4101491,10.5 10.5,13.4101491 10.5,17 L10.5,53 C10.5,56.5898509 13.4101491,59.5 17,59.5 L53,59.5 C56.5898509,59.5 59.5,56.5898509 59.5,53 L59.5,17 C59.5,13.4101491 56.5898509,10.5 53,10.5 L17,10.5 Z M17,9.5 L53,9.5 C57.1421356,9.5 60.5,12.8578644 60.5,17 L60.5,53 C60.5,57.1421356 57.1421356,60.5 53,60.5 L17,60.5 C12.8578644,60.5 9.5,57.1421356 9.5,53 L9.5,17 C9.5,12.8578644 12.8578644,9.5 17,9.5 Z" id="lines" fill="#BBD5FF" fill-rule="nonzero"></path>
                    <path d="M52.715975,30.69511 L52.715975,22.0738178 C52.6893947,20.8535149 52.2587108,19.8376057 51.4241311,19.0258882 C50.5893437,18.2133628 49.5439904,17.7952849 48.2895251,17.7696347 L43.8639058,17.7696347 L43.8639058,39.30489 L26.1360942,17.7692308 L21.7096443,17.7692308 C20.4549713,17.7950829 19.4104487,18.2131609 18.5758689,19.0256863 C17.7404585,19.8376057 17.3106053,20.8535149 17.2842327,22.0734138 L17.2842327,30.69511 C17.2495537,31.9154129 16.8153396,32.9297063 15.9799292,33.7379903 C15.1451418,34.5452645 14.1006192,34.9659681 12.8461538,34.9994951 C14.1006192,35.03383 15.1453495,35.4545335 15.9797216,36.2618077 C16.8153396,37.0700917 17.2495537,38.0843851 17.284025,39.304688 L17.284025,47.9259802 C17.3106053,49.1452732 17.7404585,50.1621923 18.5758689,50.9739098 C19.4106563,51.7858293 20.4551789,52.2045131 21.7094366,52.2301633 L26.1360942,52.2301633 L26.1360942,30.695312 L43.8639058,52.2307692 L48.2895251,52.2307692 C49.5439904,52.2049171 50.5895513,51.7860312 51.4241311,50.9743137 C52.2589185,50.1623943 52.6893947,49.1456772 52.7157673,47.9265862 L52.7157673,39.30489 C52.7504463,38.0845871 53.1846604,37.0702937 54.0200708,36.2620097 C54.8548582,35.4547355 55.8993808,35.0340319 57.1538462,34.999697 C55.8993808,34.9659681 54.8546505,34.5454665 54.0202784,33.7381923 C53.1846604,32.9297063 52.7504463,31.9154129 52.715975,30.69511 Z" id="logo" fill="#0552D0"></path>
                </g>
                <g id="top" transform="translate(94.500000, 45.000000)" fill-rule="nonzero">
                    <path d="M30.3083156,23.1438745 L24.3083219,23.1351475 L24.3199978,15.1100035 C24.3199978,10.2443746 20.3756262,6.30000305 15.5099974,6.30000305 C10.6443685,6.30000305 6.69999695,10.2443746 6.69999695,15.1100035 L6.69999695,23.139511 L0.699996948,23.139511 L0.699996948,15.1100035 C0.699996948,6.93066609 7.33065999,0.300003052 15.5099974,0.300003052 C23.6893347,0.300003052 30.3199978,6.93066609 30.3199946,15.114367 L30.3083156,23.1438745 Z" fill="#FFD178"></path>
                    <path d="M12.7583608,3.50939995 L12.951354,4.49060005 C8.67817182,5.33109634 5.31568968,8.70923415 4.49592267,12.9872936 L3.51379141,12.7990964 C4.41031405,8.12047782 8.08509261,4.42858955 12.7583608,3.50939995 Z" fill="#FFFBF3"></path>
                </g>
                <g id="smaller_circles" transform="translate(14.000000, 32.000000)">
                    <g id="yellow_circle_detail" transform="translate(18.086617, 19.262743) rotate(-57.000000) translate(-18.086617, -19.262743) translate(2.586617, 7.762743)">
                        <path d="M15,22.5 C10.8578644,22.5 7.5,19.1421356 7.5,15 C7.5,10.8578644 10.8578644,7.5 15,7.5 C19.1421356,7.5 22.5,10.8578644 22.5,15 C22.5,19.1421356 19.1421356,22.5 15,22.5 Z M15,21.5 C18.5898509,21.5 21.5,18.5898509 21.5,15 C21.5,11.4101491 18.5898509,8.5 15,8.5 C11.4101491,8.5 8.5,11.4101491 8.5,15 C8.5,18.5898509 11.4101491,21.5 15,21.5 Z" id="Oval" fill="#165FD5" fill-rule="nonzero"></path>
                        <circle id="Oval" fill="#FFCC63" cx="15" cy="15" r="4"></circle>
                        <path d="M16.0642567,11.774719 L16.3084882,12.744436 C15.2354611,13.014687 14.3908067,13.8625913 14.1248404,14.936812 L13.15415,14.6964789 C13.5089273,13.2635558 14.6329533,12.1352049 16.0642567,11.774719 Z" id="Oval" fill="#FFF2D7" fill-rule="nonzero" transform="translate(14.731319, 13.355766) rotate(39.000000) translate(-14.731319, -13.355766) "></path>
                        <polygon id="line" fill="#FFFFFF" fill-rule="nonzero" points="14.5 0 15.5 0 15.5 8.18867925 14.5 8.18867925"></polygon>
                        <polygon id="line" fill="#FFFFFF" fill-rule="nonzero" points="22 15.5 22 14.5 30.1886792 14.5 30.1886792 15.5"></polygon>
                        <polygon id="line" fill="#FFFFFF" fill-rule="nonzero" points="0 15.5 0 14.5 8.18867925 14.5 8.18867925 15.5"></polygon>
                    </g>
                    <g id="yellow_circle_detail" transform="translate(26.981542, 132.496965) scale(1, -1) rotate(-47.000000) translate(-26.981542, -132.496965) translate(11.481542, 120.996965)">
                        <path d="M15,22.5 C10.8578644,22.5 7.5,19.1421356 7.5,15 C7.5,10.8578644 10.8578644,7.5 15,7.5 C19.1421356,7.5 22.5,10.8578644 22.5,15 C22.5,19.1421356 19.1421356,22.5 15,22.5 Z M15,21.5 C18.5898509,21.5 21.5,18.5898509 21.5,15 C21.5,11.4101491 18.5898509,8.5 15,8.5 C11.4101491,8.5 8.5,11.4101491 8.5,15 C8.5,18.5898509 11.4101491,21.5 15,21.5 Z" id="Oval" fill="#165FD5" fill-rule="nonzero"></path>
                        <circle id="Oval" fill="#FFCC63" cx="15" cy="15" r="4"></circle>
                        <path d="M14.4942324,13.0013564 L14.7384639,13.9710734 C13.6654368,14.2413244 12.8207824,15.0892287 12.5548162,16.1634494 L11.5841257,15.9231163 C11.938903,14.4901932 13.062929,13.3618423 14.4942324,13.0013564 Z" id="Oval" fill="#FFF2D7" fill-rule="nonzero" transform="translate(13.161295, 14.582403) rotate(-43.000000) translate(-13.161295, -14.582403) "></path>
                        <polygon id="line" fill="#FFFFFF" fill-rule="nonzero" points="14.5 0 15.5 0 15.5 8.18867925 14.5 8.18867925"></polygon>
                        <polygon id="line" fill="#FFFFFF" fill-rule="nonzero" points="22 15.5 22 14.5 30.1886792 14.5 30.1886792 15.5"></polygon>
                        <polygon id="line" fill="#FFFFFF" fill-rule="nonzero" points="0 15.5 0 14.5 8.18867925 14.5 8.18867925 15.5"></polygon>
                    </g>
                    <g id="yellow_circle_detail" transform="translate(166.250188, 132.496965) scale(-1, -1) rotate(-47.000000) translate(-166.250188, -132.496965) translate(150.750188, 120.996965)">
                        <path d="M15,22.5 C10.8578644,22.5 7.5,19.1421356 7.5,15 C7.5,10.8578644 10.8578644,7.5 15,7.5 C19.1421356,7.5 22.5,10.8578644 22.5,15 C22.5,19.1421356 19.1421356,22.5 15,22.5 Z M15,21.5 C18.5898509,21.5 21.5,18.5898509 21.5,15 C21.5,11.4101491 18.5898509,8.5 15,8.5 C11.4101491,8.5 8.5,11.4101491 8.5,15 C8.5,18.5898509 11.4101491,21.5 15,21.5 Z" id="Oval" fill="#165FD5" fill-rule="nonzero"></path>
                        <circle id="Oval" fill="#FFCC63" cx="15" cy="15" r="4"></circle>
                        <path d="M16.6584221,14.7324724 L16.9026535,15.7021894 C15.8296264,15.9724404 14.984972,16.8203447 14.7190058,17.8945654 L13.7483154,17.6542322 C14.1030927,16.2213092 15.2271186,15.0929583 16.6584221,14.7324724 Z" id="Oval" fill="#FFF2D7" fill-rule="nonzero" transform="translate(15.325484, 16.313519) scale(-1, -1) rotate(-330.000000) translate(-15.325484, -16.313519) "></path>
                        <polygon id="line" fill="#FFFFFF" fill-rule="nonzero" points="14.5 0 15.5 0 15.5 8.18867925 14.5 8.18867925"></polygon>
                        <polygon id="line" fill="#FFFFFF" fill-rule="nonzero" points="22 15.5 22 14.5 30.1886792 14.5 30.1886792 15.5"></polygon>
                        <polygon id="line" fill="#FFFFFF" fill-rule="nonzero" points="0 15.5 0 14.5 8.18867925 14.5 8.18867925 15.5"></polygon>
                    </g>
                    <g id="yellow_circle_detail" transform="translate(174.667281, 18.990423) scale(-1, 1) rotate(-57.000000) translate(-174.667281, -18.990423) translate(159.167281, 7.990423)">
                        <path d="M15,22.5 C10.8578644,22.5 7.5,19.1421356 7.5,15 C7.5,10.8578644 10.8578644,7.5 15,7.5 C19.1421356,7.5 22.5,10.8578644 22.5,15 C22.5,19.1421356 19.1421356,22.5 15,22.5 Z M15,21.5 C18.5898509,21.5 21.5,18.5898509 21.5,15 C21.5,11.4101491 18.5898509,8.5 15,8.5 C11.4101491,8.5 8.5,11.4101491 8.5,15 C8.5,18.5898509 11.4101491,21.5 15,21.5 Z" id="Oval" fill="#165FD5" fill-rule="nonzero"></path>
                        <circle id="Oval" fill="#FFCC63" cx="15" cy="15" r="4"></circle>
                        <path d="M17.3633748,14.5081518 L17.6076062,15.4778687 C16.5345791,15.7481197 15.6899247,16.5960241 15.4239585,17.6702448 L14.4532681,17.4299116 C14.8080454,15.9969885 15.9320713,14.8686377 17.3633748,14.5081518 Z" id="Oval" fill="#FFF2D7" fill-rule="nonzero" transform="translate(16.030437, 16.089198) scale(-1, -1) translate(-16.030437, -16.089198) "></path>
                        <polygon id="line" fill="#FFFFFF" fill-rule="nonzero" points="14.5 0 15.5 0 15.5 8.18867925 14.5 8.18867925"></polygon>
                        <polygon id="line" fill="#FFFFFF" fill-rule="nonzero" points="22 15.5 22 14.5 30.1886792 14.5 30.1886792 15.5"></polygon>
                        <polygon id="line" fill="#FFFFFF" fill-rule="nonzero" points="0 15.5 0 14.5 8.18867925 14.5 8.18867925 15.5"></polygon>
                    </g>
                </g>
                <g id="big_circles">
                    <g id="purple_circle_detail" transform="translate(84.000000, 0.000000)">
                        <path d="M26,38.5 C19.0964406,38.5 13.5,32.9035594 13.5,26 C13.5,19.0964406 19.0964406,13.5 26,13.5 C32.9035594,13.5 38.5,19.0964406 38.5,26 C38.5,32.9035594 32.9035594,38.5 26,38.5 Z M26,37.5 C32.3512746,37.5 37.5,32.3512746 37.5,26 C37.5,19.6487254 32.3512746,14.5 26,14.5 C19.6487254,14.5 14.5,19.6487254 14.5,26 C14.5,32.3512746 19.6487254,37.5 26,37.5 Z" id="Oval" fill="#165FD5" fill-rule="nonzero"></path>
                        <circle id="Oval" fill="#BA39E6" cx="26" cy="26" r="8"></circle>
                        <path d="M26,32.5 C22.4101491,32.5 19.5,29.5898509 19.5,26 C19.5,22.4101491 22.4101491,19.5 26,19.5 C29.5898509,19.5 32.5,22.4101491 32.5,26 C32.5,29.5898509 29.5898509,32.5 26,32.5 Z M26,31.5 C29.0375661,31.5 31.5,29.0375661 31.5,26 C31.5,22.9624339 29.0375661,20.5 26,20.5 C22.9624339,20.5 20.5,22.9624339 20.5,26 C20.5,29.0375661 22.9624339,31.5 26,31.5 Z" id="Oval" fill="#E292FE" fill-rule="nonzero"></path>
                        <path d="M25.4034876,21.696544 L25.6477191,22.666261 C24.1798389,23.035959 23.0247863,24.1954558 22.6609487,25.6649732 L21.6902582,25.42464 C22.142907,23.5964203 23.5773311,22.156477 25.4034876,21.696544 Z" id="Oval" fill="#DA6EFF" fill-rule="nonzero"></path>
                        <polygon id="line" fill="#FFFFFF" fill-rule="nonzero" points="25.5 0 26.5 0 26.5 14 25.5 14"></polygon>
                        <polygon id="line" fill="#FFFFFF" fill-rule="nonzero" points="38.0682767 26.6337637 38.0682767 25.6337637 52.0682767 25.6337637 52.0682767 26.6337637"></polygon>
                        <polygon id="line" fill="#FFFFFF" fill-rule="nonzero" points="0 26.5 0 25.5 14 25.5 14 26.5"></polygon>
                    </g>
                    <g id="purple_circle_detail" transform="translate(110.500000, 200.000000) scale(1, -1) translate(-110.500000, -200.000000) translate(84.000000, 181.000000)">
                        <path d="M26,38.5 C19.0964406,38.5 13.5,32.9035594 13.5,26 C13.5,19.0964406 19.0964406,13.5 26,13.5 C32.9035594,13.5 38.5,19.0964406 38.5,26 C38.5,32.9035594 32.9035594,38.5 26,38.5 Z M26,37.5 C32.3512746,37.5 37.5,32.3512746 37.5,26 C37.5,19.6487254 32.3512746,14.5 26,14.5 C19.6487254,14.5 14.5,19.6487254 14.5,26 C14.5,32.3512746 19.6487254,37.5 26,37.5 Z" id="Oval" fill="#165FD5" fill-rule="nonzero"></path>
                        <circle id="Oval" fill="#BA39E6" cx="26" cy="26" r="8"></circle>
                        <path d="M26,32.5 C22.4101491,32.5 19.5,29.5898509 19.5,26 C19.5,22.4101491 22.4101491,19.5 26,19.5 C29.5898509,19.5 32.5,22.4101491 32.5,26 C32.5,29.5898509 29.5898509,32.5 26,32.5 Z M26,31.5 C29.0375661,31.5 31.5,29.0375661 31.5,26 C31.5,22.9624339 29.0375661,20.5 26,20.5 C22.9624339,20.5 20.5,22.9624339 20.5,26 C20.5,29.0375661 22.9624339,31.5 26,31.5 Z" id="Oval" fill="#E292FE" fill-rule="nonzero"></path>
                        <path d="M25.4034876,25.696544 L25.6477191,26.666261 C24.1798389,27.035959 23.0247863,28.1954558 22.6609487,29.6649732 L21.6902582,29.42464 C22.142907,27.5964203 23.5773311,26.156477 25.4034876,25.696544 Z" id="Oval" fill="#DA6EFF" fill-rule="nonzero" transform="translate(23.668989, 27.680759) scale(1, -1) translate(-23.668989, -27.680759) "></path>
                        <polygon id="line" fill="#FFFFFF" fill-rule="nonzero" points="25.5 0 26.5 0 26.5 14 25.5 14"></polygon>
                        <polygon id="line" fill="#FFFFFF" fill-rule="nonzero" points="38.0682767 26.6337637 38.0682767 25.6337637 52.0682767 25.6337637 52.0682767 26.6337637"></polygon>
                        <polygon id="line" fill="#FFFFFF" fill-rule="nonzero" points="0 26.5 0 25.5 14 25.5 14 26.5"></polygon>
                    </g>
                    <g id="purple_circle_detail" transform="translate(19.000000, 103.500000) scale(1, -1) rotate(-90.000000) translate(-19.000000, -103.500000) translate(-7.500000, 84.500000)">
                        <path d="M26,38.5 C19.0964406,38.5 13.5,32.9035594 13.5,26 C13.5,19.0964406 19.0964406,13.5 26,13.5 C32.9035594,13.5 38.5,19.0964406 38.5,26 C38.5,32.9035594 32.9035594,38.5 26,38.5 Z M26,37.5 C32.3512746,37.5 37.5,32.3512746 37.5,26 C37.5,19.6487254 32.3512746,14.5 26,14.5 C19.6487254,14.5 14.5,19.6487254 14.5,26 C14.5,32.3512746 19.6487254,37.5 26,37.5 Z" id="Oval" fill="#165FD5" fill-rule="nonzero"></path>
                        <circle id="Oval" fill="#BA39E6" cx="26" cy="26" r="8"></circle>
                        <path d="M26,32.5 C22.4101491,32.5 19.5,29.5898509 19.5,26 C19.5,22.4101491 22.4101491,19.5 26,19.5 C29.5898509,19.5 32.5,22.4101491 32.5,26 C32.5,29.5898509 29.5898509,32.5 26,32.5 Z M26,31.5 C29.0375661,31.5 31.5,29.0375661 31.5,26 C31.5,22.9624339 29.0375661,20.5 26,20.5 C22.9624339,20.5 20.5,22.9624339 20.5,26 C20.5,29.0375661 22.9624339,31.5 26,31.5 Z" id="Oval" fill="#E292FE" fill-rule="nonzero"></path>
                        <path d="M25.4034876,21.696544 L25.6477191,22.666261 C24.1798389,23.035959 23.0247863,24.1954558 22.6609487,25.6649732 L21.6902582,25.42464 C22.142907,23.5964203 23.5773311,22.156477 25.4034876,21.696544 Z" id="Oval" fill="#DA6EFF" fill-rule="nonzero"></path>
                        <polygon id="line" fill="#FFFFFF" fill-rule="nonzero" points="25.5 0 26.5 0 26.5 14 25.5 14"></polygon>
                        <polygon id="line" fill="#FFFFFF" fill-rule="nonzero" points="38.0682767 26.6337637 38.0682767 25.6337637 52.0682767 25.6337637 52.0682767 26.6337637"></polygon>
                        <polygon id="line" fill="#FFFFFF" fill-rule="nonzero" points="0 26.5 0 25.5 14 25.5 14 26.5"></polygon>
                    </g>
                    <g id="purple_circle_detail" transform="translate(199.500000, 103.500000) scale(-1, -1) rotate(-90.000000) translate(-199.500000, -103.500000) translate(173.000000, 84.000000)">
                        <path d="M26,38.5 C19.0964406,38.5 13.5,32.9035594 13.5,26 C13.5,19.0964406 19.0964406,13.5 26,13.5 C32.9035594,13.5 38.5,19.0964406 38.5,26 C38.5,32.9035594 32.9035594,38.5 26,38.5 Z M26,37.5 C32.3512746,37.5 37.5,32.3512746 37.5,26 C37.5,19.6487254 32.3512746,14.5 26,14.5 C19.6487254,14.5 14.5,19.6487254 14.5,26 C14.5,32.3512746 19.6487254,37.5 26,37.5 Z" id="Oval" fill="#165FD5" fill-rule="nonzero"></path>
                        <circle id="Oval" fill="#BA39E6" cx="26" cy="26" r="8"></circle>
                        <path d="M26,32.5 C22.4101491,32.5 19.5,29.5898509 19.5,26 C19.5,22.4101491 22.4101491,19.5 26,19.5 C29.5898509,19.5 32.5,22.4101491 32.5,26 C32.5,29.5898509 29.5898509,32.5 26,32.5 Z M26,31.5 C29.0375661,31.5 31.5,29.0375661 31.5,26 C31.5,22.9624339 29.0375661,20.5 26,20.5 C22.9624339,20.5 20.5,22.9624339 20.5,26 C20.5,29.0375661 22.9624339,31.5 26,31.5 Z" id="Oval" fill="#E292FE" fill-rule="nonzero"></path>
                        <path d="M25.2278842,26.5151415 L25.4721156,27.4848585 C24.0042355,27.8545566 22.8491829,29.0140534 22.4853452,30.4835707 L21.5146548,30.2432376 C21.9673035,28.4150178 23.4017277,26.9750745 25.2278842,26.5151415 Z" id="Oval" fill="#DA6EFF" fill-rule="nonzero" transform="translate(23.493385, 28.499356) scale(1, -1) translate(-23.493385, -28.499356) "></path>
                        <polygon id="line" fill="#FFFFFF" fill-rule="nonzero" points="25.5 0 26.5 0 26.5 14 25.5 14"></polygon>
                        <polygon id="line" fill="#FFFFFF" fill-rule="nonzero" points="38.0682767 26.6337637 38.0682767 25.6337637 52.0682767 25.6337637 52.0682767 26.6337637"></polygon>
                        <polygon id="line" fill="#FFFFFF" fill-rule="nonzero" points="0 26.5 0 25.5 14 25.5 14 26.5"></polygon>
                    </g>
                </g>
            </g>
        </g>
    </g>
</svg>