<?xml version="1.0" encoding="UTF-8"?>
<svg width="360px" height="294px" viewBox="0 0 360 294" version="1.1" xmlns="http://www.w3.org/2000/svg" xmlns:xlink="http://www.w3.org/1999/xlink">
    <!-- Generator: Sketch 57.1 (83088) - https://sketch.com -->
    <title>16_1_styling_nativescript_vue_applications</title>
    <desc>Created with Sketch.</desc>
    <g id="illustrations" stroke="none" stroke-width="1" fill="none" fill-rule="evenodd">
        <g id="styling_nativescript_vue_applications" transform="translate(92.000000, 46.000000)">
            <g id="styling_nativescript_vue_applications_image">
                <g id="circle_bg">
                    <ellipse id="circle_2" fill="#0C3E91" cx="87.9149758" cy="108" rx="82.9198068" ry="83"></ellipse>
                    <path d="M87.9149758,195.5 C39.636751,195.5 0.499516908,156.324916 0.499516908,108 C0.499516908,59.6750844 39.636751,20.5 87.9149758,20.5 C136.193201,20.5 175.330435,59.6750844 175.330435,108 C175.330435,156.324916 136.193201,195.5 87.9149758,195.5 Z M87.9149758,194.5 C135.64145,194.5 174.331401,155.772631 174.331401,108 C174.331401,60.2273691 135.64145,21.5 87.9149758,21.5 C40.1885021,21.5 1.49855072,60.2273691 1.49855072,108 C1.49855072,155.772631 40.1885021,194.5 87.9149758,194.5 Z" id="circle_1" fill="#0B49AF" fill-rule="nonzero"></path>
                    <polygon id="rectangle" fill="#073581" transform="translate(37.463768, 77.500000) rotate(-315.000000) translate(-37.463768, -77.500000) " points="20.9637681 61 53.9478261 61.015942 53.9637681 94 20.9797101 93.984058"></polygon>
                    <polygon id="rectangle" fill="#1148A3" transform="translate(67.451271, 9.516504) rotate(-315.000000) translate(-67.451271, -9.516504) " points="60.7220862 2.78731957 74.173954 2.7938212 74.1804557 16.245689 60.7285879 16.2391874"></polygon>
                    <polygon id="rectangle" fill="#1148A3" transform="translate(168.595201, 139.758252) rotate(-315.000000) translate(-168.595201, -139.758252) " points="155.331113 126.494165 181.846472 126.50698 181.859288 153.022339 155.343929 153.009524"></polygon>
                    <polygon id="rectangle" fill="#1148A3" transform="translate(126.626275, 150.748737) rotate(-315.000000) translate(-126.626275, -150.748737) " points="109.126275 133.248737 144.109367 133.265646 144.126275 168.248737 109.143183 168.231829"></polygon>
                </g>
                <path d="M153.851208,165.45 L153.851208,182 L137.316667,182 L137.316667,180.9 L152.751208,180.9 L152.751208,165.45 L153.851208,165.45 Z M22.528744,165.45 L22.528744,180.9 L37.963285,180.9 L37.963285,182 L21.428744,182 L21.428744,165.45 L22.528744,165.45 Z M42.9584541,22.45 L42.9584541,23.55 L27.523913,23.55 L27.523913,39 L26.423913,39 L26.423913,22.45 L42.9584541,22.45 Z M148.856039,22.45 L148.856039,39 L147.756039,39 L147.756039,23.55 L132.321498,23.55 L132.321498,22.45 L148.856039,22.45 Z" id="borders" fill="#5893F4" fill-rule="nonzero"></path>
                <g id="easel" transform="translate(87.915195, 102.406456) rotate(-90.000000) translate(-87.915195, -102.406456) translate(-9.084805, 39.906456)">
                    <g id="drawing" transform="translate(28.472464, 0.500000)">
                        <polygon id="bg" fill="#F8C04C" points="-6.52725624e-13 5.0447675 143.858683 5.00000001 143.858683 118.997315 0 119"></polygon>
                        <polygon id="bg" fill="#FFFFFF" points="5.9942029 11.0058033 137.866667 11 137.866667 112.997598 5.9942029 113"></polygon>
                        <polygon id="bg" fill="#A4FFDB" points="5.9942029 11.0058033 6.56927445 11 80.4076132 53.1128672 58.9614757 66.2132494 137.866667 113 137.866667 112.963346 5.9942029 112.965748"></polygon>
                        <polyline id="green" stroke="#A4FFDB" stroke-width="1.1" points="35.0321414 13.5585713 104.384425 53.1128672 82.9382873 66.2132494 133.892672 96.4265986"></polyline>
                        <polyline id="yellow" stroke="#FDEEC1" stroke-width="1.1" points="60.0298602 13.5585713 129.382144 53.1128672 107.936006 66.2132494 133.904583 81.61129"></polyline>
                        <path d="M86.9164979,13.5585713 L134.481552,40.6867659" id="red" stroke="#FFCAD5" stroke-width="1.1"></path>
                        <polygon id="bg" fill="#FFFFFF" points="5.9942029 22.5511299 59.7190889 53.1128672 38.2729515 66.2132494 117.178142 113 117.178142 112.963346 5.9942029 113"></polygon>
                        <polygon id="bg" fill="#FFE28D" points="5.9942029 23.7714475 57.7210213 53.1128672 36.2748838 66.2132494 115.180075 113 115.180075 112.963346 5.9942029 112.965748"></polygon>
                        <polygon id="bg" fill="#FFFFFF" points="5.99341099 35.1689582 37.4491591 53.1128672 16.0030216 66.2132494 94.9082126 113 94.9082126 112.963346 5.99341099 113"></polygon>
                        <polygon id="bg" fill="#FF718F" points="5.9935723 36.3088465 35.4510915 53.1128672 14.004954 66.2132494 92.9101449 113 92.9101449 112.963346 5.99341099 113"></polygon>
                        <path d="M2.99710145,8 L140.863768,8 L140.863768,116 L2.99710145,116 L2.99710145,8 Z M4.09710145,9.1 L4.09710145,114.9 L139.763768,114.9 L139.763768,9.1 L4.09710145,9.1 Z" id="Rectangle" fill="#FFF2D7" fill-rule="nonzero"></path>
                        <polygon id="line" fill="#5893F4" transform="translate(90.912077, 123.000000) scale(1, -1) translate(-90.912077, -123.000000) " points="54.9468599 122.5 126.877295 122.5 126.877295 123.5 54.9468599 123.5"></polygon>
                        <polygon id="line" fill="#5893F4" transform="translate(52.948792, 1.000000) scale(1, -1) translate(-52.948792, -1.000000) " points="16.9835749 0.5 88.9140097 0.5 88.9140097 1.5 16.9835749 1.5"></polygon>
                    </g>
                    <g id="elements" transform="translate(0.000000, 1.500000)">
                        <polygon id="Path-3" fill="#815700" fill-rule="nonzero" points="12.3034283 46.1969233 10.1389688 45.8030767 7.37244718 61.0070247 10.1415257 75.2104908 12.3008715 74.7895092 9.6111277 60.9929753"></polygon>
                        <rect id="Rectangle" fill="#A97200" x="178.327536" y="59" width="14.9855072" height="4"></rect>
                        <rect id="Rectangle" fill="#B27800" x="-1.0658141e-13" y="59" width="18.9816425" height="4"></rect>
                        <polygon id="Rectangle" fill="#B27800" transform="translate(11.221199, 46.000000) rotate(90.000000) translate(-11.221199, -46.000000) " points="3.30613508 54.7008774 14.8061351 34.8015381 19.1362621 37.2991226 7.63626209 57.1984619"></polygon>
                        <polygon id="Rectangle" fill="#B27800" transform="translate(11.221199, 74.500000) rotate(-90.000000) translate(-11.221199, -74.500000) " points="19.1362621 83.2008774 7.63626209 63.3015381 3.30613508 65.7991226 14.8061351 85.6984619"></polygon>
                        <rect id="Rectangle" fill="#E29D0D" x="172.333333" y="43" width="5.9942029" height="36"></rect>
                        <rect id="Rectangle" fill="#B97D00" x="172.333333" y="43" width="1" height="36"></rect>
                        <rect id="Rectangle" fill="#D6940B" x="22.4782609" y="0" width="5.9942029" height="122"></rect>
                        <rect id="Rectangle" fill="#F8C04C" x="18.4821256" y="36" width="5.9942029" height="50"></rect>
                        <ellipse id="Oval" fill="#FFD886" cx="175.330435" cy="61" rx="1.49855072" ry="1.5"></ellipse>
                        <polygon id="Path-2" fill="#FFF2D7" fill-rule="nonzero" points="19.9301932 37.9710545 19.9301932 84.0192345 21.0301932 84.0192345 21.0301932 37.9710545"></polygon>
                    </g>
                </g>
                <g id="logo_elements" transform="translate(39.873430, 39.909091)">
                    <g id="logo" transform="translate(23.000000, 35.000000)">
                        <polygon id="Path-40" fill="#34495E" points="7.96410207 29.6641123 11.8973433 29.6641123 18.1478781 18.4846189 16.1980831 15.0141769"></polygon>
                        <path d="M28.3556132,13.5231639 L30.2737773,13.511239 L29.3040784,11.8094427 L28.3556132,13.5231639 Z M26.0550606,6.10750102 L18.1768993,6.10750102 L29.3131783,25.8613168 L40.5632677,6.10750102 L32.4598387,6.10750102 L29.3040784,11.8094427 L26.0550606,6.10750102 Z" id="Path-39" fill="#FFFFFF" fill-rule="nonzero"></path>
                        <polygon id="Path-39" fill="#34495E" points="38.6709184 7.20750102 33.1082733 7.20750102 29.3180438 14.0558246 25.4158072 7.20750102 20.0597867 7.20750102 29.3180438 23.6300338"></polygon>
                        <path d="M15.240458,14.0928916 L17.1587112,14.1003848 L16.1929124,15.8047239 L15.240458,14.0928916 Z M16.1929124,15.8047239 L7.74202233,30.7179569 L0.184419498,30.7179569 L16.9639404,0.8396149 L29.2953169,22.9222437 L38.8847471,6.11775163 L47.7920525,6.11775163 L29.2842499,39.3335933 L16.1929124,15.8047239 Z M30.2453462,24.6235253 L28.3295542,24.6146436 L29.2953169,22.9222437 L30.2453462,24.6235253 Z" id="Path-37" fill="#FFFFFF" fill-rule="nonzero"></path>
                        <polygon id="Path-37" fill="#37DE93" points="16.9612197 3.09090909 29.2849433 25.1598333 39.5235354 7.21775163 45.9199014 7.21775163 29.2849433 37.0724107 16.2016884 13.5580681 7.10102226 29.6179569 2.06376812 29.6179569"></polygon>
                        <polygon id="Path-39" fill="#34495E" points="38.6709184 7.20750102 33.1082733 7.20750102 29.3180438 14.0558246 25.4158072 7.20750102 20.0597867 7.20750102 29.3180438 23.6300338"></polygon>
                    </g>
                    <polygon id="green_line" fill="#3DDF96" fill-rule="nonzero" points="72.0369784 42.3240028 60.3354684 63.4070907 61.2972605 63.9409034 72.9987704 42.8578154"></polygon>
                    <polygon id="green_line" fill="#3DDF96" fill-rule="nonzero" points="96.226411 0.824002751 84.5249011 21.9070907 85.4866931 22.4409034 97.1882031 1.35781543"></polygon>
                    <polygon id="yellow" fill="#F6C536" fill-rule="nonzero" points="96.226411 24.8240028 84.5249011 45.9070907 85.4866931 46.4409034 97.1882031 25.3578154"></polygon>
                    <polygon id="red" fill="#F84168" fill-rule="nonzero" points="96.226411 46.8240028 84.5249011 67.9070907 85.4866931 68.4409034 97.1882031 47.3578154"></polygon>
                    <polygon id="green_line" fill="#3DDF96" fill-rule="nonzero" points="57.9012448 67.9929308 54.3412655 74.4070907 55.3030576 74.9409034 58.8630369 68.5267435"></polygon>
                    <polygon id="green_line" fill="#3DDF96" fill-rule="nonzero" points="4.16603975 116.824003 0.606060477 123.238163 1.56785257 123.771975 5.12783184 117.357815"></polygon>
                    <polygon id="yellow" fill="#F6C536" fill-rule="nonzero" points="17.1534794 116.824003 13.5935001 123.238163 14.5552922 123.771975 18.1152715 117.357815"></polygon>
                    <polygon id="red" fill="#F84168" fill-rule="nonzero" points="30.140919 116.824003 26.5809397 123.238163 27.5427318 123.771975 31.1027111 117.357815"></polygon>
                    <polygon id="green_line" fill="#59F4AE" fill-rule="nonzero" points="28.3791766 52.584046 21.5857706 64.8240028 22.5475627 65.3578154 29.3409686 53.1178587"></polygon>
                    <polygon id="green_line" fill="#59F4AE" fill-rule="nonzero" points="36.3714471 37.8240028 32.0824303 45.5516993 33.0442224 46.085512 37.3332392 38.3578154"></polygon>
                </g>
                <g id="palette" transform="translate(85.914010, 112.000000)" fill-rule="nonzero">
                    <path d="M29.9738558,7 C17.8856926,7 7.99516908,16.9001146 7.99516908,29 C7.99516908,41.1004583 17.8856926,51 29.9738558,51 C32.0499259,51 33.6369703,49.4114167 33.6369703,47.3333333 C33.6369703,46.3558229 33.2708878,45.5 32.6604068,44.8889271 C32.0499259,44.2777396 31.6838434,43.4219167 31.6838434,42.4444062 C31.6838434,40.3664375 33.2708878,38.7777396 35.3469579,38.7777396 L39.7422373,38.7777396 C46.4579853,38.7777396 51.952657,33.2777396 51.952657,26.5555937 C51.952657,15.8002292 42.0625914,7 29.9738558,7 Z" id="shadow" fill="#F7466B" transform="translate(29.973913, 29.000000) scale(-1, 1) rotate(-90.000000) translate(-29.973913, -29.000000) "></path>
                    <g id="layer" transform="translate(0.900000, 0.900000)">
                        <path d="M24.0786867,0 C11.3827715,0 1,10.3928399 1,23.1 C1,35.8075399 11.3825785,46.2 24.0786867,46.2 C26.7625089,46.2 28.8418012,44.1186913 28.8418012,41.4333333 C28.8418012,40.1886409 28.3767977,39.0456604 27.5434321,38.2114867 C27.1256374,37.7932084 26.8886743,37.210732 26.8886743,36.5444063 C26.8886743,35.0736668 27.983516,33.9777396 29.4517888,33.9777396 L33.8470683,33.9777396 C41.1705489,33.9777396 47.1574879,27.9850336 47.1574879,20.6555938 C47.1574879,9.26204567 36.747954,0 24.0786867,0 Z" id="Shape" fill="#FFFFFF" transform="translate(24.078744, 23.100000) scale(-1, 1) rotate(-90.000000) translate(-24.078744, -23.100000) "></path>
                        <path d="M24.0786867,1.1 C11.9905235,1.1 2.1,11.0001146 2.1,23.1 C2.1,35.2004583 11.9905235,45.1 24.0786867,45.1 C26.1547568,45.1 27.7418012,43.5114167 27.7418012,41.4333333 C27.7418012,40.4558229 27.3757187,39.6 26.7652378,38.9889271 C26.1547568,38.3777396 25.7886743,37.5219167 25.7886743,36.5444062 C25.7886743,34.4664375 27.3757187,32.8777396 29.4517888,32.8777396 L33.8470683,32.8777396 C40.5628162,32.8777396 46.0574879,27.3777396 46.0574879,20.6555937 C46.0574879,9.90022917 36.1674223,1.1 24.0786867,1.1 Z" id="Shape" fill="#C939FA" transform="translate(24.078744, 23.100000) scale(-1, 1) rotate(-90.000000) translate(-24.078744, -23.100000) "></path>
                    </g>
                    <g id="shadows" transform="translate(24.978744, 8.000000)" fill="#A10FD3">
                        <path d="M4.49565217,36 C1.96219258,36 2.66453526e-14,34.0359097 2.66453526e-14,31.5 C2.66453526e-14,28.9640903 1.96219258,27 4.49565217,27 C7.02903574,27 8.99130435,28.9641235 8.99130435,31.5 C8.99130435,34.0358765 7.02903574,36 4.49565217,36 Z" id="Path"></path>
                        <path d="M14.4859903,29 C11.952564,29 9.99033816,27.0358337 9.99033816,24.5 C9.99033816,21.9640903 11.9525307,20 14.4859903,20 C17.0193739,20 18.9816425,21.9641235 18.9816425,24.5 C18.9816425,27.0358004 17.0193407,29 14.4859903,29 Z" id="Path"></path>
                        <path d="M14.4859903,17 C11.95264,17 9.99033816,15.0358004 9.99033816,12.5 C9.99033816,9.96412352 11.9526068,8 14.4859903,8 C17.0194499,8 18.9816425,9.96409025 18.9816425,12.5 C18.9816425,15.0358337 17.0194167,17 14.4859903,17 Z" id="Path"></path>
                        <path d="M4.49565217,9 C1.9622686,9 2.66453526e-14,7.03587648 2.66453526e-14,4.5 C2.66453526e-14,1.96412352 1.9622686,1.77635684e-15 4.49565217,1.77635684e-15 C7.02911177,1.77635684e-15 8.99130435,1.96409025 8.99130435,4.5 C8.99130435,7.03590975 7.02911177,9 4.49565217,9 Z" id="Path"></path>
                    </g>
                    <g id="colors" transform="translate(23.878744, 5.900000)">
                        <path d="M4.59661836,36.2 C2.00715852,36.2 3.01980663e-14,34.1909003 3.01980663e-14,31.6 C3.01980663e-14,29.0090997 2.00715852,27 4.59661836,27 C7.18600167,27 9.19323671,29.0091325 9.19323671,31.6 C9.19323671,34.1908675 7.18600167,36.2 4.59661836,36.2 Z" id="Path" fill="#FFFFFF"></path>
                        <path d="M14.5869565,29.2 C11.9975294,29.2 9.99033816,27.1908237 9.99033816,24.6 C9.99033816,22.0090997 11.9974967,20 14.5869565,20 C17.1763398,20 19.1835749,22.0091325 19.1835749,24.6 C19.1835749,27.1907909 17.1763071,29.2 14.5869565,29.2 Z" id="Path" fill="#FFFFFF"></path>
                        <path d="M14.5869565,17.2 C11.997606,17.2 9.99033816,15.1907909 9.99033816,12.6 C9.99033816,10.0091325 11.9975732,8 14.5869565,8 C17.1764164,8 19.1835749,10.0090997 19.1835749,12.6 C19.1835749,15.1908237 17.1763836,17.2 14.5869565,17.2 Z" id="Path" fill="#FFFFFF"></path>
                        <path d="M4.59661836,9.2 C2.00723504,9.2 3.01980663e-14,7.19086753 3.01980663e-14,4.6 C3.01980663e-14,2.00913247 2.00723504,-9.05941988e-14 4.59661836,-9.05941988e-14 C7.18607819,-9.05941988e-14 9.19323671,2.00909968 9.19323671,4.6 C9.19323671,7.19090032 7.18607819,9.2 4.59661836,9.2 Z" id="Path" fill="#FFFFFF"></path>
                        <path d="M4.59661836,35.1 C2.6149099,35.1 1.1,33.583625 1.1,31.6 C1.1,29.616375 2.6149099,28.1 4.59661836,28.1 C6.57821754,28.1 8.09323671,29.616375 8.09323671,31.6 C8.09323671,33.583625 6.57821754,35.1 4.59661836,35.1 Z" id="Path" fill="#EC6EEC"></path>
                        <path d="M14.5869565,28.1 C12.6052481,28.1 11.0903382,26.5835156 11.0903382,24.6 C11.0903382,22.616375 12.6052481,21.1 14.5869565,21.1 C16.5685557,21.1 18.0835749,22.616375 18.0835749,24.6 C18.0835749,26.5835156 16.5685557,28.1 14.5869565,28.1 Z" id="Path" fill="#FFD178"></path>
                        <path d="M14.5869565,16.1 C12.6053573,16.1 11.0903382,14.5835156 11.0903382,12.6 C11.0903382,10.616375 12.6053573,9.1 14.5869565,9.1 C16.568665,9.1 18.0835749,10.616375 18.0835749,12.6 C18.0835749,14.5835156 16.568665,16.1 14.5869565,16.1 Z" id="Path" fill="#46BAF9"></path>
                        <path d="M4.59661836,8.1 C2.61501917,8.1 1.1,6.583625 1.1,4.6 C1.1,2.616375 2.61501917,1.1 4.59661836,1.1 C6.57832681,1.1 8.09323671,2.616375 8.09323671,4.6 C8.09323671,6.583625 6.57832681,8.1 4.59661836,8.1 Z" id="Path" fill="#37DE93"></path>
                    </g>
                    <path d="M17.9855072,27.1 C16.245351,27.1 14.8874396,25.7407753 14.8874396,24 C14.8874396,22.2592247 16.245351,20.9 17.9855072,20.9 C19.7256174,20.9 21.0835749,22.2592411 21.0835749,24 C21.0835749,25.7407589 19.7256174,27.1 17.9855072,27.1 Z M17.9855072,26 C19.1178496,26 19.9835749,25.1335 19.9835749,24 C19.9835749,22.8665 19.1178496,22 17.9855072,22 C16.8531024,22 15.9874396,22.8665 15.9874396,24 C15.9874396,25.1335 16.8531024,26 17.9855072,26 Z" id="Path" fill="#E8A5FF"></path>
                    <path d="M8.09700714,21.8737177 C7.0482244,21.2570237 5.92068868,21.1886443 4.98302862,21.9375613 C3.92605635,22.781774 3.69372622,23.7539835 3.88369068,25.2251222 C3.90031277,25.3538483 3.91589698,25.4618506 3.94831311,25.6783224 C4.00123796,26.0317493 4.02078629,26.1733866 4.03874398,26.352545 L5.13325954,26.2428378 C5.11288528,26.0395699 5.09183924,25.8870811 5.03618334,25.5154164 C5.00483826,25.306097 4.99000924,25.2033284 4.97463314,25.0842515 C4.82880768,23.9549377 4.97246205,23.3538012 5.66951608,22.7970582 C6.19813246,22.3748479 6.84590607,22.4141321 7.53944421,22.821939 L8.09700714,21.8737177 Z" id="Path-4" fill="#E8A5FF"></path>
                    <path d="M6.50557133,33.806945 C8.4150672,37.5735922 14.0473092,42.486469 19.1560302,43.7928836 L19.4285552,42.7271772 C14.6442805,41.5037308 9.25962822,36.806821 7.4866992,33.3095638 L6.50557133,33.806945 Z" id="Path-5" fill="#E8A5FF"></path>
                </g>
                <g id="shadow" transform="translate(39.070565, 40.874016)" fill="#BECFEC">
                    <path d="M30.7351718,21.7789142 C33.2443956,24.1745695 35.4351966,26.2764613 37.3075747,28.0845894 C36.8243288,31.2522887 35.1239328,33.2084745 32.2063867,33.9531468 C27.4718392,35.1615891 23.7995237,34.9012404 23.7995237,38.8465576 C19.0819318,27.5383129 25.5393762,22.1792155 30.7351718,21.7789142 Z" id="Path-44" transform="translate(29.734553, 30.312736) scale(-1, 1) translate(-29.734553, -30.312736) "></path>
                    <polygon id="Path-45" transform="translate(14.323041, 13.842076) scale(-1, 1) translate(-14.323041, -13.842076) " points="6.03961325e-14 22.8211692 5.27743182 27.6841511 28.6460817 7.78064283 20.8313615 5.32907052e-15"></polygon>
                </g>
                <g id="brush" transform="translate(58.423671, 56.500000) scale(-1, 1) translate(-58.423671, -56.500000) translate(38.923671, 36.000000)">
                    <path d="M9.11820672,23.6529301 C11.6274305,26.0485854 13.8182315,28.1504772 15.6906096,29.9586053 C15.2073637,33.1263046 13.5069677,35.0824905 10.5894216,35.8271627 C5.85487415,37.035605 2.18255865,36.7752563 2.18255865,40.7205735 C-2.53503325,29.4123288 3.92241111,24.0532314 9.11820672,23.6529301 Z" id="Path-44" fill="#2BD287"></path>
                    <path d="M9.00948941,32.015867 C12.8306147,29.6082229 12.0705358,26.4754745 13.3677671,27.7216703 C13.9159013,28.2482399 14.6901822,28.9938849 15.6906096,29.9586053 C15.2073637,33.1263046 13.5069677,35.0824905 10.5894216,35.8271627 C5.85487415,37.035605 2.18255865,36.7752563 2.18255865,40.7205735 C1.18053921,38.3186953 0.682670616,36.1852071 0.56978148,34.3106191 C3.79674367,30.7902123 5.18490879,33.0720484 9.00948941,32.015867 Z" id="Path-44" fill="#0AAD64"></path>
                    <path d="M9.0759581,23.1045552 C9.2316363,23.0925612 9.38507533,23.1473011 9.49800879,23.2551231 C12.0079429,25.6514566 14.1994816,27.7540561 16.072671,29.5629677 C16.2009584,29.6868529 16.2612146,29.86525 16.2343192,30.0415505 C15.7184344,33.4231997 13.8613203,35.5596786 10.7254424,36.3600777 C10.1645955,36.5032278 9.59513553,36.6326264 8.92276653,36.7732101 C8.57700152,36.8455051 7.45270956,37.0722979 7.28294519,37.1073644 C3.73832555,37.8395395 2.73255865,38.5236571 2.73255865,40.7205735 C2.73255865,41.3216285 1.90637759,41.4870532 1.67495919,40.9323347 C-2.51594093,30.8865899 1.79651022,23.665388 9.0759581,23.1045552 Z M2.00894642,38.6699878 C2.65847344,37.2843936 4.20328352,36.6202763 7.06042716,36.030106 C7.23407616,35.9942371 8.35658749,35.7678035 8.69763909,35.696494 C9.35550095,35.5589435 9.91001707,35.4329406 10.4534008,35.2942478 C13.0668858,34.6271838 14.5970704,32.9411209 15.1006552,30.1535393 C13.320888,28.4357931 11.2601847,26.4588602 8.91858352,24.2227787 C2.97199919,24.8211296 -0.651665834,30.4242763 2.00894642,38.6699878 Z" id="Path-44" fill="#FFFFFF" fill-rule="nonzero"></path>
                    <polygon id="Path-45" fill="#04327C" points="10.2050921 23.6951851 15.4825239 28.558167 38.8511738 8.65465873 31.0364536 0.874015903"></polygon>
                    <polygon id="Path-45" fill="#C939FA" points="10.2050921 23.6951851 15.4825239 28.558167 20.014235 24.6984254 14.2120925 19.3054368"></polygon>
                    <polygon id="Path-45" fill="#FFD173" points="36.304404 10.8237894 38.8511738 8.65465873 31.0364536 0.874015903 28.6742893 3.46181373"></polygon>
                    <path d="M9.05717596,26.1353591 C6.27252394,26.1353591 4.05994172,27.9740796 3.72212127,30.7976544 L4.81433187,30.9283296 C5.084094,28.6736006 6.81476899,27.2353591 9.05717596,27.2353591 L9.05717596,26.1353591 Z" id="Path-46" fill="#FFFFFF" fill-rule="nonzero"></path>
                    <polygon id="Path-47" fill="#E69CFF" fill-rule="nonzero" points="18.8417427 24.8542688 13.9842719 20.3133151 13.2330754 21.1168721 18.0905462 25.6578258"></polygon>
                    <polygon id="Path-48" fill="#2264CE" fill-rule="nonzero" points="18.2511469 19.1828261 30.3288506 6.68321736 29.5377973 5.91886487 17.4600936 18.4184736"></polygon>
                </g>
            </g>
        </g>
    </g>
</svg>