<?xml version="1.0" encoding="UTF-8"?>
<svg width="360px" height="294px" viewBox="0 0 360 294" version="1.1" xmlns="http://www.w3.org/2000/svg" xmlns:xlink="http://www.w3.org/1999/xlink">
    <!-- Generator: Sketch 59.1 (86144) - https://sketch.com -->
    <title>15_1_nativescript_vue_vuex copy 2</title>
    <desc>Created with Sketch.</desc>
    <g id="illustrations" stroke="none" stroke-width="1" fill="none" fill-rule="evenodd">
        <g id="nativescript_vue_vuex-copy-3" transform="translate(0.000000, -2.000000)">
            <g id="nativescript_vue_vuex_image" transform="translate(82.000000, 66.000000)">
                <g id="circle_bg">
                    <circle id="circle_2" fill="#0C3E91" cx="98" cy="88" r="83"></circle>
                    <path d="M98,175.5 C49.6750844,175.5 10.5,136.324916 10.5,88 C10.5,39.6750844 49.6750844,0.5 98,0.5 C146.324916,0.5 185.5,39.6750844 185.5,88 C185.5,136.324916 146.324916,175.5 98,175.5 Z M98,174.5 C145.772631,174.5 184.5,135.772631 184.5,88 C184.5,40.2273691 145.772631,1.5 98,1.5 C50.2273691,1.5 11.5,40.2273691 11.5,88 C11.5,135.772631 50.2273691,174.5 98,174.5 Z" id="circle_1" fill="#0B49AF" fill-rule="nonzero"></path>
                    <rect id="rectangle" fill="#1550B1" transform="translate(185.677670, 82.677670) rotate(-315.000000) translate(-185.677670, -82.677670) " x="173.17767" y="70.1776695" width="25" height="25"></rect>
                    <rect id="rectangle" fill="#073581" transform="translate(161.748737, 91.748737) rotate(-315.000000) translate(-161.748737, -91.748737) " x="144.248737" y="74.2487373" width="35" height="35"></rect>
                    <rect id="rectangle" fill="#1550B1" transform="translate(13.677670, 91.435029) rotate(-315.000000) translate(-13.677670, -91.435029) " x="4.17766953" y="81.9350288" width="19" height="19"></rect>
                    <rect id="rectangle" fill="#023386" transform="translate(29.516504, 87.001786) rotate(-315.000000) translate(-29.516504, -87.001786) " x="16.7873196" y="74.2726009" width="25.4583694" height="25.4583694"></rect>
                </g>
                <g id="logo" transform="translate(65.000000, 62.000000)">
                    <polygon id="Path-37" fill="#37DE93" points="22.7591715 0 41.5864008 33.7708461 57.228128 6.31507738 67 6.31507738 41.5864008 52 21.5988184 16.0173107 7.6955263 40.5928644 0 40.5928644"></polygon>
                    <polygon id="Path-38" fill="#FFD783" points="9 41 15.1796193 41 25 24.2116082 21.9366254 19"></polygon>
                    <polygon id="Path-39" fill="#FFD783" points="56 6 47.6311342 6 41.9288251 16.425194 36.058004 6 28 6 41.9288251 31"></polygon>
                </g>
                <g id="green_lines" transform="translate(70.000000, 61.000000)" fill-rule="nonzero">
                    <polygon id="Path-9" fill="#73FFC0" points="3.62817734 23.6045993 2.75706586 23.113514 15.7847374 0.00438481735 16.6558489 0.495470142"></polygon>
                    <polygon id="Path-9" fill="#C0FFE3" points="1.62826485 22.604444 0.756978345 22.1136693 8.16953587 8.95394197 9.04082238 9.44471668"></polygon>
                    <polygon id="Path-9" fill="#73FFC0" points="38.67807 53.9894077 37.8065926 53.498972 52.2944833 27.7547822 53.1659607 28.2452178"></polygon>
                    <polygon id="Path-9" fill="#C0FFE3" points="47.4329541 42.6319957 46.5670459 42.1317928 54.2972679 28.7498985 55.1631761 29.2501015"></polygon>
                </g>
                <g id="pencil" transform="translate(55.000000, 99.000000)">
                    <polygon id="dark_shadow" fill="#AB1CDB" transform="translate(18.351617, 23.383730) rotate(38.000000) translate(-18.351617, -23.383730) " points="18.3630766 2.85840195 24.358706 11.4114667 24.2429714 43.880656 12.3445289 43.9090577 12.358706 11.4114667"></polygon>
                    <rect id="bg" fill="#3CCCF8" transform="translate(17.011471, 21.188270) rotate(38.000000) translate(-17.011471, -21.188270) " x="11.0114707" y="9.1398289" width="12" height="24.0968823"></rect>
                    <polygon id="triangle_2" fill="#FCD58A" transform="translate(27.360961, 7.583868) rotate(38.000000) translate(-27.360961, -7.583868) " points="27.3653314 3.30733603 33.3609607 11.8604007 21.3609607 11.8604007"></polygon>
                    <polygon id="triangle_1" fill="#FFFFFF" transform="translate(28.830557, 5.609565) rotate(38.000000) translate(-28.830557, -5.609565) " points="28.8923725 3.79357864 31.3184366 7.25516906 26.3426771 7.42555125"></polygon>
                    <polygon id="element" fill="#0959DD" transform="translate(6.955262, 34.059631) rotate(38.000000) translate(-6.955262, -34.059631) " points="0.95526173 30.4420626 12.9552617 30.4420626 12.9552617 37.6771985 0.95526173 37.6771985"></polygon>
                    <polygon id="line" fill="#4C8CF6" fill-rule="nonzero" points="10.7236176 35.0754173 11.5078051 35.6959412 9.40486685 38.3535309 3.40276707 33.5748944 4.02562897 32.7925626 9.24305824 36.9464752"></polygon>
                    <path d="M19.9198457,9.78583383 L27.404208,15.5919821 L26.791256,16.3821023 L25.269583,15.2018338 L12.3924634,31.51667 L11.6075366,30.8970814 L24.479583,14.5888338 L21.798583,12.5098338 L8.86134691,28.7837203 L8.07858304,28.1614015 L21.008583,11.8968338 L19.3068937,10.575954 L19.9198457,9.78583383 Z" id="lines" fill="#C3F1FF" fill-rule="nonzero"></path>
                </g>
                <g id="brush" transform="translate(115.000000, 24.000000)">
                    <path d="M10.0182026,37.015867 C13.8430234,34.6082229 13.0822094,31.4754745 14.3806953,32.7216703 C14.9293596,33.2482399 15.7043893,33.9938849 16.7057843,34.9586053 C16.222071,38.1263046 14.5200305,40.0824905 11.5996628,40.8271627 C6.86053651,42.035605 3.18466944,41.7752563 3.18466944,45.7205735 C2.18168093,43.3186953 1.68333084,41.1852071 1.57033253,39.3106191 C4.80041557,35.7902123 6.18992321,38.0720484 10.0182026,37.015867 Z" id="dark_shadow" fill="#AB1CDB"></path>
                    <path d="M9.1270251,24.6529301 C11.6386756,27.0485854 13.8315953,29.1504772 15.7057843,30.9586053 C15.222071,34.1263046 13.5200305,36.0824905 10.5996628,36.8271627 C5.86053651,38.035605 2.18466944,37.7752563 2.18466944,41.7205735 C-2.53748492,30.4123288 3.92620455,25.0532314 9.1270251,24.6529301 Z" id="bg" fill="#E28DFF"></path>
                    <path d="M9.01820265,33.015867 C12.8430234,30.6082229 12.0822094,27.4754745 13.3806953,28.7216703 C13.9293596,29.2482399 14.7043893,29.9938849 15.7057843,30.9586053 C15.222071,34.1263046 13.5200305,36.0824905 10.5996628,36.8271627 C5.86053651,38.035605 2.18466944,37.7752563 2.18466944,41.7205735 C1.18168093,39.3186953 0.683330839,37.1852071 0.570332526,35.3106191 C3.80041557,31.7902123 5.18992321,34.0720484 9.01820265,33.015867 Z" id="shadow" fill="#C939FA"></path>
                    <path d="M2.00413909,39.8118651 C2.61393552,38.3602364 4.15129857,37.6829185 7.07757121,37.0790529 C7.2512082,37.0432212 8.37488762,36.8167709 8.71648739,36.7454158 C9.37565738,36.607725 9.93140188,36.481565 10.4761197,36.342666 C13.119914,35.6685179 14.6670362,33.9582435 15.1696895,31.1362092 C13.3795037,29.4099905 11.3047413,27.4214807 8.94543759,25.170715 C2.91651475,25.7629496 -0.750327105,31.4559586 2.00413909,39.8118651 Z M9.47212507,24.2911207 C11.9844215,26.6873922 14.1780123,28.7899271 16.0529391,30.598767 C16.169698,30.7114105 16.224545,30.8737022 16.2000549,31.0340812 C15.6866313,34.3963446 13.8420254,36.5163835 10.7232059,37.3116595 C10.1626252,37.4546034 9.5933066,37.5838449 8.92095923,37.7242883 C8.57507817,37.7965376 7.44978137,38.0233139 7.27967287,38.0584175 C3.71077181,38.7948959 2.68466944,39.4921712 2.68466944,41.7205735 C2.68466944,42.2668914 1.9337983,42.4173712 1.72328156,41.9132422 C-2.45872167,31.898509 1.83682098,24.7125701 9.08865415,24.1544046 C9.23008388,24.1435189 9.36948117,24.1932172 9.47212507,24.2911207 Z" id="stroke" fill="#FFFFFF" fill-rule="nonzero"></path>
                    <polygon id="bg" fill="#FF718F" points="11.2149617 23.6951851 16.4974974 28.558167 39.8887475 8.65465873 32.0664695 0.874015903"></polygon>
                    <polygon id="element" fill="#E63D60" points="11.2149617 23.6951851 16.4974974 28.558167 21.0335911 24.6984254 15.2258373 19.3054368"></polygon>
                    <polygon id="element" fill="#FFD173" points="37.3395146 10.8237894 39.8887475 8.65465873 32.0664695 0.874015903 29.7020207 3.46181373"></polygon>
                    <path d="M9.06593532,27.1853591 L9.06593532,28.1853591 C6.79634616,28.1853591 5.04191816,29.6419313 4.76880704,31.9224464 L3.77590186,31.8035376 C4.11096092,29.0057488 6.30360373,27.1853591 9.06593532,27.1853591 Z" id="line" fill="#FFFFFF" fill-rule="nonzero"></path>
                    <polygon id="line" fill="#FF7D98" fill-rule="nonzero" points="19.8252802 24.8906295 19.1427266 25.6214651 14.280558 21.0805114 14.9631116 20.3496758"></polygon>
                    <polygon id="line" fill="#FFBAC9" fill-rule="nonzero" points="19.2322905 20.1482565 18.5134869 19.4530433 30.6028712 6.95343452 31.3216748 7.64864771"></polygon>
                </g>
                <g id="ink_pen" transform="translate(144.000000, 122.000000)">
                    <polygon id="rectangle" fill="#1BC08F" transform="translate(24.277552, 25.295561) rotate(-47.000000) translate(-24.277552, -25.295561) " points="28.9079631 21.9341495 28.9079631 28.6569718 19.6471417 28.6569718 19.6517303 21.9421697"></polygon>
                    <polygon id="line" fill="#69F5CC" fill-rule="nonzero" transform="translate(24.106011, 25.182167) rotate(-47.000000) translate(-24.106011, -25.182167) " points="27.0652212 26.1569718 27.0652212 27.1569718 21.1467999 27.1569718 21.1494989 23.2073628 22.1494987 23.2080462 22.1474835 26.1569718"></polygon>
                    <rect id="rectangle" fill="#3BE5B2" transform="translate(19.677565, 20.699324) rotate(-47.000000) translate(-19.677565, -20.699324) " x="9.05274656" y="17.4317454" width="21.2496363" height="6.53515755"></rect>
                    <polygon id="line" fill="#93FFDE" fill-rule="nonzero" points="23.8743601 14.3987383 24.6031953 15.0834274 14.2287161 26.1268126 13.4998809 25.4421234"></polygon>
                    <polygon id="element" fill="#FFFFFF" points="0.930117633 3.44365482 14.7929888 3.44365482 19.2721346 16.3614941 14.9739032 20.9720046 2.42087098 16.3959775"></polygon>
                    <path d="M1.22298706,3.17842488 L7.81181155,8.65606534 C8.25659846,8.248625 8.84926449,8 9.5,8 C10.8807119,8 12,9.11928813 12,10.5 C12,11.8807119 10.8807119,13 9.5,13 C8.11928813,13 7,11.8807119 7,10.5 C7,10.1320695 7.07948176,9.78270287 7.22221197,9.46813355 L0.583585312,3.9472977 L1.22298706,3.17842488 Z" id="element" fill="#073581"></path>
                    <polygon id="line" fill="#B1CEFF" fill-rule="nonzero" points="13.9926875 18.1505769 13.6441727 19.0878802 4.09773073 15.5382543 3.1159126 9.04567132 4.10467107 8.89614979 4.99840672 14.8062595"></polygon>
                    <polygon id="line" fill="#3D81F2" fill-rule="nonzero" points="5.68117817 1.84739202 5.67972779 0.847393074 16.6202271 0.831525181 20.3759057 11.8283528 19.4295734 12.1515478 15.9053942 1.83256301"></polygon>
                </g>
                <g id="joint" transform="translate(127.000000, 108.000000)">
                    <polygon id="line" fill="#FCD58A" fill-rule="nonzero" points="3.94220025 28.7626515 3.20620409 28.0856658 26.1320019 3.16150715 26.8679981 3.83849285"></polygon>
                    <rect id="element" fill="#FFD173" transform="translate(3.535534, 28.535534) rotate(-315.000000) translate(-3.535534, -28.535534) " x="1.03553391" y="26.0355339" width="5" height="5" rx="1.5"></rect>
                    <rect id="element" fill="#FFD173" transform="translate(26.535534, 3.535534) rotate(-315.000000) translate(-26.535534, -3.535534) " x="24.0355339" y="1.03553391" width="5" height="5" rx="1.5"></rect>
                    <path d="M15.5,19.5 C13.290861,19.5 11.5,17.709139 11.5,15.5 C11.5,13.290861 13.290861,11.5 15.5,11.5 C17.709139,11.5 19.5,13.290861 19.5,15.5 C19.5,17.709139 17.709139,19.5 15.5,19.5 Z M15.5,18.5 C17.1568542,18.5 18.5,17.1568542 18.5,15.5 C18.5,13.8431458 17.1568542,12.5 15.5,12.5 C13.8431458,12.5 12.5,13.8431458 12.5,15.5 C12.5,17.1568542 13.8431458,18.5 15.5,18.5 Z" id="circle" fill="#FFFFFF" fill-rule="nonzero"></path>
                    <circle id="circle" fill="#FFFFFF" cx="15.5" cy="15.5" r="1.5"></circle>
                </g>
                <g id="joint" transform="translate(26.000000, 31.000000)">
                    <polygon id="line" fill="#FCD58A" fill-rule="nonzero" points="7.94220025 32.7626515 7.20620409 32.0856658 30.1320019 7.16150715 30.8679981 7.83849285"></polygon>
                    <rect id="element" fill="#FFD173" transform="translate(7.535534, 32.535534) rotate(-315.000000) translate(-7.535534, -32.535534) " x="5.03553391" y="30.0355339" width="5" height="5" rx="1.5"></rect>
                    <rect id="element" fill="#FFD173" transform="translate(30.535534, 7.535534) rotate(-315.000000) translate(-30.535534, -7.535534) " x="28.0355339" y="5.03553391" width="5" height="5" rx="1.5"></rect>
                    <path d="M4.60188698,20.4510356 L5.30648418,19.7414282 C7.0748849,21.4973428 9.45751636,22.5 12,22.5 C17.2467051,22.5 21.5,18.2467051 21.5,13 C21.5,10.3776859 20.4329548,7.92668752 18.5784082,6.14618398 L19.2709682,5.42482364 C21.3199529,7.39200238 22.5,10.1025656 22.5,13 C22.5,18.7989899 17.7989899,23.5 12,23.5 C9.19082131,23.5 6.55576424,22.3911173 4.60188698,20.4510356 Z" id="line" fill="#FCD58A" fill-rule="nonzero"></path>
                    <path d="M19.5,23.5 C17.290861,23.5 15.5,21.709139 15.5,19.5 C15.5,17.290861 17.290861,15.5 19.5,15.5 C21.709139,15.5 23.5,17.290861 23.5,19.5 C23.5,21.709139 21.709139,23.5 19.5,23.5 Z M19.5,22.5 C21.1568542,22.5 22.5,21.1568542 22.5,19.5 C22.5,17.8431458 21.1568542,16.5 19.5,16.5 C17.8431458,16.5 16.5,17.8431458 16.5,19.5 C16.5,21.1568542 17.8431458,22.5 19.5,22.5 Z" id="circle" fill="#FFFFFF" fill-rule="nonzero"></path>
                    <circle id="circle" fill="#FFFFFF" cx="19.5" cy="19.5" r="1.5"></circle>
                    <path d="M2.53553391,16.5355339 C1.98324916,16.5355339 1.53553391,16.9832492 1.53553391,17.5355339 L1.53553391,19.5355339 C1.53553391,20.0878187 1.98324916,20.5355339 2.53553391,20.5355339 L4.53553391,20.5355339 C5.08781866,20.5355339 5.53553391,20.0878187 5.53553391,19.5355339 L5.53553391,17.5355339 C5.53553391,16.9832492 5.08781866,16.5355339 4.53553391,16.5355339 L2.53553391,16.5355339 Z M2.53553391,15.5355339 L4.53553391,15.5355339 C5.64010341,15.5355339 6.53553391,16.4309644 6.53553391,17.5355339 L6.53553391,19.5355339 C6.53553391,20.6401034 5.64010341,21.5355339 4.53553391,21.5355339 L2.53553391,21.5355339 C1.43096441,21.5355339 0.535533906,20.6401034 0.535533906,19.5355339 L0.535533906,17.5355339 C0.535533906,16.4309644 1.43096441,15.5355339 2.53553391,15.5355339 Z" id="element" fill="#FFFFFF" fill-rule="nonzero" transform="translate(3.535534, 18.535534) rotate(-315.000000) translate(-3.535534, -18.535534) "></path>
                    <path d="M16.0355339,2.03553391 C15.4832492,2.03553391 15.0355339,2.48324916 15.0355339,3.03553391 L15.0355339,5.03553391 C15.0355339,5.58781866 15.4832492,6.03553391 16.0355339,6.03553391 L18.0355339,6.03553391 C18.5878187,6.03553391 19.0355339,5.58781866 19.0355339,5.03553391 L19.0355339,3.03553391 C19.0355339,2.48324916 18.5878187,2.03553391 18.0355339,2.03553391 L16.0355339,2.03553391 Z M16.0355339,1.03553391 L18.0355339,1.03553391 C19.1401034,1.03553391 20.0355339,1.93096441 20.0355339,3.03553391 L20.0355339,5.03553391 C20.0355339,6.14010341 19.1401034,7.03553391 18.0355339,7.03553391 L16.0355339,7.03553391 C14.9309644,7.03553391 14.0355339,6.14010341 14.0355339,5.03553391 L14.0355339,3.03553391 C14.0355339,1.93096441 14.9309644,1.03553391 16.0355339,1.03553391 Z" id="element" fill="#FFFFFF" fill-rule="nonzero" transform="translate(17.035534, 4.035534) rotate(-315.000000) translate(-17.035534, -4.035534) "></path>
                </g>
                <path d="M56,140 C57.613337,141.613337 59.2289165,142.387287 60.8467383,142.321849 C62.4645602,142.256412 64.1823141,141.482462 66,140 C64.2557692,141.744231 63.4414687,143.421634 63.5570985,145.03221 C63.6727283,146.642785 64.4870288,148.298715 66,150 C64.1486798,148.431825 62.4723184,147.637956 60.9709156,147.618392 C59.4695128,147.598829 57.8125409,148.392698 56,150 C57.5144156,148.17295 58.2679341,146.475627 58.2605554,144.908032 C58.2531766,143.340437 57.4996582,141.704427 56,140 Z" id="shine" fill="#FFFFFF" transform="translate(61.000000, 145.000000) rotate(-315.000000) translate(-61.000000, -145.000000) "></path>
                <path d="M113.379507,113.99514 C113.382891,114.714149 113.209832,115.453859 112.863958,116.214789 C113.619784,115.841155 114.34947,115.65664 115.054315,115.665824 C115.739145,115.674748 116.452426,115.858931 117.195574,116.214789 C116.860942,115.517478 116.667626,114.82345 116.61803,114.13264 C116.565258,113.397585 116.722004,112.65763 117.082415,111.913154 C116.363998,112.227751 115.6595,112.400196 114.968666,112.428139 C114.288478,112.455651 113.614701,112.320385 112.948283,112.02621 C113.231795,112.688916 113.376447,113.345246 113.379507,113.99514 Z M111.424621,109.717514 C112.624137,110.91703 113.788949,111.475038 114.928251,111.428956 C116.102,111.38148 117.378332,110.806417 118.755054,109.683595 L119.424621,110.424621 C118.122773,111.726469 117.53481,112.937634 117.615463,114.061031 C117.699243,115.227974 118.302175,116.454073 119.444694,117.738798 L118.747896,118.452591 C117.347543,117.266412 116.108507,116.679646 115.041286,116.665739 C113.983924,116.651962 112.768088,117.234479 111.402806,118.445166 L110.686116,117.751987 C111.829006,116.373161 112.384796,115.121227 112.379518,113.999847 C112.374249,112.880613 111.821872,111.681312 110.695685,110.401352 L111.424621,109.717514 Z" id="shine" fill="#FFE9BC" fill-rule="nonzero" transform="translate(115.065405, 114.068093) rotate(-315.000000) translate(-115.065405, -114.068093) "></path>
                <path d="M131.071068,56.0710678 C132.03907,57.03907 133.008418,57.5034399 133.979111,57.4641774 C134.949804,57.4249149 135.980456,56.9605451 137.071068,56.0710678 C136.024529,57.1176063 135.535949,58.1240482 135.605327,59.0903935 C135.674705,60.0567388 136.163285,61.0502969 137.071068,62.0710678 C135.960276,61.1301631 134.954459,60.6538416 134.053617,60.6421033 C133.152775,60.630365 132.158592,61.1066865 131.071068,62.0710678 C131.979717,60.9748377 132.431828,59.9564441 132.427401,59.0158872 C132.422974,58.0753302 131.970863,57.0937237 131.071068,56.0710678 Z" id="shine" fill="#FFFFFF" transform="translate(134.071068, 59.071068) rotate(-315.000000) translate(-134.071068, -59.071068) "></path>
                <polygon id="line" fill="#3D81F2" fill-rule="nonzero" points="141.812348 32.8904344 141.187652 32.1095656 156.187652 20.1095656 156.812348 20.8904344"></polygon>
            </g>
        </g>
    </g>
</svg>