<?xml version="1.0" encoding="UTF-8" standalone="no"?>
<svg width="360px" height="294px" viewBox="0 0 360 294" version="1.1" xmlns="http://www.w3.org/2000/svg" xmlns:xlink="http://www.w3.org/1999/xlink">
    <!-- Generator: Sketch 50.2 (55047) - http://www.bohemiancoding.com/sketch -->
    <title>11_1_ styling_nativescript_core_applications</title>
    <desc>Created with Sketch.</desc>
    <defs></defs>
    <g id="illustrations" stroke="none" stroke-width="1" fill="none" fill-rule="evenodd">
        <g id="styling_nativescript_with_angular_applications">
            <g id="styling_nativescript_with_angular_applications_image" transform="translate(92.000000, 66.000000)">
                <g id="circle_bg">
                    <circle id="circle_2" fill="#0C3E91" cx="88" cy="88" r="83"></circle>
                    <rect id="rectangle" fill="#073581" transform="translate(36.016504, 60.016504) rotate(-315.000000) translate(-36.016504, -60.016504) " x="19.0342712" y="43.0342712" width="33.9644661" height="33.9644661"></rect>
                    <rect id="rectangle" fill="#1550B1" transform="translate(67.343146, 29.343146) rotate(-315.000000) translate(-67.343146, -29.343146) " x="53.6654762" y="15.6654762" width="27.3553391" height="27.3553391"></rect>
                    <rect id="rectangle" fill="#1550B1" transform="translate(41.920310, 122.920310) rotate(-315.000000) translate(-41.920310, -122.920310) " x="26.4203102" y="107.42031" width="31" height="31"></rect>
                    <path d="M88,175.5 C39.6750844,175.5 0.5,136.324916 0.5,88 C0.5,39.6750844 39.6750844,0.5 88,0.5 C136.324916,0.5 175.5,39.6750844 175.5,88 C175.5,136.324916 136.324916,175.5 88,175.5 Z M88,174.5 C135.772631,174.5 174.5,135.772631 174.5,88 C174.5,40.2273691 135.772631,1.5 88,1.5 C40.2273691,1.5 1.5,40.2273691 1.5,88 C1.5,135.772631 40.2273691,174.5 88,174.5 Z" id="circle_1" fill="#0B49AF" fill-rule="nonzero"></path>
                    <rect id="rectangle" fill="#073581" transform="translate(132.167041, 121.167041) rotate(-315.000000) translate(-132.167041, -121.167041) " x="112.957042" y="101.957042" width="38.4199982" height="38.4199982"></rect>
                    <rect id="rectangle" fill="#1550B1" transform="translate(159.708513, 95.708513) rotate(-270.000000) translate(-159.708513, -95.708513) " x="152.136451" y="88.1364509" width="15.1441246" height="15.1441246"></rect>
                </g>
                <g id="shield" transform="translate(27.000000, 27.000000)">
                    <g id="blue_lines" fill-rule="nonzero">
                        <path d="M60.9836358,1.53128255 L24.8872511,14.5019085 L24.5490873,13.5608212 L60.9835367,0.468717446 L117.540954,20.7797597 L110.252491,85.7315969 L109.258728,85.6200834 L116.459046,21.453752 L60.9836358,1.53128255 Z M85.6842067,110.820323 L86.1906525,111.682595 L60.9842599,126.487292 L13.4136429,98.6957608 L5.9997285,34.1933156 L6.99318763,34.0791273 L14.3499844,98.084638 L60.9829127,125.328356 L85.6842067,110.820323 Z" id="lines" fill="#6199F4"></path>
                        <polygon id="line" fill="#3D81F2" points="3.0956383 46.8081451 4.08821115 46.6864934 9.73519095 92.7609722 8.7426181 92.8826239"></polygon>
                        <polygon id="line" fill="#1765E7" points="0.0956382997 51.8081451 1.08821115 51.6864934 5.35929019 86.5348101 4.36671734 86.6564618"></polygon>
                        <polygon id="line" fill="#3D81F2" points="120.357089 25.0818844 121.351659 25.185956 116.863079 68.081474 115.868509 67.9774024"></polygon>
                        <polygon id="line" fill="#1765E7" points="123.357089 29.0818844 124.351659 29.185956 121.172915 59.5639105 120.178345 59.4598389"></polygon>
                    </g>
                    <polygon id="bg_light" fill="#E28DFF" points="61 5 113 23.590626 104.786276 95.9601803 61 122.003702 17.231204 95.9601803 9.0304737 23.590626"></polygon>
                    <path d="M61.0152368,46.7255794 C78.3434912,46.7255794 95.6717456,39.0139282 113,23.590626 L104.786276,95.9601803 L61,122.003702 L17.231204,95.9601803 L9.0304737,23.590626 C26.3587281,39.0139282 43.6869825,46.7255794 61.0152368,46.7255794 Z" id="bg_medium" fill="#D865FF"></path>
                    <path d="M61.1105705,82.4063337 C74.0062995,82.1804075 90.3806122,70.7001809 110.233509,47.9656538 L104.786276,95.9601803 L61,122.003702 L17.231204,95.9601803 L11.9876322,49.6868685 C31.8405287,71.7257715 48.2148414,82.6322599 61.1105705,82.4063337 Z" id="bg_dark" fill="#C939FA"></path>
                    <g id="inside_shield_lines" transform="translate(11.000000, 10.000000)" fill-rule="nonzero">
                        <polygon id="line" fill="#F4D3FF" points="5 36 5 35 44.2334959 35 44.2334959 36"></polygon>
                        <polygon id="line" fill="#F4D3FF" points="54 36 54 35 94.5030863 35 94.5030863 36"></polygon>
                        <polygon id="line" fill="#E7A1FF" points="6 39 6 38 45.2334959 38 45.2334959 39"></polygon>
                        <polygon id="line" fill="#E7A1FF" points="53 39 53 38 93.5030863 38 93.5030863 39"></polygon>
                        <polygon id="line" fill="#E189FF" points="7 42 7 41 46.2334959 41 46.2334959 42"></polygon>
                        <polygon id="line" fill="#E189FF" points="52 42 52 41 92.5030863 41 92.5030863 42"></polygon>
                        <polygon id="line" fill="#FFFFFF" points="49.5 57 50.5 57 50.5 99.6231555 49.5 99.6231555"></polygon>
                        <polygon id="line" fill="#FFFFFF" points="49.5 0 50.5 0 50.5 19 49.5 19"></polygon>
                        <polygon id="line" fill="#E390FF" points="93.2254268 57.5539434 94.2185955 57.6706303 91.1701207 83.6174187 80.2567583 90.1485053 79.7432417 89.2904256 90.2343699 83.0120245"></polygon>
                        <polygon id="line" fill="#ECB5FF" points="1.77653351 16.2251907 3.63730716 29.9982002 2.64631049 30.1320867 0.677045163 15.5560472 37.8554817 2.27587937 38.1918665 3.217604"></polygon>
                    </g>
                </g>
                <g id="logo" transform="translate(64.000000, 52.000000)">
                    <rect id="circle_2" fill="#FFFFFF" x="7" y="6" width="34" height="34" rx="17"></rect>
                    <path d="M10.6031927,37.850323 L11.2732615,37.108024 C7.30587018,33.5266838 5,28.4501731 5,23 C5,12.5065898 13.5065898,4 24,4 C34.4934102,4 43,12.5065898 43,23 C43,33.4934102 34.4934102,42 24,42 L24,43 C35.045695,43 44,34.045695 44,23 C44,11.954305 35.045695,3 24,3 C12.954305,3 4,11.954305 4,23 C4,28.8926435 6.54839137,34.1900783 10.6031927,37.850323 Z M10.6031927,37.850323 C6.54839137,34.1900783 4,28.8926435 4,23 C4,11.954305 12.954305,3 24,3 C35.045695,3 44,11.954305 44,23 C44,34.045695 35.045695,43 24,43 L24,42 C34.4934102,42 43,33.4934102 43,23 C43,12.5065898 34.4934102,4 24,4 C13.5065898,4 5,12.5065898 5,23 C5,28.4501731 7.30587018,33.5266838 11.2732615,37.108024 L10.6031927,37.850323 Z" id="oval" fill="#FFFFFF" fill-rule="nonzero"></path>
                    <path d="M0.953251825,28.0515966 L1.93000632,27.8372356 C3.80085537,36.3619201 10.4877255,43.0887177 18.9987491,45.0123574 L18.7782924,45.9877542 C9.88895575,43.9786092 2.90726637,36.9552319 0.953251825,28.0515966 Z M47.0295421,17.7916997 L46.053713,18.010235 C44.2017807,9.74077203 37.8085817,3.16538395 29.6046983,1.07288129 L29.851848,0.103903986 C38.4202703,2.28938681 45.0952823,9.15461892 47.0295421,17.7916997 Z" id="oval" fill="#EEBBFF" fill-rule="nonzero" transform="translate(23.991397, 23.045829) scale(-1, 1) translate(-23.991397, -23.045829) "></path>
                    <path d="M34.3025383,22.4824273 C33.8500244,22.0277675 33.6148251,21.4572274 33.5961531,20.7708071 L33.5961531,15.9213302 C33.5817555,15.2349098 33.3484684,14.6634609 32.8964043,14.2068698 C32.4442278,13.7498243 31.8779948,13.5146554 31.1984927,13.5002272 L28.8012823,13.5002272 L28.8012823,25.6138083 L19.1987177,13.5 L16.8010573,13.5 C16.1214428,13.5145418 15.5556597,13.7497107 15.1035957,14.2067562 C14.6510817,14.6634609 14.4182445,15.2349098 14.4039594,15.921103 L14.4039594,20.7708071 C14.3851749,21.4572274 14.1499756,22.0277675 13.6974617,22.4824273 C13.2452851,22.936519 12.6795021,23.1731647 12,23.1920237 C12.6795021,23.2113371 13.2453976,23.4479828 13.6973492,23.9020745 C14.1499756,24.3567343 14.3851749,24.9272743 14.4038469,25.6136947 L14.4038469,30.4631716 C14.4182445,31.1490239 14.6510817,31.7210409 15.1035957,32.177632 C15.5557722,32.6343367 16.1215552,32.8698463 16.8009448,32.8842746 L19.1987177,32.8842746 L19.1987177,20.7709207 L28.8012823,32.8846154 L31.1984927,32.8846154 C31.8779948,32.8700735 32.4443403,32.6344503 32.8964043,32.1778592 C33.3485809,31.7211545 33.5817555,31.1492511 33.5960406,30.4635124 L33.5960406,25.6138083 C33.6148251,24.9273879 33.8500244,24.3568479 34.3025383,23.9021881 C34.7547149,23.4480964 35.3204979,23.2114507 36,23.1921373 C35.3204979,23.1731647 34.7546024,22.9366326 34.3026508,22.4825409 L34.3025383,22.4824273 Z" fill="#0959DD"></path>
                </g>
                <g id="pencil" transform="translate(45.000000, 85.000000)">
                    <polygon id="dark_shadow" fill="#AB1CDB" transform="translate(18.351617, 23.383730) rotate(38.000000) translate(-18.351617, -23.383730) " points="18.3630766 2.85840195 24.358706 11.4114667 24.2429714 43.880656 12.3445289 43.9090577 12.358706 11.4114667"></polygon>
                    <rect id="bg" fill="#3CCCF8" transform="translate(17.011471, 21.188270) rotate(38.000000) translate(-17.011471, -21.188270) " x="11.0114707" y="9.1398289" width="12" height="24.0968823"></rect>
                    <polygon id="triangle_2" fill="#FCD58A" transform="translate(27.360961, 7.583868) rotate(38.000000) translate(-27.360961, -7.583868) " points="27.3653314 3.30733603 33.3609607 11.8604007 21.3609607 11.8604007"></polygon>
                    <polygon id="triangle_1" fill="#FFFFFF" transform="translate(28.830557, 5.609565) rotate(38.000000) translate(-28.830557, -5.609565) " points="28.8923725 3.79357864 31.3184366 7.25516906 26.3426771 7.42555125"></polygon>
                    <rect id="element" fill="#0959DD" transform="translate(6.955262, 34.059631) rotate(38.000000) translate(-6.955262, -34.059631) " x="0.95526173" y="30.4420626" width="12" height="7.23513586"></rect>
                    <polygon id="line" fill="#4C8CF6" fill-rule="nonzero" points="10.7236176 35.0754173 11.5078051 35.6959412 9.40486685 38.3535309 3.40276707 33.5748944 4.02562897 32.7925626 9.24305824 36.9464752"></polygon>
                    <path d="M21.0094383,11.8967381 L19.3068937,10.575954 L19.9198457,9.78583383 L27.404208,15.5919821 L26.791256,16.3821023 L25.2703856,15.2022557 L12.3924634,31.51667 L11.6075366,30.8970814 L24.4802374,14.5892819 L21.7996145,12.5097335 L8.86134691,28.7837203 L8.07858304,28.1614015 L21.0094383,11.8967381 Z" id="lines" fill="#C3F1FF" fill-rule="nonzero"></path>
                </g>
                <g id="brush" transform="translate(105.000000, 10.000000)">
                    <path d="M10.0182026,37.015867 C13.8430234,34.6082229 13.0822094,31.4754745 14.3806953,32.7216703 C14.9293596,33.2482399 15.7043893,33.9938849 16.7057843,34.9586053 C16.222071,38.1263046 14.5200305,40.0824905 11.5996628,40.8271627 C6.86053651,42.035605 3.18466944,41.7752563 3.18466944,45.7205735 C2.18168093,43.3186953 1.68333084,41.1852071 1.57033253,39.3106191 C4.80041557,35.7902123 6.18992321,38.0720484 10.0182026,37.015867 Z" id="dark_shadow" fill="#AB1CDB"></path>
                    <path d="M9.1270251,24.6529301 C11.6386756,27.0485854 13.8315953,29.1504772 15.7057843,30.9586053 C15.222071,34.1263046 13.5200305,36.0824905 10.5996628,36.8271627 C5.86053651,38.035605 2.18466944,37.7752563 2.18466944,41.7205735 C-2.53748492,30.4123288 3.92620455,25.0532314 9.1270251,24.6529301 Z" id="bg" fill="#E28DFF"></path>
                    <path d="M9.01820265,33.015867 C12.8430234,30.6082229 12.0822094,27.4754745 13.3806953,28.7216703 C13.9293596,29.2482399 14.7043893,29.9938849 15.7057843,30.9586053 C15.222071,34.1263046 13.5200305,36.0824905 10.5996628,36.8271627 C5.86053651,38.035605 2.18466944,37.7752563 2.18466944,41.7205735 C1.18168093,39.3186953 0.683330839,37.1852071 0.570332526,35.3106191 C3.80041557,31.7902123 5.18992321,34.0720484 9.01820265,33.015867 Z" id="shadow" fill="#C939FA"></path>
                    <path d="M2.00413909,39.8118651 C2.61393552,38.3602364 4.15129857,37.6829185 7.07757121,37.0790529 C7.2512082,37.0432212 8.37488762,36.8167709 8.71648739,36.7454158 C9.37565738,36.607725 9.93140188,36.481565 10.4761197,36.342666 C13.119914,35.6685179 14.6670362,33.9582435 15.1696895,31.1362092 C13.3795037,29.4099905 11.3047413,27.4214807 8.94543759,25.170715 C2.91651475,25.7629496 -0.750327105,31.4559586 2.00413909,39.8118651 Z M9.47212507,24.2911207 C11.9844215,26.6873922 14.1780123,28.7899271 16.0529391,30.598767 C16.169698,30.7114105 16.224545,30.8737022 16.2000549,31.0340812 C15.6866313,34.3963446 13.8420254,36.5163835 10.7232059,37.3116595 C10.1626252,37.4546034 9.5933066,37.5838449 8.92095923,37.7242883 C8.57507817,37.7965376 7.44978137,38.0233139 7.27967287,38.0584175 C3.71077181,38.7948959 2.68466944,39.4921712 2.68466944,41.7205735 C2.68466944,42.2668914 1.9337983,42.4173712 1.72328156,41.9132422 C-2.45872167,31.898509 1.83682098,24.7125701 9.08865415,24.1544046 C9.23008388,24.1435189 9.36948117,24.1932172 9.47212507,24.2911207 Z" id="stroke" fill="#FFFFFF" fill-rule="nonzero"></path>
                    <polygon id="bg" fill="#FF718F" points="11.2149617 23.6951851 16.4974974 28.558167 39.8887475 8.65465873 32.0664695 0.874015903"></polygon>
                    <polygon id="element" fill="#E63D60" points="11.2149617 23.6951851 16.4974974 28.558167 21.0335911 24.6984254 15.2258373 19.3054368"></polygon>
                    <polygon id="element" fill="#FFD173" points="37.3395146 10.8237894 39.8887475 8.65465873 32.0664695 0.874015903 29.7020207 3.46181373"></polygon>
                    <path d="M9.06593532,27.1853591 L9.06593532,28.1853591 C6.79634616,28.1853591 5.04191816,29.6419313 4.76880704,31.9224464 L3.77590186,31.8035376 C4.11096092,29.0057488 6.30360373,27.1853591 9.06593532,27.1853591 Z" id="line" fill="#FFFFFF" fill-rule="nonzero"></path>
                    <polygon id="line" fill="#FF7D98" fill-rule="nonzero" points="19.8252802 24.8906295 19.1427266 25.6214651 14.280558 21.0805114 14.9631116 20.3496758"></polygon>
                    <polygon id="line" fill="#FFBAC9" fill-rule="nonzero" points="19.2322905 20.1482565 18.5134869 19.4530433 30.6028712 6.95343452 31.3216748 7.64864771"></polygon>
                </g>
                <g id="ink_pen" transform="translate(134.000000, 122.000000)">
                    <polygon id="rectangle" fill="#1BC08F" transform="translate(24.277552, 25.295561) rotate(-47.000000) translate(-24.277552, -25.295561) " points="28.9079631 21.9341495 28.9079631 28.6569718 19.6471417 28.6569718 19.6517303 21.9421697"></polygon>
                    <polygon id="line" fill="#69F5CC" fill-rule="nonzero" transform="translate(24.106011, 25.182167) rotate(-47.000000) translate(-24.106011, -25.182167) " points="27.0652212 26.1569718 27.0652212 27.1569718 21.1467999 27.1569718 21.1494989 23.2073628 22.1494987 23.2080462 22.1474835 26.1569718"></polygon>
                    <rect id="rectangle" fill="#3BE5B2" transform="translate(19.677565, 20.699324) rotate(-47.000000) translate(-19.677565, -20.699324) " x="9.05274656" y="17.4317454" width="21.2496363" height="6.53515755"></rect>
                    <polygon id="line" fill="#93FFDE" fill-rule="nonzero" points="23.8743601 14.3987383 24.6031953 15.0834274 14.2287161 26.1268126 13.4998809 25.4421234"></polygon>
                    <polygon id="element" fill="#FFFFFF" points="0.930117633 3.44365482 14.7929888 3.44365482 19.2721346 16.3614941 14.9739032 20.9720046 2.42087098 16.3959775"></polygon>
                    <path d="M7.22224246,9.46806635 L0.583585312,3.9472977 L1.22298706,3.17842488 L7.81084658,8.65694976 C8.25574108,8.24898481 8.84879378,8 9.5,8 C10.8807119,8 12,9.11928813 12,10.5 C12,11.8807119 10.8807119,13 9.5,13 C8.11928813,13 7,11.8807119 7,10.5 C7,10.1320433 7.07949308,9.78265311 7.22224246,9.46806635 Z" id="element" fill="#073581"></path>
                    <polygon id="line" fill="#B1CEFF" fill-rule="nonzero" points="13.9926875 18.1505769 13.6441727 19.0878802 4.09773073 15.5382543 3.1159126 9.04567132 4.10467107 8.89614979 4.99840672 14.8062595"></polygon>
                    <polygon id="line" fill="#3D81F2" fill-rule="nonzero" points="5.68117817 1.84739202 5.67972779 0.847393074 16.6202271 0.831525181 20.3759057 11.8283528 19.4295734 12.1515478 15.9053942 1.83256301"></polygon>
                </g>
                <g id="joint" transform="translate(117.000000, 108.000000)">
                    <polygon id="line" fill="#FCD58A" fill-rule="nonzero" points="3.94220025 28.7626515 3.20620409 28.0856658 26.1320019 3.16150715 26.8679981 3.83849285"></polygon>
                    <rect id="element" fill="#FFD173" transform="translate(3.535534, 28.535534) rotate(-315.000000) translate(-3.535534, -28.535534) " x="1.03553391" y="26.0355339" width="5" height="5" rx="1.5"></rect>
                    <rect id="element" fill="#FFD173" transform="translate(26.535534, 3.535534) rotate(-315.000000) translate(-26.535534, -3.535534) " x="24.0355339" y="1.03553391" width="5" height="5" rx="1.5"></rect>
                    <path d="M15.5,19.5 C13.290861,19.5 11.5,17.709139 11.5,15.5 C11.5,13.290861 13.290861,11.5 15.5,11.5 C17.709139,11.5 19.5,13.290861 19.5,15.5 C19.5,17.709139 17.709139,19.5 15.5,19.5 Z M15.5,18.5 C17.1568542,18.5 18.5,17.1568542 18.5,15.5 C18.5,13.8431458 17.1568542,12.5 15.5,12.5 C13.8431458,12.5 12.5,13.8431458 12.5,15.5 C12.5,17.1568542 13.8431458,18.5 15.5,18.5 Z" id="circle" fill="#FFFFFF" fill-rule="nonzero"></path>
                    <circle id="circle" fill="#FFFFFF" cx="15.5" cy="15.5" r="1.5"></circle>
                </g>
                <g id="joint" transform="translate(16.000000, 31.000000)">
                    <polygon id="line" fill="#FCD58A" fill-rule="nonzero" points="7.94220025 32.7626515 7.20620409 32.0856658 30.1320019 7.16150715 30.8679981 7.83849285"></polygon>
                    <rect id="element" fill="#FFD173" transform="translate(7.535534, 32.535534) rotate(-315.000000) translate(-7.535534, -32.535534) " x="5.03553391" y="30.0355339" width="5" height="5" rx="1.5"></rect>
                    <rect id="element" fill="#FFD173" transform="translate(30.535534, 7.535534) rotate(-315.000000) translate(-30.535534, -7.535534) " x="28.0355339" y="5.03553391" width="5" height="5" rx="1.5"></rect>
                    <path d="M4.60188698,20.4510356 L5.30648418,19.7414282 C7.0748849,21.4973428 9.45751636,22.5 12,22.5 C17.2467051,22.5 21.5,18.2467051 21.5,13 C21.5,10.3776859 20.4329548,7.92668752 18.5784082,6.14618398 L19.2709682,5.42482364 C21.3199529,7.39200238 22.5,10.1025656 22.5,13 C22.5,18.7989899 17.7989899,23.5 12,23.5 C9.19082131,23.5 6.55576424,22.3911173 4.60188698,20.4510356 Z" id="line" fill="#FCD58A" fill-rule="nonzero"></path>
                    <path d="M19.5,23.5 C17.290861,23.5 15.5,21.709139 15.5,19.5 C15.5,17.290861 17.290861,15.5 19.5,15.5 C21.709139,15.5 23.5,17.290861 23.5,19.5 C23.5,21.709139 21.709139,23.5 19.5,23.5 Z M19.5,22.5 C21.1568542,22.5 22.5,21.1568542 22.5,19.5 C22.5,17.8431458 21.1568542,16.5 19.5,16.5 C17.8431458,16.5 16.5,17.8431458 16.5,19.5 C16.5,21.1568542 17.8431458,22.5 19.5,22.5 Z" id="circle" fill="#FFFFFF" fill-rule="nonzero"></path>
                    <circle id="circle" fill="#FFFFFF" cx="19.5" cy="19.5" r="1.5"></circle>
                    <path d="M2.53553391,16.5355339 C1.98324916,16.5355339 1.53553391,16.9832492 1.53553391,17.5355339 L1.53553391,19.5355339 C1.53553391,20.0878187 1.98324916,20.5355339 2.53553391,20.5355339 L4.53553391,20.5355339 C5.08781866,20.5355339 5.53553391,20.0878187 5.53553391,19.5355339 L5.53553391,17.5355339 C5.53553391,16.9832492 5.08781866,16.5355339 4.53553391,16.5355339 L2.53553391,16.5355339 Z M2.53553391,15.5355339 L4.53553391,15.5355339 C5.64010341,15.5355339 6.53553391,16.4309644 6.53553391,17.5355339 L6.53553391,19.5355339 C6.53553391,20.6401034 5.64010341,21.5355339 4.53553391,21.5355339 L2.53553391,21.5355339 C1.43096441,21.5355339 0.535533906,20.6401034 0.535533906,19.5355339 L0.535533906,17.5355339 C0.535533906,16.4309644 1.43096441,15.5355339 2.53553391,15.5355339 Z" id="element" fill="#FFFFFF" fill-rule="nonzero" transform="translate(3.535534, 18.535534) rotate(-315.000000) translate(-3.535534, -18.535534) "></path>
                    <path d="M16.0355339,2.03553391 C15.4832492,2.03553391 15.0355339,2.48324916 15.0355339,3.03553391 L15.0355339,5.03553391 C15.0355339,5.58781866 15.4832492,6.03553391 16.0355339,6.03553391 L18.0355339,6.03553391 C18.5878187,6.03553391 19.0355339,5.58781866 19.0355339,5.03553391 L19.0355339,3.03553391 C19.0355339,2.48324916 18.5878187,2.03553391 18.0355339,2.03553391 L16.0355339,2.03553391 Z M16.0355339,1.03553391 L18.0355339,1.03553391 C19.1401034,1.03553391 20.0355339,1.93096441 20.0355339,3.03553391 L20.0355339,5.03553391 C20.0355339,6.14010341 19.1401034,7.03553391 18.0355339,7.03553391 L16.0355339,7.03553391 C14.9309644,7.03553391 14.0355339,6.14010341 14.0355339,5.03553391 L14.0355339,3.03553391 C14.0355339,1.93096441 14.9309644,1.03553391 16.0355339,1.03553391 Z" id="element" fill="#FFFFFF" fill-rule="nonzero" transform="translate(17.035534, 4.035534) rotate(-315.000000) translate(-17.035534, -4.035534) "></path>
                </g>
                <path d="M46,140 C47.613337,141.613337 49.2289165,142.387287 50.8467383,142.321849 C52.4645602,142.256412 54.1823141,141.482462 56,140 C54.2557692,141.744231 53.4414687,143.421634 53.5570985,145.03221 C53.6727283,146.642785 54.4870288,148.298715 56,150 C54.1486798,148.431825 52.4723184,147.637956 50.9709156,147.618392 C49.4695128,147.598829 47.8125409,148.392698 46,150 C47.5144156,148.17295 48.2679341,146.475627 48.2605554,144.908032 C48.2531766,143.340437 47.4996582,141.704427 46,140 Z" id="shine" fill="#FFFFFF" transform="translate(51.000000, 145.000000) rotate(-315.000000) translate(-51.000000, -145.000000) "></path>
                <path d="M103.379507,113.99514 C103.382891,114.714149 103.209832,115.453859 102.863958,116.214789 C103.619784,115.841155 104.34947,115.65664 105.054315,115.665824 C105.739145,115.674748 106.452426,115.858931 107.195574,116.214789 C106.860942,115.517478 106.667626,114.82345 106.61803,114.13264 C106.565258,113.397585 106.722004,112.65763 107.082415,111.913154 C106.363998,112.227751 105.6595,112.400196 104.968666,112.428139 C104.288478,112.455651 103.614701,112.320385 102.948283,112.02621 C103.231795,112.688916 103.376447,113.345246 103.379507,113.99514 Z M101.424621,109.717514 C102.624137,110.91703 103.788949,111.475038 104.928251,111.428956 C106.102,111.38148 107.378332,110.806417 108.755054,109.683595 L109.424621,110.424621 C108.122773,111.726469 107.53481,112.937634 107.615463,114.061031 C107.699243,115.227974 108.302175,116.454073 109.444694,117.738798 L108.747896,118.452591 C107.347543,117.266412 106.108507,116.679646 105.041286,116.665739 C103.983924,116.651962 102.768088,117.234479 101.402806,118.445166 L100.686116,117.751987 C101.829006,116.373161 102.384796,115.121227 102.379518,113.999847 C102.374249,112.880613 101.821872,111.681312 100.695685,110.401352 L101.424621,109.717514 Z" id="shine" fill="#FFE9BC" fill-rule="nonzero" transform="translate(105.065405, 114.068093) rotate(-315.000000) translate(-105.065405, -114.068093) "></path>
                <path d="M62.8316176,24.9767466 C62.8362528,25.961478 62.5696853,26.9807428 62.0369718,28.0352523 C63.0835517,27.4610102 64.0867925,27.1769713 65.048498,27.1895027 C65.9877652,27.2017417 66.9742448,27.4847918 68.009926,28.0336218 C67.4928687,27.0618387 67.1982244,26.0970222 67.1294499,25.1390822 C67.0576415,24.1388818 67.3047972,23.1283624 67.8628265,22.1080451 C66.8644835,22.5914253 65.8896659,22.8540163 64.9380135,22.8925086 C64.0044557,22.9302691 63.0790916,22.7165579 62.1632637,22.2568396 C62.6033292,23.1753184 62.827406,24.0819827 62.8316176,24.9767466 Z M60.4246212,19.7175144 C61.9468046,21.2396978 63.4347323,21.9524955 64.8975987,21.8933256 C66.3949118,21.8327625 68.0147953,21.1029091 69.755054,19.6835949 L70.4246212,20.4246212 C68.7739273,22.0753151 68.0231035,23.6219606 68.1268827,25.0674724 C68.2337883,26.556531 68.9995804,28.1138165 70.4446942,29.7387978 L69.7478958,30.4525909 C67.9772793,28.952777 66.4029712,28.2072369 65.0354687,28.1894178 C63.677827,28.1717272 62.1305958,28.9130187 60.4028062,30.4451663 L59.6861165,29.7519872 C61.131889,28.0077507 61.8383828,26.4163524 61.8316287,24.9814535 C61.8248847,23.5487008 61.1218036,22.0221978 59.6956851,20.4013523 L60.4246212,19.7175144 Z" id="shine" fill="#FFE9BC" fill-rule="nonzero" transform="translate(65.065405, 25.068093) rotate(-315.000000) translate(-65.065405, -25.068093) "></path>
                <path d="M121.071068,56.0710678 C122.03907,57.03907 123.008418,57.5034399 123.979111,57.4641774 C124.949804,57.4249149 125.980456,56.9605451 127.071068,56.0710678 C126.024529,57.1176063 125.535949,58.1240482 125.605327,59.0903935 C125.674705,60.0567388 126.163285,61.0502969 127.071068,62.0710678 C125.960276,61.1301631 124.954459,60.6538416 124.053617,60.6421033 C123.152775,60.630365 122.158592,61.1066865 121.071068,62.0710678 C121.979717,60.9748377 122.431828,59.9564441 122.427401,59.0158872 C122.422974,58.0753302 121.970863,57.0937237 121.071068,56.0710678 Z" id="shine" fill="#FFFFFF" transform="translate(124.071068, 59.071068) rotate(-315.000000) translate(-124.071068, -59.071068) "></path>
                <polygon id="line" fill="#3D81F2" fill-rule="nonzero" points="131.812348 32.8904344 131.187652 32.1095656 146.187652 20.1095656 146.812348 20.8904344"></polygon>
            </g>
        </g>
    </g>
</svg>