<?xml version="1.0" encoding="UTF-8" standalone="no"?>
<svg width="360px" height="294px" viewBox="0 0 360 294" version="1.1" xmlns="http://www.w3.org/2000/svg" xmlns:xlink="http://www.w3.org/1999/xlink">
    <!-- Generator: Sketch 50.2 (55047) - http://www.bohemiancoding.com/sketch -->
    <title>5_1_upgrading_cordova_applications_to_nativescript</title>
    <desc>Created with Sketch.</desc>
    <defs></defs>
    <g id="illustrations" stroke="none" stroke-width="1" fill="none" fill-rule="evenodd">
        <g id="upgrading_cordova_applications_to_nativescript">
            <g id="upgrading_cordova_applications_to_nativescript_image" transform="translate(81.000000, 30.000000)">
                <g id="circle_bg" transform="translate(11.000000, 36.000000)">
                    <circle id="circle_2" fill="#0C3E91" cx="88" cy="88" r="83"></circle>
                    <path d="M88,175.5 C39.6750844,175.5 0.5,136.324916 0.5,88 C0.5,39.6750844 39.6750844,0.5 88,0.5 C136.324916,0.5 175.5,39.6750844 175.5,88 C175.5,136.324916 136.324916,175.5 88,175.5 Z M88,174.5 C135.772631,174.5 174.5,135.772631 174.5,88 C174.5,40.2273691 135.772631,1.5 88,1.5 C40.2273691,1.5 1.5,40.2273691 1.5,88 C1.5,135.772631 40.2273691,174.5 88,174.5 Z" id="circle_1" fill="#0B49AF" fill-rule="nonzero"></path>
                    <rect id="rectangle" fill="#1550B1" transform="translate(149.677670, 136.677670) rotate(-315.000000) translate(-149.677670, -136.677670) " x="137.17767" y="124.17767" width="25" height="25"></rect>
                    <rect id="rectangle" fill="#1550B1" transform="translate(81.677670, 28.677670) rotate(-315.000000) translate(-81.677670, -28.677670) " x="69.1776695" y="16.1776695" width="25" height="25"></rect>
                    <rect id="rectangle" fill="#1148A3" transform="translate(42.677670, 51.677670) rotate(-315.000000) translate(-42.677670, -51.677670) " x="26.1776695" y="35.1776695" width="33" height="33"></rect>
                    <rect id="rectangle" fill="#1148A3" transform="translate(169.516504, 38.758252) rotate(-315.000000) translate(-169.516504, -38.758252) " x="156.252417" y="25.4941649" width="26.5281746" height="26.5281746"></rect>
                    <rect id="rectangle" fill="#1148A3" transform="translate(126.748737, 130.748737) rotate(-315.000000) translate(-126.748737, -130.748737) " x="109.248737" y="113.248737" width="35" height="35"></rect>
                </g>
                <g id="moving_line" transform="translate(97.866025, 130.000000) rotate(-30.000000) translate(-97.866025, -130.000000) translate(49.866025, 104.500000)">
                    <rect id="bg" fill="#0B4A6A" x="3.86535248e-12" y="9" width="96" height="33"></rect>
                    <g id="light_green_stripes" transform="translate(1.000000, 9.000000)" fill="#37DEAC">
                        <polygon id="Rectangle-8" transform="translate(15.116845, 16.500000) scale(-1, 1) translate(-15.116845, -16.500000) " points="19 0 30 0 10.684288 33 0.233690887 33"></polygon>
                        <polygon id="Rectangle-8" transform="translate(35.883155, 16.500000) scale(-1, 1) translate(-35.883155, -16.500000) " points="39.7663091 0 50.7663091 0 31.4505971 33 21 33"></polygon>
                        <polygon id="Rectangle-8" transform="translate(55.883155, 16.500000) scale(-1, 1) translate(-55.883155, -16.500000) " points="59.7663091 0 70.7663091 0 51.4505971 33 41 33"></polygon>
                        <polygon id="Rectangle-8" transform="translate(75.883155, 16.500000) scale(-1, 1) translate(-75.883155, -16.500000) " points="79.7663091 0 90.7663091 0 71.4505971 33 61 33"></polygon>
                    </g>
                    <g id="lines_2" transform="translate(28.000000, 10.000000)" fill-rule="nonzero">
                        <polygon id="Path-10" fill="#297EA9" points="25.6988501 30.0931408 24.8249883 30.5793152 14.3943099 11.8309541 15.2681717 11.3447798"></polygon>
                        <polygon id="Path-10" fill="#80FBD6" points="29.0015839 19.0052739 28.1277221 19.4914482 17.6970437 0.743087165 18.5709055 0.256912835"></polygon>
                        <polygon id="Path-10" fill="#80FBD6" points="11.0015839 22.0052739 10.1277221 22.4914482 6.00955153 15.0893459 6.88341337 14.6031716"></polygon>
                        <polygon id="Path-11" fill="#297EA9" points="4.94653283 30.7372966 4.06617426 31.2116053 0.582413344 24.7454401 1.46277191 24.2711313"></polygon>
                        <polygon id="Path-11" fill="#297EA9" points="45.5579148 30.5950363 44.6775562 31.069345 41.1937953 24.6031798 42.0741539 24.128871"></polygon>
                    </g>
                    <g id="lines_1" transform="translate(17.000000, 0.000000)" fill-rule="nonzero">
                        <polygon id="Path-13" fill="#367BEE" points="2.41900244 47.257246 2.40719574 46.2573157 40.6401378 45.8058794 40.6519445 46.8058097"></polygon>
                        <polygon id="Path-13" fill="#185AC8" points="0.419002442 50.7213476 0.407195744 49.7214173 29.4444877 49.3785589 29.4562944 50.3784892"></polygon>
                        <polygon id="Path-13" fill="#367BEE" points="24.5059033 5.11490013 24.4940967 4.11496984 49.3815004 3.82111127 49.3933071 4.82104157"></polygon>
                        <polygon id="Path-13" fill="#185AC8" points="34.4339627 1.55718779 34.422156 0.557257487 51.3815004 0.357009658 51.3933071 1.35693996"></polygon>
                    </g>
                </g>
                <g id="chest" transform="translate(0.000000, 114.000000)">
                    <polygon id="line" fill="#69A2FF" fill-rule="nonzero" points="6.39043534 47.9242984 5.40518388 48.0954111 0.846915377 21.8493174 10.0030084 7.72798166 10.8420699 8.27201834 1.89924478 22.0644333"></polygon>
                    <polygon id="line" fill="#276BDB" fill-rule="nonzero" points="84.8892821 60.9917798 85.8752364 61.1587949 83.0541118 77.8129704 65.1816751 77.8129704 65.1816751 76.8129704 82.2092605 76.8129704"></polygon>
                    <polygon id="bg_2" fill="#3278EB" points="5 23 88 23 80 74 13 74"></polygon>
                    <polygon id="bg_1" fill="#639EFF" transform="translate(46.500000, 11.500000) scale(1, -1) translate(-46.500000, -11.500000) " points="5 0 88 0 73 23 20 23"></polygon>
                    <path d="M5,23 L25,23 L25.4818878,26 L5.47524144,26 L5,23 Z M88,23 L87.5334935,26 L67.529606,26 L68,23 L88,23 Z M45,-7.81597009e-14 L48,-7.81597009e-14 L48,8 L45,8 L45,-7.81597009e-14 Z M45,48 L48,48 L48,74 L45,74 L45,48 Z" id="yellow_lines" fill="#F6C868"></path>
                    <g id="logo" transform="translate(25.000000, 8.000000)">
                        <polygon id="bg_2" fill="#5992F1" points="0 15 43 15 39 40 4 40"></polygon>
                        <polygon id="bg_1" fill="#A5C7FF" transform="translate(21.500000, 7.500000) scale(1, -1) translate(-21.500000, -7.500000) " points="0 4.54747351e-13 43 4.54747351e-13 33 15 10 15"></polygon>
                        <path d="M32.8181523,31.4074566 L28.3380977,31.4074566 L28.6524818,27.6205832 L26.4516849,27.6205832 L26.1373008,31.4074566 L16.8626992,31.4074566 L16.548207,27.6205832 L14.3476263,27.6205832 L14.6621185,31.4074566 L10.1817396,31.4074566 L7.66666667,14.9979613 L13.9545651,4.8999939 L29.0454349,4.8999939 L35.3333333,14.9979613 L32.8181523,31.4074566 Z M27.7878984,9.94897759 L23.7456471,9.94897759 L24.015181,11.8424143 L18.984819,11.8424143 L19.2543529,9.94897759 L15.2121016,9.94897759 L12.6969206,14.9980698 L13.9545651,25.0960371 L29.0454349,25.0960371 L30.3030794,14.9980698 L27.7878984,9.94897759 Z M25.5871016,21.7448007 C25.2398633,21.7448007 24.9583333,20.6936748 24.9583333,19.3970693 C24.9583333,18.1003554 25.2398633,17.0492295 25.5871016,17.0492295 C25.9343398,17.0492295 26.2158698,18.1003554 26.2158698,19.3970693 C26.2158698,20.6936748 25.9343398,21.7448007 25.5871016,21.7448007 Z M17.6487135,21.9404901 C17.3014753,21.9404901 17.0198372,20.8893643 17.0198372,19.5926503 C17.0198372,18.2960449 17.3014753,17.244919 17.6487135,17.244919 C17.9959518,17.244919 18.2774818,18.2960449 18.2774818,19.5926503 C18.2774818,20.8893643 17.9959518,21.9404901 17.6487135,21.9404901 Z" id="Shape" fill="#FFFFFF" fill-rule="nonzero"></path>
                    </g>
                    <g id="corners" transform="translate(13.000000, 2.000000)" fill-rule="nonzero">
                        <polygon id="Path-4" fill="#E17FE1" points="3.20574747 68.1486978 13.1618081 68.1486978 13.1618081 69.1486978 2.36524471 69.1486978 0.380880245 57.7854905 1.36597243 57.6134632"></polygon>
                        <polygon id="Path-4" fill="#E17FE1" transform="translate(59.871251, 63.323395) scale(-1, 1) translate(-59.871251, -63.323395) " points="66.2617151 68.0910121 66.2617151 69.0910121 55.8854031 69.0910121 55.4651517 69.0910121 53.4807872 57.7278047 54.4658794 57.5557774 56.3056545 68.0910121"></polygon>
                        <polygon id="Path-5" fill="#EF99EF" points="47.5749704 1.26119403 47.5749704 0.26119403 59.1288399 0.26119403 64.554791 9.49252637 63.6926836 9.99925199 58.5566671 1.26119403"></polygon>
                        <polygon id="Path-5" fill="#EF99EF" transform="translate(11.556577, 5.130223) scale(-1, 1) translate(-11.556577, -5.130223) " points="14.0483634 1.26119403 3.06666667 1.26119403 3.06666667 0.26119403 14.6205361 0.26119403 20.0464873 9.49252637 19.1843799 9.99925199"></polygon>
                    </g>
                    <g id="lines" transform="translate(12.000000, 31.000000)" fill-rule="nonzero">
                        <polygon id="Path-6" fill="#0E4DB5" points="55.0254891 26.0618151 55.6958431 26.8038566 47.5618436 34.1520415 46.8914897 33.4099999"></polygon>
                        <polygon id="Path-6" fill="#1A5FD1" points="60.5588225 26.0618151 61.2291764 26.8038566 53.095177 34.1520415 52.424823 33.4099999"></polygon>
                        <polygon id="Path-6" fill="#0E4DB5" points="25.1454891 21.6439046 25.8158431 22.3859461 17.6818436 29.734131 17.0114897 28.9920895"></polygon>
                        <polygon id="Path-6" fill="#1A5FD1" points="24.0388225 27.1662927 24.7091764 27.9083342 16.575177 35.2565191 15.904823 34.5144775"></polygon>
                        <polygon id="Path-6" fill="#0E4DB5" points="9.65215581 2.86778521 10.3225097 3.60982673 2.18851029 10.9580116 1.51815638 10.2159701"></polygon>
                        <polygon id="Path-6" fill="#1A5FD1" points="8.54548915 8.39017327 9.21584306 9.13221479 1.08184362 16.4803997 0.41148971 15.7383581"></polygon>
                        <polygon id="Path-6" fill="#1A5FD1" points="66.0921558 0.658829981 66.7625097 1.40087151 58.6285103 8.74905639 57.9581564 8.00701486"></polygon>
                        <polygon id="Path-6" fill="#0E4DB5" points="64.9854891 6.18121804 65.6558431 6.92325957 57.5218436 14.2714445 56.8514897 13.5294029"></polygon>
                    </g>
                </g>
                <g id="box" transform="translate(68.000000, 43.000000)">
                    <polygon id="bg" fill="#FCD58A" points="34 35 117 35 117 86 34 86"></polygon>
                    <polygon id="line" fill="#FCD58A" fill-rule="nonzero" points="120.740876 69.1234568 121.740876 69.1234568 121.740876 90.5 89.2773723 90.5 89.2773723 89.5 120.740876 89.5"></polygon>
                    <polygon id="line" fill="#FCD58A" fill-rule="nonzero" points="11.9553407 23.8185515 12.6485102 23.0977768 30.6555629 40.4151719 30.6555629 52.634777 29.6555629 52.634777 29.6555629 40.8408674"></polygon>
                    <g id="corners" transform="translate(36.000000, 71.000000)" fill="#C93AFB" fill-rule="nonzero">
                        <polygon id="Rectangle-9" points="12.4963504 10.808642 12.4963504 11.808642 0.974452555 11.808642 0.974452555 0.320987654 1.97445255 0.320987654 1.97445255 10.808642"></polygon>
                        <polygon id="Rectangle-9" transform="translate(71.764599, 6.064815) scale(-1, 1) translate(-71.764599, -6.064815) " points="77.5255474 10.808642 77.5255474 11.808642 66.0036496 11.808642 66.0036496 0.320987654 67.0036496 0.320987654 67.0036496 10.808642"></polygon>
                    </g>
                    <g id="triangles" transform="translate(32.000000, 35.000000)">
                        <polygon id="Triangle" fill="#FFC24B" transform="translate(43.500000, 22.000000) scale(1, -1) translate(-43.500000, -22.000000) " points="44 0 87 44 2.27373675e-13 44"></polygon>
                        <polygon id="Triangle" fill="#C93AFB" fill-rule="nonzero" transform="translate(44.064272, 16.374697) scale(1, -1) translate(-44.064272, -16.374697) " points="15.7884438 31.1549913 15.082438 30.4467852 44.0510949 1.5681299 73.0461059 30.4730575 72.3401001 31.1812635 44.0510949 2.98014829"></polygon>
                        <polygon id="Triangle" fill="#DE7EFF" transform="translate(44.000000, 13.245283) scale(1, -1) translate(-44.000000, -13.245283) " points="44.509434 0 71 26.490566 17 26.490566"></polygon>
                        <polygon id="Path-16" fill="#FFF0D4" fill-rule="nonzero" points="81.4956725 9.01607716 82.2018454 9.72411654 43.3997365 48.4239407 4.83953512 9.35271151 5.55128118 8.65027465 43.4053391 47.006002"></polygon>
                    </g>
                    <g id="circle" transform="translate(64.000000, 51.000000)">
                        <path d="M0.619746603,7.74556512 L1.6118909,7.87066388 C1.55693126,8.30654262 1.52919708,8.74764669 1.52919708,9.1923075 C1.52919708,14.9841302 6.2396635,19.6799618 12.0510949,19.6799618 C17.8625263,19.6799618 22.5729927,14.9841302 22.5729927,9.1923075 C22.5729927,8.73918073 22.5441924,8.2897515 22.4871319,7.84578734 L23.4789735,7.71831094 C23.5414639,8.2045227 23.5729927,8.69653062 23.5729927,9.1923075 C23.5729927,15.5371127 18.4141157,20.6799618 12.0510949,20.6799618 C5.68807413,20.6799618 0.52919708,15.5371127 0.52919708,9.1923075 C0.52919708,8.70579774 0.559558241,8.2229123 0.619746603,7.74556512 Z" id="Oval" fill="#FFF0D4" fill-rule="nonzero"></path>
                        <circle id="Oval" fill="#FFFFFF" cx="12" cy="9" r="9"></circle>
                        <circle id="Oval" fill="#F65879" cx="12" cy="9" r="4"></circle>
                    </g>
                    <rect id="side" fill="#FFC24B" transform="translate(132.230328, 19.646668) scale(-1, 1) rotate(-45.000000) translate(-132.230328, -19.646668) " x="130.025949" y="-4.52617179" width="4.40875912" height="48.345679"></rect>
                    <rect id="side" fill="#FFC24B" transform="translate(18.704781, 19.646668) rotate(-45.000000) translate(-18.704781, -19.646668) " x="16.5004013" y="-4.52617179" width="4.40875912" height="48.345679"></rect>
                </g>
                <g id="shining" transform="translate(89.000000, 24.000000)">
                    <polygon id="Path-9" fill="#FFEECE" fill-rule="nonzero" points="55.5 50.5768071 54.5 50.5768071 54.5 34.9968072 55.5 34.9968072"></polygon>
                    <polygon id="Path-9" fill="#FFEECE" fill-rule="nonzero" points="51.4992881 50.5533285 50.5007119 50.6066713 49.0007119 22.5266714 49.9992881 22.4733286"></polygon>
                    <polygon id="Path-9" fill="#FFEECE" fill-rule="nonzero" transform="translate(59.471080, 41.761376) scale(-1, 1) translate(-59.471080, -41.761376) " points="60.4414488 50.5533285 59.4428725 50.6066713 58.5007119 32.9694241 59.4992881 32.9160813"></polygon>
                    <polygon id="Path-9" fill="#FFEECE" fill-rule="nonzero" points="47.4970505 50.5257706 46.5029495 50.6342292 43.0029495 18.5542293 43.9970505 18.4457707"></polygon>
                    <polygon id="Path-9" fill="#FFEECE" fill-rule="nonzero" transform="translate(65.250000, 34.540000) scale(-1, 1) translate(-65.250000, -34.540000) " points="67.4970505 50.5257706 66.5029495 50.6342292 63.0029495 18.5542293 63.9970505 18.4457707"></polygon>
                    <polygon id="Path-9" fill="#FFEECE" fill-rule="nonzero" points="43.4938561 50.5018581 42.5061439 50.6581417 36.0061439 9.57814179 36.9938561 9.42185821"></polygon>
                    <polygon id="Path-9" fill="#FFEECE" fill-rule="nonzero" transform="translate(70.750000, 30.040000) scale(-1, 1) translate(-70.750000, -30.040000) " points="74.4938561 50.5018581 73.5061439 50.6581417 67.0061439 9.57814179 67.9938561 9.42185821"></polygon>
                    <polygon id="Path-9" fill="#FFEECE" fill-rule="nonzero" points="39.4897013 50.4790415 38.5102987 50.6809583 29.0102987 4.60095839 29.9897013 4.39904161"></polygon>
                    <polygon id="Path-9" fill="#FFEECE" fill-rule="nonzero" transform="translate(76.250000, 27.540000) scale(-1, 1) translate(-76.250000, -27.540000) " points="81.4897013 50.4790415 80.5102987 50.6809583 71.0102987 4.60095839 71.9897013 4.39904161"></polygon>
                    <polygon id="Path-9" fill="#FFEECE" fill-rule="nonzero" points="35.4839132 50.4541905 34.5160868 50.7058093 22.0160868 2.62580938 22.9839132 2.37419062"></polygon>
                    <polygon id="Path-9" fill="#FFEECE" fill-rule="nonzero" transform="translate(81.750000, 26.540000) scale(-1, 1) translate(-81.750000, -26.540000) " points="88.4839132 50.4541905 87.5160868 50.7058093 75.0160868 2.62580938 75.9839132 2.37419062"></polygon>
                    <polygon id="Path-9" fill="#B9B8B6" fill-rule="nonzero" points="31.4748888 50.423537 30.5251112 50.7364629 14.0251112 0.656462954 14.9748888 0.343537046"></polygon>
                    <polygon id="Path-9" fill="#B9B8B6" fill-rule="nonzero" transform="translate(87.750000, 25.540000) scale(-1, 1) translate(-87.750000, -25.540000) " points="96.4748888 50.423537 95.5251112 50.7364629 79.0251112 0.656462954 79.9748888 0.343537046"></polygon>
                    <polygon id="Path-9" fill="#8794A6" fill-rule="nonzero" points="27.459429 50.3827057 26.540571 50.7772942 8.04057103 7.69729424 8.95942897 7.30270576"></polygon>
                    <polygon id="Path-9" fill="#8794A6" fill-rule="nonzero" transform="translate(92.150000, 29.040000) scale(-1, 1) translate(-92.150000, -29.040000) " points="101.958653 50.3809094 101.041347 50.7790904 82.3413466 7.69909051 83.2586534 7.30090949"></polygon>
                    <polygon id="Path-9" fill="#63799A" fill-rule="nonzero" points="23.4370199 50.3370727 22.5629801 50.8229272 3.06298014 15.7429272 3.93701986 15.2570728"></polygon>
                    <polygon id="Path-9" fill="#63799A" fill-rule="nonzero" transform="translate(96.250000, 33.040000) scale(-1, 1) translate(-96.250000, -33.040000) " points="106.931693 50.3277278 106.068307 50.832272 85.5683071 15.7522721 86.4316929 15.2477279"></polygon>
                    <polygon id="Path-9" fill="#4E6893" fill-rule="nonzero" points="19.4128555 50.2979532 18.5871445 50.8620467 0.0871445407 23.7820468 0.912855459 23.2179532"></polygon>
                    <polygon id="Path-9" fill="#4E6893" fill-rule="nonzero" transform="translate(99.750000, 37.040000) scale(-1, 1) translate(-99.750000, -37.040000) " points="109.90575 50.2878239 109.09425 50.872176 89.5942499 23.792176 90.4057501 23.207824"></polygon>
                    <path d="M77,54 C75.1832509,45.4844497 64.4976623,39 55,39 C45.5037527,39 34.8077852,45.4778868 33,54 C40.137737,53.9959446 69.1891945,54.0091554 77,54 Z" id="circle_2" fill="#FFE5B4"></path>
                    <path d="M71,54 C68.2524014,47.7489436 62.1162865,44 55,44 C47.8854988,44 41.7440474,47.7448659 39,54 C43.6793619,53.9972275 63.3508517,54.01597 71,54 Z" id="circle_1" fill="#FFCF76"></path>
                </g>
                <g id="key" transform="translate(121.000000, 0.000000)">
                    <path d="M24,49 L27,49 L27,50 L24,50 L24,52 L29,52 L29,54 L24,54 L22,54 L22,37 L24,37 L24,45 L29,45 L29,47 L24,47 L24,49 Z" id="bottom" fill="#37DEAC"></path>
                    <path d="M45.5,23 L44.5,23 C44.5,11.1258779 34.8741221,1.5 23,1.5 C11.1258779,1.5 1.5,11.1258779 1.5,23 L0.5,23 C0.5,10.5735931 10.5735931,0.5 23,0.5 C35.4264069,0.5 45.5,10.5735931 45.5,23 Z" id="Oval" fill="#37DEAC" fill-rule="nonzero"></path>
                    <circle id="Oval" fill="#93FFDF" cx="23" cy="23" r="18"></circle>
                    <circle id="Oval" fill="#37DEAC" cx="23" cy="23" r="15"></circle>
                    <path d="M30.661855,22.6168904 C30.3237893,22.281966 30.1480759,21.8616786 30.1341263,21.3560282 L30.1341263,17.7836689 C30.1233701,17.2780185 29.9490852,16.8570616 29.6113557,16.5207145 C29.2735421,16.1840327 28.8505189,16.0107959 28.3428742,16.0001674 L26.5519582,16.0001674 L26.5519582,24.9236171 L19.3780421,16 L17.58679,16 C17.0790613,16.0107122 16.6563742,16.183949 16.3186446,16.5206308 C15.980579,16.8570616 15.8066302,17.2780185 15.795958,17.7835016 L15.795958,21.3560282 C15.7819245,21.8616786 15.606211,22.281966 15.2681453,22.6168904 C14.9303318,22.9513963 14.5076447,23.125721 14,23.1396134 C14.5076447,23.1538406 14.9304158,23.3281653 15.2680613,23.6626712 C15.606211,23.9975956 15.7819245,24.417883 15.795874,24.9235334 L15.795874,28.4958926 C15.8066302,29.0011246 15.980579,29.4225 16.3186446,29.7588471 C16.6564582,30.0952778 17.0791453,30.2687656 17.5867059,30.2793942 L19.3780421,30.2793942 L19.3780421,21.3561118 L26.5519582,30.2796452 L28.3428742,30.2796452 C28.8505189,30.268933 29.2736262,30.0953615 29.6113557,29.7590144 C29.9491692,29.4225837 30.1233701,29.001292 30.1340423,28.4961437 L30.1340423,24.9236171 C30.1480759,24.4179667 30.3237893,23.9976793 30.661855,23.6627549 C30.9996685,23.328249 31.4223556,23.1539243 31.9300003,23.1396971 C31.4223556,23.125721 30.9995845,22.95148 30.661939,22.616974 L30.661855,22.6168904 Z" id="logo" fill="#FFFFFF"></path>
                </g>
            </g>
        </g>
    </g>
</svg>