<?xml version="1.0" encoding="utf-8"?>
<!-- Generator: Adobe Illustrator 19.2.1, SVG Export Plug-In . SVG Version: 6.00 Build 0)  -->
<svg version="1.1" id="layer" xmlns="http://www.w3.org/2000/svg" xmlns:xlink="http://www.w3.org/1999/xlink" x="0px" y="0px"
	 viewBox="0 0 652 652" style="enable-background:new 0 0 652 652;" xml:space="preserve">
<style type="text/css">
	.st0{fill:#005CB9;}
	.st1{fill:#383336;}
</style>
<path class="st0" d="M164.7,250.6l11.2,40.3h-23.2L164.7,250.6z M144.3,319.1l-10.2,33.4h59.6l-9.6-33.4H144.3z M299.8,226.4H185.4
	v35.9h36.1v90.2h58.1c-3.6-2.2-28.2-21.8-28.2-58.3C251.4,263.9,269.8,234.2,299.8,226.4z M319.6,320.2c13.5,0,24.3-11.2,24.3-25.4
	c0-14.1-10.2-26.8-23.8-26.8c-13.7,0-24.5,12.7-24.5,26.8C295.6,309,305.7,320.2,319.6,320.2z M439.6,305.7l-23.2-79.3h-59.4v126.1
	h37.1v-79h0.3l23,79h60V226.4h-37.5v79.3H439.6z M87,352.5l10.7-35.4H57.9v-10.7h43l10.2-33.9H57.9v-10.3h56.2l10.8-35.9H15v126.1
	H87z"/>
<path class="st1" d="M123.8,382.4h9.5c2.9,0,7.6,0.4,5.9,8.4c-1.5,7-4.4,10.2-10.4,10.2h-5.9l-3.4,16.2h-3.1L123.8,382.4z
	 M123.5,398.4h5.7c3.2,0,5.6-1.5,6.8-7c1.3-5.9-1.2-6.4-4-6.4h-5.7L123.5,398.4z"/>
<path class="st1" d="M138.7,407.7l1.2-5.8c0.7-3.1,2.1-9.5,10.4-9.5c8.3,0,7,6.4,6.4,9.5l-1.2,5.8c-1.3,6.3-4.3,10-10.5,10
	C138.7,417.7,137.4,414,138.7,407.7 M151,412.2c0.7-1.2,1.8-5.6,2.1-7.1c1.5-7.2,1.5-10.3-3.3-10.3c-4.8,0-6.2,3.1-7.7,10.3
	c-0.3,1.5-1.2,5.9-0.9,7.1c0.1,0.6,0.2,3.2,4.2,3.2C149.4,415.4,150.7,412.7,151,412.2z"/>
<polygon class="st1" points="161.1,392.9 164.2,392.9 165.1,414.2 165.2,414.2 174.9,392.9 178.5,392.9 179.4,414.2 179.4,414.2 
	189.4,392.9 192.3,392.9 180.4,417.2 176.8,417.2 175.9,396.4 175.8,396.4 166.3,417.2 162.7,417.2 "/>
<path class="st1" d="M195.1,405.7l-0.4,1.9c-0.7,3.4-0.8,7.9,3.8,7.9c3.6,0,5.9-2.3,6.5-5.6h3c-1.6,5.9-5.2,7.9-10.1,7.9
	c-4.2,0-8-1.7-6.5-9.1l1.3-6c1.5-7,5.1-10.3,10.6-10.3c8.4,0,7.1,6,5.6,13.3H195.1z M206.6,403.3c1.1-5.4,1-8.6-3.7-8.6
	c-4.6,0-6.2,3.2-7.3,8.6H206.6z"/>
<path class="st1" d="M219.4,396.2L219.4,396.2c1.8-2.3,4.7-3.8,7.6-3.8l-0.6,2.9c-4-0.3-7.2,2.1-8.1,6.2l-3.3,15.7h-2.9l5.2-24.3
	h2.9L219.4,396.2z"/>
<path class="st1" d="M225,417.2l5.2-24.3h2.9l-5.2,24.3H225z M231.3,386.1l0.8-3.7h3.6l-0.8,3.7H231.3z"/>
<path class="st1" d="M237.4,417.2h-2.9l5.2-24.3h2.9l-0.6,3h0.1c1.8-2,4-3.5,6.6-3.5c6,0,5.7,4.5,5,7.7l-3.6,17.2h-2.9l3.6-17
	c0.6-2.8,0.1-5.5-3.3-5.5c-2.6,0-5.6,1.8-6.8,7.2L237.4,417.2z"/>
<path class="st1" d="M274.6,392.8h2.8c-0.6,2.3-0.9,3.5-1.2,4.8l-4.4,20.5c-1.1,5.4-3.5,8.5-10.4,8.5c-6.1,0-6.4-4.3-5.7-6.7h2.9
	c-0.8,2.8,0.9,4.4,3.6,4.4c5.6,0,5.9-3,7.5-10.3h-0.1c-1.7,2.1-4.2,2.9-6.5,2.9c-7,0-6.2-6-5-11.4c1.2-5.6,1.3-5.7,2.5-8.3
	c0.5-1,3-4.8,7.9-4.8c2.5,0,4.6,1.2,5.2,3.4l0.1,0.1L274.6,392.8z M261.4,404.5c-1.1,5.1-2.2,10.1,3.1,10.1c2.4,0,4.3-1.6,5-2.7
	c1.1-1.9,1.6-3,3.1-10.1c1.1-5.1-1.2-7-3.9-7C263.6,394.7,262.2,400.9,261.4,404.5z"/>
<path class="st1" d="M288.8,417.2l7.4-34.8h9.7c5.4,0,7.8,2.2,6.5,8.3c-0.9,4.2-2.2,7.1-6.8,8.3l0,0.1c4.4,1,4.9,4,4,8.4
	c-1.3,6.3-5,9.7-10.9,9.7H288.8z M292.4,414.6h4.9c5.1,0,7.9-1.7,9-6.8c0.7-3.1,0.6-7.3-4.7-7.3h-6.3L292.4,414.6z M301.9,397.9
	c4.4,0,6.5-3,7.3-7c1.2-5.8-1.9-5.9-4.4-5.9h-6.1l-2.7,12.9H301.9z"/>
<path class="st1" d="M333,392.9l-5.2,24.3h-2.5l0.6-2.7h-0.1c-2.1,2.1-4.1,3.2-6.8,3.2c-5,0-5.6-3.7-4.8-7.6l3.7-17.2h2.9l-3.6,16.7
	c-0.1,0.7-1.4,5.8,2.8,5.8c3.9,0,6.1-3.7,6.4-5.4l3.6-17.2H333z"/>
<path class="st1" d="M339.9,417.7c-5.3,0-6.8-2.6-5.6-7.7h2.9c-0.7,3.3-0.4,5.5,3.3,5.5c2.8,0,4.5-1.6,5.1-4.3
	c1.4-6.4-9.9-4.7-8.2-12.8c1-4.5,4.4-6.1,8.6-6.1c4.8,0,5.7,3.3,4.9,7H348c0.5-3.1,0-4.7-3.2-4.7c-2.1,0-4,1.4-4.5,3.5
	c-1.3,6.1,10,4.4,8.3,12.6C347.6,415.4,344.4,417.7,339.9,417.7"/>
<path class="st1" d="M352.5,417.2l5.2-24.3h2.9l-5.2,24.3H352.5z M358.8,386.1l0.8-3.7h3.6l-0.8,3.7H358.8z"/>
<path class="st1" d="M364.9,417.2H362l5.2-24.3h2.9l-0.6,3h0.1c1.8-2,4-3.5,6.6-3.5c6,0,5.7,4.5,5,7.7l-3.6,17.2h-2.9l3.6-17
	c0.6-2.8,0.1-5.5-3.3-5.5c-2.6,0-5.6,1.8-6.8,7.2L364.9,417.2z"/>
<path class="st1" d="M388.7,405.7l-0.4,1.9c-0.7,3.4-0.8,7.9,3.8,7.9c3.6,0,5.9-2.3,6.5-5.6h3c-1.6,5.9-5.2,7.9-10.1,7.9
	c-4.2,0-8-1.7-6.5-9.1l1.3-6c1.5-7,5.1-10.3,10.6-10.3c8.4,0,7.1,6,5.6,13.3H388.7z M400.2,403.3c1.1-5.4,1-8.6-3.7-8.6
	c-4.6,0-6.2,3.2-7.3,8.6H400.2z"/>
<path class="st1" d="M411.5,417.7c-5.2,0-6.8-2.6-5.6-7.7h2.9c-0.7,3.3-0.4,5.5,3.3,5.5c2.8,0,4.5-1.6,5.1-4.3
	c1.4-6.4-9.9-4.7-8.2-12.8c1-4.5,4.4-6.1,8.6-6.1c4.8,0,5.7,3.3,4.9,7h-2.8c0.5-3.1,0-4.7-3.2-4.7c-2.1,0-4,1.4-4.5,3.5
	c-1.3,6.1,10,4.4,8.3,12.6C419.2,415.4,416.1,417.7,411.5,417.7"/>
<path class="st1" d="M429.9,417.7c-5.3,0-6.8-2.6-5.6-7.7h2.9c-0.7,3.3-0.4,5.5,3.3,5.5c2.8,0,4.5-1.6,5.1-4.3
	c1.4-6.4-9.9-4.7-8.2-12.8c1-4.5,4.4-6.1,8.6-6.1c4.8,0,5.7,3.3,4.9,7H438c0.5-3.1,0-4.7-3.2-4.7c-2.1,0-4,1.4-4.5,3.5
	c-1.3,6.1,10,4.4,8.3,12.6C437.6,415.4,434.5,417.7,429.9,417.7"/>
<polygon class="st1" points="472.5,382.4 476.7,382.4 477.2,412.9 477.3,412.9 491.2,382.4 494.2,382.4 478.2,417.2 474.2,417.2 
	473.7,386.3 473.6,386.3 459.9,417.2 456,417.2 455,382.4 458.3,382.4 458.8,413.2 458.9,413.2 "/>
<path class="st1" d="M490.4,407.7l1.2-5.8c0.7-3.1,2.1-9.5,10.4-9.5c8.3,0,7,6.4,6.4,9.5l-1.2,5.8c-1.3,6.3-4.3,10-10.5,10
	C490.5,417.7,489.1,414,490.4,407.7 M502.8,412.2c0.7-1.2,1.8-5.6,2.1-7.1c1.5-7.2,1.5-10.3-3.3-10.3c-4.8,0-6.2,3.1-7.7,10.3
	c-0.3,1.5-1.2,5.9-0.9,7.1c0.1,0.6,0.2,3.2,4.2,3.2C501.2,415.4,502.4,412.7,502.8,412.2z"/>
<path class="st1" d="M518.5,396.2L518.5,396.2c1.8-2.3,4.7-3.8,7.6-3.8l-0.6,2.9c-4-0.3-7.3,2.1-8.1,6.2l-3.3,15.7h-2.9l5.2-24.3
	h2.9L518.5,396.2z"/>
<polygon class="st1" points="524.4,417.2 531.8,382.4 534.7,382.4 527.3,417.2 "/>
<path class="st1" d="M547.5,414.1l-0.1,0c-2,2.3-4.1,3.5-6.9,3.5c-7,0-5.9-7-4.7-12.7c1-4.7,2.7-12.6,10.2-12.6c2.2,0,4.2,1,5.3,2.9
	l0.1,0l2.7-12.9h2.9l-6.4,30c-0.5,2.4-0.7,4-0.7,4.8H547L547.5,414.1z M548.8,407.2l0.9-4.3c0.3-1.4,1.7-8.2-3.7-8.2
	c-5.2,0-6.2,4.7-7.4,10.4c-1.9,9.1,0,10.3,3.1,10.3C544.5,415.4,547.6,413.2,548.8,407.2z"/>
<polygon class="st1" points="558.1,392.9 561.2,392.9 562.1,414.2 562.2,414.2 571.9,392.9 575.5,392.9 576.4,414.2 576.4,414.2 
	586.4,392.9 589.3,392.9 577.4,417.2 573.8,417.2 572.9,396.4 572.8,396.4 563.3,417.2 559.7,417.2 "/>
<path class="st1" d="M587.8,417.2l5.2-24.3h2.9l-5.2,24.3H587.8z M594,386.1l0.8-3.7h3.6l-0.8,3.7H594z"/>
<path class="st1" d="M610.7,414.1l-0.1,0c-2,2.3-4.1,3.5-6.9,3.5c-7,0-5.9-7-4.7-12.7c1-4.7,2.7-12.6,10.2-12.6c2.2,0,4.2,1,5.3,2.9
	l0.1,0l2.7-12.9h2.9l-6.4,30c-0.5,2.4-0.7,4-0.7,4.8h-2.8L610.7,414.1z M612,407.2l0.9-4.3c0.3-1.4,1.7-8.2-3.7-8.2
	c-5.2,0-6.2,4.7-7.4,10.4c-1.9,9.1,0,10.3,3.1,10.3C607.7,415.4,610.8,413.2,612,407.2z"/>
<path class="st1" d="M623.7,405.7l-0.4,1.9c-0.7,3.4-0.8,7.9,3.8,7.9c3.6,0,5.9-2.3,6.5-5.6h3c-1.6,5.9-5.2,7.9-10.1,7.9
	c-4.2,0-8-1.7-6.5-9.1l1.3-6c1.5-7,5.1-10.3,10.6-10.3c8.4,0,7.1,6,5.6,13.3H623.7z M635.1,403.3c1.1-5.4,1-8.6-3.7-8.6
	c-4.6,0-6.2,3.2-7.3,8.6H635.1z"/>
</svg>
