<?xml version="1.0" encoding="UTF-8" standalone="no"?>
<!-- Created with Inkscape (http://www.inkscape.org/) -->
<svg
   xmlns:svg="http://www.w3.org/2000/svg"
   xmlns="http://www.w3.org/2000/svg"
   version="1.0"
   width="595.59741"
   height="163.30099"
   id="svg2">
  <defs
     id="defs41" />
  <title
     id="title4">generated by pstoedit version:3.45 from c:/docume~1/mendaliv/locals~1/temp/gsviewa03684</title>
  <g
     transform="translate(-7.10156,-313.375)"
     style="fill:#eb1c31;fill-opacity:1;fill-rule:evenodd;stroke-width:0;stroke-linecap:butt;stroke-linejoin:miter;stroke-miterlimit:4"
     id="g8">
    <path
       d="M 184.5,313.375 L 241.602,313.375 L 248.898,313.727 L 252.148,314.125 L 255.199,314.676 L 257.949,315.477 L 260.449,316.426 L 262.648,317.574 L 264.648,318.926 L 266.352,320.523 L 267.648,322.324 L 268.75,324.375 L 269.5,326.676 L 269.949,329.227 L 270.102,331.977 L 269.852,335.074 L 269.25,338.426 L 268.199,342.523 L 266.648,346.324 L 264.699,349.875 L 262.102,353.023 L 258.949,355.875 L 255.148,358.227 L 250.602,360.273 L 245.25,361.824 L 245.25,362.227 L 248.5,362.676 L 251.301,363.375 L 253.602,364.477 L 255.5,365.875 L 257,367.625 L 258.051,369.676 L 258.75,372.125 L 259.051,374.824 L 259,378.227 L 258.75,382.074 L 257.852,390.977 L 257.148,401.074 L 257.148,406.477 L 257.5,411.926 L 219.898,411.926 L 219.699,405.523 L 220,398.176 L 220.898,383.773 L 220.898,382.023 L 220.648,380.574 L 220.148,379.324 L 219.398,378.426 L 218.301,377.727 L 217,377.273 L 215.25,376.977 L 213.25,376.875 L 208.551,376.875 L 201.148,411.926 L 163.801,411.926 L 184.5,313.375 z M 216.398,354.574 L 219.199,354.426 L 221.75,354.074 L 224.051,353.273 L 226.102,352.273 L 227.852,350.926 L 229.398,349.176 L 230.449,346.977 L 231.199,344.477 L 231.551,342.023 L 231.301,340.074 L 230.5,338.625 L 229.301,337.523 L 227.699,336.727 L 225.648,336.227 L 223.25,335.977 L 220.602,335.926 L 217.301,335.926 L 213.352,354.574 L 216.398,354.574 z "
       style="fill:#eb1c31;fill-opacity:1"
       id="path10" />
  </g>
  <g
     transform="translate(-7.10156,-313.375)"
     style="fill:#eb1c31;fill-opacity:1;fill-rule:evenodd;stroke-width:0;stroke-linecap:butt;stroke-linejoin:miter;stroke-miterlimit:4"
     id="g12">
    <path
       d="M 280.199,413.926 L 267.5,343.426 L 301.898,343.426 L 303.449,381.023 L 303.75,381.023 L 320.449,343.426 L 352.852,343.426 L 301.102,438.273 L 265.852,438.273 L 280.199,413.926 z "
       style="fill:#eb1c31;fill-opacity:1"
       id="path14" />
  </g>
  <g
     transform="translate(-7.10156,-313.375)"
     style="fill:#eb1c31;fill-opacity:1;fill-rule:evenodd;stroke-width:0;stroke-linecap:butt;stroke-linejoin:miter;stroke-miterlimit:4"
     id="g16">
    <path
       d="M 387.551,404.074 L 384.801,406.773 L 381.949,408.926 L 379.051,410.676 L 376.148,411.926 L 373.148,412.926 L 370.25,413.477 L 367.352,413.824 L 364.5,413.926 L 361.551,413.824 L 358.75,413.375 L 356.148,412.574 L 353.75,411.574 L 351.551,410.227 L 349.551,408.625 L 347.852,406.676 L 346.352,404.477 L 345.148,402.023 L 344.102,399.273 L 343.449,396.273 L 343,392.926 L 342.852,389.324 L 343.051,385.426 L 343.551,381.324 L 344.398,376.875 L 345.5,372.176 L 346.852,367.875 L 348.352,363.977 L 350.051,360.375 L 351.949,357.074 L 354,354.176 L 356.148,351.625 L 358.449,349.375 L 360.75,347.375 L 363.301,345.676 L 365.852,344.324 L 368.449,343.176 L 371.102,342.324 L 373.801,341.773 L 376.449,341.426 L 379.199,341.324 L 381.949,341.426 L 384.699,341.773 L 387.199,342.324 L 389.699,343.176 L 391.949,344.273 L 394.051,345.773 L 395.898,347.574 L 397.602,349.727 L 405.051,313.375 L 437.801,313.375 L 416.949,411.926 L 386.449,411.926 L 387.551,404.074 z M 393.398,367.125 L 393.352,365.676 L 393.051,364.426 L 392.602,363.324 L 392.051,362.426 L 391.199,361.727 L 390.25,361.176 L 389.102,360.875 L 387.852,360.727 L 385.5,361.023 L 383.5,361.824 L 382.648,362.477 L 381.852,363.176 L 380.5,365.125 L 379.301,367.574 L 378.352,370.477 L 376.699,377.773 L 375.449,384.227 L 375.25,387.125 L 375.398,389.574 L 375.898,391.676 L 376.398,392.523 L 376.949,393.227 L 377.75,393.824 L 378.602,394.273 L 379.699,394.523 L 380.898,394.574 L 383.301,394.273 L 385.051,393.477 L 386.449,392.324 L 387.551,390.926 L 388.699,388.977 L 389.699,386.227 L 390.699,382.477 L 391.648,377.773 L 393,371.227 L 393.301,369.176 L 393.398,367.125 z "
       style="fill:#eb1c31;fill-opacity:1"
       id="path18" />
  </g>
  <g
     transform="translate(-7.10156,-313.375)"
     style="fill:#eb1c31;fill-opacity:1;fill-rule:evenodd;stroke-width:0;stroke-linecap:butt;stroke-linejoin:miter;stroke-miterlimit:4"
     id="g20">
    <path
       d="M 502.852,390.023 L 501.699,392.824 L 500.398,395.477 L 498.852,397.977 L 497.148,400.324 L 495.199,402.426 L 493.051,404.426 L 490.699,406.176 L 488.102,407.773 L 485.25,409.227 L 482.199,410.477 L 478.898,411.477 L 475.398,412.375 L 471.602,413.023 L 467.551,413.574 L 463.25,413.824 L 458.648,413.926 L 455,413.824 L 451.398,413.477 L 448,412.926 L 444.75,412.125 L 441.699,411.023 L 438.949,409.625 L 436.398,408.023 L 434.102,406.023 L 432.148,403.727 L 430.5,401.074 L 429.199,398.125 L 428.301,394.773 L 427.801,391.023 L 427.699,386.926 L 428.102,382.375 L 429,377.426 L 430.051,373.074 L 431.398,369.023 L 433.051,365.227 L 435,361.727 L 437.199,358.477 L 439.699,355.523 L 442.398,352.824 L 445.301,350.477 L 448.551,348.324 L 451.898,346.477 L 455.5,344.926 L 459.301,343.625 L 463.301,342.625 L 467.449,341.875 L 471.75,341.426 L 476.25,341.324 L 480.801,341.426 L 485,341.977 L 488.852,342.727 L 492.352,343.773 L 495.449,345.125 L 498.148,346.773 L 500.551,348.773 L 502.602,351.023 L 504.301,353.523 L 505.551,356.375 L 506.602,359.477 L 507.148,362.824 L 507.398,366.477 L 507.352,370.375 L 506.898,374.574 L 506.051,379.023 L 505,383.773 L 458.648,383.773 L 458.148,385.824 L 457.801,388.574 L 457.699,390.926 L 457.949,392.824 L 458.602,394.426 L 459.551,395.625 L 460.949,396.523 L 462.699,396.977 L 464.949,397.176 L 466.352,397.023 L 467.648,396.727 L 470.301,395.324 L 471.5,394.375 L 472.648,393.176 L 473.602,391.676 L 474.449,390.023 L 502.852,390.023 z M 479,369.176 L 479.199,368.273 L 479.5,365.977 L 479.449,363.977 L 479.051,362.227 L 478.352,360.824 L 477.352,359.625 L 476.051,358.875 L 474.449,358.426 L 472.602,358.227 L 470.699,358.426 L 468.898,358.875 L 467.352,359.625 L 465.801,360.824 L 464.551,362.227 L 463.5,363.977 L 462.602,365.977 L 461.898,368.273 L 461.5,369.176 L 479,369.176 z "
       style="fill:#eb1c31;fill-opacity:1"
       id="path22" />
  </g>
  <g
     transform="translate(-7.10156,-313.375)"
     style="fill:#eb1c31;fill-opacity:1;fill-rule:evenodd;stroke-width:0;stroke-linecap:butt;stroke-linejoin:miter;stroke-miterlimit:4"
     id="g24">
    <path
       d="M 549.25,342.477 L 545.949,358.227 L 546.148,358.227 L 548.449,354.574 L 551,351.273 L 553.801,348.324 L 556.75,345.773 L 560,343.676 L 563.398,342.176 L 567,341.176 L 568.852,340.926 L 570.801,340.875 L 573.551,340.977 L 576,341.324 L 570.25,369.176 L 567.102,368.574 L 563.051,368.273 L 561.25,368.324 L 559.551,368.676 L 556.148,369.676 L 552.898,371.375 L 549.949,373.523 L 547.199,376.227 L 545,379.324 L 543.199,382.824 L 542.102,386.523 L 536.75,411.926 L 503.75,411.926 L 518.102,342.477 L 549.25,342.477 z "
       style="fill:#eb1c31;fill-opacity:1"
       id="path26" />
  </g>
  <g
     transform="translate(-7.10156,-313.375)"
     style="fill:#000000;fill-opacity:1;fill-rule:evenodd;stroke-width:0;stroke-linecap:butt;stroke-linejoin:miter;stroke-miterlimit:4"
     id="g28">
    <path
       d="M 165.102,320.273 L 153.699,322.574 L 142.852,325.227 L 132.551,328.273 L 122.898,331.523 L 113.852,335.074 L 105.449,338.926 L 97.75,343.074 L 94.1992,345.227 L 90.8516,347.426 L 156.25,362.375 L 155.199,367.125 L 7.10156,332.574 L 100.352,332.574 L 107.551,329.875 L 115.148,327.273 L 122.949,324.926 L 131.102,322.727 L 139.5,320.727 L 148.148,318.977 L 157.051,317.477 L 166.148,316.176 L 165.102,320.273 z "
       style="fill:#000000;fill-opacity:1"
       id="path30" />
  </g>
  <g
     transform="translate(-7.10156,-313.375)"
     style="fill:#000000;fill-opacity:1;fill-rule:evenodd;stroke-width:0;stroke-linecap:butt;stroke-linejoin:miter;stroke-miterlimit:4"
     id="g32">
    <path
       d="M 284.949,467.676 L 294.551,449.773 L 280.949,451.375 L 266.852,452.676 L 252.25,453.477 L 237.301,453.773 L 228.5,453.676 L 219.75,453.375 L 202.75,452.324 L 186.301,450.625 L 170.551,448.273 L 155.551,445.375 L 141.398,441.875 L 128.199,437.875 L 122,435.676 L 116.051,433.375 L 110.352,430.926 L 104.898,428.426 L 99.8516,425.773 L 95.0508,423.023 L 90.6016,420.176 L 86.3984,417.227 L 82.6992,414.176 L 79.1992,411.125 L 76.1484,407.977 L 73.4492,404.676 L 71.1016,401.324 L 69.1992,397.926 L 67.6992,394.523 L 66.6016,390.977 L 66,387.375 L 65.75,383.773 L 65.8984,380.227 L 66.6016,376.676 L 67.6484,373.176 L 69.1484,369.676 L 71.0508,366.273 L 73.3984,362.875 L 76.1016,359.574 L 79.1992,356.375 L 64.6484,353.273 L 61.8516,355.574 L 59.1992,357.926 L 56.75,360.273 L 54.3984,362.727 L 52.25,365.227 L 50.3008,367.773 L 46.8516,372.977 L 44.1484,378.324 L 43.0508,381.074 L 42.1992,383.773 L 41.4492,386.625 L 40.8984,389.426 L 40.5508,395.176 L 40.75,399.324 L 41.4492,403.523 L 42.5,407.574 L 43.9492,411.625 L 45.8516,415.523 L 48.0508,419.477 L 50.75,423.273 L 53.75,426.926 L 57.1016,430.523 L 60.8516,434.074 L 64.8984,437.477 L 69.25,440.773 L 73.9492,443.977 L 78.9492,447.074 L 84.25,450.023 L 89.8516,452.875 L 95.6484,455.574 L 101.801,458.074 L 108.148,460.523 L 114.75,462.773 L 121.602,464.875 L 128.648,466.875 L 143.398,470.273 L 158.898,472.977 L 175,474.977 L 183.398,475.676 L 191.801,476.227 L 200.398,476.523 L 209.051,476.676 L 219.051,476.523 L 229,476.023 L 238.898,475.227 L 248.5,474.227 L 258,472.926 L 267.25,471.375 L 276.199,469.625 L 284.949,467.676 z "
       style="fill:#000000;fill-opacity:1"
       id="path34" />
  </g>
  <g
     transform="translate(-7.10156,-313.375)"
     style="fill:#eb1c31;fill-opacity:1;fill-rule:evenodd;stroke-width:0;stroke-linecap:butt;stroke-linejoin:miter;stroke-miterlimit:4"
     id="g36">
    <path
       d="M 582.449,351.824 L 582.648,349.727 L 583.199,347.727 L 584.102,346.023 L 585.301,344.477 L 586.852,343.125 L 588.551,342.176 L 590.449,341.523 L 592.5,341.324 L 594.551,341.523 L 596.449,342.176 L 598.199,343.125 L 599.75,344.477 L 600.949,346.023 L 601.898,347.727 L 602.5,349.727 L 602.699,351.824 L 602.5,353.926 L 601.898,355.926 L 600.949,357.676 L 599.75,359.176 L 598.199,360.477 L 596.449,361.375 L 594.551,362.023 L 592.5,362.227 L 590.449,362.023 L 588.551,361.375 L 586.852,360.477 L 585.301,359.176 L 584.102,357.676 L 583.199,355.926 L 582.648,353.926 L 582.449,351.824 z M 601.449,351.824 L 601.25,350.023 L 600.75,348.273 L 599.949,346.727 L 598.801,345.375 L 597.449,344.227 L 596,343.375 L 594.301,342.773 L 592.5,342.625 L 590.699,342.773 L 589,343.375 L 587.398,344.227 L 586.051,345.375 L 584.949,346.727 L 584.051,348.273 L 583.551,350.023 L 583.352,351.824 L 583.551,353.676 L 584.051,355.324 L 584.949,356.875 L 586.051,358.176 L 587.398,359.273 L 589,360.023 L 590.699,360.523 L 592.5,360.727 L 594.301,360.523 L 596,360.023 L 597.449,359.273 L 598.801,358.176 L 599.949,356.875 L 600.75,355.324 L 601.25,353.676 L 601.449,351.824 z M 597.699,357.676 L 595.699,357.676 L 592.648,352.176 L 590.102,352.176 L 590.102,357.676 L 588.551,357.676 L 588.551,346.125 L 593.801,346.125 L 595.051,346.227 L 596.25,346.676 L 596.949,347.023 L 597.398,347.676 L 597.699,349.023 L 597.449,350.574 L 596.648,351.523 L 595.5,352.074 L 594,352.176 L 597.699,357.676 z M 592.199,351.074 L 593.551,351.074 L 594.801,350.977 L 595.898,350.375 L 596.148,349.824 L 596.25,349.023 L 596,347.875 L 595.352,347.273 L 594.398,347.023 L 593.199,347.023 L 590.102,347.023 L 590.102,351.074 L 592.199,351.074 z "
       style="fill:#eb1c31;fill-opacity:1"
       id="path38" />
  </g>
</svg>
